<?xml version="1.0" encoding="UTF-8" standalone="no"?>
<!-- Created with Inkscape (http://www.inkscape.org/) -->

<svg
   xmlns:dc="http://purl.org/dc/elements/1.1/"
   xmlns:cc="http://creativecommons.org/ns#"
   xmlns:rdf="http://www.w3.org/1999/02/22-rdf-syntax-ns#"
   xmlns:svg="http://www.w3.org/2000/svg"
   xmlns="http://www.w3.org/2000/svg"
   xmlns:sodipodi="http://sodipodi.sourceforge.net/DTD/sodipodi-0.dtd"
   xmlns:inkscape="http://www.inkscape.org/namespaces/inkscape"
   width="80"
   height="65"
   viewBox="0 0 80.000001 65"
   version="1.1"
   inkscape:version="0.91 r13725"
   sodipodi:docname="statusIndicator.svg"
   id="svg2">
  <metadata
     id="metadata65">
    <rdf:RDF>
      <cc:Work
         rdf:about="">
        <dc:format>image/svg+xml</dc:format>
        <dc:type
           rdf:resource="http://purl.org/dc/dcmitype/StillImage" />
        <dc:title />
      </cc:Work>
    </rdf:RDF>
  </metadata>
  <defs
     id="defs5239">
    <clipPath
       clipPathUnits="userSpaceOnUse"
       id="clipPath4162">
      <path
         inkscape:connector-curvature="0"
         d="m 13.612786,994.93988 c -2.6947,0 -4.8769607,2.1822 -4.8769607,4.8769 l 0,18.59562 c -2.20909,1.5404 -3.6582,4.1043 -3.6582,7.002 0,4.7127 3.82242,8.5332 8.5351607,8.5332 4.71274,0 8.5332,-3.8205 8.5332,-8.5332 0,-2.8977 -1.44911,-5.4616 -3.6582,-7.002 l 0,-18.59562 c 0,-2.6947 -2.1803,-4.8769 -4.875,-4.8769 z m 0,1.2187 c 2.01804,0 3.65625,1.6402 3.65625,3.6582 l 0,19.23232 0.52148,0.3672 c 1.96232,1.3693 3.13672,3.6138 3.13672,6.002 -0.004,4.0281 -3.28235,7.3105 -7.31445,7.3105 -4.0321007,0 -7.3164107,-3.2783 -7.3164107,-7.3144 0,-2.3882 1.17042,-4.6347 3.13672,-6.0039 l 0.5214803,-0.3653 0,-19.22842 c 0,-2.018 1.6401704,-3.6582 3.6582104,-3.6582 z m 0,1.7481 c -0.96723,0 -1.76452,0.7517 -1.82422,1.707 l -0.004,0 0,21.27532 c -1.7871804,0.7244 -3.0488307,2.4756 -3.0488307,4.5215 0,2.6947 2.1822607,4.875 4.8769607,4.875 2.6947,0 4.875,-2.1803 4.875,-4.875 0,-2.0459 -1.26165,-3.7971 -3.04883,-4.5215 l 0,-21.27532 -0.004,0 c -0.0637,-0.9513 -0.85504,-1.707 -1.82226,-1.707 z"
         id="path4164" />
    </clipPath>
    <clipPath
       clipPathUnits="userSpaceOnUse"
       id="clipPath4166">
      <path
         inkscape:connector-curvature="0"
         d="m 13.612786,994.93988 c -2.6947,0 -4.8769607,2.1822 -4.8769607,4.8769 l 0,18.59562 c -2.20909,1.5404 -3.6582,4.1043 -3.6582,7.002 0,4.7127 3.82242,8.5332 8.5351607,8.5332 4.71274,0 8.5332,-3.8205 8.5332,-8.5332 0,-2.8977 -1.44911,-5.4616 -3.6582,-7.002 l 0,-18.59562 c 0,-2.6947 -2.1803,-4.8769 -4.875,-4.8769 z m 0,1.2187 c 2.01804,0 3.65625,1.6402 3.65625,3.6582 l 0,19.23232 0.52148,0.3672 c 1.96232,1.3693 3.13672,3.6138 3.13672,6.002 -0.004,4.0281 -3.28235,7.3105 -7.31445,7.3105 -4.0321007,0 -7.3164107,-3.2783 -7.3164107,-7.3144 0,-2.3882 1.17042,-4.6347 3.13672,-6.0039 l 0.5214803,-0.3653 0,-19.22842 c 0,-2.018 1.6401704,-3.6582 3.6582104,-3.6582 z m 0,1.7481 c -0.96723,0 -1.76452,0.7517 -1.82422,1.707 l -0.004,0 0,21.27532 c -1.7871804,0.7244 -3.0488307,2.4756 -3.0488307,4.5215 0,2.6947 2.1822607,4.875 4.8769607,4.875 2.6947,0 4.875,-2.1803 4.875,-4.875 0,-2.0459 -1.26165,-3.7971 -3.04883,-4.5215 l 0,-21.27532 -0.004,0 c -0.0637,-0.9513 -0.85504,-1.707 -1.82226,-1.707 z"
         id="path4168" />
    </clipPath>
    <clipPath
       clipPathUnits="userSpaceOnUse"
       id="clipPath4192">
      <path
         inkscape:connector-curvature="0"
         id="path4194"
         d="m 37.590547,1008.9477 -4.470648,0 0,-1.7988 -4.473457,0 0,1.796 -7.295693,0 0,-1.796 -4.473456,0 0,1.796 -4.470648,0 c -0.645885,0 -1.16821,0.5361 -1.16821,1.1963 l 0,22.1597 c 0,0.663 0.522325,1.1992 1.16821,1.1992 l 25.18671,0 c 0.645885,0 1.168209,-0.5362 1.168209,-1.1992 l 0,-22.1568 c -0.0028,-0.6602 -0.525132,-1.1964 -1.171017,-1.1964 z m -16.239798,8.484 -1.460262,0 0,1.4961 c 0,0.4411 -0.348216,0.7985 -0.77787,0.7985 -0.429654,0 -0.77787,-0.3574 -0.77787,-0.7985 l 0,-1.4961 -1.457454,0 c -0.429654,0 -0.77787,-0.3575 -0.77787,-0.7986 0,-0.441 0.348216,-0.7985 0.77787,-0.7985 l 1.457454,0 0,-1.499 c 0,-0.4411 0.348216,-0.7985 0.77787,-0.7985 0.429654,0 0.77787,0.3574 0.77787,0.7985 l 0,1.499 1.460262,0 c 0.429654,0 0.77787,0.3575 0.77787,0.7985 0,0.4411 -0.348216,0.7986 -0.77787,0.7986 z m 11.766341,0 -4.473456,0 c -0.429654,0 -0.77787,-0.3575 -0.77787,-0.7986 0,-0.441 0.348216,-0.7985 0.77787,-0.7985 l 4.473456,0 c 0.429654,0 0.777871,0.3575 0.777871,0.7985 0,0.4411 -0.348217,0.7986 -0.777871,0.7986 z" />
    </clipPath>
    <clipPath
       clipPathUnits="userSpaceOnUse"
       id="clipPath4188">
      <path
         inkscape:connector-curvature="0"
         id="path4190"
         d="m 37.590547,1008.9477 -4.470648,0 0,-1.7988 -4.473457,0 0,1.796 -7.295693,0 0,-1.796 -4.473456,0 0,1.796 -4.470648,0 c -0.645885,0 -1.16821,0.5361 -1.16821,1.1963 l 0,22.1597 c 0,0.663 0.522325,1.1992 1.16821,1.1992 l 25.18671,0 c 0.645885,0 1.168209,-0.5362 1.168209,-1.1992 l 0,-22.1568 c -0.0028,-0.6602 -0.525132,-1.1964 -1.171017,-1.1964 z m -16.239798,8.484 -1.460262,0 0,1.4961 c 0,0.4411 -0.348216,0.7985 -0.77787,0.7985 -0.429654,0 -0.77787,-0.3574 -0.77787,-0.7985 l 0,-1.4961 -1.457454,0 c -0.429654,0 -0.77787,-0.3575 -0.77787,-0.7986 0,-0.441 0.348216,-0.7985 0.77787,-0.7985 l 1.457454,0 0,-1.499 c 0,-0.4411 0.348216,-0.7985 0.77787,-0.7985 0.429654,0 0.77787,0.3574 0.77787,0.7985 l 0,1.499 1.460262,0 c 0.429654,0 0.77787,0.3575 0.77787,0.7985 0,0.4411 -0.348216,0.7986 -0.77787,0.7986 z m 11.766341,0 -4.473456,0 c -0.429654,0 -0.77787,-0.3575 -0.77787,-0.7986 0,-0.441 0.348216,-0.7985 0.77787,-0.7985 l 4.473456,0 c 0.429654,0 0.777871,0.3575 0.777871,0.7985 0,0.4411 -0.348217,0.7986 -0.777871,0.7986 z" />
    </clipPath>
    <clipPath
       clipPathUnits="userSpaceOnUse"
       id="clipPath4186">
      <path
         d="m 48.635863,1072.2589 -2.798098,0 0,-1.796 -4.473456,0 0,1.796 -3.061438,0 c -0.645885,0 -1.16821,0.5361 -1.16821,1.1963 l 0,22.1597 c 0,0.663 0.522325,1.1992 1.16821,1.1992 l 10.3358,0 c 0.645885,0 1.168209,-0.5362 1.168209,-1.1992 l 0,-22.1568 c -0.0028,-0.6602 -0.525132,-1.1964 -1.171017,-1.1964 z"
         id="path4188"
         inkscape:connector-curvature="0"
         sodipodi:nodetypes="cccccssssssccc" />
    </clipPath>
    <clipPath
       clipPathUnits="userSpaceOnUse"
       id="clipPath4359">
      <path
         inkscape:connector-curvature="0"
         id="path4361"
         d="m 31.860778,-1016.2361 0,-14.4262 -4.295462,0 7.618351,-15.2369 7.699417,15.2369 -4.943857,0 0,14.2641 z" />
    </clipPath>
    <clipPath
       clipPathUnits="userSpaceOnUse"
       id="clipPath4363">
      <path
         inkscape:connector-curvature="0"
         id="path4365"
         d="m 31.860778,-1016.2361 0,-14.4262 -4.295462,0 7.618351,-15.2369 7.699417,15.2369 -4.943857,0 0,14.2641 z" />
    </clipPath>
    <clipPath
       clipPathUnits="userSpaceOnUse"
       id="clipPath4351">
      <path
         d="m 11.177905,1045.675 0,-14.4262 -4.2954626,0 7.6183516,-15.2369 7.699417,15.2369 -4.943857,0 0,14.2641 z"
         id="path4353"
         inkscape:connector-curvature="0" />
    </clipPath>
    <clipPath
       clipPathUnits="userSpaceOnUse"
       id="clipPath4355">
      <path
         d="m 11.177905,1045.675 0,-14.4262 -4.2954626,0 7.6183516,-15.2369 7.699417,15.2369 -4.943857,0 0,14.2641 z"
         id="path4357"
         inkscape:connector-curvature="0" />
    </clipPath>
    <clipPath
       clipPathUnits="userSpaceOnUse"
       id="clipPath4200">
      <path
         inkscape:connector-curvature="0"
         id="path4202"
         d="m 31.860778,-1016.2361 0,-14.4262 -4.295462,0 7.618351,-15.2369 7.699417,15.2369 -4.943857,0 0,14.2641 z" />
    </clipPath>
    <clipPath
       clipPathUnits="userSpaceOnUse"
       id="clipPath4204">
      <path
         inkscape:connector-curvature="0"
         id="path4206"
         d="m 31.860778,-1016.2361 0,-14.4262 -4.295462,0 7.618351,-15.2369 7.699417,15.2369 -4.943857,0 0,14.2641 z" />
    </clipPath>
    <clipPath
       clipPathUnits="userSpaceOnUse"
       id="clipPath4208">
      <path
         d="m 11.177905,1045.675 0,-14.4262 -4.2954626,0 7.6183516,-15.2369 7.699417,15.2369 -4.943857,0 0,14.2641 z"
         id="path4210"
         inkscape:connector-curvature="0" />
    </clipPath>
    <clipPath
       clipPathUnits="userSpaceOnUse"
       id="clipPath4212">
      <path
         d="m 11.177905,1045.675 0,-14.4262 -4.2954626,0 7.6183516,-15.2369 7.699417,15.2369 -4.943857,0 0,14.2641 z"
         id="path4214"
         inkscape:connector-curvature="0" />
    </clipPath>
    <clipPath
       clipPathUnits="userSpaceOnUse"
       id="clipPath4149">
      <path
         d="m 15.845554,995.80943 c -1.91468,0.0154 -3.043195,1.43983 -3.090181,3.80273 -0.0065,0.3194 -0.0032,0.64144 -0.0032,0.96094 l 0,27.4395 0,1.205 c -1.864538,0.2579 -1.454553,0.288 -1.514078,2.166 -0.0065,0.1924 -0.0032,0.3858 -0.0032,0.5782 0,1.4813 0.04472,1.539 1.21985,1.539 l 16.934766,0 c 1.077954,0 1.143434,-0.085 1.146692,-1.4316 l 0,-0.4824 c 0,-1.9819 1.1e-5,-1.9809 -1.479089,-2.3965 0,-4.8681 7.7e-5,-9.7477 -0.0032,-14.6582 0.858608,0.3002 0.888891,1.0685 0.895405,1.8613 l 0.0827,7.0219 c 0.04902,4.1618 4.565512,4.3918 6.220657,2.7546 1.638,-1.6201 2.426001,-4.4923 1.49776,-6.642 -1.746672,-9.774 0.976945,-6.5392 1.014566,-12.7966 0.01253,-2.0589 -0.585705,-3.6791 -1.883054,-4.9375 -1.516704,-1.4701 -3.03657,-2.94017 -4.547004,-4.42187 -0.366635,-0.3574 -0.686175,-0.58479 -1.049675,0.0117 -0.363509,0.5965 -0.08813,0.87246 0.291046,1.22656 1.291079,1.2006 2.564007,2.41711 3.109266,4.43751 0.166083,0.6157 0.614399,1.1086 0.858826,1.7051 0.216219,0.5234 0.465916,1.108 0.469173,1.666 0.03127,5.838 -2.14446,2.3669 -0.739455,10.9295 1.405006,8.5626 -2.629746,6.5292 -2.644953,4.4674 -0.0061,-2.6323 0.0032,-1.8916 0.0032,-4.5238 0.0031,-4.114 -0.475536,-4.9433 -3.646827,-6.2286 l 0,-1.0156 c 0.0033,-3.4981 0.01563,-6.9961 -0.0032,-10.49415 -0.01253,-2.3244 -1.141627,-3.72914 -3.024974,-3.74414 -3.368709,-0.027 -6.740031,-0.023 -10.111875,0 z m 0.852465,4.41987 c 2.81718,0.012 5.634299,0.01 8.451479,0 0.585998,0 0.858901,0.3196 0.855644,1.0469 -0.0094,1.9203 -0.0094,3.8453 0,5.7656 0.0031,0.7851 -0.305101,1.0735 -0.922442,1.0625 -1.38509,-0.029 -2.765855,-0.012 -4.147809,-0.012 l 0,0.012 c -1.407019,0 -2.817177,-0.015 -4.22733,0 -0.654945,0.012 -0.959175,-0.3248 -0.95266,-1.1445 0.01563,-1.8549 0.01881,-3.7135 0,-5.5722 -0.0063,-0.8158 0.288181,-1.1583 0.943118,-1.1583 z m -0.820656,10.4356 9.736536,0 0,1.9922 -9.736536,0 z"
         id="path4151"
         inkscape:connector-curvature="0"
         sodipodi:nodetypes="ccscccssscscccssccccscccczccccccccccccccccccccccc" />
    </clipPath>
    <clipPath
       clipPathUnits="userSpaceOnUse"
       id="clipPath4153">
      <path
         d="m 13.757812,995.80943 c -2.351339,0.0154 -3.737221,1.43983 -3.7949214,3.80273 -0.008,0.3194 -0.00391,0.64144 -0.00391,0.96094 l 0,27.4395 0,1.205 c -2.28976,0.2579 -1.786275,0.288 -1.859375,2.166 -0.008,0.1924 -0.00391,0.3858 -0.00391,0.5782 0,1.4813 0.054917,1.539 1.4980469,1.539 l 20.7968745,0 c 1.32379,0 1.404203,-0.085 1.408204,-1.4316 l 0,-0.4824 c 0,-1.9819 1.4e-5,-1.9809 -1.816407,-2.3965 0,-4.8681 9.5e-5,-9.7477 -0.0039,-14.6582 1.05442,0.3002 1.091609,1.0685 1.099609,1.8613 l 0.101563,7.0219 c 0.0602,4.1618 5.606713,4.3918 7.639328,2.7546 2.011559,-1.6201 2.979269,-4.4923 1.839336,-6.642 -2.145015,-9.774 1.199745,-6.5392 1.245946,-12.7966 0.01539,-2.0589 -0.71928,-3.6791 -2.3125,-4.9375 -1.8626,-1.4701 -3.729084,-2.94017 -5.583985,-4.42187 -0.450249,-0.3574 -0.842662,-0.58479 -1.289062,0.0117 -0.44641,0.5965 -0.108228,0.87246 0.357422,1.22656 1.58552,1.2006 3.148749,2.41711 3.818359,4.43751 0.20396,0.6157 0.754518,1.1086 1.054688,1.7051 0.26553,0.5234 0.572172,1.108 0.576172,1.666 0.0384,5.838 -2.633522,2.3669 -0.908094,10.9295 1.725429,8.5626 -3.22948,6.5292 -3.248156,4.4674 -0.0075,-2.6323 0.0039,-1.8916 0.0039,-4.5238 0.0038,-4.114 -0.583986,-4.9433 -4.478516,-6.2286 l 0,-1.0156 c 0.004,-3.4981 0.01919,-6.9961 -0.0039,-10.49415 -0.01539,-2.3244 -1.401984,-3.72914 -3.714844,-3.74414 -4.13697,-0.027 -8.277149,-0.023 -12.417968,0 z m 1.046876,4.41987 c 3.45966,0.012 6.919246,0.01 10.378906,0 0.71964,0 1.054781,0.3196 1.050781,1.0469 -0.0115,1.9203 -0.0115,3.8453 0,5.7656 0.0038,0.7851 -0.374682,1.0735 -1.132813,1.0625 -1.70097,-0.029 -3.39663,-0.012 -5.09375,-0.012 l 0,0.012 c -1.7279,0 -3.459656,-0.015 -5.191406,0 -0.80431,0.012 -1.177922,-0.3248 -1.169922,-1.1445 0.0192,-1.8549 0.0231,-3.7135 0,-5.5722 -0.0077,-0.8158 0.353904,-1.1583 1.158204,-1.1583 z m -1.007813,10.4356 11.957031,0 0,1.9922 -11.957031,0 z"
         id="path4155-8"
         inkscape:connector-curvature="0"
         sodipodi:nodetypes="ccscccssscscccssccccscccczccccccccccccccccccccccc" />
    </clipPath>
  </defs>
  <sodipodi:namedview
     id="base"
     pagecolor="#2e2824"
     bordercolor="#666666"
     borderopacity="1.0"
     inkscape:pageopacity="1"
     inkscape:pageshadow="2"
     inkscape:zoom="36.900096"
     inkscape:cx="18.126494"
     inkscape:cy="32.476217"
     inkscape:document-units="px"
     inkscape:current-layer="layer1"
     showgrid="false"
     units="px"
     inkscape:window-width="3440"
     inkscape:window-height="1377"
     inkscape:window-x="-8"
     inkscape:window-y="-8"
     inkscape:window-maximized="1" />
  <g
     inkscape:label="Layer 1"
     inkscape:groupmode="layer"
     id="layer1"
     transform="translate(0,-987.36216)">
    <path
       id="path4155"
       style="font-style:normal;font-variant:normal;font-weight:bold;font-stretch:normal;font-size:12.5px;line-height:125%;font-family:sans-serif;-inkscape-font-specification:'sans-serif Bold';letter-spacing:0px;word-spacing:0px;fill:#554400;fill-opacity:1;stroke:none;stroke-width:1px;stroke-linecap:butt;stroke-linejoin:miter;stroke-opacity:1"
       d="m 53.532013,1000.1307 q 0,1.3427 -1.141358,2.185 -1.135253,0.8362 -3.088378,0.8362 -1.129151,0 -1.971436,-0.1953 -0.836182,-0.2014 -1.568604,-0.5066 l 0,-2.1789 0.256348,0 q 0.726318,0.5798 1.623535,0.8911 0.903321,0.3112 1.733399,0.3112 0.213623,0 0.561523,-0.037 0.347901,-0.037 0.567627,-0.122 0.268555,-0.1099 0.439453,-0.2747 0.177002,-0.1648 0.177002,-0.4883 0,-0.2991 -0.256347,-0.5127 -0.250245,-0.2197 -0.738526,-0.33567 -0.512695,-0.12207 -1.086426,-0.22583 -0.567627,-0.10986 -1.068115,-0.27466 -1.147461,-0.37231 -1.654053,-1.00708 -0.500488,-0.64087 -0.500488,-1.58691 0,-1.26953 1.135254,-2.06909 1.141357,-0.80567 2.929687,-0.80567 0.897217,0 1.77002,0.177 0.878906,0.1709 1.519775,0.43335 l 0,2.09351 -0.250244,0 q -0.549316,-0.43945 -1.348877,-0.73242 -0.793457,-0.29907 -1.623535,-0.29907 -0.292969,0 -0.585937,0.0427 -0.286866,0.0366 -0.55542,0.14648 -0.238037,0.0916 -0.408936,0.28077 -0.170898,0.1831 -0.170898,0.42114 0,0.36011 0.274658,0.55542 0.274658,0.18921 1.037598,0.3479 0.500488,0.10376 0.958252,0.20141 0.463867,0.0977 0.994873,0.26856 1.043701,0.3418 1.538086,0.93384 0.500488,0.58593 0.500488,1.52592 z m -8.929444,-3.36306 q 0,0.61035 -0.213623,1.19629 -0.213623,0.57983 -0.610351,0.97656 -0.543213,0.53711 -1.2146,0.81177 -0.665283,0.27464 -1.660156,0.27464 l -1.45874,0 0,2.9602 -2.34375,0 0,-9.08811 3.857422,0 q 0.866699,0 1.45874,0.15258 0.598144,0.14649 1.055908,0.44556 0.549316,0.36011 0.836182,0.92163 0.292968,0.56153 0.292968,1.34888 z m -2.423095,0.0549 q 0,-0.38452 -0.20752,-0.65918 -0.207519,-0.28076 -0.482177,-0.39062 -0.366211,-0.14649 -0.714112,-0.1587 -0.3479,-0.0183 -0.927734,-0.0183 l -0.402832,0 0,2.72217 0.671386,0 q 0.598145,0 0.982667,-0.0732 0.390625,-0.0732 0.653076,-0.29297 0.22583,-0.19531 0.323486,-0.46387 0.10376,-0.27465 0.10376,-0.66528 z m -7.171631,5.64576 q -0.610352,0.2381 -1.617432,0.4761 -1.00708,0.2319 -2.008056,0.2319 -2.319336,0 -3.631592,-1.2573 -1.312256,-1.2634 -1.312256,-3.4851 0,-2.11792 1.324463,-3.41187 1.324463,-1.30005 3.692627,-1.30005 0.897217,0 1.708984,0.1648 0.811768,0.15869 1.806641,0.64087 l 0,2.13013 -0.262451,0 q -0.170899,-0.12818 -0.500489,-0.36011 -0.329589,-0.23804 -0.634765,-0.40283 -0.354004,-0.19532 -0.830078,-0.3357 -0.469971,-0.14038 -1.000977,-0.14038 -0.622559,0 -1.12915,0.18311 -0.506592,0.1831 -0.909424,0.56152 -0.384522,0.36621 -0.610352,0.93384 -0.219726,0.56152 -0.219726,1.30005 0,1.50757 0.79956,2.30712 0.799561,0.7996 2.362061,0.7996 0.134277,0 0.292969,-0.01 0.164794,-0.01 0.299072,-0.018 l 0,-1.78227 -1.812744,0 0,-1.71509 4.193115,0 0,4.48606 z"
       inkscape:connector-curvature="0" />
    <rect
       ry="7.271162"
       y="988.86511"
       x="1.5029331"
       height="61.994141"
       width="76.964653"
       id="frame"
       style="opacity:1;fill:#110e0c;fill-opacity:1;stroke:#ff0000;stroke-width:3.00586629;stroke-linecap:round;stroke-miterlimit:4;stroke-dasharray:none;stroke-dashoffset:0;stroke-opacity:1"
       inkscape:label="#rect4655" />
    <path
       style="color:#000000;text-indent:0;text-transform:none;block-progression:tb;fill:#695400;fill-opacity:1;stroke:none;stroke-opacity:1"
       d="m 37.954089,1005.4776 c -0.189989,0.01 -0.385168,0.077 -0.524744,0.208 l -1.294143,1.216 c -0.279148,0.2623 -0.317053,0.739 0,0.9601 l 3.398647,2.3685 c 0.317053,0.2209 0.743761,0.2633 1.022912,0 l 0.497063,-0.466 c 0.279232,-0.2623 0.242418,-0.6693 -0.0011,-0.9613 l -2.601567,-3.1183 c -0.121754,-0.1461 -0.307074,-0.2118 -0.497063,-0.208 z m -0.01217,0.598 c 0.02278,0 0.0448,0.01 0.062,0.029 l 2.601559,3.1185 c 0.03431,0.041 0.04053,0.085 0.0011,0.1217 l -0.49707,0.467 c -0.03941,0.037 -0.08364,0.03 -0.128418,0 l -3.399746,-2.3696 c -0.04477,-0.03 -0.03941,-0.082 0,-0.1195 l 1.295251,-1.217 c 0.01972,-0.019 0.04255,-0.029 0.06532,-0.029 z m -2.91818,3.0374 a 0.39880261,0.42586504 0 0 0 -0.281196,0.1093 c -2.525144,2.3726 -2.525144,6.3139 0,8.6866 2.525163,2.3726 6.564971,2.3714 9.089981,0 a 0.39897619,0.42605041 0 1 0 -0.526955,-0.6398 c -2.204242,2.0712 -5.831964,2.0731 -8.036066,0.01 -2.204109,-2.0711 -2.204109,-5.3374 0,-7.4083 a 0.39880261,0.42586504 0 0 0 -0.245764,-0.7491 z m 7.604319,0.2299 c -0.20789,-2e-4 -0.415661,0.073 -0.572342,0.2205 l -1.793421,1.6861 c -0.313371,0.2944 -0.313371,0.7811 0,1.0756 l 0.344294,0.3245 c 0.31337,0.2944 0.832421,0.2944 1.145792,0 l 1.794531,-1.6861 c 0.31337,-0.2945 0.312102,-0.7811 -0.0011,-1.0755 l -0.344296,-0.3246 c -0.156688,-0.1472 -0.365562,-0.2203 -0.573448,-0.2205 z m 0,0.5887 c 0.04456,0 0.08938,0.017 0.126203,0.051 l 0.345398,0.3235 c 0.07364,0.069 0.07365,0.168 0,0.2372 l -1.794524,1.6851 c -0.07365,0.07 -0.178766,0.07 -0.252407,0 l -0.344299,-0.3245 c -0.07363,-0.07 -0.07347,-0.1679 0,-0.2371 l 1.794533,-1.6852 c 0.03682,-0.035 0.08055,-0.051 0.125096,-0.051 z m -6.140802,0.5233 a 0.39880261,0.42586504 0 0 0 -0.241336,0.1102 c -1.71564,1.6121 -1.715669,4.3183 0,5.93 1.715631,1.6122 4.442018,1.612 6.157406,0 a 0.39892438,0.42599508 0 0 0 -0.526955,-0.6396 c -1.394634,1.3104 -3.708902,1.3113 -5.103498,0 -1.394565,-1.3103 -1.394594,-3.3424 0,-4.6528 a 0.39880261,0.42586504 0 0 0 -0.245764,-0.7489 0.39880261,0.42586504 0 0 0 -0.03985,0 z m 7.344165,1.2669 c -0.181877,-0.01 -0.359702,0.053 -0.49928,0.184 l -0.497064,0.4671 c -0.279148,0.2624 -0.234023,0.6622 0.0011,0.9602 l 2.52186,3.1944 c 0.235214,0.2979 0.741543,0.2623 1.020699,0 l 1.295246,-1.217 c 0.27915,-0.2623 0.310724,-0.7303 0,-0.9591 l -3.318933,-2.4444 c -0.155363,-0.1145 -0.341757,-0.1808 -0.523635,-0.1852 z m -5.781011,0.1644 a 0.39880261,0.42586504 0 0 0 -0.28119,0.1102 c -0.874014,0.8212 -0.872541,2.2466 0.0011,3.0675 0.873687,0.821 2.235974,0.821 3.109704,0 a 0.39892963,0.4260007 0 1 0 -0.526956,-0.6397 c -0.55305,0.5196 -1.501697,0.5196 -2.054685,0 -0.552907,-0.5196 -0.55484,-1.2688 -0.0021,-1.7881 a 0.39880261,0.42586504 0 0 0 -0.245764,-0.7499 z m 5.790975,0.414 c 0.02189,0 0.04449,0.01 0.06643,0.026 l 3.320047,2.4444 c 0.04387,0.031 0.03941,0.083 0,0.1208 l -1.295252,1.2159 c -0.03941,0.036 -0.0952,0.043 -0.128417,0 l -2.520753,-3.1933 c -0.0332,-0.043 -0.04061,-0.084 -0.0011,-0.1217 l 0.497063,-0.4672 c 0.01969,-0.018 0.04013,-0.026 0.062,-0.025 z"
       id="gpsStatus"
       inkscape:connector-curvature="0"
       inkscape:label="#path3812" />
    <g
       clip-path="url(#clipPath4186)"
       id="powerLevel"
       transform="matrix(0.72626533,0,0,0.93176487,-17.332738,25.280282)"
       inkscape:label="#g4182">
      <rect
         clip-path="none"
         ry="0"
         y="1070.5686"
         x="28.73608"
         height="26.134199"
         width="31.337206"
         id="fullPowerBar"
         style="opacity:1;fill:#695400;fill-opacity:1;stroke:none;stroke-width:1;stroke-linecap:round;stroke-miterlimit:4;stroke-dasharray:none;stroke-dashoffset:0;stroke-opacity:1"
         inkscape:label="#rect6064-0-3" />
      <rect
         clip-path="url(#clipPath4188)"
         style="opacity:1;fill:#1c9f1c;fill-opacity:1;stroke:none;stroke-width:1;stroke-linecap:round;stroke-miterlimit:4;stroke-dasharray:none;stroke-dashoffset:0;stroke-opacity:1"
         id="powerLevelBar"
         width="14.426682"
         height="13.243408"
         x="9.331399"
         y="1020.2567"
         ry="0"
         inkscape:label="#rect6052-6-9"
         transform="matrix(1.1731692,0,0,1,23.08287,63.202831)" />
    </g>
    <rect
       inkscape:label="#rect6064-0-3"
       style="opacity:1;fill:#695400;fill-opacity:1;stroke:none;stroke-width:1;stroke-linecap:round;stroke-miterlimit:4;stroke-dasharray:none;stroke-dashoffset:0;stroke-opacity:1"
       id="linkFullBarUp"
       width="17"
       height="29.984388"
       x="6.0370402"
       y="1015.9632"
       ry="0"
       clip-path="url(#clipPath4355)"
       transform="matrix(0.66442368,0,0,0.56437162,47.26222,433.94511)" />
    <rect
       inkscape:label="#rect6052-6-9"
       ry="0"
       y="1032.2876"
       x="6.3686261"
       height="13.298685"
       width="16.319736"
       id="linkRatioBarUp0"
       style="opacity:1;fill:#1c9f1c;fill-opacity:1;stroke:#072707;stroke-width:0.72315502;stroke-linecap:round;stroke-miterlimit:4;stroke-dasharray:none;stroke-dashoffset:0;stroke-opacity:1"
       clip-path="url(#clipPath4351)"
       transform="matrix(0.66442368,0,0,0.56437162,47.26222,433.94511)" />
    <rect
       clip-path="url(#clipPath4363)"
       ry="0"
       y="-1045.9479"
       x="26.719913"
       height="29.984388"
       width="17"
       id="linkFullBarDown"
       style="opacity:1;fill:#695400;fill-opacity:1;stroke:none;stroke-width:1;stroke-linecap:round;stroke-miterlimit:4;stroke-dasharray:none;stroke-dashoffset:0;stroke-opacity:1"
       inkscape:label="#rect6064-0-3"
       transform="matrix(0.66442368,0,0,-0.56437162,44.496615,433.81857)" />
    <rect
       clip-path="url(#clipPath4359)"
       style="opacity:1;fill:#ffff00;fill-opacity:1;stroke:#072707;stroke-width:0.72315502;stroke-linecap:round;stroke-miterlimit:4;stroke-dasharray:none;stroke-dashoffset:0;stroke-opacity:1"
       id="linkRatioBarDown0"
       width="16.319736"
       height="13.298685"
       x="27.051498"
       y="-1029.6234"
       ry="0"
       inkscape:label="#rect6052-6-9"
       transform="matrix(0.66442368,0,0,-0.56437162,44.496615,433.81857)" />
    <rect
       transform="matrix(0.66442368,0,0,0.56437162,47.31946,455.67269)"
       clip-path="url(#clipPath4355)"
       ry="0"
       y="1015.9632"
       x="6.0370402"
       height="29.984388"
       width="17"
       id="rect4183"
       style="opacity:1;fill:#695400;fill-opacity:1;stroke:none;stroke-width:1;stroke-linecap:round;stroke-miterlimit:4;stroke-dasharray:none;stroke-dashoffset:0;stroke-opacity:1"
       inkscape:label="#rect6064-0-3" />
    <rect
       ry="3.5037425"
       y="1027.58"
       x="50.954945"
       height="19.983738"
       width="22.98328"
       id="linkFrame1"
       style="opacity:1;fill:none;fill-opacity:1;stroke:#695400;stroke-width:0.87465918;stroke-linecap:butt;stroke-linejoin:round;stroke-miterlimit:4;stroke-dasharray:none;stroke-dashoffset:0;stroke-opacity:1"
       inkscape:label="#rect4199" />
    <rect
       transform="matrix(0.66442368,0,0,0.56437162,47.31946,455.67269)"
       clip-path="url(#clipPath4351)"
       style="opacity:1;fill:#1c9f1c;fill-opacity:1;stroke:#072707;stroke-width:0.72315502;stroke-linecap:round;stroke-miterlimit:4;stroke-dasharray:none;stroke-dashoffset:0;stroke-opacity:1"
       id="linkRatioBarUp1"
       width="16.319736"
       height="13.298685"
       x="6.3686261"
       y="1032.2876"
       ry="0"
       inkscape:label="#rect6052-6-9" />
    <rect
       style="opacity:1;fill:none;fill-opacity:1;stroke:#695400;stroke-width:0.84793395;stroke-linecap:butt;stroke-linejoin:round;stroke-miterlimit:4;stroke-dasharray:none;stroke-dashoffset:0;stroke-opacity:1"
       id="linkFrame0"
       width="23.011017"
       height="20.00939"
       x="50.943356"
       y="1005.8395"
       ry="3.605545"
       inkscape:label="#rect4163" />
    <rect
       transform="matrix(0.66442368,0,0,-0.56437162,44.465405,455.54615)"
       inkscape:label="#rect6064-0-3"
       style="opacity:1;fill:#695400;fill-opacity:1;stroke:none;stroke-width:1;stroke-linecap:round;stroke-miterlimit:4;stroke-dasharray:none;stroke-dashoffset:0;stroke-opacity:1"
       id="rect4187"
       width="17"
       height="29.984388"
       x="26.719913"
       y="-1045.9479"
       ry="0"
       clip-path="url(#clipPath4363)" />
    <rect
       transform="matrix(0.66442368,0,0,-0.56437162,44.465405,455.54615)"
       inkscape:label="#rect6052-6-9"
       ry="0"
       y="-1029.6234"
       x="27.051498"
       height="13.298685"
       width="16.319736"
       id="linkRatioBarDown1"
       style="opacity:1;fill:#ffff00;fill-opacity:1;stroke:#072707;stroke-width:0.72315502;stroke-linecap:round;stroke-miterlimit:4;stroke-dasharray:none;stroke-dashoffset:0;stroke-opacity:1"
       clip-path="url(#clipPath4359)" />
    <text
       xml:space="preserve"
       style="font-style:normal;font-weight:normal;font-size:12.5px;line-height:125%;font-family:sans-serif;text-align:end;letter-spacing:0px;word-spacing:0px;text-anchor:end;fill:#b1937e;fill-opacity:1;stroke:none;stroke-width:1px;stroke-linecap:butt;stroke-linejoin:miter;stroke-opacity:1"
       x="74.09407"
       y="1002.345"
       id="aircraftName"
       sodipodi:linespacing="125%"
       inkscape:label="#text4275"><tspan
         sodipodi:role="line"
         id="tspan4277"
         x="74.09407"
         y="1002.345"
         style="font-size:12.5px;text-align:end;text-anchor:end;fill:#b1937e;fill-opacity:1">noname</tspan></text>
    <g
       id="fuelLevel"
       transform="matrix(0.97047119,0,0,0.81587956,-37.33043,124.854)"
       inkscape:label="#g4295">
      <rect
         transform="matrix(0.61421231,0,0,0.83902254,59.874848,263.92389)"
         clip-path="url(#clipPath4153)"
         ry="0"
         y="995.79089"
         x="8.0955029"
         height="37.709"
         width="33.808998"
         id="fullFuelBar"
         style="opacity:1;fill:#695400;fill-opacity:1;stroke:none;stroke-width:1;stroke-linecap:round;stroke-miterlimit:4;stroke-dasharray:none;stroke-dashoffset:0;stroke-opacity:1"
         inkscape:label="#rect6064-0-3" />
      <rect
         transform="matrix(0.75428834,0,0,0.83902254,56.37323,263.92389)"
         clip-path="url(#clipPath4149)"
         style="opacity:1;fill:#1c9f1c;fill-opacity:1;stroke:#072707;stroke-width:1;stroke-linecap:round;stroke-miterlimit:4;stroke-dasharray:none;stroke-dashoffset:0;stroke-opacity:1"
         id="fuelLevelBar"
         width="31.337206"
         height="13.243378"
         x="9.331399"
         y="1020.2567"
         ry="0"
         inkscape:label="#rect6052-6-9" />
    </g>
    <path
       inkscape:connector-curvature="0"
       id="hostStatus"
       style="font-style:normal;font-variant:normal;font-weight:normal;font-stretch:normal;font-size:medium;line-height:125%;font-family:Calibri;-inkscape-font-specification:Calibri;letter-spacing:0px;word-spacing:0px;fill:#695400;fill-opacity:1;stroke:none;stroke-width:1px;stroke-linecap:butt;stroke-linejoin:miter;stroke-opacity:1"
       d="m 14.942781,1018.4363 q 0,0.067 -0.03314,0.117 -0.03314,0.05 -0.115992,0.084 -0.08286,0.025 -0.223702,0.042 -0.132564,0.025 -0.331409,0.025 -0.215416,0 -0.34798,-0.025 -0.132564,-0.016 -0.215417,-0.042 -0.08286,-0.033 -0.115993,-0.084 -0.03314,-0.051 -0.03314,-0.117 l 0,-4.797 -4.8800068,0 0,4.797 q 0,0.067 -0.033139,0.117 -0.033139,0.05 -0.1159927,0.084 -0.082856,0.025 -0.2237016,0.042 -0.1325638,0.025 -0.3396951,0.025 -0.1988458,0 -0.3396943,-0.025 -0.1408494,-0.016 -0.2237016,-0.042 -0.082856,-0.033 -0.1159936,-0.084 -0.033139,-0.051 -0.033139,-0.117 l 0,-10.3794 q 0,-0.067 0.033139,-0.117 0.033139,-0.05 0.1159936,-0.075 0.082855,-0.034 0.2237016,-0.05 0.1408485,-0.025 0.3396943,-0.025 0.2071313,0 0.3396951,0.025 0.1408486,0.017 0.2237016,0.05 0.082856,0.025 0.1159927,0.075 0.033139,0.05 0.033139,0.117 l 0,4.3289 4.8800068,0 0,-4.3289 q 0,-0.067 0.03314,-0.117 0.03314,-0.05 0.115993,-0.075 0.08286,-0.034 0.215417,-0.05 0.132564,-0.025 0.34798,-0.025 0.198845,0 0.331409,0.025 0.140849,0.017 0.223702,0.05 0.08285,0.025 0.115992,0.075 0.03314,0.05 0.03314,0.117 l 0,10.3794 z"
       inkscape:label="#path4198" />
    <path
       id="airspeedSensorStatus"
       style="color:#000000;font-style:normal;font-variant:normal;font-weight:normal;font-stretch:normal;font-size:medium;line-height:normal;font-family:sans-serif;text-indent:0;text-align:start;text-decoration:none;text-decoration-line:none;text-decoration-style:solid;text-decoration-color:#000000;letter-spacing:normal;word-spacing:normal;text-transform:none;direction:ltr;block-progression:tb;writing-mode:lr-tb;baseline-shift:baseline;text-anchor:start;white-space:normal;clip-rule:nonzero;display:inline;overflow:visible;visibility:visible;opacity:1;isolation:auto;mix-blend-mode:normal;color-interpolation:sRGB;color-interpolation-filters:linearRGB;solid-color:#000000;solid-opacity:1;fill:#695400;fill-opacity:1;fill-rule:nonzero;stroke:none;stroke-width:1;stroke-linecap:round;stroke-linejoin:round;stroke-miterlimit:4;stroke-dasharray:none;stroke-dashoffset:0;stroke-opacity:1;color-rendering:auto;image-rendering:auto;shape-rendering:auto;text-rendering:auto;enable-background:accumulate"
       d="m 29.460938,1008.8276 a 0.50005,0.50005 0 0 0 -0.34961,0.1367 c -1.259835,1.1599 -2.163426,1.4977 -2.902344,1.5136 -0.738917,0.016 -1.392944,-0.3053 -2.128906,-0.6875 -0.735962,-0.3821 -1.552209,-0.8267 -2.568359,-0.8242 -1.01615,0 -2.149491,0.4748 -3.476563,1.7012 a 0.50032968,0.50032968 0 1 0 0.679688,0.7344 c 1.216574,-1.1243 2.082264,-1.4338 2.798828,-1.4356 0.716564,0 1.365106,0.3285 2.105469,0.7129 0.740362,0.3844 1.575767,0.8212 2.611328,0.7988 1.03556,-0.022 2.191254,-0.5184 3.558593,-1.7773 a 0.50005,0.50005 0 0 0 -0.328124,-0.873 z m 0,3.0081 a 0.50005,0.50005 0 0 0 -0.34961,0.1367 c -1.259835,1.1599 -2.163426,1.4977 -2.902344,1.5136 -0.738917,0.016 -1.392944,-0.3053 -2.128906,-0.6875 -0.735962,-0.3821 -1.552209,-0.8267 -2.568359,-0.8242 -1.01615,0 -2.149491,0.4748 -3.476563,1.7012 a 0.50032968,0.50032968 0 1 0 0.679688,0.7344 c 1.216574,-1.1243 2.082264,-1.4338 2.798828,-1.4356 0.716564,0 1.365106,0.3285 2.105469,0.7129 0.740362,0.3844 1.575767,0.8212 2.611328,0.7988 1.03556,-0.022 2.191254,-0.5184 3.558593,-1.7773 a 0.50005,0.50005 0 0 0 -0.328124,-0.873 z m 0,3.0081 a 0.50005,0.50005 0 0 0 -0.34961,0.1367 c -1.259835,1.1599 -2.163426,1.4977 -2.902344,1.5136 -0.738917,0.016 -1.392944,-0.3053 -2.128906,-0.6875 -0.735962,-0.3821 -1.552209,-0.8267 -2.568359,-0.8242 -1.01615,0 -2.149491,0.4748 -3.476563,1.7012 a 0.50032968,0.50032968 0 1 0 0.679688,0.7344 c 1.216574,-1.1243 2.082264,-1.4338 2.798828,-1.4356 0.716564,0 1.365106,0.3285 2.105469,0.7129 0.740362,0.3844 1.575767,0.8212 2.611328,0.7988 1.03556,-0.022 2.191254,-0.5184 3.558593,-1.7773 a 0.50005,0.50005 0 0 0 -0.328124,-0.873 z"
       inkscape:label="#path4244" />
  </g>
</svg>
