<?xml version="1.0" encoding="UTF-8" standalone="no"?>
<!-- Created with Inkscape (http://www.inkscape.org/) -->

<svg
   xmlns:dc="http://purl.org/dc/elements/1.1/"
   xmlns:cc="http://creativecommons.org/ns#"
   xmlns:rdf="http://www.w3.org/1999/02/22-rdf-syntax-ns#"
   xmlns:svg="http://www.w3.org/2000/svg"
   xmlns="http://www.w3.org/2000/svg"
   xmlns:xlink="http://www.w3.org/1999/xlink"
   xmlns:sodipodi="http://sodipodi.sourceforge.net/DTD/sodipodi-0.dtd"
   xmlns:inkscape="http://www.inkscape.org/namespaces/inkscape"
   width="250"
   height="250"
   viewBox="0 0 250 250"
   id="gaugeSpeed"
   version="1.1"
   inkscape:version="0.91 r13725"
   sodipodi:docname="gaugeSpeed.svg">
  <defs
     id="defs4">
    <linearGradient
       inkscape:collect="always"
       id="linearGradient4225">
      <stop
         style="stop-color:#550000;stop-opacity:0"
         offset="0"
         id="stop4227" />
      <stop
         style="stop-color:#550000;stop-opacity:1"
         offset="1"
         id="stop4229" />
    </linearGradient>
    <inkscape:path-effect
       vertical="false"
       scale_y_rel="false"
       prop_scale="1"
       bendpath="m -165.3535,218.1263 a 72.411179,72.411179 0 0 1 0,-102.40486 72.411179,72.411179 0 0 1 102.404877,0 72.411179,72.411179 0 0 1 0,102.40487"
       is_visible="true"
       id="path-effect4225"
       effect="bend_path" />
    <inkscape:path-effect
       border_marks="both"
       mark_dir="right"
       offset="0"
       shift="0"
       major_mark_steps="1"
       minor_mark_length="8"
       mark_length="17"
       mark_distance="16.67"
       unit="px"
       is_visible="true"
       id="path-effect4223"
       effect="ruler" />
    <inkscape:path-effect
       effect="bend_path"
       id="path-effect4812"
       is_visible="true"
       bendpath="m -165.3535,218.1263 a 72.411179,72.411179 0 0 1 0,-102.40486 72.411179,72.411179 0 0 1 102.404877,0 72.411179,72.411179 0 0 1 0,102.40487"
       prop_scale="1"
       scale_y_rel="false"
       vertical="false" />
    <inkscape:path-effect
       effect="ruler"
       id="path-effect4810"
       is_visible="true"
       unit="px"
       mark_distance="1.6666667"
       mark_length="17"
       minor_mark_length="8"
       major_mark_steps="5"
       shift="0"
       offset="0"
       mark_dir="right"
       border_marks="both" />
    <inkscape:path-effect
       effect="bend_path"
       id="path-effect4180"
       is_visible="true"
       bendpath="M -86.495276,96.981088 A 26.544966,26.544966 0 0 1 -105.9428,67.875807 26.544966,26.544966 0 0 1 -79.624934,44.795655 26.544966,26.544966 0 0 1 -53.307064,67.875806 26.544966,26.544966 0 0 1 -72.75459,96.981088"
       prop_scale="1"
       scale_y_rel="false"
       vertical="false" />
    <inkscape:path-effect
       effect="ruler"
       id="path-effect4178"
       is_visible="true"
       unit="px"
       mark_distance="20"
       mark_length="14"
       minor_mark_length="7"
       major_mark_steps="5"
       shift="0"
       offset="0"
       mark_dir="right"
       border_marks="both" />
    <inkscape:path-effect
       effect="bend_path"
       id="path-effect4176"
       is_visible="true"
       bendpath="m -128.33988,243.67926 157,0"
       prop_scale="1"
       scale_y_rel="false"
       vertical="false" />
    <linearGradient
       inkscape:collect="always"
       id="linearGradient4386">
      <stop
         style="stop-color:#4b413a;stop-opacity:1"
         offset="0"
         id="stop4388" />
      <stop
         style="stop-color:#0d0b09;stop-opacity:1"
         offset="1"
         id="stop4390" />
    </linearGradient>
    <inkscape:path-effect
       effect="bend_path"
       id="path-effect4375"
       is_visible="true"
       bendpath="M 90.275137,271.70687 C 68.572574,249.25108 55.228309,218.72518 55.228307,185.09514 55.228301,116.11085 111.377,60.188038 180.63992,60.188038 c 69.26292,1e-5 125.4116,55.922812 125.4116,124.907102 l 0,0 c 0,33.59507 -13.31652,64.09241 -34.97912,86.54161"
       prop_scale="1"
       scale_y_rel="false"
       vertical="false" />
    <inkscape:path-effect
       effect="ruler"
       id="path-effect3338"
       is_visible="true"
       unit="px"
       mark_distance="11"
       mark_length="26"
       minor_mark_length="13"
       major_mark_steps="5"
       shift="0"
       offset="0"
       mark_dir="right"
       border_marks="none" />
    <inkscape:path-effect
       effect="ruler"
       id="path-effect3338-7"
       is_visible="true"
       unit="px"
       mark_distance="11"
       mark_length="26"
       minor_mark_length="0"
       major_mark_steps="5"
       shift="0"
       offset="0"
       mark_dir="right"
       border_marks="none" />
    <radialGradient
       inkscape:collect="always"
       xlink:href="#linearGradient4386"
       id="radialGradient4392"
       cx="135.16547"
       cy="132.26157"
       fx="135.16547"
       fy="132.26157"
       r="24.163879"
       gradientUnits="userSpaceOnUse"
       gradientTransform="matrix(1.376557,-0.02948344,0.03036212,1.4175814,-71.056631,-67.981311)" />
    <filter
       style="color-interpolation-filters:sRGB"
       inkscape:label="Drop Shadow"
       id="filter4519">
      <feFlood
         flood-opacity="0.419608"
         flood-color="rgb(0,0,0)"
         result="flood"
         id="feFlood4521" />
      <feComposite
         in="flood"
         in2="SourceGraphic"
         operator="in"
         result="composite1"
         id="feComposite4523" />
      <feGaussianBlur
         in="composite1"
         stdDeviation="2"
         result="blur"
         id="feGaussianBlur4525" />
      <feOffset
         dx="2"
         dy="2"
         result="offset"
         id="feOffset4527" />
      <feComposite
         in="SourceGraphic"
         in2="offset"
         operator="over"
         result="composite2"
         id="feComposite4529" />
    </filter>
    <filter
       inkscape:collect="always"
       style="color-interpolation-filters:sRGB"
       id="filter4905"
       x="-0.05780144"
       width="1.1156029"
       y="-0.062372424"
       height="1.1247449">
      <feGaussianBlur
         inkscape:collect="always"
         stdDeviation="3.0546144"
         id="feGaussianBlur4907" />
    </filter>
    <linearGradient
       inkscape:collect="always"
       xlink:href="#linearGradient4225"
       id="linearGradient4231"
       x1="61.164738"
       y1="70.748428"
       x2="47.72971"
       y2="94.436508"
       gradientUnits="userSpaceOnUse" />
  </defs>
  <sodipodi:namedview
     id="base"
     pagecolor="#63564d"
     bordercolor="#666666"
     borderopacity="1.0"
     inkscape:pageopacity="1"
     inkscape:pageshadow="2"
     inkscape:zoom="2.8284271"
     inkscape:cx="105.35657"
     inkscape:cy="128.86744"
     inkscape:document-units="px"
     inkscape:current-layer="layer1"
     showgrid="false"
     inkscape:window-width="1920"
     inkscape:window-height="1017"
     inkscape:window-x="-8"
     inkscape:window-y="-8"
     inkscape:window-maximized="1"
     units="px" />
  <metadata
     id="metadata7">
    <rdf:RDF>
      <cc:Work
         rdf:about="">
        <dc:format>image/svg+xml</dc:format>
        <dc:type
           rdf:resource="http://purl.org/dc/dcmitype/StillImage" />
        <dc:title />
      </cc:Work>
    </rdf:RDF>
  </metadata>
  <g
     inkscape:label="Layer 1"
     inkscape:groupmode="layer"
     id="layer1">
    <circle
       style="fill:#110e0c;fill-opacity:1;stroke:#000000;stroke-width:7.98756123;stroke-miterlimit:4;stroke-dasharray:none;stroke-opacity:0.24852074"
       id="path4382"
       cy="125"
       cx="125"
       r="111.00622" />
    <path
       style="opacity:1;fill:url(#linearGradient4231);fill-opacity:1;stroke:none;stroke-width:1.07500005;stroke-linecap:round;stroke-miterlimit:4;stroke-dasharray:none;stroke-dashoffset:0;stroke-opacity:1"
       d="m 57.323758,70.138635 a 83.448426,87.32769 0 0 0 -0.210896,0.251953 83.448426,87.32769 0 0 0 -0.507651,0.703125 83.448426,87.32769 0 0 0 -3.413582,4.998046 83.448426,87.32769 0 0 0 -2.254563,3.72461 83.448426,87.32769 0 0 0 -2.041802,3.722656 83.448426,87.32769 0 0 0 -1.892494,3.951172 83.448426,87.32769 0 0 0 -1.692788,3.958984 83.448426,87.32769 0 0 0 -1.49309,4.097657 83.448426,87.32769 0 0 0 -1.298994,4.08789 83.448426,87.32769 0 0 0 -1.104887,4.269532 83.448426,87.32769 0 0 0 -0.905181,4.21875 83.448426,87.32769 0 0 0 -0.684959,4.32617 83.448426,87.32769 0 0 0 -0.500187,4.29688 83.448426,87.32769 0 0 0 -0.347143,5.61523 83.448426,87.32769 0 0 0 -0.05786,1.70508 83.448426,87.32769 0 0 0 0.153045,4.53711 83.448426,87.32769 0 0 0 0.205297,4.30859 83.448426,87.32769 0 0 0 0.580447,4.44141 83.448426,87.32769 0 0 0 0.602826,4.18359 83.448426,87.32769 0 0 0 0.998512,4.35547 83.448426,87.32769 0 0 0 1.007829,4.13086 83.448426,87.32769 0 0 0 1.394179,4.18555 83.448426,87.32769 0 0 0 1.403505,4.02734 83.448426,87.32769 0 0 0 1.802909,4.05274 83.448426,87.32769 0 0 0 1.76931,3.83398 83.448426,87.32769 0 0 0 2.163113,3.81446 83.448426,87.32769 0 0 0 2.144451,3.66406 83.448426,87.32769 0 0 0 2.512129,3.5625 83.448426,87.32769 0 0 0 2.48413,3.41992 83.448426,87.32769 0 0 0 2.816337,3.25781 83.448426,87.32769 0 0 0 2.415081,2.71094 l 5.968626,-6.24609 A 75.002235,78.488861 0 0 1 47.338713,124.84176 75.002235,78.488861 0 0 1 63.938155,75.705041 l -6.614397,-5.566406 z"
       id="path4181"
       inkscape:connector-curvature="0" />
    <path
       style="font-style:normal;font-weight:normal;font-size:10px;line-height:125%;font-family:sans-serif;text-align:center;letter-spacing:0px;word-spacing:0px;text-anchor:middle;fill:#b1937e;fill-opacity:1;stroke:none;stroke-width:1px;stroke-linecap:butt;stroke-linejoin:miter;stroke-opacity:1"
       d="m 120.10742,24.617188 c -0.54199,0 -1.10449,0.07227 -1.68554,0.21875 -0.57618,0.141601 -1.03614,0.297851 -1.38282,0.46875 l 0,1.53125 0.0723,0 c 0.46387,-0.302735 0.95605,-0.53711 1.47851,-0.703126 0.52246,-0.166015 1.01661,-0.248046 1.48047,-0.248046 0.30274,0 0.57324,0.02344 0.8125,0.07227 0.23926,0.04883 0.46387,0.136719 0.67383,0.263672 0.2002,0.126953 0.35645,0.290039 0.46875,0.490235 0.11231,0.195312 0.16992,0.425781 0.16992,0.689453 0,0.595703 -0.22363,1.048828 -0.66797,1.361328 -0.43945,0.307617 -1.02929,0.46289 -1.77148,0.46289 l -0.51367,0 0,1.214844 0.66015,0 c 0.36133,0 0.69727,0.0293 1.00977,0.08789 0.3125,0.05371 0.5791,0.157226 0.79883,0.308594 0.21972,0.146484 0.38965,0.348632 0.51172,0.607421 0.12695,0.253907 0.1914,0.576172 0.1914,0.966797 0,0.395508 -0.0557,0.72168 -0.16797,0.980469 -0.10742,0.258789 -0.27343,0.496094 -0.49804,0.710937 -0.21485,0.200196 -0.49512,0.35254 -0.8418,0.455079 -0.34668,0.102539 -0.6748,0.154297 -0.98242,0.154297 -0.52246,0 -1.06543,-0.09082 -1.62695,-0.271485 -0.56153,-0.180664 -1.04981,-0.408203 -1.46485,-0.681641 l -0.10937,0 0,1.53125 c 0.37597,0.170899 0.85742,0.327149 1.44336,0.46875 0.58593,0.146485 1.18164,0.21875 1.7871,0.21875 0.59083,0 1.13184,-0.08105 1.625,-0.242187 0.49805,-0.166016 0.93067,-0.419922 1.29688,-0.761719 0.32715,-0.307617 0.58105,-0.666992 0.76172,-1.082031 0.18066,-0.415039 0.27148,-0.873047 0.27148,-1.371094 0,-0.502929 -0.0752,-0.913086 -0.22656,-1.230469 -0.15137,-0.317382 -0.3457,-0.581054 -0.58008,-0.791015 -0.20996,-0.185547 -0.46484,-0.338867 -0.76758,-0.460938 -0.30273,-0.126953 -0.57226,-0.208984 -0.80664,-0.248047 l 0,-0.103515 c 0.58106,-0.117188 1.08496,-0.400391 1.50977,-0.849609 0.42969,-0.454102 0.64453,-0.984376 0.64453,-1.589844 0,-0.444336 -0.0908,-0.832032 -0.27148,-1.164063 -0.18067,-0.332031 -0.44727,-0.615234 -0.79883,-0.849609 -0.32715,-0.214844 -0.69238,-0.371094 -1.09766,-0.46875 -0.40527,-0.09766 -0.87402,-0.146484 -1.40625,-0.146484 z m 9.71875,0.0078 c -1.29394,0 -2.24707,0.462891 -2.85742,1.390625 -0.61035,0.922852 -0.91406,2.354492 -0.91406,4.292969 0,1.923828 0.2998,3.349609 0.90039,4.277344 0.60547,0.927734 1.5625,1.390624 2.87109,1.390624 1.28906,0 2.23926,-0.456054 2.84961,-1.36914 0.61524,-0.917969 0.92188,-2.356445 0.92188,-4.314453 0,-1.899414 -0.30274,-3.316407 -0.90821,-4.253907 C 132.08887,25.09668 131.13477,24.625 129.82617,24.625 Z m 0,1.207031 c 0.46387,0 0.8418,0.09668 1.13477,0.28711 0.29785,0.190429 0.53222,0.473632 0.70312,0.849609 0.17578,0.380859 0.29297,0.84375 0.35156,1.390625 0.0635,0.546875 0.0957,1.191406 0.0957,1.933594 0,0.751953 -0.0322,1.396484 -0.0957,1.933593 -0.0586,0.532227 -0.17285,0.997071 -0.34374,1.392579 -0.16602,0.385742 -0.4004,0.672851 -0.70313,0.863281 -0.30273,0.19043 -0.68359,0.287109 -1.14258,0.287109 -0.48828,0 -0.88183,-0.100586 -1.17969,-0.300781 -0.29296,-0.200195 -0.5205,-0.490234 -0.68164,-0.871094 -0.17578,-0.405273 -0.29004,-0.866211 -0.34375,-1.378906 -0.0537,-0.512695 -0.0801,-1.148438 -0.0801,-1.910156 0,-0.69336 0.0293,-1.331055 0.0879,-1.91211 0.0635,-0.581054 0.17773,-1.052734 0.34375,-1.414062 0.17578,-0.385742 0.41308,-0.672852 0.71093,-0.863281 0.30274,-0.19043 0.6836,-0.28711 1.14258,-0.28711 z M 51.019531,49.617188 c -0.541992,0 -1.104492,0.07129 -1.685547,0.21289 -0.576172,0.141602 -1.038086,0.297852 -1.384765,0.46875 l 0,1.53711 0.07422,0 c 0.493164,-0.322266 0.998046,-0.560547 1.515624,-0.716797 0.517579,-0.15625 0.999024,-0.234375 1.44336,-0.234375 0.668945,0 1.189453,0.160156 1.560547,0.482422 0.375976,0.317382 0.5625,0.759765 0.5625,1.326171 0,0.620118 -0.172852,1.199219 -0.519531,1.736329 -0.34668,0.532226 -0.988282,1.251953 -1.925782,2.160156 -0.444336,0.43457 -0.925781,0.871094 -1.443359,1.310547 l -1.537109,1.318359 0,1.53125 7.382812,0 0,-1.251953 -5.867188,0 c 0.483399,-0.410156 1.003907,-0.855469 1.560547,-1.333985 0.556641,-0.483398 1.09668,-0.981445 1.619141,-1.49414 0.366211,-0.356445 0.675781,-0.681641 0.929688,-0.97461 0.258789,-0.292968 0.483398,-0.589843 0.673828,-0.892578 0.205078,-0.322265 0.358398,-0.661132 0.460937,-1.017578 0.107422,-0.361328 0.162109,-0.749023 0.162109,-1.164062 0,-0.922852 -0.318359,-1.654297 -0.953124,-2.191406 -0.634766,-0.541993 -1.510743,-0.8125 -2.628907,-0.8125 z m 9.806641,0.0078 c -1.293945,0 -2.24707,0.462891 -2.857422,1.390625 -0.610352,0.922852 -0.914062,2.354492 -0.914062,4.292969 0,1.923828 0.299804,3.349609 0.90039,4.277344 0.605469,0.927734 1.5625,1.390624 2.871094,1.390624 1.289062,0 2.239258,-0.456054 2.849609,-1.36914 0.615235,-0.917969 0.921875,-2.356445 0.921875,-4.314453 0,-1.899414 -0.302734,-3.316407 -0.908203,-4.253907 C 63.088867,50.09668 62.134766,49.625 60.826172,49.625 Z m 0,1.207031 c 0.463867,0 0.841797,0.09668 1.134766,0.28711 0.297851,0.190429 0.532226,0.473632 0.703124,0.849609 0.175782,0.380859 0.292969,0.84375 0.351563,1.390625 0.06348,0.546875 0.0957,1.191406 0.0957,1.933594 0,0.751953 -0.03223,1.396484 -0.0957,1.933593 -0.05859,0.532227 -0.172852,0.997071 -0.34375,1.392579 -0.166016,0.385742 -0.400391,0.672851 -0.703125,0.863281 -0.302734,0.19043 -0.683594,0.287109 -1.142578,0.287109 -0.488281,0 -0.881836,-0.100586 -1.179688,-0.300781 -0.292968,-0.200195 -0.520507,-0.490234 -0.68164,-0.871094 -0.175782,-0.405273 -0.290039,-0.866211 -0.34375,-1.378906 -0.05371,-0.512695 -0.08008,-1.148438 -0.08008,-1.910156 0,-0.69336 0.0293,-1.331055 0.08789,-1.91211 0.06348,-0.581054 0.177735,-1.052734 0.34375,-1.414062 0.175782,-0.385742 0.413086,-0.672852 0.710938,-0.863281 0.302734,-0.19043 0.683594,-0.28711 1.142578,-0.28711 z M 199.95117,51 c -1.29394,0 -2.24707,0.462891 -2.85742,1.390625 -0.61035,0.922852 -0.91406,2.354492 -0.91406,4.292969 0,1.923828 0.2998,3.349609 0.90039,4.277344 0.60547,0.927734 1.5625,1.390624 2.87109,1.390624 1.28906,0 2.23926,-0.456054 2.84961,-1.36914 0.61524,-0.917969 0.92188,-2.356445 0.92188,-4.314453 0,-1.899414 -0.30274,-3.316407 -0.90821,-4.253907 C 202.21387,51.47168 201.25977,51 199.95117,51 Z m -8.48242,0.21875 -5.2793,6.152344 0,1.685547 5.22071,0 0,3.068359 1.40625,0 0,-3.068359 1.61914,0 0,-1.171875 -1.61914,0 0,-6.666016 z m 8.48242,0.988281 c 0.46387,0 0.8418,0.09668 1.13477,0.28711 0.29785,0.190429 0.53222,0.473632 0.70312,0.849609 0.17578,0.380859 0.29297,0.84375 0.35156,1.390625 0.0635,0.546875 0.0957,1.191406 0.0957,1.933594 0,0.751953 -0.0322,1.396484 -0.0957,1.933593 -0.0586,0.532227 -0.17285,0.997071 -0.34374,1.392579 -0.16602,0.385742 -0.4004,0.672851 -0.70313,0.863281 -0.30273,0.19043 -0.68359,0.287109 -1.14258,0.287109 -0.48828,0 -0.88183,-0.100586 -1.17969,-0.300781 -0.29296,-0.200195 -0.5205,-0.490234 -0.68164,-0.871094 -0.17578,-0.405273 -0.29004,-0.866211 -0.34375,-1.378906 -0.0537,-0.512695 -0.0801,-1.148438 -0.0801,-1.910156 0,-0.69336 0.0293,-1.331055 0.0879,-1.91211 0.0635,-0.581054 0.17773,-1.052734 0.34375,-1.414062 0.17578,-0.385742 0.41308,-0.672852 0.71093,-0.863281 0.30274,-0.19043 0.6836,-0.28711 1.14258,-0.28711 z m -8.54101,0.75586 0,4.921875 -4.22461,0 z M 32.076172,118.875 c -1.293945,0 -2.24707,0.46289 -2.857422,1.39062 -0.610352,0.92286 -0.914062,2.3545 -0.914062,4.29297 0,1.92383 0.299804,3.34961 0.90039,4.27735 0.605469,0.92773 1.5625,1.39062 2.871094,1.39062 1.289062,0 2.239258,-0.45605 2.849609,-1.36914 0.615235,-0.91797 0.921875,-2.35644 0.921875,-4.31445 0,-1.89942 -0.302734,-3.31641 -0.908203,-4.25391 -0.600586,-0.94238 -1.554687,-1.41406 -2.863281,-1.41406 z m -9.748047,0.18359 c -0.01953,0.31739 -0.09473,0.57129 -0.226563,0.76172 -0.126953,0.18555 -0.302734,0.33887 -0.527343,0.46094 -0.180664,0.0977 -0.447266,0.17285 -0.798828,0.22656 -0.351563,0.0488 -0.682618,0.0742 -0.990235,0.0742 l 0,0.99609 2.271485,0 0,7.3086 -2.271485,0 0,1.11328 5.904297,0 0,-1.11328 -2.226562,0 0,-9.82813 z M 227.45117,119.25 c -1.29394,0 -2.24707,0.46289 -2.85742,1.39062 -0.61035,0.92286 -0.91406,2.3545 -0.91406,4.29297 0,1.92383 0.2998,3.34961 0.90039,4.27735 0.60547,0.92773 1.5625,1.39062 2.87109,1.39062 1.28906,0 2.23926,-0.45605 2.84961,-1.36914 0.61524,-0.91797 0.92188,-2.35644 0.92188,-4.31445 0,-1.89942 -0.30274,-3.31641 -0.90821,-4.25391 -0.60058,-0.94238 -1.55468,-1.41406 -2.86328,-1.41406 z m -12.48828,0.21875 0,5.61719 c 0.28809,-0.0586 0.62988,-0.11719 1.02539,-0.17578 0.40039,-0.0586 0.81641,-0.0859 1.2461,-0.0859 0.44921,0 0.85351,0.0391 1.21484,0.11719 0.36621,0.0732 0.67578,0.20117 0.92969,0.38671 0.22949,0.15626 0.4082,0.36426 0.53515,0.62305 0.13184,0.25879 0.19922,0.5752 0.19922,0.95117 0,0.38575 -0.0576,0.72657 -0.16992,1.01954 -0.10742,0.29296 -0.26758,0.54394 -0.48242,0.7539 -0.25391,0.24414 -0.54395,0.41406 -0.8711,0.51172 -0.32226,0.0977 -0.65722,0.14844 -1.0039,0.14844 -0.51758,0 -1.04492,-0.0898 -1.58203,-0.26563 -0.53711,-0.18066 -1.00586,-0.39648 -1.40625,-0.65039 l -0.10352,0 0,1.54492 c 0.38086,0.17578 0.84863,0.3252 1.40039,0.44727 0.55176,0.12695 1.125,0.18945 1.7207,0.18945 0.63965,0 1.2002,-0.0889 1.6836,-0.26953 0.48828,-0.18555 0.9082,-0.45117 1.25976,-0.79297 0.32227,-0.31738 0.57618,-0.70801 0.76172,-1.17187 0.18555,-0.46387 0.2793,-0.94922 0.2793,-1.45703 0,-0.63965 -0.10742,-1.1709 -0.32227,-1.59571 -0.21484,-0.4248 -0.51757,-0.77246 -0.9082,-1.04101 -0.37109,-0.25391 -0.78027,-0.42969 -1.22461,-0.52735 -0.44433,-0.10254 -0.95996,-0.15234 -1.55078,-0.15234 -0.16113,0 -0.35254,0.004 -0.57227,0.0137 -0.21972,0.01 -0.43457,0.0254 -0.64453,0.0449 l 0,-2.90234 5.14844,0 0,-1.28125 z m -182.886718,0.61328 c 0.463867,0 0.841797,0.0967 1.134766,0.28711 0.297851,0.19043 0.532226,0.47363 0.703124,0.84961 0.175782,0.38086 0.292969,0.84375 0.351563,1.39063 0.06348,0.54687 0.0957,1.1914 0.0957,1.93359 0,0.75195 -0.03223,1.39648 -0.0957,1.93359 -0.05859,0.53223 -0.172852,0.99707 -0.34375,1.39258 -0.166016,0.38574 -0.400391,0.67285 -0.703125,0.86328 -0.302734,0.19043 -0.683594,0.28711 -1.142578,0.28711 -0.488281,0 -0.881836,-0.10058 -1.179688,-0.30078 -0.292968,-0.2002 -0.520507,-0.49023 -0.68164,-0.87109 -0.175782,-0.40528 -0.290039,-0.86621 -0.34375,-1.37891 -0.05371,-0.5127 -0.08008,-1.14844 -0.08008,-1.91016 0,-0.69336 0.0293,-1.33105 0.08789,-1.91211 0.06348,-0.58105 0.177735,-1.05273 0.34375,-1.41406 0.175782,-0.38574 0.413086,-0.67285 0.710938,-0.86328 0.302734,-0.19043 0.683594,-0.28711 1.142578,-0.28711 z m 195.374998,0.375 c 0.46387,0 0.8418,0.0967 1.13477,0.28711 0.29785,0.19043 0.53222,0.47363 0.70312,0.84961 0.17578,0.38086 0.29297,0.84375 0.35156,1.39063 0.0635,0.54687 0.0957,1.1914 0.0957,1.93359 0,0.75195 -0.0322,1.39648 -0.0957,1.93359 -0.0586,0.53223 -0.17285,0.99707 -0.34374,1.39258 -0.16602,0.38574 -0.4004,0.67285 -0.70313,0.86328 -0.30273,0.19043 -0.68359,0.28711 -1.14258,0.28711 -0.48828,0 -0.88183,-0.10058 -1.17969,-0.30078 -0.29296,-0.2002 -0.5205,-0.49023 -0.68164,-0.87109 -0.17578,-0.40528 -0.29004,-0.86621 -0.34375,-1.37891 -0.0537,-0.5127 -0.0801,-1.14844 -0.0801,-1.91016 0,-0.69336 0.0293,-1.33105 0.0879,-1.91211 0.0635,-0.58105 0.17773,-1.05273 0.34375,-1.41406 0.17578,-0.38574 0.41308,-0.67285 0.71093,-0.86328 0.30274,-0.19043 0.6836,-0.28711 1.14258,-0.28711 z m -27.25,67.29297 c -1.29394,0 -2.24707,0.46289 -2.85742,1.39062 -0.61035,0.92286 -0.91406,2.3545 -0.91406,4.29297 0,1.92383 0.2998,3.34961 0.90039,4.27735 0.60547,0.92773 1.5625,1.39062 2.87109,1.39062 1.28906,0 2.23926,-0.45605 2.84961,-1.36914 0.61524,-0.91797 0.92188,-2.35644 0.92188,-4.31445 0,-1.89942 -0.30274,-3.31641 -0.90821,-4.25391 -0.60058,-0.94238 -1.55468,-1.41406 -2.86328,-1.41406 z m -7.98242,0.0137 c -0.90332,0 -1.69629,0.15625 -2.375,0.46875 -0.67871,0.30762 -1.23242,0.73731 -1.66211,1.28906 -0.4541,0.58106 -0.78613,1.24512 -0.99609,1.99219 -0.20508,0.74707 -0.30664,1.60547 -0.30664,2.57227 0,0.94238 0.11132,1.74707 0.33593,2.41601 0.2295,0.66895 0.55469,1.20606 0.97461,1.61133 0.33692,0.32715 0.72461,0.57422 1.16407,0.74024 0.43945,0.16601 0.92773,0.24804 1.46484,0.24804 1.05957,0 1.9541,-0.34863 2.68164,-1.04687 0.73242,-0.70313 1.09766,-1.6084 1.09766,-2.7168 0,-0.64941 -0.1084,-1.20215 -0.32813,-1.65625 -0.21484,-0.4541 -0.53906,-0.8291 -0.96875,-1.12695 -0.37109,-0.25879 -0.7334,-0.43067 -1.08984,-0.51367 -0.35156,-0.0879 -0.75879,-0.13086 -1.22266,-0.13086 -0.52246,0 -0.98437,0.0654 -1.38476,0.19726 -0.39551,0.12696 -0.79883,0.31543 -1.20899,0.56446 0.10254,-1.11817 0.4668,-2.00586 1.0918,-2.66016 0.625,-0.65918 1.46191,-0.98828 2.51172,-0.98828 0.28808,0 0.56836,0.0352 0.84179,0.10351 0.27832,0.0635 0.48633,0.13184 0.62305,0.20508 l 0.0723,0 0,-1.39844 c -0.2002,-0.0635 -0.39649,-0.10839 -0.5918,-0.13281 -0.19531,-0.0244 -0.43652,-0.0371 -0.72461,-0.0371 z M 58.525391,188.375 c -1.293946,0 -2.247071,0.46289 -2.857422,1.39062 -0.610352,0.92286 -0.914063,2.3545 -0.914063,4.29297 0,1.92383 0.299805,3.34961 0.900391,4.27735 0.605469,0.92773 1.5625,1.39062 2.871094,1.39062 1.289062,0 2.239257,-0.45605 2.849609,-1.36914 0.615234,-0.91797 0.921875,-2.35644 0.921875,-4.31445 0,-1.89942 -0.302734,-3.31641 -0.908203,-4.25391 -0.600586,-0.94238 -1.554688,-1.41406 -2.863281,-1.41406 z m 141.675779,0.58203 c 0.46387,0 0.8418,0.0967 1.13477,0.28711 0.29785,0.19043 0.53222,0.47363 0.70312,0.84961 0.17578,0.38086 0.29297,0.84375 0.35156,1.39063 0.0635,0.54687 0.0957,1.1914 0.0957,1.93359 0,0.75195 -0.0322,1.39648 -0.0957,1.93359 -0.0586,0.53223 -0.17285,0.99707 -0.34374,1.39258 -0.16602,0.38574 -0.4004,0.67285 -0.70313,0.86328 -0.30273,0.19043 -0.68359,0.28711 -1.14258,0.28711 -0.48828,0 -0.88183,-0.10058 -1.17969,-0.30078 -0.29296,-0.2002 -0.5205,-0.49023 -0.68164,-0.87109 -0.17578,-0.40528 -0.29004,-0.86621 -0.34375,-1.37891 -0.0537,-0.5127 -0.0801,-1.14844 -0.0801,-1.91016 0,-0.69336 0.0293,-1.33105 0.0879,-1.91211 0.0635,-0.58105 0.17773,-1.05273 0.34375,-1.41406 0.17578,-0.38574 0.41308,-0.67285 0.71093,-0.86328 0.30274,-0.19043 0.6836,-0.28711 1.14258,-0.28711 z m -141.675779,0.625 c 0.463867,0 0.841797,0.0967 1.134765,0.28711 0.297852,0.19043 0.532227,0.47363 0.703125,0.84961 0.175781,0.38086 0.292969,0.84375 0.351563,1.39063 0.06348,0.54687 0.0957,1.1914 0.0957,1.93359 0,0.75195 -0.03223,1.39648 -0.0957,1.93359 -0.05859,0.53223 -0.172852,0.99707 -0.34375,1.39258 -0.166016,0.38574 -0.400391,0.67285 -0.703125,0.86328 -0.302735,0.19043 -0.683594,0.28711 -1.142578,0.28711 -0.488282,0 -0.881836,-0.10058 -1.179688,-0.30078 -0.292969,-0.2002 -0.520508,-0.49023 -0.681641,-0.87109 -0.175781,-0.40528 -0.290039,-0.86621 -0.34375,-1.37891 -0.05371,-0.5127 -0.08008,-1.14844 -0.08008,-1.91016 0,-0.69336 0.0293,-1.33105 0.08789,-1.91211 0.06348,-0.58105 0.177734,-1.05273 0.34375,-1.41406 0.175781,-0.38574 0.413086,-0.67285 0.710937,-0.86328 0.302735,-0.19043 0.683594,-0.28711 1.142579,-0.28711 z m 132.117189,3.5293 c 0.29785,0 0.58398,0.0234 0.85742,0.0723 0.27344,0.0488 0.52148,0.15235 0.74609,0.3086 0.30762,0.21972 0.52832,0.47754 0.66016,0.77539 0.13672,0.29785 0.20508,0.6748 0.20508,1.1289 0,0.81055 -0.20215,1.43262 -0.60742,1.86719 -0.40528,0.42969 -0.96192,0.64453 -1.66993,0.64453 -0.30761,0 -0.59375,-0.0488 -0.85742,-0.14648 -0.25879,-0.10254 -0.5,-0.26172 -0.72461,-0.47656 -0.27832,-0.25879 -0.49902,-0.61036 -0.66015,-1.05469 -0.15625,-0.44922 -0.23438,-1.05859 -0.23438,-1.83008 0,-0.15137 0.003,-0.27539 0.008,-0.37305 0.005,-0.10254 0.0117,-0.20898 0.0215,-0.3164 0.37598,-0.20508 0.74316,-0.35547 1.09961,-0.45313 0.35644,-0.0977 0.74121,-0.14648 1.15625,-0.14648 z m -86.83008,-29.50781 0,1.5664 -0.61914,0 0,0.77149 0.61914,0 0,2.90039 c 0,0.6608 0.14583,1.14192 0.43555,1.4414 0.28971,0.29948 0.71289,0.44922 1.26953,0.44922 0.1595,0 0.33919,-0.0156 0.54101,-0.0449 0.20508,-0.0293 0.39388,-0.0658 0.56641,-0.11133 l 0,-0.82617 -0.0469,0 c -0.0716,0.0293 -0.1888,0.0677 -0.35156,0.11328 -0.16276,0.0423 -0.31901,0.0625 -0.46875,0.0625 -0.25716,0 -0.45117,-0.0293 -0.57812,-0.0879 -0.1237,-0.0618 -0.22136,-0.1569 -0.29297,-0.28711 -0.0781,-0.13997 -0.1237,-0.28971 -0.13672,-0.44922 -0.013,-0.16276 -0.0195,-0.38737 -0.0195,-0.67383 l 0,-2.48632 1.89453,0 0,-0.77149 -1.89453,0 0,-1.5664 z m -13.015625,1.41601 c -0.322266,0 -0.627604,0.0658 -0.914063,0.19922 -0.283203,0.13346 -0.56901,0.31901 -0.855468,0.55664 l 0,-0.60547 -0.917969,0 0,5.45508 0.917969,0 0,-4.07227 c 0.250651,-0.19205 0.503255,-0.35091 0.753906,-0.47461 0.253906,-0.12369 0.505208,-0.18554 0.755859,-0.18554 0.263672,0 0.465495,0.0358 0.605469,0.10742 0.139974,0.0684 0.247396,0.17253 0.322266,0.3125 0.06836,0.13021 0.113281,0.30534 0.132812,0.52344 0.02279,0.21484 0.0332,0.44271 0.0332,0.68359 l 0,3.10547 0.917969,0 0,-3.49219 c 0,-0.0977 -0.0033,-0.19531 -0.0098,-0.29297 -0.0065,-0.10091 -0.01367,-0.1888 -0.02344,-0.26367 0.257161,-0.19857 0.51237,-0.36133 0.769531,-0.48828 0.257162,-0.13021 0.516276,-0.19531 0.773438,-0.19531 0.263672,0 0.465495,0.0358 0.605468,0.10742 0.139974,0.0716 0.245443,0.17839 0.320313,0.31836 0.06836,0.13021 0.113281,0.30338 0.132813,0.52148 0.02279,0.2181 0.03516,0.44532 0.03516,0.67969 l 0,3.10547 0.917968,0 0,-3.54102 c 0,-0.65104 -0.143229,-1.15625 -0.429687,-1.51757 -0.283203,-0.36459 -0.72526,-0.54688 -1.324219,-0.54688 -0.348307,0 -0.674479,0.069 -0.980468,0.20899 -0.30599,0.13671 -0.644532,0.36132 -1.015626,0.67382 -0.126953,-0.27669 -0.321614,-0.49218 -0.582031,-0.64843 -0.257161,-0.15625 -0.570312,-0.23438 -0.941406,-0.23438 z m 9.304685,0 c -0.794268,0 -1.433591,0.26107 -1.921872,0.78516 -0.485027,0.52409 -0.728516,1.23307 -0.728516,2.125 0,0.90169 0.253906,1.5983 0.761719,2.08984 0.507812,0.48828 1.214192,0.73242 2.119139,0.73242 0.35482,0 0.69336,-0.0449 1.01563,-0.13281 0.32226,-0.0879 0.63802,-0.19596 0.94726,-0.32617 l 0,-1.00195 -0.0488,0 c -0.1595,0.14322 -0.42708,0.28971 -0.80468,0.43945 -0.37435,0.14648 -0.74805,0.2207 -1.11914,0.2207 -0.27995,0 -0.537114,-0.0391 -0.771489,-0.11719 -0.23112,-0.0781 -0.432291,-0.19531 -0.601562,-0.35156 -0.175781,-0.1595 -0.313151,-0.36393 -0.414063,-0.61133 -0.100911,-0.25065 -0.152344,-0.54362 -0.152344,-0.8789 l 4.019528,0 0,-0.49805 c 0,-0.79102 -0.20117,-1.40039 -0.60156,-1.83008 -0.39713,-0.42968 -0.96354,-0.64453 -1.69922,-0.64453 z m 9.90235,0 c -0.79427,0 -1.4336,0.26107 -1.92188,0.78516 -0.48502,0.52409 -0.72851,1.23307 -0.72851,2.125 0,0.90169 0.2539,1.5983 0.76171,2.08984 0.50782,0.48828 1.2142,0.73242 2.11915,0.73242 0.35481,0 0.69335,-0.0449 1.01562,-0.13281 0.32227,-0.0879 0.63802,-0.19596 0.94727,-0.32617 l 0,-1.00195 -0.0488,0 c -0.15951,0.14322 -0.42709,0.28971 -0.80469,0.43945 -0.37435,0.14648 -0.74805,0.2207 -1.11914,0.2207 -0.27995,0 -0.53711,-0.0391 -0.77149,-0.11719 -0.23111,-0.0781 -0.43229,-0.19531 -0.60156,-0.35156 -0.17578,-0.1595 -0.31315,-0.36393 -0.41406,-0.61133 -0.10091,-0.25065 -0.15234,-0.54362 -0.15234,-0.8789 l 4.01953,0 0,-0.49805 c 0,-0.79102 -0.20117,-1.40039 -0.60157,-1.83008 -0.39713,-0.42968 -0.96354,-0.64453 -1.69921,-0.64453 z m 19.41406,0 c -0.34505,0 -0.67057,0.069 -0.97656,0.20899 -0.30274,0.13671 -0.57618,0.30859 -0.82032,0.51367 l 0,-0.57227 -0.91797,0 0,7.4668 0.91797,0 0,-2.28516 c 0.23763,0.13021 0.47136,0.22526 0.69922,0.28711 0.23112,0.0619 0.48828,0.0937 0.77149,0.0937 0.32552,0 0.63411,-0.0651 0.92382,-0.19531 0.29297,-0.13346 0.54688,-0.32162 0.76172,-0.5625 0.23112,-0.25391 0.40821,-0.56315 0.53516,-0.92773 0.12695,-0.36784 0.19141,-0.77214 0.19141,-1.21485 0,-0.88216 -0.18295,-1.57161 -0.55079,-2.06641 -0.36458,-0.49804 -0.8776,-0.74609 -1.53515,-0.74609 z m 5.78125,0 c -0.79427,0 -1.4336,0.26107 -1.92188,0.78516 -0.48502,0.52409 -0.72851,1.23307 -0.72851,2.125 0,0.90169 0.2539,1.5983 0.76172,2.08984 0.50781,0.48828 1.21419,0.73242 2.11914,0.73242 0.35482,0 0.69336,-0.0449 1.01562,-0.13281 0.32227,-0.0879 0.63802,-0.19596 0.94727,-0.32617 l 0,-1.00195 -0.0488,0 c -0.15951,0.14322 -0.42708,0.28971 -0.80469,0.43945 -0.37435,0.14648 -0.74804,0.2207 -1.11914,0.2207 -0.27995,0 -0.53711,-0.0391 -0.77148,-0.11719 -0.23112,-0.0781 -0.43229,-0.19531 -0.60156,-0.35156 -0.17579,-0.1595 -0.31316,-0.36393 -0.41407,-0.61133 -0.10091,-0.25065 -0.15234,-0.54362 -0.15234,-0.8789 l 4.01953,0 0,-0.49805 c 0,-0.79102 -0.20117,-1.40039 -0.60156,-1.83008 -0.39714,-0.42968 -0.96354,-0.64453 -1.69922,-0.64453 z m 18.96484,0 c -0.79427,0 -1.43359,0.26107 -1.92187,0.78516 -0.48503,0.52409 -0.72852,1.23307 -0.72852,2.125 0,0.90169 0.25391,1.5983 0.76172,2.08984 0.50781,0.48828 1.21419,0.73242 2.11914,0.73242 0.35482,0 0.69336,-0.0449 1.01563,-0.13281 0.32226,-0.0879 0.63802,-0.19596 0.94726,-0.32617 l 0,-1.00195 -0.0488,0 c -0.1595,0.14322 -0.42708,0.28971 -0.80468,0.43945 -0.37435,0.14648 -0.74805,0.2207 -1.11914,0.2207 -0.27995,0 -0.53711,-0.0391 -0.77149,-0.11719 -0.23112,-0.0781 -0.43229,-0.19531 -0.60156,-0.35156 -0.17578,-0.1595 -0.31315,-0.36393 -0.41406,-0.61133 -0.10092,-0.25065 -0.15235,-0.54362 -0.15235,-0.8789 l 4.01953,0 0,-0.49805 c 0,-0.79102 -0.20117,-1.40039 -0.60156,-1.83008 -0.39713,-0.42968 -0.96354,-0.64453 -1.69922,-0.64453 z m -34.33008,0.0195 c -0.3483,0 -0.66406,0.0456 -0.94726,0.13672 -0.27995,0.0879 -0.51107,0.20833 -0.69336,0.36133 -0.1888,0.15625 -0.32943,0.33268 -0.42383,0.53125 -0.0911,0.19857 -0.13672,0.41016 -0.13672,0.63476 0,0.35808 0.0983,0.66081 0.29688,0.90821 0.20182,0.24414 0.54101,0.42969 1.01953,0.55664 0.17252,0.0456 0.36393,0.0879 0.57226,0.12695 0.21159,0.0391 0.38347,0.0742 0.51368,0.10352 0.35156,0.0781 0.58724,0.17252 0.71093,0.2832 0.1237,0.11068 0.1875,0.27344 0.1875,0.48828 0,0.27995 -0.11588,0.48503 -0.34375,0.61524 -0.22786,0.1302 -0.54166,0.19531 -0.94531,0.19531 -0.32552,0 -0.66667,-0.0644 -1.02148,-0.19141 -0.35482,-0.13021 -0.67709,-0.30338 -0.9668,-0.52148 l -0.0488,0 0,1.0293 c 0.22787,0.11393 0.51042,0.2207 0.8457,0.31835 0.33855,0.0944 0.70964,0.14063 1.11329,0.14063 0.71289,0 1.27343,-0.15951 1.68359,-0.47852 0.41341,-0.31901 0.62109,-0.72656 0.62109,-1.22461 0,-0.39713 -0.11653,-0.71614 -0.34765,-0.95703 -0.23112,-0.23763 -0.5599,-0.40625 -0.98633,-0.5039 -0.13997,-0.0326 -0.31576,-0.0684 -0.52734,-0.10742 -0.20834,-0.0391 -0.39714,-0.0781 -0.56641,-0.11719 -0.30599,-0.0716 -0.52734,-0.16341 -0.66406,-0.27735 -0.13998,-0.11393 -0.20899,-0.2832 -0.20899,-0.50781 0,-0.25391 0.11459,-0.44531 0.34571,-0.57226 0.23112,-0.13021 0.51432,-0.19532 0.8496,-0.19532 0.32227,0 0.65105,0.0612 0.98633,0.18164 0.33529,0.11719 0.61914,0.26107 0.85352,0.4336 l 0.0508,0 0,-0.98047 c -0.22135,-0.11393 -0.50065,-0.21094 -0.83594,-0.28906 -0.33203,-0.0814 -0.6608,-0.1211 -0.98633,-0.1211 z m 28.71094,0 c -0.34831,0 -0.66406,0.0456 -0.94726,0.13672 -0.27995,0.0879 -0.51107,0.20833 -0.69336,0.36133 -0.18881,0.15625 -0.32943,0.33268 -0.42383,0.53125 -0.0911,0.19857 -0.13672,0.41016 -0.13672,0.63476 0,0.35808 0.0983,0.66081 0.29687,0.90821 0.20183,0.24414 0.54102,0.42969 1.01954,0.55664 0.17252,0.0456 0.36393,0.0879 0.57226,0.12695 0.21159,0.0391 0.38347,0.0742 0.51367,0.10352 0.35157,0.0781 0.58724,0.17252 0.71094,0.2832 0.1237,0.11068 0.1875,0.27344 0.1875,0.48828 0,0.27995 -0.11588,0.48503 -0.34375,0.61524 -0.22786,0.1302 -0.54167,0.19531 -0.94531,0.19531 -0.32552,0 -0.66667,-0.0644 -1.02149,-0.19141 -0.35481,-0.13021 -0.67708,-0.30338 -0.96679,-0.52148 l -0.0488,0 0,1.0293 c 0.22786,0.11393 0.51042,0.2207 0.8457,0.31835 0.33854,0.0944 0.70964,0.14063 1.11328,0.14063 0.71289,0 1.27344,-0.15951 1.6836,-0.47852 0.41341,-0.31901 0.62109,-0.72656 0.62109,-1.22461 0,-0.39713 -0.11654,-0.71614 -0.34765,-0.95703 -0.23112,-0.23763 -0.5599,-0.40625 -0.98633,-0.5039 -0.13998,-0.0326 -0.31576,-0.0684 -0.52735,-0.10742 -0.20833,-0.0391 -0.39713,-0.0781 -0.5664,-0.11719 -0.30599,-0.0716 -0.52735,-0.16341 -0.66407,-0.27735 -0.13997,-0.11393 -0.20898,-0.2832 -0.20898,-0.50781 0,-0.25391 0.11458,-0.44531 0.3457,-0.57226 0.23112,-0.13021 0.51433,-0.19532 0.84961,-0.19532 0.32227,0 0.65104,0.0612 0.98633,0.18164 0.33529,0.11719 0.61914,0.26107 0.85352,0.4336 l 0.0508,0 0,-0.98047 c -0.22136,-0.11393 -0.50065,-0.21094 -0.83594,-0.28906 -0.33203,-0.0814 -0.66081,-0.1211 -0.98633,-0.1211 z m 11.5957,0.004 c -0.80403,0 -1.44986,0.25391 -1.9414,0.76172 -0.48828,0.50781 -0.73438,1.20768 -0.73438,2.09961 0,0.47851 0.0651,0.89778 0.19532,1.25586 0.1302,0.35807 0.3151,0.65429 0.55273,0.88867 0.23438,0.23437 0.51693,0.41015 0.8457,0.52734 0.32878,0.11393 0.68815,0.16992 1.08203,0.16992 0.30925,0 0.60157,-0.0397 0.875,-0.12109 0.2767,-0.0814 0.56902,-0.19531 0.875,-0.3418 l 0,-1.01172 -0.0508,0 c -0.0684,0.0553 -0.16015,0.12305 -0.27734,0.20118 -0.11719,0.0749 -0.24154,0.14648 -0.375,0.21484 -0.15299,0.0781 -0.32747,0.14062 -0.51953,0.18945 -0.19206,0.0488 -0.38086,0.0742 -0.56641,0.0742 -0.53385,0 -0.94791,-0.17578 -1.24414,-0.52734 -0.29297,-0.35482 -0.43945,-0.86198 -0.43945,-1.51953 0,-0.67709 0.14974,-1.18881 0.44922,-1.53711 0.30273,-0.35157 0.71354,-0.52735 1.23437,-0.52735 0.28321,0 0.57487,0.0586 0.8711,0.17578 0.29948,0.11719 0.58724,0.28386 0.86718,0.50196 l 0.0508,0 0,-1.01953 c -0.25065,-0.12696 -0.52929,-0.23438 -0.83203,-0.32227 -0.29948,-0.0879 -0.60547,-0.13281 -0.91797,-0.13281 z m -46.44531,0.12695 0,5.45508 0.91797,0 0,-3.87305 c 0.24414,-0.19856 0.49805,-0.35872 0.76172,-0.48242 0.26367,-0.12695 0.53711,-0.19141 0.82031,-0.19141 0.17578,0 0.32813,0.009 0.45508,0.0254 0.13021,0.013 0.26367,0.0358 0.40039,0.0684 l 0.0488,0 0,-0.94336 c -0.14323,-0.0228 -0.25065,-0.0365 -0.32227,-0.043 -0.0716,-0.01 -0.18815,-0.0156 -0.34765,-0.0156 -0.28972,0 -0.57357,0.0619 -0.85352,0.18555 -0.27669,0.12044 -0.59831,0.32812 -0.96289,0.62109 l 0,-0.80664 z m 25.19531,0 0,5.45508 0.91797,0 0,-3.87305 c 0.24414,-0.19856 0.49805,-0.35872 0.76172,-0.48242 0.26367,-0.12695 0.53711,-0.19141 0.82031,-0.19141 0.17579,0 0.32813,0.009 0.45508,0.0254 0.13021,0.013 0.26368,0.0358 0.40039,0.0684 l 0.0488,0 0,-0.94336 c -0.14323,-0.0228 -0.25065,-0.0365 -0.32226,-0.043 -0.0716,-0.01 -0.18815,-0.0156 -0.34766,-0.0156 -0.28971,0 -0.57357,0.0619 -0.85352,0.18555 -0.27669,0.12044 -0.5983,0.32812 -0.96289,0.62109 l 0,-0.80664 z m -38.83593,0.60547 c 0.48828,0 0.85026,0.13281 1.08789,0.39649 0.24088,0.26367 0.36198,0.63541 0.36523,1.11718 l -3.124998,0 c 0.03906,-0.42968 0.204428,-0.78841 0.494141,-1.07812 0.292969,-0.28972 0.686198,-0.43555 1.177737,-0.43555 z m 9.90234,0 c 0.48828,0 0.85026,0.13281 1.08789,0.39649 0.24089,0.26367 0.36198,0.63541 0.36524,1.11718 l -3.125,0 c 0.0391,-0.42968 0.20442,-0.78841 0.49414,-1.07812 0.29297,-0.28972 0.68619,-0.43555 1.17773,-0.43555 z m 25.19531,0 c 0.48828,0 0.85026,0.13281 1.08789,0.39649 0.24089,0.26367 0.36198,0.63541 0.36524,1.11718 l -3.125,0 c 0.0391,-0.42968 0.20443,-0.78841 0.49414,-1.07812 0.29297,-0.28972 0.6862,-0.43555 1.17773,-0.43555 z m 18.96485,0 c 0.48828,0 0.85026,0.13281 1.08789,0.39649 0.24088,0.26367 0.36198,0.63541 0.36523,1.11718 l -3.125,0 c 0.0391,-0.42968 0.20443,-0.78841 0.49414,-1.07812 0.29297,-0.28972 0.6862,-0.43555 1.17774,-0.43555 z m -24.9336,0.11719 c 0.4655,0 0.81055,0.16276 1.03516,0.48828 0.22461,0.32552 0.33789,0.81706 0.33789,1.47461 0,0.67708 -0.14323,1.18815 -0.42969,1.5332 -0.28646,0.34505 -0.68619,0.51758 -1.19726,0.51758 -0.23763,0 -0.44987,-0.0202 -0.63867,-0.0625 -0.18555,-0.0423 -0.40951,-0.12305 -0.66993,-0.24023 l 0,-3.08985 c 0.24414,-0.18554 0.50065,-0.33528 0.76758,-0.44922 0.26693,-0.11393 0.53125,-0.17187 0.79492,-0.17187 z"
       id="speedMetric"
       inkscape:connector-curvature="0"
       sodipodi:nodetypes="sccccsssccscsccscccsccsssccccscccsscccccsccssscscscscsscccsccssccsscccssccccsscscccccccccccccscsscscscscsscccsccssccsscccsscscscscsccccccccccccscccsccssccsscccsccccscscscscscccccccccccccccscscscscscccscccscccscccccscccssccsccccccscccsccssccsscccsscccsccssccsscccsscscscscsscccscccscscccscccscccccsscscscscsscccsccssccsscccsscccsccssccsscccsscccscscccscccscccccscscccccscccsccccccsccccccccscccsccscccssccsccscscccsscscssccccscccccscsscscssccccscccccscssccccccccscccscsscscssccccscccccscsscscssccccscccccscsscccscccccscscccccscscccccscscccccsscccsccccsscscccccscscccccscscccccsscscccsccccccsscscscccccscccccscccccscccccccccscccccsccccsccccssccccssccccssccccssssssccccs" />
    <text
       xml:space="preserve"
       style="font-style:normal;font-weight:normal;font-size:12.5px;line-height:125%;font-family:sans-serif;text-align:center;letter-spacing:0px;word-spacing:0px;text-anchor:middle;fill:#594436;fill-opacity:1;stroke:none;stroke-width:1px;stroke-linecap:butt;stroke-linejoin:miter;stroke-opacity:1"
       x="94.007301"
       y="211.62492"
       id="text4173"
       sodipodi:linespacing="125%"><tspan
         sodipodi:role="line"
         x="94.007301"
         y="211.62492"
         style="font-size:12.5px;fill:#594436;fill-opacity:1"
         id="tspan4462">GS</tspan></text>
    <path
       style="color:#000000;font-style:normal;font-variant:normal;font-weight:normal;font-stretch:normal;font-size:medium;line-height:normal;font-family:sans-serif;text-indent:0;text-align:start;text-decoration:none;text-decoration-line:none;text-decoration-style:solid;text-decoration-color:#000000;letter-spacing:normal;word-spacing:normal;text-transform:none;direction:ltr;block-progression:tb;writing-mode:lr-tb;baseline-shift:baseline;text-anchor:start;white-space:normal;clip-rule:nonzero;display:inline;overflow:visible;visibility:visible;opacity:1;isolation:auto;mix-blend-mode:normal;color-interpolation:sRGB;color-interpolation-filters:linearRGB;solid-color:#000000;solid-opacity:1;fill:#b1937e;fill-opacity:1;fill-rule:evenodd;stroke:none;stroke-width:0.99446493px;stroke-linecap:butt;stroke-linejoin:miter;stroke-miterlimit:4;stroke-dasharray:none;stroke-dashoffset:0;stroke-opacity:1;color-rendering:auto;image-rendering:auto;shape-rendering:auto;text-rendering:auto;enable-background:accumulate"
       d="m 123.96281,38.982095 -0.009,18.269634 0.50948,0 1.07159,0 0.57474,0 0.009,-18.267529 -0.58316,0 -1.57265,-0.0022 z m -5.18109,0.206317 -1.06949,0.0779 0.61054,8.570603 1.06737,-0.07579 -0.60842,-8.572707 z m 12.43801,0 -0.61054,8.572708 1.06949,0.07579 0.60843,-8.570602 -1.06738,-0.0779 z m -19.16018,0.692638 -1.06106,0.151581 1.21895,8.496917 1.06107,-0.151581 -1.21896,-8.496917 z m 25.88024,0 -1.21896,8.496917 1.06106,0.151581 1.21895,-8.496917 -1.06105,-0.151581 z m -32.53293,1.178957 -1.04843,0.227372 1.82949,8.372705 1.04632,-0.229476 -1.82738,-8.370601 z m 39.18773,0 -1.8295,8.370601 1.04633,0.229476 1.82949,-8.372705 -1.04632,-0.227372 z m -45.73936,1.663173 -1.027377,0.307371 2.440007,8.195863 1.02737,-0.305266 -2.44,-8.197968 z m 52.28889,0 -2.44003,8.197968 1.02949,0.305266 2.43791,-8.195863 -1.02737,-0.307371 z m -58.69948,2.151598 -0.999997,0.383162 6.47795,16.9391 1.000007,-0.381049 -6.47796,-16.941213 z m 65.11006,0 -6.47795,16.941213 1,0.381049 6.48006,-16.9391 -1.00211,-0.383162 z m -71.34589,2.637918 -0.968437,0.458953 3.658978,7.696908 0.966327,-0.458949 -3.656868,-7.696912 z m 77.58384,0 -3.65898,7.696912 0.96842,0.458949 3.65898,-7.696908 -0.96842,-0.458953 z m -83.611271,3.124239 -0.928427,0.536847 4.267406,7.372694 0.928437,-0.536839 -4.267416,-7.372702 z m 89.638691,0 -4.26951,7.372702 0.92843,0.536839 4.26741,-7.372694 -0.92633,-0.536847 z m -95.421893,3.610557 -0.880007,0.612638 4.877935,6.997961 0.880007,-0.612638 -4.877935,-6.997961 z m 101.202993,0 -4.87794,6.997961 0.88002,0.612638 4.87794,-6.997961 -0.88002,-0.612638 z m -106.706205,4.09899 -0.821058,0.688425 5.486363,6.570582 0.823157,-0.686328 -5.488462,-6.572679 z m 112.209415,0 -5.48847,6.572679 0.82318,0.686328 5.48846,-6.570582 -0.82317,-0.688425 z m -116.99261,4.185297 -0.402109,0.402108 -0.757898,0.757898 -0.364219,0.362119 12.95169,12.962219 0.368428,-0.366329 0.757898,-0.757898 0.400009,-0.399998 L 64.11177,62.531779 Z m 121.83477,0.0568 -12.96434,12.94749 0.3537,0.353688 -0.002,0.002 0.75789,0.757898 0.41263,0.412639 12.96643,-12.947479 -0.42105,-0.423169 -0.75791,-0.757898 -0.34525,-0.345269 z m -126.895864,5.467423 -0.686328,0.823168 6.572689,5.486352 0.686318,-0.821057 -6.572679,-5.488463 z m 131.898004,0 -6.57269,5.488463 0.68843,0.821057 6.57058,-5.486352 -0.68632,-0.823168 z m -136.070681,5.446363 -0.612638,0.877907 6.997958,4.877935 0.612638,-0.877907 -6.997958,-4.877935 z m 140.243351,0 -6.99586,4.877935 0.61264,0.877907 6.99585,-4.877935 -0.61263,-0.877907 z m -143.9297,5.732682 -0.538948,0.928427 7.372687,4.267406 0.536858,-0.926317 -7.370597,-4.269516 z m 147.61815,0 -7.37269,4.269516 0.53685,0.926317 7.37269,-4.267406 -0.53685,-0.928427 z m -150.820279,5.987421 -0.461059,0.968437 7.699016,3.658978 0.458948,-0.968437 -7.696905,-3.658978 z m 154.020299,0 -7.6969,3.658978 0.46106,0.968437 7.69691,-3.658978 -0.46107,-0.968437 z M 45.275809,91.426737 44.89265,92.426734 61.831747,98.9068 62.214906,97.904683 45.275809,91.426737 Z m 159.449831,0 -16.9412,6.477946 0.38317,1.002117 16.9412,-6.480066 -0.38317,-0.999997 z m -161.679324,6.385316 -0.305259,1.027377 8.195854,2.43793 0.307379,-1.02737 -8.197974,-2.437937 z m 163.906714,0 -8.19586,2.437937 0.30526,1.02737 8.19587,-2.43793 -0.30527,-1.027377 z m -165.647788,6.528497 -0.22947,1.04843 8.372704,1.82949 0.227369,-1.04843 -8.370603,-1.82949 z m 167.388848,0 -8.37059,1.82949 0.22948,1.04843 8.37059,-1.82949 -0.22948,-1.04843 z m -168.643594,6.64005 -0.15157,1.06107 8.496913,1.22106 0.15159,-1.06105 -8.496933,-1.22108 z m 169.898354,0 -8.49692,1.22108 0.15369,1.06105 8.49691,-1.22106 -0.15368,-1.06107 z m -170.666782,6.71375 -0.0758,1.06949 8.572703,0.61052 0.0758,-1.06947 -8.572713,-0.61054 z m 171.435212,0 -8.57061,0.61054 0.0758,1.06947 8.57061,-0.61052 -0.0758,-1.06949 z m -171.715201,6.19795 0,0.55369 -0.002,1.60212 18.269632,0.002 0,-0.53051 0,-1.07371 0,-0.55158 -18.267522,-0.002 z m 153.729771,0.0674 0,0.48632 -0.002,1.66949 18.26753,0.0126 0,-0.60842 0.002,0 0,-1.0737 0,-0.47369 -18.26754,-0.0126 z m -144.952869,6.63164 -8.572693,0.61053 0.0758,1.06948 8.572713,-0.61052 -0.0758,-1.06949 z m 154.443479,0 -0.0758,1.06949 8.57061,0.61052 0.0758,-1.06948 -8.57061,-0.61053 z m -153.826621,6.11164 -8.496913,1.22106 0.15157,1.06105 8.496933,-1.22105 -0.15159,-1.06106 z m 153.209781,0 -0.15369,1.06106 8.49692,1.22105 0.15368,-1.06105 -8.49691,-1.22106 z m -152.157144,6.04426 -8.372704,1.82949 0.22947,1.04843 8.370603,-1.82949 -0.227369,-1.04843 z m 151.104504,0 -0.22948,1.04843 8.37059,1.82949 0.22948,-1.04843 -8.37059,-1.82949 z m -149.616069,5.9411 -8.195854,2.43791 0.305259,1.02738 8.197974,-2.43791 -0.307379,-1.02738 z m 148.125519,0 -0.30526,1.02738 8.19586,2.43791 0.30527,-1.02738 -8.19587,-2.43791 z m -137.230683,2.37054 -16.939097,6.48006 0.383159,1.00002 16.939097,-6.47796 -0.383159,-1.00212 z m 126.335863,0 -0.38317,1.00212 16.9412,6.47796 0.38317,-1.00002 -16.9412,-6.48006 z m -132.940132,9.05694 -7.699016,3.65897 0.461059,0.96843 7.696905,-3.65898 -0.458948,-0.96842 z m 139.546502,0 -0.46106,0.96842 7.6969,3.65898 0.46107,-0.96843 -7.69691,-3.65897 z m -136.748591,5.41899 -7.372687,4.26741 0.538948,0.92841 7.370597,-4.26949 -0.536858,-0.92633 z m 133.948571,0 -0.53685,0.92633 7.37269,4.26949 0.53685,-0.92841 -7.37269,-4.26741 z m -130.710641,5.17267 -6.997958,4.87794 0.612638,0.8779 6.997958,-4.87794 -0.612638,-0.8779 z m 127.474811,0 -0.61264,0.8779 6.99586,4.87794 0.61263,-0.8779 -6.99585,-4.87794 z m -113.213626,2.22529 -12.955909,12.958 0.383168,0.38317 0.757898,0.7579 0.383159,0.38316 12.955899,-12.95801 -0.383159,-0.38316 -0.757898,-0.75791 -0.383158,-0.38315 z m 98.950346,0 -0.38317,0.38315 -0.75789,0.75791 -0.38316,0.38316 12.95801,12.95801 0.38315,-0.38316 0.75791,-0.7579 0.38315,-0.38317 -12.958,-12.958 z m -109.537813,2.66739 -6.572689,5.48637 0.686328,0.82316 6.572679,-5.48848 -0.686318,-0.82105 z m 120.127383,0 -0.68843,0.82105 6.57269,5.48848 0.68632,-0.82316 -6.57058,-5.48637 z"
       id="path4808"
       inkscape:connector-curvature="0" />
    <circle
       style="fill:url(#radialGradient4392);fill-opacity:1;stroke:none;stroke-width:3.38796711;stroke-miterlimit:4;stroke-dasharray:none;stroke-opacity:0.35503001;filter:url(#filter4519)"
       id="center"
       cx="125"
       cy="125"
       r="24.163879"
       inkscape:label="#path4384" />
    <g
       id="handleGroundSpeed"
       inkscape:label="#g4177">
      <path
         sodipodi:nodetypes="cccccc"
         style="color:#000000;font-style:normal;font-variant:normal;font-weight:normal;font-stretch:normal;font-size:medium;line-height:normal;font-family:sans-serif;text-indent:0;text-align:start;text-decoration:none;text-decoration-line:none;text-decoration-style:solid;text-decoration-color:#000000;letter-spacing:normal;word-spacing:normal;text-transform:none;direction:ltr;block-progression:tb;writing-mode:lr-tb;baseline-shift:baseline;text-anchor:start;white-space:normal;clip-rule:nonzero;display:inline;overflow:visible;visibility:visible;opacity:0.553;isolation:auto;mix-blend-mode:normal;color-interpolation:sRGB;color-interpolation-filters:linearRGB;solid-color:#000000;solid-opacity:1;fill:#000000;fill-opacity:1;fill-rule:nonzero;stroke:none;stroke-width:5;stroke-linecap:butt;stroke-linejoin:miter;stroke-miterlimit:4;stroke-dasharray:none;stroke-dashoffset:0;stroke-opacity:1;filter:url(#filter4905);color-rendering:auto;image-rendering:auto;shape-rendering:auto;text-rendering:auto;enable-background:accumulate"
         d="m 205.69169,153.14732 -101.98206,99.59003 3.59961,4.31836 1.92579,-1.6543 107.13244,-90.65253 z"
         id="path4458"
         inkscape:connector-curvature="0"
         transform="matrix(0.7826915,-0.01940564,0.01981539,0.79921822,-21.904231,-17.429064)" />
      <path
         style="fill:#594436;fill-opacity:1;stroke:none;stroke-width:5;stroke-miterlimit:4;stroke-dasharray:none;stroke-opacity:0.35503001"
         d="m 69.736635,181.0121 -0.398187,-0.46395 74.379782,-78.35605 5.77607,6.09846 z"
         id="path4460"
         inkscape:connector-curvature="0"
         sodipodi:nodetypes="ccccc" />
    </g>
    <g
       id="handleAirspeed"
       inkscape:label="#g4183">
      <path
         transform="matrix(0.7826915,-0.01940564,0.01981539,0.79921822,-21.904231,-17.429064)"
         inkscape:connector-curvature="0"
         id="path4559"
         d="m 205.69169,153.14732 -101.98206,99.59003 3.59961,4.31836 1.92579,-1.6543 107.13244,-90.65253 z"
         style="color:#000000;font-style:normal;font-variant:normal;font-weight:normal;font-stretch:normal;font-size:medium;line-height:normal;font-family:sans-serif;text-indent:0;text-align:start;text-decoration:none;text-decoration-line:none;text-decoration-style:solid;text-decoration-color:#000000;letter-spacing:normal;word-spacing:normal;text-transform:none;direction:ltr;block-progression:tb;writing-mode:lr-tb;baseline-shift:baseline;text-anchor:start;white-space:normal;clip-rule:nonzero;display:inline;overflow:visible;visibility:visible;opacity:0.553;isolation:auto;mix-blend-mode:normal;color-interpolation:sRGB;color-interpolation-filters:linearRGB;solid-color:#000000;solid-opacity:1;fill:#000000;fill-opacity:1;fill-rule:nonzero;stroke:none;stroke-width:5;stroke-linecap:butt;stroke-linejoin:miter;stroke-miterlimit:4;stroke-dasharray:none;stroke-dashoffset:0;stroke-opacity:1;filter:url(#filter4905);color-rendering:auto;image-rendering:auto;shape-rendering:auto;text-rendering:auto;enable-background:accumulate"
         sodipodi:nodetypes="cccccc" />
      <path
         sodipodi:nodetypes="ccccc"
         inkscape:connector-curvature="0"
         id="rect4452"
         d="m 69.736635,181.0121 -0.398187,-0.46395 74.379782,-78.35605 5.77607,6.09846 z"
         style="fill:#b1937e;fill-opacity:1;stroke:none;stroke-width:5;stroke-miterlimit:4;stroke-dasharray:none;stroke-opacity:0.35503001" />
    </g>
    <text
       xml:space="preserve"
       style="font-style:normal;font-weight:normal;font-size:15px;line-height:125%;font-family:sans-serif;letter-spacing:0px;word-spacing:0px;fill:#000000;fill-opacity:1;stroke:none;stroke-width:1px;stroke-linecap:butt;stroke-linejoin:miter;stroke-opacity:1"
       x="-132.22897"
       y="29.736237"
       id="text4774"
       sodipodi:linespacing="125%"><tspan
         sodipodi:role="line"
         id="tspan4776"
         x="-132.22897"
         y="29.736237" /></text>
    <path
       style="font-style:normal;font-weight:normal;font-size:15px;line-height:125%;font-family:sans-serif;letter-spacing:0px;word-spacing:0px;fill:#b1937e;fill-opacity:1;stroke:none;stroke-width:1px;stroke-linecap:butt;stroke-linejoin:miter;stroke-opacity:1"
       d="m 129.82617,24.625 c -1.29394,0 -2.24707,0.462891 -2.85742,1.390625 -0.61035,0.922852 -0.91406,2.354492 -0.91406,4.292969 0,1.923828 0.2998,3.349609 0.90039,4.277344 0.60547,0.927734 1.5625,1.390624 2.87109,1.390624 1.28906,0 2.23926,-0.456054 2.84961,-1.36914 0.61524,-0.917969 0.92188,-2.356445 0.92188,-4.314453 0,-1.899414 -0.30274,-3.316407 -0.90821,-4.253907 C 132.08887,25.09668 131.13477,24.625 129.82617,24.625 Z m -7.98242,0.01367 c -0.90332,0 -1.69629,0.15625 -2.375,0.46875 -0.67871,0.307617 -1.23242,0.737305 -1.66211,1.289062 -0.4541,0.581055 -0.78613,1.245118 -0.99609,1.992188 -0.20508,0.74707 -0.30664,1.605469 -0.30664,2.572266 0,0.942381 0.11132,1.74707 0.33593,2.416015 0.2295,0.668945 0.55469,1.206055 0.97461,1.611328 0.33692,0.327149 0.72461,0.574219 1.16407,0.740235 0.43945,0.166015 0.92773,0.248047 1.46484,0.248046 1.05957,0 1.9541,-0.348633 2.68164,-1.046874 0.73242,-0.703126 1.09766,-1.608399 1.09766,-2.716797 0,-0.649414 -0.1084,-1.202149 -0.32813,-1.65625 -0.21484,-0.454102 -0.53906,-0.829102 -0.96875,-1.126953 -0.37109,-0.258791 -0.7334,-0.430665 -1.08984,-0.513672 -0.35156,-0.08789 -0.75879,-0.13086 -1.22266,-0.13086 -0.52246,0 -0.98437,0.06543 -1.38476,0.197266 -0.39551,0.126953 -0.79883,0.31543 -1.20899,0.564453 0.10254,-1.118164 0.4668,-2.005859 1.0918,-2.660156 0.625,-0.65918 1.46191,-0.988281 2.51172,-0.988281 0.28808,0 0.56836,0.03516 0.84179,0.103515 0.27832,0.06348 0.48633,0.131836 0.62305,0.205078 l 0.0723,0 0,-1.398437 c -0.2002,-0.06348 -0.39649,-0.108399 -0.5918,-0.132813 -0.19531,-0.02441 -0.43652,-0.03711 -0.72461,-0.03711 z m 7.98242,1.193359 c 0.46387,0 0.8418,0.09668 1.13477,0.28711 0.29785,0.190429 0.53222,0.473632 0.70312,0.849609 0.17578,0.380859 0.29297,0.84375 0.35156,1.390625 0.0635,0.546875 0.0957,1.191406 0.0957,1.933594 0,0.751953 -0.0322,1.396485 -0.0957,1.933593 -0.0586,0.532227 -0.17286,0.997071 -0.34374,1.392579 -0.16603,0.385742 -0.4004,0.672851 -0.70313,0.863281 -0.30273,0.19043 -0.68359,0.287109 -1.14258,0.287109 -0.48828,0 -0.88183,-0.100586 -1.17969,-0.300781 -0.29296,-0.200195 -0.5205,-0.490234 -0.68164,-0.871094 -0.17578,-0.405273 -0.29004,-0.866211 -0.34375,-1.378906 -0.0537,-0.512695 -0.0801,-1.148438 -0.0801,-1.910156 0,-0.69336 0.0293,-1.331055 0.0879,-1.91211 0.0635,-0.581054 0.17773,-1.052734 0.34375,-1.414062 0.17578,-0.385742 0.41308,-0.672852 0.71093,-0.863281 0.30274,-0.19043 0.6836,-0.28711 1.14258,-0.28711 z m -9.55859,4.154297 c 0.29785,0 0.58398,0.02344 0.85742,0.07227 0.27344,0.04883 0.52148,0.152344 0.74609,0.308594 0.30762,0.219726 0.52832,0.477539 0.66016,0.77539 0.13672,0.297852 0.20508,0.674805 0.20508,1.128906 0,0.810547 -0.20215,1.432618 -0.60742,1.867188 -0.40528,0.429687 -0.96192,0.644531 -1.66993,0.644531 -0.30761,0 -0.59375,-0.04883 -0.85742,-0.146484 -0.25879,-0.102539 -0.5,-0.261719 -0.72461,-0.476563 -0.27832,-0.258789 -0.49902,-0.610351 -0.66015,-1.054687 -0.15625,-0.449219 -0.23438,-1.058594 -0.23438,-1.830078 0,-0.151368 0.003,-0.275391 0.008,-0.373047 0.005,-0.102539 0.0117,-0.208985 0.0215,-0.316406 0.37598,-0.20508 0.74316,-0.355469 1.09961,-0.453126 0.35644,-0.09766 0.74121,-0.146484 1.15625,-0.146484 z M 60.826172,49.625 c -1.293945,0 -2.24707,0.462891 -2.857422,1.390625 -0.610352,0.922852 -0.914062,2.354492 -0.914062,4.292969 0,1.923828 0.299804,3.349609 0.90039,4.277344 0.605469,0.927734 1.5625,1.390624 2.871094,1.390624 1.289062,0 2.239258,-0.456054 2.849609,-1.36914 0.615235,-0.917969 0.921875,-2.356445 0.921875,-4.314453 0,-1.899414 -0.302734,-3.316406 -0.908203,-4.253907 C 63.088867,50.09668 62.134766,49.625 60.826172,49.625 Z m -8.482422,0.21875 -5.279297,6.152344 0,1.685547 5.220703,0 0,3.068359 1.40625,0 0,-3.068359 1.619141,0 0,-1.171875 -1.619141,0 0,-6.666016 z m 8.482422,0.988281 c 0.463867,0 0.841797,0.09668 1.134766,0.28711 0.297851,0.190429 0.532226,0.473632 0.703124,0.849609 0.175782,0.380859 0.292969,0.84375 0.351563,1.390625 0.06348,0.546875 0.0957,1.191406 0.0957,1.933594 0,0.751953 -0.03223,1.396485 -0.0957,1.933593 -0.05859,0.532227 -0.172852,0.997071 -0.34375,1.392579 -0.166016,0.385742 -0.400391,0.672851 -0.703125,0.863281 -0.302734,0.19043 -0.683594,0.287109 -1.142578,0.287109 -0.488281,0 -0.881836,-0.100586 -1.179688,-0.300781 -0.292968,-0.200195 -0.520507,-0.490234 -0.68164,-0.871094 -0.175782,-0.405273 -0.290039,-0.866211 -0.34375,-1.378906 -0.05371,-0.512695 -0.08008,-1.148438 -0.08008,-1.910156 0,-0.69336 0.0293,-1.331055 0.08789,-1.91211 0.06348,-0.581054 0.177735,-1.052734 0.34375,-1.414062 0.175782,-0.385742 0.413086,-0.672852 0.710938,-0.863281 0.302734,-0.19043 0.683594,-0.28711 1.142578,-0.28711 z m 129.566408,0.138672 c -1.04004,0 -1.89649,0.273438 -2.57031,0.820313 -0.67383,0.546875 -1.00977,1.230468 -1.00977,2.050781 0,0.556641 0.1377,1.019531 0.41602,1.390625 0.2832,0.371094 0.71875,0.712891 1.30468,1.02539 l 0,0.04492 c -0.63965,0.288086 -1.13477,0.678711 -1.48632,1.171875 -0.35158,0.488282 -0.52735,1.035157 -0.52735,1.640625 0,0.952149 0.34863,1.733399 1.04688,2.34375 0.70312,0.610352 1.64453,0.916016 2.82617,0.916016 1.11328,0 2.03711,-0.3125 2.76953,-0.9375 0.7373,-0.625 1.10547,-1.40918 1.10547,-2.351562 0,-0.664063 -0.17969,-1.210938 -0.54102,-1.640626 -0.36133,-0.429687 -0.88476,-0.791015 -1.56836,-1.083984 l 0,-0.04492 c 0.59571,-0.268554 1.04785,-0.639648 1.35547,-1.113281 0.30762,-0.478516 0.46094,-0.963867 0.46094,-1.457031 0,-0.805664 -0.3252,-1.469727 -0.97461,-1.992188 -0.64941,-0.522461 -1.51855,-0.783203 -2.60742,-0.783203 z M 199.95117,51 c -1.29394,0 -2.24707,0.462891 -2.85742,1.390625 -0.61035,0.922852 -0.91406,2.354492 -0.91406,4.292969 0,1.923828 0.2998,3.349609 0.90039,4.277344 0.60547,0.927734 1.5625,1.390624 2.87109,1.390624 1.28906,0 2.23926,-0.456054 2.84961,-1.36914 0.61524,-0.917969 0.92188,-2.356445 0.92188,-4.314453 0,-1.899414 -0.30274,-3.316406 -0.90821,-4.253907 C 202.21387,51.47168 201.25977,51 199.95117,51 Z m -147.666014,0.587891 0,4.921875 -4.224609,0 z m 138.101564,0.458984 c 0.625,0 1.13672,0.15625 1.53711,0.46875 0.40527,0.307617 0.60742,0.723633 0.60742,1.246094 0,0.454101 -0.0918,0.852539 -0.27734,1.199219 -0.18555,0.346679 -0.52051,0.68164 -1.00391,1.003906 -0.32227,-0.09277 -0.6543,-0.209961 -0.99609,-0.351563 -0.33692,-0.141601 -0.59668,-0.255859 -0.77735,-0.34375 -0.40039,-0.200195 -0.70019,-0.427734 -0.90039,-0.68164 -0.19531,-0.258789 -0.29297,-0.564453 -0.29297,-0.916016 0,-0.498047 0.19532,-0.892578 0.58594,-1.185547 0.39551,-0.292969 0.90234,-0.439453 1.51758,-0.439453 z m 9.56445,0.160156 c 0.46387,0 0.8418,0.09668 1.13477,0.28711 0.29785,0.190429 0.53222,0.473632 0.70312,0.849609 0.17578,0.380859 0.29297,0.84375 0.35156,1.390625 0.0635,0.546875 0.0957,1.191406 0.0957,1.933594 0,0.751953 -0.0322,1.396485 -0.0957,1.933593 -0.0586,0.532227 -0.17286,0.997071 -0.34374,1.392579 -0.16603,0.385742 -0.4004,0.672851 -0.70313,0.863281 -0.30273,0.19043 -0.68359,0.287109 -1.14258,0.287109 -0.48828,0 -0.88183,-0.100586 -1.17969,-0.300781 -0.29296,-0.200195 -0.5205,-0.490234 -0.68164,-0.871094 -0.17578,-0.405273 -0.29004,-0.866211 -0.34375,-1.378906 -0.0537,-0.512695 -0.0801,-1.148438 -0.0801,-1.910156 0,-0.69336 0.0293,-1.331055 0.0879,-1.91211 0.0635,-0.581054 0.17773,-1.052734 0.34375,-1.414062 0.17578,-0.385742 0.41308,-0.672852 0.71093,-0.863281 0.30274,-0.19043 0.6836,-0.28711 1.14258,-0.28711 z m -10.49609,4.431641 c 0.4541,0.166016 0.81835,0.295898 1.0918,0.388672 0.27342,0.09277 0.52441,0.193359 0.7539,0.300781 0.57617,0.273437 0.96289,0.546875 1.1582,0.820313 0.2002,0.268554 0.29883,0.626953 0.29883,1.076171 0,0.639649 -0.21484,1.143555 -0.64453,1.509766 -0.4248,0.366211 -0.99219,0.548828 -1.70508,0.548828 -0.69824,0 -1.27441,-0.214844 -1.72851,-0.644531 -0.4541,-0.429688 -0.68164,-0.975586 -0.68164,-1.634766 0,-0.517578 0.13281,-0.980468 0.39648,-1.390625 0.26856,-0.410156 0.62109,-0.735351 1.06055,-0.974609 z M 22.269531,118.86719 c -0.541992,0 -1.104492,0.0713 -1.685547,0.21289 -0.576172,0.1416 -1.038086,0.29785 -1.384765,0.46875 l 0,1.53711 0.07422,0 c 0.493164,-0.32227 0.998047,-0.56055 1.515624,-0.7168 0.51758,-0.15625 0.999024,-0.23437 1.44336,-0.23437 0.668945,0 1.189453,0.16015 1.560547,0.48242 0.375976,0.31738 0.5625,0.75976 0.5625,1.32617 0,0.62012 -0.172853,1.19922 -0.519531,1.73633 -0.34668,0.53222 -0.988282,1.25195 -1.925782,2.16015 -0.444336,0.43457 -0.925781,0.8711 -1.443359,1.31055 l -1.537109,1.31836 0,1.53125 7.382812,0 0,-1.25195 -5.867188,0 c 0.483399,-0.41016 1.003907,-0.85547 1.560547,-1.33399 0.556641,-0.4834 1.09668,-0.98144 1.619141,-1.49414 0.366211,-0.35644 0.675781,-0.68164 0.929688,-0.97461 0.258789,-0.29297 0.483398,-0.58984 0.673828,-0.89258 0.205078,-0.32226 0.358398,-0.66113 0.460937,-1.01757 0.107422,-0.36133 0.162109,-0.74903 0.162109,-1.16407 0,-0.92285 -0.31836,-1.65429 -0.953124,-2.1914 -0.634766,-0.54199 -1.510743,-0.8125 -2.628907,-0.8125 z m 9.806641,0.008 c -1.293945,0 -2.24707,0.4629 -2.857422,1.39062 -0.610352,0.92287 -0.914062,2.3545 -0.914062,4.29297 0,1.92383 0.299804,3.34961 0.90039,4.27735 0.605469,0.92773 1.5625,1.39062 2.871094,1.39062 1.289062,0 2.239258,-0.45605 2.849609,-1.36914 0.615235,-0.91797 0.921875,-2.35644 0.921875,-4.31445 0,-1.89942 -0.302734,-3.31641 -0.908203,-4.25391 -0.600586,-0.94238 -1.554687,-1.41406 -2.863281,-1.41406 z m 0,1.20703 c 0.463867,0 0.841797,0.0967 1.134766,0.28711 0.297851,0.19043 0.532226,0.47363 0.703124,0.84961 0.175782,0.38086 0.292969,0.84374 0.351563,1.39063 0.06348,0.54686 0.0957,1.1914 0.0957,1.93359 0,0.75195 -0.03223,1.39648 -0.0957,1.93359 -0.05859,0.53223 -0.172852,0.99707 -0.34375,1.39258 -0.166016,0.38574 -0.400391,0.67285 -0.703125,0.86328 -0.302734,0.19043 -0.683594,0.28711 -1.142578,0.28711 -0.488281,0 -0.881836,-0.10058 -1.179688,-0.30078 -0.292968,-0.2002 -0.520507,-0.49023 -0.68164,-0.87109 -0.175782,-0.40528 -0.290039,-0.86621 -0.34375,-1.37891 -0.05371,-0.5127 -0.08008,-1.14844 -0.08008,-1.91016 0,-0.69336 0.0293,-1.33105 0.08789,-1.91211 0.06348,-0.58105 0.177735,-1.05273 0.34375,-1.41406 0.175782,-0.38574 0.413086,-0.67285 0.710938,-0.86328 0.302734,-0.19043 0.683594,-0.28711 1.142578,-0.28711 z m 191.294918,0.44922 c -0.60058,0 -1.1167,0.0901 -1.54882,0.26953 -0.43213,0.17944 -0.7837,0.44776 -1.05469,0.80664 -0.271,0.36255 -0.46729,0.8064 -0.5918,1.33008 -0.12451,0.52368 -0.1875,1.14111 -0.1875,1.85156 0,0.68848 0.0608,1.29932 0.18164,1.83399 0.12085,0.531 0.3169,0.97509 0.58789,1.33398 0.26734,0.35889 0.6167,0.63135 1.04883,0.81445 0.43213,0.18311 0.95288,0.27344 1.56445,0.27344 0.62256,0 1.14746,-0.0901 1.57227,-0.26953 0.4248,-0.1831 0.77197,-0.45142 1.04297,-0.80664 0.26367,-0.3479 0.45752,-0.79395 0.58203,-1.33594 0.12451,-0.54565 0.1875,-1.16113 0.1875,-1.84961 0,-0.68847 -0.0608,-1.29467 -0.18164,-1.81836 -0.12085,-0.52734 -0.3147,-0.97119 -0.58203,-1.33007 -0.271,-0.36622 -0.61817,-0.64112 -1.04297,-0.82422 -0.42481,-0.18677 -0.95191,-0.2793 -1.57813,-0.2793 z m 8,0 c -0.60058,0 -1.11865,0.0901 -1.55078,0.26953 -0.43213,0.17944 -0.78369,0.44776 -1.05469,0.80664 -0.27099,0.36255 -0.46728,0.8064 -0.59179,1.33008 -0.12451,0.52368 -0.1875,1.14111 -0.1875,1.85156 0,0.68848 0.0608,1.29932 0.18164,1.83399 0.12085,0.531 0.31689,0.97509 0.58789,1.33398 0.26733,0.35889 0.6167,0.63135 1.04883,0.81445 0.43213,0.18311 0.95483,0.27344 1.5664,0.27344 0.62256,0 1.14551,-0.0901 1.57032,-0.26953 0.4248,-0.1831 0.77197,-0.45142 1.04297,-0.80664 0.26366,-0.3479 0.45751,-0.79395 0.58203,-1.33594 0.12451,-0.54565 0.1875,-1.16113 0.1875,-1.84961 0,-0.68847 -0.0608,-1.29467 -0.18164,-1.81836 -0.12085,-0.52734 -0.3147,-0.97119 -0.58204,-1.33007 -0.27099,-0.36622 -0.61816,-0.64112 -1.04296,-0.82422 -0.42481,-0.18677 -0.94996,-0.2793 -1.57618,-0.2793 z m -16.58007,0.14258 c -0.0147,0.21972 -0.0688,0.40234 -0.16407,0.54883 -0.0952,0.14648 -0.2373,0.26587 -0.42773,0.35742 -0.16113,0.0769 -0.36377,0.1311 -0.60547,0.16406 -0.2417,0.0293 -0.49414,0.0449 -0.75781,0.0449 l 0,1.33399 1.72461,0 0,4.32422 -1.72461,0 0,1.42773 5.46094,0 0,-1.42773 -1.6875,0 0,-6.77344 z m 8.58007,1.36719 c 0.45044,0 0.77466,0.21167 0.96875,0.63281 0.1941,0.41748 0.29102,1.1206 0.29102,2.10937 0,0.97779 -0.0991,1.68091 -0.29688,2.10938 -0.19775,0.42846 -0.51977,0.64258 -0.96289,0.64258 -0.44311,0 -0.76318,-0.21412 -0.96093,-0.64258 -0.19776,-0.42847 -0.29688,-1.12915 -0.29688,-2.09961 0,-0.99609 0.0989,-1.70166 0.29297,-2.11914 0.19409,-0.42114 0.5144,-0.63281 0.96484,-0.63281 z m 8,0 c 0.45044,0 0.77076,0.21167 0.96485,0.63281 0.19409,0.41748 0.29297,1.1206 0.29297,2.10937 0,0.97779 -0.0991,1.68091 -0.29688,2.10938 -0.19775,0.42846 -0.51782,0.64258 -0.96094,0.64258 -0.44311,0 -0.76513,-0.21412 -0.96289,-0.64258 -0.19775,-0.42847 -0.29687,-1.12915 -0.29687,-2.09961 0,-0.99609 0.0969,-1.70166 0.29101,-2.11914 0.1941,-0.42114 0.51831,-0.63281 0.96875,-0.63281 z m -26.25,65.74023 c -0.60058,0 -1.11865,0.0901 -1.55078,0.26953 -0.43213,0.17944 -0.78369,0.44776 -1.05469,0.80664 -0.27099,0.36255 -0.46728,0.8064 -0.59179,1.33008 -0.12451,0.52368 -0.1875,1.14111 -0.1875,1.85156 0,0.68848 0.0608,1.29932 0.18164,1.83399 0.12085,0.531 0.31689,0.97509 0.58789,1.33398 0.26733,0.35889 0.6167,0.63135 1.04883,0.81445 0.43213,0.18311 0.95483,0.27344 1.5664,0.27344 0.62256,0 1.14551,-0.0901 1.57032,-0.26953 0.4248,-0.1831 0.77197,-0.45142 1.04297,-0.80664 0.26366,-0.3479 0.45751,-0.79395 0.58203,-1.33594 0.12451,-0.54565 0.1875,-1.16113 0.1875,-1.84961 0,-0.68847 -0.0608,-1.29467 -0.18164,-1.81836 -0.12085,-0.52734 -0.3147,-0.97119 -0.58204,-1.33007 -0.27099,-0.36622 -0.61816,-0.64112 -1.04296,-0.82422 -0.42481,-0.18677 -0.94996,-0.2793 -1.57618,-0.2793 z m -8.09179,0.006 c -0.50904,0 -1.01831,0.0564 -1.52735,0.16992 -0.50537,0.11353 -0.88842,0.22632 -1.14843,0.33985 l 0,1.81835 0.17578,0 c 0.3186,-0.21606 0.66333,-0.39404 1.0332,-0.5332 0.37354,-0.13916 0.72754,-0.20898 1.06445,-0.20898 0.45044,0 0.79517,0.10351 1.03321,0.30859 0.2417,0.20142 0.36328,0.48779 0.36328,0.86133 0,0.31128 -0.0945,0.62671 -0.28125,0.94531 -0.18677,0.3186 -0.50025,0.69262 -0.94336,1.1211 -0.29663,0.28929 -0.69312,0.63403 -1.1875,1.0332 -0.49072,0.39917 -0.98194,0.77563 -1.47266,1.13086 l 0,1.35156 6.42188,0 0,-1.56641 -3.67383,0 c 0.14282,-0.10254 0.38183,-0.28076 0.71875,-0.53711 0.33691,-0.26001 0.67261,-0.54394 1.00586,-0.85156 0.531,-0.49438 0.92334,-0.97436 1.17969,-1.43945 0.26001,-0.46509 0.39062,-0.9563 0.39062,-1.47266 0,-0.78735 -0.26831,-1.39575 -0.80664,-1.82422 -0.53833,-0.43213 -1.32031,-0.64648 -2.3457,-0.64648 z m -8.48828,0.13672 c -0.0147,0.21972 -0.0688,0.40234 -0.16407,0.54883 -0.0952,0.14648 -0.2373,0.26587 -0.42773,0.35742 -0.16113,0.0769 -0.36377,0.1311 -0.60547,0.16406 -0.2417,0.0293 -0.49414,0.0449 -0.75781,0.0449 l 0,1.33399 1.72461,0 0,4.32422 -1.72461,0 0,1.42773 5.46094,0 0,-1.42773 -1.6875,0 0,-6.77344 z M 58.525391,188.375 c -1.293946,0 -2.247071,0.46289 -2.857422,1.39062 -0.610352,0.92287 -0.914063,2.3545 -0.914063,4.29297 0,1.92383 0.299805,3.34961 0.900391,4.27735 0.605469,0.92773 1.5625,1.39062 2.871094,1.39062 1.289062,0 2.239257,-0.45605 2.849609,-1.36914 0.615234,-0.91797 0.921875,-2.35644 0.921875,-4.31445 0,-1.89942 -0.302734,-3.31641 -0.908203,-4.25391 -0.600586,-0.94238 -1.554688,-1.41406 -2.863281,-1.41406 z m 146.595699,0.91602 c 0.45044,0 0.77076,0.21167 0.96485,0.63281 0.19409,0.41748 0.29297,1.1206 0.29297,2.10937 0,0.97779 -0.0991,1.68091 -0.29688,2.10938 -0.19775,0.42846 -0.51782,0.64258 -0.96094,0.64258 -0.44311,0 -0.76513,-0.21412 -0.96289,-0.64258 -0.19775,-0.42847 -0.29687,-1.12915 -0.29687,-2.09961 0,-0.99609 0.0969,-1.70166 0.29101,-2.11914 0.1941,-0.42114 0.51831,-0.63281 0.96875,-0.63281 z m -146.595699,0.29101 c 0.463867,0 0.841797,0.0967 1.134765,0.28711 0.297852,0.19043 0.532227,0.47363 0.703125,0.84961 0.175781,0.38086 0.292969,0.84374 0.351563,1.39063 0.06348,0.54687 0.0957,1.1914 0.0957,1.93359 0,0.75195 -0.03223,1.39648 -0.0957,1.93359 -0.05859,0.53223 -0.172852,0.99707 -0.34375,1.39258 -0.166016,0.38574 -0.400391,0.67285 -0.703125,0.86328 -0.302735,0.19043 -0.683594,0.28711 -1.142578,0.28711 -0.488282,0 -0.881836,-0.10058 -1.179688,-0.30078 -0.292969,-0.2002 -0.520507,-0.49023 -0.681641,-0.87109 -0.175781,-0.40528 -0.290039,-0.86621 -0.34375,-1.37891 -0.05371,-0.5127 -0.08008,-1.14844 -0.08008,-1.91016 0,-0.69336 0.0293,-1.33105 0.08789,-1.91211 0.06348,-0.58105 0.177734,-1.05273 0.34375,-1.41406 0.175781,-0.38574 0.413086,-0.67285 0.710937,-0.86328 0.302735,-0.19043 0.683594,-0.28711 1.142579,-0.28711 z m 53.414059,-26.55469 0,7.59766 0.91797,0 0,-1.82227 0.5957,-0.5664 2.1875,2.38867 1.21094,0 -2.7207,-2.93555 2.53516,-2.51953 -1.15821,0 -2.65039,2.73047 0,-4.87305 z m 18.30078,0.57618 0,1.5664 -0.62109,0 0,0.77149 0.62109,0 0,2.90039 c 0,0.6608 0.14388,1.14192 0.4336,1.4414 0.28971,0.29948 0.71289,0.44922 1.26953,0.44922 0.15951,0 0.3392,-0.0156 0.54102,-0.0449 0.2044,-0.0292 0.39434,-0.0659 0.5664,-0.11133 l 0,-0.82617 -0.0488,0 c -0.0716,0.0293 -0.1888,0.0677 -0.35156,0.11328 -0.16276,0.0423 -0.31901,0.0625 -0.46875,0.0625 -0.25717,0 -0.44922,-0.0293 -0.57617,-0.0879 -0.1237,-0.0618 -0.22136,-0.1569 -0.29297,-0.28711 -0.0781,-0.13997 -0.12372,-0.28972 -0.13672,-0.44922 -0.013,-0.16276 -0.0176,-0.38737 -0.0176,-0.67383 l 0,-2.48632 1.89453,0 0,-0.77149 -1.89453,0 0,-1.5664 z m -9.67382,1.41601 c -0.32227,0 -0.63542,0.0658 -0.94141,0.19922 -0.30599,0.13347 -0.60221,0.31901 -0.88867,0.55664 l 0,-0.60547 -0.91797,0 0,5.45508 0.91797,0 0,-4.07227 c 0.25065,-0.19206 0.51172,-0.35091 0.78515,-0.47461 0.27344,-0.12369 0.53646,-0.18554 0.78711,-0.18554 0.24414,0 0.44271,0.0351 0.59571,0.10351 0.15299,0.0651 0.27018,0.16602 0.35156,0.30274 0.0781,0.1237 0.13082,0.29622 0.16016,0.51758 0.0293,0.2181 0.043,0.45247 0.043,0.70312 l 0,3.10547 0.91993,0 0,-3.54102 c 0,-0.66731 -0.1556,-1.17838 -0.46485,-1.5332 -0.30924,-0.35482 -0.75846,-0.53125 -1.34765,-0.53125 z m 5.71289,0 c -0.77149,0 -1.38412,0.25781 -1.83985,0.77539 -0.45247,0.51433 -0.67968,1.2168 -0.67968,2.10547 0,0.88867 0.22721,1.58919 0.67968,2.10352 0.45573,0.51432 1.06836,0.77148 1.83985,0.77148 0.76497,0 1.37435,-0.25716 1.83008,-0.77148 0.45573,-0.51433 0.68554,-1.21485 0.68554,-2.10352 0,-0.88867 -0.22981,-1.59114 -0.68554,-2.10547 -0.45573,-0.51758 -1.06511,-0.77539 -1.83008,-0.77539 z m 9.74609,0.0195 c -0.34831,0 -0.66406,0.0456 -0.94727,0.13672 -0.27994,0.0879 -0.51107,0.20834 -0.69335,0.36133 -0.18881,0.15625 -0.33139,0.33268 -0.42579,0.53125 -0.0911,0.19857 -0.13671,0.41015 -0.13671,0.63476 0,0.35807 0.10026,0.66081 0.29882,0.90821 0.20183,0.24414 0.54102,0.42969 1.01953,0.55664 0.17253,0.0456 0.36394,0.0879 0.57227,0.12695 0.21159,0.0391 0.38151,0.0743 0.51172,0.10352 0.35156,0.0781 0.58919,0.17253 0.71289,0.2832 0.12369,0.11068 0.18555,0.27344 0.18555,0.48828 0,0.27995 -0.11394,0.48503 -0.3418,0.61524 -0.22787,0.1302 -0.54362,0.19531 -0.94727,0.19531 -0.32552,0 -0.66471,-0.0644 -1.01953,-0.19141 -0.35481,-0.1302 -0.67708,-0.30338 -0.96679,-0.52148 l -0.0488,0 0,1.0293 c 0.22786,0.11392 0.50846,0.22069 0.84375,0.31835 0.33854,0.0944 0.71159,0.14063 1.11523,0.14063 0.71289,0 1.27344,-0.1595 1.6836,-0.47852 0.4134,-0.319 0.61914,-0.72656 0.61914,-1.22461 0,-0.39714 -0.11459,-0.71615 -0.34571,-0.95703 -0.23112,-0.23763 -0.5599,-0.40625 -0.98632,-0.5039 -0.13998,-0.0326 -0.31576,-0.0684 -0.52735,-0.10742 -0.20833,-0.0391 -0.39714,-0.0781 -0.5664,-0.11719 -0.306,-0.0716 -0.52735,-0.16341 -0.66407,-0.27735 -0.13997,-0.11393 -0.21093,-0.2832 -0.21093,-0.50781 0,-0.2539 0.11653,-0.44531 0.34765,-0.57226 0.23112,-0.13022 0.51432,-0.19532 0.84961,-0.19532 0.32227,0 0.65104,0.0612 0.98633,0.18164 0.33529,0.11719 0.61914,0.26107 0.85352,0.4336 l 0.0488,0 0,-0.98047 c -0.22135,-0.11393 -0.49869,-0.21094 -0.83398,-0.28906 -0.33203,-0.0814 -0.66081,-0.1211 -0.98633,-0.1211 z m -9.74609,0.77149 c 0.49153,0 0.87565,0.17252 1.15234,0.51757 0.27669,0.3418 0.41602,0.86589 0.41602,1.57227 0,0.69011 -0.13998,1.21094 -0.41993,1.5625 -0.27669,0.34831 -0.66015,0.52149 -1.14843,0.52149 -0.4948,-10e-6 -0.88151,-0.17578 -1.15821,-0.52735 -0.27669,-0.35482 -0.41406,-0.87305 -0.41406,-1.55664 0,-0.70638 0.13672,-1.23047 0.41016,-1.57227 0.27669,-0.34505 0.66406,-0.51757 1.16211,-0.51757 z"
       id="speedUS"
       inkscape:label="#text4238"
       inkscape:connector-curvature="0"
       sodipodi:nodetypes="scscscscsscccsccsscscccscccscccccsscccsccsscccscccsssccscscccscccsscscscscsccccccccccccscccsccssccsscccssssccccscscsscccsssscscscscsccccscscccccscsscccsccsscccscccsccccscsssccsccccsscscccccccccccccscsscscscscsscccsccssccsscccssccsscccscccscccssccsscccscccscccscccccccccccccccscscssscsscscscscssccsscccscccscccsscccccscscccccccccccscscccccccccccccccscscscscsscscscscsscccsccssccsscccsccccccccccccccccccscscccccscccsccccccsscccccccscccsccscsscscssscsscccscccccscscccccscscccccscscccccsscscccscs" />
    <g
       id="indicatorAirspeedSP"
       inkscape:label="#g4189">
      <path
         style="opacity:1;fill:#1f1915;fill-opacity:1;stroke:none;stroke-width:2.11635494;stroke-miterlimit:4;stroke-dasharray:none;stroke-opacity:1"
         d="m 33.412088,202.58063 c -0.522819,0.51263 -0.498758,1.37911 0.05393,1.94279 l 10.168533,10.37067 c 0.552691,0.56368 1.744916,0.8114 1.941335,0.0922 l 4.537514,-16.6152 z"
         id="rect5124"
         inkscape:connector-curvature="0"
         sodipodi:nodetypes="sssscs" />
      <path
         inkscape:connector-curvature="0"
         id="path5006"
         d="m 42.406629,216.09816 c 0.484661,0.49429 1.072403,0.75986 1.73225,0.83143 0.329919,0.0358 0.695417,0.0204 1.073882,-0.15628 0.378465,-0.1767 0.736854,-0.57586 0.859217,-1.02395 l 5.004984,-18.32284 -18.686784,4.70964 -0.197284,0.19344 c -0.943536,0.92514 -0.869574,2.46492 0.04539,3.39807 l 10.168344,10.37049 z m 1.464768,-1.43622 -10.168344,-10.37049 c -0.135731,-0.13843 -0.07922,-0.24292 -0.04611,-0.34707 l 14.501293,-3.65603 -3.966869,14.52422 c -0.126969,-0.0503 -0.274111,-0.10386 -0.319969,-0.15063 z"
         style="color:#000000;font-style:normal;font-variant:normal;font-weight:normal;font-stretch:normal;font-size:medium;line-height:normal;font-family:sans-serif;text-indent:0;text-align:start;text-decoration:none;text-decoration-line:none;text-decoration-style:solid;text-decoration-color:#000000;letter-spacing:normal;word-spacing:normal;text-transform:none;direction:ltr;block-progression:tb;writing-mode:lr-tb;baseline-shift:baseline;text-anchor:start;white-space:normal;clip-rule:nonzero;display:inline;overflow:visible;visibility:visible;opacity:1;isolation:auto;mix-blend-mode:normal;color-interpolation:sRGB;color-interpolation-filters:linearRGB;solid-color:#000000;solid-opacity:1;fill:#c45614;fill-opacity:1;fill-rule:nonzero;stroke:#64280a;stroke-width:0.48613572;stroke-linecap:butt;stroke-linejoin:miter;stroke-miterlimit:4;stroke-dasharray:none;stroke-dashoffset:0;stroke-opacity:1;color-rendering:auto;image-rendering:auto;shape-rendering:auto;text-rendering:auto;enable-background:accumulate" />
    </g>
    <text
       sodipodi:linespacing="125%"
       id="text4464"
       y="197.62492"
       x="93.968727"
       style="font-style:normal;font-weight:normal;font-size:12.5px;line-height:125%;font-family:sans-serif;text-align:center;letter-spacing:0px;word-spacing:0px;text-anchor:middle;fill:#b1937e;fill-opacity:1;stroke:none;stroke-width:1px;stroke-linecap:butt;stroke-linejoin:miter;stroke-opacity:1"
       xml:space="preserve"><tspan
         id="tspan4468"
         style="font-size:12.5px;fill:#b1937e;fill-opacity:1"
         y="197.62492"
         x="93.968727"
         sodipodi:role="line">IAS</tspan></text>
    <rect
       ry="0"
       y="185.83179"
       x="108.50056"
       height="13.078027"
       width="48.694778"
       id="rect4175-1"
       style="opacity:1;fill:#000000;fill-opacity:1;stroke:#584335;stroke-width:0.77911645;stroke-linecap:round;stroke-miterlimit:4;stroke-dasharray:none;stroke-dashoffset:0;stroke-opacity:1" />
    <text
       inkscape:label="#text4174"
       xml:space="preserve"
       style="font-style:normal;font-variant:normal;font-weight:normal;font-stretch:normal;font-size:11.68674755px;line-height:125%;font-family:sans-serif;-inkscape-font-specification:sans-serif;text-align:end;letter-spacing:0px;word-spacing:0px;text-anchor:end;fill:#b1937e;fill-opacity:1;stroke:none;stroke-width:1px;stroke-linecap:butt;stroke-linejoin:miter;stroke-opacity:1"
       x="154.43425"
       y="196.42612"
       id="indicatedAirspeed"
       sodipodi:linespacing="125%"><tspan
         sodipodi:role="line"
         id="tspan4179-8"
         x="154.43425"
         y="196.42612">88m/s</tspan></text>
    <rect
       style="opacity:1;fill:#000000;fill-opacity:1;stroke:#584335;stroke-width:0.77911645;stroke-linecap:round;stroke-miterlimit:4;stroke-dasharray:none;stroke-dashoffset:0;stroke-opacity:1"
       id="rect4200"
       width="48.694778"
       height="13.078027"
       x="108.50031"
       y="201.38814"
       ry="0" />
    <text
       sodipodi:linespacing="125%"
       id="groundSpeed"
       y="211.98247"
       x="154.43425"
       style="font-style:normal;font-variant:normal;font-weight:normal;font-stretch:normal;font-size:11.68674755px;line-height:125%;font-family:sans-serif;-inkscape-font-specification:sans-serif;text-align:end;letter-spacing:0px;word-spacing:0px;text-anchor:end;fill:#b1937e;fill-opacity:1;stroke:none;stroke-width:1px;stroke-linecap:butt;stroke-linejoin:miter;stroke-opacity:1"
       xml:space="preserve"
       inkscape:label="#text4174"><tspan
         y="211.98247"
         x="154.43425"
         id="tspan4204"
         sodipodi:role="line">88m/s</tspan></text>
  </g>
</svg>
