<?xml version="1.0" encoding="UTF-8" standalone="no"?>
<!-- Created with Inkscape (http://www.inkscape.org/) -->

<svg
   xmlns:osb="http://www.openswatchbook.org/uri/2009/osb"
   xmlns:dc="http://purl.org/dc/elements/1.1/"
   xmlns:cc="http://creativecommons.org/ns#"
   xmlns:rdf="http://www.w3.org/1999/02/22-rdf-syntax-ns#"
   xmlns:svg="http://www.w3.org/2000/svg"
   xmlns="http://www.w3.org/2000/svg"
   xmlns:sodipodi="http://sodipodi.sourceforge.net/DTD/sodipodi-0.dtd"
   xmlns:inkscape="http://www.inkscape.org/namespaces/inkscape"
   width="250"
   height="250"
   viewBox="0 0 250.00001 250.00001"
   id="gaugeAttitude"
   version="1.1"
   inkscape:version="0.91 r13725"
   sodipodi:docname="gaugeAttitude.svg">
  <defs
     id="defs4">
    <linearGradient
       id="linearGradient4188"
       osb:paint="solid">
      <stop
         style="stop-color:#000000;stop-opacity:1;"
         offset="0"
         id="stop4190" />
    </linearGradient>
    <inkscape:path-effect
       effect="bend_path"
       id="path-effect4375"
       is_visible="true"
       bendpath="M 90.275137,271.70687 C 68.572574,249.25108 55.228309,218.72518 55.228307,185.09514 55.228301,116.11085 111.377,60.188038 180.63992,60.188038 c 69.26292,1e-5 125.4116,55.922812 125.4116,124.907102 l 0,0 c 0,33.59507 -13.31652,64.09241 -34.97912,86.54161"
       prop_scale="1"
       scale_y_rel="false"
       vertical="false" />
    <inkscape:path-effect
       effect="ruler"
       id="path-effect3338"
       is_visible="true"
       unit="px"
       mark_distance="11"
       mark_length="26"
       minor_mark_length="13"
       major_mark_steps="5"
       shift="0"
       offset="0"
       mark_dir="right"
       border_marks="none" />
    <inkscape:path-effect
       effect="ruler"
       id="path-effect3338-7"
       is_visible="true"
       unit="px"
       mark_distance="11"
       mark_length="26"
       minor_mark_length="0"
       major_mark_steps="5"
       shift="0"
       offset="0"
       mark_dir="right"
       border_marks="none" />
    <filter
       style="color-interpolation-filters:sRGB"
       inkscape:label="Drop Shadow"
       id="filter4519">
      <feFlood
         flood-opacity="0.419608"
         flood-color="rgb(0,0,0)"
         result="flood"
         id="feFlood4521" />
      <feComposite
         in="flood"
         in2="SourceGraphic"
         operator="in"
         result="composite1"
         id="feComposite4523" />
      <feGaussianBlur
         in="composite1"
         stdDeviation="2"
         result="blur"
         id="feGaussianBlur4525" />
      <feOffset
         dx="2"
         dy="2"
         result="offset"
         id="feOffset4527" />
      <feComposite
         in="SourceGraphic"
         in2="offset"
         operator="over"
         result="composite2"
         id="feComposite4529" />
    </filter>
    <clipPath
       clipPathUnits="userSpaceOnUse"
       id="clipPath4311">
      <circle
         r="103"
         style="opacity:1;fill:#1f1915;fill-opacity:1;stroke:none;stroke-width:2;stroke-miterlimit:4;stroke-dasharray:none;stroke-opacity:1"
         id="circle4313"
         cx="120.00001"
         cy="120.00003" />
    </clipPath>
    <filter
       inkscape:collect="always"
       style="color-interpolation-filters:sRGB"
       id="filter4762"
       x="-0.017316462"
       width="1.0346329"
       y="-0.033365831"
       height="1.0667317">
      <feGaussianBlur
         inkscape:collect="always"
         stdDeviation="1.3099238"
         id="feGaussianBlur4764" />
    </filter>
    <filter
       inkscape:collect="always"
       style="color-interpolation-filters:sRGB"
       id="filter4604"
       x="-0.048639998"
       width="1.09728"
       y="-0.047376625"
       height="1.0947531">
      <feGaussianBlur
         inkscape:collect="always"
         stdDeviation="4.5600001"
         id="feGaussianBlur4606" />
    </filter>
    <filter
       inkscape:collect="always"
       style="color-interpolation-filters:sRGB"
       id="filter5193"
       x="-0.28443941"
       width="1.5688788"
       y="-0.28436062"
       height="1.5687212">
      <feGaussianBlur
         inkscape:collect="always"
         stdDeviation="1.9364717"
         id="feGaussianBlur5195" />
    </filter>
    <clipPath
       clipPathUnits="userSpaceOnUse"
       id="clipPath4273">
      <circle
         style="fill:#110e0c;fill-opacity:1;stroke:none;stroke-width:10.14281082;stroke-miterlimit:4;stroke-dasharray:none;stroke-opacity:0.24852074"
         id="circle4275"
         cx="126.50761"
         cy="124.00041"
         inkscape:label="#path5642"
         r="117.4286" />
    </clipPath>
    <filter
       inkscape:collect="always"
       style="color-interpolation-filters:sRGB"
       id="filter4250"
       x="-0.085038561"
       width="1.1700771"
       y="-0.20377823"
       height="1.4075565">
      <feGaussianBlur
         inkscape:collect="always"
         stdDeviation="0.68264265"
         id="feGaussianBlur4252" />
    </filter>
  </defs>
  <sodipodi:namedview
     id="base"
     pagecolor="#63564d"
     bordercolor="#666666"
     borderopacity="1.0"
     inkscape:pageopacity="1"
     inkscape:pageshadow="2"
     inkscape:zoom="9.594025"
     inkscape:cx="133.2309"
     inkscape:cy="157.01468"
     inkscape:document-units="px"
     inkscape:current-layer="g4683"
     showgrid="false"
     inkscape:window-width="1920"
     inkscape:window-height="1017"
     inkscape:window-x="-8"
     inkscape:window-y="-8"
     inkscape:window-maximized="1"
     units="px" />
  <metadata
     id="metadata7">
    <rdf:RDF>
      <cc:Work
         rdf:about="">
        <dc:format>image/svg+xml</dc:format>
        <dc:type
           rdf:resource="http://purl.org/dc/dcmitype/StillImage" />
        <dc:title />
      </cc:Work>
    </rdf:RDF>
  </metadata>
  <g
     inkscape:label="Layer 1"
     inkscape:groupmode="layer"
     id="layer1">
    <g
       id="g4235"
       clip-path="url(#clipPath4273)">
      <path
         inkscape:label="#path5642"
         id="topHalf"
         style="fill:#525369;fill-opacity:1;stroke:none;stroke-width:1.97756302;stroke-miterlimit:4;stroke-dasharray:none;stroke-opacity:1"
         sodipodi:type="arc"
         sodipodi:cx="126.07101"
         sodipodi:cy="124.12901"
         sodipodi:rx="116.21123"
         sodipodi:ry="116.01122"
         sodipodi:start="3.1415927"
         sodipodi:end="0"
         d="M 9.8597794,124.12901 A 116.21123,116.01122 0 0 1 126.07101,8.1177902 116.21123,116.01122 0 0 1 242.28223,124.12901 l -116.21122,0 z" />
      <path
         style="fill:#6c4823;fill-opacity:1;stroke:none;stroke-width:1.97756302;stroke-miterlimit:4;stroke-dasharray:none;stroke-opacity:1"
         id="ellipse4189"
         inkscape:label="#path5642"
         sodipodi:type="arc"
         sodipodi:cx="126.07101"
         sodipodi:cy="124.12901"
         sodipodi:rx="116.21123"
         sodipodi:ry="116.01122"
         sodipodi:start="0"
         sodipodi:end="3.1415927"
         d="m 242.28223,124.12901 a 116.21123,116.01122 0 0 1 -58.10561,100.46867 116.21123,116.01122 0 0 1 -116.21123,0 A 116.21123,116.01122 0 0 1 9.8597794,124.12901 l 116.2112306,0 z" />
      <g
         clip-path="none"
         inkscape:label="#g4280"
         id="pitch">
        <path
           style="opacity:1;fill:#6c4823;fill-opacity:1;stroke:#211b17;stroke-width:2;stroke-miterlimit:4;stroke-dasharray:none;stroke-opacity:1;filter:url(#filter4762)"
           d="m 74.95301,153.26521 a 90.774841,93.69165 0 0 0 -0.0254,0.53125 90.774841,93.69165 0 0 0 90.77539,93.6914 90.774841,93.69165 0 0 0 90.77539,-93.6914 90.774841,93.69165 0 0 0 -0.0176,-0.53125 l -181.50781,0 z"
           id="path4701"
           inkscape:connector-curvature="0"
           transform="matrix(1.0375612,0,0,1.0018724,-45.98007,-29.60098)" />
        <path
           id="path4766"
           d="m -226.42578,166.00391 a 90.774841,93.69165 0 0 0 -0.0254,0.53125 90.774841,93.69165 0 0 0 90.77539,93.6914 90.774841,93.69165 0 0 0 90.775389,-93.6914 90.774841,93.69165 0 0 0 -0.01758,-0.53125 l -181.507809,0 z"
           style="opacity:1;fill:#525369;fill-opacity:1;stroke:#211b17;stroke-width:2;stroke-miterlimit:4;stroke-dasharray:none;stroke-opacity:1;filter:url(#filter4762)"
           inkscape:connector-curvature="0"
           transform="matrix(1.0375612,0,0,-1.0018724,266.71887,290.48895)" />
        <g
           id="g4683"
           transform="matrix(1.0375612,0,0,1.0018724,266.71887,-42.36353)">
          <path
             style="font-style:normal;font-weight:normal;font-size:20px;line-height:125%;font-family:sans-serif;letter-spacing:0px;word-spacing:0px;fill:#b1937e;fill-opacity:1;stroke:none;stroke-width:1px;stroke-linecap:butt;stroke-linejoin:miter;stroke-opacity:1"
             d="M 121.12891 73.302734 C 120.40515 73.302734 119.82227 73.895316 119.82227 74.630859 C 119.82227 75.366505 120.40515 75.958984 121.12891 75.958984 L 130.88477 75.958984 C 131.6085 75.958984 132.19141 75.366505 132.19141 74.630859 C 132.19141 73.895316 131.6085 73.302734 130.88477 73.302734 L 121.12891 73.302734 z M 100.10156 80.060547 C 99.547656 80.060547 99.070417 80.140977 98.671875 80.300781 C 98.273333 80.460585 97.949152 80.699924 97.699219 81.019531 C 97.449285 81.3424 97.267178 81.736759 97.152344 82.203125 C 97.03751 82.669491 96.980469 83.21887 96.980469 83.851562 C 96.980469 84.464687 97.036981 85.010178 97.148438 85.486328 C 97.259894 85.959217 97.43952 86.35422 97.689453 86.673828 C 97.936009 86.993436 98.259661 87.235372 98.658203 87.398438 C 99.056745 87.561503 99.537524 87.642578 100.10156 87.642578 C 100.67573 87.642578 101.15899 87.562148 101.55078 87.402344 C 101.94257 87.239279 102.26179 86.99994 102.51172 86.683594 C 102.7549 86.37377 102.93399 85.978767 103.04883 85.496094 C 103.16366 85.01016 103.22266 84.460781 103.22266 83.847656 C 103.22266 83.234531 103.16614 82.694882 103.05469 82.228516 C 102.94323 81.758888 102.76413 81.362576 102.51758 81.042969 C 102.26764 80.716838 101.94647 80.473612 101.55469 80.310547 C 101.1629 80.14422 100.67911 80.060547 100.10156 80.060547 z M 158.98242 80.060547 C 158.42852 80.060547 157.95323 80.140977 157.55469 80.300781 C 157.15615 80.460585 156.83196 80.699924 156.58203 81.019531 C 156.3321 81.3424 156.14999 81.736759 156.03516 82.203125 C 155.92032 82.669491 155.86133 83.21887 155.86133 83.851562 C 155.86133 84.464687 155.91784 85.010178 156.0293 85.486328 C 156.14075 85.959217 156.32038 86.35422 156.57031 86.673828 C 156.81687 86.993436 157.14052 87.235372 157.53906 87.398438 C 157.9376 87.561503 158.41838 87.642578 158.98242 87.642578 C 159.55659 87.642578 160.03985 87.562148 160.43164 87.402344 C 160.82343 87.239279 161.1446 86.99994 161.39453 86.683594 C 161.63771 86.37377 161.81681 85.978767 161.93164 85.496094 C 162.04647 85.01016 162.10352 84.460781 162.10352 83.847656 C 162.10352 83.234531 162.047 82.694882 161.93555 82.228516 C 161.82409 81.758888 161.64499 81.362576 161.39844 81.042969 C 161.1485 80.716838 160.82929 80.473612 160.4375 80.310547 C 160.04571 80.14422 159.55997 80.060547 158.98242 80.060547 z M 92.638672 80.064453 C 92.169202 80.064453 91.699938 80.115696 91.230469 80.216797 C 90.764377 80.317897 90.411676 80.418431 90.171875 80.519531 L 90.171875 82.138672 L 90.333984 82.138672 C 90.627825 81.946255 90.944031 81.787992 91.285156 81.664062 C 91.629659 81.540133 91.958803 81.478516 92.269531 81.478516 C 92.684961 81.478516 93.001167 81.571273 93.220703 81.753906 C 93.443617 81.933278 93.554688 82.188831 93.554688 82.521484 C 93.554687 82.798695 93.469126 83.079548 93.296875 83.363281 C 93.124624 83.647015 92.834456 83.979756 92.425781 84.361328 C 92.152206 84.618971 91.787991 84.923815 91.332031 85.279297 C 90.879449 85.634779 90.427191 85.970763 89.974609 86.287109 L 89.974609 87.492188 L 95.896484 87.492188 L 95.896484 86.097656 L 92.507812 86.097656 C 92.639534 86.00634 92.859194 85.845479 93.169922 85.617188 C 93.48065 85.385635 93.790306 85.133324 94.097656 84.859375 C 94.587391 84.419099 94.951077 83.992311 95.1875 83.578125 C 95.427301 83.163939 95.546875 82.727422 95.546875 82.267578 C 95.546875 81.566398 95.299224 81.024151 94.802734 80.642578 C 94.306245 80.257744 93.584366 80.064453 92.638672 80.064453 z M 151.51953 80.064453 C 151.05006 80.064453 150.5808 80.115696 150.11133 80.216797 C 149.64524 80.317897 149.29254 80.418431 149.05273 80.519531 L 149.05273 82.138672 L 149.21484 82.138672 C 149.50868 81.946255 149.82684 81.787992 150.16797 81.664062 C 150.51247 81.540133 150.83966 81.478516 151.15039 81.478516 C 151.56582 81.478516 151.88398 81.571273 152.10352 81.753906 C 152.32643 81.933278 152.4375 82.188831 152.4375 82.521484 C 152.4375 82.798695 152.35194 83.079548 152.17969 83.363281 C 152.00744 83.647015 151.71532 83.979756 151.30664 84.361328 C 151.03306 84.618971 150.66885 84.923815 150.21289 85.279297 C 149.76031 85.634779 149.30805 85.970763 148.85547 86.287109 L 148.85547 87.492188 L 154.77734 87.492188 L 154.77734 86.097656 L 151.38867 86.097656 C 151.52039 86.00634 151.74201 85.845479 152.05273 85.617188 C 152.36346 85.385635 152.67117 85.133324 152.97852 84.859375 C 153.46825 84.419099 153.83194 83.992311 154.06836 83.578125 C 154.30816 83.163939 154.42773 82.727422 154.42773 82.267578 C 154.42773 81.566398 154.18008 81.024151 153.68359 80.642578 C 153.1871 80.257744 152.46522 80.064453 151.51953 80.064453 z M 100.10156 81.40625 C 100.51699 81.40625 100.81318 81.5937 100.99219 81.96875 C 101.17119 82.340539 101.26172 82.967104 101.26172 83.847656 C 101.26172 84.718424 101.17067 85.343037 100.98828 85.724609 C 100.8059 86.106182 100.51024 86.296875 100.10156 86.296875 C 99.692888 86.296875 99.397228 86.106182 99.214844 85.724609 C 99.03246 85.343037 98.941406 84.721667 98.941406 83.857422 C 98.941406 82.970347 99.029978 82.340539 99.208984 81.96875 C 99.387991 81.5937 99.686133 81.40625 100.10156 81.40625 z M 158.98242 81.40625 C 159.39785 81.40625 159.69599 81.5937 159.875 81.96875 C 160.05401 82.340539 160.14258 82.967104 160.14258 83.847656 C 160.14258 84.718424 160.05152 85.343037 159.86914 85.724609 C 159.68676 86.106182 159.3911 86.296875 158.98242 86.296875 C 158.57375 86.296875 158.27809 86.106182 158.0957 85.724609 C 157.91332 85.343037 157.82227 84.721667 157.82227 83.857422 C 157.82227 82.970347 157.91279 82.340539 158.0918 81.96875 C 158.2708 81.5937 158.56699 81.40625 158.98242 81.40625 z M 107.77344 83.257812 C 107.0497 83.257812 106.4668 83.850295 106.4668 84.585938 C 106.4668 85.321483 107.0497 85.914063 107.77344 85.914062 L 144.24219 85.914062 C 144.96593 85.914062 145.54688 85.321483 145.54688 84.585938 C 145.54688 83.850295 144.96593 83.257813 144.24219 83.257812 L 107.77344 83.257812 z M 121.12891 93.210938 C 120.40515 93.210938 119.82227 93.803416 119.82227 94.539062 C 119.82227 95.274605 120.40515 95.867188 121.12891 95.867188 L 130.88477 95.867188 C 131.6085 95.867188 132.19141 95.274605 132.19141 94.539062 C 132.19141 93.803416 131.6085 93.210938 130.88477 93.210938 L 121.12891 93.210938 z M 100.10156 100.09766 C 99.547656 100.09766 99.070417 100.17809 98.671875 100.33789 C 98.273333 100.49769 97.949152 100.73703 97.699219 101.05664 C 97.449285 101.37951 97.267178 101.77387 97.152344 102.24023 C 97.03751 102.7066 96.980469 103.25598 96.980469 103.88867 C 96.980469 104.5018 97.036981 105.04729 97.148438 105.52344 C 97.259894 105.99633 97.43952 106.39133 97.689453 106.71094 C 97.936009 107.03055 98.259661 107.27248 98.658203 107.43555 C 99.056745 107.59861 99.537524 107.67969 100.10156 107.67969 C 100.67573 107.67969 101.15899 107.60121 101.55078 107.44141 C 101.94257 107.27834 102.26179 107.03705 102.51172 106.7207 C 102.7549 106.41088 102.93399 106.01588 103.04883 105.5332 C 103.16366 105.04727 103.22266 104.49789 103.22266 103.88477 C 103.22266 103.27164 103.16614 102.73199 103.05469 102.26562 C 102.94323 101.796 102.76413 101.40164 102.51758 101.08203 C 102.26764 100.7559 101.94647 100.51072 101.55469 100.34766 C 101.1629 100.18133 100.67911 100.09766 100.10156 100.09766 z M 158.98242 100.09766 C 158.42852 100.09766 157.95323 100.17809 157.55469 100.33789 C 157.15615 100.49769 156.83196 100.73703 156.58203 101.05664 C 156.3321 101.37951 156.14999 101.77387 156.03516 102.24023 C 155.92032 102.7066 155.86133 103.25598 155.86133 103.88867 C 155.86133 104.5018 155.91784 105.04729 156.0293 105.52344 C 156.14075 105.99633 156.32038 106.39133 156.57031 106.71094 C 156.81687 107.03055 157.14052 107.27248 157.53906 107.43555 C 157.9376 107.59861 158.41838 107.67969 158.98242 107.67969 C 159.55659 107.67969 160.03985 107.60121 160.43164 107.44141 C 160.82343 107.27834 161.1446 107.03705 161.39453 106.7207 C 161.63771 106.41088 161.81681 106.01588 161.93164 105.5332 C 162.04647 105.04727 162.10352 104.49789 162.10352 103.88477 C 162.10352 103.27164 162.047 102.73199 161.93555 102.26562 C 161.82409 101.796 161.64499 101.40164 161.39844 101.08203 C 161.1485 100.7559 160.82929 100.51072 160.4375 100.34766 C 160.04571 100.18133 159.55997 100.09766 158.98242 100.09766 z M 92.1875 100.22461 C 92.17399 100.42029 92.122971 100.58439 92.035156 100.71484 C 91.947342 100.8453 91.816254 100.95167 91.640625 101.0332 C 91.492016 101.10169 91.306898 101.15034 91.083984 101.17969 C 90.861071 101.20578 90.627944 101.21875 90.384766 101.21875 L 90.384766 102.40625 L 91.974609 102.40625 L 91.974609 106.25781 L 90.384766 106.25781 L 90.384766 107.5293 L 95.419922 107.5293 L 95.419922 106.25781 L 93.865234 106.25781 L 93.865234 100.22461 L 92.1875 100.22461 z M 151.06836 100.22461 C 151.05485 100.42029 151.00578 100.58439 150.91797 100.71484 C 150.83015 100.8453 150.69711 100.95167 150.52148 101.0332 C 150.37288 101.10169 150.18776 101.15034 149.96484 101.17969 C 149.74193 101.20578 149.5088 101.21875 149.26562 101.21875 L 149.26562 102.40625 L 150.85742 102.40625 L 150.85742 106.25781 L 149.26562 106.25781 L 149.26562 107.5293 L 154.30078 107.5293 L 154.30078 106.25781 L 152.74609 106.25781 L 152.74609 100.22461 L 151.06836 100.22461 z M 100.10156 101.44336 C 100.51699 101.44336 100.81318 101.63081 100.99219 102.00586 C 101.17119 102.37765 101.26172 103.00421 101.26172 103.88477 C 101.26172 104.75553 101.17067 105.3821 100.98828 105.76367 C 100.8059 106.14524 100.51024 106.33594 100.10156 106.33594 C 99.692888 106.33594 99.397228 106.14524 99.214844 105.76367 C 99.03246 105.3821 98.941406 104.75878 98.941406 103.89453 C 98.941406 103.00746 99.029978 102.37765 99.208984 102.00586 C 99.387991 101.63081 99.686133 101.44336 100.10156 101.44336 z M 158.98242 101.44336 C 159.39785 101.44336 159.69599 101.63081 159.875 102.00586 C 160.05401 102.37765 160.14258 103.00421 160.14258 103.88477 C 160.14258 104.75553 160.05152 105.3821 159.86914 105.76367 C 159.68676 106.14524 159.3911 106.33594 158.98242 106.33594 C 158.57375 106.33594 158.27809 106.14524 158.0957 105.76367 C 157.91332 105.3821 157.82227 104.75878 157.82227 103.89453 C 157.82227 103.00746 157.91279 102.37765 158.0918 102.00586 C 158.2708 101.63081 158.56699 101.44336 158.98242 101.44336 z M 107.77344 103.16602 C 107.0497 103.16602 106.4668 103.7586 106.4668 104.49414 C 106.4668 105.22978 107.0497 105.82227 107.77344 105.82227 L 144.24219 105.82227 C 144.96593 105.82227 145.54688 105.22978 145.54688 104.49414 C 145.54688 103.7586 144.96593 103.16602 144.24219 103.16602 L 107.77344 103.16602 z M 121.12891 113.12109 C 120.40515 113.12109 119.82227 113.71357 119.82227 114.44922 C 119.82227 115.18476 120.40515 115.77734 121.12891 115.77734 L 130.88477 115.77734 C 131.6085 115.77734 132.19141 115.18476 132.19141 114.44922 C 132.19141 113.71357 131.6085 113.12109 130.88477 113.12109 L 121.12891 113.12109 z M 33.75 123.07422 L 33.75 125.73047 L 218.26562 125.73047 L 218.26562 123.07422 L 33.75 123.07422 z M 120.88477 133.0293 C 120.16101 133.0293 119.57812 133.62177 119.57812 134.35742 C 119.57812 135.09296 120.16101 135.68555 120.88477 135.68555 L 130.64062 135.68555 C 131.36435 135.68555 131.94727 135.09296 131.94727 134.35742 C 131.94727 133.62177 131.36435 133.0293 130.64062 133.0293 L 120.88477 133.0293 z M 100.10156 139.92188 C 99.547656 139.92188 99.070417 140.00231 98.671875 140.16211 C 98.273333 140.32191 97.949152 140.56125 97.699219 140.88086 C 97.449285 141.20373 97.267178 141.59809 97.152344 142.06445 C 97.03751 142.53082 96.980469 143.0802 96.980469 143.71289 C 96.980469 144.32602 97.036981 144.87151 97.148438 145.34766 C 97.259894 145.82055 97.43952 146.2175 97.689453 146.53711 C 97.936009 146.85672 98.259661 147.0967 98.658203 147.25977 C 99.056745 147.42283 99.537524 147.50391 100.10156 147.50391 C 100.67573 147.50391 101.15899 147.42543 101.55078 147.26562 C 101.94257 147.10256 102.26179 146.86322 102.51172 146.54688 C 102.7549 146.23705 102.93399 145.84009 103.04883 145.35742 C 103.16366 144.87149 103.22266 144.32211 103.22266 143.70898 C 103.22266 143.09586 103.16614 142.55621 103.05469 142.08984 C 102.94323 141.62022 102.76413 141.22586 102.51758 140.90625 C 102.26764 140.58012 101.94647 140.33494 101.55469 140.17188 C 101.1629 140.00555 100.67911 139.92188 100.10156 139.92188 z M 158.98242 139.92188 C 158.42852 139.92188 157.95323 140.00231 157.55469 140.16211 C 157.15615 140.32191 156.83196 140.56125 156.58203 140.88086 C 156.3321 141.20373 156.14999 141.59809 156.03516 142.06445 C 155.92032 142.53082 155.86133 143.0802 155.86133 143.71289 C 155.86133 144.32602 155.91784 144.87151 156.0293 145.34766 C 156.14075 145.82055 156.32038 146.2175 156.57031 146.53711 C 156.81687 146.85672 157.14052 147.0967 157.53906 147.25977 C 157.9376 147.42283 158.41838 147.50391 158.98242 147.50391 C 159.55659 147.50391 160.03985 147.42543 160.43164 147.26562 C 160.82343 147.10256 161.1446 146.86322 161.39453 146.54688 C 161.63771 146.23705 161.81681 145.84009 161.93164 145.35742 C 162.04647 144.87149 162.10352 144.32211 162.10352 143.70898 C 162.10352 143.09586 162.047 142.55621 161.93555 142.08984 C 161.82409 141.62022 161.64499 141.22586 161.39844 140.90625 C 161.1485 140.58012 160.82929 140.33494 160.4375 140.17188 C 160.04571 140.00555 159.55997 139.92188 158.98242 139.92188 z M 92.1875 140.04883 C 92.17399 140.24451 92.122971 140.40861 92.035156 140.53906 C 91.947342 140.66951 91.816254 140.77589 91.640625 140.85742 C 91.492016 140.92591 91.306898 140.97455 91.083984 141.00391 C 90.861071 141.03 90.627944 141.04297 90.384766 141.04297 L 90.384766 142.23047 L 91.974609 142.23047 L 91.974609 146.08203 L 90.384766 146.08203 L 90.384766 147.35352 L 95.419922 147.35352 L 95.419922 146.08203 L 93.865234 146.08203 L 93.865234 140.04883 L 92.1875 140.04883 z M 151.06836 140.04883 C 151.05485 140.24451 151.00578 140.40861 150.91797 140.53906 C 150.83015 140.66951 150.69711 140.77589 150.52148 140.85742 C 150.37288 140.92591 150.18776 140.97455 149.96484 141.00391 C 149.74193 141.03 149.5088 141.04297 149.26562 141.04297 L 149.26562 142.23047 L 150.85742 142.23047 L 150.85742 146.08203 L 149.26562 146.08203 L 149.26562 147.35352 L 154.30078 147.35352 L 154.30078 146.08203 L 152.74609 146.08203 L 152.74609 140.04883 L 151.06836 140.04883 z M 100.10156 141.26758 C 100.51699 141.26758 100.81318 141.45503 100.99219 141.83008 C 101.17119 142.20187 101.26172 142.82843 101.26172 143.70898 C 101.26172 144.57975 101.17067 145.20632 100.98828 145.58789 C 100.8059 145.96946 100.51024 146.16016 100.10156 146.16016 C 99.692888 146.16016 99.397228 145.96946 99.214844 145.58789 C 99.03246 145.20632 98.941406 144.583 98.941406 143.71875 C 98.941406 142.83168 99.029978 142.20187 99.208984 141.83008 C 99.387991 141.45503 99.686133 141.26758 100.10156 141.26758 z M 158.98242 141.26758 C 159.39785 141.26758 159.69599 141.45503 159.875 141.83008 C 160.05401 142.20187 160.14258 142.82843 160.14258 143.70898 C 160.14258 144.57975 160.05152 145.20632 159.86914 145.58789 C 159.68676 145.96946 159.3911 146.16016 158.98242 146.16016 C 158.57375 146.16016 158.27809 145.96946 158.0957 145.58789 C 157.91332 145.20632 157.82227 144.583 157.82227 143.71875 C 157.82227 142.83168 157.91279 142.20187 158.0918 141.83008 C 158.2708 141.45503 158.56699 141.26758 158.98242 141.26758 z M 107.5293 142.98438 C 106.80555 142.98438 106.22266 143.57684 106.22266 144.3125 C 106.22266 145.04804 106.80555 145.64063 107.5293 145.64062 L 143.99609 145.64062 C 144.71982 145.64062 145.30273 145.04804 145.30273 144.3125 C 145.30273 143.57684 144.71982 142.98438 143.99609 142.98438 L 107.5293 142.98438 z M 120.88477 152.9375 C 120.16101 152.9375 119.57812 153.52997 119.57812 154.26562 C 119.57812 155.00116 120.16101 155.59375 120.88477 155.59375 L 130.64062 155.59375 C 131.36435 155.59375 131.94727 155.00116 131.94727 154.26562 C 131.94727 153.52997 131.36435 152.9375 130.64062 152.9375 L 120.88477 152.9375 z M 100.10156 160.21094 C 99.547656 160.21094 99.070417 160.28941 98.671875 160.44922 C 98.273333 160.60902 97.949152 160.85031 97.699219 161.16992 C 97.449285 161.49279 97.267178 161.88715 97.152344 162.35352 C 97.03751 162.81988 96.980469 163.36926 96.980469 164.00195 C 96.980469 164.61508 97.036981 165.15862 97.148438 165.63477 C 97.259894 166.10765 97.43952 166.50461 97.689453 166.82422 C 97.936009 167.14383 98.259661 167.38576 98.658203 167.54883 C 99.056745 167.71189 99.537524 167.79297 100.10156 167.79297 C 100.67573 167.79297 101.15899 167.71254 101.55078 167.55273 C 101.94257 167.38967 102.26179 167.15033 102.51172 166.83398 C 102.7549 166.52416 102.93399 166.1272 103.04883 165.64453 C 103.16366 165.1586 103.22266 164.60922 103.22266 163.99609 C 103.22266 163.38297 103.16614 162.84332 103.05469 162.37695 C 102.94323 161.90733 102.76413 161.51297 102.51758 161.19336 C 102.26764 160.86723 101.94647 160.62205 101.55469 160.45898 C 101.1629 160.29266 100.67911 160.21094 100.10156 160.21094 z M 158.98242 160.21094 C 158.42852 160.21094 157.95323 160.28941 157.55469 160.44922 C 157.15615 160.60902 156.83196 160.85031 156.58203 161.16992 C 156.3321 161.49279 156.14999 161.88715 156.03516 162.35352 C 155.92032 162.81988 155.86133 163.36926 155.86133 164.00195 C 155.86133 164.61508 155.91784 165.15862 156.0293 165.63477 C 156.14075 166.10765 156.32038 166.50461 156.57031 166.82422 C 156.81687 167.14383 157.14052 167.38576 157.53906 167.54883 C 157.9376 167.71189 158.41838 167.79297 158.98242 167.79297 C 159.55659 167.79297 160.03985 167.71254 160.43164 167.55273 C 160.82343 167.38967 161.1446 167.15033 161.39453 166.83398 C 161.63771 166.52416 161.81681 166.1272 161.93164 165.64453 C 162.04647 165.1586 162.10352 164.60922 162.10352 163.99609 C 162.10352 163.38297 162.047 162.84332 161.93555 162.37695 C 161.82409 161.90733 161.64499 161.51297 161.39844 161.19336 C 161.1485 160.86723 160.82929 160.62205 160.4375 160.45898 C 160.04571 160.29266 159.55997 160.21094 158.98242 160.21094 z M 92.638672 160.21484 C 92.169202 160.21484 91.699938 160.26609 91.230469 160.36719 C 90.764377 160.46829 90.411676 160.56882 90.171875 160.66992 L 90.171875 162.28906 L 90.333984 162.28906 C 90.627825 162.09665 90.944031 161.93838 91.285156 161.81445 C 91.629659 161.69052 91.958803 161.62891 92.269531 161.62891 C 92.684961 161.62891 93.001167 161.71971 93.220703 161.90234 C 93.443617 162.08172 93.554688 162.33922 93.554688 162.67188 C 93.554687 162.94909 93.469126 163.22799 93.296875 163.51172 C 93.124624 163.79545 92.834456 164.12819 92.425781 164.50977 C 92.152206 164.76741 91.787991 165.07421 91.332031 165.42969 C 90.879449 165.78517 90.427191 166.12115 89.974609 166.4375 L 89.974609 167.64062 L 95.896484 167.64062 L 95.896484 166.24609 L 92.507812 166.24609 C 92.639534 166.15478 92.859194 165.99587 93.169922 165.76758 C 93.48065 165.53603 93.790306 165.28372 94.097656 165.00977 C 94.587391 164.56949 94.951077 164.1427 95.1875 163.72852 C 95.427301 163.31433 95.546875 162.87586 95.546875 162.41602 C 95.546875 161.71484 95.299224 161.17454 94.802734 160.79297 C 94.306245 160.40813 93.584366 160.21484 92.638672 160.21484 z M 151.51953 160.21484 C 151.05006 160.21484 150.5808 160.26609 150.11133 160.36719 C 149.64524 160.46829 149.29254 160.56882 149.05273 160.66992 L 149.05273 162.28906 L 149.21484 162.28906 C 149.50868 162.09665 149.82684 161.93838 150.16797 161.81445 C 150.51247 161.69052 150.83966 161.62891 151.15039 161.62891 C 151.56582 161.62891 151.88398 161.71971 152.10352 161.90234 C 152.32643 162.08172 152.4375 162.33922 152.4375 162.67188 C 152.4375 162.94909 152.35194 163.22799 152.17969 163.51172 C 152.00744 163.79545 151.71532 164.12819 151.30664 164.50977 C 151.03306 164.76741 150.66885 165.07421 150.21289 165.42969 C 149.76031 165.78517 149.30805 166.12115 148.85547 166.4375 L 148.85547 167.64062 L 154.77734 167.64062 L 154.77734 166.24609 L 151.38867 166.24609 C 151.52039 166.15478 151.74201 165.99587 152.05273 165.76758 C 152.36346 165.53603 152.67117 165.28372 152.97852 165.00977 C 153.46825 164.56949 153.83194 164.1427 154.06836 163.72852 C 154.30816 163.31433 154.42773 162.87586 154.42773 162.41602 C 154.42773 161.71484 154.18008 161.17454 153.68359 160.79297 C 153.1871 160.40813 152.46522 160.21484 151.51953 160.21484 z M 100.10156 161.55469 C 100.51699 161.55469 100.81318 161.74214 100.99219 162.11719 C 101.17119 162.48898 101.26172 163.11554 101.26172 163.99609 C 101.26172 164.86686 101.17067 165.49343 100.98828 165.875 C 100.8059 166.25657 100.51024 166.44727 100.10156 166.44727 C 99.692888 166.44727 99.397228 166.25657 99.214844 165.875 C 99.03246 165.49343 98.941406 164.8701 98.941406 164.00586 C 98.941406 163.11878 99.029978 162.48898 99.208984 162.11719 C 99.387991 161.74214 99.686133 161.55469 100.10156 161.55469 z M 158.98242 161.55469 C 159.39785 161.55469 159.69599 161.74214 159.875 162.11719 C 160.05401 162.48898 160.14258 163.11554 160.14258 163.99609 C 160.14258 164.86686 160.05152 165.49343 159.86914 165.875 C 159.68676 166.25657 159.3911 166.44727 158.98242 166.44727 C 158.57375 166.44727 158.27809 166.25657 158.0957 165.875 C 157.91332 165.49343 157.82227 164.8701 157.82227 164.00586 C 157.82227 163.11878 157.91279 162.48898 158.0918 162.11719 C 158.2708 161.74214 158.56699 161.55469 158.98242 161.55469 z M 107.5293 162.89258 C 106.80555 162.89258 106.22266 163.48515 106.22266 164.2207 C 106.22266 164.95634 106.80555 165.54883 107.5293 165.54883 L 143.99609 165.54883 C 144.71982 165.54883 145.30273 164.95634 145.30273 164.2207 C 145.30273 163.48515 144.71982 162.89258 143.99609 162.89258 L 107.5293 162.89258 z M 120.88477 172.84766 C 120.16101 172.84766 119.57812 173.44012 119.57812 174.17578 C 119.57812 174.91132 120.16101 175.50391 120.88477 175.50391 L 130.64062 175.50391 C 131.36435 175.50391 131.94727 174.91132 131.94727 174.17578 C 131.94727 173.44012 131.36435 172.84766 130.64062 172.84766 L 120.88477 172.84766 z "
             transform="matrix(0.96379863,0,0,0.99813116,-257.06327,42.284357)"
             id="text4628" />
        </g>
      </g>
      <path
         transform="matrix(0.9994574,0,0,1.001763,124.30948,-929.77947)"
         style="opacity:0.62000002;fill:#201a17;fill-opacity:1;stroke:none;stroke-width:5.31496048;stroke-miterlimit:4;stroke-dasharray:none;stroke-opacity:1;filter:url(#filter4604)"
         d="m 7.05501,946.72715 c -62.13203,0 -112.5,51.71111 -112.5,115.50005 0.0275,14.7955 2.82362,29.4478 8.23633,43.1601 l 20.48633,-6.2226 c -4.91405,-11.663 -7.46643,-24.2302 -7.50196,-36.9375 -3e-4,-51.7569 40.86679,-93.71441 91.2793,-93.71489 44.4576,0.002 82.44788,32.88669 89.96289,77.87309 C 94.93624,994.68232 35.24475,947.46413 7.05501,946.72715 Z"
         id="path4441"
         inkscape:connector-curvature="0"
         sodipodi:nodetypes="cccccccc" />
      <g
         inkscape:label="#g4184"
         id="roll">
        <path
           style="opacity:1;fill:#6c4823;fill-opacity:1;stroke:#322312;stroke-width:1.00000006;stroke-miterlimit:4;stroke-dasharray:none;stroke-opacity:1"
           d="m 11.09618,123.32055 a 114.94929,115.15782 0 0 0 -0.0181,0.5229 114.94929,115.15782 0 0 0 114.94833,115.15651 114.94929,115.15782 0 0 0 114.95034,-115.15651 114.94929,115.15782 0 0 0 -0.026,-0.5229 l -21.74309,0 a 93.199811,93.368894 0 0 1 0.018,0.5229 93.199811,93.368894 0 0 1 -93.19924,93.36891 93.199811,93.368894 0 0 1 -93.199239,-93.36891 93.199811,93.368894 0 0 1 0.02603,-0.5229 l -21.757101,0 z"
           id="path4427"
           inkscape:connector-curvature="0" />
        <path
           style="opacity:1;fill:#525369;fill-opacity:1;stroke:#2a2a34;stroke-width:1.00000006;stroke-miterlimit:4;stroke-dasharray:none;stroke-opacity:1"
           d="M 126.02649,8.6850002 A 114.94929,115.15782 0 0 0 11.09618,123.32055 l 21.757098,0 a 93.199811,93.368894 0 0 1 93.173212,-92.84602 93.199811,93.368894 0 0 1 93.18122,92.84602 l 21.74309,0 A 114.94929,115.15782 0 0 0 126.02649,8.6850002 Z"
           id="path4421"
           inkscape:connector-curvature="0" />
        <path
           style="color:#000000;font-style:normal;font-variant:normal;font-weight:normal;font-stretch:normal;font-size:medium;line-height:normal;font-family:sans-serif;text-indent:0;text-align:start;text-decoration:none;text-decoration-line:none;text-decoration-style:solid;text-decoration-color:#000000;letter-spacing:normal;word-spacing:normal;text-transform:none;direction:ltr;block-progression:tb;writing-mode:lr-tb;baseline-shift:baseline;text-anchor:start;white-space:normal;clip-rule:nonzero;display:inline;overflow:visible;visibility:visible;opacity:1;isolation:auto;mix-blend-mode:normal;color-interpolation:sRGB;color-interpolation-filters:linearRGB;solid-color:#000000;solid-opacity:1;fill:#b1937e;fill-opacity:1;fill-rule:evenodd;stroke:none;stroke-width:3;stroke-linecap:butt;stroke-linejoin:miter;stroke-miterlimit:4;stroke-dasharray:none;stroke-dashoffset:0;stroke-opacity:0.35503001;color-rendering:auto;image-rendering:auto;shape-rendering:auto;text-rendering:auto;enable-background:accumulate"
           d="m 164.49384,15.874362 -3.81953,11.234448 c 0.30518,0.0984 0.6091,0.19721 0.91338,0.29847 l 3.92077,-11.200368 c -0.3378,-0.11241 -0.67578,-0.22332 -1.01462,-0.33255 z m -18.10171,-5.034545 c -0.34723,-0.0764 -0.69491,-0.14961 -1.04279,-0.22271 l -1.939,11.682843 c 0.31336,0.066 0.62709,0.1349 0.93982,0.20365 z m 34.91522,12.483833 -11.02037,20.81307 c 0.75836,0.42432 1.50936,0.85939 2.25552,1.30515 l 11.58333,-20.48539 c -0.93229,-0.55731 -1.87171,-1.10271 -2.81848,-1.63283 z M 127.63351,8.8046902 c -1.07797,-0.0176 -2.15681,-0.0209 -3.23516,-0.008 l 0.27694,23.6945898 c 0.8629,-0.0109 1.72549,-0.009 2.58875,0.006 z m -21.07996,1.9586318 c -0.34833,0.073 -0.69565,0.14873 -1.04326,0.22506 l 2.11846,11.808659 c 0.31274,-0.0688 0.62439,-0.13475 0.93774,-0.20042 z m -19.589012,5.070074 c -0.338863,0.10923 -0.678904,0.21959 -1.016761,0.33203 l 3.966421,11.065367 c 0.304265,-0.10132 0.610559,-0.20114 0.915715,-0.29952 z M 223.96488,64.7474 204.39393,77.27285 c 0.43769,0.7228 0.86733,1.4516 1.28555,2.1862 0.0173,0.03 0.0346,0.062 0.052,0.092 l 19.90734,-11.95322 c -0.0216,-0.0381 -0.0456,-0.0774 -0.0673,-0.11574 -0.52373,-0.9194 -1.05911,-1.8304 -1.60656,-2.73453 z M 70.668247,23.27697 c -0.883199,0.49531 -1.759735,1.00084 -2.630369,1.51999 -0.06303,0.0377 -0.125507,0.0752 -0.188553,0.11296 l 11.606197,20.47867 c 0.05042,-0.0302 0.09797,-0.0606 0.148299,-0.0905 0.695402,-0.41488 1.397968,-0.82085 2.10412,-1.21691 z m 170.566553,99.15578 -23.03076,0.61529 c 0.0329,0.885 0.0917,1.7694 0.10005,2.6556 l 23.01086,0.059 c -0.0109,-1.1099 -0.0388,-2.2205 -0.0803,-3.3299 z M 28.019107,64.75127 c -0.567209,0.94474 -1.123863,1.89868 -1.664622,2.85918 l 19.951567,11.867 c 0.431596,-0.7673 0.874292,-1.5276 1.326671,-2.2813 z m 5.877692,58.02806 -22.836989,-0.24338 c -0.035,1.1074 -0.055,2.2135 -0.0598,3.3208 l 23.035494,-0.0863 c 0.282251,-1.25926 0.180485,-2.30278 -0.138705,-2.99116 z"
           id="path4370"
           inkscape:connector-curvature="0"
           sodipodi:nodetypes="cccccccccccccccccccccccccccccccccccccccccccccccccccccccccccccc" />
      </g>
      <path
         transform="matrix(0.9994574,0,0,1.001763,126.31103,-927.53137)"
         style="opacity:0.60500004;fill:#1f1915;fill-opacity:1;stroke:none;stroke-width:2;stroke-miterlimit:4;stroke-dasharray:none;stroke-opacity:1;filter:url(#filter5193)"
         d="m 14.13704,984.38951 c 0,0.73897 -0.5949,1.33387 -1.33387,1.33387 l -13.59571,0 c -0.73897,0 -1.68587,-0.68412 -1.33387,-1.33387 l 8.13172,-15.00993 z"
         id="path5127"
         inkscape:connector-curvature="0"
         sodipodi:nodetypes="sssscs" />
      <path
         sodipodi:nodetypes="sssscs"
         inkscape:connector-curvature="0"
         id="rect5124"
         d="m 134.44367,52.583046 c 0,0.74027 -0.59458,1.33622 -1.33315,1.33622 l -13.58833,0 c -0.73857,0 -1.68496,-0.68532 -1.33315,-1.33622 l 8.12731,-15.03639 z"
         style="opacity:1;fill:#1f1915;fill-opacity:1;stroke:#9f836e;stroke-width:2.00121903;stroke-miterlimit:4;stroke-dasharray:none;stroke-opacity:1" />
      <path
         inkscape:connector-curvature="0"
         id="path4186"
         d="m 113.82166,123.28656 c -10.31339,-0.0171 -20.838555,-0.0287 -32.249394,-0.021 -1.690394,-0.0225 -1.688356,2.52523 0.002,2.5 11.480417,-0.006 22.014074,0.005 32.245684,0.022 1.94094,-0.55647 3.76861,-1.12911 0.002,-2.50101 z m 23.2427,2.54239 c 10.49868,0.0174 21.20209,0.0297 32.82436,0.0225 1.69041,0.0239 1.69041,-2.52392 0,-2.5 -11.7328,0.007 -22.47926,-0.006 -32.92771,-0.0231 -2.49709,0.96011 -2.42845,1.81799 0.10335,2.5006 z"
         style="color:#000000;font-style:normal;font-variant:normal;font-weight:normal;font-stretch:normal;font-size:medium;line-height:normal;font-family:sans-serif;text-indent:0;text-align:start;text-decoration:none;text-decoration-line:none;text-decoration-style:solid;text-decoration-color:#000000;letter-spacing:normal;word-spacing:normal;text-transform:none;direction:ltr;block-progression:tb;writing-mode:lr-tb;baseline-shift:baseline;text-anchor:start;white-space:normal;clip-rule:nonzero;display:inline;overflow:visible;visibility:visible;opacity:1;isolation:auto;mix-blend-mode:normal;color-interpolation:sRGB;color-interpolation-filters:linearRGB;solid-color:#000000;solid-opacity:1;fill:#c45614;fill-opacity:1;fill-rule:evenodd;stroke:#64280a;stroke-width:1.00000012;stroke-linecap:round;stroke-linejoin:miter;stroke-miterlimit:4;stroke-dasharray:none;stroke-dashoffset:0;stroke-opacity:1;color-rendering:auto;image-rendering:auto;shape-rendering:auto;text-rendering:auto;enable-background:accumulate"
         sodipodi:nodetypes="ccccccccccc" />
      <ellipse
         ry="116.01122"
         rx="116.21123"
         style="fill:none;fill-opacity:1;stroke:#000000;stroke-width:1.97756302;stroke-miterlimit:4;stroke-dasharray:none;stroke-opacity:1"
         id="center"
         cx="126.07101"
         cy="124.12901"
         inkscape:label="#path5642" />
      <g
         id="climbAngle"
         inkscape:label="#g4254">
        <path
           transform="matrix(1.1010271,0,0,1.2420915,-12.702155,-30.18342)"
           style="color:#000000;font-style:normal;font-variant:normal;font-weight:normal;font-stretch:normal;font-size:medium;line-height:normal;font-family:sans-serif;text-indent:0;text-align:start;text-decoration:none;text-decoration-line:none;text-decoration-style:solid;text-decoration-color:#000000;letter-spacing:normal;word-spacing:normal;text-transform:none;direction:ltr;block-progression:tb;writing-mode:lr-tb;baseline-shift:baseline;text-anchor:start;white-space:normal;clip-rule:nonzero;display:inline;overflow:visible;visibility:visible;opacity:0.671;isolation:auto;mix-blend-mode:normal;color-interpolation:sRGB;color-interpolation-filters:linearRGB;solid-color:#000000;solid-opacity:1;fill:#1f1915;fill-opacity:1;fill-rule:nonzero;stroke:none;stroke-width:2.00000024;stroke-linecap:round;stroke-linejoin:round;stroke-miterlimit:4;stroke-dasharray:none;stroke-dashoffset:0;stroke-opacity:1;filter:url(#filter4250);color-rendering:auto;image-rendering:auto;shape-rendering:auto;text-rendering:auto;enable-background:accumulate"
           d="m 125.61655,120.65782 c -3.53107,0.36429 -5.95425,1.70666 -8.55157,3.26166 -1.36771,0.75779 -1.21039,0.74853 0,1.51492 2.44581,1.3321 5.51564,3.21619 8.55157,3.26325 3.53212,-0.36443 5.95588,-1.70748 8.55374,-3.26325 l 1.19288,-0.75667 -1.19288,-0.75825 c -2.4489,-1.32982 -5.5177,-3.2146 -8.55374,-3.26166 z"
           id="path4188"
           inkscape:connector-curvature="0"
           sodipodi:nodetypes="cccccccc"
           inkscape:label="#rect4187" />
        <path
           inkscape:label="#rect4187"
           sodipodi:nodetypes="cccccccc"
           inkscape:connector-curvature="0"
           id="rect4187"
           d="m 125.63623,122.11706 c -2.91975,0.23205 -4.92342,1.08714 -7.07108,2.07767 -1.13092,0.48271 -1.00084,0.47681 0,0.965 2.02238,0.84854 4.56075,2.0487 7.07108,2.07868 2.92062,-0.23214 4.92477,-1.08766 7.07287,-2.07868 l 0.98637,-0.482 -0.98637,-0.483 c -2.02493,-0.84709 -4.56244,-2.04769 -7.07287,-2.07767 z"
           style="color:#000000;font-style:normal;font-variant:normal;font-weight:normal;font-stretch:normal;font-size:medium;line-height:normal;font-family:sans-serif;text-indent:0;text-align:start;text-decoration:none;text-decoration-line:none;text-decoration-style:solid;text-decoration-color:#000000;letter-spacing:normal;word-spacing:normal;text-transform:none;direction:ltr;block-progression:tb;writing-mode:lr-tb;baseline-shift:baseline;text-anchor:start;white-space:normal;clip-rule:nonzero;display:inline;overflow:visible;visibility:visible;opacity:1;isolation:auto;mix-blend-mode:normal;color-interpolation:sRGB;color-interpolation-filters:linearRGB;solid-color:#000000;solid-opacity:1;fill:#1f1915;fill-opacity:1;fill-rule:nonzero;stroke:#c45614;stroke-width:2.00000012;stroke-linecap:round;stroke-linejoin:round;stroke-miterlimit:4;stroke-dasharray:none;stroke-dashoffset:0;stroke-opacity:1;color-rendering:auto;image-rendering:auto;shape-rendering:auto;text-rendering:auto;enable-background:accumulate" />
      </g>
    </g>
  </g>
</svg>
