<?xml version="1.0" encoding="UTF-8" standalone="no"?>
<!-- Created with Inkscape (http://www.inkscape.org/) -->

<svg
   xmlns:dc="http://purl.org/dc/elements/1.1/"
   xmlns:cc="http://creativecommons.org/ns#"
   xmlns:rdf="http://www.w3.org/1999/02/22-rdf-syntax-ns#"
   xmlns:svg="http://www.w3.org/2000/svg"
   xmlns="http://www.w3.org/2000/svg"
   xmlns:sodipodi="http://sodipodi.sourceforge.net/DTD/sodipodi-0.dtd"
   xmlns:inkscape="http://www.inkscape.org/namespaces/inkscape"
   width="250"
   height="250"
   viewBox="0 0 250 250"
   id="gaugeYawHeadingWind"
   version="1.1"
   inkscape:version="0.91 r13725"
   sodipodi:docname="gaugeYawHeadingWind.svg">
  <defs
     id="defs4">
    <inkscape:path-effect
       effect="bend_path"
       id="path-effect4681"
       is_visible="true"
       bendpath="M -34.742478,125.34465 A 101.69512,101.69512 0 0 1 -135.27736,228.18691 101.69512,101.69512 0 0 1 -238.11961,127.65202 101.69512,101.69512 0 0 1 -137.58474,24.809773 101.69512,101.69512 0 0 1 -34.742478,125.34465 Z"
       prop_scale="1"
       scale_y_rel="false"
       vertical="false" />
    <inkscape:path-effect
       effect="bend_path"
       id="path-effect4426"
       is_visible="true"
       bendpath="m -152.05469,273.82241 224.494413,0"
       prop_scale="1"
       scale_y_rel="false"
       vertical="false" />
    <inkscape:path-effect
       effect="ruler"
       id="path-effect4172"
       is_visible="true"
       unit="px"
       mark_distance="10"
       mark_length="20"
       minor_mark_length="10"
       major_mark_steps="3"
       shift="0"
       offset="0"
       mark_dir="left"
       border_marks="both" />
    <inkscape:path-effect
       effect="bend_path"
       id="path-effect4375"
       is_visible="true"
       bendpath="M 90.275137,271.70687 C 68.572574,249.25108 55.228309,218.72518 55.228307,185.09514 55.228301,116.11085 111.377,60.188038 180.63992,60.188038 c 69.26292,1e-5 125.4116,55.922812 125.4116,124.907102 l 0,0 c 0,33.59507 -13.31652,64.09241 -34.97912,86.54161"
       prop_scale="1"
       scale_y_rel="false"
       vertical="false" />
    <inkscape:path-effect
       effect="ruler"
       id="path-effect3338"
       is_visible="true"
       unit="px"
       mark_distance="11"
       mark_length="26"
       minor_mark_length="13"
       major_mark_steps="5"
       shift="0"
       offset="0"
       mark_dir="right"
       border_marks="none" />
    <inkscape:path-effect
       effect="ruler"
       id="path-effect3338-7"
       is_visible="true"
       unit="px"
       mark_distance="11"
       mark_length="26"
       minor_mark_length="0"
       major_mark_steps="5"
       shift="0"
       offset="0"
       mark_dir="right"
       border_marks="none" />
    <filter
       style="color-interpolation-filters:sRGB"
       inkscape:label="Drop Shadow"
       id="filter4519">
      <feFlood
         flood-opacity="0.419608"
         flood-color="rgb(0,0,0)"
         result="flood"
         id="feFlood4521" />
      <feComposite
         in="flood"
         in2="SourceGraphic"
         operator="in"
         result="composite1"
         id="feComposite4523" />
      <feGaussianBlur
         in="composite1"
         stdDeviation="2"
         result="blur"
         id="feGaussianBlur4525" />
      <feOffset
         dx="2"
         dy="2"
         result="offset"
         id="feOffset4527" />
      <feComposite
         in="SourceGraphic"
         in2="offset"
         operator="over"
         result="composite2"
         id="feComposite4529" />
    </filter>
    <filter
       inkscape:collect="always"
       style="color-interpolation-filters:sRGB"
       id="filter4846"
       x="-0.012174084"
       width="1.0243482"
       y="-0.011830825"
       height="1.0236616">
      <feGaussianBlur
         inkscape:collect="always"
         stdDeviation="0.60806253"
         id="feGaussianBlur4848" />
    </filter>
    <filter
       inkscape:collect="always"
       style="color-interpolation-filters:sRGB"
       id="filter4662"
       x="-0.17221523"
       width="1.3444305"
       y="-0.07706582"
       height="1.1541316">
      <feGaussianBlur
         inkscape:collect="always"
         stdDeviation="2.2819903"
         id="feGaussianBlur4664" />
    </filter>
  </defs>
  <sodipodi:namedview
     id="base"
     pagecolor="#63564d"
     bordercolor="#666666"
     borderopacity="1.0"
     inkscape:pageopacity="1"
     inkscape:pageshadow="2"
     inkscape:zoom="3.392"
     inkscape:cx="112.66734"
     inkscape:cy="156.1734"
     inkscape:document-units="px"
     inkscape:current-layer="g4884"
     showgrid="false"
     inkscape:window-width="1920"
     inkscape:window-height="1017"
     inkscape:window-x="-8"
     inkscape:window-y="-8"
     inkscape:window-maximized="1"
     units="px" />
  <metadata
     id="metadata7">
    <rdf:RDF>
      <cc:Work
         rdf:about="">
        <dc:format>image/svg+xml</dc:format>
        <dc:type
           rdf:resource="http://purl.org/dc/dcmitype/StillImage" />
        <dc:title />
      </cc:Work>
    </rdf:RDF>
  </metadata>
  <g
     inkscape:label="Layer 1"
     inkscape:groupmode="layer"
     id="layer1">
    <circle
       style="fill:#110e0c;fill-opacity:1;stroke:#000000;stroke-width:7.98756123;stroke-miterlimit:4;stroke-dasharray:none;stroke-opacity:0.24852074"
       id="center"
       cy="125"
       cx="125"
       r="111.00622"
       inkscape:label="#path4382" />
    <g
       id="g4884">
      <path
         style="opacity:1;fill:none;fill-opacity:1;stroke:#69570f;stroke-width:5;stroke-linecap:round;stroke-miterlimit:4;stroke-dasharray:none;stroke-dashoffset:0;stroke-opacity:1"
         d="M 67.137302,77.340092 C 56.071497,90.759054 50.013619,107.60689 50.000507,125 50.000916,166.42091 83.579095,199.99909 125,199.99949 166.4209,199.99909 199.99908,166.42091 199.99949,125 199.99908,83.579099 166.4209,50.000921 125,50.000512 c -13.17457,0.03278 -26.108059,3.535362 -37.498754,10.15521"
         id="circle4220"
         inkscape:connector-curvature="0"
         sodipodi:nodetypes="cccccc" />
      <path
         style="opacity:1;fill:none;fill-opacity:1;stroke:#69340f;stroke-width:5;stroke-linecap:round;stroke-miterlimit:4;stroke-dasharray:none;stroke-dashoffset:0;stroke-opacity:1"
         d="M 83.841176,96.624845 C 78.086319,104.9685 75.003191,114.86417 75.000513,125 75.000492,152.61396 97.386034,174.99951 125,174.99949 152.61396,174.99951 174.9995,152.61396 174.99948,125 174.9995,97.386042 152.61396,75.000499 125,75.000521 c -7.03774,0.02147 -13.99167,1.528443 -20.40693,4.422336"
         id="path4218"
         inkscape:connector-curvature="0"
         sodipodi:nodetypes="ccsscc" />
      <circle
         r="24.999472"
         cy="125"
         cx="125"
         id="circle4222"
         style="opacity:1;fill:none;fill-opacity:1;stroke:#69120f;stroke-width:5;stroke-linecap:round;stroke-miterlimit:4;stroke-dasharray:none;stroke-dashoffset:0;stroke-opacity:1" />
      <path
         id="windKmph"
         style="font-style:normal;font-variant:normal;font-weight:bold;font-stretch:normal;font-size:12.5px;line-height:125%;font-family:Tahoma;-inkscape-font-specification:'Tahoma Bold';text-align:center;letter-spacing:0px;word-spacing:0px;text-anchor:middle;fill:#594436;fill-opacity:1;stroke:none;stroke-width:1px;stroke-linecap:butt;stroke-linejoin:miter;stroke-opacity:1"
         d="m 98.881693,82.605846 q 0.778024,0.884483 1.220487,1.67396 0.44245,0.789477 0.52186,1.508127 0.0794,0.718656 -0.21858,1.387204 -0.302,0.663958 -1.026084,1.300893 -0.7195,0.632899 -1.416554,0.847742 -0.701086,0.210259 -1.416396,0.03472 -0.706692,-0.174993 -1.425215,-0.705374 -0.722564,-0.534958 -1.496557,-1.414859 -0.79818,-0.907398 -1.22507,-1.669925 -0.422302,-0.766562 -0.504074,-1.515643 -0.07829,-0.735887 0.232317,-1.399291 0.306583,-0.667994 1.003168,-1.280736 0.737836,-0.649028 1.433792,-0.846647 0.696506,-0.20623 1.415839,-0.0261 0.706692,0.174993 1.424667,0.713986 0.722563,0.534957 1.4764,1.391945 z m -1.718558,1.511706 q -1.112615,-1.264857 -1.770888,-1.588116 -0.657724,-0.331869 -1.152668,0.103502 -0.490357,0.431336 -0.24967,1.130046 0.236649,0.694134 1.357327,1.968157 1.09649,1.246527 1.766864,1.583527 0.666336,0.332423 1.156692,-0.09891 0.490365,-0.431342 0.245646,-1.134635 -0.24875,-0.707876 -1.353303,-1.963568 z m -2.488033,5.423836 -0.921141,0.810269 1.414956,1.608569 -1.654398,1.455269 -1.414956,-1.608569 -3.001743,2.640444 -1.120678,-1.274023 -0.536218,-6.551625 1.70939,-1.503642 3.523281,4.005383 0.921142,-0.81027 1.080365,1.228195 z m -3.655904,1.037343 -2.043826,-2.323488 0.3161,3.843259 1.727726,-1.519771 z m 3.244814,-17.240456 -0.967889,0.851391 -1.347232,-1.531577 q -0.164473,-0.186979 -0.343047,-0.356678 -0.178214,-0.174892 -0.296835,-0.226622 -0.141393,-0.06096 -0.273595,-0.02271 -0.13461,0.03549 -0.291342,0.173355 -0.118236,0.104005 -0.200523,0.254419 -0.08229,0.150415 -0.135117,0.367596 l 1.925307,2.188753 -0.962392,0.846556 -3.763542,-4.278518 0.962393,-0.846556 1.347232,1.531578 q 0.05991,-0.408738 0.183461,-0.717392 0.126312,-0.311077 0.398525,-0.550525 0.472952,-0.416026 0.986814,-0.336413 0.511443,0.07686 1.009701,0.643299 l 1.768091,2.010024 z m -4.80247,1.410231 q 0.650637,0.739667 0.67302,1.524733 0.02513,0.782648 -0.524807,1.266392 -0.230976,0.203175 -0.447412,0.300892 -0.216436,0.09772 -0.505665,0.157042 l 1.131965,1.286855 -0.962386,0.846549 -3.712748,-4.220775 0.962386,-0.846549 0.282991,0.321714 q 0.0521,-0.367727 0.172896,-0.673957 0.120809,-0.306236 0.409525,-0.560201 0.536196,-0.471658 1.205312,-0.304256 0.669123,0.167395 1.314923,0.901562 z m -0.967459,0.88516 q -0.396671,-0.450949 -0.715893,-0.531069 -0.316466,-0.08254 -0.610686,0.176262 -0.129236,0.113681 -0.222185,0.268599 -0.09021,0.152508 -0.141385,0.343846 l 1.366582,1.553575 q 0.106019,-0.03472 0.208853,-0.100795 0.105581,-0.06849 0.232069,-0.179751 0.351961,-0.309597 0.321686,-0.687782 -0.03269,-0.380935 -0.439039,-0.842883 z m -2.341656,4.839857 -1.356906,-1.542576 q -0.200755,-0.228225 -0.346882,-0.377692 -0.146127,-0.149467 -0.274423,-0.212196 -0.128296,-0.06273 -0.255009,-0.0293 -0.126358,0.02823 -0.28309,0.166097 -0.109992,0.09675 -0.17369,0.240578 -0.06612,0.141076 -0.115206,0.340326 l 1.925308,2.188754 -0.96789,0.851391 -1.356906,-1.542576 q -0.198336,-0.225475 -0.347241,-0.372498 -0.148546,-0.152217 -0.276842,-0.214946 -0.128295,-0.06273 -0.255002,-0.02931 -0.126365,0.02824 -0.280349,0.163685 -0.118236,0.104005 -0.182603,0.258168 -0.06436,0.154155 -0.106288,0.322727 l 1.925308,2.188754 -0.962393,0.846556 -2.716232,-3.087902 0.962392,-0.846557 0.299923,0.340962 q 0.05991,-0.408737 0.169713,-0.705298 0.109809,-0.29656 0.371029,-0.526339 0.28322,-0.24913 0.61621,-0.303054 0.332991,-0.05392 0.680347,0.113627 0.05036,-0.50276 0.174144,-0.855513 0.124117,-0.35792 0.377093,-0.580447 0.214473,-0.188658 0.445419,-0.269878 0.230947,-0.08122 0.470121,-0.04774 0.259848,0.0348 0.504496,0.185397 0.244986,0.145422 0.535233,0.475385 l 1.76809,2.010023 -0.967889,0.851391 z m -3.998052,3.516833 -1.143873,1.006193 -2.018663,-0.609306 0.02809,0.331336 1.006191,1.143871 -0.962393,0.846556 -3.763542,-4.278518 0.962393,-0.846556 2.109131,2.39773 -0.148925,-2.010132 1.135622,-0.998934 0.09004,2.281411 2.705937,0.736349 z m 0.215465,-20.15573 q 0.778024,0.884483 1.220482,1.67396 0.442458,0.789477 0.521861,1.508127 0.0794,0.718656 -0.218576,1.387204 -0.301995,0.663958 -1.026084,1.300893 -0.719501,0.632899 -1.416555,0.847742 -0.701085,0.210259 -1.416395,0.03472 -0.706692,-0.174993 -1.425216,-0.705374 -0.722563,-0.534958 -1.496556,-1.414859 -0.798181,-0.907398 -1.22507,-1.669925 -0.422302,-0.766562 -0.504074,-1.515643 -0.07829,-0.735887 0.232316,-1.399291 0.306583,-0.667994 1.003168,-1.280736 0.737837,-0.649028 1.433793,-0.846647 0.696505,-0.20623 1.415839,-0.0261 0.706691,0.174993 1.424667,0.713986 0.722562,0.534957 1.4764,1.391945 z m -1.718558,1.511706 q -1.112615,-1.264857 -1.770888,-1.588116 -0.657724,-0.331869 -1.152669,0.103502 -0.490356,0.431336 -0.249669,1.130046 0.236649,0.694134 1.357327,1.968157 1.09649,1.246527 1.766864,1.583527 0.666335,0.332423 1.156692,-0.09891 0.490364,-0.431342 0.245646,-1.134635 -0.24875,-0.707876 -1.353303,-1.963568 z m -1.16711,7.082604 -5.013598,4.410145 -0.979584,-1.113625 q 0.193578,-1.06445 0.302624,-1.956995 0.113634,-0.896581 0.143848,-1.638493 0.03593,-0.966425 -0.09022,-1.562665 -0.126158,-0.596232 -0.497031,-1.017852 -0.419246,-0.476613 -0.925099,-0.478731 -0.509884,-0.0067 -1.018577,0.440763 -0.26122,0.229779 -0.438507,0.499531 -0.172699,0.265717 -0.322324,0.576167 -0.141006,0.310997 -0.209234,0.566104 -0.06823,0.255114 -0.102348,0.382667 l -0.1329,0.116904 -1.310145,-1.489416 q 0.16778,-0.391449 0.656909,-1.073699 0.485098,-0.686832 1.053363,-1.186699 1.214452,-1.068277 2.313393,-1.075744 1.103535,-0.01151 1.966215,0.969213 0.53212,0.604932 0.759949,1.436887 0.223796,0.827371 0.148394,2.072377 -0.05367,0.770676 -0.161026,1.434127 -0.111387,0.658868 -0.168626,0.944954 l 2.891751,-2.543691 1.132772,1.287772 z"
         inkscape:label="#path4772" />
      <path
         id="windKnots"
         style="font-style:normal;font-variant:normal;font-weight:bold;font-stretch:normal;font-size:12.5px;line-height:125%;font-family:Tahoma;-inkscape-font-specification:'Tahoma Bold';text-align:center;letter-spacing:0px;word-spacing:0px;text-anchor:middle;fill:#594436;fill-opacity:1;stroke:none;stroke-width:1px;stroke-linecap:butt;stroke-linejoin:miter;stroke-opacity:1"
         d="m 98.591253,82.024379 q 0.778024,0.884484 1.220489,1.673954 0.442458,0.789477 0.521858,1.508133 0.0794,0.718657 -0.21857,1.387197 -0.302005,0.663966 -1.026086,1.300894 -0.719509,0.632906 -1.416563,0.847748 -0.701085,0.21026 -1.416388,0.03471 -0.706691,-0.174994 -1.425223,-0.705368 -0.722563,-0.534957 -1.496556,-1.414858 -0.798181,-0.907398 -1.22507,-1.669925 -0.422302,-0.766563 -0.504074,-1.515644 -0.07829,-0.735886 0.232324,-1.399297 0.306575,-0.667987 1.003168,-1.280736 0.737829,-0.649021 1.433785,-0.84664 0.696505,-0.206231 1.415839,-0.0261 0.706691,0.174993 1.424674,0.713979 0.722555,0.534964 1.476393,1.391951 z m -1.71855,1.5117 q -1.112616,-1.264858 -1.770896,-1.588109 -0.657717,-0.331877 -1.152662,0.103494 -0.490364,0.431343 -0.249676,1.130053 0.236656,0.694128 1.357334,1.968151 1.09649,1.246526 1.766857,1.583533 0.666335,0.332424 1.1567,-0.09892 0.490356,-0.431336 0.245638,-1.134629 -0.248743,-0.707882 -1.353295,-1.963574 z m -1.16711,7.082604 -5.013606,4.410151 -0.979585,-1.113625 q 0.193579,-1.064449 0.302633,-1.957001 0.113633,-0.896581 0.143839,-1.638487 0.03594,-0.966431 -0.09022,-1.562664 -0.126159,-0.596233 -0.497031,-1.017852 -0.419246,-0.476614 -0.925099,-0.478732 -0.509884,-0.0067 -1.018577,0.440764 -0.26122,0.229779 -0.438507,0.499531 -0.172699,0.265717 -0.322317,0.57616 -0.141006,0.310997 -0.209241,0.566111 -0.06823,0.255113 -0.102348,0.382667 l -0.1329,0.116904 -1.310145,-1.489416 q 0.16778,-0.39145 0.656909,-1.073699 0.485098,-0.686833 1.05337,-1.186706 1.214445,-1.06827 2.313393,-1.075744 1.103528,-0.0115 1.966208,0.96922 0.53212,0.604932 0.759949,1.436886 0.223796,0.827372 0.148401,2.072371 -0.05368,0.770682 -0.161034,1.434133 -0.111386,0.658869 -0.168625,0.944954 l 2.891759,-2.543697 1.132771,1.287772 z M 92.706702,74.022389 q -0.34096,0.299921 -0.71148,0.494153 -0.367772,0.191815 -0.652828,0.266983 l -0.715944,-0.813909 0.07975,-0.07015 q 0.114658,-0.0082 0.258319,-0.02238 0.143616,-0.01415 0.360815,-0.08328 0.190372,-0.05528 0.399221,-0.156078 0.209178,-0.105969 0.407154,-0.280116 0.203472,-0.178982 0.301825,-0.377676 0.1011,-0.201111 -0.01984,-0.338595 -0.09433,-0.107238 -0.214186,-0.09936 -0.119854,0.0079 -0.369636,0.139808 -0.134171,0.06925 -0.328507,0.18655 -0.19676,0.114543 -0.362276,0.18698 -0.462121,0.206529 -0.839855,0.148614 -0.377389,-0.06309 -0.694243,-0.423304 -0.181404,-0.206227 -0.247552,-0.469942 -0.06582,-0.268882 -0.0074,-0.57392 0.06087,-0.302289 0.257783,-0.621817 0.199659,-0.321945 0.540619,-0.621866 0.324464,-0.285411 0.654734,-0.458874 0.327852,-0.176211 0.594645,-0.249943 l 0.686919,0.780912 -0.07699,0.06772 q -0.08334,0.005 -0.246225,0.03613 -0.165286,0.02834 -0.308144,0.07109 -0.169358,0.05143 -0.352039,0.148714 -0.179925,0.09486 -0.336657,0.232729 -0.208977,0.183823 -0.291819,0.38351 -0.0801,0.197263 0.02391,0.315502 0.09191,0.104489 0.216605,0.102105 0.124695,-0.0024 0.414722,-0.15508 0.150336,-0.0786 0.336434,-0.188635 0.186415,-0.115206 0.378433,-0.19632 0.427047,-0.185431 0.781351,-0.126415 0.354633,0.05385 0.656974,0.39756 0.191079,0.217225 0.263495,0.504691 0.06999,0.284722 0.0015,0.583934 -0.06978,0.319881 -0.269106,0.636653 -0.196581,0.314361 -0.570541,0.64331 z m -2.12253,1.82316 q -0.588433,0.517607 -1.070753,0.512673 -0.479565,-0.0074 -0.963311,-0.557298 l -1.269832,-1.443587 -0.368456,0.324108 -0.59017,-0.670925 0.368456,-0.324108 -0.776411,-0.88265 0.962392,-0.846557 0.776412,0.882651 0.926645,-0.815111 0.59017,0.670925 -0.926645,0.815111 0.962654,1.094376 q 0.142705,0.162232 0.252133,0.280577 0.109427,0.118344 0.235079,0.178521 0.123174,0.06236 0.270188,0.03546 0.147358,-0.03208 0.334341,-0.196556 0.07699,-0.06772 0.171697,-0.209565 0.09746,-0.144263 0.12277,-0.215298 l 0.08249,-0.07256 0.597426,0.679173 q -0.120453,0.179112 -0.277085,0.355914 -0.154207,0.179543 -0.409931,0.404487 z m -3.103928,-0.113131 q 0.669987,0.761664 0.639031,1.56926 -0.03063,0.80243 -0.792287,1.472415 -0.756165,0.66515 -1.561444,0.598013 -0.804949,-0.0723 -1.474936,-0.833968 -0.677244,-0.769914 -0.641451,-1.572011 0.03612,-0.807265 0.792287,-1.472415 0.758913,-0.667568 1.563863,-0.595263 0.80253,0.06955 1.474937,0.833969 z m -0.982312,0.873799 q -0.241873,-0.274969 -0.448287,-0.4153 -0.206055,-0.145526 -0.382537,-0.185378 -0.18683,-0.0405 -0.332766,0.0098 -0.148357,0.04758 -0.285845,0.16852 -0.129236,0.113681 -0.197444,0.246837 -0.07063,0.130407 -0.05945,0.320545 0.01184,0.179798 0.12682,0.410315 0.114993,0.230505 0.364121,0.513723 0.249129,0.283218 0.450706,0.418051 0.199158,0.132083 0.365276,0.171296 0.171322,0.03951 0.330347,-0.01258 0.159027,-0.05209 0.299263,-0.175449 0.11548,-0.101581 0.190185,-0.255088 0.07745,-0.155918 0.06186,-0.317789 -0.01876,-0.19322 -0.119893,-0.396899 -0.103543,-0.206435 -0.362347,-0.500652 z m -1.339866,3.905034 -0.967889,0.851391 -1.347232,-1.531578 q -0.164473,-0.186979 -0.343047,-0.356678 -0.178214,-0.174892 -0.29691,-0.226556 -0.141393,-0.06096 -0.273596,-0.02271 -0.134609,0.03549 -0.291341,0.173356 -0.118236,0.104004 -0.200524,0.254419 -0.08229,0.150414 -0.135116,0.367596 l 1.925308,2.188754 -0.962393,0.846556 -2.716233,-3.087903 0.962393,-0.846556 0.299923,0.340962 q 0.05991,-0.408737 0.183461,-0.717391 0.126313,-0.311078 0.398525,-0.550526 0.472952,-0.416026 0.986814,-0.336413 0.511443,0.07686 1.009701,0.6433 l 1.768091,2.010024 z m -3.200636,2.815396 -1.143873,1.006193 -2.018663,-0.609306 0.02808,0.331342 1.006191,1.143872 -0.962392,0.846556 -3.763542,-4.278518 0.962393,-0.846556 2.109131,2.39773 -0.148925,-2.010132 1.135621,-0.998934 0.09004,2.281404 2.705936,0.736349 z M 82.0794,63.253159 q 0.778024,0.884484 1.220489,1.673954 0.442458,0.789477 0.521854,1.508133 0.0794,0.718657 -0.218569,1.387197 -0.302003,0.663966 -1.026084,1.300894 -0.719508,0.632906 -1.416563,0.847748 -0.701084,0.21026 -1.416387,0.03471 Q 79.037448,69.830801 78.318916,69.300427 77.596354,68.76547 76.82236,67.885569 76.02418,66.978171 75.597291,66.215644 75.174989,65.449081 75.093217,64.7 q -0.07829,-0.735886 0.232324,-1.399297 0.306575,-0.667987 1.003168,-1.280736 0.737829,-0.649021 1.433785,-0.84664 0.696505,-0.206231 1.415839,-0.0261 0.706691,0.174993 1.424674,0.713979 0.722555,0.534964 1.476393,1.391951 z m -1.718551,1.5117 q -1.112615,-1.264858 -1.770896,-1.588109 -0.657717,-0.331877 -1.152661,0.103494 -0.490364,0.431343 -0.249677,1.130053 0.236657,0.694128 1.357335,1.968151 1.09649,1.246526 1.766857,1.583533 0.666335,0.332424 1.156699,-0.09892 0.490357,-0.431336 0.245639,-1.134629 -0.248743,-0.707882 -1.353296,-1.963574 z m -1.469574,7.348663 -4.509493,3.966715 -1.048116,-1.191532 1.439002,-1.265799 -3.172565,-3.606677 -1.439002,1.265798 -0.979585,-1.113624 q 0.316212,-0.278152 0.591565,-0.593519 0.275352,-0.315368 0.382619,-0.572302 0.123228,-0.303487 0.08113,-0.591611 -0.04154,-0.296741 -0.265085,-0.587832 l 1.494002,-1.314179 4.970487,5.650614 1.406926,-1.237583 1.048115,1.191533 z"
         inkscape:label="#path4791" />
    </g>
    <text
       xml:space="preserve"
       style="font-style:normal;font-weight:normal;font-size:20px;line-height:125%;font-family:sans-serif;letter-spacing:0px;word-spacing:0px;fill:#000000;fill-opacity:1;stroke:none;stroke-width:1px;stroke-linecap:butt;stroke-linejoin:miter;stroke-opacity:1"
       x="200.35715"
       y="-17.499998"
       id="text4692"
       sodipodi:linespacing="125%"><tspan
         sodipodi:role="line"
         id="tspan4694"
         x="200.35715"
         y="-17.499998" /></text>
    <flowRoot
       xml:space="preserve"
       id="flowRoot4708"
       style="fill:black;stroke:none;stroke-opacity:1;stroke-width:1px;stroke-linejoin:miter;stroke-linecap:butt;fill-opacity:1;font-family:sans-serif;font-style:normal;font-weight:normal;font-size:20px;line-height:125%;letter-spacing:0px;word-spacing:0px"><flowRegion
         id="flowRegion4710"><rect
           id="rect4712"
           width="162.85715"
           height="39.285713"
           x="-11.785714"
           y="122.5" /></flowRegion><flowPara
         id="flowPara4714" /></flowRoot>    <g
       id="airplane"
       inkscape:label="#g4850"
       transform="translate(-0.09999985,0)">
      <path
         inkscape:connector-curvature="0"
         style="fill:none;fill-opacity:1;fill-rule:evenodd;stroke:#000000;stroke-width:2;stroke-linecap:butt;stroke-linejoin:miter;stroke-miterlimit:4;stroke-dasharray:none;stroke-opacity:1;filter:url(#filter4846)"
         d="m 125.98893,64.803186 c -2.86226,0.0578 -5.8044,3.94686 -7.46112,15.12408 -0.36866,2.48722 -2.11541,17.52919 -2.30258,23.567814 -4.29045,2.78497 -43.075803,28.81242 -45.964433,35.76865 -2.84497,6.85108 -1.35375,14.08237 -1.35375,14.08237 l 47.321973,-23.4623 c 2.08804,14.71671 3.96265,26.55766 5.56315,39.11829 0,0 -13.65121,9.24521 -15.01983,11.53375 -1.36863,2.28854 -0.8585,7.61842 -0.8585,7.61842 l 20.43043,-5.3528 20.42948,5.3528 c 0,0 0.51014,-5.32988 -0.85849,-7.61842 -1.36862,-2.28854 -15.01984,-11.53375 -15.01984,-11.53375 1.6005,-12.56063 3.47511,-24.40158 5.56315,-39.11829 l 44.82198,21.85515 c 0,0 3.99122,-5.62414 1.14625,-12.47522 -2.88864,-6.95623 -41.46484,-32.52949 -45.96444,-35.76865 -0.18717,-6.406174 -1.93392,-21.080594 -2.30258,-23.567814 -1.65672,-11.17722 -4.59886,-15.06626 -7.46112,-15.12408 -0.11813,-0.002 -0.23654,0.005 -0.35439,0.0161 -0.11816,-0.0107 -0.23689,-0.0185 -0.35534,-0.0161 z"
         id="path4844"
         sodipodi:nodetypes="cscscccscccscccscsccc" />
      <path
         sodipodi:nodetypes="cscscccscccscccscscc"
         id="airplane-5"
         d="m 124.78924,62.803186 c -2.86226,0.0578 -5.8044,3.94686 -7.46112,15.12408 -0.36866,2.48722 -2.11541,17.52919 -2.30258,23.567814 -4.29045,2.78497 -43.075805,28.81242 -45.964435,35.76865 -2.84497,6.85108 -0.639464,13.36808 -0.639464,13.36808 L 115.02933,127.8838 c 2.08804,14.71671 3.96265,26.55766 5.56315,39.11829 0,0 -13.65121,9.24521 -15.01983,11.53375 -1.36863,2.28854 -0.8585,7.61842 -0.8585,7.61842 l 20.43043,-5.3528 20.42948,5.3528 c 0,0 0.51014,-5.32988 -0.85849,-7.61842 -1.36862,-2.28854 -15.01984,-11.53375 -15.01984,-11.53375 1.6005,-12.56063 3.47511,-24.40158 5.56315,-39.11829 l 46.78627,22.03372 c 0,0 2.02693,-5.80271 -0.81804,-12.65379 -2.88864,-6.95623 -41.46484,-32.52949 -45.96444,-35.76865 -0.18717,-6.406174 -1.93392,-21.080594 -2.30258,-23.567814 -1.65672,-11.17722 -4.59886,-15.06626 -7.46112,-15.12408 -0.24434,0.02012 -0.48282,0 -0.70973,0 z"
         style="fill:none;fill-opacity:1;fill-rule:evenodd;stroke:#594436;stroke-width:2;stroke-linecap:butt;stroke-linejoin:miter;stroke-miterlimit:4;stroke-dasharray:none;stroke-opacity:1"
         inkscape:connector-curvature="0" />
    </g>
    <g
       id="windDirection"
       inkscape:label="#g4929">
      <path
         style="opacity:1;fill:#000000;fill-opacity:1;stroke:none;stroke-width:3;stroke-linecap:round;stroke-miterlimit:4;stroke-dasharray:none;stroke-dashoffset:0;stroke-opacity:1;filter:url(#filter4662)"
         d="m 123.30859,-41.755859 c -6.33278,8.622975 -12.66418,17.246963 -18.99804,25.86914 5.35586,-1.30782 10.86081,-2.169141 16.38867,-1.871093 -1.32497,16.7540504 -3.19545,33.484338 -4.20899,50.251953 5.11964,-1.166819 15.01147,2.438548 16.85938,-2 -1.38519,-16.084734 -2.80898,-32.1678434 -4.20899,-48.251953 5.528,-0.296385 11.03307,0.560651 16.38868,1.871093 -6.87089,-9.354014 -13.74046,-18.708996 -20.60938,-28.064453 -0.53711,0.731771 -1.07422,1.463542 -1.61133,2.195313 z"
         id="path4514"
         inkscape:connector-curvature="0"
         transform="matrix(0.71924812,0,0,0.37251818,35.151579,114.24077)" />
      <path
         style="opacity:1;fill:#b1937e;fill-opacity:1;stroke:none;stroke-width:3;stroke-linecap:round;stroke-miterlimit:4;stroke-dasharray:none;stroke-dashoffset:0;stroke-opacity:1"
         d="m 113.43275,107.60913 c 0,0 4.31861,-0.47454 10.07709,-0.25241 l -3.18671,17.6611 0,0.006 9.35412,0 0,-0.006 -3.18669,-17.6611 c 5.75681,-0.22206 10.07706,0.25241 10.07706,0.25241 l -11.56743,-7.631094 z"
         id="rect4178"
         inkscape:connector-curvature="0"
         sodipodi:nodetypes="cccccccccc" />
    </g>
    <flowRoot
       xml:space="preserve"
       id="flowRoot4749"
       style="fill:black;stroke:none;stroke-opacity:1;stroke-width:1px;stroke-linejoin:miter;stroke-linecap:butt;fill-opacity:1;font-family:sans-serif;font-style:normal;font-weight:normal;font-size:15px;line-height:125%;letter-spacing:0px;word-spacing:0px"><flowRegion
         id="flowRegion4751"><rect
           id="rect4753"
           width="17.393867"
           height="27.122641"
           x="253.83255"
           y="19.162735" /></flowRegion><flowPara
         id="flowPara4755" /></flowRoot>    <path
       style="color:#000000;font-style:normal;font-variant:normal;font-weight:normal;font-stretch:normal;font-size:medium;line-height:normal;font-family:sans-serif;text-indent:0;text-align:start;text-decoration:none;text-decoration-line:none;text-decoration-style:solid;text-decoration-color:#000000;letter-spacing:normal;word-spacing:normal;text-transform:none;direction:ltr;block-progression:tb;writing-mode:lr-tb;baseline-shift:baseline;text-anchor:start;white-space:normal;clip-rule:nonzero;display:inline;overflow:visible;visibility:visible;opacity:1;isolation:auto;mix-blend-mode:normal;color-interpolation:sRGB;color-interpolation-filters:linearRGB;solid-color:#000000;solid-opacity:1;fill:#c45614;fill-opacity:1;fill-rule:nonzero;stroke:#64280a;stroke-width:0.48613572;stroke-linecap:butt;stroke-linejoin:miter;stroke-miterlimit:4;stroke-dasharray:none;stroke-dashoffset:0;stroke-opacity:1;color-rendering:auto;image-rendering:auto;shape-rendering:auto;text-rendering:auto;enable-background:accumulate"
       d="m 117.784,42.45642 c -0.69226,0 -1.29337,-0.233738 -1.80644,-0.654784 -0.25653,-0.210522 -0.50145,-0.482255 -0.64025,-0.8762 -0.1388,-0.393945 -0.1047,-0.929304 0.12958,-1.330387 l 9.57903,-16.401785 9.72004,16.640233 0,0.276296 c 0,1.321421 -1.15123,2.346627 -2.45811,2.346627 l -14.52385,0 z m 0,-2.051405 14.52385,0 c 0.19387,0 0.22892,-0.113507 0.2801,-0.210061 l -7.54203,-12.914018 -7.59349,13.00107 c 0.12483,0.05542 0.26607,0.123009 0.33157,0.123009 z"
       id="heading"
       inkscape:connector-curvature="0"
       inkscape:label="#path4163" />
    <path
       style="opacity:1;fill:#b1937e;fill-opacity:1;stroke:#64280a;stroke-width:0.4;stroke-miterlimit:4;stroke-dasharray:none;stroke-opacity:1"
       d="M 117.77539 4.8027344 C 117.70989 4.8027344 117.56819 4.8703582 117.44336 4.9257812 L 125.03711 17.925781 L 132.57812 5.0117188 C 132.52695 4.9151639 132.4927 4.8027344 132.29883 4.8027344 L 117.77539 4.8027344 z "
       id="homeDirection" />
    <path
       style="color:#000000;font-style:normal;font-variant:normal;font-weight:normal;font-stretch:normal;font-size:medium;line-height:normal;font-family:sans-serif;text-indent:0;text-align:start;text-decoration:none;text-decoration-line:none;text-decoration-style:solid;text-decoration-color:#000000;letter-spacing:normal;word-spacing:normal;text-transform:none;direction:ltr;block-progression:tb;writing-mode:lr-tb;baseline-shift:baseline;text-anchor:start;white-space:normal;clip-rule:nonzero;display:inline;overflow:visible;visibility:visible;opacity:1;isolation:auto;mix-blend-mode:normal;color-interpolation:sRGB;color-interpolation-filters:linearRGB;solid-color:#000000;solid-opacity:1;fill:#c45614;fill-opacity:1;fill-rule:nonzero;stroke:#64280a;stroke-width:0.486;stroke-linecap:butt;stroke-linejoin:miter;stroke-miterlimit:4;stroke-dasharray:none;stroke-dashoffset:0;stroke-opacity:1;color-rendering:auto;image-rendering:auto;shape-rendering:auto;text-rendering:auto;enable-background:accumulate"
       d="m 117.77492,2.7507575 c -0.69226,0 -1.29337,0.2337388 -1.80644,0.6547844 -0.25653,0.2105222 -0.50145,0.4822547 -0.64025,0.8762003 -0.1388,0.3939446 -0.1047,0.9293035 0.12958,1.3303862 l 9.57903,16.4017856 9.72004,-16.6402335 0,-0.2762961 c 0,-1.3214207 -1.15123,-2.3466269 -2.45811,-2.3466269 l -14.52385,0 z m 0,2.0514056 14.52385,0 c 0.19387,0 0.22892,0.1135063 0.2801,0.2100611 L 125.03684,17.926242 117.44335,4.9251717 c 0.12483,-0.055423 0.26607,-0.1230086 0.33157,-0.1230086 z"
       id="headingSP"
       inkscape:connector-curvature="0"
       inkscape:label="#path5006" />
    <path
       id="compass"
       style="font-style:normal;font-weight:normal;font-size:medium;line-height:125%;font-family:sans-serif;letter-spacing:0px;word-spacing:0px;fill:#b1937e;fill-opacity:1;stroke:none;stroke-width:1px;stroke-linecap:butt;stroke-linejoin:miter;stroke-opacity:1"
       d="m 218.8508,125.99838 -0.16686,-6.70164 10.172,-0.25326 0.16684,6.70164 -1.20232,0.03 -0.13318,-5.349 -2.78721,0.0694 0.13316,5.34899 -1.20233,0.03 -0.13317,-5.349 -3.77777,0.0941 0.13317,5.34899 -1.20233,0.03 z m -98.02081,95.66656 c 0.002,-0.39633 0.0979,-0.78758 0.28686,-1.17374 0.18442,-0.38619 0.44369,-0.71274 0.77778,-0.97963 0.36611,-0.28948 0.79335,-0.51484 1.28173,-0.67607 0.48385,-0.16125 1.06743,-0.23992 1.75077,-0.23604 0.73345,0.005 1.39363,0.0766 1.98053,0.21627 0.58233,0.14 1.17569,0.34611 1.78006,0.61833 l -0.01,1.69469 -0.0957,-5.4e-4 c -0.51235,-0.43115 -1.10498,-0.76482 -1.77788,-1.00099 -0.67293,-0.23619 -1.30551,-0.35596 -1.89773,-0.35933 -0.83823,-0.005 -1.49058,0.14845 -1.95704,0.46039 -0.47102,0.31167 -0.70801,0.72945 -0.71099,1.25334 -0.002,0.45101 0.1075,0.7842 0.32915,0.99958 0.21745,0.21537 0.55135,0.38356 1.00167,0.50457 0.34117,0.0931 0.71202,0.17033 1.11257,0.23184 0.39601,0.0615 0.81698,0.13904 1.2629,0.2327 0.90093,0.19646 1.56875,0.526 2.00346,0.98861 0.43015,0.46713 0.6431,1.072 0.63888,1.81455 -0.005,0.8519 -0.36888,1.54686 -1.09159,2.08489 -0.72289,0.54257 -1.63785,0.81072 -2.74487,0.80441 -0.71522,-0.005 -1.37084,-0.0766 -1.96686,-0.2162 -0.596,-0.14006 -1.1235,-0.31163 -1.58247,-0.5147 l 0.009,-1.59902 0.0957,5.5e-4 c 0.38536,0.3302 0.89404,0.60417 1.52606,0.82188 0.62744,0.22225 1.27143,0.33526 1.93199,0.339 0.72435,0.005 1.30832,-0.14249 1.75193,-0.44102 0.43904,-0.29818 0.65992,-0.68417 0.66262,-1.15797 0.002,-0.42367 -0.10516,-0.75685 -0.32232,-0.99954 -0.2173,-0.24269 -0.6012,-0.42939 -1.1517,-0.56009 -0.29121,-0.0655 -0.70533,-0.14523 -1.24236,-0.2394 -0.53705,-0.0942 -0.99208,-0.19016 -1.36509,-0.28796 -0.7551,-0.20475 -1.32283,-0.51093 -1.70319,-0.91856 -0.38035,-0.40763 -0.56848,-0.9759 -0.56433,-1.7048 z M 21.16156,117.4658 l 10.13527,2.79345 -0.0223,1.52373 -8.47669,2.01486 8.41469,2.21465 -0.0218,1.48955 -10.21351,2.54298 0.0203,-1.38706 8.49035,-2.01467 -8.42816,-2.22851 0.0201,-1.37339 8.57217,-1.99981 -8.50986,-2.25021 0.0195,-1.32557 z m 107.89516,-86.434158 -1.67419,0.0111 -4.88284,-9.07111 0.0584,9.10208 -1.26418,0.009 -0.0653,-10.17494 2.09786,-0.0134 4.45405,8.28116 -0.0534,-8.30941 1.26417,-0.009 0.0653,10.17493 z m -21.49066,-7.86444 c -0.38191,0.0695 -0.76343,0.14108 -1.14453,0.21484 0.43188,1.89101 0.86655,3.78146 1.29297,5.67383 0.35628,-0.0738 0.71305,-0.14704 1.07031,-0.2168 -0.40176,-1.89199 -0.81151,-3.78117 -1.21875,-5.67187 z m 34.35352,0.0957 c -0.30611,1.82473 -0.60882,3.65088 -0.91992,5.47461 0.35845,0.0664 0.71662,0.13579 1.07421,0.20703 0.33622,-1.83494 0.66494,-3.67182 0.9961,-5.50781 -0.38313,-0.0601 -0.7666,-0.11804 -1.15039,-0.17383 z m -51.54102,4.43945 c -0.36918,0.12032 -0.73767,0.24272 -1.10547,0.36719 0.84116,1.95492 1.68422,3.91001 2.51953,5.86719 0.33622,-0.13743 0.67209,-0.27275 1.00977,-0.40625 -0.80358,-1.94426 -1.6145,-3.88615 -2.42383,-5.82813 z m 68.7207,0.004 c -0.67495,1.86739 -1.34726,3.73598 -2.02734,5.60156 0.34165,0.13092 0.68314,0.26359 1.02344,0.39844 0.70399,-1.86505 1.40074,-3.73268 2.09961,-5.59961 -0.36448,-0.13552 -0.72972,-0.26899 -1.09571,-0.40039 z m 15.78321,6.98242 c -2.06587,3.70241 -2.89137,5.27646 -4.97832,8.96748 0.59654,0.35115 1.25275,0.77303 1.84243,1.13735 2.16138,-3.63913 2.99903,-5.22548 5.13979,-8.87631 -0.6633,-0.41708 -1.33131,-0.82661 -2.0039,-1.22852 z m -100.27149,0.10547 c -0.68344,0.38226 -1.36252,0.77226 -2.03711,1.16992 2.43281,3.69901 3.47409,5.2543 5.88448,8.96671 0.58067,-0.36691 1.1642,-0.72804 1.75195,-1.08203 -2.31551,-3.74172 -3.26138,-5.32563 -5.59932,-9.0546 z m 49.875,1.48242 c -0.99007,-0.0118 -1.7218,0.33477 -2.19726,1.03906 -0.47542,0.70057 -0.72254,1.79217 -0.74024,3.27539 -0.0175,1.472 0.1993,2.56592 0.65039,3.28125 0.45482,0.71543 1.18233,1.0799 2.1836,1.0918 0.98633,0.0118 1.71803,-0.33033 2.19336,-1.02344 0.47916,-0.69677 0.72634,-1.79285 0.74414,-3.29101 0.0173,-1.45334 -0.19957,-2.54278 -0.6543,-3.26563 -0.45095,-0.72661 -1.17842,-1.09552 -2.17969,-1.10742 z m -0.01,0.92578 c 0.35493,0.004 0.6428,0.0802 0.86523,0.22852 0.22617,0.14842 0.40196,0.36702 0.5293,0.65625 0.13101,0.29303 0.21791,0.64941 0.25781,1.06836 0.0437,0.41905 0.0617,0.9126 0.0547,1.48047 -0.007,0.57535 -0.0364,1.06812 -0.0899,1.47851 -0.0497,0.40671 -0.14297,0.7595 -0.27734,1.06055 -0.13054,0.29363 -0.31155,0.51329 -0.54492,0.65625 -0.23337,0.14343 -0.52575,0.21203 -0.87695,0.20703 -0.37361,-0.004 -0.67432,-0.0843 -0.90039,-0.24023 -0.22234,-0.15585 -0.3919,-0.38094 -0.51172,-0.67383 -0.13083,-0.31169 -0.21556,-0.66385 -0.25196,-1.05664 -0.0362,-0.39279 -0.0519,-0.88008 -0.0449,-1.46289 0.006,-0.53053 0.0358,-1.01687 0.0859,-1.46094 0.0539,-0.44401 0.14508,-0.80515 0.27539,-1.08008 0.13801,-0.29354 0.32309,-0.51129 0.55273,-0.6543 0.23337,-0.14343 0.52577,-0.21203 0.87696,-0.20703 z m -37.83789,7.92969 c -0.15188,0.0118 -0.30619,0.0376 -0.46094,0.0762 -0.3095,0.0773 -0.64482,0.20997 -1.00586,0.39844 -0.36766,0.19191 -0.72214,0.43903 -1.06445,0.74414 -0.34071,0.30003 -0.59878,0.56988 -0.77344,0.80859 l 0.54297,1.03907 0.0488,-0.0254 c 0.20749,-0.36967 0.46022,-0.70435 0.75586,-1.00196 0.29564,-0.29762 0.5994,-0.52909 0.91406,-0.69336 0.20537,-0.10722 0.39852,-0.18678 0.57812,-0.23828 0.1796,-0.0518 0.3634,-0.0703 0.55078,-0.0586 0.18075,0.0153 0.34512,0.0699 0.49219,0.16601 0.14534,0.0927 0.26402,0.22936 0.35742,0.40821 0.2109,0.40408 0.22007,0.79084 0.0293,1.16015 -0.18921,0.36429 -0.53559,0.6767 -1.03906,0.93946 l -0.34766,0.18164 0.43164,0.82617 0.44727,-0.23438 c 0.2451,-0.12798 0.48405,-0.22607 0.7168,-0.29687 0.23102,-0.074 0.44774,-0.0989 0.65039,-0.0742 0.20091,0.0216 0.38806,0.0981 0.5625,0.23047 0.17602,0.1273 0.3324,0.32285 0.4707,0.58789 0.14002,0.26826 0.21887,0.51122 0.23437,0.72656 0.0188,0.21355 -0.01,0.43296 -0.0859,0.6582 -0.0749,0.21191 -0.21324,0.41315 -0.41211,0.60547 -0.19887,0.19225 -0.40266,0.3423 -0.61133,0.45117 -0.35442,0.18497 -0.75433,0.31628 -1.19922,0.39258 -0.44488,0.0764 -0.85601,0.0951 -1.23437,0.0566 l -0.0742,0.0391 0.54296,1.03906 c 0.31556,-0.0172 0.69692,-0.082 1.14454,-0.19336 0.44935,-0.10812 0.87833,-0.27 1.28906,-0.48438 0.40078,-0.20923 0.74009,-0.45441 1.01758,-0.73828 0.27908,-0.28896 0.48196,-0.61502 0.60937,-0.97656 0.11293,-0.32449 0.15721,-0.66034 0.13281,-1.00586 -0.0244,-0.34553 -0.12444,-0.68555 -0.30078,-1.02344 -0.17807,-0.34113 -0.37478,-0.5942 -0.58984,-0.75586 -0.21504,-0.16173 -0.43855,-0.27027 -0.67188,-0.33007 l 0,-0.002 c -0.20815,-0.0516 -0.43697,-0.0638 -0.68554,-0.0391 -0.25031,0.021 -0.46195,0.0588 -0.63477,0.11524 l -0.0351,-0.0684 c 0.35267,-0.28517 0.59353,-0.65618 0.72265,-1.11133 0.13071,-0.46017 0.0874,-0.89596 -0.12695,-1.30664 -0.15732,-0.30146 -0.35559,-0.53211 -0.5957,-0.69336 -0.24012,-0.16125 -0.52033,-0.26052 -0.8418,-0.29492 -0.149,-0.0149 -0.2993,-0.0158 -0.45117,-0.004 z m 103.59765,0.004 c -1.41054,1.76076 -2.82085,3.52252 -4.23632,5.27929 0.28444,0.23697 0.56755,0.47492 0.8496,0.71485 1.44565,-1.7568 2.88549,-3.51848 4.32618,-5.2793 -0.31179,-0.24006 -0.62495,-0.47835 -0.93946,-0.71484 z m -131.01758,0.0371 c -0.29639,0.25679 -0.59131,0.51525 -0.88476,0.77539 1.69391,1.86824 3.38827,3.73784 5.07617,5.61132 0.27601,-0.24103 0.55164,-0.48067 0.83008,-0.71875 -1.67005,-1.89258 -3.34535,-3.78048 -5.02149,-5.66796 z m 106.92383,2.11914 -0.63281,0.98437 0.0469,0.0293 c 0.42384,-0.003 0.83723,0.0507 1.24218,0.16015 0.40494,0.1095 0.75813,0.26109 1.05664,0.45313 0.19482,0.1253 0.35845,0.25228 0.49219,0.38281 0.13376,0.13045 0.24162,0.28061 0.32422,0.44922 0.0763,0.16461 0.10826,0.33443 0.0977,0.50977 -0.009,0.17218 -0.0666,0.34396 -0.17579,0.51367 -0.24662,0.38332 -0.57685,0.58241 -0.99218,0.59961 -0.41016,0.016 -0.85441,-0.12824 -1.33203,-0.43555 l -0.33008,-0.21289 -0.50391,0.7832 0.42383,0.27149 c 0.23253,0.14957 0.43839,0.30752 0.61523,0.47461 0.17886,0.16393 0.30802,0.3409 0.38672,0.52929 0.0802,0.18524 0.10673,0.38646 0.0781,0.60352 -0.0234,0.21596 -0.11757,0.44981 -0.2793,0.70117 -0.16375,0.25452 -0.33426,0.44242 -0.51367,0.5625 -0.17627,0.12207 -0.38172,0.2046 -0.61524,0.25 -0.22112,0.04 -0.46491,0.021 -0.73046,-0.0566 -0.26554,-0.0776 -0.49735,-0.17928 -0.69532,-0.30664 -0.33621,-0.2163 -0.64705,-0.49891 -0.93359,-0.84766 -0.28656,-0.34876 -0.50629,-0.69714 -0.66016,-1.04492 l -0.0703,-0.0449 -0.63476,0.98437 c 0.1712,0.26566 0.41593,0.56473 0.73437,0.89844 0.31641,0.33686 0.67092,0.63214 1.06055,0.88281 0.3802,0.24462 0.76045,0.41709 1.14453,0.51758 0.38925,0.0997 0.77321,0.11488 1.15039,0.0469 0.33789,-0.0625 0.65135,-0.1905 0.93945,-0.38281 0.28811,-0.19225 0.53404,-0.44904 0.74024,-0.76954 0.20823,-0.3236 0.32928,-0.6178 0.36328,-0.88476 0.0341,-0.26689 0.0209,-0.51788 -0.043,-0.75 l -0.002,0 c -0.0583,-0.20627 -0.15847,-0.41138 -0.30274,-0.61524 -0.14226,-0.20703 -0.28136,-0.37193 -0.41601,-0.49414 l 0.043,-0.0664 c 0.42245,0.1652 0.86291,0.19133 1.32227,0.0781 0.46452,-0.1143 0.82159,-0.3662 1.07227,-0.75586 0.18397,-0.28592 0.28739,-0.57285 0.30859,-0.86133 0.0212,-0.28847 -0.0329,-0.58057 -0.16211,-0.87695 -0.12158,-0.2737 -0.29135,-0.52526 -0.51172,-0.75586 -0.22036,-0.23066 -0.50319,-0.45744 -0.8457,-0.67773 -0.34878,-0.22441 -0.73926,-0.40835 -1.17383,-0.55469 -0.42941,-0.14736 -0.79209,-0.23778 -1.08594,-0.27148 z m -86.22461,1.89062 c -0.29945,0.005 -0.59792,0.0635 -0.89648,0.17578 -0.29855,0.11238 -0.61615,0.28304 -0.95313,0.51172 -0.34315,0.23294 -0.66771,0.52078 -0.97265,0.86328 -0.30394,0.3372 -0.52973,0.63343 -0.67578,0.89063 l 0.6582,0.9707 0.0469,-0.0332 c 0.16358,-0.39102 0.37532,-0.75043 0.63476,-1.08008 0.25945,-0.32964 0.53638,-0.59364 0.83008,-0.79297 0.19167,-0.13011 0.37244,-0.23083 0.54492,-0.30273 0.17246,-0.0718 0.35352,-0.11305 0.54102,-0.12305 0.1813,-0.006 0.35068,0.0309 0.50781,0.10937 0.15504,0.0754 0.28902,0.19639 0.40234,0.36329 0.25595,0.37719 0.3111,0.7596 0.16407,1.14843 -0.14604,0.38359 -0.45588,0.7357 -0.92579,1.05469 l -0.32421,0.21875 0.52343,0.77148 0.41602,-0.28515 c 0.22878,-0.15527 0.45469,-0.27976 0.67773,-0.37696 0.22092,-0.10012 0.4345,-0.14843 0.63867,-0.14843 0.20207,-0.002 0.39744,0.0526 0.58594,0.16406 0.18949,0.10619 0.36728,0.28199 0.53516,0.5293 0.16996,0.25039 0.2763,0.4832 0.3164,0.69531 0.0432,0.20998 0.0401,0.43154 -0.01,0.66406 -0.05,0.21906 -0.16441,0.43455 -0.33985,0.64844 -0.17541,0.2139 -0.35992,0.38736 -0.55468,0.51953 -0.33079,0.22456 -0.71333,0.40039 -1.14649,0.52734 -0.43316,0.12692 -0.83845,0.19027 -1.21875,0.19727 l -0.0703,0.0488 0.6582,0.96875 c 0.31148,-0.0534 0.68342,-0.16207 1.11524,-0.32422 0.43393,-0.15904 0.84128,-0.36875 1.22461,-0.62891 0.37408,-0.2539 0.68279,-0.53759 0.92578,-0.85156 0.24399,-0.31913 0.40914,-0.66523 0.49414,-1.03906 0.0749,-0.33536 0.0796,-0.67323 0.0156,-1.01367 -0.064,-0.34043 -0.20197,-0.66903 -0.41601,-0.98438 -0.21613,-0.31844 -0.43966,-0.54568 -0.67188,-0.68164 -0.23223,-0.13588 -0.46841,-0.21965 -0.70703,-0.25195 -0.21268,-0.0268 -0.44142,-0.0138 -0.68554,0.0391 -0.24623,0.0497 -0.45202,0.1116 -0.61719,0.1875 l -0.043,-0.0645 c 0.31753,-0.32387 0.51394,-0.71858 0.58984,-1.18555 0.0769,-0.4722 -0.0152,-0.89988 -0.27539,-1.2832 -0.19097,-0.28133 -0.41479,-0.48851 -0.67187,-0.6211 -0.25706,-0.13236 -0.54779,-0.19531 -0.8711,-0.19531 z m 123.1875,8.57813 c -1.65612,1.50388 -3.31057,3.00857 -4.9707,4.50781 0.24402,0.2788 0.48544,0.55869 0.72656,0.83984 1.67676,-1.48412 3.34876,-2.974 5.02149,-4.46289 -0.25744,-0.29639 -0.51656,-0.59132 -0.77735,-0.88476 z m -156.81836,0.004 c -0.26793,0.28884 -0.53421,0.57922 -0.79882,0.8711 2.05012,1.64594 4.0998,3.29277 6.14453,4.94531 0.23476,-0.28102 0.47131,-0.56116 0.70898,-0.83985 -2.01478,-1.66303 -4.0345,-3.32007 -6.05469,-4.97656 z m 167.04126,14.07786 c -3.54954,2.34125 -4.70104,3.03978 -8.263,5.36045 0.37167,0.58678 0.73516,1.17732 1.09375,1.77148 3.58793,-2.22889 4.76706,-2.83546 8.34308,-5.08506 -0.38349,-0.68673 -0.77479,-1.36906 -1.17383,-2.04687 z m -177.19922,0.10547 c -0.41842,0.66522 -0.82925,1.33518 -1.23242,2.00976 4.09751,2.29068 5.66663,3.32688 9.75001,5.64356 0.34816,-0.58899 0.70144,-1.17547 1.0625,-1.75781 -4.0271,-2.40068 -5.53854,-3.52008 -9.58009,-5.89551 z m 16.58594,3.96679 c -0.85442,-0.0344 -1.56695,0.35952 -2.13867,1.18164 -0.56532,0.81283 -0.69116,1.61356 -0.375,2.40235 0.31309,0.78665 1.07909,1.60424 2.29687,2.45117 1.2086,0.84047 2.23487,1.27453 3.08008,1.30273 0.84735,0.0249 1.55719,-0.37326 2.12891,-1.19531 0.56318,-0.80982 0.69172,-1.60628 0.38476,-2.38867 -0.30789,-0.78755 -1.07658,-1.60939 -2.30664,-2.46485 -1.19325,-0.82981 -2.21683,-1.26026 -3.07031,-1.28906 z m -0.30664,1.02539 c 0.14015,-0.0117 0.28793,-0.003 0.44336,0.0254 0.31607,0.0559 0.65818,0.18661 1.02734,0.38868 0.37129,0.19906 0.7896,0.45892 1.25586,0.7832 0.47239,0.32847 0.86413,0.63166 1.17383,0.90625 0.30829,0.26889 0.55087,0.5445 0.72461,0.82422 0.16914,0.27226 0.24705,0.54555 0.23437,0.81836 -0.0126,0.27335 -0.11782,0.55345 -0.31836,0.84179 -0.21333,0.30675 -0.44917,0.51163 -0.70507,0.61133 -0.25376,0.0969 -0.53605,0.11218 -0.84571,0.0469 -0.33139,-0.0667 -0.66812,-0.19646 -1.01367,-0.38672 -0.34555,-0.19025 -0.7578,-0.4504 -1.23633,-0.78321 -0.43559,-0.30291 -0.82463,-0.59996 -1.16406,-0.89062 -0.3373,-0.29377 -0.58187,-0.57183 -0.73633,-0.83398 -0.16554,-0.27892 -0.24292,-0.55389 -0.23242,-0.82422 0.0126,-0.27335 0.11782,-0.55346 0.31836,-0.8418 0.20265,-0.29136 0.42815,-0.48901 0.67578,-0.58984 0.12489,-0.0521 0.25828,-0.084 0.39844,-0.0957 z m 146.35547,2.64258 c -0.28382,0.0119 -0.57039,0.053 -0.85938,0.12109 -0.57618,0.13944 -1.18863,0.38791 -1.83594,0.7461 -0.63096,0.34913 -1.12946,0.7229 -1.49414,1.12109 -0.36287,0.4015 -0.60101,0.81677 -0.71679,1.24805 -0.0943,0.34679 -0.11616,0.69898 -0.0645,1.05469 0.0516,0.35577 0.17797,0.71265 0.37696,1.07226 0.39254,0.70943 0.95632,1.17978 1.69336,1.40821 0.74211,0.22993 1.48443,0.13912 2.22656,-0.27149 0.43481,-0.24061 0.76369,-0.51863 0.98633,-0.83398 0.22448,-0.3121 0.35628,-0.66645 0.39648,-1.06446 0.0358,-0.34435 0.016,-0.65248 -0.0605,-0.92187 -0.0714,-0.26797 -0.19338,-0.5566 -0.36523,-0.86719 -0.19356,-0.34981 -0.40793,-0.6343 -0.64453,-0.85351 -0.23152,-0.21779 -0.50748,-0.41724 -0.82617,-0.59961 0.78665,-0.34554 1.51591,-0.43191 2.18554,-0.25586 0.67289,0.17426 1.20288,0.61349 1.5918,1.3164 0.10673,0.19287 0.18864,0.39317 0.24414,0.60157 0.0609,0.20987 0.0928,0.37546 0.0937,0.49414 l 0.0254,0.0488 0.9375,-0.51953 c -0.0317,-0.15753 -0.0749,-0.30546 -0.13086,-0.44531 -0.056,-0.1398 -0.13741,-0.30713 -0.24414,-0.5 -0.33465,-0.60485 -0.73269,-1.07543 -1.19336,-1.41406 -0.45741,-0.34046 -0.9499,-0.55342 -1.47851,-0.63672 -0.27864,-0.0444 -0.55994,-0.0607 -0.84375,-0.0488 z m -1.88672,1.73828 c 0.2766,0.17577 0.51351,0.36591 0.71094,0.56836 0.19744,0.20248 0.37359,0.44279 0.52734,0.72071 0.11035,0.19942 0.19898,0.39845 0.26758,0.5996 0.0689,0.20116 0.0937,0.40697 0.0723,0.61524 -0.0332,0.28735 -0.1248,0.52988 -0.27539,0.72851 -0.14877,0.20189 -0.37565,0.38648 -0.67968,0.55469 -0.5427,0.3003 -1.03546,0.3955 -1.47657,0.28516 -0.43784,-0.11217 -0.78654,-0.40488 -1.04883,-0.87891 -0.11393,-0.20597 -0.1884,-0.41619 -0.2207,-0.6289 -0.0273,-0.21124 -0.01,-0.43017 0.0508,-0.66016 0.0702,-0.28222 0.22313,-0.56147 0.46094,-0.83399 0.24288,-0.27103 0.62408,-0.54819 1.14062,-0.83398 0.10136,-0.056 0.18476,-0.0998 0.25196,-0.13281 0.0705,-0.0345 0.14315,-0.07 0.21875,-0.10352 z m -148.51367,1.2461 c -0.28924,10e-4 -0.57596,0.0765 -0.86133,0.22851 -0.26336,0.14262 -0.50216,0.33452 -0.71485,0.57227 -0.2127,0.23775 -0.41453,0.53587 -0.60742,0.89453 -0.19644,0.36524 -0.35102,0.77013 -0.46289,1.21484 -0.11339,0.43961 -0.17514,0.80593 -0.18555,1.10156 l 1.03126,0.55469 0.0273,-0.0488 c -0.0359,-0.4223 -0.015,-0.83969 0.0625,-1.25195 0.0775,-0.41227 0.19909,-0.7753 0.36719,-1.08789 0.10973,-0.20408 0.22608,-0.37796 0.3457,-0.52148 0.11962,-0.14359 0.26022,-0.26193 0.42187,-0.35743 0.15811,-0.0886 0.32438,-0.13867 0.5,-0.13867 0.17233,-0.005 0.3477,0.0412 0.5254,0.13672 0.40147,0.2159 0.62618,0.52873 0.67578,0.94141 0.048,0.40765 -0.0631,0.86312 -0.33204,1.36328 l -0.18554,0.3457 0.82031,0.43945 0.23828,-0.44335 c 0.13096,-0.24353 0.27302,-0.46103 0.42578,-0.65039 0.14946,-0.19115 0.31445,-0.33259 0.4961,-0.42579 0.17835,-0.095 0.37706,-0.1367 0.5957,-0.125 0.21713,0.006 0.45744,0.0811 0.7207,0.22266 0.26654,0.1433 0.46787,0.29925 0.60157,0.46875 0.13547,0.16613 0.23347,0.36257 0.29687,0.5918 0.057,0.21734 0.0585,0.46161 0.002,0.73242 -0.0566,0.2708 -0.14045,0.51145 -0.25195,0.71875 -0.18934,0.35212 -0.44818,0.68314 -0.77344,0.99609 -0.32526,0.31294 -0.65553,0.55961 -0.99023,0.74024 l -0.0391,0.0742 1.03125,0.55468 c 0.25143,-0.19142 0.53205,-0.45913 0.83984,-0.80273 0.31108,-0.34174 0.57549,-0.71498 0.79492,-1.12305 0.21414,-0.39817 0.35754,-0.79283 0.42774,-1.18359 0.0685,-0.39583 0.0527,-0.77971 -0.0449,-1.15039 -0.0887,-0.33198 -0.23889,-0.63407 -0.45312,-0.90625 -0.21422,-0.27219 -0.49052,-0.4992 -0.82617,-0.67969 -0.33894,-0.18229 -0.64336,-0.27987 -0.91211,-0.29297 -0.26875,-0.013 -0.51574,0.0217 -0.74219,0.10352 -0.20114,0.0743 -0.39785,0.19176 -0.58984,0.35156 -0.19527,0.15802 -0.34773,0.30933 -0.45899,0.45312 l -0.0684,-0.0371 c 0.13157,-0.43405 0.12144,-0.87511 -0.0273,-1.32421 -0.15029,-0.45419 -0.42986,-0.79232 -0.83789,-1.01172 -0.29946,-0.16107 -0.59357,-0.23828 -0.88281,-0.23828 z m -20.10547,5.4414 c -0.13485,0.36319 -0.26767,0.72712 -0.39844,1.0918 2.07959,0.75388 4.15903,1.50724 6.23633,2.26758 0.12998,-0.33738 0.26065,-0.67375 0.39453,-1.00977 -2.0758,-0.78753 -4.1543,-1.5685 -6.23242,-2.34961 z m 193.24023,0.4668 c -1.85375,0.80093 -3.70665,1.60463 -5.5625,2.40039 0.13913,0.33897 0.27693,0.67713 0.41211,1.01758 1.84148,-0.76469 3.68004,-1.53677 5.51953,-2.30664 -0.12095,-0.37114 -0.244,-0.74159 -0.36914,-1.11133 z m 4.8418,17.208978 c -1.81916,0.41868 -3.63665,0.84034 -5.45703,1.25391 0.0752,0.35854 0.14799,0.71665 0.21875,1.07617 1.83267,-0.39271 3.66266,-0.79359 5.49414,-1.1914 -0.0831,-0.38004 -0.16843,-0.7596 -0.25586,-1.13868 z m -203.23828,0.12305 c -0.0601,0.38249 -0.11803,0.7653 -0.17383,1.14844 2.02947,0.34352 4.05967,0.68344 6.08789,1.0332 0.0668,-0.35608 0.13575,-0.71131 0.20703,-1.0664 -2.03918,-0.37668 -4.08056,-0.74493 -6.12109,-1.11524 z m 13.23828,11.08203 -0.3418,5.70117 0.97852,0.0586 0.28515,-4.74414 7.10938,4.45508 0.0723,-1.19727 -6.85546,-4.19727 -1.24805,-0.0762 z m 175,3.68164 c -0.48942,0.006 -0.90848,0.0914 -1.25781,0.25977 -0.34928,0.17211 -0.63717,0.42449 -0.86133,0.75586 -0.1911,0.28242 -0.31871,0.56264 -0.38281,0.83984 -0.0641,0.28099 -0.0938,0.59188 -0.0899,0.93555 0.004,0.36243 0.0533,0.69657 0.14649,1.00195 0.0931,0.30531 0.24581,0.63152 0.45898,0.97656 -0.87135,-0.0648 -1.55829,-0.32988 -2.06055,-0.79492 -0.49849,-0.46141 -0.75271,-1.10594 -0.76172,-1.93164 -0.003,-0.24283 0.0201,-0.46353 0.0664,-0.66211 0.05,-0.19857 0.10145,-0.35192 0.15625,-0.46094 l 0,-0.0566 -1.07031,0.0137 c -0.0433,0.13506 -0.0731,0.28687 -0.0899,0.45898 -0.0204,0.17211 -0.0293,0.35646 -0.0273,0.55078 0.008,0.69117 0.12973,1.29153 0.36719,1.80078 0.23747,0.50918 0.57216,0.93048 1.00195,1.26563 0.42228,0.3315 0.93143,0.57676 1.52735,0.73437 0.59595,0.16163 1.25778,0.23652 1.98632,0.22852 0.77336,-0.009 1.40104,-0.1019 1.88477,-0.2793 0.48747,-0.1774 0.88492,-0.42693 1.19141,-0.74805 0.24738,-0.26064 0.4314,-0.56302 0.55078,-0.9082 0.12308,-0.34511 0.18273,-0.71958 0.17773,-1.12305 -0.009,-0.80699 -0.28553,-1.48667 -0.82617,-2.04101 -0.54065,-0.55433 -1.23605,-0.82641 -2.08789,-0.81641 z m 0.0586,1.13672 c 0.60899,-0.007 1.08209,0.14294 1.42188,0.44922 0.33981,0.30998 0.51253,0.73351 0.51953,1.27148 0.003,0.23542 -0.0331,0.45369 -0.10547,0.65625 -0.0687,0.20256 -0.18544,0.39278 -0.35156,0.57032 -0.1919,0.21143 -0.46267,0.37843 -0.8125,0.50195 -0.34983,0.12366 -0.81544,0.18831 -1.39453,0.19531 -0.11955,0.002 -0.21838,-8.1e-4 -0.29688,-0.008 -0.0748,-0.001 -0.15001,-0.008 -0.22851,-0.008 -0.15241,-0.25981 -0.26977,-0.53985 -0.35157,-0.83789 -0.082,-0.29795 -0.1259,-0.59139 -0.1289,-0.88282 -0.003,-0.24655 0.0137,-0.47167 0.0488,-0.67382 0.0388,-0.20221 0.11462,-0.3872 0.22852,-0.55664 0.16541,-0.24104 0.36096,-0.4142 0.58398,-0.51758 0.22303,-0.10345 0.51226,-0.15316 0.86719,-0.16016 z m -167.08008,3.00977 -0.95898,0.0508 0.24414,4.48242 c -0.33347,-0.35232 -0.69525,-0.73133 -1.08398,-1.13672 -0.39245,-0.40525 -0.79361,-0.79594 -1.20703,-1.17383 -0.28757,-0.26504 -0.54882,-0.48805 -0.78321,-0.66992 -0.23459,-0.18558 -0.47171,-0.34558 -0.71094,-0.47851 -0.25474,-0.14331 -0.52027,-0.24725 -0.79687,-0.31055 -0.28054,-0.0678 -0.57937,-0.0914 -0.89648,-0.0742 -0.70515,0.0383 -1.25073,0.31103 -1.63477,0.81836 -0.38777,0.50745 -0.55812,1.18861 -0.51172,2.04297 0.0225,0.41412 0.1001,0.83923 0.23242,1.27734 0.13211,0.43432 0.27106,0.78123 0.41602,1.03906 l 1.17383,-0.0645 -0.002,-0.0547 c -0.26671,-0.36346 -0.47045,-0.73987 -0.61132,-1.1289 -0.14088,-0.38897 -0.21989,-0.75421 -0.23829,-1.09375 -0.0278,-0.5111 0.0738,-0.91401 0.30469,-1.21094 0.22689,-0.30044 0.55747,-0.46303 0.99024,-0.48633 0.47381,-0.0258 0.92286,0.0817 1.34765,0.32422 0.42104,0.24283 0.99761,0.7042 1.73047,1.38281 0.35048,0.32146 0.70524,0.67161 1.0625,1.04883 l 1.07031,1.11914 1.16993,-0.0625 -0.30665,-5.64062 z m 176.94141,15.83203 c -0.0667,0.36087 -0.13586,0.72214 -0.20703,1.08203 1.88297,0.34223 3.76828,0.67473 5.65234,1.01172 0.0608,-0.38638 0.11938,-0.77311 0.17578,-1.16016 -1.87366,-0.31074 -3.74848,-0.61753 -5.62109,-0.93359 z m -193.13086,0.88086 -5.49219,0.79883 c 0.0648,0.39166 0.13187,0.78294 0.20118,1.17382 l 5.51953,-0.87304 z m 188.54492,15.34375 c -0.13156,0.34488 -0.26681,0.6898 -0.40234,1.0332 1.95785,0.7354 3.919,1.46171 5.87891,2.19141 0.13621,-0.36773 0.27032,-0.73622 0.40234,-1.10547 -1.96036,-0.70461 -3.92055,-1.40888 -5.87891,-2.11914 z m -184.8789,0.88281 c -1.53555,0.64369 -3.06936,1.29413 -4.60352,1.94141 0.12221,0.37505 0.24656,0.74941 0.37305,1.12304 1.55059,-0.67527 3.10028,-1.35379 4.65234,-2.02539 -0.14285,-0.34574 -0.28302,-0.69184 -0.42187,-1.03906 z m 165.78711,1.68359 -1.84961,4.1211 0.77734,0.34765 0.69727,-1.55468 6.86132,3.08203 0.35547,-0.79297 c -0.21545,-0.11306 -0.36738,-0.2448 -0.45898,-0.39649 -0.0897,-0.14682 -0.1433,-0.31861 -0.1582,-0.51367 -0.0115,-0.15672 0.0191,-0.36669 0.0918,-0.6289 0.0761,-0.26077 0.16337,-0.4981 0.25977,-0.71289 l -0.69531,-0.3125 -0.71289,1.58593 -5.10157,-2.29101 0.71094,-1.58594 z m -148.13672,1.01172 -0.79297,0.41797 0.57812,1.0957 -4.51172,2.37891 0.48047,0.91211 6.04883,1.37891 1.14063,-0.60157 -1.86328,-3.5332 2.07812,-1.0957 -0.50195,-0.95313 -2.07813,1.09571 z m 0.28711,2.4668 1.50781,2.85937 -4.83984,-1.10351 z m 145.02929,2.54883 -2.88671,4.85547 0.82226,0.49023 2.29492,-3.85937 c 0.0807,0.47838 0.17058,0.99552 0.26758,1.54882 0.10021,0.55516 0.21676,1.10427 0.34961,1.64844 0.0912,0.38023 0.18199,0.71065 0.27539,0.99219 0.0915,0.28482 0.19959,0.54931 0.32422,0.79297 0.13174,0.26091 0.29591,0.49435 0.49023,0.70117 0.19563,0.21197 0.43016,0.40016 0.70313,0.5625 0.60695,0.36099 1.21098,0.4379 1.8125,0.23047 0.60474,-0.20552 1.12516,-0.67673 1.5625,-1.41211 0.21199,-0.35651 0.3854,-0.75392 0.51953,-1.19141 0.13223,-0.43432 0.20912,-0.79896 0.23242,-1.09375 l -1.01172,-0.60156 -0.0273,0.0488 c 0.0191,0.45041 -0.0214,0.8758 -0.12109,1.27734 -0.0997,0.40147 -0.23636,0.74877 -0.41016,1.04102 -0.26163,0.43996 -0.57064,0.71988 -0.92774,0.83789 -0.3558,0.1231 -0.72124,0.0732 -1.09374,-0.14844 -0.40786,-0.24249 -0.71984,-0.58345 -0.9375,-1.02148 -0.21445,-0.43619 -0.43734,-1.13957 -0.66797,-2.11133 -0.11203,-0.46223 -0.21028,-0.94867 -0.29688,-1.46094 -0.0885,-0.50911 -0.17712,-1.01823 -0.26562,-1.52734 l -1.00782,-0.59961 z m -139.66211,0.48437 -0.79101,0.54102 2.53711,3.70508 c -0.46794,-0.12789 -0.97481,-0.26364 -1.51758,-0.40821 -0.54586,-0.14246 -1.09301,-0.26872 -1.64258,-0.37695 -0.38337,-0.0773 -0.72283,-0.13252 -1.01758,-0.16602 -0.29685,-0.0362 -0.58199,-0.0496 -0.85546,-0.0391 -0.29213,0.01 -0.57242,0.059 -0.8418,0.14844 -0.27458,0.0884 -0.54265,0.22294 -0.80469,0.40234 -0.58269,0.39897 -0.906,0.91389 -0.9707,1.54688 -0.0678,0.6351 0.13962,1.30574 0.62304,2.01172 0.23431,0.3422 0.52268,0.66701 0.86329,0.97265 0.33849,0.30257 0.63675,0.5269 0.89453,0.67188 l 0.9707,-0.66602 -0.0312,-0.0449 c -0.41667,-0.17205 -0.78697,-0.38922 -1.10938,-0.64844 -0.32241,-0.25922 -0.57939,-0.52802 -0.77148,-0.80859 -0.28924,-0.42235 -0.41224,-0.81973 -0.36914,-1.19336 0.0378,-0.37459 0.23419,-0.68482 0.5918,-0.92969 0.39153,-0.26807 0.83327,-0.40857 1.32226,-0.42187 0.48591,-0.0112 1.21659,0.082 2.19532,0.28125 0.46647,0.0927 0.9519,0.20697 1.45312,0.34375 l 1.49609,0.40234 0.9668,-0.66211 -3.19141,-4.66211 z m 151.91005,4.14219 c -0.35315,0.60191 -0.71179,1.19991 -1.07812,1.79492 3.77098,2.23192 4.64821,2.93115 8.43175,5.14102 0.42179,-0.67036 0.83588,-1.34553 1.24218,-2.02539 -3.83805,-2.13284 -4.76998,-2.75512 -8.59581,-4.91055 z M 42.32184,170.5835 c -3.3682,2.10734 -4.57977,2.84471 -7.93741,4.97041 0.38661,0.69266 0.78116,1.38086 1.18359,2.06446 3.33604,-2.21399 4.52393,-3.04034 7.87101,-5.23604 -0.37923,-0.59588 -0.75118,-1.19545 -1.11719,-1.79883 z m 157.14853,15.38448 c -0.23845,0.28705 -0.47731,0.57283 -0.71875,0.85742 1.8654,1.53037 3.73547,3.0553 5.60547,4.58008 0.24271,-0.31567 0.4836,-0.63273 0.72265,-0.95118 -1.87091,-1.49365 -3.74293,-2.98718 -5.60937,-4.48632 z m -149.83203,0.91406 c -1.57054,1.39856 -3.13616,2.80235 -4.70313,4.20508 0.26129,0.30034 0.52432,0.59917 0.78906,0.89648 1.55081,-1.41744 3.09991,-2.83662 4.6543,-4.25 -0.24858,-0.28262 -0.49461,-0.56636 -0.74023,-0.85156 z m 120.30664,4.75781 -3.7168,2.56836 0.48438,0.70117 1.40234,-0.96875 4.27539,6.1875 0.71484,-0.49218 c -0.12573,-0.20831 -0.18962,-0.40088 -0.18945,-0.57813 -7.7e-4,-0.17202 0.0426,-0.34695 0.13086,-0.52148 0.0713,-0.14007 0.20631,-0.30351 0.4043,-0.49024 0.20011,-0.18361 0.39812,-0.34081 0.59179,-0.47461 l -0.43359,-0.62695 -1.42969,0.98633 -3.17968,-4.60157 1.42968,-0.98828 z m -91.09571,0.25977 -0.43945,0.73047 1.46094,0.87695 -3.87109,6.44922 0.74609,0.44726 c 0.1378,-0.20057 0.28773,-0.33715 0.44922,-0.41015 0.15635,-0.0718 0.3319,-0.10371 0.52734,-0.0957 0.15698,0.007 0.36147,0.0628 0.61328,0.16602 0.24989,0.1064 0.47592,0.22068 0.67774,0.3418 l 0.39257,-0.6543 -1.49023,-0.89453 2.87891,-4.79492 1.48828,0.89257 0.43945,-0.72851 z m 5.9043,3.44336 -0.39648,0.87304 4.08789,1.85547 c -0.46654,0.13293 -0.96862,0.27815 -1.50781,0.43555 -0.54073,0.16076 -1.07343,0.33726 -1.59961,0.5293 -0.36791,0.13252 -0.68748,0.26097 -0.95704,0.38476 -0.27298,0.12235 -0.52352,0.25943 -0.75195,0.41016 -0.24481,0.15967 -0.46037,0.34661 -0.64453,0.5625 -0.18912,0.21781 -0.34923,0.47249 -0.48047,0.76172 -0.29185,0.64308 -0.30175,1.25114 -0.0293,1.82617 0.2709,0.57838 0.79704,1.04487 1.57618,1.39844 0.37765,0.17142 0.79056,0.29966 1.24023,0.38476 0.44625,0.0836 0.81767,0.12133 1.11328,0.11133 l 0.48632,-1.07227 -0.0508,-0.0234 c -0.44555,0.0688 -0.87314,0.0765 -1.2832,0.0215 -0.41005,-0.0548 -0.77047,-0.15248 -1.08008,-0.29297 -0.46613,-0.21156 -0.77694,-0.49009 -0.9336,-0.83203 -0.16168,-0.34003 -0.15373,-0.70689 0.0254,-1.10156 0.1961,-0.43205 0.50068,-0.7803 0.91211,-1.04492 0.40988,-0.26119 1.08493,-0.56011 2.02539,-0.89649 0.44704,-0.16228 0.92031,-0.31448 1.41993,-0.45703 l 1.48828,-0.43164 0.48437,-1.06641 -5.14453,-2.33593 z m 79.67578,0.33984 c -0.32046,0.0182 -0.6889,0.0852 -1.10547,0.20117 -0.41833,0.11268 -0.82811,0.27603 -1.23047,0.49024 -0.43203,0.23003 -0.77948,0.49319 -1.04101,0.78906 -0.26309,0.30092 -0.45188,0.63101 -0.56641,0.98828 -0.1035,0.33029 -0.13319,0.6844 -0.0918,1.06445 0.0415,0.38001 0.15331,0.74096 0.33593,1.08399 0.23003,0.43206 0.49315,0.75321 0.79102,0.96289 0.29788,0.20983 0.62786,0.33625 0.98828,0.37695 0.34196,0.038 0.68038,0.01 1.01563,-0.084 0.33699,-0.0906 0.70444,-0.24265 1.10351,-0.45508 0.10883,-0.058 0.23597,-0.12924 0.38086,-0.21484 0.14491,-0.0856 0.28513,-0.17302 0.41992,-0.26172 l 1.04297,1.95898 -3.47851,1.85156 0.46093,0.86524 4.4336,-2.35938 -2.02149,-3.79492 c -0.17351,0.14315 -0.38283,0.30646 -0.6289,0.48828 -0.24936,0.18357 -0.51837,0.35331 -0.8086,0.50781 -0.30342,0.16157 -0.59113,0.28023 -0.86328,0.35743 -0.27369,0.0823 -0.52936,0.10616 -0.76758,0.0723 -0.2112,-0.023 -0.40712,-0.0993 -0.58593,-0.22851 -0.18211,-0.12738 -0.34137,-0.31832 -0.47657,-0.57227 -0.13862,-0.26055 -0.22235,-0.50982 -0.25195,-0.74805 -0.0328,-0.23653 -0.0149,-0.46451 0.0547,-0.68359 0.0837,-0.25619 0.2204,-0.47655 0.40625,-0.66016 0.18255,-0.18187 0.39084,-0.33429 0.625,-0.45898 0.34959,-0.18613 0.73612,-0.31623 1.16211,-0.39063 0.42776,-0.0713 0.8238,-0.0939 1.18554,-0.0664 l 0.0684,-0.0371 -0.55664,-1.04297 z m 23.10938,2.53125 c -0.28071,0.24633 -0.56249,0.49101 -0.84571,0.73438 1.5848,1.78505 3.17541,3.56519 4.76563,5.3457 0.30034,-0.26065 0.59917,-0.52302 0.89648,-0.78711 -1.60758,-1.76288 -3.21417,-3.52551 -4.8164,-5.29297 z m -125.66797,0.80664 c -1.39105,1.70075 -2.7757,3.40678 -4.16211,5.11133 0.30648,0.25503 0.61443,0.50829 0.92383,0.75976 1.36681,-1.71645 2.73202,-3.43381 4.10351,-5.14648 -0.28963,-0.23992 -0.57804,-0.48173 -0.86523,-0.72461 z m 110.57773,6.21034 c -0.59157,0.37564 -1.18625,0.74507 -1.78516,1.10742 2.28614,3.66652 3.07534,5.04975 5.38321,8.70373 0.69398,-0.38723 1.38348,-0.78244 2.06836,-1.18555 -2.40206,-3.62782 -3.28594,-4.98476 -5.66641,-8.6256 z m -95.37294,0.63799 c -2.12322,3.60081 -2.84001,4.81297 -4.94307,8.42511 0.67228,0.42314 1.34941,0.83853 2.03125,1.24609 2.0304,-3.66545 2.67328,-4.93088 4.72432,-8.58526 -0.60762,-0.35522 -1.21189,-0.71744 -1.8125,-1.08594 z m 44.00029,-0.39911 c -0.85056,-0.0476 -1.56797,0.15151 -2.1543,0.59766 -0.59006,0.44594 -0.90697,1.028 -0.94727,1.74804 -0.0284,0.50733 0.0861,0.93361 0.34375,1.27735 0.25766,0.34381 0.64262,0.64138 1.15235,0.89453 l -0.002,0.0352 c -0.46661,0.17967 -0.82869,0.44234 -1.08398,0.79102 -0.2555,0.35247 -0.39296,0.71695 -0.41406,1.09375 -0.0345,0.6155 0.1844,1.13748 0.6582,1.56445 0.47379,0.42697 1.12708,0.66414 1.95899,0.71094 0.79459,0.0445 1.46178,-0.12861 2,-0.51758 0.53821,-0.38896 0.82417,-0.89672 0.85937,-1.52344 0.0238,-0.42524 -0.063,-0.78465 -0.25976,-1.08007 -0.20048,-0.29569 -0.51689,-0.57605 -0.95118,-0.83985 l 0.002,-0.0332 c 0.50103,-0.19273 0.89583,-0.47028 1.18554,-0.83203 0.2895,-0.35803 0.44676,-0.7679 0.47266,-1.23047 0.0408,-0.72749 -0.19188,-1.33975 -0.69922,-1.83594 -0.51106,-0.49645 -1.2183,-0.76941 -2.12109,-0.82031 z m 9.38086,0.0566 -4.50977,0.26367 0.0488,0.85156 1.70117,-0.0996 0.43945,7.50781 0.86719,-0.0508 c 7.7e-4,-0.24332 0.0465,-0.44052 0.13867,-0.5918 0.0887,-0.14744 0.21668,-0.27169 0.38282,-0.375 0.13365,-0.0826 0.33344,-0.15258 0.59961,-0.20898 0.26639,-0.0534 0.51697,-0.0879 0.75195,-0.10157 l -0.0449,-0.75976 -1.73438,0.10156 -0.32617,-5.58398 1.73437,-0.10157 -0.0488,-0.85156 z m -9.43946,0.77539 c 0.53345,0.0299 0.96443,0.21868 1.29297,0.56641 0.32855,0.34772 0.47947,0.77373 0.45117,1.27734 -0.0221,0.39543 -0.14232,0.74479 -0.36132,1.04688 -0.22273,0.30187 -0.50752,0.53522 -0.85352,0.69921 -0.33982,-0.14625 -0.61146,-0.26115 -0.81641,-0.34374 -0.20493,-0.0826 -0.39371,-0.16982 -0.56445,-0.26172 -0.42848,-0.23356 -0.71015,-0.45852 -0.84766,-0.67578 -0.14153,-0.21377 -0.20279,-0.49269 -0.18359,-0.83594 0.0274,-0.4887 0.21268,-0.86361 0.55664,-1.125 0.34023,-0.26162 0.78152,-0.37786 1.32617,-0.34766 z m -0.87109,4.02734 c 0.24225,0.0847 0.49101,0.18772 0.74609,0.31055 0.25133,0.12255 0.44581,0.22198 0.58008,0.29688 0.29733,0.17005 0.51611,0.35604 0.6582,0.55859 0.13814,0.20607 0.20055,0.44428 0.18555,0.71289 -0.0213,0.38051 -0.18901,0.67376 -0.5,0.88086 -0.3147,0.20691 -0.70575,0.29759 -1.17578,0.27149 -0.47751,-0.0267 -0.86372,-0.16793 -1.15625,-0.42383 -0.29646,-0.25239 -0.43256,-0.57931 -0.41016,-0.97852 0.0195,-0.3469 0.10708,-0.64933 0.26368,-0.90625 0.1566,-0.25693 0.42548,-0.49707 0.80859,-0.72266 z m 38.57226,5.86719 c -0.34287,0.14125 -0.68682,0.27883 -1.03124,0.41602 0.81408,1.95165 1.63716,3.9002 2.45703,5.84961 0.37571,-0.12285 0.75072,-0.24785 1.125,-0.375 -0.85143,-1.9631 -1.70514,-3.92523 -2.55079,-5.89063 z m -67.56835,0.44531 c -0.70437,1.88699 -1.40057,3.77714 -2.09961,5.66602 0.37032,0.13754 0.74141,0.27296 1.11328,0.40625 0.67528,-1.89049 1.34868,-3.78129 2.02929,-5.66992 -0.34806,-0.13214 -0.69632,-0.26613 -1.04296,-0.40235 z m 51.36523,4.57032 c -0.36278,0.0763 -0.72602,0.1503 -1.08984,0.22265 0.41609,1.92584 0.83996,3.85088 1.26172,5.77539 0.38591,-0.0844 0.77133,-0.17097 1.15624,-0.25976 -0.44395,-1.91254 -0.88973,-3.82436 -1.32812,-5.73828 z m -35.03906,0.22851 c -0.33647,1.87792 -0.665,3.75767 -0.9961,5.63672 0.39093,0.0615 0.78222,0.12074 1.17383,0.17774 0.30643,-1.86866 0.61021,-3.73791 0.92188,-5.60547 -0.36653,-0.0677 -0.73396,-0.13726 -1.09961,-0.20899 z"
       inkscape:connector-curvature="0"
       sodipodi:nodetypes="cccccccccccccccccccccccccccccccccccccccccccccccsccccccccccccccccccccccccccccccccccccccccccccccccccccccccccccccccccccccccccccccccccccccccccccccccccccccccccccccccccccccccscccccccccccccccccccccccccccccccscccccccccccscccccccccccccccccccsccccccccccccccccccccccccccccccccccccccccsccccccccccccccccccccccccccccccccccccccccccccccccccccccccccccccccccccccccccccccccccccccccccccccccccccccccccccccsccccccccccccccccccccccccccccccccccccccccccccccccccccccccccccccccccccccccccccccccccccccccccccccccccccccccccccccccccccccccccccccccccccccccccccccccccccccccccccccccccccccccccccccccccccccccccccccccccccccccccccccccccccccccccccccccccsccccccccccccccccccccccccccccccccccccccccccccccccccccccccccccccccccccccccccccccsccccccccccccccccccccccccccccccccccccccccccccccccccccccccccccccccccccscsccccccccccccccccccccccccccccccccccccccccccccccccccccccccccccccccccc"
       inkscape:label="#path5138" />
  </g>
</svg>
