<?xml version="1.0" encoding="UTF-8" standalone="no"?>
<!-- Created with Inkscape (http://www.inkscape.org/) -->

<svg
   xmlns:dc="http://purl.org/dc/elements/1.1/"
   xmlns:cc="http://creativecommons.org/ns#"
   xmlns:rdf="http://www.w3.org/1999/02/22-rdf-syntax-ns#"
   xmlns:svg="http://www.w3.org/2000/svg"
   xmlns="http://www.w3.org/2000/svg"
   xmlns:xlink="http://www.w3.org/1999/xlink"
   xmlns:sodipodi="http://sodipodi.sourceforge.net/DTD/sodipodi-0.dtd"
   xmlns:inkscape="http://www.inkscape.org/namespaces/inkscape"
   width="250"
   height="250"
   viewBox="0 0 250 250"
   id="gaugeRPM"
   version="1.1"
   inkscape:version="0.91 r13725"
   sodipodi:docname="gaugeRPM.svg">
  <defs
     id="defs4">
    <inkscape:path-effect
       effect="bend_path"
       id="path-effect4812"
       is_visible="true"
       bendpath="m -115.23358,142.30479 a 16.892628,16.892628 0 0 1 -12.37598,-18.52196 16.892628,16.892628 0 0 1 16.74811,-14.6877 16.892628,16.892628 0 0 1 16.748108,14.6877 16.892628,16.892628 0 0 1 -12.375978,18.52196"
       prop_scale="1"
       scale_y_rel="false"
       vertical="false" />
    <inkscape:path-effect
       effect="ruler"
       id="path-effect4810"
       is_visible="true"
       unit="px"
       mark_distance="10"
       mark_length="5"
       minor_mark_length="7"
       major_mark_steps="1"
       shift="0"
       offset="0"
       mark_dir="right"
       border_marks="both" />
    <inkscape:path-effect
       effect="bend_path"
       id="path-effect4180"
       is_visible="true"
       bendpath="M -86.495276,96.981088 A 26.544966,26.544966 0 0 1 -105.9428,67.875807 26.544966,26.544966 0 0 1 -79.624934,44.795655 26.544966,26.544966 0 0 1 -53.307064,67.875806 26.544966,26.544966 0 0 1 -72.75459,96.981088"
       prop_scale="1"
       scale_y_rel="false"
       vertical="false" />
    <inkscape:path-effect
       effect="ruler"
       id="path-effect4178"
       is_visible="true"
       unit="px"
       mark_distance="20"
       mark_length="14"
       minor_mark_length="7"
       major_mark_steps="5"
       shift="0"
       offset="0"
       mark_dir="right"
       border_marks="both" />
    <inkscape:path-effect
       effect="bend_path"
       id="path-effect4176"
       is_visible="true"
       bendpath="m -128.33988,243.67926 157,0"
       prop_scale="1"
       scale_y_rel="false"
       vertical="false" />
    <linearGradient
       inkscape:collect="always"
       id="linearGradient4386">
      <stop
         style="stop-color:#4b413a;stop-opacity:1"
         offset="0"
         id="stop4388" />
      <stop
         style="stop-color:#0d0b09;stop-opacity:1"
         offset="1"
         id="stop4390" />
    </linearGradient>
    <inkscape:path-effect
       effect="bend_path"
       id="path-effect4375"
       is_visible="true"
       bendpath="M 90.275137,271.70687 C 68.572574,249.25108 55.228309,218.72518 55.228307,185.09514 55.228301,116.11085 111.377,60.188038 180.63992,60.188038 c 69.26292,1e-5 125.4116,55.922812 125.4116,124.907102 l 0,0 c 0,33.59507 -13.31652,64.09241 -34.97912,86.54161"
       prop_scale="1"
       scale_y_rel="false"
       vertical="false" />
    <inkscape:path-effect
       effect="ruler"
       id="path-effect3338"
       is_visible="true"
       unit="px"
       mark_distance="11"
       mark_length="26"
       minor_mark_length="13"
       major_mark_steps="5"
       shift="0"
       offset="0"
       mark_dir="right"
       border_marks="none" />
    <inkscape:path-effect
       effect="ruler"
       id="path-effect3338-7"
       is_visible="true"
       unit="px"
       mark_distance="11"
       mark_length="26"
       minor_mark_length="0"
       major_mark_steps="5"
       shift="0"
       offset="0"
       mark_dir="right"
       border_marks="none" />
    <radialGradient
       inkscape:collect="always"
       xlink:href="#linearGradient4386"
       id="radialGradient4392"
       cx="135.16547"
       cy="132.26157"
       fx="135.16547"
       fy="132.26157"
       r="24.163879"
       gradientUnits="userSpaceOnUse"
       gradientTransform="matrix(1.376557,-0.02948344,0.03036212,1.4175814,-71.056629,-67.98131)" />
    <filter
       style="color-interpolation-filters:sRGB"
       inkscape:label="Drop Shadow"
       id="filter4519">
      <feFlood
         flood-opacity="0.419608"
         flood-color="rgb(0,0,0)"
         result="flood"
         id="feFlood4521" />
      <feComposite
         in="flood"
         in2="SourceGraphic"
         operator="in"
         result="composite1"
         id="feComposite4523" />
      <feGaussianBlur
         in="composite1"
         stdDeviation="2"
         result="blur"
         id="feGaussianBlur4525" />
      <feOffset
         dx="2"
         dy="2"
         result="offset"
         id="feOffset4527" />
      <feComposite
         in="SourceGraphic"
         in2="offset"
         operator="over"
         result="composite2"
         id="feComposite4529" />
    </filter>
    <filter
       inkscape:collect="always"
       style="color-interpolation-filters:sRGB"
       id="filter4905"
       x="-0.05780144"
       width="1.1156029"
       y="-0.062372424"
       height="1.1247449">
      <feGaussianBlur
         inkscape:collect="always"
         stdDeviation="3.0546144"
         id="feGaussianBlur4907" />
    </filter>
  </defs>
  <sodipodi:namedview
     id="base"
     pagecolor="#63564d"
     bordercolor="#666666"
     borderopacity="1.0"
     inkscape:pageopacity="1"
     inkscape:pageshadow="2"
     inkscape:zoom="4.7970124"
     inkscape:cx="119.96542"
     inkscape:cy="66.972336"
     inkscape:document-units="px"
     inkscape:current-layer="g4810"
     showgrid="false"
     inkscape:window-width="1920"
     inkscape:window-height="1017"
     inkscape:window-x="-8"
     inkscape:window-y="-8"
     inkscape:window-maximized="1"
     units="px"
     showguides="false" />
  <metadata
     id="metadata7">
    <rdf:RDF>
      <cc:Work
         rdf:about="">
        <dc:format>image/svg+xml</dc:format>
        <dc:type
           rdf:resource="http://purl.org/dc/dcmitype/StillImage" />
        <dc:title />
      </cc:Work>
    </rdf:RDF>
  </metadata>
  <g
     inkscape:label="Layer 1"
     inkscape:groupmode="layer"
     id="layer1">
    <circle
       style="fill:#110e0c;fill-opacity:1;stroke:#000000;stroke-width:7.98756123;stroke-miterlimit:4;stroke-dasharray:none;stroke-opacity:0.24852074"
       id="path4382"
       cy="125"
       cx="125"
       r="111.00622" />
    <g
       transform="translate(-71.771351,35.438125)"
       id="g4810">
      <rect
         style="opacity:1;fill:#000000;fill-opacity:1;stroke:#584335;stroke-width:0.82335013;stroke-linecap:round;stroke-miterlimit:4;stroke-dasharray:none;stroke-dashoffset:0;stroke-opacity:1"
         id="rect4175"
         width="36.012283"
         height="13.033798"
         x="178.76521"
         y="118.19739"
         ry="0"
         rx="0" />
      <text
         sodipodi:linespacing="125%"
         id="rpm"
         y="128.76961"
         x="196.83727"
         style="font-style:normal;font-variant:normal;font-weight:normal;font-stretch:normal;font-size:11.68674755px;line-height:125%;font-family:sans-serif;-inkscape-font-specification:sans-serif;text-align:center;letter-spacing:0px;word-spacing:0px;text-anchor:middle;fill:#b1937e;fill-opacity:1;stroke:none;stroke-width:1px;stroke-linecap:butt;stroke-linejoin:miter;stroke-opacity:1"
         xml:space="preserve"
         inkscape:label="#text4174"><tspan
           style="font-size:11.25px;text-align:center;text-anchor:middle"
           y="128.76961"
           x="196.83727"
           id="tspan4179"
           sodipodi:role="line">9999</tspan></text>
    </g>
    <path
       style="font-style:normal;font-weight:normal;font-size:10px;line-height:125%;font-family:sans-serif;text-align:center;letter-spacing:0px;word-spacing:0px;text-anchor:middle;fill:#b1937e;fill-opacity:1;stroke:none;stroke-width:1px;stroke-linecap:butt;stroke-linejoin:miter;stroke-opacity:1"
       d="M 126.0332 72.707031 C 125.17058 72.707031 124.53581 73.016276 124.12891 73.634766 C 123.722 74.25 123.51758 75.203776 123.51758 76.496094 C 123.51758 77.778646 123.71875 78.729166 124.11914 79.347656 C 124.52279 79.966146 125.16081 80.275391 126.0332 80.275391 C 126.89258 80.275391 127.52473 79.972005 127.93164 79.363281 C 128.34179 78.751302 128.54688 77.791667 128.54688 76.486328 C 128.54687 75.220052 128.34505 74.275391 127.94141 73.650391 C 127.54102 73.022136 126.9056 72.707031 126.0332 72.707031 z M 132.40039 72.707031 C 131.53776 72.707031 130.90299 73.016276 130.49609 73.634766 C 130.08919 74.25 129.88477 75.203776 129.88477 76.496094 C 129.88477 77.778646 130.08593 78.729166 130.48633 79.347656 C 130.88997 79.966146 131.528 80.275391 132.40039 80.275391 C 133.25976 80.275391 133.89193 79.972005 134.29883 79.363281 C 134.70899 78.751302 134.91406 77.791667 134.91406 76.486328 C 134.91406 75.220052 134.71224 74.275391 134.30859 73.650391 C 133.9082 73.022136 133.27278 72.707031 132.40039 72.707031 z M 138.76758 72.707031 C 137.90494 72.707031 137.27018 73.016276 136.86328 73.634766 C 136.45638 74.25 136.25195 75.203776 136.25195 76.496094 C 136.25195 77.778646 136.45313 78.729166 136.85352 79.347656 C 137.25716 79.966146 137.89518 80.275391 138.76758 80.275391 C 139.62695 80.275391 140.25912 79.972005 140.66602 79.363281 C 141.07618 78.751302 141.28125 77.791667 141.28125 76.486328 C 141.28125 75.220052 141.07943 74.275391 140.67578 73.650391 C 140.27539 73.022136 139.63997 72.707031 138.76758 72.707031 z M 119.5332 72.830078 C 119.52018 73.041667 119.47071 73.210938 119.38281 73.337891 C 119.29818 73.461589 119.18099 73.563151 119.03125 73.644531 C 118.9108 73.709636 118.73242 73.761068 118.49805 73.796875 C 118.26367 73.829428 118.04492 73.845703 117.83984 73.845703 L 117.83984 74.509766 L 119.35352 74.509766 L 119.35352 79.382812 L 117.83984 79.382812 L 117.83984 80.125 L 121.77539 80.125 L 121.77539 79.382812 L 120.29102 79.382812 L 120.29102 72.830078 L 119.5332 72.830078 z M 126.0332 73.513672 C 126.34245 73.513672 126.59375 73.576172 126.78906 73.703125 C 126.98763 73.830078 127.14388 74.01888 127.25781 74.269531 C 127.37499 74.523437 127.45312 74.832682 127.49219 75.197266 C 127.53452 75.561849 127.55664 75.991537 127.55664 76.486328 C 127.55664 76.987631 127.53452 77.417318 127.49219 77.775391 C 127.45313 78.130208 127.37761 78.439453 127.26367 78.703125 C 127.153 78.960286 126.99675 79.152344 126.79492 79.279297 C 126.5931 79.40625 126.3392 79.470703 126.0332 79.470703 C 125.70768 79.470703 125.44466 79.402995 125.24609 79.269531 C 125.05078 79.136067 124.90039 78.943359 124.79297 78.689453 C 124.67578 78.41927 124.5983 78.113281 124.5625 77.771484 C 124.5267 77.429688 124.50977 77.003906 124.50977 76.496094 C 124.50977 76.033854 124.52929 75.610026 124.56836 75.222656 C 124.61067 74.835286 124.68619 74.520182 124.79688 74.279297 C 124.91406 74.022136 125.07292 73.830078 125.27148 73.703125 C 125.47331 73.576172 125.72722 73.513672 126.0332 73.513672 z M 132.40039 73.513672 C 132.70964 73.513672 132.96094 73.576172 133.15625 73.703125 C 133.35482 73.830078 133.51107 74.01888 133.625 74.269531 C 133.74218 74.523437 133.82031 74.832682 133.85938 75.197266 C 133.90171 75.561849 133.92383 75.991537 133.92383 76.486328 C 133.92383 76.987631 133.90171 77.417318 133.85938 77.775391 C 133.82031 78.130208 133.74479 78.439453 133.63086 78.703125 C 133.52018 78.960286 133.36393 79.152344 133.16211 79.279297 C 132.96028 79.40625 132.70638 79.470703 132.40039 79.470703 C 132.07487 79.470703 131.81185 79.402995 131.61328 79.269531 C 131.41797 79.136067 131.26758 78.943359 131.16016 78.689453 C 131.04296 78.41927 130.96549 78.113281 130.92969 77.771484 C 130.89389 77.429688 130.87695 77.003906 130.87695 76.496094 C 130.87695 76.033854 130.89648 75.610026 130.93555 75.222656 C 130.97786 74.835286 131.05338 74.520182 131.16406 74.279297 C 131.28125 74.022136 131.44011 73.830078 131.63867 73.703125 C 131.8405 73.576172 132.0944 73.513672 132.40039 73.513672 z M 138.76758 73.513672 C 139.07682 73.513672 139.32812 73.576172 139.52344 73.703125 C 139.722 73.830078 139.87825 74.01888 139.99219 74.269531 C 140.10937 74.523437 140.1875 74.832682 140.22656 75.197266 C 140.2689 75.561849 140.29102 75.991537 140.29102 76.486328 C 140.29102 76.987631 140.2689 77.417318 140.22656 77.775391 C 140.1875 78.130208 140.11197 78.439453 139.99805 78.703125 C 139.88737 78.960286 139.73112 79.152344 139.5293 79.279297 C 139.32747 79.40625 139.07356 79.470703 138.76758 79.470703 C 138.44206 79.470703 138.17904 79.402995 137.98047 79.269531 C 137.78516 79.136067 137.63477 78.943359 137.52734 78.689453 C 137.41015 78.41927 137.33267 78.113281 137.29688 77.771484 C 137.26108 77.429688 137.24414 77.003906 137.24414 76.496094 C 137.24414 76.033854 137.26367 75.610026 137.30273 75.222656 C 137.34505 74.835286 137.42057 74.520182 137.53125 74.279297 C 137.64844 74.022136 137.80729 73.830078 138.00586 73.703125 C 138.20768 73.576172 138.46158 73.513672 138.76758 73.513672 z M 110.87695 74.669922 L 112.98633 77.404297 L 110.85742 80.125 L 111.92578 80.125 L 113.48438 78.029297 L 115.03125 80.125 L 116.18945 80.125 L 114.04492 77.355469 L 116.18945 74.669922 L 115.11523 74.669922 L 113.57227 76.730469 L 112.0332 74.669922 L 110.87695 74.669922 z M 116.52148 85.353516 L 116.52148 92.625 L 117.48828 92.625 L 117.48828 89.734375 L 118.84961 89.734375 L 121.28125 92.625 L 122.53711 92.625 L 119.80273 89.445312 C 120.26497 89.266276 120.62695 89.001953 120.89062 88.650391 C 121.1543 88.295573 121.28711 87.85612 121.28711 87.332031 C 121.28711 86.944661 121.21224 86.625651 121.0625 86.375 C 120.91601 86.121093 120.71094 85.910156 120.44727 85.744141 C 120.21289 85.597658 119.94922 85.496746 119.65625 85.441406 C 119.36328 85.382813 118.99609 85.353516 118.55664 85.353516 L 116.52148 85.353516 z M 123.47461 85.353516 L 123.47461 92.625 L 124.44141 92.625 L 124.44141 89.914062 L 125.4082 89.914062 C 125.92904 89.914062 126.35937 89.852214 126.70117 89.728516 C 127.04297 89.601562 127.33919 89.41276 127.58984 89.162109 C 127.79166 88.960286 127.94791 88.722656 128.05859 88.449219 C 128.17253 88.172526 128.23047 87.873047 128.23047 87.550781 C 128.23047 87.127604 128.15299 86.778646 128 86.501953 C 127.85026 86.22526 127.63802 85.994141 127.36133 85.808594 C 127.12695 85.652344 126.85742 85.538411 126.55469 85.466797 C 126.25195 85.391927 125.88347 85.353516 125.44727 85.353516 L 123.47461 85.353516 z M 129.50977 85.353516 L 129.50977 92.625 L 130.41211 92.625 L 130.41211 86.359375 L 132.41992 90.623047 L 132.99609 90.623047 L 135.01758 86.359375 L 135.01758 92.625 L 135.98438 92.625 L 135.98438 85.353516 L 134.64062 85.353516 L 132.76562 89.402344 L 130.82812 85.353516 L 129.50977 85.353516 z M 117.48828 86.183594 L 118.625 86.183594 C 118.88541 86.183594 119.11263 86.203128 119.30469 86.242188 C 119.49674 86.277995 119.66276 86.343099 119.80273 86.4375 C 119.97201 86.548177 120.09245 86.684896 120.16406 86.847656 C 120.23894 87.007161 120.27539 87.192057 120.27539 87.400391 C 120.27539 87.673829 120.23959 87.899089 120.16797 88.078125 C 120.09962 88.253906 119.99219 88.410156 119.8457 88.546875 C 119.6862 88.693358 119.49349 88.794269 119.26562 88.849609 C 119.03776 88.901696 118.77084 88.927734 118.46484 88.927734 L 117.48828 88.927734 L 117.48828 86.183594 z M 124.44141 86.183594 L 125.39844 86.183594 C 125.70442 86.183594 125.95573 86.20638 126.1543 86.251953 C 126.35612 86.294271 126.53516 86.365886 126.69141 86.466797 C 126.87045 86.583984 127.00391 86.736328 127.0918 86.921875 C 127.17969 87.107422 127.22461 87.325521 127.22461 87.576172 C 127.22461 87.791015 127.19209 87.983724 127.12695 88.15625 C 127.06511 88.328776 126.95768 88.494141 126.80469 88.650391 C 126.65169 88.803386 126.45312 88.914714 126.20898 88.986328 C 125.96484 89.054687 125.64649 89.089844 125.25586 89.089844 L 124.44141 89.089844 L 124.44141 86.183594 z "
       id="path4195" />
    <path
       style="color:#000000;font-style:normal;font-variant:normal;font-weight:normal;font-stretch:normal;font-size:medium;line-height:normal;font-family:sans-serif;text-indent:0;text-align:start;text-decoration:none;text-decoration-line:none;text-decoration-style:solid;text-decoration-color:#000000;letter-spacing:normal;word-spacing:normal;text-transform:none;direction:ltr;block-progression:tb;writing-mode:lr-tb;baseline-shift:baseline;text-anchor:start;white-space:normal;clip-rule:nonzero;display:inline;overflow:visible;visibility:visible;opacity:1;isolation:auto;mix-blend-mode:normal;color-interpolation:sRGB;color-interpolation-filters:linearRGB;solid-color:#000000;solid-opacity:1;fill:#126612;fill-opacity:1;fill-rule:nonzero;stroke:none;stroke-width:5.31496048;stroke-linecap:butt;stroke-linejoin:miter;stroke-miterlimit:4;stroke-dasharray:none;stroke-dashoffset:0;stroke-opacity:1;color-rendering:auto;image-rendering:auto;shape-rendering:auto;text-rendering:auto;enable-background:accumulate"
       d="M 46.429293,104.46996 C 56.341425,70.539809 87.74828,45.767999 124.99931,45.767999 c 37.19126,0 68.55811,24.69238 78.52353,58.538701 L 207.4,103.02077 C 196.8773,67.565719 163.94989,41.676569 124.99931,41.676569 c -38.950569,0 -71.876986,25.88916 -82.399312,61.344221 z"
       id="path4373"
       inkscape:connector-curvature="0"
       sodipodi:nodetypes="csccscc" />
    <path
       style="color:#000000;font-style:normal;font-variant:normal;font-weight:normal;font-stretch:normal;font-size:medium;line-height:normal;font-family:sans-serif;text-indent:0;text-align:start;text-decoration:none;text-decoration-line:none;text-decoration-style:solid;text-decoration-color:#000000;letter-spacing:normal;word-spacing:normal;text-transform:none;direction:ltr;block-progression:tb;writing-mode:lr-tb;baseline-shift:baseline;text-anchor:start;white-space:normal;clip-rule:nonzero;display:inline;overflow:visible;visibility:visible;opacity:1;isolation:auto;mix-blend-mode:normal;color-interpolation:sRGB;color-interpolation-filters:linearRGB;solid-color:#000000;solid-opacity:1;fill:#b1937e;fill-opacity:1;fill-rule:evenodd;stroke:none;stroke-width:3;stroke-linecap:butt;stroke-linejoin:miter;stroke-miterlimit:4;stroke-dasharray:none;stroke-dashoffset:0;stroke-opacity:0.35503001;color-rendering:auto;image-rendering:auto;shape-rendering:auto;text-rendering:auto;enable-background:accumulate"
       d="m 128.99453,40.925719 -0.3986,8.5979 c 0.23853,0.011 0.47626,0.0226 0.71468,0.0358 l 0.47801,-8.59323 c -0.2647,-0.0147 -0.52924,-0.0282 -0.79409,-0.0405 z m -8.05761,0.003 c -0.26483,0.0124 -0.52939,0.0272 -0.79408,0.042 l 0.48268,8.59167 c 0.23842,-0.0134 0.4777,-0.0246 0.71623,-0.0358 l -0.40483,-8.5979 z m 16.86104,0.85481 -1.26897,8.51382 c 0.23617,0.0352 0.47103,0.07 0.70688,0.10743 l 1.34839,-8.49825 c -0.26176,-0.0415 -0.52418,-0.0839 -0.7863,-0.123 z m -25.66447,0.0109 c -0.26209,0.0393 -0.52456,0.0813 -0.7863,0.12301 l 1.35462,8.49825 c 0.23581,-0.0376 0.4723,-0.0751 0.70845,-0.11055 l -1.27677,-8.51071 z m 33.55236,1.54458 -4.10431,16.71312 c 0.62604,0.15366 1.24878,0.31629 1.86998,0.48735 l 4.57143,-16.59012 c -0.77624,-0.21397 -1.55544,-0.41823 -2.3371,-0.61035 z m -41.43869,0.0171 c -0.78153,0.19273 -1.56103,0.39578 -2.3371,0.61035 l 4.58544,16.587 c 0.62105,-0.17154 1.24408,-0.33476 1.86999,-0.4889 l -4.11833,-16.70845 z m 50.68277,2.81355 -2.98015,8.07318 c 0.22398,0.0827 0.44633,0.1659 0.66952,0.25068 l 3.05644,-8.04516 c -0.24842,-0.0943 -0.49659,-0.18675 -0.74581,-0.2787 z m -59.923732,0.0234 c -0.24915,0.0922 -0.49747,0.18422 -0.74581,0.27871 l 3.06112,8.0436 c 0.22312,-0.085 0.44715,-0.16938 0.67107,-0.25224 l -2.98638,-8.07007 z m 68.070092,3.47684 -3.80538,7.71818 c 0.21417,0.10558 0.42833,0.21319 0.6415,0.32075 l 3.87544,-7.68392 c -0.23695,-0.11956 -0.47349,-0.23764 -0.71156,-0.35501 z m -76.214892,0.0296 c -0.23798,0.11755 -0.47473,0.23682 -0.71157,0.35656 l 3.88323,7.67925 c 0.21309,-0.10773 0.42586,-0.21345 0.63994,-0.31919 l -3.8116,-7.71662 z m 83.943972,4.28805 -4.57766,7.28844 c 0.2022,0.127 0.40465,0.25573 0.60568,0.38459 l 4.64461,-7.24641 c -0.22323,-0.14307 -0.44807,-0.2856 -0.67263,-0.42662 z m -91.668382,0.0358 c -0.22443,0.14119 -0.44951,0.28339 -0.67263,0.42662 l 4.64928,7.24174 c 0.20092,-0.12902 0.40357,-0.25744 0.60568,-0.38459 l -4.58233,-7.28377 z m 98.911662,5.04788 -5.297,6.7824 c 0.1882,0.14698 0.3768,0.29506 0.56364,0.44376 l 5.35773,-6.73258 c -0.20747,-0.16513 -0.4154,-0.33037 -0.62437,-0.49358 z m -106.153392,0.0405 c -0.20885,0.16336 -0.41548,0.32829 -0.62281,0.49358 l 5.36396,6.72947 c 0.18672,-0.14885 0.37401,-0.29664 0.56208,-0.44375 l -5.30323,-6.7793 z m 112.255382,5.20047 -11.8116,12.52005 c 0.44981,0.4244 0.89491,0.85453 1.33281,1.29078 0.0182,0.0181 0.0363,0.0363 0.0545,0.0545 l 12.16038,-12.18217 c -0.0227,-0.0227 -0.0473,-0.0458 -0.0701,-0.0685 -0.54829,-0.54599 -1.10343,-1.08389 -1.66602,-1.61464 z m -118.352695,0.0467 c -0.545977,0.51588 -1.085265,1.03768 -1.617753,1.56792 -0.03858,0.0384 -0.07669,0.0767 -0.115219,0.11522 l 12.169715,12.17283 c 0.0308,-0.0308 0.0595,-0.0612 0.0903,-0.0919 0.42527,-0.42367 0.85737,-0.84246 1.29389,-1.25496 L 65.797945,64.358979 Z m 124.999635,6.97236 -6.57221,5.55703 c 0.15417,0.18235 0.30841,0.36431 0.46089,0.54807 l 6.62203,-5.49474 c -0.16938,-0.20414 -0.33944,-0.4078 -0.51071,-0.61036 z m -131.640356,0.0514 c -0.171115,0.20269 -0.341477,0.40609 -0.510704,0.61035 l 6.626702,5.49007 c 0.152344,-0.18389 0.305295,-0.3656 0.459329,-0.54807 l -6.575327,-5.55235 z m 137.001196,6.99416 -7.10626,4.85325 c 0.13468,0.19717 0.26885,0.39482 0.40171,0.59323 l 7.15142,-4.78786 c -0.14756,-0.22041 -0.29727,-0.43959 -0.44687,-0.65862 z m -142.357367,0.0545 c -0.149416,0.21915 -0.297917,0.43965 -0.44531,0.66017 l 7.154538,4.78164 c 0.132702,-0.19851 0.267177,-0.39596 0.401712,-0.59323 l -7.11094,-4.84858 z m 146.969287,7.50486 -7.56715,4.09809 c 0.11368,0.20997 0.22616,0.41958 0.33787,0.6306 l 7.60452,-4.02647 c -0.12423,-0.23465 -0.24887,-0.46876 -0.37524,-0.70222 z m -151.574971,0.0592 c -0.126198,0.23357 -0.251207,0.46747 -0.375243,0.70222 l 7.607631,4.02023 c 0.111545,-0.2111 0.224364,-0.42054 0.337875,-0.63059 l -7.570263,-4.09186 z m 155.385021,7.95017 -7.9533,3.28377 c 0.0911,0.2207 0.18036,0.44174 0.26936,0.66329 l 7.98599,-3.20747 c -0.0991,-0.24693 -0.20059,-0.49355 -0.30205,-0.73959 z m -159.188837,0.0623 c -0.101272,0.24611 -0.201591,0.49258 -0.300506,0.73958 l 7.985989,3.20125 c 0.08884,-0.22162 0.179974,-0.4425 0.270923,-0.66329 l -7.956406,-3.27754 z m 161.904287,7.528221 -16.45933,5.02141 c 0.18758,0.61523 0.36706,1.23221 0.53717,1.85286 l 16.59635,-4.55119 c -0.21324,-0.77725 -0.43893,-1.55188 -0.67419,-2.32308 z m -164.613513,0.0639 c -0.234657,0.77138 -0.459995,1.54722 -0.672635,2.32463 l 16.601016,4.53718 c 0.169627,-0.62078 0.348511,-1.23904 0.535617,-1.85442 l -16.463998,-5.00744 z m 166.908563,9.32965 -8.46243,1.56637 c 0.0434,0.2348 0.0864,0.47014 0.12768,0.70533 l 8.47645,-1.48852 c -0.0459,-0.26133 -0.0934,-0.52227 -0.1417,-0.78318 z m -169.195834,0.0654 c -0.04812,0.26095 -0.09599,0.52338 -0.141689,0.78475 l 8.478008,1.48073 c 0.0411,-0.23523 0.08285,-0.47052 0.126119,-0.70534 l -8.462438,-1.56014 z m 170.358934,8.71468 -8.57921,0.68665 c 0.019,0.23802 0.0376,0.47647 0.0545,0.71467 l 8.58388,-0.6088 c -0.0187,-0.26473 -0.0379,-0.52799 -0.0591,-0.79252 z m -171.514248,0.0654 c -0.021,0.26455 -0.04063,0.5309 -0.05917,0.79564 l 8.583887,0.59945 c 0.01669,-0.2382 0.0356,-0.47507 0.0545,-0.71311 l -8.579215,-0.68194 z m 163.159248,8.58856 c -0.006,0.23864 -0.0136,0.47769 -0.0218,0.71623 l 8.59635,0.29428 c 0.009,-0.2662 0.0195,-0.53237 0.0265,-0.79875 l -8.60101,-0.21176 z m -154.798016,0.0591 -8.601014,0.21954 c 0.0071,0.26637 0.01684,0.53257 0.02647,0.79875 l 8.596343,-0.30206 c -0.0084,-0.23853 -0.01573,-0.47761 -0.02179,-0.71623 z m 154.178316,7.8801 c -0.0311,0.23653 -0.0647,0.47223 -0.0981,0.70846 l 8.51382,1.20202 c 0.0371,-0.26285 0.0744,-0.52616 0.10899,-0.78941 l -8.52472,-1.12107 z m -153.552391,0.0592 -8.523163,1.12884 c 0.03484,0.26322 0.07171,0.52503 0.108992,0.78786 l 8.512264,-1.20825 c -0.03351,-0.2362 -0.0668,-0.47195 -0.09809,-0.70845 z m 143.887931,5.14442 c -0.14385,0.62781 -0.29633,1.25381 -0.45777,1.87777 l 16.65395,4.30206 c 0.20089,-0.77874 0.39074,-1.56056 0.56988,-2.34488 l -16.76606,-3.83495 z m -134.220354,0.0529 -16.76139,3.84741 c 0.179755,0.78417 0.369936,1.56474 0.571429,2.34332 l 16.649284,-4.31452 c -0.161928,-0.62384 -0.314972,-1.2485 -0.459323,-1.87621 z m 140.196224,10.2172 c -0.0787,0.22533 -0.15748,0.44958 -0.23823,0.67419 l 8.09343,2.91165 c 0.0895,-0.24916 0.17744,-0.49895 0.26469,-0.74893 l -8.11989,-2.83691 z m -146.162749,0.056 -8.119893,2.84313 c 0.08745,0.2499 0.176531,0.49983 0.266251,0.74893 l 8.093424,-2.91631 c -0.08092,-0.22455 -0.16091,-0.45049 -0.239782,-0.67575 z m 143.159239,7.32269 c -0.10106,0.21624 -0.20371,0.43241 -0.30673,0.64773 l 7.76022,3.71195 c 0.11432,-0.23884 0.2273,-0.47794 0.33943,-0.71779 l -7.79292,-3.64189 z m -140.149508,0.0545 -7.79136,3.64811 c 0.11231,0.23977 0.226492,0.47905 0.340989,0.71779 l 7.755549,-3.71817 c -0.103186,-0.21523 -0.203955,-0.43157 -0.305178,-0.64773 z m 136.415758,6.98177 c -0.12245,0.20482 -0.24624,0.40978 -0.37057,0.61347 l 7.33983,4.47956 c 0.13814,-0.22616 0.275,-0.45146 0.41105,-0.67886 l -7.38031,-4.41417 z m -132.677337,0.0529 -7.378748,4.41728 c 0.136213,0.2273 0.274298,0.45592 0.412612,0.68198 l 7.336708,-4.48734 c -0.124491,-0.20359 -0.247958,-0.40718 -0.370572,-0.61192 z m 117.273677,6.35579 c -0.43184,0.47342 -0.87023,0.93984 -1.31569,1.39976 l 12.38459,11.95174 c 0.5612,-0.58331 1.11325,-1.17338 1.65667,-1.7719 l -12.72557,-11.5796 z m -101.865342,0.0389 -12.717795,11.59051 c 0.543888,0.59811 1.096577,1.18746 1.658235,1.77034 l 12.3768,-11.96108 c -0.44581,-0.45956 -0.88504,-0.92669 -1.31724,-1.39977 z m 112.834592,0.16816 c -0.1429,0.19108 -0.28661,0.38326 -0.4313,0.57299 l 6.83847,5.21448 c 0.16101,-0.21117 0.32057,-0.4242 0.47956,-0.63682 l -6.88673,-5.15065 z m -123.8054,0.0483 -6.882059,5.15688 c 0.159159,0.21249 0.31995,0.42265 0.481122,0.6337 l 6.833791,-5.21915 c -0.144843,-0.18962 -0.289813,-0.38046 -0.432854,-0.57143 z"
       id="path4370"
       inkscape:connector-curvature="0" />
    <circle
       style="fill:url(#radialGradient4392);fill-opacity:1;stroke:none;stroke-width:3.38796711;stroke-miterlimit:4;stroke-dasharray:none;stroke-opacity:0.35503001;filter:url(#filter4519)"
       id="center"
       cx="125"
       cy="125"
       r="24.163879"
       inkscape:label="#path4384" />
    <g
       id="g4909"
       style="fill:#b1937e;fill-opacity:1"
       transform="matrix(0.79660211,0,0,0.79660211,-19.291384,-22.607001)">
      <path
         d="m 98.10262,268.11904 q 0,5.23042 -1.73348,7.68258 -1.71972,2.43913 -5.35177,2.43913 -3.68707,0 -5.39303,-2.47826 -1.69221,-2.47825 -1.69221,-7.61736 0,-5.17825 1.71972,-7.64346 1.71972,-2.47825 5.36552,-2.47825 3.68708,0 5.37928,2.51738 1.70597,2.50434 1.70597,7.57824 z m -3.61829,5.92172 q 0.48152,-1.05652 0.64661,-2.47825 0.17885,-1.43478 0.17885,-3.44347 0,-1.9826 -0.17885,-3.44347 -0.16509,-1.46086 -0.66037,-2.47825 -0.48152,-1.00435 -1.32075,-1.51304 -0.82546,-0.5087 -2.13245,-0.5087 -1.29323,0 -2.1462,0.5087 -0.83923,0.50869 -1.33451,1.53912 -0.46776,0.96522 -0.64661,2.51739 -0.16509,1.55217 -0.16509,3.40434 0,2.03477 0.15133,3.40433 0.15134,1.36957 0.64662,2.45217 0.45401,1.01739 1.27947,1.55217 0.83922,0.53478 2.21499,0.53478 1.29324,0 2.14621,-0.5087 0.85298,-0.50869 1.32075,-1.53912 z"
         id="path4422"
         inkscape:connector-curvature="0"
         style="font-style:normal;font-weight:normal;font-size:medium;line-height:125%;font-family:sans-serif;letter-spacing:0px;word-spacing:0px;fill:#b1937e;fill-opacity:1;stroke:none;stroke-width:1px;stroke-linecap:butt;stroke-linejoin:miter;stroke-opacity:1" />
      <path
         d="m 71.732801,221.73233 -11.08875,0 0,-1.9826 4.26491,0 0,-13.01735 -4.26491,0 0,-1.77391 q 0.86674,0 1.8573,-0.13043 0.99056,-0.14348 1.4996,-0.40435 0.63285,-0.32609 0.99056,-0.82174 0.37146,-0.50869 0.42648,-1.35652 l 2.13246,0 0,17.5043 4.18235,0 0,1.9826 z"
         id="path4424"
         inkscape:connector-curvature="0"
         style="font-style:normal;font-weight:normal;font-size:medium;line-height:125%;font-family:sans-serif;letter-spacing:0px;word-spacing:0px;fill:#b1937e;fill-opacity:1;stroke:none;stroke-width:1px;stroke-linecap:butt;stroke-linejoin:miter;stroke-opacity:1" />
      <path
         d="m 71.978859,162.05212 -13.86781,0 0,-2.72608 q 1.44456,-1.17391 2.88912,-2.34782 1.45832,-1.17391 2.71027,-2.33477 2.64149,-2.42608 3.61829,-3.84782 0.97681,-1.43478 0.97681,-3.09129 0,-1.51304 -1.05934,-2.36086 -1.0456,-0.86087 -2.93041,-0.86087 -1.25195,0 -2.71028,0.41739 -1.45832,0.41739 -2.84785,1.27826 l -0.13758,0 0,-2.73913 q 0.9768,-0.45652 2.60021,-0.83478 1.63718,-0.37825 3.16429,-0.37825 3.15052,0 4.93902,1.44782 1.78852,1.43477 1.78852,3.89998 0,1.1087 -0.30267,2.07391 -0.28892,0.95217 -0.86674,1.81304 -0.53655,0.80869 -1.26571,1.5913 -0.71541,0.7826 -1.74724,1.73477 -1.47208,1.36957 -3.04046,2.66087 -1.56839,1.27825 -2.9304,2.3739 l 11.01996,0 0,2.23043 z"
         id="path4426"
         inkscape:connector-curvature="0"
         style="font-style:normal;font-weight:normal;font-size:medium;line-height:125%;font-family:sans-serif;letter-spacing:0px;word-spacing:0px;fill:#b1937e;fill-opacity:1;stroke:none;stroke-width:1px;stroke-linecap:butt;stroke-linejoin:miter;stroke-opacity:1" />
      <path
         d="m 104.89285,96.94108 q 0.66036,0.56087 1.08686,1.4087 0.42649,0.84782 0.42649,2.1913 0,1.33042 -0.50904,2.43912 -0.50904,1.10869 -1.43081,1.93042 -1.03183,0.91304 -2.43511,1.35652 -1.38953,0.43044 -3.05423,0.43044 -1.70596,0 -3.35689,-0.39131 -1.65093,-0.37826 -2.71028,-0.83478 l 0,-2.72607 0.20637,0 q 1.16942,0.73043 2.75155,1.21303 1.58214,0.48261 3.05422,0.48261 0.86674,0 1.84355,-0.27391 0.97679,-0.27391 1.58213,-0.80869 0.63286,-0.57392 0.93554,-1.26522 0.31641,-0.6913 0.31641,-1.74782 0,-1.04347 -0.3577,-1.72173 -0.34394,-0.6913 -0.96304,-1.08261 -0.61909,-0.40434 -1.49959,-0.54782 -0.88049,-0.15652 -1.89857,-0.15652 l -1.2382,0 0,-2.16521 0.96305,0 q 2.09117,0 3.32937,-0.82174 1.25196,-0.83478 1.25196,-2.42608 0,-0.70435 -0.31644,-1.22608 -0.31642,-0.53478 -0.88049,-0.87391 -0.59159,-0.33913 -1.26571,-0.46956 -0.67413,-0.13044 -1.52712,-0.13044 -1.30697,0 -2.77906,0.44348 -1.47208,0.44347 -2.77906,1.25217 l -0.13758,0 0,-2.72608 q 0.97681,-0.45652 2.60021,-0.83478 1.63718,-0.3913 3.16428,-0.3913 1.49961,0 2.64149,0.26086 1.14189,0.26087 2.06367,0.83478 0.99056,0.62609 1.49959,1.51304 0.50904,0.88696 0.50904,2.07391 0,1.61738 -1.21068,2.83043 -1.19693,1.19999 -2.8341,1.51303 l 0,0.18261 q 0.66037,0.10435 1.51336,0.44348 0.85297,0.32608 1.44456,0.82173 z"
         id="path4428"
         inkscape:connector-curvature="0"
         style="font-style:normal;font-weight:normal;font-size:medium;line-height:125%;font-family:sans-serif;letter-spacing:0px;word-spacing:0px;fill:#b1937e;fill-opacity:1;stroke:none;stroke-width:1px;stroke-linecap:butt;stroke-linejoin:miter;stroke-opacity:1" />
      <path
         d="m 155.57455,72.60467 -3.04046,0 0,5.4652 -2.64149,0 0,-5.4652 -9.80927,0 0,-2.99999 9.91933,-10.95649 2.53143,0 0,11.86953 3.04046,0 0,2.08695 z m -5.68195,-2.08695 0,-8.76519 -7.93822,8.76519 7.93822,0 z"
         id="path4430"
         inkscape:connector-curvature="0"
         style="font-style:normal;font-weight:normal;font-size:medium;line-height:125%;font-family:sans-serif;letter-spacing:0px;word-spacing:0px;fill:#b1937e;fill-opacity:1;stroke:none;stroke-width:1px;stroke-linecap:butt;stroke-linejoin:miter;stroke-opacity:1" />
      <path
         d="m 218.00058,70.42571 q 0,1.35651 -0.5228,2.59564 -0.52278,1.23912 -1.4308,2.08695 -0.99056,0.91304 -2.36633,1.40869 -1.36203,0.48261 -3.16429,0.48261 -1.67844,0 -3.23307,-0.33913 -1.55462,-0.32609 -2.62772,-0.79565 l 0,-2.75217 0.19261,0 q 1.12813,0.67826 2.64148,1.16087 1.51335,0.46956 2.97168,0.46956 0.97679,0 1.8848,-0.26087 0.92178,-0.26087 1.63718,-0.91304 0.60534,-0.56087 0.90801,-1.34347 0.31643,-0.78261 0.31643,-1.81304 0,-1.00434 -0.37147,-1.69565 -0.3577,-0.6913 -1.00431,-1.108689 -0.7154,-0.49565 -1.74723,-0.6913 -1.01808,-0.2087 -2.28379,-0.2087 -1.21068,0 -2.33882,0.15652 -1.11438,0.15653 -1.92608,0.31305 l 0,-10.00432 12.32694,0 0,2.2826 -9.6717,0 0,5.1652 q 0.59159,-0.0521 1.21069,-0.0783 0.6191,-0.0261 1.0731,-0.0261 1.66469,0 2.91664,0.27392 1.25196,0.26086 2.29755,0.93912 1.10062,0.71739 1.70596,1.85217 0.60534,1.134779 0.60534,2.843469 z"
         id="path4432"
         inkscape:connector-curvature="0"
         style="font-style:normal;font-weight:normal;font-size:medium;line-height:125%;font-family:sans-serif;letter-spacing:0px;word-spacing:0px;fill:#b1937e;fill-opacity:1;stroke:none;stroke-width:1px;stroke-linecap:butt;stroke-linejoin:miter;stroke-opacity:1" />
      <path
         d="m 271.93079,101.04401 q 0,2.96086 -2.06366,4.83912 -2.04991,1.86521 -5.03534,1.86521 -1.51335,0 -2.75155,-0.44348 -1.2382,-0.44348 -2.18748,-1.31739 -1.18317,-1.0826 -1.82978,-2.86955 -0.63286,-1.78696 -0.63286,-4.30434 0,-2.5826 0.57783,-4.57825 0.59158,-1.99564 1.87105,-3.54781 1.21069,-1.47391 3.12301,-2.29564 1.91233,-0.83478 4.45751,-0.83478 0.81171,0 1.36202,0.0652 0.55031,0.0652 1.11438,0.23478 l 0,2.4913 -0.13758,0 q -0.38522,-0.19565 -1.16941,-0.36522 -0.77044,-0.1826 -1.58214,-0.1826 -2.95792,0 -4.71891,1.76085 -1.76099,1.74783 -2.04991,4.73478 1.15566,-0.66522 2.27004,-1.00435 1.12813,-0.35217 2.60021,-0.35217 1.30699,0 2.29755,0.23478 1.00432,0.22174 2.0499,0.91304 1.21068,0.79565 1.81602,2.00869 0.6191,1.21304 0.6191,2.94781 z m -2.79283,0.10435 q 0,-1.21304 -0.38522,-2.00869 -0.37145,-0.79565 -1.23819,-1.38261 -0.63286,-0.41739 -1.40329,-0.54782 -0.77044,-0.13044 -1.60965,-0.13044 -1.16942,0 -2.17373,0.26087 -1.00432,0.26087 -2.06367,0.8087 -0.0275,0.28695 -0.0413,0.56086 -0.0138,0.26087 -0.0138,0.66522 0,2.06086 0.44025,3.26086 0.454,1.18695 1.2382,1.87826 0.63285,0.5739 1.36201,0.84782 0.74291,0.26086 1.60966,0.26086 1.99487,0 3.13677,-1.14782 1.14189,-1.16086 1.14189,-3.32607 z"
         id="path4434"
         inkscape:connector-curvature="0"
         style="font-style:normal;font-weight:normal;font-size:medium;line-height:125%;font-family:sans-serif;letter-spacing:0px;word-spacing:0px;fill:#b1937e;fill-opacity:1;stroke:none;stroke-width:1px;stroke-linecap:butt;stroke-linejoin:miter;stroke-opacity:1" />
      <path
         d="m 301.48821,145.74218 -9.27271,16.51299 -2.94417,0 9.86431,-17.13908 -11.66657,0 0,-2.2826 14.01914,0 0,2.90869 z"
         id="path4436"
         inkscape:connector-curvature="0"
         style="font-style:normal;font-weight:normal;font-size:medium;line-height:125%;font-family:sans-serif;letter-spacing:0px;word-spacing:0px;fill:#b1937e;fill-opacity:1;stroke:none;stroke-width:1px;stroke-linecap:butt;stroke-linejoin:miter;stroke-opacity:1" />
      <path
         d="m 304.15609,217.26854 q 0,2.51739 -2.07741,4.18695 -2.06367,1.66956 -5.20043,1.66956 -3.32938,0 -5.31049,-1.63043 -1.96736,-1.63043 -1.96736,-4.1739 0,-1.61739 0.99056,-2.92173 0.99055,-1.31739 2.79282,-2.08695 l 0,-0.0783 q -1.65093,-0.83478 -2.44888,-1.82609 -0.78419,-0.99129 -0.78419,-2.47825 0,-2.1913 1.89857,-3.65216 1.89857,-1.46087 4.82897,-1.46087 3.06798,0 4.89775,1.39565 1.82979,1.39565 1.82979,3.54782 0,1.31738 -0.86675,2.59564 -0.86673,1.26522 -2.54518,1.98261 l 0,0.0782 q 1.92609,0.78261 2.94417,1.93043 1.01806,1.14783 1.01806,2.92173 z m -3.26058,-9.48258 q 0,-1.39564 -1.14189,-2.21738 -1.12814,-0.83478 -2.88913,-0.83478 -1.73348,0 -2.84785,0.78261 -1.10062,0.7826 -1.10062,2.11303 0,0.93913 0.55031,1.63043 0.56406,0.67826 1.69219,1.21304 0.50905,0.23478 1.45832,0.61305 0.96305,0.37825 1.87106,0.62608 1.36202,-0.86087 1.88482,-1.78695 0.52279,-0.92608 0.52279,-2.13913 z m 0.42649,9.73041 q 0,-1.2 -0.56407,-1.91739 -0.55031,-0.73043 -2.17373,-1.46086 -0.64661,-0.28696 -1.41704,-0.53478 -0.77044,-0.24783 -2.0499,-0.69131 -1.2382,0.63913 -1.99488,1.73478 -0.74292,1.09565 -0.74292,2.47825 0,1.76087 1.27948,2.90869 1.27946,1.14782 3.24682,1.14782 2.00863,0 3.20556,-0.97825 1.21068,-0.97826 1.21068,-2.68695 z"
         id="path4438"
         inkscape:connector-curvature="0"
         style="font-style:normal;font-weight:normal;font-size:medium;line-height:125%;font-family:sans-serif;letter-spacing:0px;word-spacing:0px;fill:#b1937e;fill-opacity:1;stroke:none;stroke-width:1px;stroke-linecap:butt;stroke-linejoin:miter;stroke-opacity:1" />
      <path
         d="m 276.83053,268.18914 q 0,2.54347 -0.6191,4.61738 -0.60534,2.07391 -1.84354,3.53477 -1.25195,1.48695 -3.13676,2.29565 -1.88482,0.80869 -4.43,0.80869 -0.7154,0 -1.34825,-0.0783 -0.63287,-0.0652 -1.12814,-0.22174 l 0,-2.49129 0.13757,0 q 0.39898,0.19564 1.12814,0.37825 0.72916,0.16957 1.62341,0.16957 3.04047,0 4.76019,-1.72174 1.73347,-1.73477 2.00862,-4.77389 -1.27946,0.73043 -2.40759,1.04347 -1.12815,0.31305 -2.46265,0.31305 -1.26571,0 -2.29754,-0.23479 -1.01807,-0.23478 -2.0499,-0.91304 -1.21069,-0.79565 -1.82978,-2.02173 -0.60535,-1.22609 -0.60535,-2.93478 0,-2.9739 2.06367,-4.83911 2.06366,-1.86521 5.03533,-1.86521 1.48584,0 2.75155,0.44348 1.26572,0.43043 2.215,1.30434 1.16941,1.0826 1.80227,2.79129 0.63285,1.69565 0.63285,4.39564 z m -2.77907,-0.56087 q 0,-2.02173 -0.44024,-3.24781 -0.44025,-1.22608 -1.21069,-1.90434 -0.64661,-0.58696 -1.38953,-0.83478 -0.74292,-0.26087 -1.60965,-0.26087 -1.98112,0 -3.13677,1.17391 -1.14189,1.17391 -1.14189,3.29999 0,1.23912 0.37145,2.02173 0.37147,0.78261 1.25197,1.36956 0.61908,0.40435 1.362,0.54783 0.74293,0.13043 1.65094,0.13043 1.0731,0 2.17373,-0.27391 1.10062,-0.27391 2.06366,-0.79565 0.0138,-0.27391 0.0275,-0.53478 0.0275,-0.27392 0.0275,-0.69131 z"
         id="path4440"
         inkscape:connector-curvature="0"
         style="font-style:normal;font-weight:normal;font-size:medium;line-height:125%;font-family:sans-serif;letter-spacing:0px;word-spacing:0px;fill:#b1937e;fill-opacity:1;stroke:none;stroke-width:1px;stroke-linecap:butt;stroke-linejoin:miter;stroke-opacity:1" />
    </g>
    <g
       id="handle"
       inkscape:label="#g4184">
      <path
         transform="matrix(0.78293203,0,0,0.79946383,-18.17862,-20.88506)"
         inkscape:connector-curvature="0"
         id="path4559"
         d="m 205.69169,153.14732 -101.98206,99.59003 3.59961,4.31836 1.92579,-1.6543 107.13244,-90.65253 z"
         style="color:#000000;font-style:normal;font-variant:normal;font-weight:normal;font-stretch:normal;font-size:medium;line-height:normal;font-family:sans-serif;text-indent:0;text-align:start;text-decoration:none;text-decoration-line:none;text-decoration-style:solid;text-decoration-color:#000000;letter-spacing:normal;word-spacing:normal;text-transform:none;direction:ltr;block-progression:tb;writing-mode:lr-tb;baseline-shift:baseline;text-anchor:start;white-space:normal;clip-rule:nonzero;display:inline;overflow:visible;visibility:visible;opacity:0.553;isolation:auto;mix-blend-mode:normal;color-interpolation:sRGB;color-interpolation-filters:linearRGB;solid-color:#000000;solid-opacity:1;fill:#000000;fill-opacity:1;fill-rule:nonzero;stroke:none;stroke-width:5;stroke-linecap:butt;stroke-linejoin:miter;stroke-miterlimit:4;stroke-dasharray:none;stroke-dashoffset:0;stroke-opacity:1;filter:url(#filter4905);color-rendering:auto;image-rendering:auto;shape-rendering:auto;text-rendering:auto;enable-background:accumulate"
         sodipodi:nodetypes="cccccc" />
      <path
         sodipodi:nodetypes="ccccc"
         inkscape:connector-curvature="0"
         id="rect4452"
         d="m 68.51556,179.76654 -0.386565,-0.47368 76.299055,-76.48841 5.62314,6.23975 z"
         style="fill:#b1937e;fill-opacity:1;stroke:none;stroke-width:5;stroke-miterlimit:4;stroke-dasharray:none;stroke-opacity:0.35503001" />
    </g>
    <text
       xml:space="preserve"
       style="font-style:normal;font-weight:normal;font-size:15px;line-height:125%;font-family:sans-serif;letter-spacing:0px;word-spacing:0px;fill:#000000;fill-opacity:1;stroke:none;stroke-width:1px;stroke-linecap:butt;stroke-linejoin:miter;stroke-opacity:1"
       x="-132.22897"
       y="29.736237"
       id="text4774"
       sodipodi:linespacing="125%"><tspan
         sodipodi:role="line"
         id="tspan4776"
         x="-132.22897"
         y="29.736237" /></text>
    <text
       xml:space="preserve"
       style="font-style:normal;font-weight:normal;font-size:7.5px;line-height:125%;font-family:sans-serif;letter-spacing:0px;word-spacing:0px;fill:#000000;fill-opacity:1;stroke:none;stroke-width:1px;stroke-linecap:butt;stroke-linejoin:miter;stroke-opacity:1"
       x="-161.04356"
       y="77.996277"
       id="text4895"
       sodipodi:linespacing="125%"><tspan
         sodipodi:role="line"
         id="tspan4897"
         x="-161.04356"
         y="77.996277" /></text>
    <g
       id="g5050">
      <circle
         inkscape:label="#circle4184"
         id="centerTPS"
         style="fill:none;fill-opacity:1;stroke:none;stroke-width:1.91005218;stroke-miterlimit:4;stroke-dasharray:none;stroke-opacity:1"
         r="26.544731"
         cy="197.24118"
         cx="153.1875" />
      <path
         id="text4847"
         d="m 151.73008,172.26299 0,2.72554 c 0.13979,-0.0284 0.30468,-0.0569 0.49659,-0.0853 0.19427,-0.0284 0.39613,-0.0417 0.60462,-0.0417 0.21797,0 0.41414,0.0189 0.58947,0.0569 0.17768,0.0355 0.32789,0.0976 0.45109,0.18764 0.11136,0.0758 0.19807,0.17579 0.25967,0.30136 0.064,0.12557 0.0967,0.28003 0.0967,0.46247 0,0.18716 -0.027,0.35254 -0.0815,0.49469 -0.0521,0.14215 -0.13078,0.26393 -0.23502,0.3658 -0.12321,0.11846 -0.26394,0.20091 -0.42267,0.2483 -0.15637,0.0473 -0.31889,0.072 -0.48711,0.072 -0.25114,0 -0.50702,-0.0436 -0.76763,-0.12888 -0.26061,-0.0876 -0.48805,-0.19333 -0.68234,-0.31652 l -0.0493,0 0,0.75055 c 0.1848,0.0853 0.41082,0.15685 0.67854,0.21608 0.26772,0.0616 0.54493,0.0929 0.83397,0.0929 0.31036,0 0.58424,-0.0431 0.8188,-0.13077 0.23692,-0.0901 0.43972,-0.21892 0.6103,-0.38477 0.15637,-0.154 0.27957,-0.34353 0.3696,-0.5686 0.0901,-0.22508 0.13458,-0.46058 0.13457,-0.70698 0,-0.31036 -0.0511,-0.56908 -0.15542,-0.77521 -0.10424,-0.20612 -0.25209,-0.37386 -0.44162,-0.50416 -0.18006,-0.1232 -0.37765,-0.20849 -0.59325,-0.25588 -0.2156,-0.0498 -0.46579,-0.0739 -0.75246,-0.0739 -0.0782,0 -0.172,9.4e-4 -0.27862,0.006 -0.10661,0.005 -0.21086,0.0133 -0.31273,0.0227 l 0,-1.40827 2.49999,0 0,-0.62168 -3.18422,0 z m 13.93286,3.60879 c -0.4383,0 -0.82306,0.0758 -1.15238,0.22743 -0.32933,0.14927 -0.59704,0.35776 -0.80554,0.62548 -0.22033,0.28193 -0.38143,0.60415 -0.48331,0.96664 -0.0995,0.36248 -0.14974,0.77805 -0.14974,1.24715 0,0.45726 0.0541,0.84866 0.16301,1.17324 0.11134,0.32457 0.27009,0.58613 0.47384,0.78278 0.16348,0.15874 0.35158,0.27767 0.56482,0.35823 0.21323,0.0805 0.45015,0.1213 0.71076,0.1213 0.51412,0 0.94721,-0.16917 1.30023,-0.50796 0.35538,-0.34117 0.53259,-0.78136 0.53259,-1.31917 0,-0.31511 -0.0526,-0.58331 -0.15921,-0.80364 -0.10425,-0.22034 -0.26156,-0.40134 -0.47005,-0.54587 -0.18006,-0.12556 -0.35585,-0.20991 -0.52881,-0.25019 -0.17059,-0.0426 -0.36818,-0.0625 -0.59325,-0.0625 -0.2535,0 -0.47669,0.0308 -0.67096,0.0947 -0.1919,0.0616 -0.38855,0.154 -0.58757,0.27484 0.0498,-0.54256 0.22745,-0.97328 0.53071,-1.29075 0.30326,-0.31985 0.70934,-0.47953 1.21872,-0.47953 0.13978,0 0.27483,0.0161 0.40751,0.0493 0.13504,0.0308 0.23692,0.0649 0.30326,0.10045 l 0.0342,0 0,-0.68044 c -0.0971,-0.0308 -0.19144,-0.0507 -0.2862,-0.0626 -0.0948,-0.0118 -0.21276,-0.0189 -0.35255,-0.0189 z m -23.9423,0.0398 -2.56254,2.98522 0,0.81689 2.53411,0 0,1.48977 0.68233,0 0,-1.48977 0.78658,0 0,-0.5686 -0.78658,0 0,-3.23351 -0.6539,0 z m -0.0284,0.84534 0,2.38817 -2.05079,0 2.05079,-2.38817 z m 23.2069,1.70963 c 0.14452,0 0.28241,0.0123 0.41509,0.036 0.13266,0.0237 0.25303,0.0739 0.36201,0.14973 0.14926,0.10662 0.25634,0.23077 0.32032,0.37528 0.0664,0.14453 0.10045,0.32743 0.10045,0.54776 0,0.3933 -0.099,0.69513 -0.29568,0.90599 -0.19664,0.20849 -0.46578,0.31273 -0.80932,0.31273 -0.14926,0 -0.28905,-0.0227 -0.41698,-0.0702 -0.12557,-0.0498 -0.24166,-0.12699 -0.35064,-0.23123 -0.13505,-0.12558 -0.24213,-0.29616 -0.32032,-0.51176 -0.0758,-0.21797 -0.11373,-0.51459 -0.11373,-0.88892 0,-0.0735 9.7e-4,-0.13457 0.004,-0.18196 0.002,-0.0498 0.005,-0.0995 0.01,-0.15163 0.18243,-0.0995 0.36154,-0.17249 0.53449,-0.21986 0.17296,-0.0473 0.35965,-0.072 0.56104,-0.072 z m -5.50037,3.63911 c -0.76761,0 -1.40004,0.18953 -1.89915,0.5686 -0.49912,0.37591 -0.74867,0.85924 -0.74867,1.44996 0,0.51491 0.1491,0.93441 0.4492,1.25663 0.30326,0.31905 0.76762,0.54397 1.39309,0.67664 0.30958,0.0632 0.60273,0.11625 0.87756,0.15732 0.27799,0.0411 0.53449,0.0923 0.77141,0.15543 0.31274,0.0821 0.54587,0.19837 0.6975,0.34685 0.15479,0.14846 0.23123,0.37906 0.23123,0.6918 0,0.36328 -0.16173,0.65391 -0.4871,0.87188 -0.32222,0.21797 -0.77394,0.326 -1.35519,0.326 -0.41067,0 -0.84976,-0.0796 -1.31728,-0.24071 -0.46753,-0.16111 -0.88072,-0.39108 -1.23768,-0.68803 l -0.0664,0 0,1.17513 c 0.42015,0.18639 0.83334,0.3279 1.23768,0.42268 0.40751,0.0948 0.86555,0.14214 1.37414,0.14214 0.47384,0 0.87819,-0.0569 1.21304,-0.17058 0.33801,-0.11372 0.63242,-0.27167 0.88513,-0.47384 0.23061,-0.18638 0.41004,-0.41382 0.5364,-0.68234 0.12951,-0.26851 0.19332,-0.54018 0.19332,-0.815 0,-0.50543 -0.13267,-0.89967 -0.39802,-1.18082 -0.26536,-0.28114 -0.66022,-0.49026 -1.18461,-0.62926 -0.25903,-0.0664 -0.57493,-0.13204 -0.94769,-0.19522 -0.37275,-0.0632 -0.66022,-0.11688 -0.86239,-0.16111 -0.38223,-0.0884 -0.64822,-0.21544 -0.79984,-0.38286 -0.15163,-0.16743 -0.22744,-0.39803 -0.22744,-0.69181 0,-0.32853 0.15163,-0.59705 0.45488,-0.80553 0.30642,-0.20849 0.71077,-0.31274 1.21304,-0.31274 0.45804,0 0.90409,0.0758 1.34003,0.22745 0.43909,0.14846 0.79289,0.33547 1.0614,0.56292 l 0.0664,0 0,-1.10879 c -0.31906,-0.13899 -0.6855,-0.25587 -1.09932,-0.35065 -0.41382,-0.0948 -0.86871,-0.14214 -1.36467,-0.14214 z m -15.17242,0.12888 0,0.83396 2.52084,0 0,6.2206 0.93821,0 0,-6.2206 2.52084,0 0,-0.83396 -5.97989,0 z m 6.93704,0 0,7.05456 0.93821,0 0,-2.62887 0.93822,0 c 0.50542,0 0.92493,-0.0601 1.25662,-0.18006 0.3317,-0.1232 0.61916,-0.30643 0.86239,-0.54967 0.19586,-0.19585 0.34749,-0.42645 0.45489,-0.6918 0.11056,-0.26851 0.1649,-0.55914 0.1649,-0.87188 0,-0.41065 -0.0733,-0.75119 -0.22175,-1.0197 -0.14532,-0.26851 -0.35317,-0.4928 -0.62169,-0.67286 -0.22744,-0.15163 -0.48711,-0.26219 -0.78089,-0.33168 -0.29378,-0.0727 -0.65327,-0.10804 -1.07657,-0.10804 l -1.91433,0 z m 0.93821,0.80553 0.92873,0 c 0.29695,0 0.54272,0.0221 0.73541,0.0664 0.19586,0.0411 0.36959,0.11056 0.52122,0.20849 0.17375,0.11372 0.30326,0.25966 0.38856,0.43973 0.0853,0.18005 0.12698,0.3917 0.12698,0.63494 0,0.2085 -0.0316,0.3974 -0.0948,0.56482 -0.06,0.16743 -0.16426,0.326 -0.31274,0.47763 -0.14846,0.14848 -0.34116,0.25841 -0.57808,0.3279 -0.23692,0.0664 -0.54398,0.0986 -0.92305,0.0986 l -0.79226,0 0,-2.81841 z m -18.75656,2.21189 c -0.26299,0 -0.53687,0.037 -0.8188,0.10804 -0.27957,0.0687 -0.50275,0.14453 -0.67097,0.22745 l 0,0.74298 0.036,0 c 0.22507,-0.1469 0.46483,-0.26061 0.71834,-0.34117 0.2535,-0.0805 0.49138,-0.1213 0.71646,-0.1213 0.14688,0 0.27814,0.0123 0.39422,0.036 0.11611,0.0237 0.22604,0.0654 0.32791,0.12699 0.0971,0.0616 0.17295,0.14168 0.22744,0.23882 0.0545,0.0948 0.0815,0.20565 0.0815,0.33358 0,0.28904 -0.10852,0.50986 -0.32412,0.66148 -0.21323,0.14927 -0.49848,0.22366 -0.8586,0.22366 l -0.25019,0 0,0.58946 0.32032,0 c 0.17532,0 0.33927,0.0151 0.4909,0.0436 0.15163,0.026 0.28004,0.0744 0.38666,0.14783 0.10661,0.071 0.19095,0.17011 0.25018,0.29568 0.0616,0.1232 0.0909,0.27862 0.0909,0.46816 0,0.1919 -0.027,0.35206 -0.0815,0.47763 -0.0521,0.12557 -0.13174,0.24071 -0.24072,0.34495 -0.10424,0.0971 -0.24119,0.17012 -0.4094,0.21987 -0.16822,0.0498 -0.32647,0.074 -0.47573,0.074 -0.25351,0 -0.51602,-0.0431 -0.78848,-0.13078 -0.27246,-0.0876 -0.50938,-0.19901 -0.71076,-0.33169 l -0.0549,0 0,0.74298 c 0.18243,0.0829 0.41698,0.15874 0.70128,0.22745 0.28431,0.071 0.57241,0.10803 0.86619,0.10803 0.28667,0 0.55108,-0.0393 0.79037,-0.11751 0.24166,-0.0806 0.44967,-0.20375 0.62737,-0.3696 0.15873,-0.14926 0.28194,-0.32553 0.3696,-0.52691 0.0876,-0.20138 0.13267,-0.42172 0.13267,-0.66338 0,-0.24403 -0.0365,-0.44304 -0.10993,-0.59704 -0.0735,-0.154 -0.16679,-0.28288 -0.28052,-0.38476 -0.10187,-0.09 -0.2265,-0.16442 -0.37338,-0.22365 -0.1469,-0.0616 -0.27862,-0.10235 -0.39235,-0.12131 l 0,-0.0493 c 0.28194,-0.0569 0.52739,-0.19522 0.73351,-0.41318 0.20849,-0.22034 0.31274,-0.47575 0.31274,-0.76953 0,-0.2156 -0.045,-0.40561 -0.13267,-0.56671 -0.0876,-0.16111 -0.21608,-0.29758 -0.38666,-0.41129 -0.15874,-0.10425 -0.33595,-0.18007 -0.5326,-0.22745 -0.19665,-0.0474 -0.42409,-0.072 -0.68233,-0.072 z m 37.71025,0.65012 0,0.62168 3.01364,0 -2.54927,4.67019 0.76194,0 2.39385,-4.49961 0,-0.79226 -3.62016,0 z m -39.4521,11.7835 c -0.26298,0 -0.53497,0.0355 -0.8169,0.10425 -0.27957,0.0687 -0.50275,0.14452 -0.67096,0.22744 l 0,0.74678 0.0342,0 c 0.23929,-0.15637 0.48427,-0.27293 0.7354,-0.34874 0.25114,-0.0758 0.48569,-0.11373 0.70129,-0.11373 0.32458,0 0.5762,0.0787 0.75625,0.23503 0.18243,0.154 0.27484,0.36769 0.27484,0.64253 0,0.30088 -0.0858,0.58093 -0.25398,0.84154 -0.16822,0.25825 -0.47953,0.60747 -0.93442,1.04814 -0.2156,0.21086 -0.44826,0.42362 -0.6994,0.63684 l -0.74677,0.64064 0,0.74109 3.58225,0 0,-0.60652 -2.84684,0 c 0.23454,-0.19902 0.48805,-0.41414 0.75814,-0.64633 0.27009,-0.23454 0.53118,-0.47715 0.78468,-0.72592 0.17769,-0.17296 0.3279,-0.3298 0.4511,-0.47194 0.12557,-0.14215 0.2355,-0.28715 0.3279,-0.43405 0.0995,-0.15636 0.1739,-0.32173 0.22365,-0.49468 0.0521,-0.17533 0.0777,-0.36344 0.0777,-0.56482 0,-0.44779 -0.15447,-0.8008 -0.46247,-1.06141 -0.308,-0.26299 -0.73303,-0.39614 -1.27559,-0.39614 z m 42.90926,0.1668 c -0.50465,0 -0.9202,0.13268 -1.24715,0.39803 -0.32696,0.26534 -0.4909,0.59704 -0.4909,0.99507 0,0.27009 0.0677,0.49468 0.2028,0.67475 0.13741,0.18005 0.34875,0.34496 0.63305,0.49658 l 0,0.0227 c -0.31036,0.13979 -0.55155,0.32933 -0.72214,0.56862 -0.17058,0.23692 -0.25587,0.50227 -0.25587,0.79605 0,0.462 0.16917,0.84107 0.50796,1.13722 0.34117,0.29616 0.7989,0.44352 1.37225,0.44352 0.54018,0 0.98844,-0.15163 1.34382,-0.45489 0.35775,-0.30326 0.53638,-0.68375 0.53638,-1.14101 0,-0.32221 -0.0881,-0.58757 -0.26345,-0.79605 -0.17533,-0.2085 -0.42836,-0.38287 -0.76005,-0.52502 l 0,-0.0227 c 0.28904,-0.1303 0.50844,-0.31036 0.6577,-0.54018 0.14926,-0.23218 0.22365,-0.46768 0.22365,-0.70697 0,-0.39092 -0.15874,-0.71314 -0.47384,-0.96664 -0.3151,-0.25351 -0.73587,-0.37907 -1.26421,-0.37907 z m -0.004,0.52123 c 0.30325,0 0.5525,0.0758 0.74677,0.22744 0.19665,0.14926 0.29379,0.35112 0.29379,0.60462 0,0.22034 -0.0446,0.41367 -0.13458,0.58188 -0.0901,0.16821 -0.25256,0.33074 -0.48711,0.48711 -0.15636,-0.045 -0.31747,-0.10188 -0.48332,-0.17059 -0.16347,-0.0687 -0.28952,-0.12414 -0.37718,-0.16678 -0.19427,-0.0971 -0.33879,-0.2066 -0.43593,-0.3298 -0.0948,-0.12557 -0.14215,-0.27483 -0.14215,-0.44541 0,-0.24167 0.0948,-0.43214 0.2843,-0.5743 0.19191,-0.14215 0.43688,-0.21417 0.73541,-0.21417 z m -0.4511,2.22895 c 0.22034,0.0805 0.39613,0.14263 0.52881,0.18764 0.13267,0.045 0.25445,0.0938 0.3658,0.14594 0.27957,0.13268 0.46815,0.26535 0.56293,0.39803 0.0971,0.13031 0.14405,0.30515 0.14405,0.52312 0,0.31037 -0.10425,0.55392 -0.31274,0.73162 -0.20612,0.17768 -0.48048,0.26724 -0.82638,0.26724 -0.3388,0 -0.61931,-0.10424 -0.83965,-0.31274 -0.22034,-0.20848 -0.3298,-0.47431 -0.3298,-0.79416 0,-0.25113 0.0635,-0.47573 0.19144,-0.67475 0.1303,-0.19901 0.30231,-0.35585 0.51554,-0.47194 z m -36.96727,8.45714 c -0.01,0.15399 -0.046,0.27719 -0.10993,0.36959 -0.0616,0.0901 -0.1469,0.16441 -0.25588,0.22366 -0.0876,0.0474 -0.21607,0.0838 -0.38666,0.10993 -0.17058,0.0237 -0.33026,0.036 -0.47952,0.036 l 0,0.48332 1.10121,0 0,3.54623 -1.10121,0 0,0.54018 2.8639,0 0,-0.54018 -1.08036,0 0,-4.76874 -0.55155,0 z m 32.18904,0.14783 c -0.51174,0 -0.94674,0.16917 -1.30212,0.50796 -0.35538,0.3388 -0.5326,0.779 -0.5326,1.31918 0,0.31037 0.0531,0.57714 0.15732,0.79984 0.10662,0.22271 0.26346,0.40514 0.47195,0.54966 0.17769,0.1232 0.35349,0.20755 0.5288,0.25019 0.1777,0.0427 0.37529,0.0626 0.59326,0.0626 0.22981,0 0.44257,-0.0284 0.63684,-0.0853 0.19428,-0.0569 0.40135,-0.15163 0.62169,-0.28431 -0.0474,0.55203 -0.22082,0.98702 -0.51934,1.30213 -0.29615,0.31274 -0.7046,0.46815 -1.22819,0.46815 -0.15401,0 -0.29521,-0.0146 -0.42078,-0.0455 -0.12557,-0.0332 -0.22129,-0.0687 -0.28999,-0.10425 l -0.036,0 0,0.67855 c 0.0853,0.0284 0.18291,0.0488 0.2919,0.0607 0.10898,0.0142 0.22364,0.0227 0.34685,0.0227 0.4383,0 0.82021,-0.0749 1.14479,-0.22176 0.32459,-0.14689 0.59562,-0.35538 0.81122,-0.62547 0.21324,-0.26535 0.37149,-0.58614 0.47575,-0.96285 0.10661,-0.37671 0.15921,-0.79652 0.15921,-1.25853 0,-0.49042 -0.0541,-0.88798 -0.16301,-1.19597 -0.10898,-0.31036 -0.26488,-0.5653 -0.46626,-0.76194 -0.16348,-0.15874 -0.35254,-0.27625 -0.5705,-0.35443 -0.21797,-0.0805 -0.45489,-0.12131 -0.71077,-0.12131 z m -0.008,0.57999 c 0.14926,0 0.28715,0.0227 0.41508,0.0702 0.12794,0.045 0.24877,0.12083 0.36013,0.22745 0.13268,0.1232 0.23692,0.29662 0.31273,0.51933 0.0758,0.22271 0.11372,0.51791 0.11372,0.88513 0,0.0758 -0.003,0.13789 -0.008,0.18765 -0.002,0.0473 -0.005,0.0962 -0.008,0.14594 -0.16585,0.0948 -0.34307,0.16632 -0.5326,0.21607 -0.18954,0.0498 -0.37623,0.0758 -0.56103,0.0758 -0.15637,0 -0.29852,-0.0123 -0.42646,-0.036 -0.12793,-0.0261 -0.24592,-0.0763 -0.35254,-0.14974 -0.15163,-0.10662 -0.26013,-0.23123 -0.3241,-0.37339 -0.064,-0.14215 -0.0948,-0.32458 -0.0948,-0.54965 0,-0.38618 0.0971,-0.68707 0.29377,-0.9003 0.19902,-0.21323 0.47006,-0.31842 0.81122,-0.31842 z m -21.84413,6.01969 c -0.62783,0 -1.08936,0.2246 -1.38551,0.67474 -0.29616,0.44779 -0.44352,1.14244 -0.44352,2.08302 0,0.93347 0.14453,1.62528 0.43594,2.07543 0.29378,0.45015 0.75816,0.67475 1.39309,0.67475 0.62549,0 1.08747,-0.22223 1.38363,-0.66527 0.29851,-0.44542 0.4473,-1.14244 0.4473,-2.09249 0,-0.92162 -0.14784,-1.60917 -0.44162,-2.06406 -0.29142,-0.45726 -0.75436,-0.68612 -1.38931,-0.68612 z m 0,0.58567 c 0.22508,0 0.4094,0.046 0.55155,0.13836 0.14453,0.0924 0.25825,0.23076 0.34118,0.41319 0.0853,0.1848 0.14214,0.4094 0.17058,0.67475 0.0308,0.26536 0.0455,0.57809 0.0455,0.93821 0,0.36485 -0.0146,0.67759 -0.0455,0.9382 -0.0284,0.25825 -0.0839,0.48285 -0.1668,0.67476 -0.0805,0.18717 -0.19427,0.32647 -0.34116,0.41888 -0.1469,0.0924 -0.33264,0.14025 -0.55535,0.14025 -0.23692,0 -0.42787,-0.0488 -0.5724,-0.14594 -0.14215,-0.0971 -0.25161,-0.23787 -0.32979,-0.42267 -0.0853,-0.19665 -0.14073,-0.4203 -0.1668,-0.66906 -0.0261,-0.24877 -0.0398,-0.55724 -0.0398,-0.92684 0,-0.33643 0.0151,-0.6468 0.0436,-0.92873 0.0308,-0.28194 0.0863,-0.5108 0.16679,-0.68612 0.0853,-0.18717 0.20044,-0.32648 0.34495,-0.41888 0.1469,-0.0924 0.33076,-0.13836 0.55345,-0.13836 z m 13.76796,0.48521 c -0.41855,0 -0.72561,0.151 -0.92304,0.4511 -0.19744,0.29852 -0.29567,0.76036 -0.29567,1.38741 0,0.62231 0.0957,1.08352 0.28998,1.38362 0.19586,0.30009 0.50545,0.45109 0.92873,0.45109 0.41699,0 0.72561,-0.14815 0.92305,-0.44351 0.19901,-0.29694 0.29757,-0.76162 0.29757,-1.39499 -1e-5,-0.61442 -0.0979,-1.07468 -0.29378,-1.37794 -0.19427,-0.30484 -0.50354,-0.45678 -0.92684,-0.45678 z m -3.15199,0.0587 c -0.007,0.10268 -0.0312,0.1848 -0.074,0.24641 -0.041,0.0601 -0.0979,0.11025 -0.17059,0.14973 -0.0584,0.0316 -0.14404,0.0566 -0.25777,0.0739 -0.11372,0.0158 -0.22081,0.0227 -0.32032,0.0227 l 0,0.32221 0.73351,0 0,2.36542 -0.73351,0 0,0.36012 1.90864,0 0,-0.36012 -0.72024,0 0,-3.18044 -0.3658,0 z m 3.15199,0.3317 c 0.15006,0 0.27294,0.0312 0.3677,0.0929 0.0964,0.0616 0.17217,0.15321 0.22744,0.27483 0.0569,0.1232 0.0948,0.2742 0.11373,0.4511 0.0206,0.1769 0.0303,0.38539 0.0303,0.62547 0,0.24324 -0.01,0.45173 -0.0303,0.62547 -0.0189,0.17216 -0.0566,0.32127 -0.11182,0.4492 -0.0537,0.12479 -0.12952,0.21892 -0.22745,0.28052 -0.0979,0.0616 -0.22112,0.0909 -0.3696,0.0909 -0.15794,0 -0.28462,-0.0319 -0.38096,-0.0967 -0.0948,-0.0647 -0.16774,-0.15921 -0.21987,-0.28242 -0.0569,-0.13109 -0.0944,-0.27956 -0.11182,-0.44541 -0.0174,-0.16584 -0.0265,-0.3715 -0.0265,-0.61789 0,-0.22428 0.01,-0.42994 0.0284,-0.61789 0.0206,-0.18795 0.0581,-0.3399 0.11183,-0.45678 0.0569,-0.12478 0.13299,-0.21892 0.22934,-0.28052 0.0979,-0.0616 0.22113,-0.0929 0.36959,-0.0929 z"
         style="font-style:normal;font-weight:normal;font-size:5px;line-height:125%;font-family:sans-serif;letter-spacing:0px;word-spacing:0px;fill:#b1937e;fill-opacity:1;stroke:none;stroke-width:1px;stroke-linecap:butt;stroke-linejoin:miter;stroke-opacity:1"
         inkscape:connector-curvature="0" />
      <g
         id="handleTPS"
         inkscape:label="#g5077">
        <path
           transform="matrix(0.17558908,-0.11127722,0.11362687,0.17929669,99.39786,186.41169)"
           inkscape:connector-curvature="0"
           id="path4925"
           d="m 205.69169,153.14732 -101.98206,99.59003 3.59961,4.31836 1.92579,-1.6543 107.13244,-90.65253 z"
           style="color:#000000;font-style:normal;font-variant:normal;font-weight:normal;font-stretch:normal;font-size:medium;line-height:normal;font-family:sans-serif;text-indent:0;text-align:start;text-decoration:none;text-decoration-line:none;text-decoration-style:solid;text-decoration-color:#000000;letter-spacing:normal;word-spacing:normal;text-transform:none;direction:ltr;block-progression:tb;writing-mode:lr-tb;baseline-shift:baseline;text-anchor:start;white-space:normal;clip-rule:nonzero;display:inline;overflow:visible;visibility:visible;opacity:0.553;isolation:auto;mix-blend-mode:normal;color-interpolation:sRGB;color-interpolation-filters:linearRGB;solid-color:#000000;solid-opacity:1;fill:#000000;fill-opacity:1;fill-rule:nonzero;stroke:none;stroke-width:5;stroke-linecap:butt;stroke-linejoin:miter;stroke-miterlimit:4;stroke-dasharray:none;stroke-dashoffset:0;stroke-opacity:1;filter:url(#filter4905);color-rendering:auto;image-rendering:auto;shape-rendering:auto;text-rendering:auto;enable-background:accumulate"
           sodipodi:nodetypes="cccccc" />
        <path
           sodipodi:nodetypes="ccccc"
           inkscape:connector-curvature="0"
           id="path4927"
           d="m 147.35924,219.09032 -0.15401,-0.0513 6.24046,-27.99844 2.14796,0.60019 z"
           style="fill:#b1937e;fill-opacity:1;stroke:none;stroke-width:5;stroke-miterlimit:4;stroke-dasharray:none;stroke-opacity:0.35503001" />
      </g>
      <path
         cx="153.1875"
         cy="197.24118"
         r="26.544731"
         style="fill:#322b26;fill-opacity:1;stroke:none;stroke-width:1.91005218;stroke-miterlimit:4;stroke-dasharray:none;stroke-opacity:1"
         id="path5100"
         inkscape:label="#circle4184" />
      <path
         style="fill:none;fill-opacity:1;stroke:#b1937e;stroke-width:1;stroke-miterlimit:4;stroke-dasharray:none;stroke-opacity:1"
         id="circle5138"
         inkscape:label="#circle4184"
         sodipodi:type="arc"
         sodipodi:cx="153.1875"
         sodipodi:cy="197.24118"
         sodipodi:rx="26.544731"
         sodipodi:ry="26.544731"
         sodipodi:start="1.8325957"
         sodipodi:end="1.3089969"
         d="m 146.31722,222.88142 a 26.544731,26.544731 0 0 1 -19.44736,-29.10502 26.544731,26.544731 0 0 1 26.31764,-23.07995 26.544731,26.544731 0 0 1 26.31764,23.07995 26.544731,26.544731 0 0 1 -19.44736,29.10502"
         sodipodi:open="true" />
    </g>
    <g
       id="g5062">
      <circle
         inkscape:label="#circle4956"
         style="fill:none;fill-opacity:1;stroke:none;stroke-width:1.91005218;stroke-miterlimit:4;stroke-dasharray:none;stroke-opacity:1"
         id="centerThr"
         r="26.544731"
         cy="197.99118"
         cx="96.8125" />
      <path
         id="path4958"
         d="m 95.366187,173.19983 0,2.70478 c 0.138716,-0.0282 0.302354,-0.0564 0.492804,-0.0846 0.192789,-0.0282 0.393117,-0.0414 0.600016,-0.0414 0.216307,0 0.410977,0.0188 0.584969,0.0564 0.176332,0.0352 0.325404,0.0969 0.447662,0.18621 0.110508,0.0752 0.196553,0.17446 0.257687,0.29906 0.06348,0.12462 0.09593,0.27792 0.09593,0.45896 0,0.18573 -0.02679,0.34985 -0.08088,0.49091 -0.05172,0.14107 -0.129785,0.26192 -0.233235,0.36302 -0.122267,0.11756 -0.261923,0.19938 -0.419447,0.2464 -0.155174,0.047 -0.316466,0.0715 -0.483399,0.0715 -0.249224,0 -0.503154,-0.0432 -0.761777,-0.1279 -0.258623,-0.087 -0.484335,-0.19186 -0.677135,-0.31411 l -0.0489,0 0,0.74484 c 0.183391,0.0847 0.407691,0.15565 0.673372,0.21443 0.265684,0.0612 0.540769,0.0922 0.82761,0.0922 0.307998,0 0.579795,-0.0428 0.812562,-0.12978 0.235116,-0.0894 0.436377,-0.21725 0.605659,-0.38183 0.155184,-0.15283 0.277441,-0.34092 0.366781,-0.56427 0.08935,-0.22337 0.133547,-0.45707 0.133547,-0.7016 0,-0.30799 -0.05079,-0.56474 -0.154236,-0.7693 -0.10345,-0.20455 -0.250166,-0.37101 -0.438257,-0.50032 -0.178691,-0.12226 -0.374774,-0.2069 -0.588732,-0.25393 -0.213957,-0.0494 -0.462238,-0.0734 -0.746729,-0.0734 -0.07758,0 -0.170688,8e-4 -0.276497,0.006 -0.105798,0.005 -0.209253,0.0132 -0.310353,0.0225 l 0,-1.39754 2.480947,0 0,-0.61694 -3.159962,0 z m 13.826713,3.58129 c -0.43496,0 -0.81679,0.0752 -1.1436,0.22571 -0.32682,0.14813 -0.59249,0.35503 -0.7994,0.62071 -0.21866,0.27979 -0.37853,0.59954 -0.47963,0.95928 -0.0987,0.35972 -0.1486,0.77212 -0.1486,1.23764 0,0.45379 0.0536,0.8422 0.16176,1.1643 0.1105,0.32211 0.26804,0.58168 0.47024,0.77683 0.16223,0.15752 0.3489,0.27555 0.56051,0.35549 0.21161,0.0799 0.44672,0.12038 0.70535,0.12038 0.51021,0 0.94,-0.16787 1.29032,-0.50409 0.35268,-0.33856 0.52854,-0.77541 0.52854,-1.30912 0,-0.31271 -0.0522,-0.57886 -0.158,-0.79752 -0.10345,-0.21866 -0.25957,-0.39828 -0.46647,-0.54171 -0.17869,-0.12461 -0.35314,-0.20831 -0.52478,-0.24828 -0.16929,-0.0423 -0.36537,-0.062 -0.58873,-0.062 -0.25157,0 -0.47305,0.0305 -0.66585,0.094 -0.19044,0.0612 -0.38559,0.15283 -0.58309,0.27274 0.0494,-0.53842 0.22572,-0.96585 0.52667,-1.28091 0.30095,-0.31741 0.70393,-0.47588 1.20944,-0.47588 0.13871,0 0.27273,0.016 0.40439,0.0489 0.13402,0.0305 0.23512,0.0644 0.30095,0.0997 l 0.0339,0 0,-0.67525 c -0.0964,-0.0305 -0.18998,-0.0503 -0.28402,-0.0621 -0.0941,-0.0118 -0.21113,-0.0188 -0.34986,-0.0188 z m -23.759904,0.0395 -2.543018,2.96247 0,0.81068 2.514804,0 0,1.47841 0.677134,0 0,-1.47841 0.780587,0 0,-0.56428 -0.780587,0 0,-3.20887 -0.64892,0 z m -0.02822,0.8389 0,2.36997 -2.035166,0 2.035166,-2.36997 z m 23.030111,1.6966 c 0.14341,0 0.28025,0.0122 0.41192,0.0357 0.13166,0.0235 0.25111,0.0734 0.35926,0.14858 0.14812,0.10581 0.25439,0.22901 0.31788,0.37243 0.0659,0.14342 0.0997,0.32493 0.0997,0.54359 0,0.3903 -0.0983,0.68983 -0.29342,0.89909 -0.19515,0.2069 -0.46225,0.31034 -0.80316,0.31034 -0.14812,0 -0.28684,-0.0225 -0.41381,-0.0696 -0.1246,-0.0494 -0.23981,-0.12603 -0.34796,-0.22948 -0.13402,-0.12461 -0.2403,-0.29389 -0.31788,-0.50785 -0.0752,-0.21631 -0.11286,-0.51067 -0.11286,-0.88215 0,-0.0729 0.002,-0.13355 0.004,-0.18057 0.002,-0.0494 0.005,-0.0987 0.01,-0.15048 0.18104,-0.0988 0.35879,-0.17117 0.53042,-0.21818 0.17164,-0.047 0.35692,-0.0715 0.55676,-0.0715 z m -12.901303,3.42328 0,7.31683 0.884037,0 0,-3.92175 c 0.241386,-0.18495 0.492803,-0.33605 0.756134,-0.45518 0.263329,-0.11912 0.516628,-0.17869 0.758014,-0.17869 0.235117,0 0.426345,0.032 0.573684,0.0978 0.147339,0.0627 0.260196,0.15988 0.338567,0.29155 0.07524,0.11913 0.126022,0.28527 0.154236,0.49845 0.02822,0.21003 0.04326,0.43574 0.04326,0.67713 l 0,2.99068 0.884038,0 0,-3.40825 c 0,-0.64265 -0.149848,-1.13483 -0.447662,-1.47653 -0.297814,-0.3417 -0.730428,-0.51349 -1.297842,-0.51349 -0.310353,0 -0.611929,0.0652 -0.906608,0.19373 -0.294679,0.12854 -0.579953,0.30722 -0.855823,0.53606 l 0,-2.64835 -0.884037,0 z m -6.81461,0.31601 0,0.8276 2.501637,0 0,6.17322 0.93106,0 0,-6.17322 2.501637,0 0,-0.8276 -5.934334,0 z m 12.908823,1.74926 0,5.25156 0.88404,0 0,-3.728 c 0.23511,-0.19123 0.47963,-0.34735 0.73356,-0.46648 0.25393,-0.12226 0.51726,-0.18245 0.78999,-0.18245 0.16928,0 0.31411,0.007 0.43637,0.0225 0.1254,0.0125 0.25394,0.0345 0.38559,0.0659 l 0.047,0 0,-0.90661 c -0.13794,-0.022 -0.24139,-0.037 -0.31035,-0.0432 -0.069,-0.01 -0.17932,-0.0132 -0.33292,-0.0132 -0.27901,0 -0.55426,0.0595 -0.82385,0.17869 -0.26647,0.11598 -0.57432,0.31411 -0.92542,0.59625 l 0,-0.77494 -0.88404,0 z m -24.506637,1.24517 c -0.260983,0 -0.532781,0.0367 -0.812562,0.10722 -0.277441,0.0682 -0.498916,0.14342 -0.665849,0.22571 l 0,0.73732 0.03574,0 c 0.223357,-0.14577 0.461299,-0.25862 0.712873,-0.33856 0.251574,-0.0799 0.487625,-0.12038 0.710992,-0.12038 0.145765,0 0.276035,0.0122 0.391233,0.0357 0.115208,0.0235 0.224302,0.0649 0.325401,0.12602 0.09639,0.0611 0.171637,0.14059 0.225712,0.23699 0.05407,0.0941 0.08088,0.20409 0.08088,0.33105 0,0.28684 -0.107681,0.50597 -0.321639,0.65644 -0.211608,0.14813 -0.494679,0.22195 -0.852062,0.22195 l -0.248283,0 0,0.58497 0.317878,0 c 0.173982,0 0.336686,0.015 0.487161,0.0432 0.150474,0.0258 0.2779,0.0739 0.38371,0.14671 0.105798,0.0705 0.189498,0.16881 0.248282,0.29343 0.06113,0.12225 0.09028,0.27649 0.09028,0.46458 0,0.19044 -0.0268,0.34938 -0.08088,0.474 -0.05173,0.12461 -0.130729,0.23887 -0.238878,0.34232 -0.10345,0.0964 -0.239349,0.16882 -0.406281,0.2182 -0.166933,0.0494 -0.32399,0.0734 -0.472114,0.0734 -0.251574,0 -0.512085,-0.0428 -0.782467,-0.12979 -0.270382,-0.087 -0.5055,-0.19749 -0.705348,-0.32915 l -0.05455,0 0,0.73731 c 0.181041,0.0822 0.413803,0.15754 0.695943,0.22572 0.282141,0.0705 0.568045,0.10721 0.859585,0.10721 0.284491,0 0.546883,-0.039 0.784348,-0.11662 0.239825,-0.0799 0.446247,-0.2022 0.622588,-0.36678 0.157524,-0.14812 0.27979,-0.32305 0.366781,-0.5229 0.08699,-0.19985 0.131666,-0.41851 0.131666,-0.65832 0,-0.24218 -0.03621,-0.43967 -0.109094,-0.5925 -0.07289,-0.15282 -0.16552,-0.28072 -0.278378,-0.38182 -0.1011,-0.0894 -0.224777,-0.16317 -0.370543,-0.22196 -0.145775,-0.0611 -0.276494,-0.10157 -0.389352,-0.12037 l 0,-0.0489 c 0.279791,-0.0564 0.52337,-0.19373 0.727919,-0.41004 0.206899,-0.21866 0.310354,-0.47212 0.310354,-0.76366 0,-0.21395 -0.04467,-0.40252 -0.131665,-0.56239 -0.087,-0.15988 -0.214428,-0.29532 -0.38371,-0.40816 -0.157524,-0.10345 -0.333392,-0.1787 -0.528542,-0.22572 -0.195149,-0.047 -0.420861,-0.0715 -0.677134,-0.0715 z m 37.422987,0.64517 0,0.61694 2.99068,0 -2.52986,4.63461 0.75614,0 2.37562,-4.46533 0,-0.78622 -3.59258,0 z m -39.151562,11.69373 c -0.260973,0 -0.530899,0.0352 -0.81068,0.10346 -0.277441,0.0682 -0.498917,0.14342 -0.66585,0.22571 l 0,0.74108 0.03386,0 c 0.237465,-0.15517 0.480577,-0.27085 0.729801,-0.34608 0.249224,-0.0752 0.481986,-0.11286 0.695943,-0.11286 0.322107,0 0.57181,0.0781 0.750492,0.23324 0.181041,0.15282 0.272734,0.36489 0.272734,0.63763 0,0.29859 -0.08511,0.5765 -0.252043,0.83513 -0.166934,0.25628 -0.475876,0.60284 -0.927299,1.04015 -0.213958,0.20926 -0.444839,0.4204 -0.694063,0.632 l -0.741088,0.63575 0,0.73545 3.554959,0 0,-0.6019 -2.825157,0 c 0.232756,-0.1975 0.48434,-0.41099 0.752372,-0.6414 0.268042,-0.23276 0.527131,-0.47352 0.778705,-0.72039 0.176332,-0.17164 0.325404,-0.32729 0.447661,-0.46836 0.124617,-0.14106 0.23371,-0.28496 0.325401,-0.43073 0.09875,-0.15518 0.172575,-0.31929 0.22195,-0.49092 0.05173,-0.17399 0.07712,-0.36067 0.07712,-0.56052 0,-0.44437 -0.153299,-0.79469 -0.458947,-1.05332 -0.305659,-0.26098 -0.727442,-0.39312 -1.265866,-0.39312 z m 42.582372,0.16553 c -0.50079,0 -0.91319,0.13166 -1.23765,0.395 -0.32446,0.26331 -0.48716,0.59249 -0.48716,0.98749 0,0.26803 0.0672,0.49091 0.20126,0.6696 0.13637,0.17869 0.34609,0.34233 0.62823,0.49281 l 0,0.0225 c -0.308,0.13873 -0.54735,0.32682 -0.71663,0.56429 -0.16929,0.23511 -0.25393,0.49844 -0.25393,0.78998 0,0.45849 0.16787,0.83467 0.50409,1.12857 0.33857,0.2939 0.79281,0.44013 1.36179,0.44013 0.53607,0 0.9809,-0.15047 1.33358,-0.45142 0.35503,-0.30095 0.53231,-0.67855 0.53231,-1.13232 0,-0.31976 -0.0875,-0.58309 -0.26146,-0.78999 -0.17398,-0.20691 -0.42508,-0.37994 -0.75425,-0.52102 l 0,-0.0225 c 0.28684,-0.12931 0.50457,-0.308 0.65268,-0.53607 0.14813,-0.23041 0.22195,-0.46411 0.22195,-0.70158 0,-0.38794 -0.15752,-0.70771 -0.47023,-0.95928 -0.3127,-0.25157 -0.73027,-0.37618 -1.25458,-0.37618 z m -0.004,0.51726 c 0.30095,0 0.54829,0.0752 0.74109,0.2257 0.19515,0.14813 0.29154,0.34845 0.29154,0.60002 0,0.21866 -0.0442,0.41051 -0.13355,0.57745 -0.0894,0.16693 -0.25063,0.32822 -0.48339,0.48339 -0.15518,-0.0447 -0.31506,-0.1011 -0.47964,-0.16928 -0.16224,-0.0682 -0.28732,-0.1232 -0.37431,-0.16552 -0.1928,-0.0964 -0.33621,-0.20502 -0.43261,-0.32728 -0.0941,-0.12461 -0.14107,-0.27274 -0.14107,-0.44202 0,-0.23982 0.0941,-0.42885 0.28213,-0.56992 0.19045,-0.14107 0.43356,-0.21254 0.72981,-0.21254 z m -0.44767,2.21196 c 0.21866,0.0799 0.39313,0.14155 0.52479,0.18622 0.13166,0.0447 0.25251,0.0931 0.36302,0.14483 0.27743,0.13166 0.46459,0.26333 0.55864,0.395 0.0964,0.12931 0.14294,0.30282 0.14294,0.51913 0,0.30801 -0.10345,0.5497 -0.31035,0.72604 -0.20455,0.17634 -0.47682,0.26521 -0.82008,0.26521 -0.33622,0 -0.6146,-0.10345 -0.83326,-0.31035 -0.21866,-0.2069 -0.32728,-0.47071 -0.32728,-0.78811 0,-0.24923 0.063,-0.47211 0.18997,-0.66961 0.12932,-0.1975 0.30002,-0.35315 0.51161,-0.46836 z m -36.68565,8.39272 c -0.0094,0.15282 -0.04561,0.27508 -0.109094,0.36678 -0.06113,0.0894 -0.145777,0.16316 -0.253926,0.22195 -0.08699,0.047 -0.214426,0.0832 -0.383709,0.1091 -0.169282,0.0235 -0.327751,0.0357 -0.475875,0.0357 l 0,0.47963 1.09282,0 0,3.51923 -1.09282,0 0,0.53606 2.842085,0 0,-0.53606 -1.07213,0 0,-4.73242 -0.547351,0 z m 31.94384,0.14671 c -0.50786,0 -0.93953,0.16787 -1.2922,0.50409 -0.35268,0.33622 -0.52855,0.77306 -0.52855,1.30912 0,0.30801 0.0527,0.57275 0.15612,0.79376 0.1058,0.221 0.26145,0.40204 0.46835,0.54547 0.17634,0.12226 0.3508,0.20596 0.52478,0.24828 0.17634,0.0424 0.37243,0.0621 0.58873,0.0621 0.22806,0 0.4392,-0.0282 0.632,-0.0847 0.19279,-0.0564 0.39828,-0.15047 0.61694,-0.28214 -0.047,0.54783 -0.21913,0.9795 -0.51537,1.29221 -0.2939,0.31035 -0.69924,0.46458 -1.21885,0.46458 -0.15282,0 -0.29295,-0.0145 -0.41756,-0.0452 -0.12462,-0.0329 -0.2196,-0.0682 -0.28779,-0.10345 l -0.0357,0 0,0.67337 c 0.0846,0.0282 0.18151,0.0484 0.28966,0.0602 0.10816,0.0141 0.22195,0.0225 0.34421,0.0225 0.43496,0 0.81397,-0.0743 1.13608,-0.22007 0.32211,-0.14577 0.59108,-0.35267 0.80504,-0.6207 0.21161,-0.26333 0.36866,-0.58169 0.47211,-0.95552 0.10581,-0.37384 0.158,-0.79046 0.158,-1.24894 0,-0.48669 -0.0536,-0.88122 -0.16176,-1.18686 -0.10815,-0.308 -0.26286,-0.56098 -0.46271,-0.75614 -0.16223,-0.15752 -0.34985,-0.27414 -0.56616,-0.35173 -0.2163,-0.0799 -0.45142,-0.12038 -0.70534,-0.12038 z m -0.008,0.57557 c 0.14812,0 0.28496,0.0225 0.41192,0.0696 0.12697,0.0447 0.24688,0.11991 0.35738,0.22572 0.13166,0.12226 0.23511,0.29436 0.31035,0.51537 0.0752,0.22102 0.11286,0.51397 0.11286,0.87839 0,0.0752 -0.003,0.13684 -0.008,0.18622 -0.002,0.047 -0.005,0.0954 -0.008,0.14483 -0.16458,0.0941 -0.34045,0.16505 -0.52854,0.21443 -0.18809,0.0494 -0.37337,0.0752 -0.55676,0.0752 -0.15517,0 -0.29624,-0.0122 -0.42321,-0.0357 -0.12696,-0.0259 -0.24405,-0.0757 -0.34985,-0.14859 -0.15047,-0.10581 -0.25816,-0.22948 -0.32164,-0.37055 -0.0635,-0.14107 -0.0941,-0.32211 -0.0941,-0.54547 0,-0.38324 0.0964,-0.68183 0.29155,-0.89344 0.1975,-0.2116 0.46646,-0.31599 0.80504,-0.31599 z m -21.677719,5.97383 c -0.623055,0 -1.08106,0.22289 -1.374959,0.6696 -0.2939,0.44438 -0.440139,1.13374 -0.440139,2.06715 0,0.92636 0.143424,1.61289 0.432614,2.05962 0.29154,0.44672 0.752379,0.66961 1.382484,0.66961 0.620715,0 1.079179,-0.22054 1.373079,-0.6602 0.296239,-0.44203 0.4439,-1.13374 0.4439,-2.07655 0,-0.9146 -0.146717,-1.59692 -0.438257,-2.04834 -0.2892,-0.45377 -0.748607,-0.68089 -1.378722,-0.68089 z m 0,0.58121 c 0.223367,0 0.406285,0.0457 0.54735,0.13731 0.143425,0.0917 0.256277,0.229 0.338568,0.41004 0.08464,0.18339 0.141067,0.40627 0.169284,0.66961 0.03057,0.26333 0.04514,0.57368 0.04514,0.93106 0,0.36207 -0.01458,0.67243 -0.04514,0.93105 -0.02822,0.25629 -0.08323,0.47917 -0.165522,0.66962 -0.07993,0.18574 -0.192792,0.32399 -0.338567,0.41569 -0.145775,0.0917 -0.330096,0.13918 -0.551113,0.13918 -0.235116,0 -0.424616,-0.0484 -0.568041,-0.14483 -0.141066,-0.0964 -0.2497,-0.23606 -0.327281,-0.41945 -0.08464,-0.19515 -0.139655,-0.4171 -0.165523,-0.66396 -0.02586,-0.24688 -0.0395,-0.553 -0.0395,-0.91978 0,-0.33386 0.01504,-0.64187 0.04326,-0.92165 0.03057,-0.27979 0.08559,-0.50692 0.165522,-0.6809 0.08464,-0.18574 0.198913,-0.32399 0.342328,-0.41568 0.145776,-0.0917 0.328225,-0.13731 0.549232,-0.13731 z m 13.663079,0.48152 c -0.41537,0 -0.72008,0.14984 -0.91601,0.44765 -0.19593,0.29625 -0.29343,0.75457 -0.29343,1.37685 0,0.61756 0.0949,1.07526 0.28778,1.37307 0.19437,0.29781 0.50159,0.44766 0.92166,0.44766 0.4138,0 0.72008,-0.14703 0.91601,-0.44013 0.1975,-0.29468 0.2953,-0.75582 0.2953,-1.38437 0,-0.60974 -0.0972,-1.06648 -0.29154,-1.36743 -0.1928,-0.30252 -0.4997,-0.4533 -0.91977,-0.4533 z m -3.12799,0.0583 c -0.007,0.10189 -0.031,0.18339 -0.0734,0.24452 -0.0407,0.0596 -0.0972,0.10941 -0.16928,0.1486 -0.058,0.0314 -0.14294,0.0561 -0.2558,0.0734 -0.11286,0.0157 -0.21913,0.0225 -0.31788,0.0225 l 0,0.31976 0.72792,0 0,2.3474 -0.72792,0 0,0.35737 1.8941,0 0,-0.35737 -0.71476,0 0,-3.15621 -0.36302,0 z m 3.12799,0.32916 c 0.14891,0 0.27086,0.031 0.3649,0.0922 0.0956,0.0611 0.17084,0.15204 0.22571,0.27274 0.0564,0.12226 0.0941,0.2721 0.11286,0.44766 0.0204,0.17555 0.03,0.38246 0.03,0.6207 0,0.24139 -0.01,0.4483 -0.03,0.62071 -0.0188,0.17085 -0.0562,0.31882 -0.11098,0.44578 -0.0533,0.12383 -0.12852,0.21725 -0.22571,0.27838 -0.0972,0.0612 -0.21944,0.0902 -0.36678,0.0902 -0.15675,0 -0.28246,-0.0317 -0.37807,-0.0959 -0.0941,-0.0642 -0.16645,-0.158 -0.21819,-0.28026 -0.0564,-0.1301 -0.0937,-0.27743 -0.11098,-0.44202 -0.0172,-0.16458 -0.0263,-0.36867 -0.0263,-0.61318 0,-0.22258 0.01,-0.42666 0.0282,-0.61319 0.0204,-0.18652 0.0577,-0.33731 0.11098,-0.4533 0.0564,-0.12382 0.13197,-0.21725 0.22759,-0.27838 0.0972,-0.0611 0.21945,-0.0922 0.36678,-0.0922 z"
         style="font-style:normal;font-weight:normal;font-size:5px;line-height:125%;font-family:sans-serif;letter-spacing:0px;word-spacing:0px;fill:#b1937e;fill-opacity:1;stroke:none;stroke-width:1px;stroke-linecap:butt;stroke-linejoin:miter;stroke-opacity:1"
         inkscape:connector-curvature="0" />
      <g
         id="handleThr"
         inkscape:label="#g5071">
        <path
           sodipodi:nodetypes="cccccc"
           style="color:#000000;font-style:normal;font-variant:normal;font-weight:normal;font-stretch:normal;font-size:medium;line-height:normal;font-family:sans-serif;text-indent:0;text-align:start;text-decoration:none;text-decoration-line:none;text-decoration-style:solid;text-decoration-color:#000000;letter-spacing:normal;word-spacing:normal;text-transform:none;direction:ltr;block-progression:tb;writing-mode:lr-tb;baseline-shift:baseline;text-anchor:start;white-space:normal;clip-rule:nonzero;display:inline;overflow:visible;visibility:visible;opacity:0.553;isolation:auto;mix-blend-mode:normal;color-interpolation:sRGB;color-interpolation-filters:linearRGB;solid-color:#000000;solid-opacity:1;fill:#000000;fill-opacity:1;fill-rule:nonzero;stroke:none;stroke-width:5;stroke-linecap:butt;stroke-linejoin:miter;stroke-miterlimit:4;stroke-dasharray:none;stroke-dashoffset:0;stroke-opacity:1;filter:url(#filter4905);color-rendering:auto;image-rendering:auto;shape-rendering:auto;text-rendering:auto;enable-background:accumulate"
           d="m 205.69169,153.14732 -101.98206,99.59003 3.59961,4.31836 1.92579,-1.6543 107.13244,-90.65253 z"
           id="path4962"
           inkscape:connector-curvature="0"
           transform="matrix(0.17558908,-0.11127722,0.11362687,0.17929669,43.02286,187.16169)" />
        <path
           style="fill:#b1937e;fill-opacity:1;stroke:none;stroke-width:5;stroke-miterlimit:4;stroke-dasharray:none;stroke-opacity:0.35503001"
           d="m 90.984245,219.84032 -0.154019,-0.0513 6.240469,-27.99844 2.147957,0.60019 z"
           id="path4964"
           inkscape:connector-curvature="0"
           sodipodi:nodetypes="ccccc" />
      </g>
      <path
         id="circle5121"
         style="fill:none;fill-opacity:1;stroke:#b1937e;stroke-width:1;stroke-miterlimit:4;stroke-dasharray:none;stroke-opacity:1"
         inkscape:label="#circle4956"
         sodipodi:type="arc"
         sodipodi:cx="96.8125"
         sodipodi:cy="197.99118"
         sodipodi:rx="26.544731"
         sodipodi:ry="26.544731"
         sodipodi:start="1.8325957"
         sodipodi:end="1.3089969"
         d="M 89.942218,223.63142 A 26.544731,26.544731 0 0 1 70.494863,194.5264 26.544731,26.544731 0 0 1 96.812499,171.44645 26.544731,26.544731 0 0 1 123.13014,194.5264 26.544731,26.544731 0 0 1 103.68278,223.63142"
         sodipodi:open="true" />
    </g>
    <g
       id="g4212">
      <path
         sodipodi:nodetypes="cccccc"
         inkscape:connector-curvature="0"
         id="path4197"
         d="m 80.023811,248.40592 -78.4297181,0 0,-21.81182 64.0748461,0 c 4.350008,2.53777 10.862794,5.62779 14.354662,7.04001 z"
         style="fill:#110e0c;fill-opacity:1;stroke:#000000;stroke-width:3.18818569;stroke-miterlimit:4;stroke-dasharray:none;stroke-opacity:0.24852074" />
      <text
         transform="scale(1.0005047,0.99949555)"
         inkscape:label="#text4140"
         sodipodi:linespacing="125%"
         id="label-5"
         y="242.26273"
         x="5.3984203"
         style="font-style:normal;font-variant:normal;font-weight:bold;font-stretch:normal;font-size:11.25945091px;line-height:125%;font-family:sans-serif;-inkscape-font-specification:'sans-serif Bold';letter-spacing:0px;word-spacing:0px;fill:#554400;fill-opacity:1;stroke:none;stroke-width:1px;stroke-linecap:butt;stroke-linejoin:miter;stroke-opacity:1"
         xml:space="preserve"><tspan
           style="-inkscape-font-specification:'sans-serif Bold';font-family:sans-serif;font-weight:bold;font-style:normal;font-stretch:normal;font-variant:normal"
           y="242.26273"
           x="5.3984203"
           id="tspan4142-59"
           sodipodi:role="line">Avg</tspan></text>
      <text
         transform="scale(1.0005047,0.99949555)"
         xml:space="preserve"
         style="font-style:normal;font-variant:normal;font-weight:bold;font-stretch:normal;font-size:11.25945091px;line-height:125%;font-family:sans-serif;-inkscape-font-specification:'sans-serif Bold';text-align:end;letter-spacing:0px;word-spacing:0px;text-anchor:end;fill:#b1937e;fill-opacity:1;stroke:none;stroke-width:1px;stroke-linecap:butt;stroke-linejoin:miter;stroke-opacity:1"
         x="74.856949"
         y="242.21204"
         id="averageConsumption"
         sodipodi:linespacing="125%"
         inkscape:label="#text4140"><tspan
           style="font-style:normal;font-variant:normal;font-weight:normal;font-stretch:normal;font-family:sans-serif;-inkscape-font-specification:sans-serif"
           sodipodi:role="line"
           id="tspan4146-5"
           x="74.856949"
           y="242.21204">0.00lph</tspan></text>
    </g>
    <g
       id="g4219"
       transform="translate(168.38207,0)">
      <path
         style="fill:#110e0c;fill-opacity:1;stroke:#000000;stroke-width:3.18818569;stroke-miterlimit:4;stroke-dasharray:none;stroke-opacity:0.24852074"
         d="m 1.5941156,248.40592 78.4297184,0 0,-21.81182 -64.074846,0 c -4.350008,2.53777 -10.8627944,5.62779 -14.3546624,7.04001 z"
         id="path4221"
         inkscape:connector-curvature="0"
         sodipodi:nodetypes="cccccc" />
      <text
         xml:space="preserve"
         style="font-style:normal;font-variant:normal;font-weight:bold;font-stretch:normal;font-size:11.25945091px;line-height:125%;font-family:sans-serif;-inkscape-font-specification:'sans-serif Bold';letter-spacing:0px;word-spacing:0px;fill:#554400;fill-opacity:1;stroke:none;stroke-width:1px;stroke-linecap:butt;stroke-linejoin:miter;stroke-opacity:1"
         x="5.3984203"
         y="242.26273"
         id="text4223"
         sodipodi:linespacing="125%"
         inkscape:label="#text4140"
         transform="scale(1.0005047,0.99949555)"><tspan
           sodipodi:role="line"
           id="tspan4225"
           x="5.3984203"
           y="242.26273"
           style="font-style:normal;font-variant:normal;font-weight:bold;font-stretch:normal;font-family:sans-serif;-inkscape-font-specification:sans-serif">Ins</tspan></text>
      <text
         inkscape:label="#text4140"
         sodipodi:linespacing="125%"
         id="instantConsumption"
         y="242.21204"
         x="74.856949"
         style="font-style:normal;font-variant:normal;font-weight:bold;font-stretch:normal;font-size:11.25945091px;line-height:125%;font-family:sans-serif;-inkscape-font-specification:'sans-serif Bold';text-align:end;letter-spacing:0px;word-spacing:0px;text-anchor:end;fill:#b1937e;fill-opacity:1;stroke:none;stroke-width:1px;stroke-linecap:butt;stroke-linejoin:miter;stroke-opacity:1"
         xml:space="preserve"
         transform="scale(1.0005047,0.99949555)"><tspan
           y="242.21204"
           x="74.856949"
           id="tspan4229"
           sodipodi:role="line"
           style="font-style:normal;font-variant:normal;font-weight:normal;font-stretch:normal;font-family:sans-serif;-inkscape-font-specification:sans-serif">0.00lph</tspan></text>
    </g>
    <g
       id="g4231"
       transform="translate(0,-225.00001)">
      <path
         style="fill:#110e0c;fill-opacity:1;stroke:#000000;stroke-width:3.18818569;stroke-miterlimit:4;stroke-dasharray:none;stroke-opacity:0.24852074"
         d="m 80.023811,226.5941 -78.4297181,0 0,21.81182 64.0748461,0 c 4.350008,-2.53777 10.862794,-5.62779 14.354662,-7.04001 z"
         id="path4233"
         inkscape:connector-curvature="0"
         sodipodi:nodetypes="cccccc" />
      <text
         xml:space="preserve"
         style="font-style:normal;font-variant:normal;font-weight:bold;font-stretch:normal;font-size:11.25945091px;line-height:125%;font-family:sans-serif;-inkscape-font-specification:'sans-serif Bold';letter-spacing:0px;word-spacing:0px;fill:#554400;fill-opacity:1;stroke:none;stroke-width:1px;stroke-linecap:butt;stroke-linejoin:miter;stroke-opacity:1"
         x="5.3984203"
         y="242.26273"
         id="text4235"
         sodipodi:linespacing="125%"
         inkscape:label="#text4140"
         transform="scale(1.0005047,0.99949555)"><tspan
           sodipodi:role="line"
           id="tspan4237"
           x="5.3984203"
           y="242.26273"
           style="font-style:normal;font-variant:normal;font-weight:bold;font-stretch:normal;font-family:sans-serif;-inkscape-font-specification:sans-serif">Tim</tspan></text>
      <text
         inkscape:label="#text4140"
         sodipodi:linespacing="125%"
         id="remainingTime"
         y="242.21204"
         x="74.856949"
         style="font-style:normal;font-variant:normal;font-weight:bold;font-stretch:normal;font-size:11.25945091px;line-height:125%;font-family:sans-serif;-inkscape-font-specification:'sans-serif Bold';text-align:end;letter-spacing:0px;word-spacing:0px;text-anchor:end;fill:#b1937e;fill-opacity:1;stroke:none;stroke-width:1px;stroke-linecap:butt;stroke-linejoin:miter;stroke-opacity:1"
         xml:space="preserve"
         transform="scale(1.0005047,0.99949555)"><tspan
           y="242.21204"
           x="74.856949"
           id="tspan4241"
           sodipodi:role="line"
           style="font-style:normal;font-variant:normal;font-weight:normal;font-stretch:normal;font-family:sans-serif;-inkscape-font-specification:sans-serif">0min</tspan></text>
    </g>
    <g
       transform="translate(168.38207,-225.00001)"
       id="g4243">
      <path
         sodipodi:nodetypes="cccccc"
         inkscape:connector-curvature="0"
         id="path4245"
         d="m 1.5941156,226.5941 78.4297184,0 0,21.81182 -64.074846,0 C 11.59898,245.86815 5.0861936,242.77813 1.5943256,241.36591 Z"
         style="fill:#110e0c;fill-opacity:1;stroke:#000000;stroke-width:3.18818569;stroke-miterlimit:4;stroke-dasharray:none;stroke-opacity:0.24852074" />
      <text
         transform="scale(1.0005047,0.99949555)"
         inkscape:label="#text4140"
         sodipodi:linespacing="125%"
         id="text4247"
         y="242.26273"
         x="5.3984203"
         style="font-style:normal;font-variant:normal;font-weight:bold;font-stretch:normal;font-size:11.25945091px;line-height:125%;font-family:sans-serif;-inkscape-font-specification:'sans-serif Bold';letter-spacing:0px;word-spacing:0px;fill:#554400;fill-opacity:1;stroke:none;stroke-width:1px;stroke-linecap:butt;stroke-linejoin:miter;stroke-opacity:1"
         xml:space="preserve"><tspan
           style="font-style:normal;font-variant:normal;font-weight:bold;font-stretch:normal;font-family:sans-serif;-inkscape-font-specification:sans-serif"
           y="242.26273"
           x="5.3984203"
           id="tspan4249"
           sodipodi:role="line">Dis</tspan></text>
      <text
         transform="scale(1.0005047,0.99949555)"
         xml:space="preserve"
         style="font-style:normal;font-variant:normal;font-weight:bold;font-stretch:normal;font-size:11.25945091px;line-height:125%;font-family:sans-serif;-inkscape-font-specification:'sans-serif Bold';text-align:end;letter-spacing:0px;word-spacing:0px;text-anchor:end;fill:#b1937e;fill-opacity:1;stroke:none;stroke-width:1px;stroke-linecap:butt;stroke-linejoin:miter;stroke-opacity:1"
         x="74.856949"
         y="242.21204"
         id="remainingDistance"
         sodipodi:linespacing="125%"
         inkscape:label="#text4140"><tspan
           style="font-style:normal;font-variant:normal;font-weight:normal;font-stretch:normal;font-family:sans-serif;-inkscape-font-specification:sans-serif"
           sodipodi:role="line"
           id="tspan4253"
           x="74.856949"
           y="242.21204">0km</tspan></text>
    </g>
  </g>
</svg>
