<?xml version="1.0" encoding="UTF-8" standalone="no"?>
<!-- Created with Inkscape (http://www.inkscape.org/) -->

<svg
   xmlns:dc="http://purl.org/dc/elements/1.1/"
   xmlns:cc="http://creativecommons.org/ns#"
   xmlns:rdf="http://www.w3.org/1999/02/22-rdf-syntax-ns#"
   xmlns:svg="http://www.w3.org/2000/svg"
   xmlns="http://www.w3.org/2000/svg"
   xmlns:xlink="http://www.w3.org/1999/xlink"
   xmlns:sodipodi="http://sodipodi.sourceforge.net/DTD/sodipodi-0.dtd"
   xmlns:inkscape="http://www.inkscape.org/namespaces/inkscape"
   width="250"
   height="250"
   viewBox="0 0 250 250"
   id="gaugeVariometer"
   version="1.1"
   inkscape:version="0.91 r13725"
   sodipodi:docname="gaugeVariometer2.svg">
  <defs
     id="defs4">
    <inkscape:path-effect
       effect="skeletal"
       id="path-effect4287"
       is_visible="true"
       pattern="M 0,0 1,0"
       copytype="single_stretched"
       prop_scale="1"
       scale_y_rel="false"
       spacing="0"
       normal_offset="0"
       tang_offset="0"
       prop_units="false"
       vertical_pattern="false"
       fuse_tolerance="0" />
    <inkscape:path-effect
       effect="bend_path"
       id="path-effect5222"
       is_visible="true"
       bendpath="m 426.29551,159.48134 c -11.87728,32.6326 -45.46966,52.02718 -79.66896,45.99692 -34.19928,-6.03027 -59.13246,-35.74447 -59.13246,-70.47133 0,-34.72687 24.93318,-64.441074 59.13246,-70.471331 34.1993,-6.030254 67.79168,13.364316 79.66898,45.996891"
       prop_scale="1"
       scale_y_rel="false"
       vertical="false" />
    <inkscape:path-effect
       effect="bend_path"
       id="path-effect4982"
       is_visible="true"
       bendpath="m -280.04039,282.99693 500.90005,0"
       prop_scale="1"
       scale_y_rel="false"
       vertical="false" />
    <inkscape:path-effect
       effect="ruler"
       id="path-effect4888"
       is_visible="true"
       unit="px"
       mark_distance="12.5"
       mark_length="20"
       minor_mark_length="10"
       major_mark_steps="10"
       shift="0"
       offset="0"
       mark_dir="left"
       border_marks="both" />
    <inkscape:path-effect
       effect="bend_path"
       id="path-effect4452"
       is_visible="true"
       bendpath="M 193.578,149.91325 C 181.48776,183.13091 147.2931,202.8732 112.48066,196.73481 77.668203,190.59644 52.288,160.34949 52.288,125.00001 c 0,-35.349493 25.380212,-65.596443 60.19267,-71.734816 34.81244,-6.138371 69.0071,13.603926 81.09733,46.821576"
       prop_scale="1"
       scale_y_rel="false"
       vertical="false" />
    <inkscape:path-effect
       vertical="false"
       scale_y_rel="false"
       prop_scale="1"
       bendpath="m -288.07543,273.57518 540.009,0"
       is_visible="true"
       id="path-effect4449"
       effect="bend_path" />
    <inkscape:path-effect
       effect="bend_path"
       id="path-effect4275"
       is_visible="true"
       bendpath="m -287.38281,273.57518 540.009,0"
       prop_scale="1"
       scale_y_rel="false"
       vertical="false" />
    <inkscape:path-effect
       effect="bend_path"
       id="path-effect4236"
       is_visible="true"
       bendpath="m -287.38281,273.57519 540.00872,0"
       prop_scale="1"
       scale_y_rel="false"
       vertical="false" />
    <inkscape:path-effect
       border_marks="both"
       mark_dir="left"
       offset="0"
       shift="0"
       major_mark_steps="1"
       minor_mark_length="7"
       mark_length="14"
       mark_distance="60"
       unit="px"
       is_visible="true"
       id="path-effect4187"
       effect="ruler" />
    <inkscape:path-effect
       effect="ruler"
       id="path-effect4182"
       is_visible="true"
       unit="px"
       mark_distance="12"
       mark_length="14"
       minor_mark_length="7"
       major_mark_steps="5"
       shift="0"
       offset="0"
       mark_dir="left"
       border_marks="both" />
    <linearGradient
       inkscape:collect="always"
       id="linearGradient4386">
      <stop
         style="stop-color:#4b413a;stop-opacity:1"
         offset="0"
         id="stop4388" />
      <stop
         style="stop-color:#0d0b09;stop-opacity:1"
         offset="1"
         id="stop4390" />
    </linearGradient>
    <inkscape:path-effect
       effect="bend_path"
       id="path-effect4375"
       is_visible="true"
       bendpath="M 90.275137,271.70687 C 68.572574,249.25108 55.228309,218.72518 55.228307,185.09514 55.228301,116.11085 111.377,60.188038 180.63992,60.188038 c 69.26292,1e-5 125.4116,55.922812 125.4116,124.907102 l 0,0 c 0,33.59507 -13.31652,64.09241 -34.97912,86.54161"
       prop_scale="1"
       scale_y_rel="false"
       vertical="false" />
    <inkscape:path-effect
       effect="ruler"
       id="path-effect3338"
       is_visible="true"
       unit="px"
       mark_distance="11"
       mark_length="26"
       minor_mark_length="13"
       major_mark_steps="5"
       shift="0"
       offset="0"
       mark_dir="right"
       border_marks="none" />
    <inkscape:path-effect
       effect="ruler"
       id="path-effect3338-7"
       is_visible="true"
       unit="px"
       mark_distance="11"
       mark_length="26"
       minor_mark_length="0"
       major_mark_steps="5"
       shift="0"
       offset="0"
       mark_dir="right"
       border_marks="none" />
    <radialGradient
       inkscape:collect="always"
       xlink:href="#linearGradient4386"
       id="radialGradient4392"
       cx="135.16547"
       cy="132.26157"
       fx="135.16547"
       fy="132.26157"
       r="24.163879"
       gradientUnits="userSpaceOnUse"
       gradientTransform="matrix(1.376557,-0.02948344,0.03036212,1.4175814,-71.056629,-67.98131)" />
    <filter
       style="color-interpolation-filters:sRGB"
       inkscape:label="Drop Shadow"
       id="filter4519">
      <feFlood
         flood-opacity="0.419608"
         flood-color="rgb(0,0,0)"
         result="flood"
         id="feFlood4521" />
      <feComposite
         in="flood"
         in2="SourceGraphic"
         operator="in"
         result="composite1"
         id="feComposite4523" />
      <feGaussianBlur
         in="composite1"
         stdDeviation="2"
         result="blur"
         id="feGaussianBlur4525" />
      <feOffset
         dx="2"
         dy="2"
         result="offset"
         id="feOffset4527" />
      <feComposite
         in="SourceGraphic"
         in2="offset"
         operator="over"
         result="composite2"
         id="feComposite4529" />
    </filter>
    <filter
       inkscape:collect="always"
       style="color-interpolation-filters:sRGB"
       id="filter4383"
       x="-0.049885858"
       width="1.0997717"
       y="-0.45946152"
       height="1.918923">
      <feGaussianBlur
         inkscape:collect="always"
         stdDeviation="2.389958"
         id="feGaussianBlur4385" />
    </filter>
    <inkscape:path-effect
       vertical="false"
       scale_y_rel="false"
       prop_scale="1"
       bendpath="m -115.23358,142.30479 a 16.892628,16.892628 0 0 1 -12.37598,-18.52196 16.892628,16.892628 0 0 1 16.74811,-14.6877 16.892628,16.892628 0 0 1 16.748108,14.6877 16.892628,16.892628 0 0 1 -12.375978,18.52196"
       is_visible="true"
       id="path-effect4812"
       effect="bend_path" />
    <inkscape:path-effect
       border_marks="both"
       mark_dir="right"
       offset="0"
       shift="0"
       major_mark_steps="1"
       minor_mark_length="7"
       mark_length="5"
       mark_distance="10"
       unit="px"
       is_visible="true"
       id="path-effect4810"
       effect="ruler" />
    <inkscape:path-effect
       vertical="false"
       scale_y_rel="false"
       prop_scale="1"
       bendpath="M -86.495276,96.981088 A 26.544966,26.544966 0 0 1 -105.9428,67.875807 26.544966,26.544966 0 0 1 -79.624934,44.795655 26.544966,26.544966 0 0 1 -53.307064,67.875806 26.544966,26.544966 0 0 1 -72.75459,96.981088"
       is_visible="true"
       id="path-effect4180"
       effect="bend_path" />
    <inkscape:path-effect
       border_marks="both"
       mark_dir="right"
       offset="0"
       shift="0"
       major_mark_steps="5"
       minor_mark_length="7"
       mark_length="14"
       mark_distance="20"
       unit="px"
       is_visible="true"
       id="path-effect4178"
       effect="ruler" />
    <inkscape:path-effect
       vertical="false"
       scale_y_rel="false"
       prop_scale="1"
       bendpath="m -128.33988,243.67926 157,0"
       is_visible="true"
       id="path-effect4176"
       effect="bend_path" />
    <inkscape:path-effect
       vertical="false"
       scale_y_rel="false"
       prop_scale="1"
       bendpath="M 90.275137,271.70687 C 68.572574,249.25108 55.228309,218.72518 55.228307,185.09514 55.228301,116.11085 111.377,60.188038 180.63992,60.188038 c 69.26292,1e-5 125.4116,55.922812 125.4116,124.907102 l 0,0 c 0,33.59507 -13.31652,64.09241 -34.97912,86.54161"
       is_visible="true"
       id="path-effect4375-3"
       effect="bend_path" />
    <inkscape:path-effect
       border_marks="none"
       mark_dir="right"
       offset="0"
       shift="0"
       major_mark_steps="5"
       minor_mark_length="13"
       mark_length="26"
       mark_distance="11"
       unit="px"
       is_visible="true"
       id="path-effect3338-6"
       effect="ruler" />
    <inkscape:path-effect
       border_marks="none"
       mark_dir="right"
       offset="0"
       shift="0"
       major_mark_steps="5"
       minor_mark_length="0"
       mark_length="26"
       mark_distance="11"
       unit="px"
       is_visible="true"
       id="path-effect3338-7-7"
       effect="ruler" />
    <filter
       id="filter4519-9"
       inkscape:label="Drop Shadow"
       style="color-interpolation-filters:sRGB">
      <feFlood
         id="feFlood4521-6"
         result="flood"
         flood-color="rgb(0,0,0)"
         flood-opacity="0.419608" />
      <feComposite
         id="feComposite4523-4"
         result="composite1"
         operator="in"
         in2="SourceGraphic"
         in="flood" />
      <feGaussianBlur
         id="feGaussianBlur4525-6"
         result="blur"
         stdDeviation="2"
         in="composite1" />
      <feOffset
         id="feOffset4527-8"
         result="offset"
         dy="2"
         dx="2" />
      <feComposite
         id="feComposite4529-1"
         result="composite2"
         operator="over"
         in2="offset"
         in="SourceGraphic" />
    </filter>
    <inkscape:path-effect
       vertical="false"
       scale_y_rel="false"
       prop_scale="1"
       bendpath="m -115.23358,142.30479 a 16.892628,16.892628 0 0 1 -12.37598,-18.52196 16.892628,16.892628 0 0 1 16.74811,-14.6877 16.892628,16.892628 0 0 1 16.748108,14.6877 16.892628,16.892628 0 0 1 -12.375978,18.52196"
       is_visible="true"
       id="path-effect4812-4"
       effect="bend_path" />
    <inkscape:path-effect
       border_marks="both"
       mark_dir="right"
       offset="0"
       shift="0"
       major_mark_steps="1"
       minor_mark_length="7"
       mark_length="5"
       mark_distance="10"
       unit="px"
       is_visible="true"
       id="path-effect4810-3"
       effect="ruler" />
    <inkscape:path-effect
       vertical="false"
       scale_y_rel="false"
       prop_scale="1"
       bendpath="M -86.495276,96.981088 A 26.544966,26.544966 0 0 1 -105.9428,67.875807 26.544966,26.544966 0 0 1 -79.624934,44.795655 26.544966,26.544966 0 0 1 -53.307064,67.875806 26.544966,26.544966 0 0 1 -72.75459,96.981088"
       is_visible="true"
       id="path-effect4180-4"
       effect="bend_path" />
    <inkscape:path-effect
       border_marks="both"
       mark_dir="right"
       offset="0"
       shift="0"
       major_mark_steps="5"
       minor_mark_length="7"
       mark_length="14"
       mark_distance="20"
       unit="px"
       is_visible="true"
       id="path-effect4178-7"
       effect="ruler" />
    <inkscape:path-effect
       vertical="false"
       scale_y_rel="false"
       prop_scale="1"
       bendpath="m -128.33988,243.67926 157,0"
       is_visible="true"
       id="path-effect4176-7"
       effect="bend_path" />
    <inkscape:path-effect
       vertical="false"
       scale_y_rel="false"
       prop_scale="1"
       bendpath="M 90.275137,271.70687 C 68.572574,249.25108 55.228309,218.72518 55.228307,185.09514 55.228301,116.11085 111.377,60.188038 180.63992,60.188038 c 69.26292,1e-5 125.4116,55.922812 125.4116,124.907102 l 0,0 c 0,33.59507 -13.31652,64.09241 -34.97912,86.54161"
       is_visible="true"
       id="path-effect4375-9"
       effect="bend_path" />
    <inkscape:path-effect
       border_marks="none"
       mark_dir="right"
       offset="0"
       shift="0"
       major_mark_steps="5"
       minor_mark_length="13"
       mark_length="26"
       mark_distance="11"
       unit="px"
       is_visible="true"
       id="path-effect3338-2"
       effect="ruler" />
    <inkscape:path-effect
       border_marks="none"
       mark_dir="right"
       offset="0"
       shift="0"
       major_mark_steps="5"
       minor_mark_length="0"
       mark_length="26"
       mark_distance="11"
       unit="px"
       is_visible="true"
       id="path-effect3338-7-6"
       effect="ruler" />
    <filter
       id="filter4519-8"
       inkscape:label="Drop Shadow"
       style="color-interpolation-filters:sRGB">
      <feFlood
         id="feFlood4521-3"
         result="flood"
         flood-color="rgb(0,0,0)"
         flood-opacity="0.419608" />
      <feComposite
         id="feComposite4523-49"
         result="composite1"
         operator="in"
         in2="SourceGraphic"
         in="flood" />
      <feGaussianBlur
         id="feGaussianBlur4525-2"
         result="blur"
         stdDeviation="2"
         in="composite1" />
      <feOffset
         id="feOffset4527-7"
         result="offset"
         dy="2"
         dx="2" />
      <feComposite
         id="feComposite4529-0"
         result="composite2"
         operator="over"
         in2="offset"
         in="SourceGraphic" />
    </filter>
    <inkscape:path-effect
       vertical="false"
       scale_y_rel="false"
       prop_scale="1"
       bendpath="m -115.23358,142.30479 a 16.892628,16.892628 0 0 1 -12.37598,-18.52196 16.892628,16.892628 0 0 1 16.74811,-14.6877 16.892628,16.892628 0 0 1 16.748108,14.6877 16.892628,16.892628 0 0 1 -12.375978,18.52196"
       is_visible="true"
       id="path-effect4812-1"
       effect="bend_path" />
    <inkscape:path-effect
       border_marks="both"
       mark_dir="right"
       offset="0"
       shift="0"
       major_mark_steps="1"
       minor_mark_length="7"
       mark_length="5"
       mark_distance="10"
       unit="px"
       is_visible="true"
       id="path-effect4810-9"
       effect="ruler" />
    <inkscape:path-effect
       vertical="false"
       scale_y_rel="false"
       prop_scale="1"
       bendpath="M -86.495276,96.981088 A 26.544966,26.544966 0 0 1 -105.9428,67.875807 26.544966,26.544966 0 0 1 -79.624934,44.795655 26.544966,26.544966 0 0 1 -53.307064,67.875806 26.544966,26.544966 0 0 1 -72.75459,96.981088"
       is_visible="true"
       id="path-effect4180-2"
       effect="bend_path" />
    <inkscape:path-effect
       border_marks="both"
       mark_dir="right"
       offset="0"
       shift="0"
       major_mark_steps="5"
       minor_mark_length="7"
       mark_length="14"
       mark_distance="20"
       unit="px"
       is_visible="true"
       id="path-effect4178-0"
       effect="ruler" />
    <inkscape:path-effect
       vertical="false"
       scale_y_rel="false"
       prop_scale="1"
       bendpath="m -128.33988,243.67926 157,0"
       is_visible="true"
       id="path-effect4176-5"
       effect="bend_path" />
    <inkscape:path-effect
       vertical="false"
       scale_y_rel="false"
       prop_scale="1"
       bendpath="M 90.275137,271.70687 C 68.572574,249.25108 55.228309,218.72518 55.228307,185.09514 55.228301,116.11085 111.377,60.188038 180.63992,60.188038 c 69.26292,1e-5 125.4116,55.922812 125.4116,124.907102 l 0,0 c 0,33.59507 -13.31652,64.09241 -34.97912,86.54161"
       is_visible="true"
       id="path-effect4375-4"
       effect="bend_path" />
    <inkscape:path-effect
       border_marks="none"
       mark_dir="right"
       offset="0"
       shift="0"
       major_mark_steps="5"
       minor_mark_length="13"
       mark_length="26"
       mark_distance="11"
       unit="px"
       is_visible="true"
       id="path-effect3338-8"
       effect="ruler" />
    <inkscape:path-effect
       border_marks="none"
       mark_dir="right"
       offset="0"
       shift="0"
       major_mark_steps="5"
       minor_mark_length="0"
       mark_length="26"
       mark_distance="11"
       unit="px"
       is_visible="true"
       id="path-effect3338-7-9"
       effect="ruler" />
    <filter
       id="filter4519-6"
       inkscape:label="Drop Shadow"
       style="color-interpolation-filters:sRGB">
      <feFlood
         id="feFlood4521-1"
         result="flood"
         flood-color="rgb(0,0,0)"
         flood-opacity="0.419608" />
      <feComposite
         id="feComposite4523-2"
         result="composite1"
         operator="in"
         in2="SourceGraphic"
         in="flood" />
      <feGaussianBlur
         id="feGaussianBlur4525-4"
         result="blur"
         stdDeviation="2"
         in="composite1" />
      <feOffset
         id="feOffset4527-1"
         result="offset"
         dy="2"
         dx="2" />
      <feComposite
         id="feComposite4529-7"
         result="composite2"
         operator="over"
         in2="offset"
         in="SourceGraphic" />
    </filter>
    <filter
       inkscape:collect="always"
       style="color-interpolation-filters:sRGB"
       id="filter4905"
       x="-0.05780144"
       width="1.1156029"
       y="-0.062372424"
       height="1.1247449">
      <feGaussianBlur
         inkscape:collect="always"
         stdDeviation="3.0546144"
         id="feGaussianBlur4907" />
    </filter>
    <filter
       inkscape:collect="always"
       style="color-interpolation-filters:sRGB"
       id="filter4678"
       x="-0.19015793"
       width="1.3803159"
       y="-0.049062324"
       height="1.0981246">
      <feGaussianBlur
         inkscape:collect="always"
         stdDeviation="0.47592907"
         id="feGaussianBlur4680" />
    </filter>
  </defs>
  <sodipodi:namedview
     id="base"
     pagecolor="#63564d"
     bordercolor="#666666"
     borderopacity="1.0"
     inkscape:pageopacity="1"
     inkscape:pageshadow="2"
     inkscape:zoom="1.5299439"
     inkscape:cx="122.04281"
     inkscape:cy="121.64136"
     inkscape:document-units="px"
     inkscape:current-layer="layer1"
     showgrid="false"
     inkscape:window-width="986"
     inkscape:window-height="610"
     inkscape:window-x="495"
     inkscape:window-y="255"
     inkscape:window-maximized="0"
     units="px" />
  <metadata
     id="metadata7">
    <rdf:RDF>
      <cc:Work
         rdf:about="">
        <dc:format>image/svg+xml</dc:format>
        <dc:type
           rdf:resource="http://purl.org/dc/dcmitype/StillImage" />
        <dc:title />
      </cc:Work>
    </rdf:RDF>
  </metadata>
  <g
     inkscape:label="Layer 1"
     inkscape:groupmode="layer"
     id="layer1">
    <path
       style="font-style:normal;font-weight:normal;font-size:23.01301575px;line-height:125%;font-family:sans-serif;text-align:start;letter-spacing:0px;word-spacing:0px;text-anchor:start;fill:#b1937e;fill-opacity:1;stroke:none;stroke-width:1px;stroke-linecap:butt;stroke-linejoin:miter;stroke-opacity:1"
       d="m 116.71289,27.376953 c -1.5096,0 -2.61995,0.54069 -3.33203,1.623047 -0.71207,1.07666 -1.06836,2.746256 -1.06836,5.007812 0,2.244467 0.3501,3.907878 1.05078,4.990235 0.70639,1.082357 1.82292,1.623047 3.34961,1.623047 1.50391,0 2.61214,-0.532389 3.32422,-1.597656 0.71777,-1.070964 1.07812,-2.748861 1.07812,-5.033204 0,-2.215982 -0.35416,-3.86914 -1.06054,-4.96289 -0.70069,-1.099447 -1.81511,-1.650391 -3.3418,-1.650391 z m -11.37305,0.214844 c -0.0228,0.37028 -0.10986,0.666504 -0.26367,0.888672 -0.14811,0.216471 -0.35319,0.394694 -0.61523,0.537109 -0.21078,0.113935 -0.52149,0.202965 -0.93164,0.265625 -0.41016,0.05697 -0.79541,0.08594 -1.1543,0.08594 l 0,1.162109 2.64844,0 0,8.527344 -2.64844,0 0,1.298828 6.88672,0 0,-1.298828 -2.59766,0 0,-11.466797 z m 11.37305,1.195312 c 0.54118,0 0.98437,0.111817 1.32617,0.333985 0.3475,0.222168 0.62093,0.551595 0.82032,0.990234 0.20507,0.444336 0.34179,0.985026 0.41015,1.623047 0.074,0.638021 0.10938,1.389974 0.10938,2.255859 0,0.877279 -0.0353,1.629232 -0.10938,2.25586 -0.0684,0.62093 -0.20296,1.163574 -0.40234,1.625 -0.19368,0.450032 -0.46712,0.785644 -0.82031,1.007812 -0.35319,0.222168 -0.7985,0.333985 -1.33399,0.333985 -0.56966,0 -1.02751,-0.118002 -1.375,-0.351563 -0.34179,-0.233561 -0.60693,-0.571289 -0.79492,-1.015625 -0.20507,-0.472819 -0.33773,-1.009278 -0.40039,-1.607422 -0.0627,-0.598144 -0.0957,-1.341797 -0.0957,-2.230469 0,-0.808919 0.0352,-1.552571 0.10351,-2.230468 0.074,-0.677897 0.20866,-1.226888 0.40234,-1.648438 0.20508,-0.450032 0.48064,-0.785644 0.82813,-1.007812 0.35319,-0.222168 0.79655,-0.333985 1.33203,-0.333985 z m 48.27149,8.447266 c -0.0228,0.37028 -0.11182,0.666504 -0.26563,0.888672 -0.14811,0.216471 -0.35319,0.394694 -0.61523,0.537109 -0.21078,0.113935 -0.52149,0.202965 -0.93164,0.265625 -0.41016,0.05697 -0.79542,0.08594 -1.1543,0.08594 l 0,1.162109 2.65039,0 0,8.527344 -2.65039,0 0,1.298828 6.88867,0 0,-1.298828 -2.59766,0 0,-11.466797 z m 7.94531,0.04297 0,6.552734 c 0.3361,-0.06836 0.73584,-0.136719 1.19726,-0.205078 0.46712,-0.06836 0.95182,-0.101562 1.45313,-0.101562 0.52408,-1e-6 0.99642,0.04557 1.41797,0.136718 0.42724,0.08545 0.78775,0.236654 1.08398,0.453125 0.26774,0.182292 0.47689,0.422689 0.625,0.72461 0.15381,0.30192 0.23047,0.672688 0.23047,1.111328 0,0.450032 -0.0662,0.845703 -0.19727,1.1875 -0.12532,0.341796 -0.31184,0.635904 -0.5625,0.880859 -0.29622,0.284831 -0.6359,0.483724 -1.01757,0.597656 -0.37598,0.113932 -0.76547,0.171875 -1.16993,0.171875 -0.60384,0 -1.21907,-0.103515 -1.8457,-0.308593 -0.62663,-0.210775 -1.1735,-0.463542 -1.64062,-0.759766 l -0.1211,0 0,1.802734 c 0.44434,0.205079 0.9891,0.379069 1.63281,0.521485 0.64372,0.148112 1.31283,0.222656 2.00782,0.222656 0.74626,0 1.40088,-0.105631 1.96484,-0.316406 0.56967,-0.216472 1.06055,-0.525066 1.4707,-0.923828 0.37598,-0.37028 0.67221,-0.826009 0.88868,-1.367188 0.21647,-0.541178 0.32422,-1.106771 0.32422,-1.699219 -10e-6,-0.746256 -0.12435,-1.367676 -0.375,-1.863281 -0.25065,-0.495605 -0.60482,-0.899577 -1.06055,-1.212891 -0.43294,-0.296224 -0.90934,-0.501302 -1.42774,-0.615234 -0.51839,-0.119629 -1.12126,-0.179687 -1.81054,-0.179687 -0.18799,0 -0.40967,0.0042 -0.66602,0.01563 -0.25635,0.01139 -0.507,0.02995 -0.75195,0.05273 l 0,-3.384766 6.00586,0 0,-1.49414 z M 111.64453,45 c -0.20089,0.03359 -0.40281,0.06837 -0.60351,0.103516 -0.60184,0.106857 -1.20211,0.219298 -1.80079,0.339843 l 3.25782,16.25 c 0.47309,-0.0943 0.94698,-0.182625 1.42187,-0.265625 0.1582,-0.02814 0.31615,-0.05514 0.47461,-0.08203 z m -11.763671,2.923828 c -0.297089,0.09808 -0.592798,0.197351 -0.888671,0.298828 l 2.566402,7.482422 c 0.26702,-0.09162 0.53468,-0.181007 0.80274,-0.269531 z m -10.408203,4.25 c -0.280376,0.137638 -0.559115,0.277155 -0.83789,0.417969 l 3.568359,7.0625 c 0.252011,-0.127338 0.504373,-0.252489 0.757813,-0.376953 z m 74.353514,1.523438 -7.89258,14.572265 c 0.49464,0.268593 0.98601,0.54423 1.47266,0.826172 0.0696,0.04007 0.13949,0.0788 0.20898,0.119141 l 8.34375,-14.322266 c -0.088,-0.05137 -0.17745,-0.101302 -0.26562,-0.152344 -0.61801,-0.355834 -1.24053,-0.704185 -1.86719,-1.042968 z M 79.75,57.800781 c -0.259033,0.174527 -0.518346,0.351817 -0.775391,0.529297 l 4.494141,6.511719 c 0.232374,-0.160383 0.466985,-0.320785 0.701172,-0.478516 z m -28.320312,0.726563 0,6.552734 c 0.3361,-0.06836 0.735839,-0.136719 1.197265,-0.205078 0.467122,-0.06836 0.951823,-0.101562 1.453125,-0.101562 0.524089,0 0.99642,0.04557 1.417969,0.136718 0.427246,0.08545 0.789713,0.236654 1.085937,0.453125 0.267742,0.182292 0.474935,0.424642 0.623047,0.726563 0.153809,0.30192 0.230469,0.670735 0.230469,1.109375 0,0.450032 -0.06624,0.845702 -0.197266,1.1875 -0.125325,0.341796 -0.311849,0.635904 -0.5625,0.880859 -0.296224,0.284831 -0.635904,0.483724 -1.017578,0.597656 -0.375976,0.113933 -0.765462,0.171875 -1.169922,0.171875 -0.603841,0 -1.219075,-0.103515 -1.845703,-0.308593 -0.626627,-0.210776 -1.173502,-0.463542 -1.640625,-0.759766 l -0.121094,0 0,1.802734 c 0.444336,0.205078 0.989095,0.379069 1.632813,0.521485 0.643717,0.148112 1.312826,0.222656 2.007813,0.222656 0.746256,0 1.400879,-0.105632 1.964843,-0.316406 0.569662,-0.216472 1.060547,-0.525066 1.470703,-0.923828 0.375977,-0.37028 0.672201,-0.826009 0.888672,-1.367188 0.216472,-0.541179 0.324219,-1.106771 0.324219,-1.699219 0,-0.746256 -0.124349,-1.367676 -0.375,-1.863281 -0.250651,-0.495606 -0.604818,-0.899577 -1.060547,-1.212891 -0.432943,-0.296224 -0.907389,-0.501301 -1.425781,-0.615234 -0.518392,-0.119629 -1.123209,-0.179687 -1.8125,-0.179687 -0.187988,0 -0.409668,0.0062 -0.666016,0.01758 -0.256348,0.01139 -0.506998,0.02799 -0.751953,0.05078 l 0,-3.384766 6.00586,0 0,-1.49414 z m 19.447265,6.18164 c -0.233061,0.208743 -0.464624,0.417434 -0.695312,0.628907 l 5.345703,5.832031 c 0.208106,-0.190754 0.416648,-0.380033 0.626953,-0.56836 z m -7.302734,7.44336 c -0.142081,0.165028 -0.283057,0.331804 -0.423828,0.498047 -0.0567,0.06696 -0.113435,0.134013 -0.169922,0.201171 -0.18712,0.223536 -0.37207,0.448356 -0.556641,0.673829 -0.137941,0.16851 -0.275596,0.336281 -0.412109,0.505859 l 12.90039,10.404297 c 0.108083,-0.133696 0.216991,-0.265691 0.326172,-0.398438 0.0326,-0.03964 0.06496,-0.07959 0.09766,-0.11914 0.109509,-0.132462 0.219477,-0.264987 0.330078,-0.396485 l 0.01172,-0.01563 c 0.04441,-0.05308 0.09018,-0.105265 0.134766,-0.158203 0.11071,-0.131426 0.22214,-0.264016 0.333984,-0.394531 z m -7.169922,9.77539 c -0.165549,0.2655 -0.32975,0.531494 -0.492188,0.798828 l 6.761719,4.105469 c 0.146562,-0.241276 0.294013,-0.481141 0.44336,-0.720703 z m -5.277344,9.92776 c -0.127366,0.285198 -0.252852,0.57081 -0.376953,0.857422 l 7.261719,3.142578 c 0.112155,-0.259125 0.224751,-0.517562 0.339843,-0.775391 z m -3.871094,10.544896 c -0.08735,0.29987 -0.171922,0.60147 -0.255859,0.90234 l 7.621094,2.12696 c 0.07592,-0.27195 0.153412,-0.54339 0.232422,-0.81446 z m -2.396484,10.98438 c -0.04551,0.30952 -0.08892,0.61958 -0.130859,0.92968 l 7.83789,1.06055 c 0.03786,-0.27975 0.07804,-0.5586 0.119141,-0.83789 z m -10.001953,4.17187 c -1.509603,0 -2.619955,0.54069 -3.332031,1.62305 -0.712078,1.07666 -1.06836,2.74626 -1.06836,5.00781 0,2.24447 0.350098,3.90787 1.050781,4.99023 0.706381,1.08236 1.822917,1.62305 3.34961,1.62305 1.503907,0 2.612142,-0.53239 3.324219,-1.59766 0.717773,-1.07096 1.076171,-2.74885 1.076171,-5.0332 10e-7,-2.21598 -0.354166,-3.87109 -1.060546,-4.96484 -0.700684,-1.09945 -1.813151,-1.64844 -3.339844,-1.64844 z m 0,1.41016 c 0.541179,0 0.982422,0.10986 1.324219,0.33203 0.347493,0.22216 0.62093,0.55355 0.820312,0.99219 0.205078,0.44433 0.341797,0.98502 0.410156,1.62304 0.07406,0.63803 0.111329,1.38998 0.111329,2.25586 0,0.87728 -0.03727,1.62923 -0.111329,2.25586 -0.06836,0.62093 -0.202961,1.16162 -0.402343,1.62305 -0.193685,0.45003 -0.467123,0.78564 -0.820313,1.00781 -0.35319,0.22217 -0.796549,0.33398 -1.332031,0.33398 -0.569661,10e-6 -1.02946,-0.11604 -1.376953,-0.3496 -0.341798,-0.23356 -0.604981,-0.57324 -0.792969,-1.01758 -0.205081,-0.47282 -0.339684,-1.00732 -0.402344,-1.60547 -0.06266,-0.59815 -0.09375,-1.3418 -0.09375,-2.23047 0,-0.80892 0.0332,-1.55258 0.101563,-2.23047 0.07406,-0.6779 0.208659,-1.22884 0.402343,-1.65039 0.205079,-0.45003 0.480632,-0.78565 0.828126,-1.00781 0.35319,-0.22217 0.798503,-0.33203 1.333984,-0.33203 z m 9.154297,4.81054 C 44.005019,124.18453 44.00048,124.5925 44,125 c 4.82e-4,0.4075 0.005,0.81546 0.01172,1.22266 l 16.570312,-0.25782 c -0.0046,-0.3215 -0.0064,-0.64345 -0.0059,-0.96484 -4.82e-4,-0.32138 0.0013,-0.64335 0.0059,-0.96484 z m 8.578125,11.02149 -7.835938,1.08008 c 0.04268,0.30999 0.08852,0.61833 0.134766,0.92773 l 7.822266,-1.16992 c -0.04177,-0.2792 -0.08256,-0.55823 -0.121094,-0.83789 z m 2.078125,9.9414 -7.615235,2.14454 c 0.08465,0.30066 0.169753,0.60073 0.257813,0.90039 l 7.591797,-2.23243 c -0.07965,-0.27089 -0.157813,-0.54073 -0.234375,-0.8125 z M 147.25,153.42969 c -0.61287,0 -1.08179,0.17665 -1.40625,0.52734 -0.32447,0.3474 -0.48633,0.84584 -0.48633,1.49805 l 0,0.18164 -0.625,0 0,0.77734 0.625,0 0,4.71485 0.92383,0 0,-4.71485 1.63672,0 0,-0.77734 -1.66602,0 0,-0.18555 c 0,-0.45883 0.0887,-0.77552 0.26563,-0.94922 0.18026,-0.17698 0.46867,-0.26562 0.86523,-0.26562 0.12454,0 0.26972,0.016 0.4336,0.0488 0.16386,0.0295 0.29488,0.0604 0.39648,0.0898 l 0.0508,0 0,-0.8457 c -0.13764,-0.0262 -0.28988,-0.0507 -0.45703,-0.0703 -0.16387,-0.0197 -0.35016,-0.0293 -0.55664,-0.0293 z m -16.00586,0.23242 c -0.86851,0 -1.50829,0.31089 -1.91797,0.93359 -0.40968,0.61944 -0.61523,1.57974 -0.61523,2.88086 0,1.2913 0.20235,2.24839 0.60547,2.8711 0.4064,0.6227 1.04938,0.93359 1.92773,0.93359 0.86523,0 1.50243,-0.30705 1.91211,-0.91992 0.41295,-0.61616 0.61914,-1.58029 0.61914,-2.89453 0,-1.27492 -0.20297,-2.22816 -0.60937,-2.85742 -0.40312,-0.63255 -1.04353,-0.94727 -1.92188,-0.94727 z m 6.41016,0 c -0.86852,0 -1.50829,0.31089 -1.91797,0.93359 -0.40968,0.61944 -0.61328,1.57974 -0.61328,2.88086 0,1.2913 0.20039,2.24839 0.60351,2.8711 0.4064,0.6227 1.04939,0.93359 1.92774,0.93359 0.86523,0 1.50243,-0.30705 1.91211,-0.91992 0.41295,-0.61616 0.61914,-1.58029 0.61914,-2.89453 0,-1.27492 -0.20298,-2.22817 -0.60938,-2.85742 -0.40312,-0.63255 -1.04353,-0.94727 -1.92187,-0.94727 z m -12.95508,0.12305 c -0.0131,0.21303 -0.0639,0.38194 -0.15234,0.50976 -0.0852,0.12454 -0.20276,0.22862 -0.35352,0.31055 -0.12127,0.0655 -0.29918,0.11628 -0.53516,0.15234 -0.23597,0.0328 -0.45758,0.0488 -0.66406,0.0488 l 0,0.66797 1.52344,0 0,4.90625 -1.52344,0 0,0.74805 3.96289,0 0,-0.74805 -1.49414,0 0,-6.5957 -0.76367,0 z m 36.16406,0.27539 0,1.57812 -0.625,0 0,0.77539 0.625,0 0,2.91992 c 0,0.66532 0.14581,1.14966 0.4375,1.45118 0.29169,0.30152 0.71691,0.45117 1.27734,0.45117 0.1606,0 0.34368,-0.0134 0.54688,-0.043 0.20647,-0.0295 0.39661,-0.0674 0.57031,-0.11328 l 0,-0.83008 -0.0488,0 c -0.0721,0.0295 -0.19159,0.0655 -0.35546,0.11133 -0.16387,0.0426 -0.31995,0.0644 -0.47071,0.0644 -0.25892,0 -0.45226,-0.0289 -0.58008,-0.0879 -0.12454,-0.0623 -0.22282,-0.15992 -0.29492,-0.29101 -0.0786,-0.14093 -0.12554,-0.29058 -0.13867,-0.45118 -0.0131,-0.16387 -0.0195,-0.39127 -0.0195,-0.67968 l 0,-2.50196 1.9082,0 0,-0.77539 -1.9082,0 0,-1.57812 -0.92383,0 z m -102.783202,0.24609 -7.253906,3.1582 c 0.124778,0.28632 0.252819,0.57253 0.380859,0.85743 l 7.216797,-3.24219 c -0.115699,-0.25756 -0.230986,-0.51458 -0.34375,-0.77344 z m 73.164062,0.16602 c 0.31135,0 0.56507,0.0636 0.76172,0.1914 0.19992,0.12782 0.356,0.31796 0.4707,0.57032 0.11799,0.25563 0.197,0.56652 0.23633,0.93359 0.0426,0.36707 0.0645,0.80066 0.0645,1.29883 0,0.50472 -0.0219,0.93636 -0.0645,1.29687 -0.0393,0.35724 -0.11576,0.67008 -0.23047,0.93555 -0.11143,0.25892 -0.26945,0.45226 -0.47265,0.58008 -0.2032,0.12781 -0.45756,0.1914 -0.76563,0.1914 -0.32774,0 -0.59304,-0.0668 -0.79297,-0.20117 -0.19664,-0.13437 -0.34888,-0.3303 -0.45703,-0.58594 -0.11797,-0.27202 -0.1944,-0.5797 -0.23047,-0.92382 -0.0361,-0.34413 -0.0547,-0.77193 -0.0547,-1.28321 0,-0.46539 0.0212,-0.89319 0.0606,-1.2832 0.0426,-0.39001 0.11904,-0.70669 0.23047,-0.94922 0.11799,-0.25891 0.27664,-0.45226 0.47656,-0.58008 0.2032,-0.12782 0.4595,-0.1914 0.76758,-0.1914 z m 6.41016,0 c 0.31135,0 0.56508,0.0636 0.76172,0.1914 0.19992,0.12782 0.35795,0.31796 0.47265,0.57032 0.11798,0.25563 0.19504,0.56652 0.23438,0.93359 0.0426,0.36707 0.0644,0.80066 0.0644,1.29883 0,0.50472 -0.0219,0.93636 -0.0644,1.29687 -0.0393,0.35724 -0.11577,0.67008 -0.23047,0.93555 -0.11144,0.25892 -0.2675,0.45226 -0.4707,0.58008 -0.20321,0.12781 -0.45951,0.1914 -0.76758,0.1914 -0.32774,0 -0.59109,-0.0668 -0.79102,-0.20117 -0.19664,-0.13437 -0.34887,-0.3303 -0.45703,-0.58594 -0.11797,-0.27202 -0.19636,-0.5797 -0.23242,-0.92382 -0.0361,-0.34413 -0.0527,-0.77193 -0.0527,-1.28321 0,-0.46539 0.0193,-0.89319 0.0586,-1.2832 0.0426,-0.39001 0.11903,-0.70669 0.23047,-0.94922 0.11798,-0.25891 0.27664,-0.45226 0.47656,-0.58008 0.2032,-0.12782 0.4595,-0.1914 0.76758,-0.1914 z m 13.47461,1.01172 c -0.79969,0 -1.4459,0.2653 -1.9375,0.79296 -0.48834,0.52767 -0.73243,1.24067 -0.73243,2.13868 0,0.90784 0.25631,1.60862 0.76758,2.10351 0.51128,0.49161 1.22169,0.73633 2.13282,0.73633 0.35724,0 0.69897,-0.0424 1.02343,-0.13086 0.32447,-0.0885 0.64177,-0.19898 0.95313,-0.33008 l 0,-1.00781 -0.0488,0 c -0.16059,0.14421 -0.43037,0.29065 -0.81055,0.44141 -0.3769,0.14748 -0.75332,0.22265 -1.12695,0.22265 -0.28186,0 -0.53942,-0.0405 -0.77539,-0.11914 -0.23269,-0.0787 -0.43504,-0.19619 -0.60547,-0.35351 -0.17698,-0.1606 -0.31637,-0.36616 -0.41797,-0.61524 -0.1016,-0.25236 -0.15234,-0.54719 -0.15234,-0.88476 l 4.04687,0 0,-0.5 c 0,-0.79642 -0.20235,-1.41113 -0.60547,-1.84375 -0.39984,-0.43262 -0.97024,-0.65039 -1.71093,-0.65039 z m 5.99804,0 c -0.79968,0 -1.44588,0.2653 -1.9375,0.79296 -0.48833,0.52767 -0.73242,1.24067 -0.73242,2.13868 0,0.90784 0.2563,1.60862 0.76758,2.10351 0.51127,0.49161 1.22169,0.73633 2.13281,0.73633 0.35724,0 0.69897,-0.0424 1.02344,-0.13086 0.32446,-0.0885 0.64176,-0.19898 0.95312,-0.33008 l 0,-1.00781 -0.0488,0 c -0.1606,0.14421 -0.43038,0.29065 -0.81055,0.44141 -0.37691,0.14748 -0.75333,0.22265 -1.12695,0.22265 -0.28186,0 -0.54137,-0.0405 -0.77735,-0.11914 -0.23269,-0.0787 -0.43309,-0.19619 -0.60351,-0.35351 -0.17698,-0.1606 -0.31637,-0.36616 -0.41797,-0.61524 -0.1016,-0.25236 -0.15235,-0.54719 -0.15235,-0.88476 l 4.04493,0 0,-0.5 c 0,-0.79642 -0.2004,-1.41113 -0.60352,-1.84375 -0.39985,-0.43262 -0.97024,-0.65039 -1.71094,-0.65039 z m -41.14257,0.15234 2.12304,2.7539 -2.14258,2.73829 1.07618,0 1.56836,-2.10938 1.55859,2.10938 1.16406,0 -2.1582,-2.78711 2.1582,-2.70508 -1.08008,0 -1.55468,2.07617 -1.54883,-2.07617 z m 35.0957,0.61133 c 0.49161,0 0.85645,0.13101 1.0957,0.39648 0.24247,0.26547 0.36581,0.64189 0.36914,1.12695 l -3.14648,0 c 0.0393,-0.43262 0.2044,-0.79425 0.49609,-1.08593 0.29497,-0.2917 0.69066,-0.4375 1.18555,-0.4375 z m 5.99804,0 c 0.49162,0 0.85646,0.13101 1.09571,0.39648 0.24247,0.26547 0.36581,0.64189 0.36914,1.12695 l -3.14649,0 c 0.0393,-0.43262 0.2044,-0.79425 0.4961,-1.08593 0.29496,-0.2917 0.69066,-0.4375 1.18554,-0.4375 z m -94.312495,7.06836 -6.751953,4.12304 c 0.163082,0.26696 0.327949,0.53372 0.49414,0.79883 l 6.703126,-4.20117 c -0.149921,-0.2392 -0.298173,-0.47977 -0.445313,-0.7207 z m 12.146484,2.24804 -12.90039,10.4043 c 0.319169,0.39647 0.64179,0.7891 0.96875,1.17969 0.196732,0.23389 0.394437,0.46772 0.59375,0.69922 l 12.572265,-10.80078 c -0.156898,-0.18309 -0.314089,-0.36786 -0.46875,-0.55274 -0.258689,-0.30735 -0.512925,-0.61711 -0.765625,-0.92969 z m 71.527341,0.78125 0,0.95703 1.04102,0 0,-0.95703 z m -27.12695,1.72461 c -0.34741,0 -0.6763,0.07 -0.98438,0.21094 -0.30479,0.13765 -0.57841,0.3111 -0.82421,0.51758 l 0,-0.57617 -0.92579,0 0,7.51757 0.92579,0 0,-2.30078 c 0.23925,0.1311 0.47175,0.2268 0.70117,0.28907 0.2327,0.0623 0.49221,0.0937 0.77734,0.0937 0.32774,0 0.638,-0.0662 0.92969,-0.19727 0.29497,-0.13437 0.55126,-0.32192 0.76758,-0.56445 0.23269,-0.25564 0.41124,-0.56652 0.53906,-0.9336 0.12782,-0.37034 0.19336,-0.77888 0.19336,-1.22461 0,-0.88818 -0.18629,-1.58191 -0.55664,-2.08007 -0.36707,-0.50145 -0.88094,-0.75196 -1.54297,-0.75196 z m 5.82031,0 c -0.79968,0 -1.44589,0.26336 -1.9375,0.79102 -0.48834,0.52766 -0.73242,1.24066 -0.73242,2.13867 0,0.90785 0.2563,1.61058 0.76758,2.10547 0.51127,0.49161 1.22169,0.73633 2.13281,0.73633 0.35724,0 0.69898,-0.0443 1.02344,-0.13282 0.32447,-0.0885 0.64177,-0.19703 0.95312,-0.32812 l 0,-1.00781 -0.0488,0 c -0.1606,0.1442 -0.43037,0.29064 -0.81055,0.4414 -0.37691,0.14748 -0.75333,0.22071 -1.12695,0.22071 -0.28186,0 -0.53942,-0.0385 -0.7754,-0.11719 -0.23269,-0.0787 -0.43504,-0.1962 -0.60546,-0.35352 -0.17698,-0.16059 -0.31637,-0.36614 -0.41797,-0.61523 -0.1016,-0.25236 -0.15235,-0.54719 -0.15235,-0.88477 l 4.04493,0 0.002,0 0,-0.50195 c 0,-0.79641 -0.20235,-1.41114 -0.60547,-1.84375 -0.39985,-0.43262 -0.97024,-0.64844 -1.71094,-0.64844 z m 14.26758,0 c -0.32447,0 -0.63151,0.0668 -0.91992,0.20117 -0.28513,0.13438 -0.57292,0.3213 -0.86133,0.56055 l 0,-0.60937 -0.92383,0 0,5.49218 0.92383,0 0,-4.10156 c 0.25236,-0.19337 0.50545,-0.35202 0.75781,-0.47656 0.25564,-0.12455 0.50936,-0.18555 0.76172,-0.18555 0.26548,0 0.46845,0.0353 0.60938,0.10742 0.14092,0.0688 0.24884,0.17353 0.32422,0.31446 0.0688,0.13109 0.11314,0.3058 0.13281,0.52539 0.0229,0.21631 -0.0956,0.48514 0.0351,0.68945 l 0,3.12695 0.92383,0 0,-3.51562 c 0,-0.0983 -0.003,-0.1966 -0.01,-0.29492 -0.007,-0.1016 -0.0156,-0.19025 -0.0254,-0.26563 0.25891,-0.19992 0.51843,-0.36437 0.77734,-0.49219 0.25891,-0.1311 0.51842,-0.19531 0.77734,-0.19531 0.26547,0 0.46845,0.0353 0.60938,0.10742 0.14093,0.0721 0.24884,0.17938 0.32422,0.32032 0.0688,0.13109 0.11314,0.3058 0.13281,0.52539 0.0229,0.21958 0.0352,0.44762 0.0352,0.68359 l 0,3.12695 0.92382,0 0,-3.56445 c 0,-0.65549 -0.14518,-1.16551 -0.43359,-1.5293 -0.28513,-0.36707 -0.72898,-0.55078 -1.33203,-0.55078 -0.35068,0 -0.6802,0.07 -0.98828,0.21094 -0.30808,0.13765 -0.64786,0.36505 -1.02149,0.67969 -0.12782,-0.27858 -0.32374,-0.49698 -0.58593,-0.6543 -0.25892,-0.15731 -0.57365,-0.23633 -0.94727,-0.23633 z m 12.58984,0 c -0.32446,0 -0.64114,0.0668 -0.94921,0.20117 -0.30808,0.13438 -0.60612,0.3213 -0.89454,0.56055 l 0,-0.60937 -0.92382,0 0,5.49218 0.92382,0 0,-4.10156 c 0.25236,-0.19337 0.51571,-0.35202 0.79102,-0.47656 0.2753,-0.12455 0.53866,-0.18555 0.79102,-0.18555 0.2458,0 0.44556,0.0347 0.5996,0.10352 0.15404,0.0655 0.27353,0.16703 0.35547,0.30469 0.0786,0.12453 0.13258,0.29666 0.16211,0.51953 0.0295,0.21958 -0.093,0.49639 0.043,0.70898 l 0,3.12695 0.92383,0 0,-3.56445 c 0,-0.67187 -0.15544,-1.18769 -0.4668,-1.54492 -0.31135,-0.35724 -0.76226,-0.53516 -1.35547,-0.53516 z m -23.14062,0.15235 0,5.49218 0.92383,0 0,-3.89843 c 0.2458,-0.19992 0.50211,-0.36374 0.76758,-0.48829 0.26547,-0.12781 0.54103,-0.1914 0.82617,-0.1914 0.17698,0 0.32921,0.009 0.45703,0.0254 0.13109,0.0131 0.26469,0.0356 0.40234,0.0684 l 0.0488,0 0,-0.94922 c -0.14421,-0.0228 -0.25212,-0.0363 -0.32422,-0.043 -0.0721,-0.01 -0.18901,-0.0156 -0.34961,-0.0156 -0.29168,0 -0.57751,0.063 -0.85937,0.1875 -0.27858,0.12126 -0.60168,0.32808 -0.96875,0.62304 l 0,-0.81054 -0.92383,0 z m 17.64844,0 0,5.49218 0.92383,0 0,-5.49218 z m -21.41407,0.60937 c 0.49162,0 0.85646,0.13297 1.09571,0.39844 0.24247,0.26547 0.3658,0.6419 0.36914,1.12695 l -3.14649,0 c 0.0393,-0.43261 0.2044,-0.7962 0.4961,-1.08789 0.29496,-0.29169 0.69066,-0.4375 1.18554,-0.4375 z m -6.00781,0.11914 c 0.46868,0 0.81683,0.16249 1.04297,0.49024 0.22614,0.32774 0.33789,0.82429 0.33789,1.48632 0,0.6817 -0.14323,1.19557 -0.43164,1.54297 -0.28841,0.34741 -0.69052,0.52149 -1.20508,0.52149 -0.23925,0 -0.45444,-0.0219 -0.64453,-0.0645 -0.18681,-0.0426 -0.40968,-0.12224 -0.67187,-0.24023 l 0,-3.11328 c 0.2458,-0.18681 0.50273,-0.33647 0.77148,-0.45117 0.26875,-0.11472 0.53532,-0.17188 0.80078,-0.17188 z m -43.41992,9.99805 -5.330078,5.84375 c 0.231181,0.21091 0.463718,0.42073 0.697266,0.62891 l 5.261718,-5.90626 c -0.210757,-0.18781 -0.420343,-0.37615 -0.628906,-0.5664 z m -24.226562,0.29101 0,6.55469 c 0.3361,-0.0684 0.735839,-0.13672 1.197265,-0.20508 0.467122,-0.0684 0.951823,-0.10351 1.453125,-0.10351 0.524089,0 0.99642,0.0456 1.417969,0.13672 0.427246,0.0854 0.789713,0.23666 1.085937,0.45312 0.267742,0.1823 0.474935,0.42464 0.623047,0.72656 0.153809,0.30192 0.230469,0.67269 0.230469,1.11133 0,0.45004 -0.06624,0.8457 -0.197266,1.1875 -0.125325,0.3418 -0.311849,0.63591 -0.5625,0.88086 -0.296224,0.28484 -0.635904,0.48372 -1.017578,0.59766 -0.375976,0.11393 -0.765462,0.16992 -1.169922,0.16992 -0.603841,0 -1.219075,-0.10156 -1.845703,-0.30664 -0.626627,-0.21077 -1.173502,-0.46354 -1.640625,-0.75977 l -0.121094,0 0,1.80274 c 0.444336,0.20508 0.989095,0.37907 1.632813,0.52148 0.643717,0.14812 1.312826,0.22071 2.007813,0.22071 0.746256,0 1.400879,-0.10563 1.964843,-0.31641 0.569662,-0.21647 1.060547,-0.52311 1.470703,-0.92188 0.375977,-0.37028 0.672201,-0.82601 0.888672,-1.36718 0.216472,-0.54118 0.324219,-1.10873 0.324219,-1.70117 0,-0.74626 -0.124349,-1.36573 -0.375,-1.86133 -0.250651,-0.4956 -0.604818,-0.90153 -1.060547,-1.21485 -0.432943,-0.29622 -0.907389,-0.5013 -1.425781,-0.61523 -0.518392,-0.11963 -1.123209,-0.17969 -1.8125,-0.17969 -0.187988,0 -0.409668,0.006 -0.666016,0.0176 -0.256348,0.0114 -0.506998,0.028 -0.751953,0.0508 l 0,-3.38281 6.00586,0 0,-1.4961 -7.65625,0 z m 106.185542,1.54493 c -0.0695,0.0403 -0.13934,0.0791 -0.20898,0.11914 -0.48666,0.28194 -0.97802,0.55757 -1.47266,0.82617 l 7.89258,14.57226 c 0.62666,-0.33879 1.24918,-0.68713 1.86719,-1.04296 0.0882,-0.051 0.17766,-0.10098 0.26562,-0.15235 z m -74.001949,4.47265 -4.478515,6.52344 c 0.25746,0.17687 0.515949,0.35148 0.77539,0.52539 l 4.404297,-6.57226 c -0.234558,-0.15719 -0.468421,-0.31674 -0.701172,-0.47657 z m 28.884769,3.04883 -3.25782,16.25 c 0.59868,0.12055 1.19895,0.23298 1.80079,0.33984 0.2007,0.0351 0.40261,0.0699 0.60351,0.10352 l 2.75,-16.3457 c -0.15846,-0.0269 -0.31641,-0.0539 -0.47461,-0.082 -0.47488,-0.083 -0.94877,-0.17133 -1.42187,-0.26563 z m -20.138675,2.11719 -3.552734,7.07031 c 0.279109,0.14016 0.559138,0.27904 0.839843,0.41602 l 3.470704,-7.10938 c -0.253732,-0.12386 -0.505503,-0.2502 -0.757813,-0.37695 z m 9.365235,3.92773 -2.548829,7.48828 c 0.296129,0.10077 0.593288,0.19951 0.890629,0.29688 l 2.46093,-7.51758 c -0.26828,-0.0879 -0.53549,-0.1766 -0.80273,-0.26758 z m 63.25977,4.66797 c -0.0228,0.37028 -0.11182,0.66651 -0.26563,0.88867 -0.14811,0.21648 -0.35319,0.39665 -0.61523,0.53907 -0.21078,0.11392 -0.52149,0.201 -0.93164,0.26367 -0.41016,0.057 -0.79542,0.0859 -1.1543,0.0859 l 0,1.1621 2.65039,0 0,8.52735 -2.65039,0 0,1.29883 6.88867,0 0,-1.29883 -2.59766,0 0,-11.4668 -1.32421,0 z m 7.94531,0.043 0,6.55469 c 0.3361,-0.0684 0.73584,-0.13672 1.19726,-0.20508 0.46712,-0.0684 0.95182,-0.10352 1.45313,-0.10352 0.52408,0 0.99642,0.0456 1.41797,0.13672 0.42724,0.0854 0.78775,0.23665 1.08398,0.45313 0.26774,0.18229 0.47689,0.42464 0.625,0.72656 0.15381,0.30192 0.23047,0.67269 0.23047,1.11133 0,0.45003 -0.0662,0.8457 -0.19727,1.1875 -0.12532,0.3418 -0.31184,0.63395 -0.5625,0.8789 -0.29622,0.28484 -0.6359,0.48569 -1.01757,0.59961 -0.37598,0.11394 -0.76547,0.16993 -1.16993,0.16993 -0.60384,0 -1.21907,-0.10157 -1.8457,-0.30665 -0.62663,-0.21077 -1.1735,-0.46549 -1.64062,-0.76171 l -0.1211,0 0,1.80273 c 0.44434,0.20507 0.98909,0.37906 1.63281,0.52148 0.64372,0.14811 1.31283,0.22266 2.00782,0.22266 0.74626,0 1.40088,-0.10563 1.96484,-0.3164 0.56967,-0.21648 1.06055,-0.52312 1.4707,-0.92188 0.37598,-0.37028 0.67221,-0.82601 0.88868,-1.36719 0.21647,-0.54118 0.32422,-1.10872 0.32422,-1.70117 -10e-6,-0.74625 -0.12435,-1.36767 -0.375,-1.86328 -0.25065,-0.49561 -0.60482,-0.89958 -1.06055,-1.21289 -0.43294,-0.29623 -0.90934,-0.50131 -1.42774,-0.61524 -0.51839,-0.11963 -1.12126,-0.17968 -1.81054,-0.17968 -0.18799,0 -0.40967,0.006 -0.66602,0.0176 -0.25635,0.0114 -0.507,0.028 -0.75195,0.0508 l 0,-3.38282 6.00586,0 0,-1.49609 -7.65625,0 z m -56.2168,8.67188 c -1.5096,0 -2.61995,0.54069 -3.33203,1.62304 -0.71207,1.07666 -1.06836,2.74625 -1.06836,5.00781 0,2.24447 0.3501,3.90789 1.05078,4.99024 0.70639,1.08236 1.82292,1.62305 3.34961,1.62305 1.50391,0 2.61214,-0.53239 3.32422,-1.59766 0.71777,-1.07097 1.07812,-2.74886 1.07812,-5.0332 0,-2.21599 -0.35416,-3.8711 -1.06054,-4.96485 -0.70069,-1.09944 -1.81511,-1.64843 -3.3418,-1.64843 z m -11.37305,0.21289 c -0.0228,0.37028 -0.10986,0.6665 -0.26367,0.88867 -0.14811,0.21647 -0.35319,0.39665 -0.61523,0.53906 -0.21078,0.11393 -0.52149,0.20296 -0.93164,0.26562 -0.41016,0.0569 -0.79541,0.084 -1.1543,0.084 l 0,1.16211 2.64844,0 0,8.5293 -2.64844,0 0,1.29882 6.88672,0 0,-1.29882 -2.59766,0 0,-11.46875 -1.32422,0 z m 11.37305,1.19726 c 0.54118,0 0.98437,0.11182 1.32617,0.33399 0.3475,0.22216 0.62093,0.55159 0.82032,0.99023 0.20507,0.44434 0.34179,0.98503 0.41015,1.62305 0.074,0.63802 0.10938,1.38997 0.10938,2.25586 0,0.87728 -0.0353,1.62923 -0.10938,2.25586 -0.0684,0.62092 -0.20296,1.16357 -0.40234,1.625 -0.19368,0.45003 -0.46712,0.78564 -0.82031,1.00781 -0.35319,0.22216 -0.7985,0.33203 -1.33399,0.33203 -0.56966,0 -1.02751,-0.11605 -1.375,-0.34961 -0.34179,-0.23356 -0.60693,-0.57324 -0.79492,-1.01758 -0.20507,-0.47282 -0.33773,-1.00732 -0.40039,-1.60547 -0.0627,-0.59814 -0.0957,-1.34179 -0.0957,-2.23047 0,-0.80892 0.0352,-1.55256 0.10351,-2.23046 0.074,-0.6779 0.20866,-1.22689 0.40234,-1.64844 0.20508,-0.45004 0.48064,-0.78565 0.82813,-1.00781 0.35319,-0.22217 0.79655,-0.33399 1.33203,-0.33399 z"
       id="variometerUS"
       inkscape:connector-curvature="0"
       sodipodi:nodetypes="scscscscscccccccccccccccscccsccsscccscccsccccccccccccccccccscccscccscccccsccscsccsccccccccccccccccccccccccccccccccccccccscccscccscccccsccsssccsccccccccccccscscccccccccccccccccccccccccccccscscscscsscccsccscccsscccscccccccccccccccccccsccccccccccscscccccccscscscscsscscscscscccccccccccccccccccccssscccccscccsccccccccccccccccscccscccscccccccccscccscccscccccscscscccccscccccscssscscscccccscccccscsscccccccccccccsccccssccccsccccccccccccccccccccccccccscccscccscscscccccsccccccscsscccccccccscccsccscccscccsccscscccccsccccccccscccsccscsscccccscccccsccccccccccsccccsccscsccccccccccccccscccscccscccccsccsssccsccccccccccccccccccccccccccccccccccccccccccccccccccccccccscccscccscccccsccscsccscccccccscscscscsccccccccccccccccscccscccscccscccs"
       inkscape:label="#text4173" />
    <circle
       style="fill:#110e0c;fill-opacity:1;stroke:#000000;stroke-width:7.98756123;stroke-miterlimit:4;stroke-dasharray:none;stroke-opacity:0.24852074"
       id="path4382"
       cy="125"
       cx="125"
       r="111.00622" />
    <circle
       style="fill:url(#radialGradient4392);fill-opacity:1;stroke:none;stroke-width:3.38796711;stroke-miterlimit:4;stroke-dasharray:none;stroke-opacity:0.35503001;filter:url(#filter4519)"
       id="center"
       cx="125"
       cy="125"
       r="24.163879"
       inkscape:label="#path4384" />
    <text
       xml:space="preserve"
       style="font-style:normal;font-weight:normal;font-size:11.6796999px;line-height:125%;font-family:sans-serif;letter-spacing:0px;word-spacing:0px;fill:#b1937e;fill-opacity:1;stroke:none;stroke-width:1px;stroke-linecap:butt;stroke-linejoin:miter;stroke-opacity:1"
       x="115.40518"
       y="81.719261"
       id="text5267"
       sodipodi:linespacing="125%"><tspan
         sodipodi:role="line"
         id="tspan5269"
         x="115.40518"
         y="81.719261">Vertical</tspan><tspan
         sodipodi:role="line"
         x="115.40518"
         y="96.318886"
         id="tspan5271">Speed</tspan></text>
    <path
       style="font-style:normal;font-weight:normal;font-size:15px;line-height:125%;font-family:sans-serif;letter-spacing:0px;word-spacing:0px;fill:#b1937e;fill-opacity:1;stroke:none;stroke-width:1px;stroke-linecap:butt;stroke-linejoin:miter;stroke-opacity:1"
       d="m 106.42969,27.990234 0,6.554688 c 0.3361,-0.06836 0.73584,-0.136719 1.19726,-0.205078 0.46713,-0.06836 0.95183,-0.103516 1.45313,-0.103516 0.52409,0 0.99642,0.04557 1.41797,0.136719 0.42724,0.08545 0.78971,0.236654 1.08593,0.453125 0.26775,0.182292 0.47494,0.424642 0.62305,0.726562 0.15381,0.301921 0.23047,0.672689 0.23047,1.111328 0,0.450033 -0.0662,0.845704 -0.19727,1.1875 -0.12532,0.341797 -0.31184,0.635905 -0.5625,0.88086 -0.29622,0.284831 -0.6359,0.483724 -1.01757,0.597656 C 110.28418,39.44401 109.89469,39.5 109.49023,39.5 c -0.60384,0 -1.21907,-0.101562 -1.8457,-0.306641 -0.62663,-0.210774 -1.1735,-0.463541 -1.64062,-0.759765 l -0.1211,0 0,1.802734 c 0.44434,0.205078 0.9891,0.379069 1.63281,0.521484 0.64372,0.148112 1.31283,0.220704 2.00782,0.220704 0.74625,0 1.40088,-0.105632 1.96484,-0.316407 0.56966,-0.216471 1.06055,-0.523112 1.4707,-0.921875 0.37598,-0.37028 0.6722,-0.826009 0.88868,-1.367187 0.21647,-0.541179 0.32422,-1.108724 0.32422,-1.701172 -1e-5,-0.746257 -0.12435,-1.365723 -0.375,-1.861328 -0.25066,-0.495606 -0.60482,-0.90153 -1.06055,-1.214844 -0.43294,-0.296224 -0.90739,-0.501302 -1.42578,-0.615234 -0.5184,-0.119629 -1.12321,-0.179688 -1.8125,-0.179688 -0.18799,0 -0.40967,0.0062 -0.66602,0.01758 -0.25635,0.01139 -0.507,0.02799 -0.75195,0.05078 l 0,-3.382813 6.00586,0 0,-1.496094 z m 5.16406,17.03125 c -0.20894,0.03484 -0.41627,0.07091 -0.625,0.107422 -0.6224,0.110622 -1.24434,0.228306 -1.86328,0.353516 l 3.76953,18.724609 c 0.46938,-0.09384 0.93902,-0.183426 1.41016,-0.265625 0.15782,-0.02812 0.31651,-0.05521 0.47461,-0.08203 z M 99.9043,47.917969 c -0.33999,0.111755 -0.6792,0.2256 -1.01758,0.341797 l 1.99805,5.816406 c 0.31272,-0.107423 0.62725,-0.213118 0.9414,-0.316406 z m -10.40821,4.236328 c -0.32082,0.156977 -0.64026,0.31543 -0.95898,0.476562 l 4.72461,9.339844 c 0.27823,-0.140723 0.55591,-0.278925 0.83594,-0.416015 z m 74.77735,1.857422 -5.05664,9.166015 c 0.27282,0.150551 0.5437,0.302739 0.81445,0.457032 l 5.18359,-9.095704 c -0.31262,-0.17757 -0.62661,-0.354109 -0.9414,-0.527343 z m -84.5,3.751953 c -0.29646,0.199193 -0.59286,0.400453 -0.88672,0.603516 l 3.49609,5.060546 c 0.27192,-0.187848 0.54598,-0.374307 0.82031,-0.558593 z m -8.875,6.892578 c -0.2669,0.238413 -0.53307,0.478707 -0.79688,0.720703 l 7.07227,7.710938 c 0.22964,-0.210627 0.46093,-0.42134 0.69336,-0.628907 z m -23.63086,5.074219 c -0.63233,0 -1.28695,0.08285 -1.96485,0.248047 -0.6722,0.165201 -1.21077,0.347493 -1.61523,0.546875 l 0,1.794921 0.0859,0 c 0.57536,-0.375976 1.16373,-0.655598 1.76758,-0.83789 0.60384,-0.182292 1.1652,-0.273438 1.68359,-0.273438 0.78044,0 1.38737,0.188477 1.82031,0.564454 0.43864,0.370279 0.6582,0.886067 0.6582,1.546874 0,0.723471 -0.20296,1.39681 -0.60742,2.023438 -0.40446,0.620931 -1.15234,1.461914 -2.24609,2.521484 -0.51839,0.506999 -1.07975,1.016602 -1.68359,1.529297 l -1.79493,1.539063 0,1.785156 8.61329,0 0,-1.460938 -6.84376,0 c 0.56397,-0.478515 1.16895,-0.996419 1.81836,-1.554687 0.64942,-0.563965 1.27914,-1.145996 1.88868,-1.744141 0.42724,-0.415852 0.78971,-0.794922 1.08593,-1.136718 0.30192,-0.341797 0.56299,-0.687826 0.78516,-1.041016 0.23926,-0.375977 0.41943,-0.7736 0.53906,-1.189453 0.12533,-0.42155 0.1875,-0.87321 0.1875,-1.357422 0,-1.07666 -0.36881,-1.92806 -1.10937,-2.554687 -0.74056,-0.632325 -1.76384,-0.949219 -3.06836,-0.949219 z m 15.76562,3.003906 c -0.0385,0.04556 -0.0768,0.09107 -0.11523,0.136719 -0.1925,0.230045 -0.38247,0.461282 -0.57227,0.693359 l 4.75782,3.898438 c 0.17511,-0.213806 0.35171,-0.424861 0.52929,-0.636719 0.0354,-0.0421 0.07,-0.08493 0.10547,-0.126953 z m -6.63086,9.117187 c -0.18979,0.303444 -0.37678,0.608233 -0.5625,0.914063 l 8.94336,5.429687 c 0.16171,-0.26639 0.32502,-0.530712 0.49024,-0.794921 z m -5.28906,9.914058 c -0.14635,0.32646 -0.28957,0.65411 -0.43164,0.98243 l 5.64453,2.4414 c 0.13143,-0.30382 0.26501,-0.60611 0.40039,-0.9082 z m -3.88281,10.53321 c -0.10037,0.34276 -0.19707,0.68522 -0.29297,1.02929 l 10.08008,2.8125 c 0.0838,-0.3003 0.17013,-0.59923 0.25781,-0.89843 z m -2.41016,10.97461 c -0.0526,0.35396 -0.10248,0.70776 -0.15039,1.0625 l 6.09375,0.82422 c 0.0443,-0.32774 0.0901,-0.65534 0.13867,-0.98243 z m -9.67773,4.64062 c -1.5096,0 -2.61996,0.54069 -3.33203,1.62305 -0.71208,1.07666 -1.06836,2.74626 -1.06836,5.00781 0,2.24447 0.3501,3.90788 1.05078,4.99024 0.70638,1.08235 1.82292,1.62304 3.34961,1.62304 1.5039,0 2.61214,-0.53239 3.32422,-1.59765 0.71777,-1.07097 1.07617,-2.74886 1.07617,-5.03321 0,-2.21598 -0.35221,-3.87109 -1.05859,-4.96484 -0.70069,-1.09945 -1.81511,-1.64844 -3.3418,-1.64844 z m 0,1.40821 c 0.54118,0 0.98242,0.11181 1.32422,0.33398 0.34749,0.22217 0.62093,0.55355 0.82031,0.99219 0.20508,0.44433 0.3418,0.98502 0.41016,1.62304 0.074,0.63803 0.11132,1.38998 0.11132,2.25586 0,0.87728 -0.0373,1.62924 -0.11132,2.25586 -0.0684,0.62093 -0.20101,1.16162 -0.40039,1.62305 -0.19369,0.45003 -0.46713,0.78564 -0.82032,1.00781 -0.35319,0.22217 -0.7985,0.33399 -1.33398,0.33399 -0.56966,0 -1.02751,-0.11605 -1.375,-0.34961 -0.3418,-0.23356 -0.60694,-0.57324 -0.79492,-1.01758 -0.20508,-0.47282 -0.33968,-1.00928 -0.40235,-1.60742 -0.0627,-0.59815 -0.0937,-1.33985 -0.0937,-2.22852 0,-0.80892 0.0352,-1.55257 0.10352,-2.23047 0.074,-0.67789 0.2067,-1.22884 0.40039,-1.65039 0.20508,-0.45003 0.48258,-0.78564 0.83008,-1.00781 0.35319,-0.22217 0.79655,-0.33398 1.33203,-0.33398 z m 8.8125,4.41992 c -0.007,0.42166 -0.0111,0.84359 -0.0117,1.26562 5.7e-4,0.42144 0.004,0.8426 0.0117,1.26367 l 19.0957,-0.30859 c -0.005,-0.31899 -0.006,-0.63624 -0.006,-0.95508 -5.7e-4,-0.31928 0.003,-0.63955 0.008,-0.95898 l -19.09765,-0.30664 z m 6.81836,11.1914 -6.0918,0.83008 c 0.0483,0.35467 0.0974,0.70861 0.15039,1.0625 l 6.08203,-0.91015 c -0.049,-0.32704 -0.096,-0.65474 -0.14062,-0.98243 z m 6.26562,9.01172 -10.07812,2.82227 c 0.0963,0.34397 0.19419,0.68859 0.29492,1.03125 l 10.04102,-2.95508 c -0.088,-0.29911 -0.17372,-0.59822 -0.25782,-0.89844 z m 75.63477,10.47071 0,1.57812 -0.62305,0 0,0.77734 0.62305,0 0,2.91993 c 0,0.66531 0.14581,1.14965 0.4375,1.45117 0.29169,0.30152 0.71886,0.45117 1.27929,0.45117 0.1606,0 0.34173,-0.0135 0.54493,-0.043 0.20647,-0.0295 0.39661,-0.0674 0.57031,-0.11328 l 0,-0.83203 -0.0488,0 c -0.0721,0.0295 -0.18964,0.0674 -0.35351,0.11328 -0.16387,0.0426 -0.3219,0.0644 -0.47266,0.0644 -0.25892,0 -0.45226,-0.0289 -0.58008,-0.0879 -0.12454,-0.0623 -0.22282,-0.15992 -0.29492,-0.29101 -0.0787,-0.14093 -0.12361,-0.29058 -0.13672,-0.45118 -0.0131,-0.16387 -0.0195,-0.39127 -0.0195,-0.67968 l 0,-2.50196 1.90625,0 0,-0.77734 -1.90625,0 0,-1.57812 -0.92578,0 z m -76.31445,0.48242 -5.64258,2.44922 c 0.14218,0.32762 0.28518,0.6547 0.43164,0.98046 l 5.61133,-2.52148 c -0.13548,-0.30145 -0.26886,-0.60502 -0.40039,-0.9082 z m 63.20898,0.94336 c -0.32446,0 -0.63151,0.0687 -0.91992,0.20312 -0.28514,0.13438 -0.57097,0.31934 -0.85938,0.5586 l 0,-0.60938 -0.92383,0 0,5.49219 0.92383,0 0,-4.09961 c 0.25236,-0.19337 0.5035,-0.35202 0.75586,-0.47656 0.25564,-0.12455 0.51131,-0.1875 0.76367,-0.1875 0.26547,0 0.46845,0.0353 0.60938,0.10742 0.14093,0.0688 0.24884,0.17352 0.32422,0.31445 0.0688,0.1311 0.11315,0.30776 0.13281,0.52735 0.0229,0.2163 0.0332,0.44497 0.0332,0.6875 l 0,3.12695 0.92578,0 0,-3.51563 c 0,-0.0983 -0.003,-0.1966 -0.01,-0.29492 -0.007,-0.1016 -0.0156,-0.19024 -0.0254,-0.26562 0.25891,-0.19993 0.51843,-0.36242 0.77734,-0.49024 0.25892,-0.13109 0.51648,-0.19726 0.77539,-0.19726 0.26547,0 0.46845,0.0353 0.60938,0.10742 0.14093,0.0721 0.25079,0.17938 0.32617,0.32031 0.0688,0.1311 0.11315,0.3058 0.13281,0.52539 0.0229,0.21959 0.16035,0.4848 0.0332,0.6836 l 0,3.12695 0.92383,0 0,-3.56445 c 0,-0.65549 -0.14323,-1.16551 -0.43164,-1.5293 -0.28513,-0.36707 -0.72899,-0.55078 -1.33203,-0.55078 -0.35068,0 -0.6802,0.072 -0.98828,0.21289 -0.30808,0.13765 -0.64981,0.3631 -1.02344,0.67773 -0.12782,-0.27858 -0.32179,-0.49698 -0.58398,-0.6543 -0.25892,-0.15731 -0.5756,-0.23632 -0.94922,-0.23632 z m 9.36914,0 c -0.79969,0 -1.44394,0.2653 -1.93555,0.79297 -0.48833,0.52766 -0.73242,1.2387 -0.73242,2.13671 0,0.90785 0.25435,1.61058 0.76563,2.10547 0.51127,0.49161 1.22364,0.73633 2.13476,0.73633 0.35724,0 0.69702,-0.0443 1.02149,-0.13281 0.32446,-0.0885 0.64372,-0.19703 0.95507,-0.32813 l 0,-1.00781 -0.0508,0 c -0.16059,0.14421 -0.43036,0.29065 -0.81054,0.44141 -0.37691,0.14748 -0.75138,0.22265 -1.125,0.22265 -0.28186,0 -0.54137,-0.0405 -0.77735,-0.11914 -0.23269,-0.0786 -0.43504,-0.1962 -0.60547,-0.35351 -0.17698,-0.1606 -0.31637,-0.36615 -0.41796,-0.61524 -0.1016,-0.25236 -0.15235,-0.54719 -0.15235,-0.88476 l 4.04688,0 0,-0.50196 c 0,-0.79641 -0.20235,-1.40917 -0.60547,-1.84179 -0.39985,-0.43262 -0.97025,-0.65039 -1.71094,-0.65039 z m 9.9707,0 c -0.79968,0 -1.44589,0.2653 -1.9375,0.79297 -0.48833,0.52766 -0.73242,1.2387 -0.73242,2.13671 0,0.90785 0.2563,1.61058 0.76758,2.10547 0.51127,0.49161 1.22169,0.73633 2.13281,0.73633 0.35724,0 0.69898,-0.0443 1.02344,-0.13281 0.32446,-0.0885 0.64177,-0.19703 0.95312,-0.32813 l 0,-1.00781 -0.0488,0 c -0.1606,0.14421 -0.43037,0.29065 -0.81055,0.44141 -0.3769,0.14748 -0.75333,0.22265 -1.12695,0.22265 -0.28186,0 -0.53942,-0.0405 -0.77539,-0.11914 -0.2327,-0.0786 -0.43505,-0.1962 -0.60547,-0.35351 -0.17698,-0.1606 -0.31637,-0.36615 -0.41797,-0.61524 -0.1016,-0.25236 -0.15235,-0.54719 -0.15235,-0.88476 l 4.04688,0 0,-0.50196 c 0,-0.79641 -0.20235,-1.40917 -0.60547,-1.84179 -0.39984,-0.43262 -0.97024,-0.65039 -1.71094,-0.65039 z m 9.89649,0.0195 c -0.35069,0 -0.66799,0.0469 -0.95313,0.13867 -0.28185,0.0885 -0.51568,0.20924 -0.69922,0.36328 -0.19009,0.15732 -0.33269,0.33524 -0.42773,0.53516 -0.0918,0.19992 -0.13672,0.41448 -0.13672,0.64062 0,0.36052 0.0989,0.66498 0.29883,0.91406 0.2032,0.24581 0.54556,0.43273 1.02734,0.56055 0.17371,0.0459 0.36642,0.0876 0.57617,0.12695 0.21304,0.0393 0.38453,0.074 0.51563,0.10352 0.35396,0.0787 0.59421,0.17373 0.71875,0.28516 0.12454,0.11143 0.18555,0.27588 0.18555,0.49218 0,0.28186 -0.11434,0.48805 -0.34375,0.61914 -0.22942,0.1311 -0.54673,0.19727 -0.95313,0.19727 -0.32774,0 -0.67011,-0.0655 -1.02734,-0.19336 -0.35724,-0.1311 -0.68292,-0.3058 -0.97461,-0.52539 l -0.0488,0 0,1.03711 c 0.22942,0.11471 0.51399,0.22199 0.85156,0.32031 0.34085,0.095 0.71274,0.14258 1.11914,0.14258 0.71776,0 1.28432,-0.16124 1.69727,-0.48242 0.41623,-0.32119 0.62305,-0.73293 0.62305,-1.23438 0,-0.39984 -0.11496,-0.72036 -0.34766,-0.96289 -0.2327,-0.23925 -0.5648,-0.40753 -0.99414,-0.50586 -0.14093,-0.0328 -0.31822,-0.07 -0.53125,-0.10937 -0.20976,-0.0393 -0.39989,-0.0779 -0.57031,-0.11719 -0.30808,-0.0721 -0.53032,-0.16459 -0.66797,-0.2793 -0.14093,-0.1147 -0.21094,-0.28557 -0.21094,-0.51171 0,-0.25564 0.11691,-0.44836 0.34961,-0.57618 0.2327,-0.13109 0.5179,-0.19531 0.85547,-0.19531 0.32446,0 0.65461,0.0604 0.99219,0.18164 0.33757,0.11799 0.62535,0.2638 0.86132,0.4375 l 0.0488,0 0,-0.98828 c -0.22286,-0.11471 -0.50422,-0.21236 -0.84179,-0.29101 -0.3343,-0.0819 -0.66445,-0.12305 -0.99219,-0.12305 z m -6.17969,0.13281 0,5.49219 0.92383,0 0,-3.89844 c 0.2458,-0.19992 0.50211,-0.36179 0.76758,-0.48633 0.26547,-0.12782 0.54103,-0.1914 0.82617,-0.1914 0.17698,0 0.32921,0.007 0.45703,0.0234 0.1311,0.0131 0.26469,0.0356 0.40234,0.0684 l 0.0488,0 0,-0.94726 c -0.1442,-0.0229 -0.25211,-0.0384 -0.32422,-0.0449 -0.0721,-0.01 -0.18901,-0.0156 -0.34961,-0.0156 -0.29169,0 -0.57751,0.063 -0.85937,0.1875 -0.27858,0.12126 -0.60168,0.33003 -0.96875,0.625 l 0,-0.8125 -0.92383,0 z m -13.73633,0.60938 c 0.49161,0 0.85841,0.13296 1.09766,0.39843 0.24253,0.26547 0.36391,0.6419 0.36719,1.12696 l -3.14649,0 c 0.0393,-0.43262 0.20636,-0.79621 0.49805,-1.08789 0.29496,-0.29169 0.6887,-0.4375 1.18359,-0.4375 z m 9.97071,0 c 0.49161,0 0.85645,0.13296 1.0957,0.39843 0.24253,0.26547 0.36586,0.6419 0.36914,1.12696 l -3.14649,0 c 0.0393,-0.43262 0.20441,-0.79621 0.4961,-1.08789 0.29496,-0.29169 0.69066,-0.4375 1.18555,-0.4375 z m -74.03516,5.27929 -8.93945,5.44141 c 0.18605,0.30563 0.37432,0.60887 0.56445,0.91211 l 8.86523,-5.55664 c -0.1655,-0.26403 -0.32824,-0.53067 -0.49023,-0.79688 z m 54.77344,6.54492 c -0.34741,0 -0.67435,0.07 -0.98243,0.21094 -0.30479,0.13765 -0.58036,0.30915 -0.82617,0.51563 l 0,-0.57422 -0.92383,0 0,7.51758 0.92383,0 0,-2.30078 c 0.23925,0.13109 0.47371,0.22679 0.70313,0.28906 0.23269,0.0623 0.49025,0.0937 0.77539,0.0937 0.32774,0 0.638,-0.0662 0.92969,-0.19727 0.29496,-0.13437 0.55126,-0.32192 0.76757,-0.56445 0.2327,-0.25564 0.4132,-0.56653 0.54102,-0.93359 0.12782,-0.37035 0.19141,-0.77889 0.19141,-1.22461 0,-0.88818 -0.1863,-1.58192 -0.55665,-2.08008 -0.36706,-0.50145 -0.88093,-0.75196 -1.54296,-0.75196 z m 5.82031,0 c -0.79969,0 -1.44394,0.26336 -1.93555,0.79102 -0.48833,0.52766 -0.73437,1.24066 -0.73437,2.13867 0,0.90784 0.2563,1.60863 0.76757,2.10352 0.51128,0.49161 1.22365,0.73828 2.13477,0.73828 0.35724,0 0.69702,-0.0443 1.02149,-0.13281 0.32446,-0.0885 0.64177,-0.19899 0.95312,-0.33008 l 0,-1.00781 -0.0488,0 c -0.16059,0.1442 -0.43037,0.29259 -0.81055,0.44336 -0.3769,0.14748 -0.75137,0.2207 -1.125,0.2207 -0.28185,0 -0.54137,-0.0385 -0.77734,-0.11719 -0.23269,-0.0787 -0.43504,-0.1962 -0.60547,-0.35351 -0.17698,-0.1606 -0.31637,-0.36616 -0.41797,-0.61524 -0.1016,-0.25236 -0.15234,-0.54719 -0.15234,-0.88476 l 4.04688,0 0,-0.50196 c 0,-0.79641 -0.20235,-1.41113 -0.60547,-1.84375 -0.39985,-0.43262 -0.97025,-0.64844 -1.71094,-0.64844 z m 19.09375,0 c -0.79969,0 -1.44394,0.26336 -1.93555,0.79102 -0.48833,0.52766 -0.73242,1.24066 -0.73242,2.13867 0,0.90784 0.25435,1.60863 0.76563,2.10352 0.51127,0.49161 1.22364,0.73828 2.13476,0.73828 0.35724,0 0.69702,-0.0443 1.02148,-0.13281 0.32447,-0.0885 0.64373,-0.19899 0.95508,-0.33008 l 0,-1.00781 -0.0508,0 c -0.16059,0.1442 -0.43037,0.29259 -0.81054,0.44336 -0.37691,0.14748 -0.75138,0.2207 -1.125,0.2207 -0.28186,0 -0.54138,-0.0385 -0.77735,-0.11719 -0.23269,-0.0787 -0.43504,-0.1962 -0.60547,-0.35351 -0.17698,-0.1606 -0.31637,-0.36616 -0.41797,-0.61524 -0.1016,-0.25236 -0.15234,-0.54719 -0.15234,-0.88476 l 4.04687,0 0,-0.50196 c 0,-0.79641 -0.20234,-1.41113 -0.60546,-1.84375 -0.39985,-0.43262 -0.97025,-0.64844 -1.71094,-0.64844 z m -5.6582,0.0195 c -0.35069,0 -0.66799,0.0469 -0.95313,0.13867 -0.28186,0.0885 -0.51373,0.20924 -0.69727,0.36328 -0.19008,0.15731 -0.33268,0.33523 -0.42773,0.53516 -0.0918,0.19992 -0.13867,0.41253 -0.13867,0.63867 0,0.36051 0.10086,0.66693 0.30078,0.91601 0.2032,0.24581 0.54556,0.43078 1.02734,0.5586 0.17371,0.0459 0.36447,0.0896 0.57422,0.1289 0.21303,0.0393 0.38648,0.074 0.51758,0.10352 0.35396,0.0787 0.59226,0.17372 0.7168,0.28515 0.12454,0.11144 0.1875,0.27393 0.1875,0.49024 0,0.28186 -0.11629,0.49 -0.34571,0.62109 -0.22941,0.1311 -0.54672,0.19532 -0.95312,0.19532 -0.32774,0 -0.67011,-0.0636 -1.02734,-0.19141 -0.35724,-0.1311 -0.68097,-0.30581 -0.97266,-0.52539 l -0.0488,0 0,1.03711 c 0.22942,0.11471 0.51204,0.22199 0.84961,0.32031 0.34085,0.095 0.7147,0.14258 1.12109,0.14258 0.71776,0 1.28236,-0.16124 1.69532,-0.48242 0.41623,-0.32119 0.625,-0.73294 0.625,-1.23438 0,-0.39984 -0.11692,-0.72036 -0.34961,-0.96289 -0.2327,-0.23925 -0.56285,-0.40949 -0.99219,-0.50781 -0.14093,-0.0328 -0.31822,-0.0681 -0.53125,-0.10742 -0.20975,-0.0393 -0.39989,-0.0779 -0.57031,-0.11719 -0.30808,-0.0721 -0.53032,-0.16654 -0.66797,-0.28125 -0.14093,-0.11471 -0.21289,-0.28558 -0.21289,-0.51172 0,-0.25564 0.11691,-0.4464 0.34961,-0.57422 0.23269,-0.1311 0.51789,-0.19726 0.85547,-0.19726 0.32446,0 0.65656,0.0604 0.99414,0.18164 0.33757,0.11798 0.6234,0.26379 0.85937,0.4375 l 0.0488,0 0,-0.98828 c -0.22286,-0.11471 -0.50227,-0.21041 -0.83984,-0.28907 -0.3343,-0.0819 -0.6664,-0.12304 -0.99414,-0.12304 z m 11.67578,0.006 c -0.80952,0 -1.46019,0.25435 -1.95508,0.76563 -0.49161,0.51128 -0.73828,1.21722 -0.73828,2.11523 0,0.48178 0.0662,0.90121 0.19726,1.26172 0.1311,0.36052 0.31544,0.66051 0.55469,0.89649 0.23597,0.23597 0.52055,0.41131 0.85156,0.52929 0.33102,0.11471 0.69328,0.17188 1.08985,0.17188 0.31135,0 0.60555,-0.0392 0.88086,-0.12109 0.27858,-0.0819 0.57083,-0.19822 0.8789,-0.34571 l 0,-1.01758 -0.0488,0 c -0.0688,0.0557 -0.16131,0.12447 -0.27929,0.20313 -0.11799,0.0754 -0.24454,0.14602 -0.37891,0.21484 -0.15404,0.0787 -0.32812,0.14225 -0.52148,0.19141 -0.19337,0.0492 -0.3835,0.0742 -0.57032,0.0742 -0.53749,0 -0.95566,-0.17729 -1.2539,-0.53125 -0.29497,-0.35724 -0.44141,-0.86531 -0.44141,-1.52735 0,-0.6817 0.14965,-1.19814 0.45117,-1.54882 0.3048,-0.35396 0.71976,-0.53125 1.24414,-0.53125 0.28514,0 0.57676,0.0578 0.875,0.17578 0.30153,0.11798 0.59315,0.28822 0.875,0.50781 l 0.0488,0 0,-1.02734 c -0.25236,-0.12782 -0.52918,-0.23573 -0.83398,-0.32422 -0.30152,-0.0885 -0.61115,-0.13282 -0.92578,-0.13282 z m -21.39453,0.12696 0,5.49219 0.92382,0 0,-3.89844 c 0.24581,-0.19992 0.50211,-0.36374 0.76758,-0.48828 0.26547,-0.12782 0.54104,-0.19141 0.82617,-0.19141 0.17698,0 0.32922,0.009 0.45704,0.0254 0.13109,0.0131 0.26469,0.0356 0.40234,0.0684 l 0.0508,0 0,-0.94922 c -0.14421,-0.0229 -0.25407,-0.0364 -0.32617,-0.043 -0.0721,-0.01 -0.18707,-0.0156 -0.34766,-0.0156 -0.29169,0 -0.57947,0.063 -0.86133,0.1875 -0.27858,0.12126 -0.60168,0.32808 -0.96875,0.62304 l 0,-0.81054 -0.92382,0 z m -3.76563,0.60937 c 0.49161,0 0.85645,0.13297 1.0957,0.39844 0.24253,0.26547 0.36587,0.63994 0.36914,1.125 l -3.14648,0 c 0.0393,-0.43262 0.2044,-0.79425 0.49609,-1.08594 0.29497,-0.29169 0.69066,-0.4375 1.18555,-0.4375 z m 19.09375,0 c 0.49161,0 0.85841,0.13297 1.09766,0.39844 0.24252,0.26547 0.36391,0.63994 0.36718,1.125 l -3.14648,0 c 0.0393,-0.43262 0.20636,-0.79425 0.49805,-1.08594 0.29496,-0.29169 0.6887,-0.4375 1.18359,-0.4375 z m -25.10156,0.11914 c 0.46867,0 0.81683,0.1625 1.04297,0.49024 0.22614,0.32774 0.33984,0.82234 0.33984,1.48437 0,0.6817 -0.14518,1.19752 -0.43359,1.54492 -0.28841,0.34741 -0.69053,0.52149 -1.20508,0.52149 -0.23925,0 -0.45249,-0.0219 -0.64258,-0.0645 -0.18681,-0.0426 -0.41163,-0.1242 -0.67383,-0.24219 l 0,-3.11133 c 0.24581,-0.18681 0.50274,-0.33646 0.77149,-0.45117 0.26874,-0.11471 0.53531,-0.17188 0.80078,-0.17188 z m -71.08399,0.42774 c -0.63232,0 -1.28694,0.0828 -1.96484,0.24805 -0.6722,0.1652 -1.21077,0.34749 -1.61523,0.54687 l 0,1.79492 0.0859,0 c 0.57536,-0.37597 1.16374,-0.6556 1.76758,-0.83789 0.60384,-0.18229 1.1652,-0.27344 1.6836,-0.27344 0.78043,0 1.38736,0.18848 1.82031,0.56446 0.43864,0.37028 0.6582,0.88606 0.6582,1.54687 0,0.72347 -0.20296,1.39876 -0.60742,2.02539 -0.40446,0.62093 -1.15235,1.45996 -2.24609,2.51953 -0.5184,0.507 -1.07976,1.01661 -1.6836,1.5293 l -1.79492,1.53906 0,1.78516 8.61328,0 0,-1.46094 -6.84375,0 c 0.56397,-0.47851 1.1709,-0.99642 1.82031,-1.55469 0.64942,-0.56396 1.27914,-1.14599 1.88868,-1.74414 0.42724,-0.41585 0.78776,-0.79492 1.08398,-1.13672 0.30192,-0.34179 0.56494,-0.68782 0.78711,-1.04101 0.23926,-0.37598 0.41748,-0.77165 0.53711,-1.1875 0.12532,-0.42155 0.18945,-0.87516 0.18945,-1.35938 0,-1.07666 -0.37077,-1.92806 -1.11133,-2.55468 -0.74056,-0.63233 -1.76383,-0.94922 -3.06836,-0.94922 z m 18.87696,2.875 -4.75391,3.90625 c 0.17169,0.20947 0.34368,0.41718 0.51758,0.625 0.0575,0.0683 0.11615,0.13699 0.17383,0.20508 l 4.69922,-3.97071 c -0.0531,-0.0628 -0.10531,-0.12452 -0.15821,-0.1875 -0.16042,-0.19138 -0.32011,-0.38515 -0.47851,-0.57812 z m 10.07617,4.36719 -7.06445,7.71679 c 0.26405,0.24171 0.52973,0.48258 0.79687,0.72071 l 6.96094,-7.8125 c -0.23265,-0.20732 -0.4635,-0.41462 -0.69336,-0.625 z m 35.64062,8.82812 -3.76953,18.72266 c 0.62009,0.12547 1.24363,0.24464 1.86719,0.35547 0.20757,0.0363 0.41527,0.0708 0.62305,0.10546 l 3.16406,-18.83593 c -0.15722,-0.0267 -0.31376,-0.0541 -0.4707,-0.082 -0.47202,-0.0824 -0.94382,-0.17159 -1.41407,-0.26563 z m 47.22657,0.53516 c -0.27058,0.15459 -0.5418,0.30618 -0.81446,0.45703 l 5.06641,9.16015 c 0.31462,-0.17358 0.62701,-0.34942 0.93945,-0.52734 z m -77.64844,0.28906 -3.49024,5.06445 c 0.29408,0.20276 0.5881,0.40463 0.88477,0.60352 l 3.42578,-5.11133 c -0.27453,-0.184 -0.54819,-0.36908 -0.82031,-0.55664 z m 10.8789,1.44726 -4.71484,9.34376 c 0.31889,0.16079 0.63995,0.31992 0.96094,0.47656 l 4.5918,-9.40625 c -0.28017,-0.1368 -0.55952,-0.27363 -0.8379,-0.41407 z m 7.63282,7.88672 -1.99219,5.81641 c 0.33851,0.11584 0.67747,0.2304 1.01758,0.3418 l 1.91601,-5.84375 c -0.31425,-0.10296 -0.62857,-0.20737 -0.9414,-0.31446 z m 5.46875,12.38282 0,6.55468 c 0.3361,-0.0684 0.73584,-0.13672 1.19726,-0.20507 0.46713,-0.0684 0.95183,-0.10352 1.45313,-0.10352 0.52409,0 0.99642,0.0456 1.41797,0.13672 0.42724,0.0855 0.78971,0.23665 1.08593,0.45312 0.26775,0.1823 0.47494,0.42465 0.62305,0.72657 0.15381,0.30192 0.23047,0.67269 0.23047,1.11132 0,0.45004 -0.0662,0.84571 -0.19727,1.1875 -0.12532,0.3418 -0.31184,0.63591 -0.5625,0.88086 -0.29622,0.28483 -0.6359,0.48373 -1.01757,0.59766 -0.37598,0.11393 -0.76547,0.16992 -1.16993,0.16992 -0.60384,0 -1.21907,-0.10156 -1.8457,-0.30664 -0.62663,-0.21077 -1.1735,-0.46549 -1.64062,-0.76172 l -0.1211,0 0,1.80469 c 0.44434,0.20508 0.9891,0.37712 1.63281,0.51953 0.64372,0.14811 1.31283,0.22266 2.00782,0.22266 0.74625,0 1.40088,-0.10563 1.96484,-0.31641 0.56966,-0.21647 1.06055,-0.52311 1.4707,-0.92187 0.37598,-0.37028 0.6722,-0.82601 0.88868,-1.36719 0.21647,-0.54118 0.32422,-1.10873 0.32422,-1.70117 -1e-5,-0.74626 -0.12435,-1.36768 -0.375,-1.86328 -0.25066,-0.49561 -0.60482,-0.89958 -1.06055,-1.2129 -0.43294,-0.29622 -0.90739,-0.5013 -1.42578,-0.61523 -0.5184,-0.11963 -1.12321,-0.17969 -1.8125,-0.17969 -0.18799,0 -0.40967,0.006 -0.66602,0.0176 -0.25635,0.0114 -0.507,0.028 -0.75195,0.0508 l 0,-3.38281 6.00586,0 0,-1.49609 -7.65625,0 z"
       id="variometerMetric"
       inkscape:label="#text4616"
       inkscape:connector-curvature="0"
       sodipodi:nodetypes="cccscccscccscccccscccccccscccccccccccccccccccccccccccccccccccccccccccsscscccccccccccccsccccccccccccccccccccccccccccccscscscscsccccsccsscccsccccccccccccccccccccccccccccssscccccscccscccccccccccccccccccccscccsccscccscccsccscscccccccscscccccscccccscccscscscccccscccccscssscccsccccsscscccccscscccccscscccccscccccscccccscccccsccccssccccsccccccccccccccscccscccscscscccccscccccscssccscscccccscccccscccscccscccccscscccccscscccccscscccccsccscccscccccccscscsccccccccccccscccccscccccsccccssccccscsscscccccccccccsscscccccccccccccsccccccccccccccccccccccccccccccccccccccccccccccscccscccscccccsccccsccsccccccc" />
    <g
       id="indicatorSP"
       inkscape:label="#g4172">
      <path
         style="opacity:1;fill:#1f1915;fill-opacity:1;stroke:none;stroke-width:2.11635494;stroke-miterlimit:4;stroke-dasharray:none;stroke-opacity:1"
         d="m 7.5543087,116.27599 c -0.7322066,0 -1.3216609,0.63554 -1.3216609,1.42497 l 0,14.52412 c 0,0.78943 0.6778565,1.801 1.3216609,1.42495 l 14.8724533,-8.687 z"
         id="rect5124"
         inkscape:connector-curvature="0"
         sodipodi:nodetypes="sssscs" />
      <path
         inkscape:connector-curvature="0"
         id="path5006"
         d="m 4.5128915,132.22513 c 0,0.69226 0.2337388,1.29337 0.6547844,1.80644 0.2105222,0.25653 0.4822547,0.50145 0.8762003,0.64025 0.3939446,0.1388 0.9293035,0.1047 1.3303862,-0.12958 l 16.4017856,-9.57903 -16.6402335,-9.72004 -0.2762961,0 c -1.3214207,0 -2.3466269,1.15123 -2.3466269,2.45811 l 0,14.52385 z m 2.0514056,0 0,-14.52385 c 0,-0.19387 0.1135063,-0.22892 0.2100611,-0.2801 l 12.9140178,7.54203 -13.0010703,7.59349 c -0.055423,-0.12483 -0.1230086,-0.26607 -0.1230086,-0.33157 z"
         style="color:#000000;font-style:normal;font-variant:normal;font-weight:normal;font-stretch:normal;font-size:medium;line-height:normal;font-family:sans-serif;text-indent:0;text-align:start;text-decoration:none;text-decoration-line:none;text-decoration-style:solid;text-decoration-color:#000000;letter-spacing:normal;word-spacing:normal;text-transform:none;direction:ltr;block-progression:tb;writing-mode:lr-tb;baseline-shift:baseline;text-anchor:start;white-space:normal;clip-rule:nonzero;display:inline;overflow:visible;visibility:visible;opacity:1;isolation:auto;mix-blend-mode:normal;color-interpolation:sRGB;color-interpolation-filters:linearRGB;solid-color:#000000;solid-opacity:1;fill:#c45614;fill-opacity:1;fill-rule:nonzero;stroke:#64280a;stroke-width:0.48613572;stroke-linecap:butt;stroke-linejoin:miter;stroke-miterlimit:4;stroke-dasharray:none;stroke-dashoffset:0;stroke-opacity:1;color-rendering:auto;image-rendering:auto;shape-rendering:auto;text-rendering:auto;enable-background:accumulate" />
    </g>
    <g
       style="font-style:normal;font-weight:normal;font-size:10px;line-height:125%;font-family:sans-serif;letter-spacing:0px;word-spacing:0px;fill:#000000;fill-opacity:1;stroke:none;stroke-width:1px;stroke-linecap:butt;stroke-linejoin:miter;stroke-opacity:1"
       id="text4393"
       transform="translate(-92.108001,7.1623465)">
      <path
         id="path4398"
         style="fill:#b1937e;fill-opacity:1"
         d="m 274.34485,96.042831 q 0,0.952149 -0.21973,1.728516 -0.21484,0.776367 -0.65429,1.323242 -0.44434,0.556641 -1.11329,0.859375 -0.66894,0.302736 -1.57226,0.302736 -0.25391,0 -0.47852,-0.0293 -0.22461,-0.0244 -0.40039,-0.083 l 0,-0.932613 0.0488,0 q 0.1416,0.07324 0.40039,0.141601 0.25879,0.06348 0.57617,0.06348 1.0791,0 1.68946,-0.644531 0.61523,-0.649414 0.71289,-1.78711 -0.45411,0.273438 -0.8545,0.390625 -0.40039,0.117188 -0.87402,0.117188 -0.44922,0 -0.81543,-0.08789 -0.36133,-0.08789 -0.72754,-0.341797 -0.42969,-0.297851 -0.64941,-0.756836 -0.21485,-0.458984 -0.21485,-1.098633 0,-1.113281 0.73243,-1.811523 0.73242,-0.698242 1.78711,-0.698242 0.52734,0 0.97656,0.166015 0.44922,0.161133 0.78613,0.488282 0.41504,0.405273 0.63965,1.044922 0.22461,0.634765 0.22461,1.645507 z m -0.98633,-0.209961 q 0,-0.756835 -0.15625,-1.21582 -0.15625,-0.458984 -0.42969,-0.71289 -0.22949,-0.219727 -0.49316,-0.3125 -0.26367,-0.09766 -0.57129,-0.09766 -0.70313,0 -1.11328,0.439453 -0.40527,0.439454 -0.40527,1.235352 0,0.463867 0.13183,0.756836 0.13184,0.292969 0.44434,0.512695 0.21972,0.151367 0.4834,0.205078 0.26367,0.04883 0.58593,0.04883 0.38086,0 0.77149,-0.102539 0.39062,-0.102539 0.73242,-0.297851 0.005,-0.102539 0.01,-0.200195 0.01,-0.10254 0.01,-0.25879 z m -9.68414,15.95557 q 0,0.94239 -0.73731,1.56739 -0.73242,0.625 -1.8457,0.625 -1.18164,0 -1.88477,-0.61035 -0.69824,-0.61036 -0.69824,-1.5625 0,-0.60547 0.35156,-1.09375 0.35157,-0.49317 0.99122,-0.78125 l 0,-0.0293 q -0.58594,-0.3125 -0.86915,-0.68359 -0.27832,-0.3711 -0.27832,-0.92774 0,-0.82031 0.67383,-1.36719 0.67383,-0.54687 1.71387,-0.54687 1.08887,0 1.73828,0.52246 0.64941,0.52246 0.64941,1.32812 0,0.49317 -0.30761,0.97168 -0.30762,0.47364 -0.90332,0.74219 l 0,0.0293 q 0.68359,0.29297 1.04492,0.72265 0.36133,0.42969 0.36133,1.09375 z m -1.15723,-3.5498 q 0,-0.52246 -0.40527,-0.83008 -0.40039,-0.3125 -1.02539,-0.3125 -0.61524,0 -1.01075,0.29297 -0.39062,0.29297 -0.39062,0.79102 0,0.35156 0.19531,0.61035 0.2002,0.2539 0.60059,0.4541 0.18066,0.0879 0.51758,0.22949 0.34179,0.1416 0.66406,0.23438 0.4834,-0.32227 0.66894,-0.66895 0.18555,-0.34668 0.18555,-0.80078 z m 0.15137,3.64258 q 0,-0.44922 -0.2002,-0.71778 -0.19531,-0.27343 -0.77148,-0.54687 -0.22949,-0.10742 -0.50293,-0.2002 -0.27344,-0.0928 -0.72754,-0.25878 -0.43945,0.23925 -0.70801,0.64941 -0.26367,0.41016 -0.26367,0.92773 0,0.65918 0.4541,1.08887 0.4541,0.42969 1.15235,0.42969 0.71289,0 1.13769,-0.36621 0.42969,-0.36621 0.42969,-1.00586 z m 0.91064,14.48797 -3.29101,6.18164 -1.04492,0 3.50097,-6.41602 -4.14062,0 0,-0.85449 4.97558,0 0,1.08887 z m 10.76569,18.42453 q 0,1.10839 -0.73242,1.81152 -0.72754,0.69824 -1.78711,0.69824 -0.53711,0 -0.97657,-0.16601 -0.43945,-0.16602 -0.77636,-0.49317 -0.41992,-0.40527 -0.64942,-1.07422 -0.22461,-0.66894 -0.22461,-1.61132 0,-0.9668 0.20508,-1.71387 0.20996,-0.74707 0.66406,-1.32813 0.42969,-0.55175 1.1084,-0.85937 0.67871,-0.3125 1.58203,-0.3125 0.28809,0 0.4834,0.0244 0.19532,0.0244 0.39551,0.0879 l 0,0.93262 -0.0488,0 q -0.13672,-0.0732 -0.41504,-0.13672 -0.27343,-0.0684 -0.56152,-0.0684 -1.0498,0 -1.6748,0.65918 -0.625,0.6543 -0.72754,1.77246 0.41015,-0.24902 0.80566,-0.37597 0.40039,-0.13184 0.92285,-0.13184 0.46387,0 0.81543,0.0879 0.35645,0.083 0.72754,0.3418 0.42969,0.29785 0.64453,0.75195 0.21973,0.4541 0.21973,1.10352 z m -0.99121,0.0391 q 0,-0.4541 -0.13672,-0.75195 -0.13184,-0.29786 -0.43945,-0.51758 -0.22461,-0.15625 -0.49805,-0.20508 -0.27344,-0.0488 -0.57129,-0.0488 -0.41504,0 -0.77148,0.0977 -0.35645,0.0976 -0.73243,0.30273 -0.01,0.10742 -0.0146,0.20996 -0.005,0.0977 -0.005,0.24903 0,0.77148 0.15625,1.2207 0.16114,0.44434 0.43946,0.70312 0.2246,0.21485 0.48339,0.31739 0.26368,0.0976 0.57129,0.0976 0.70801,0 1.11328,-0.42968 0.40528,-0.43457 0.40528,-1.24512 z m 36.0177,0.28072 -1.0791,0 0,2.0459 -0.9375,0 0,-2.0459 -3.48145,0 0,-1.12305 3.52051,-4.10156 0.89844,0 0,4.44336 1.0791,0 0,0.78125 z m -2.0166,-0.78125 0,-3.28125 -2.81739,3.28125 2.81739,0 z m 12.31384,-15.28244 q 0.23437,0.20996 0.38574,0.52734 0.15137,0.31739 0.15137,0.82032 0,0.49804 -0.18067,0.91308 -0.18066,0.41504 -0.50781,0.72266 -0.36621,0.3418 -0.86426,0.50781 -0.49316,0.16113 -1.08398,0.16113 -0.60547,0 -1.19141,-0.14648 -0.58593,-0.1416 -0.96191,-0.3125 l 0,-1.02051 0.0732,0 q 0.41504,0.27344 0.97656,0.4541 0.56153,0.18067 1.08399,0.18067 0.30762,0 0.6543,-0.10254 0.34668,-0.10254 0.56152,-0.30274 0.22461,-0.21484 0.33203,-0.47363 0.1123,-0.25879 0.1123,-0.6543 0,-0.39062 -0.12695,-0.64453 -0.12207,-0.25879 -0.3418,-0.40527 -0.21972,-0.15137 -0.53222,-0.20508 -0.3125,-0.0586 -0.67383,-0.0586 l -0.43945,0 0,-0.81055 0.34179,0 q 0.74219,0 1.18164,-0.30762 0.44434,-0.3125 0.44434,-0.9082 0,-0.26367 -0.1123,-0.45898 -0.11231,-0.2002 -0.3125,-0.32715 -0.20997,-0.12696 -0.44922,-0.17578 -0.23926,-0.0488 -0.542,-0.0488 -0.46386,0 -0.98632,0.16601 -0.52246,0.16602 -0.98633,0.46875 l -0.0488,0 0,-1.0205 q 0.34668,-0.1709 0.92285,-0.3125 0.58106,-0.14649 1.12305,-0.14649 0.53223,0 0.9375,0.0977 0.40527,0.0977 0.73242,0.3125 0.35156,0.23437 0.53223,0.5664 0.18066,0.33204 0.18066,0.77637 0,0.60547 -0.42969,1.05957 -0.4248,0.44922 -1.00586,0.56641 l 0,0.0684 q 0.23438,0.0391 0.53711,0.16601 0.30274,0.12207 0.5127,0.30762 z m 0.60303,-15.15935 -4.92188,0 0,-1.02051 q 0.5127,-0.43946 1.02539,-0.87891 0.51758,-0.43945 0.96192,-0.87402 0.9375,-0.90821 1.28418,-1.44043 0.34668,-0.53711 0.34668,-1.15723 0,-0.5664 -0.37598,-0.88379 -0.37109,-0.32226 -1.04004,-0.32226 -0.44434,0 -0.96191,0.15625 -0.51758,0.15625 -1.01075,0.47851 l -0.0488,0 0,-1.02539 q 0.34668,-0.1709 0.92285,-0.3125 0.58105,-0.1416 1.12304,-0.1416 1.11817,0 1.75293,0.54199 0.63477,0.53711 0.63477,1.45996 0,0.41504 -0.10742,0.77637 -0.10254,0.35645 -0.30762,0.67871 -0.19043,0.30274 -0.44922,0.5957 -0.2539,0.29297 -0.62012,0.64942 -0.52246,0.51269 -1.0791,0.99609 -0.55664,0.47852 -1.04004,0.88867 l 3.91114,0 0,0.83497 z m -11.68152,-13.76564 -3.93555,0 0,-0.742185 1.51367,0 0,-4.873047 -1.51367,0 0,-0.664062 q 0.30762,0 0.65918,-0.04883 0.35156,-0.05371 0.53223,-0.151368 0.22461,-0.12207 0.35156,-0.307617 0.13184,-0.190429 0.15137,-0.507812 l 0.75683,0 0,6.552734 1.48438,0 0,0.742187 z m -16.57547,50.37458 q 0,0.50781 -0.18555,0.97168 -0.18555,0.46386 -0.50781,0.78125 -0.35156,0.34179 -0.83985,0.52734 -0.48339,0.18066 -1.12304,0.18066 -0.59571,0 -1.14746,-0.12695 -0.55176,-0.12207 -0.93262,-0.29785 l 0,-1.03028 0.0684,0 q 0.40039,0.25391 0.9375,0.43458 0.53711,0.17578 1.05469,0.17578 0.34668,0 0.66894,-0.0977 0.32715,-0.0977 0.58106,-0.3418 0.21484,-0.20996 0.32226,-0.50293 0.11231,-0.29297 0.11231,-0.67871 0,-0.37597 -0.13184,-0.63476 -0.12695,-0.25879 -0.35644,-0.41504 -0.25391,-0.18555 -0.62012,-0.25879 -0.36133,-0.0781 -0.81055,-0.0781 -0.42969,0 -0.83008,0.0586 -0.3955,0.0586 -0.68359,0.11719 l 0,-3.74512 4.375,0 0,0.85449 -3.43262,0 0,1.93359 q 0.20996,-0.0195 0.42969,-0.0293 0.21973,-0.01 0.38086,-0.01 0.59082,0 1.03516,0.10254 0.44433,0.0977 0.81543,0.35156 0.39062,0.26856 0.60546,0.69336 0.21485,0.42481 0.21485,1.06446 z m -0.19235,-59.932149 q 0,1.958008 -0.61524,2.875977 -0.61035,0.913086 -1.89941,0.913086 -1.3086,0 -1.91407,-0.927735 -0.60058,-0.927734 -0.60058,-2.851562 0,-1.938477 0.61035,-2.861328 0.61035,-0.927735 1.9043,-0.927735 1.30859,0 1.90918,0.942383 0.60547,0.9375 0.60547,2.836914 z m -1.28418,2.216797 q 0.17089,-0.395508 0.22949,-0.927734 0.0635,-0.53711 0.0635,-1.289063 0,-0.742187 -0.0635,-1.289062 -0.0586,-0.546875 -0.23438,-0.927735 -0.1709,-0.375976 -0.46875,-0.566406 -0.29297,-0.19043 -0.75683,-0.19043 -0.45899,0 -0.76172,0.19043 -0.29785,0.19043 -0.47363,0.576172 -0.16602,0.361328 -0.2295,0.942383 -0.0586,0.581055 -0.0586,1.274414 0,0.761719 0.0537,1.274414 0.0537,0.512695 0.22949,0.917969 0.16114,0.380859 0.4541,0.581054 0.29786,0.200196 0.78614,0.200196 0.45898,0 0.76172,-0.19043 0.30273,-0.19043 0.46875,-0.576172 z m -1.23731,-8.530182 c -19.61197,0.0034 -35.52181,15.919274 -35.51953,35.531254 0.002,19.61197 15.91732,35.52262 35.5293,35.52148 19.61197,-10e-4 35.52343,-15.91342 35.52343,-35.52539 l -1.30078,0 c 0,18.90943 -15.31323,34.22351 -34.22265,34.22461 -18.90943,10e-4 -34.22632,-15.31128 -34.22852,-34.2207 -0.002,-18.90943 15.30932,-34.227176 34.21875,-34.230472 18.90943,-0.0033 34.22803,15.309322 34.23242,34.218752 l 1.30078,0 c -0.005,-19.61197 -15.92123,-35.522952 -35.5332,-35.519534 z m 8.81543,14.194832 -2.59766,0 0,6.411132 -0.96679,0 0,-6.411132 -2.59766,0 0,-0.859375 6.16211,0 0,0.859375 z m -5.33203,6.411132 -4.59961,0 0,-7.270507 0.9668,0 0,6.411137 3.63281,0 0,0.85937 z m -5.70313,0 -1.03027,0 -0.71289,-2.02637 -3.14453,0 -0.71289,2.02637 -0.98145,0 2.64649,-7.270507 1.28906,0 2.64648,7.270507 z m -2.04101,-2.85644 -1.27442,-3.56934 -1.27929,3.56934 2.55371,0 z"
         inkscape:connector-curvature="0" />
    </g>
    <g
       id="handle"
       inkscape:label="#g4393"
       transform="matrix(0.99988292,0,0,1.0024656,0.01170827,-0.44025835)">
      <path
         sodipodi:nodetypes="ccccc"
         inkscape:connector-curvature="0"
         d="m 157.49681,118.88236 -114.98047,3.92758 0.002,4.42497 c 37.594368,1.34791 77.18713,2.74928 114.78035,4.13141 z"
         style="color:#000000;font-style:normal;font-variant:normal;font-weight:normal;font-stretch:normal;font-size:medium;line-height:normal;font-family:sans-serif;text-indent:0;text-align:start;text-decoration:none;text-decoration-line:none;text-decoration-style:solid;text-decoration-color:#000000;letter-spacing:normal;word-spacing:normal;text-transform:none;direction:ltr;block-progression:tb;writing-mode:lr-tb;baseline-shift:baseline;text-anchor:start;white-space:normal;clip-rule:nonzero;display:inline;overflow:visible;visibility:visible;opacity:0.553;isolation:auto;mix-blend-mode:normal;color-interpolation:sRGB;color-interpolation-filters:linearRGB;solid-color:#000000;solid-opacity:1;fill:#000000;fill-opacity:1;fill-rule:nonzero;stroke:none;stroke-width:5;stroke-linecap:butt;stroke-linejoin:miter;stroke-miterlimit:4;stroke-dasharray:none;stroke-dashoffset:0;stroke-opacity:1;filter:url(#filter4383);color-rendering:auto;image-rendering:auto;shape-rendering:auto;text-rendering:auto;enable-background:accumulate"
         id="path4559" />
      <path
         sodipodi:nodetypes="ccccc"
         inkscape:connector-curvature="0"
         id="rect4452"
         d="m 47.78629,125.50463 0.008,-0.60222 107.99356,-4.03675 -0.1333,8.39859 z"
         style="fill:#b1937e;fill-opacity:1;stroke:none;stroke-width:5;stroke-miterlimit:4;stroke-dasharray:none;stroke-opacity:0.35503001" />
    </g>
    <text
       xml:space="preserve"
       style="font-style:normal;font-weight:normal;font-size:15px;line-height:125%;font-family:sans-serif;letter-spacing:0px;word-spacing:0px;fill:#000000;fill-opacity:1;stroke:none;stroke-width:1px;stroke-linecap:butt;stroke-linejoin:miter;stroke-opacity:1"
       x="247.84729"
       y="-328.11667"
       id="text4774"
       sodipodi:linespacing="125%"><tspan
         sodipodi:role="line"
         id="tspan4776"
         x="247.84729"
         y="-328.11667" /></text>
    <text
       xml:space="preserve"
       style="font-style:normal;font-weight:normal;font-size:7.5px;line-height:125%;font-family:sans-serif;letter-spacing:0px;word-spacing:0px;fill:#000000;fill-opacity:1;stroke:none;stroke-width:1px;stroke-linecap:butt;stroke-linejoin:miter;stroke-opacity:1"
       x="219.0327"
       y="-279.85663"
       id="text4895"
       sodipodi:linespacing="125%"><tspan
         sodipodi:role="line"
         id="tspan4897"
         x="219.0327"
         y="-279.85663" /></text>
    <g
       id="g4212"
       transform="translate(0,-1e-5)">
      <path
         sodipodi:nodetypes="cccccc"
         inkscape:connector-curvature="0"
         id="path4197"
         d="m 80.023811,248.40592 -78.4297181,0 0,-21.81182 64.0748461,0 c 4.350008,2.53777 10.862794,5.62779 14.354662,7.04001 z"
         style="fill:#110e0c;fill-opacity:1;stroke:#000000;stroke-width:3.18818569;stroke-miterlimit:4;stroke-dasharray:none;stroke-opacity:0.24852074" />
      <text
         transform="scale(1.0005047,0.99949555)"
         inkscape:label="#text4140"
         sodipodi:linespacing="125%"
         id="label-5"
         y="242.26273"
         x="5.3984203"
         style="font-style:normal;font-variant:normal;font-weight:bold;font-stretch:normal;font-size:11.25945091px;line-height:125%;font-family:sans-serif;-inkscape-font-specification:'sans-serif Bold';letter-spacing:0px;word-spacing:0px;fill:#554400;fill-opacity:1;stroke:none;stroke-width:1px;stroke-linecap:butt;stroke-linejoin:miter;stroke-opacity:1"
         xml:space="preserve"><tspan
           style="font-style:normal;font-variant:normal;font-weight:bold;font-stretch:normal;font-family:sans-serif;-inkscape-font-specification:'sans-serif Bold'"
           y="242.26273"
           x="5.3984203"
           id="tspan4142-59"
           sodipodi:role="line">agl</tspan></text>
      <text
         transform="scale(1.0005047,0.99949555)"
         xml:space="preserve"
         style="font-style:normal;font-variant:normal;font-weight:bold;font-stretch:normal;font-size:11.25945091px;line-height:125%;font-family:sans-serif;-inkscape-font-specification:'sans-serif Bold';text-align:end;letter-spacing:0px;word-spacing:0px;text-anchor:end;fill:#b1937e;fill-opacity:1;stroke:none;stroke-width:1px;stroke-linecap:butt;stroke-linejoin:miter;stroke-opacity:1"
         x="74.856949"
         y="242.21204"
         id="variometerAGL"
         sodipodi:linespacing="125%"
         inkscape:label="#text4140"><tspan
           style="font-style:normal;font-variant:normal;font-weight:normal;font-stretch:normal;font-family:sans-serif;-inkscape-font-specification:sans-serif"
           sodipodi:role="line"
           id="tspan4146-5"
           x="74.856949"
           y="242.21204">9999m</tspan></text>
    </g>
    <g
       id="g4219"
       transform="translate(168.38207,-1e-5)">
      <path
         style="fill:#110e0c;fill-opacity:1;stroke:#000000;stroke-width:3.18818569;stroke-miterlimit:4;stroke-dasharray:none;stroke-opacity:0.24852074"
         d="m 1.5941156,248.40592 78.4297184,0 0,-21.81182 -64.074846,0 c -4.350008,2.53777 -10.8627944,5.62779 -14.3546624,7.04001 z"
         id="path4221-3"
         inkscape:connector-curvature="0"
         sodipodi:nodetypes="cccccc" />
      <text
         xml:space="preserve"
         style="font-style:normal;font-variant:normal;font-weight:bold;font-stretch:normal;font-size:11.25945091px;line-height:125%;font-family:sans-serif;-inkscape-font-specification:'sans-serif Bold';letter-spacing:0px;word-spacing:0px;fill:#554400;fill-opacity:1;stroke:none;stroke-width:1px;stroke-linecap:butt;stroke-linejoin:miter;stroke-opacity:1"
         x="5.3984203"
         y="242.26273"
         id="text4223-4"
         sodipodi:linespacing="125%"
         inkscape:label="#text4140"
         transform="scale(1.0005047,0.99949555)"><tspan
           sodipodi:role="line"
           id="tspan4225-7"
           x="5.3984203"
           y="242.26273"
           style="font-style:normal;font-variant:normal;font-weight:bold;font-stretch:normal;font-family:sans-serif;-inkscape-font-specification:sans-serif">msl</tspan></text>
      <text
         inkscape:label="#text4140"
         sodipodi:linespacing="125%"
         id="variometerMSL"
         y="242.21204"
         x="74.856949"
         style="font-style:normal;font-variant:normal;font-weight:bold;font-stretch:normal;font-size:11.25945091px;line-height:125%;font-family:sans-serif;-inkscape-font-specification:'sans-serif Bold';text-align:end;letter-spacing:0px;word-spacing:0px;text-anchor:end;fill:#b1937e;fill-opacity:1;stroke:none;stroke-width:1px;stroke-linecap:butt;stroke-linejoin:miter;stroke-opacity:1"
         xml:space="preserve"
         transform="scale(1.0005047,0.99949555)"><tspan
           y="242.21204"
           x="74.856949"
           id="tspan4229-0"
           sodipodi:role="line"
           style="font-style:normal;font-variant:normal;font-weight:normal;font-stretch:normal;font-family:sans-serif;-inkscape-font-specification:sans-serif">9999m</tspan></text>
    </g>
    <circle
       cx="197.27605"
       cy="126.85186"
       r="35.065701"
       id="centerThr"
       style="fill:none;fill-opacity:1;stroke:none;stroke-width:1.91005218;stroke-miterlimit:4;stroke-dasharray:none;stroke-opacity:1"
       inkscape:label="#circle4956" />
    <g
       style="font-style:normal;font-weight:normal;font-size:10px;line-height:125%;font-family:sans-serif;letter-spacing:0px;word-spacing:0px;fill:#b1937e;fill-opacity:1;stroke:none;stroke-width:1px;stroke-linecap:butt;stroke-linejoin:miter;stroke-opacity:1"
       id="text4260" />
    <g
       style="font-style:normal;font-weight:normal;font-size:10px;line-height:125%;font-family:sans-serif;letter-spacing:0px;word-spacing:0px;fill:#000000;fill-opacity:1;stroke:none;stroke-width:1px;stroke-linecap:butt;stroke-linejoin:miter;stroke-opacity:1"
       id="text4357" />
    <g
       style="font-style:normal;font-weight:normal;font-size:10px;line-height:125%;font-family:sans-serif;letter-spacing:0px;word-spacing:0px;fill:#000000;fill-opacity:1;stroke:none;stroke-width:1px;stroke-linecap:butt;stroke-linejoin:miter;stroke-opacity:1"
       id="text4361" />
    <g
       style="font-style:normal;font-weight:normal;font-size:10px;line-height:125%;font-family:sans-serif;letter-spacing:0px;word-spacing:0px;fill:#000000;fill-opacity:1;stroke:none;stroke-width:1px;stroke-linecap:butt;stroke-linejoin:miter;stroke-opacity:1"
       id="text4365" />
    <g
       style="font-style:normal;font-weight:normal;font-size:10px;line-height:125%;font-family:sans-serif;letter-spacing:0px;word-spacing:0px;fill:#000000;fill-opacity:1;stroke:none;stroke-width:1px;stroke-linecap:butt;stroke-linejoin:miter;stroke-opacity:1"
       id="text4369" />
    <g
       style="font-style:normal;font-weight:normal;font-size:10px;line-height:125%;font-family:sans-serif;letter-spacing:0px;word-spacing:0px;fill:#000000;fill-opacity:1;stroke:none;stroke-width:1px;stroke-linecap:butt;stroke-linejoin:miter;stroke-opacity:1"
       id="text4373" />
    <g
       style="font-style:normal;font-weight:normal;font-size:10px;line-height:125%;font-family:sans-serif;letter-spacing:0px;word-spacing:0px;fill:#000000;fill-opacity:1;stroke:none;stroke-width:1px;stroke-linecap:butt;stroke-linejoin:miter;stroke-opacity:1"
       id="text4377" />
    <g
       style="font-style:normal;font-weight:normal;font-size:10px;line-height:125%;font-family:sans-serif;letter-spacing:0px;word-spacing:0px;fill:#000000;fill-opacity:1;stroke:none;stroke-width:1px;stroke-linecap:butt;stroke-linejoin:miter;stroke-opacity:1"
       id="text4381" />
    <g
       style="font-style:normal;font-weight:normal;font-size:10px;line-height:125%;font-family:sans-serif;letter-spacing:0px;word-spacing:0px;fill:#000000;fill-opacity:1;stroke:none;stroke-width:1px;stroke-linecap:butt;stroke-linejoin:miter;stroke-opacity:1"
       id="text4385" />
    <g
       style="font-style:normal;font-weight:normal;font-size:10px;line-height:125%;font-family:sans-serif;letter-spacing:0px;word-spacing:0px;fill:#000000;fill-opacity:1;stroke:none;stroke-width:1px;stroke-linecap:butt;stroke-linejoin:miter;stroke-opacity:1"
       id="text4389" />
    <g
       id="g4682"
       transform="matrix(0.49147939,-0.8708892,0.8708892,0.49147939,-46.35641,285.25572)"
       inkscape:transform-center-y="-1.332034"
       inkscape:transform-center-x="3.4649318">
      <path
         sodipodi:nodetypes="cccccc"
         inkscape:connector-curvature="0"
         id="path4450"
         d="m 258.66877,117.7458 -0.21392,0.0152 c -1.33315,7.71876 -4.33801,14.27278 -1.90449,23.26591 l 4.27187,-0.0648 c 2.16225,-9.17573 -0.48789,-15.34578 -2.15346,-23.2164 z"
         style="opacity:0.553;fill:#000000;fill-opacity:1;stroke:none;stroke-width:5;stroke-miterlimit:4;stroke-dasharray:none;stroke-opacity:0.35503001;filter:url(#filter4678)" />
      <path
         style="fill:#b1937e;fill-opacity:1;stroke:none;stroke-width:5;stroke-miterlimit:4;stroke-dasharray:none;stroke-opacity:0.35503001"
         d="m 258.54819,118.83106 -0.21392,0.0152 c -1.33315,7.71876 -3.61451,12.82577 -1.18099,21.8189 l 2.94544,-0.0648 c 2.16225,-9.17573 0.11504,-13.89877 -1.55053,-21.76939 z"
         id="path4446"
         inkscape:connector-curvature="0"
         sodipodi:nodetypes="cccccc" />
    </g>
    <g
       inkscape:label="#g5071"
       id="handleThr"
       transform="matrix(1.3210042,0,0,1.3210042,69.748078,-134.45415)">
      <path
         transform="matrix(0.17558908,-0.11127722,0.11362687,0.17929669,43.02286,187.16169)"
         inkscape:connector-curvature="0"
         id="path4962"
         d="m 192.91479,164.05477 -89.20516,88.68258 3.59961,4.31836 1.92579,-1.6543 94.35554,-79.74508 z"
         style="color:#000000;font-style:normal;font-variant:normal;font-weight:normal;font-stretch:normal;font-size:medium;line-height:normal;font-family:sans-serif;text-indent:0;text-align:start;text-decoration:none;text-decoration-line:none;text-decoration-style:solid;text-decoration-color:#000000;letter-spacing:normal;word-spacing:normal;text-transform:none;direction:ltr;block-progression:tb;writing-mode:lr-tb;baseline-shift:baseline;text-anchor:start;white-space:normal;clip-rule:nonzero;display:inline;overflow:visible;visibility:visible;opacity:0.553;isolation:auto;mix-blend-mode:normal;color-interpolation:sRGB;color-interpolation-filters:linearRGB;solid-color:#000000;solid-opacity:1;fill:#000000;fill-opacity:1;fill-rule:nonzero;stroke:none;stroke-width:5;stroke-linecap:butt;stroke-linejoin:miter;stroke-miterlimit:4;stroke-dasharray:none;stroke-dashoffset:0;stroke-opacity:1;filter:url(#filter4905);color-rendering:auto;image-rendering:auto;shape-rendering:auto;text-rendering:auto;enable-background:accumulate"
         sodipodi:nodetypes="cccccc" />
      <path
         sodipodi:nodetypes="ccccc"
         inkscape:connector-curvature="0"
         id="path4964"
         d="m 90.984245,219.84032 -0.154019,-0.0513 5.145081,-24.25586 2.147957,0.60019 z"
         style="fill:#b1937e;fill-opacity:1;stroke:none;stroke-width:5;stroke-miterlimit:4;stroke-dasharray:none;stroke-opacity:0.35503001" />
    </g>
  </g>
</svg>
