<?xml version="1.0" encoding="UTF-8" standalone="no"?>
<!-- Created with Inkscape (http://www.inkscape.org/) -->

<svg
   xmlns:dc="http://purl.org/dc/elements/1.1/"
   xmlns:cc="http://creativecommons.org/ns#"
   xmlns:rdf="http://www.w3.org/1999/02/22-rdf-syntax-ns#"
   xmlns:svg="http://www.w3.org/2000/svg"
   xmlns="http://www.w3.org/2000/svg"
   xmlns:sodipodi="http://sodipodi.sourceforge.net/DTD/sodipodi-0.dtd"
   xmlns:inkscape="http://www.inkscape.org/namespaces/inkscape"
   width="80"
   height="65"
   viewBox="0 0 80.000001 65"
   id="indicatorGPS"
   version="1.1"
   inkscape:version="0.91 r13725"
   sodipodi:docname="indicatorGPS.svg">
  <metadata
     id="metadata65">
    <rdf:RDF>
      <cc:Work
         rdf:about="">
        <dc:format>image/svg+xml</dc:format>
        <dc:type
           rdf:resource="http://purl.org/dc/dcmitype/StillImage" />
        <dc:title />
      </cc:Work>
    </rdf:RDF>
  </metadata>
  <defs
     id="defs5239">
    <clipPath
       clipPathUnits="userSpaceOnUse"
       id="clipPath4162">
      <path
         inkscape:connector-curvature="0"
         d="m 13.612786,994.93988 c -2.6947,0 -4.8769607,2.1822 -4.8769607,4.8769 l 0,18.59562 c -2.20909,1.5404 -3.6582,4.1043 -3.6582,7.002 0,4.7127 3.82242,8.5332 8.5351607,8.5332 4.71274,0 8.5332,-3.8205 8.5332,-8.5332 0,-2.8977 -1.44911,-5.4616 -3.6582,-7.002 l 0,-18.59562 c 0,-2.6947 -2.1803,-4.8769 -4.875,-4.8769 z m 0,1.2187 c 2.01804,0 3.65625,1.6402 3.65625,3.6582 l 0,19.23232 0.52148,0.3672 c 1.96232,1.3693 3.13672,3.6138 3.13672,6.002 -0.004,4.0281 -3.28235,7.3105 -7.31445,7.3105 -4.0321007,0 -7.3164107,-3.2783 -7.3164107,-7.3144 0,-2.3882 1.17042,-4.6347 3.13672,-6.0039 l 0.5214803,-0.3653 0,-19.22842 c 0,-2.018 1.6401704,-3.6582 3.6582104,-3.6582 z m 0,1.7481 c -0.96723,0 -1.76452,0.7517 -1.82422,1.707 l -0.004,0 0,21.27532 c -1.7871804,0.7244 -3.0488307,2.4756 -3.0488307,4.5215 0,2.6947 2.1822607,4.875 4.8769607,4.875 2.6947,0 4.875,-2.1803 4.875,-4.875 0,-2.0459 -1.26165,-3.7971 -3.04883,-4.5215 l 0,-21.27532 -0.004,0 c -0.0637,-0.9513 -0.85504,-1.707 -1.82226,-1.707 z"
         id="path4164" />
    </clipPath>
    <clipPath
       clipPathUnits="userSpaceOnUse"
       id="clipPath4166">
      <path
         inkscape:connector-curvature="0"
         d="m 13.612786,994.93988 c -2.6947,0 -4.8769607,2.1822 -4.8769607,4.8769 l 0,18.59562 c -2.20909,1.5404 -3.6582,4.1043 -3.6582,7.002 0,4.7127 3.82242,8.5332 8.5351607,8.5332 4.71274,0 8.5332,-3.8205 8.5332,-8.5332 0,-2.8977 -1.44911,-5.4616 -3.6582,-7.002 l 0,-18.59562 c 0,-2.6947 -2.1803,-4.8769 -4.875,-4.8769 z m 0,1.2187 c 2.01804,0 3.65625,1.6402 3.65625,3.6582 l 0,19.23232 0.52148,0.3672 c 1.96232,1.3693 3.13672,3.6138 3.13672,6.002 -0.004,4.0281 -3.28235,7.3105 -7.31445,7.3105 -4.0321007,0 -7.3164107,-3.2783 -7.3164107,-7.3144 0,-2.3882 1.17042,-4.6347 3.13672,-6.0039 l 0.5214803,-0.3653 0,-19.22842 c 0,-2.018 1.6401704,-3.6582 3.6582104,-3.6582 z m 0,1.7481 c -0.96723,0 -1.76452,0.7517 -1.82422,1.707 l -0.004,0 0,21.27532 c -1.7871804,0.7244 -3.0488307,2.4756 -3.0488307,4.5215 0,2.6947 2.1822607,4.875 4.8769607,4.875 2.6947,0 4.875,-2.1803 4.875,-4.875 0,-2.0459 -1.26165,-3.7971 -3.04883,-4.5215 l 0,-21.27532 -0.004,0 c -0.0637,-0.9513 -0.85504,-1.707 -1.82226,-1.707 z"
         id="path4168" />
    </clipPath>
  </defs>
  <sodipodi:namedview
     id="base"
     pagecolor="#2e2824"
     bordercolor="#666666"
     borderopacity="1.0"
     inkscape:pageopacity="1"
     inkscape:pageshadow="2"
     inkscape:zoom="13.046154"
     inkscape:cx="21.193986"
     inkscape:cy="32.5"
     inkscape:document-units="px"
     inkscape:current-layer="layer1"
     showgrid="false"
     units="px"
     inkscape:window-width="1920"
     inkscape:window-height="1017"
     inkscape:window-x="-8"
     inkscape:window-y="-8"
     inkscape:window-maximized="1" />
  <g
     inkscape:label="Layer 1"
     inkscape:groupmode="layer"
     id="layer1"
     transform="translate(0,-987.36216)">
    <path
       id="path4155"
       style="font-style:normal;font-variant:normal;font-weight:bold;font-stretch:normal;font-size:12.5px;line-height:125%;font-family:sans-serif;-inkscape-font-specification:'sans-serif Bold';letter-spacing:0px;word-spacing:0px;fill:#554400;fill-opacity:1;stroke:none;stroke-width:1px;stroke-linecap:butt;stroke-linejoin:miter;stroke-opacity:1"
       d="m 58.322698,1000.1307 q 0,1.3427 -1.141358,2.185 -1.135253,0.8362 -3.088378,0.8362 -1.129151,0 -1.971436,-0.1953 -0.836182,-0.2014 -1.568604,-0.5066 l 0,-2.1789 0.256348,0 q 0.726318,0.5798 1.623535,0.8911 0.903321,0.3112 1.733399,0.3112 0.213623,0 0.561523,-0.037 0.347901,-0.037 0.567627,-0.122 0.268555,-0.1099 0.439453,-0.2747 0.177002,-0.1648 0.177002,-0.4883 0,-0.2991 -0.256347,-0.5127 -0.250245,-0.2197 -0.738526,-0.33567 -0.512695,-0.12207 -1.086426,-0.22583 -0.567627,-0.10986 -1.068115,-0.27466 -1.147461,-0.37231 -1.654053,-1.00708 -0.500488,-0.64087 -0.500488,-1.58691 0,-1.26953 1.135254,-2.06909 1.141357,-0.80567 2.929687,-0.80567 0.897217,0 1.77002,0.177 0.878906,0.1709 1.519775,0.43335 l 0,2.09351 -0.250244,0 q -0.549316,-0.43945 -1.348877,-0.73242 -0.793457,-0.29907 -1.623535,-0.29907 -0.292969,0 -0.585937,0.0427 -0.286866,0.0366 -0.55542,0.14648 -0.238037,0.0916 -0.408936,0.28077 -0.170898,0.1831 -0.170898,0.42114 0,0.36011 0.274658,0.55542 0.274658,0.18921 1.037598,0.3479 0.500488,0.10376 0.958252,0.20141 0.463867,0.0977 0.994873,0.26856 1.043701,0.3418 1.538086,0.93384 0.500488,0.58593 0.500488,1.52592 z m -8.929444,-3.36306 q 0,0.61035 -0.213623,1.19629 -0.213623,0.57983 -0.610351,0.97656 -0.543213,0.53711 -1.2146,0.81177 -0.665283,0.27464 -1.660156,0.27464 l -1.45874,0 0,2.9602 -2.34375,0 0,-9.08811 3.857422,0 q 0.866699,0 1.45874,0.15258 0.598144,0.14649 1.055908,0.44556 0.549316,0.36011 0.836182,0.92163 0.292968,0.56153 0.292968,1.34888 z m -2.423095,0.0549 q 0,-0.38452 -0.20752,-0.65918 -0.207519,-0.28076 -0.482177,-0.39062 -0.366211,-0.14649 -0.714112,-0.1587 -0.3479,-0.0183 -0.927734,-0.0183 l -0.402832,0 0,2.72217 0.671386,0 q 0.598145,0 0.982667,-0.0732 0.390625,-0.0732 0.653076,-0.29297 0.22583,-0.19531 0.323486,-0.46387 0.10376,-0.27465 0.10376,-0.66528 z m -7.171631,5.64576 q -0.610352,0.2381 -1.617432,0.4761 -1.00708,0.2319 -2.008056,0.2319 -2.319336,0 -3.631592,-1.2573 -1.312256,-1.2634 -1.312256,-3.4851 0,-2.11792 1.324463,-3.41187 1.324463,-1.30005 3.692627,-1.30005 0.897217,0 1.708984,0.1648 0.811768,0.15869 1.806641,0.64087 l 0,2.13013 -0.262451,0 q -0.170899,-0.12818 -0.500489,-0.36011 -0.329589,-0.23804 -0.634765,-0.40283 -0.354004,-0.19532 -0.830078,-0.3357 -0.469971,-0.14038 -1.000977,-0.14038 -0.622559,0 -1.12915,0.18311 -0.506592,0.1831 -0.909424,0.56152 -0.384522,0.36621 -0.610352,0.93384 -0.219726,0.56152 -0.219726,1.30005 0,1.50757 0.79956,2.30712 0.799561,0.7996 2.362061,0.7996 0.134277,0 0.292969,-0.01 0.164794,-0.01 0.299072,-0.018 l 0,-1.78227 -1.812744,0 0,-1.71509 4.193115,0 0,4.48606 z" />
    <rect
       ry="7.271162"
       y="988.86511"
       x="1.5029331"
       height="61.994141"
       width="76.964653"
       id="frame"
       style="opacity:1;fill:#110e0c;fill-opacity:1;stroke:#ff0000;stroke-width:3.00586629;stroke-linecap:round;stroke-miterlimit:4;stroke-dasharray:none;stroke-dashoffset:0;stroke-opacity:1"
       inkscape:label="#rect4655" />
    <text
       xml:space="preserve"
       style="font-style:normal;font-variant:normal;font-weight:bold;font-stretch:normal;font-size:10.625px;line-height:125%;font-family:Arial;-inkscape-font-specification:'Arial Bold';text-align:start;letter-spacing:0px;word-spacing:0px;text-anchor:start;fill:#126612;fill-opacity:1;stroke:none;stroke-width:1px;stroke-linecap:butt;stroke-linejoin:miter;stroke-opacity:1;"
       x="5.1718426"
       y="1035.7917"
       id="gps1Status"
       sodipodi:linespacing="125%"
       inkscape:label="#text4207"><tspan
         sodipodi:role="line"
         id="tspan4209"
         x="5.1718426"
         y="1035.7917"
         style="font-style:normal;font-variant:normal;font-weight:bold;font-stretch:normal;font-size:10.625px;font-family:Arial;-inkscape-font-specification:'Arial Bold';text-align:start;text-anchor:start;fill:#126612;fill-opacity:1;">12 sats NoCo</tspan></text>
    <path
       id="path4165"
       style="font-style:normal;font-variant:normal;font-weight:bold;font-stretch:normal;font-size:12.5px;line-height:125%;font-family:sans-serif;-inkscape-font-specification:'sans-serif Bold';letter-spacing:0px;word-spacing:0px;fill:#554400;fill-opacity:1;stroke:none;stroke-width:1px;stroke-linecap:butt;stroke-linejoin:miter;stroke-opacity:1"
       d="m 58.322698,1000.1307 q 0,1.3427 -1.141358,2.185 -1.135253,0.8362 -3.088378,0.8362 -1.129151,0 -1.971436,-0.1953 -0.836182,-0.2014 -1.568604,-0.5066 l 0,-2.1789 0.256348,0 q 0.726318,0.5798 1.623535,0.8911 0.903321,0.3112 1.733399,0.3112 0.213623,0 0.561523,-0.037 0.347901,-0.037 0.567627,-0.122 0.268555,-0.1099 0.439453,-0.2747 0.177002,-0.1648 0.177002,-0.4883 0,-0.2991 -0.256347,-0.5127 -0.250245,-0.2197 -0.738526,-0.33567 -0.512695,-0.12207 -1.086426,-0.22583 -0.567627,-0.10986 -1.068115,-0.27466 -1.147461,-0.37231 -1.654053,-1.00708 -0.500488,-0.64087 -0.500488,-1.58691 0,-1.26953 1.135254,-2.06909 1.141357,-0.80567 2.929687,-0.80567 0.897217,0 1.77002,0.177 0.878906,0.1709 1.519775,0.43335 l 0,2.09351 -0.250244,0 q -0.549316,-0.43945 -1.348877,-0.73242 -0.793457,-0.29907 -1.623535,-0.29907 -0.292969,0 -0.585937,0.0427 -0.286866,0.0366 -0.55542,0.14648 -0.238037,0.0916 -0.408936,0.28077 -0.170898,0.1831 -0.170898,0.42114 0,0.36011 0.274658,0.55542 0.274658,0.18921 1.037598,0.3479 0.500488,0.10376 0.958252,0.20141 0.463867,0.0977 0.994873,0.26856 1.043701,0.3418 1.538086,0.93384 0.500488,0.58593 0.500488,1.52592 z m -8.929444,-3.36306 q 0,0.61035 -0.213623,1.19629 -0.213623,0.57983 -0.610351,0.97656 -0.543213,0.53711 -1.2146,0.81177 -0.665283,0.27464 -1.660156,0.27464 l -1.45874,0 0,2.9602 -2.34375,0 0,-9.08811 3.857422,0 q 0.866699,0 1.45874,0.15258 0.598144,0.14649 1.055908,0.44556 0.549316,0.36011 0.836182,0.92163 0.292968,0.56153 0.292968,1.34888 z m -2.423095,0.0549 q 0,-0.38452 -0.20752,-0.65918 -0.207519,-0.28076 -0.482177,-0.39062 -0.366211,-0.14649 -0.714112,-0.1587 -0.3479,-0.0183 -0.927734,-0.0183 l -0.402832,0 0,2.72217 0.671386,0 q 0.598145,0 0.982667,-0.0732 0.390625,-0.0732 0.653076,-0.29297 0.22583,-0.19531 0.323486,-0.46387 0.10376,-0.27465 0.10376,-0.66528 z m -7.171631,5.64576 q -0.610352,0.2381 -1.617432,0.4761 -1.00708,0.2319 -2.008056,0.2319 -2.319336,0 -3.631592,-1.2573 -1.312256,-1.2634 -1.312256,-3.4851 0,-2.11792 1.324463,-3.41187 1.324463,-1.30005 3.692627,-1.30005 0.897217,0 1.708984,0.1648 0.811768,0.15869 1.806641,0.64087 l 0,2.13013 -0.262451,0 q -0.170899,-0.12818 -0.500489,-0.36011 -0.329589,-0.23804 -0.634765,-0.40283 -0.354004,-0.19532 -0.830078,-0.3357 -0.469971,-0.14038 -1.000977,-0.14038 -0.622559,0 -1.12915,0.18311 -0.506592,0.1831 -0.909424,0.56152 -0.384522,0.36621 -0.610352,0.93384 -0.219726,0.56152 -0.219726,1.30005 0,1.50757 0.79956,2.30712 0.799561,0.7996 2.362061,0.7996 0.134277,0 0.292969,-0.01 0.164794,-0.01 0.299072,-0.018 l 0,-1.78227 -1.812744,0 0,-1.71509 4.193115,0 0,4.48606 z" />
    <path
       style="color:#000000;text-indent:0;text-transform:none;block-progression:tb;fill:#ff8400;fill-opacity:1;stroke:none;stroke-opacity:1"
       d="m 14.321863,992.15987 c -0.282123,0.008 -0.571955,0.12155 -0.779217,0.32885 l -1.921739,1.9217 c -0.414521,0.41445 -0.470808,1.168 0,1.5173 l 5.04682,3.74317 c 0.470809,0.34921 1.104448,0.41621 1.518973,0 l 0.738114,-0.73641 c 0.414644,-0.41462 0.359978,-1.05767 -0.0016,-1.51909 l -3.863195,-4.92843 c -0.1808,-0.23063 -0.455991,-0.33457 -0.738114,-0.32869 z m -0.01808,0.94521 c 0.03383,0 0.06653,0.0135 0.09206,0.0463 l 3.863183,4.92844 c 0.05095,0.0648 0.06018,0.13383 0.0016,0.19241 l -0.738124,0.73801 c -0.05853,0.0589 -0.124209,0.048 -0.190693,0 l -5.048452,-3.74484 c -0.06648,-0.0488 -0.05853,-0.13047 0,-0.18904 l 1.923382,-1.92338 c 0.02929,-0.0295 0.06319,-0.0446 0.09699,-0.0463 z m -4.3333486,4.80017 a 0.59220178,0.67303431 0 0 0 -0.417562,0.17272 c -3.749712,3.74973 -3.749712,9.97853 0,13.72833 3.7497386,3.7497 9.7486506,3.7478 13.4981636,0 a 0.59241287,0.67327421 0 1 0 -0.782501,-1.0111 c -3.273188,3.2733 -8.660174,3.2763 -11.933154,0.01 -3.2729906,-3.273 -3.2729906,-8.435 0,-11.70799 a 0.59220178,0.67303431 0 0 0 -0.3649466,-1.18368 z m 11.2920306,0.36336 c -0.308706,-1.7e-4 -0.617236,0.1159 -0.8499,0.34846 l -2.66314,2.66483 c -0.46534,0.4653 -0.46534,1.2344 0,1.6998 l 0.51126,0.5129 c 0.465339,0.4653 1.236104,0.4653 1.701443,0 l 2.664789,-2.6647 c 0.465339,-0.4654 0.463456,-1.23452 -0.0016,-1.69989 l -0.511262,-0.51294 c -0.232674,-0.23256 -0.542842,-0.34821 -0.851543,-0.34846 z m 0,0.9305 c 0.06616,0 0.132724,0.027 0.187406,0.0825 l 0.512898,0.51119 c 0.109358,0.10934 0.109369,0.2655 0,0.3749 l -2.664778,2.6631 c -0.109359,0.1093 -0.265458,0.111 -0.374812,0 l -0.511266,-0.5129 c -0.109347,-0.1093 -0.109107,-0.2654 0,-0.3747 l 2.66479,-2.66319 c 0.05468,-0.0547 0.119603,-0.0825 0.185762,-0.0825 z m -9.118781,0.82689 a 0.59220178,0.67303431 0 0 0 -0.358372,0.1742 c -2.5476396,2.5477 -2.5476826,6.8247 0,9.3719 2.547625,2.5477 6.596171,2.5475 9.143437,0 a 0.59238261,0.67323982 0 0 0 -0.782502,-1.011 c -2.070962,2.0711 -5.507533,2.0725 -7.578437,0 -2.07086,-2.0706 -2.070902,-5.2823 0,-7.3531 a 0.59220178,0.67303431 0 0 0 -0.364946,-1.1836 0.59220178,0.67303431 0 0 0 -0.05918,0 z m 10.905714,2.0023 c -0.270079,-0.01 -0.53414,0.084 -0.741406,0.2909 l -0.738114,0.7381 c -0.414521,0.4146 -0.347513,1.0465 0.0016,1.5174 l 3.744834,5.0484 c 0.34928,0.4708 1.101155,0.4146 1.515687,0 l 1.923376,-1.9234 c 0.414521,-0.4145 0.461408,-1.1541 0,-1.5156 l -4.928449,-3.8633 c -0.230706,-0.1807 -0.507492,-0.2855 -0.777572,-0.2925 z m -8.58451,0.2597 a 0.59220178,0.67303431 0 0 0 -0.417553,0.1743 c -1.297866,1.2978 -1.295678,3.5504 0.0016,4.8478 1.29738,1.2974 3.320309,1.2974 4.617753,0 a 0.59239041,0.6732487 0 1 0 -0.782503,-1.011 c -0.821251,0.8213 -2.229944,0.8212 -3.051103,0 -0.821039,-0.8211 -0.82391,-2.0051 -0.0032,-2.8258 a 0.59220178,0.67303431 0 0 0 -0.364945,-1.1853 z m 8.599306,0.6543 c 0.0325,0 0.06606,0.016 0.09863,0.041 l 4.930103,3.8631 c 0.06515,0.05 0.05853,0.1323 0,0.1908 l -1.923383,1.9217 c -0.05853,0.058 -0.141368,0.067 -0.190693,0 l -3.743191,-5.0468 c -0.04931,-0.067 -0.0603,-0.1338 -0.0016,-0.1923 l 0.738115,-0.7382 c 0.02924,-0.029 0.05959,-0.041 0.09206,-0.04 z"
       id="satellite"
       inkscape:connector-curvature="0"
       inkscape:label="#path3812" />
    <text
       inkscape:label="#text4207"
       sodipodi:linespacing="125%"
       id="gps0Status"
       y="1026.1394"
       x="5.1120281"
       style="font-style:normal;font-variant:normal;font-weight:bold;font-stretch:normal;font-size:10.625px;line-height:125%;font-family:Arial;-inkscape-font-specification:'Arial Bold';text-align:start;letter-spacing:0px;word-spacing:0px;text-anchor:start;fill:#3c3c3c;fill-opacity:1;stroke:none;stroke-width:1px;stroke-linecap:butt;stroke-linejoin:miter;stroke-opacity:1;"
       xml:space="preserve"><tspan
         style="font-style:normal;font-variant:normal;font-weight:bold;font-stretch:normal;font-size:10.625px;font-family:Arial;-inkscape-font-specification:'Arial Bold';text-align:start;text-anchor:start;fill:#3c3c3c;fill-opacity:1;"
         y="1026.1394"
         x="5.1120281"
         id="tspan4179"
         sodipodi:role="line">NoGPS</tspan></text>
    <text
       inkscape:label="#text4207"
       sodipodi:linespacing="125%"
       id="gps2Status"
       y="1045.5197"
       x="5.1718426"
       style="font-style:normal;font-variant:normal;font-weight:bold;font-stretch:normal;font-size:10.625px;line-height:125%;font-family:Arial;-inkscape-font-specification:'Arial Bold';text-align:start;letter-spacing:0px;word-spacing:0px;text-anchor:start;fill:#0024ff;fill-opacity:1;stroke:none;stroke-width:1px;stroke-linecap:butt;stroke-linejoin:miter;stroke-opacity:1;"
       xml:space="preserve"><tspan
         style="font-style:normal;font-variant:normal;font-weight:bold;font-stretch:normal;font-size:10.625px;font-family:Arial;-inkscape-font-specification:'Arial Bold';text-align:start;text-anchor:start;fill:#0024ff;fill-opacity:1;"
         y="1045.5197"
         x="5.1718426"
         id="tspan4149"
         sodipodi:role="line">12 sats SBAS</tspan></text>
  </g>
</svg>
