<?xml version="1.0" encoding="UTF-8" standalone="no"?>
<!-- Created with Inkscape (http://www.inkscape.org/) -->

<svg
   xmlns:dc="http://purl.org/dc/elements/1.1/"
   xmlns:cc="http://creativecommons.org/ns#"
   xmlns:rdf="http://www.w3.org/1999/02/22-rdf-syntax-ns#"
   xmlns:svg="http://www.w3.org/2000/svg"
   xmlns="http://www.w3.org/2000/svg"
   xmlns:sodipodi="http://sodipodi.sourceforge.net/DTD/sodipodi-0.dtd"
   xmlns:inkscape="http://www.inkscape.org/namespaces/inkscape"
   width="70"
   height="65"
   viewBox="0 0 70.000001 65"
   id="indicatorTravelHover"
   version="1.1"
   inkscape:version="0.91 r13725"
   sodipodi:docname="indicatorTravelHover.svg">
  <metadata
     id="metadata65">
    <rdf:RDF>
      <cc:Work
         rdf:about="">
        <dc:format>image/svg+xml</dc:format>
        <dc:type
           rdf:resource="http://purl.org/dc/dcmitype/StillImage" />
        <dc:title />
      </cc:Work>
    </rdf:RDF>
  </metadata>
  <defs
     id="defs5239">
    <clipPath
       clipPathUnits="userSpaceOnUse"
       id="clipPath4162">
      <path
         inkscape:connector-curvature="0"
         d="m 13.612786,994.93988 c -2.6947,0 -4.8769607,2.1822 -4.8769607,4.8769 l 0,18.59562 c -2.20909,1.5404 -3.6582,4.1043 -3.6582,7.002 0,4.7127 3.82242,8.5332 8.5351607,8.5332 4.71274,0 8.5332,-3.8205 8.5332,-8.5332 0,-2.8977 -1.44911,-5.4616 -3.6582,-7.002 l 0,-18.59562 c 0,-2.6947 -2.1803,-4.8769 -4.875,-4.8769 z m 0,1.2187 c 2.01804,0 3.65625,1.6402 3.65625,3.6582 l 0,19.23232 0.52148,0.3672 c 1.96232,1.3693 3.13672,3.6138 3.13672,6.002 -0.004,4.0281 -3.28235,7.3105 -7.31445,7.3105 -4.0321007,0 -7.3164107,-3.2783 -7.3164107,-7.3144 0,-2.3882 1.17042,-4.6347 3.13672,-6.0039 l 0.5214803,-0.3653 0,-19.22842 c 0,-2.018 1.6401704,-3.6582 3.6582104,-3.6582 z m 0,1.7481 c -0.96723,0 -1.76452,0.7517 -1.82422,1.707 l -0.004,0 0,21.27532 c -1.7871804,0.7244 -3.0488307,2.4756 -3.0488307,4.5215 0,2.6947 2.1822607,4.875 4.8769607,4.875 2.6947,0 4.875,-2.1803 4.875,-4.875 0,-2.0459 -1.26165,-3.7971 -3.04883,-4.5215 l 0,-21.27532 -0.004,0 c -0.0637,-0.9513 -0.85504,-1.707 -1.82226,-1.707 z"
         id="path4164" />
    </clipPath>
    <clipPath
       clipPathUnits="userSpaceOnUse"
       id="clipPath4166">
      <path
         inkscape:connector-curvature="0"
         d="m 13.612786,994.93988 c -2.6947,0 -4.8769607,2.1822 -4.8769607,4.8769 l 0,18.59562 c -2.20909,1.5404 -3.6582,4.1043 -3.6582,7.002 0,4.7127 3.82242,8.5332 8.5351607,8.5332 4.71274,0 8.5332,-3.8205 8.5332,-8.5332 0,-2.8977 -1.44911,-5.4616 -3.6582,-7.002 l 0,-18.59562 c 0,-2.6947 -2.1803,-4.8769 -4.875,-4.8769 z m 0,1.2187 c 2.01804,0 3.65625,1.6402 3.65625,3.6582 l 0,19.23232 0.52148,0.3672 c 1.96232,1.3693 3.13672,3.6138 3.13672,6.002 -0.004,4.0281 -3.28235,7.3105 -7.31445,7.3105 -4.0321007,0 -7.3164107,-3.2783 -7.3164107,-7.3144 0,-2.3882 1.17042,-4.6347 3.13672,-6.0039 l 0.5214803,-0.3653 0,-19.22842 c 0,-2.018 1.6401704,-3.6582 3.6582104,-3.6582 z m 0,1.7481 c -0.96723,0 -1.76452,0.7517 -1.82422,1.707 l -0.004,0 0,21.27532 c -1.7871804,0.7244 -3.0488307,2.4756 -3.0488307,4.5215 0,2.6947 2.1822607,4.875 4.8769607,4.875 2.6947,0 4.875,-2.1803 4.875,-4.875 0,-2.0459 -1.26165,-3.7971 -3.04883,-4.5215 l 0,-21.27532 -0.004,0 c -0.0637,-0.9513 -0.85504,-1.707 -1.82226,-1.707 z"
         id="path4168" />
    </clipPath>
    <filter
       inkscape:collect="always"
       style="color-interpolation-filters:sRGB"
       id="filter4947"
       x="-0.3696"
       width="1.7392"
       y="-0.3696"
       height="1.7392">
      <feGaussianBlur
         inkscape:collect="always"
         stdDeviation="1.9093848"
         id="feGaussianBlur4949" />
    </filter>
  </defs>
  <sodipodi:namedview
     id="base"
     pagecolor="#2e2824"
     bordercolor="#666666"
     borderopacity="1.0"
     inkscape:pageopacity="1"
     inkscape:pageshadow="2"
     inkscape:zoom="11.313709"
     inkscape:cx="14.890407"
     inkscape:cy="36.862674"
     inkscape:document-units="px"
     inkscape:current-layer="layer1"
     showgrid="false"
     units="px"
     inkscape:window-width="1920"
     inkscape:window-height="1017"
     inkscape:window-x="-8"
     inkscape:window-y="-8"
     inkscape:window-maximized="1" />
  <g
     inkscape:label="Layer 1"
     inkscape:groupmode="layer"
     id="layer1"
     transform="translate(0,-987.36216)">
    <rect
       ry="7.2063847"
       y="989.14124"
       x="1.7790799"
       height="61.441841"
       width="66.441841"
       id="frame"
       style="opacity:1;fill:#110e0c;fill-opacity:1;stroke:#ff0000;stroke-width:3.55815983;stroke-linecap:round;stroke-miterlimit:4;stroke-dasharray:none;stroke-dashoffset:0;stroke-opacity:1"
       inkscape:label="#rect4655" />
    <g
       id="sitting"
       inkscape:label="#g4152"
       transform="translate(0.21842103,-0.76930544)">
      <path
         inkscape:label="#path4167"
         sodipodi:nodetypes="ccccccccccssccsscccccccscccccccccc"
         inkscape:connector-curvature="0"
         id="sss"
         d="m 55.72035,1005.693 c -2.5583,-9e-4 -4.63271,2.16 -4.632812,4.8261 1.02e-4,2.6661 2.074512,4.8271 4.632812,4.8262 2.557538,-2e-4 4.630758,-2.1608 4.63086,-4.8262 -1.02e-4,-2.6653 -2.073322,-4.8259 -4.63086,-4.8261 z m -14.001953,0.3535 c 0.75692,4.0619 0.34869,6.0023 2.47059,10.0642 -3.69162,2.7291 -6.830411,3.9824 -10.181527,9.4143 l -8.886719,-6.7891 c -0.07434,-0.057 -0.155651,-0.099 -0.232422,-0.1504 -0.22326,-0.2729 -0.480276,-0.5241 -0.794922,-0.7246 -1.587172,-1.0115 -3.684137,-0.5504 -4.701172,1.0332 l -6.447265,10.0391 -1.30155,1.4259 c -1.8354028,0.01 -8.4155538,-6.464 -5.2043098,1.912 0.657046,1.7137 1.529832,3.3058 3.365235,3.2988 l 24.8671868,-0.096 c 6.569283,-0.032 6.57423,-7.0564 18.115386,-11.8244 4.190091,-0.5854 8.093814,-0.6859 11.20688,-3.285 l -3.591797,-5.8476 c -0.784986,0.9988 -1.845006,1.7227 -3.03711,2.0742 l 1.148438,2.5371 -4.390625,0.3144 c -0.116034,-0.3092 -0.256807,-0.6206 -0.4375,-0.9336 -0.970589,-1.6811 -2.63404,-2.8479 -4.226563,-2.957 l -2.082031,-4.0253 2.373047,0.053 c -0.05725,-0.3504 -0.08599,-0.7052 -0.08594,-1.0606 0.0019,-1.1658 0.313522,-2.3083 0.90039,-3.3008 z m -18.796875,19.9257 3.121094,2.9102 -6.592943,0.019 z"
         style="opacity:1;fill:#554400;fill-opacity:1;stroke:none;stroke-width:1.07500005;stroke-linecap:round;stroke-miterlimit:4;stroke-dasharray:none;stroke-dashoffset:0;stroke-opacity:1" />
    </g>
    <g
       id="moving"
       inkscape:label="#g4153">
      <path
         inkscape:label="#path4267"
         sodipodi:nodetypes="cccccccccscccsssscsczcsccsssss"
         inkscape:connector-curvature="0"
         d="m 24.540155,1030.4125 -15.379575,0 m 6.18719,-9.546 17.324113,0 m -5.480077,-9.1924 -17.324116,0 m 14.849242,-7.7781 17.324116,0 m -9.976375,9.468 c 5.0625,-8.1875 11.676152,-6.1938 16.433058,-3.4558 5.545495,3.1919 8.130481,2.5425 10.84283,-1.1635 5.021132,2.5001 -3.608422,9.7446 -9.691942,5.9533 l -4.088388,7.9602 c 0,0 4.375,2.5625 5.4375,3.9375 1.0625,1.375 2.190421,8.3594 3.5625,8.625 7.75,1.5 -1.3125,5 -2.625,2.0625 -1.3125,-2.9375 -2.67659,-6.0692 -3.375,-7.1875 -1.036612,-1.6598 -7.5625,-4.3964 -7.5625,-4.3964 0,0 -1.773277,1.9793 -3.6875,2.8339 -3.5,1.5625 -7.612976,-0.125 -7.612976,-0.125 -2.062708,5.5455 -2.749366,1.2401 -2.883883,-1.7202 -0.134517,-2.9603 3.996859,-1.1548 5.434359,-1.2173 1.4375,-0.062 4.375,-1.625 5.625,-3.75 1.25,-2.125 5.1875,-9.5625 5.1875,-9.5625 -7.771737,-3.6383 -6.695398,5.814 -10.995558,1.2058 z m 22.726722,-8.0496 c -9e-6,2.216 -1.796425,4.0124 -4.012415,4.0124 -2.21599,0 -4.012406,-1.7964 -4.012415,-4.0124 9e-6,-2.216 1.796425,-4.0124 4.012415,-4.0124 2.21599,0 4.012406,1.7964 4.012415,4.0124 z"
         style="fill:#554400;fill-opacity:1;fill-rule:evenodd;stroke:#554400;stroke-width:1px;stroke-linecap:round;stroke-linejoin:miter;stroke-opacity:1"
         id="mmm" />
    </g>
    <g
       id="flying"
       inkscape:label="#g4149"
       transform="translate(0.06949502,0.02910695)">
      <path
         inkscape:label="#path4312"
         sodipodi:nodetypes="cccccccccccccccccccccccccccccccccccccsccccccccccccc"
         inkscape:connector-curvature="0"
         d="m 48.11329,1036.5716 c -8.154704,-1.6221 -12.621069,4.6457 -4.689915,5.5801 0.35579,3.5262 10.082333,4.7362 10.750105,0.436 9.040786,0.6674 13.108374,-4.185 2.75391,-4.7087 0.314877,-5.0017 -7.856866,-4.8232 -8.8141,-1.3074 z m -1.794752,-37.29351 c -11.760429,0.85571 -4.161464,7.64121 2.1543,5.68571 8.661553,6.6092 24.067322,-3.303 8.50586,-3.9512 3.633321,-4.06471 -9.814632,-6.70771 -10.66016,-1.73451 z m -23.956288,38.76521 -9.457551,0 m 11.048541,-5.7453 -7.954951,0 m 8.927221,-27.312 -8.485281,0 m 5.39169,-5.65691 -8.83883,0 m 50.949381,20.50661 c 8.4e-4,-0.3624 -0.21143,-0.6963 -0.55329,-0.8702 0.0543,-0.3658 0.0831,-0.7832 0.0833,-1.2087 -3e-5,-1.3113 -0.26578,-2.3743 -0.59361,-2.3743 -0.32782,10e-5 -0.59356,1.063 -0.59359,2.3743 4e-5,0.4264 0.0288,0.8448 0.0832,1.2114 -0.34094,0.1734 -0.55307,0.506 -0.55329,0.8675 1.8e-4,0.3615 0.21231,0.6942 0.55329,0.8676 -0.0543,0.3658 -0.083,0.7832 -0.0832,1.2086 1e-5,1.3113 0.26576,2.3743 0.59359,2.3744 0.32784,0 0.5936,-1.0631 0.59361,-2.3744 -8e-5,-0.4264 -0.0289,-0.8448 -0.0833,-1.2113 0.34007,-0.173 0.55205,-0.5044 0.55329,-0.8649 z m -2.34748,-0.1746 c -0.0258,-1.2886 -1.77665,-2.6142 -6.80878,-3.36 -1.11978,-0.166 -7.89336,-0.9526 -10.61204,-1.0368 -4.21292,-5.124 -10.49524,-17.90121 -16.10203,-20.69231 -3.08444,-1.2808 -6.01913,-0.2874 -6.01913,-0.2874 3.41567,6.99321 6.82665,13.98871 10.24138,20.98241 -6.62564,0.94 -11.956561,1.7854 -17.611521,2.5059 0,0 -4.16154,-6.1469 -5.19186,-6.7631 -1.03033,-0.6162 -3.42991,-0.3868 -3.42991,-0.3868 l 2.40926,9.1993 -2.40926,9.1965 c 0,0 2.39958,0.2294 3.42991,-0.3867 1.03032,-0.6162 5.19188,-6.7632 5.19186,-6.7632 5.65497,0.7206 10.985881,1.5659 17.611521,2.506 -3.30596,7.0212 -6.61307,14.0418 -9.91906,21.0629 0,0 2.61237,0.9129 5.69681,-0.3679 6.87773,-6.364 10.63356,-13.0491 16.10203,-20.6923 2.88412,-0.084 9.49226,-0.8708 10.61204,-1.0368 5.03213,-0.7459 6.78275,-2.0714 6.80878,-3.36 0,-0.053 -0.004,-0.1054 -0.008,-0.1585 0.005,-0.053 0.01,-0.108 0.008,-0.1612 z"
         style="opacity:1;fill:#554400;fill-opacity:1;stroke:#554400;stroke-width:1.07500005;stroke-linecap:round;stroke-miterlimit:4;stroke-dasharray:none;stroke-dashoffset:0;stroke-opacity:1"
         id="ppp" />
    </g>
    <g
       id="hovering"
       inkscape:label="#g4193"
       transform="translate(8.4151367e-8,1.7361258e-5)">
      <path
         inkscape:connector-curvature="0"
         id="airplane-5-2"
         d="m 63.940684,1019.8626 a 1.0635704,0.9893677 0 0 0 -0.55329,-0.8702 0.59362067,2.3744827 0 0 0 0.0833,-1.2087 0.59362067,2.3744827 0 0 0 -0.59361,-2.3743 0.59362067,2.3744827 0 0 0 -0.59359,2.3743 0.59362067,2.3744827 0 0 0 0.0832,1.2114 1.0635704,0.9893677 0 0 0 -0.55329,0.8675 1.0635704,0.9893677 0 0 0 0.55329,0.8676 0.59362067,2.3744827 0 0 0 -0.0832,1.2086 0.59362067,2.3744827 0 0 0 0.59359,2.3744 0.59362067,2.3744827 0 0 0 0.59361,-2.3744 0.59362067,2.3744827 0 0 0 -0.0833,-1.2113 1.0635704,0.9893677 0 0 0 0.55329,-0.8649 z m -2.34748,-0.1746 c -0.0258,-1.2886 -1.77665,-2.6142 -6.80878,-3.36 -1.11978,-0.166 -7.89336,-0.9526 -10.61204,-1.0368 -0.42124,-0.6489 -2.17204,-3.222 -4.23299,-6.1749 l 3.03507,0 c 0.40512,3.0641 3.00754,5.447 6.18029,5.447 3.45239,0 6.26355,-2.8111 6.26355,-6.2635 0,-3.4524 -2.81116,-6.2609 -6.26355,-6.2609 -3.17332,0 -5.7759,2.3797 -6.18029,5.4443 l -4.19002,0 c -3.95629,-5.5897 -8.82488,-12.09976 -10.71409,-12.88427 -3.08444,-1.28084 -6.01913,-0.2874 -6.01913,-0.2874 l 6.43008,13.17167 -2.97063,0 c -0.40474,-3.0645 -3.00701,-5.4443 -6.18028,-5.4443 -3.45241,0 -6.26086,2.8085 -6.26085,6.2609 0,3.4524 2.80842,6.2635 6.26085,6.2635 3.17269,0 5.7748,-2.3829 6.18028,-5.447 l 3.76565,0 3.01628,6.1776 c -6.62564,0.94 -11.95656,1.7854 -17.61152,2.5059 0,0 -4.16154,-6.1469 -5.1918598,-6.7631 -1.0303299,-0.6162 -3.4299099,-0.3868 -3.4299099,-0.3868 l 2.40926,9.1993 -2.40926,9.1965 c 0,0 2.39958,0.2294 3.4299099,-0.3867 1.0303198,-0.6162 5.1918798,-6.7632 5.1918598,-6.7632 5.65497,0.7206 10.98588,1.5659 17.61152,2.506 l -2.91959,6.2018 -3.86234,0 c -0.40473,-3.0646 -3.00701,-5.4444 -6.18028,-5.4444 -3.45241,0 -6.26086,2.8085 -6.26085,6.2609 0,3.4524 2.80842,6.2635 6.26085,6.2635 3.17269,0 5.7748,-2.3829 6.18028,-5.447 l 3.09149,0 -6.22862,13.2281 c 0,0 2.61237,0.9129 5.69681,-0.3679 1.89061,-0.7851 6.698,-7.2744 10.64158,-12.8602 l 4.26253,0 c 0.40512,3.0642 3.00754,5.447 6.18029,5.447 3.45239,0 6.26355,-2.8111 6.26355,-6.2635 0,-3.4524 -2.81116,-6.2609 -6.26355,-6.2609 -3.17332,0 -5.7759,2.3798 -6.18029,5.4444 l -3.11028,0 c 2.05666,-2.9473 3.81894,-5.5194 4.3082,-6.1991 2.88412,-0.084 9.49226,-0.8708 10.61204,-1.0368 5.03213,-0.7459 6.78275,-2.0714 6.80878,-3.36 0,-0.053 -0.004,-0.1054 -0.008,-0.1585 0.005,-0.053 0.01,-0.108 0.008,-0.1612 z m -7.27345,-11.3882 c 0,2.8578 -2.30717,5.1623 -5.165,5.1623 -2.85788,0 -5.16233,-2.3045 -5.16233,-5.1623 0,-2.8579 2.30445,-5.1624 5.16233,-5.1624 2.85783,0 5.165,2.3045 5.165,5.1624 z m 0,23.1203 c 0,2.8579 -2.30717,5.1623 -5.165,5.1623 -2.85788,0 -5.16233,-2.3044 -5.16233,-5.1623 0,-2.8579 2.30445,-5.1623 5.16233,-5.1623 2.85783,0 5.165,2.3044 5.165,5.1623 z m -4.10138,-23.1176 a 1.0635704,0.9893677 0 0 0 -0.55329,-0.8703 0.59362067,2.3744827 0 0 0 0.0833,-1.2086 0.59362067,2.3744827 0 0 0 -0.59359,-2.3744 0.59362067,2.3744827 0 0 0 -0.59359,2.3744 0.59362067,2.3744827 0 0 0 0.0833,1.2113 1.0635704,0.9893677 0 0 0 -0.55331,0.8676 1.0635704,0.9893677 0 0 0 0.55331,0.8675 0.59362067,2.3744827 0 0 0 -0.0833,1.2087 0.59362067,2.3744827 0 0 0 0.59359,2.3743 0.59362067,2.3744827 0 0 0 0.59359,-2.3743 0.59362067,2.3744827 0 0 0 -0.0833,-1.2114 1.0635704,0.9893677 0 0 0 0.55329,-0.8648 z m 0,23.1203 a 1.0635704,0.9893677 0 0 0 -0.55329,-0.8702 0.59362067,2.3744827 0 0 0 0.0833,-1.2087 0.59362067,2.3744827 0 0 0 -0.59359,-2.3744 0.59362067,2.3744827 0 0 0 -0.59359,2.3744 0.59362067,2.3744827 0 0 0 0.0833,1.2113 1.0635704,0.9893677 0 0 0 -0.55331,0.8676 1.0635704,0.9893677 0 0 0 0.55331,0.8675 0.59362067,2.3744827 0 0 0 -0.0833,1.2087 0.59362067,2.3744827 0 0 0 0.59359,2.3743 0.59362067,2.3744827 0 0 0 0.59359,-2.3743 0.59362067,2.3744827 0 0 0 -0.0833,-1.2114 1.0635704,0.9893677 0 0 0 0.55329,-0.8648 z m -25.72297,-23.123 c 0,2.8578 -2.30718,5.1623 -5.16501,5.1623 -2.85787,0 -5.16232,-2.3045 -5.16232,-5.1623 0,-2.8579 2.30445,-5.1624 5.16232,-5.1624 2.85783,0 5.16501,2.3045 5.16501,5.1624 z m 0,23.1203 c 0,2.8579 -2.30718,5.1623 -5.16501,5.1623 -2.85787,0 -5.16232,-2.3044 -5.16232,-5.1623 0,-2.8579 2.30445,-5.1623 5.16232,-5.1623 2.85783,0 5.16501,2.3044 5.16501,5.1623 z m -4.10138,-23.1176 a 1.0635704,0.9893677 0 0 0 -0.55331,-0.8703 0.59362067,2.3744827 0 0 0 0.0833,-1.2086 0.59362067,2.3744827 0 0 0 -0.59358,-2.3744 0.59362067,2.3744827 0 0 0 -0.59358,2.3744 0.59362067,2.3744827 0 0 0 0.0833,1.2113 1.0635704,0.9893677 0 0 0 -0.5533,0.8676 1.0635704,0.9893677 0 0 0 0.5533,0.8675 0.59362067,2.3744827 0 0 0 -0.0833,1.2087 0.59362067,2.3744827 0 0 0 0.59358,2.3743 0.59362067,2.3744827 0 0 0 0.59358,-2.3743 0.59362067,2.3744827 0 0 0 -0.0833,-1.2114 1.0635704,0.9893677 0 0 0 0.55331,-0.8648 z m 0,23.1203 a 1.0635704,0.9893677 0 0 0 -0.55331,-0.8702 0.59362067,2.3744827 0 0 0 0.0833,-1.2087 0.59362067,2.3744827 0 0 0 -0.59358,-2.3744 0.59362067,2.3744827 0 0 0 -0.59358,2.3744 0.59362067,2.3744827 0 0 0 0.0833,1.2113 1.0635704,0.9893677 0 0 0 -0.5533,0.8676 1.0635704,0.9893677 0 0 0 0.5533,0.8675 0.59362067,2.3744827 0 0 0 -0.0833,1.2087 0.59362067,2.3744827 0 0 0 0.59358,2.3743 0.59362067,2.3744827 0 0 0 0.59358,-2.3743 0.59362067,2.3744827 0 0 0 -0.0833,-1.2114 1.0635704,0.9893677 0 0 0 0.55331,-0.8648 z"
         style="opacity:1;fill:#554400;fill-opacity:1;fill-rule:evenodd;stroke:none;stroke-width:10;stroke-linecap:butt;stroke-linejoin:miter;stroke-miterlimit:4;stroke-dasharray:none;stroke-opacity:1" />
      <circle
         inkscape:label="#circle4165"
         style="opacity:0.744;fill:#ff6d00;fill-opacity:1;stroke:none;stroke-width:0.80000001;stroke-linecap:round;stroke-miterlimit:4;stroke-dasharray:none;stroke-dashoffset:0;stroke-opacity:1;filter:url(#filter4947)"
         id="frontRight"
         cx="48.946659"
         cy="1031.2786"
         r="6.1993012" />
      <circle
         inkscape:label="#circle4167"
         style="opacity:0.744;fill:#0024ff;fill-opacity:1;stroke:none;stroke-width:0.80000001;stroke-linecap:round;stroke-miterlimit:4;stroke-dasharray:none;stroke-dashoffset:0;stroke-opacity:1;filter:url(#filter4947)"
         id="backLeft"
         cx="19.071398"
         cy="1008.4744"
         r="6.1993012" />
      <circle
         inkscape:label="#circle4169"
         r="6.1993012"
         cy="1031.2786"
         cx="19.071398"
         id="backRight"
         style="opacity:0.744;fill:#c000ff;fill-opacity:1;stroke:none;stroke-width:0.80000001;stroke-linecap:round;stroke-miterlimit:4;stroke-dasharray:none;stroke-dashoffset:0;stroke-opacity:1;filter:url(#filter4947)" />
      <circle
         inkscape:label="#path4882"
         r="6.1993012"
         cy="1008.4744"
         cx="48.946659"
         id="frontLeft"
         style="opacity:0.744;fill:#808080;fill-opacity:1;stroke:none;stroke-width:0.80000001;stroke-linecap:round;stroke-miterlimit:4;stroke-dasharray:none;stroke-dashoffset:0;stroke-opacity:1;filter:url(#filter4947)" />
    </g>
  </g>
</svg>
