<?xml version="1.0" encoding="UTF-8" standalone="no"?>
<!-- Created with Inkscape (http://www.inkscape.org/) -->

<svg
   xmlns:dc="http://purl.org/dc/elements/1.1/"
   xmlns:cc="http://creativecommons.org/ns#"
   xmlns:rdf="http://www.w3.org/1999/02/22-rdf-syntax-ns#"
   xmlns:svg="http://www.w3.org/2000/svg"
   xmlns="http://www.w3.org/2000/svg"
   xmlns:sodipodi="http://sodipodi.sourceforge.net/DTD/sodipodi-0.dtd"
   xmlns:inkscape="http://www.inkscape.org/namespaces/inkscape"
   width="50"
   height="65"
   viewBox="0 0 50.000001 65"
   id="indicatorHotnose"
   version="1.1"
   inkscape:version="0.91 r13725"
   sodipodi:docname="indicatorHotnose.svg">
  <metadata
     id="metadata65">
    <rdf:RDF>
      <cc:Work
         rdf:about="">
        <dc:format>image/svg+xml</dc:format>
        <dc:type
           rdf:resource="http://purl.org/dc/dcmitype/StillImage" />
      </cc:Work>
    </rdf:RDF>
  </metadata>
  <defs
     id="defs5239">
    <clipPath
       clipPathUnits="userSpaceOnUse"
       id="clipPath4162">
      <path
         inkscape:connector-curvature="0"
         d="m 13.612786,994.93988 c -2.6947,0 -4.8769607,2.1822 -4.8769607,4.8769 l 0,18.59562 c -2.20909,1.5404 -3.6582,4.1043 -3.6582,7.002 0,4.7127 3.82242,8.5332 8.5351607,8.5332 4.71274,0 8.5332,-3.8205 8.5332,-8.5332 0,-2.8977 -1.44911,-5.4616 -3.6582,-7.002 l 0,-18.59562 c 0,-2.6947 -2.1803,-4.8769 -4.875,-4.8769 z m 0,1.2187 c 2.01804,0 3.65625,1.6402 3.65625,3.6582 l 0,19.23232 0.52148,0.3672 c 1.96232,1.3693 3.13672,3.6138 3.13672,6.002 -0.004,4.0281 -3.28235,7.3105 -7.31445,7.3105 -4.0321007,0 -7.3164107,-3.2783 -7.3164107,-7.3144 0,-2.3882 1.17042,-4.6347 3.13672,-6.0039 l 0.5214803,-0.3653 0,-19.22842 c 0,-2.018 1.6401704,-3.6582 3.6582104,-3.6582 z m 0,1.7481 c -0.96723,0 -1.76452,0.7517 -1.82422,1.707 l -0.004,0 0,21.27532 c -1.7871804,0.7244 -3.0488307,2.4756 -3.0488307,4.5215 0,2.6947 2.1822607,4.875 4.8769607,4.875 2.6947,0 4.875,-2.1803 4.875,-4.875 0,-2.0459 -1.26165,-3.7971 -3.04883,-4.5215 l 0,-21.27532 -0.004,0 c -0.0637,-0.9513 -0.85504,-1.707 -1.82226,-1.707 z"
         id="path4164" />
    </clipPath>
    <clipPath
       clipPathUnits="userSpaceOnUse"
       id="clipPath4166">
      <path
         inkscape:connector-curvature="0"
         d="m 13.612786,994.93988 c -2.6947,0 -4.8769607,2.1822 -4.8769607,4.8769 l 0,18.59562 c -2.20909,1.5404 -3.6582,4.1043 -3.6582,7.002 0,4.7127 3.82242,8.5332 8.5351607,8.5332 4.71274,0 8.5332,-3.8205 8.5332,-8.5332 0,-2.8977 -1.44911,-5.4616 -3.6582,-7.002 l 0,-18.59562 c 0,-2.6947 -2.1803,-4.8769 -4.875,-4.8769 z m 0,1.2187 c 2.01804,0 3.65625,1.6402 3.65625,3.6582 l 0,19.23232 0.52148,0.3672 c 1.96232,1.3693 3.13672,3.6138 3.13672,6.002 -0.004,4.0281 -3.28235,7.3105 -7.31445,7.3105 -4.0321007,0 -7.3164107,-3.2783 -7.3164107,-7.3144 0,-2.3882 1.17042,-4.6347 3.13672,-6.0039 l 0.5214803,-0.3653 0,-19.22842 c 0,-2.018 1.6401704,-3.6582 3.6582104,-3.6582 z m 0,1.7481 c -0.96723,0 -1.76452,0.7517 -1.82422,1.707 l -0.004,0 0,21.27532 c -1.7871804,0.7244 -3.0488307,2.4756 -3.0488307,4.5215 0,2.6947 2.1822607,4.875 4.8769607,4.875 2.6947,0 4.875,-2.1803 4.875,-4.875 0,-2.0459 -1.26165,-3.7971 -3.04883,-4.5215 l 0,-21.27532 -0.004,0 c -0.0637,-0.9513 -0.85504,-1.707 -1.82226,-1.707 z"
         id="path4168" />
    </clipPath>
  </defs>
  <sodipodi:namedview
     id="base"
     pagecolor="#2e2824"
     bordercolor="#666666"
     borderopacity="1.0"
     inkscape:pageopacity="1"
     inkscape:pageshadow="2"
     inkscape:zoom="5.6568543"
     inkscape:cx="-67.585121"
     inkscape:cy="9.7700577"
     inkscape:document-units="px"
     inkscape:current-layer="layer1"
     showgrid="false"
     units="px"
     inkscape:window-width="1920"
     inkscape:window-height="1017"
     inkscape:window-x="-8"
     inkscape:window-y="-8"
     inkscape:window-maximized="1" />
  <g
     inkscape:label="Layer 1"
     inkscape:groupmode="layer"
     id="layer1"
     transform="translate(0,-987.36216)">
    <rect
       ry="7.271162"
       y="988.86511"
       x="1.5029331"
       height="61.994133"
       width="46.994137"
       id="frame"
       style="opacity:1;fill:#110e0c;fill-opacity:1;stroke:#ff0000;stroke-width:3.00586629;stroke-linecap:round;stroke-miterlimit:4;stroke-dasharray:none;stroke-dashoffset:0;stroke-opacity:1"
       inkscape:label="#rect4655" />
    <rect
       inkscape:label="#rect6064-0-3"
       style="opacity:1;fill:#554400;fill-opacity:1;stroke:none;stroke-width:1;stroke-linecap:round;stroke-miterlimit:4;stroke-dasharray:none;stroke-dashoffset:0;stroke-opacity:1"
       id="fullBar"
       width="17"
       height="39"
       x="4.8879919"
       y="994.94757"
       ry="0"
       clip-path="url(#clipPath4166)" />
    <rect
       inkscape:label="#rect6052-6-9"
       ry="0"
       y="1020.3076"
       x="4.4896469"
       height="13.258547"
       width="18.236706"
       id="ratioBar"
       style="opacity:1;fill:#126612;fill-opacity:1;stroke:#072707;stroke-width:0.76329368;stroke-linecap:round;stroke-miterlimit:4;stroke-dasharray:none;stroke-dashoffset:0;stroke-opacity:1"
       clip-path="url(#clipPath4162)" />
    <text
       xml:space="preserve"
       style="font-style:normal;font-weight:normal;font-size:15px;line-height:125%;font-family:sans-serif;text-align:center;letter-spacing:0px;word-spacing:0px;text-anchor:middle;fill:#126612;fill-opacity:1;stroke:none;stroke-width:1px;stroke-linecap:butt;stroke-linejoin:miter;stroke-opacity:1"
       x="25.033571"
       y="1046.5161"
       id="valueText"
       sodipodi:linespacing="125%"
       inkscape:label="#text4207"><tspan
         sodipodi:role="line"
         id="tspan4209"
         x="25.033571"
         y="1046.5161"
         style="font-style:normal;font-variant:normal;font-weight:bold;font-stretch:normal;font-size:12.5px;font-family:sans-serif;-inkscape-font-specification:'sans-serif Bold';text-align:center;text-anchor:middle;fill:#126612;fill-opacity:1">48°C</tspan></text>
    <path
       id="path4163"
       style="font-style:normal;font-variant:normal;font-weight:bold;font-stretch:normal;font-size:10.99886417px;line-height:94.99999881%;font-family:sans-serif;-inkscape-font-specification:'sans-serif Bold';text-align:center;letter-spacing:0px;word-spacing:0px;text-anchor:middle;fill:#524200;fill-opacity:1;stroke:none;stroke-width:1px;stroke-linecap:butt;stroke-linejoin:miter;stroke-opacity:1"
       d="m 43.038511,1010.8283 q 0,0.9345 -0.837804,1.5092 -0.837805,0.5692 -2.293221,0.5692 -0.805581,0 -1.460786,-0.1503 -0.655206,-0.1504 -1.052626,-0.333 l 0,-1.5897 0.177228,0 q 0.145004,0.102 0.332973,0.2256 0.19334,0.1181 0.542425,0.2577 0.30075,0.1236 0.682058,0.2149 0.381308,0.086 0.816322,0.086 0.569277,0 0.843175,-0.1235 0.273897,-0.1289 0.273897,-0.376 0,-0.2202 -0.161116,-0.3168 -0.161116,-0.1021 -0.612241,-0.1934 -0.214822,-0.048 -0.585389,-0.102 -0.365197,-0.059 -0.665947,-0.1396 -0.821693,-0.2149 -1.219112,-0.666 -0.39742,-0.4565 -0.39742,-1.1332 0,-0.87 0.821692,-1.4446 0.827063,-0.5801 2.255627,-0.5801 0.676688,0 1.2943,0.1397 0.622982,0.1342 0.972067,0.29 l 0,1.5252 -0.166487,0 q -0.429643,-0.2954 -0.982808,-0.478 -0.547795,-0.1879 -1.111702,-0.1879 -0.467237,0 -0.789469,0.1289 -0.316862,0.1289 -0.316862,0.3652 0,0.2148 0.145005,0.3276 0.145004,0.1127 0.682058,0.2255 0.29538,0.059 0.633724,0.1182 0.343714,0.054 0.687429,0.1396 0.762616,0.1987 1.127813,0.6284 0.365197,0.4242 0.365197,1.0633 z m -6.637988,-1.1009 q 0,1.4876 -0.870027,2.3469 -0.864657,0.8539 -2.432854,0.8539 -1.568198,0 -2.438225,-0.8539 -0.864657,-0.8593 -0.864657,-2.3469 0,-1.4984 0.870028,-2.3523 0.875398,-0.8539 2.432854,-0.8539 1.578938,0 2.438225,0.8592 0.864656,0.8593 0.864656,2.347 z m -2.379148,1.4661 q 0.187968,-0.2309 0.279268,-0.5531 0.09667,-0.3276 0.09667,-0.9023 0,-0.5317 -0.09667,-0.8915 -0.09667,-0.3598 -0.268527,-0.5746 -0.171858,-0.2202 -0.413532,-0.3115 -0.241674,-0.091 -0.520942,-0.091 -0.279268,0 -0.49946,0.075 -0.214822,0.075 -0.413532,0.3007 -0.177228,0.2095 -0.284638,0.5746 -0.102041,0.3652 -0.102041,0.9184 0,0.4941 0.0913,0.8593 0.0913,0.3598 0.268527,0.58 0.171857,0.2095 0.408161,0.3061 0.241674,0.097 0.547795,0.097 0.263156,0 0.49946,-0.086 0.241674,-0.091 0.408161,-0.3008 z m -5.730365,1.5467 -1.9871,0 -3.39418,-5.4886 0,5.4886 -1.89043,0 0,-7.9967 2.465077,0 2.916203,4.5811 0,-4.5811 1.89043,0 0,7.9967 z m 14.070813,-10.5026 q -0.311491,0.081 -0.660576,0.1235 -0.349085,0.048 -0.853916,0.048 -1.127813,0 -1.680979,-0.4565 -0.547795,-0.4565 -0.547795,-1.5629 l 0,-2.81948 -0.79484,0 0,-1.31041 0.79484,0 0,-1.72395 1.933394,0 0,1.72395 1.809872,0 0,1.31041 -1.809872,0 0,2.13747 q 0,0.31691 0.0054,0.55321 0.0054,0.2363 0.08593,0.4242 0.07519,0.188 0.263156,0.3008 0.193339,0.1074 0.558536,0.1074 0.150375,0 0.392049,-0.065 0.247045,-0.064 0.343715,-0.1181 l 0.161116,0 0,1.3265 z m -5.252388,-2.95915 q 0,1.48765 -0.870027,2.34695 -0.864657,0.8539 -2.432855,0.8539 -1.568197,0 -2.438224,-0.8539 -0.864657,-0.8593 -0.864657,-2.34695 0,-1.49838 0.870027,-2.3523 0.875398,-0.85391 2.432854,-0.85391 1.578939,0 2.438225,0.85928 0.864657,0.85929 0.864657,2.34693 z m -2.379149,1.46615 q 0.187969,-0.2309 0.279268,-0.5532 0.09667,-0.32756 0.09667,-0.90221 0,-0.53168 -0.09667,-0.89151 -0.09667,-0.35983 -0.268527,-0.57465 -0.171857,-0.22019 -0.413531,-0.31149 -0.241675,-0.0913 -0.520943,-0.0913 -0.279268,0 -0.49946,0.0752 -0.214821,0.0752 -0.413531,0.30075 -0.177228,0.20945 -0.284639,0.57465 -0.10204,0.36519 -0.10204,0.91836 0,0.49409 0.0913,0.8593 0.0913,0.3598 0.268527,0.58 0.171857,0.2094 0.408161,0.3061 0.241674,0.097 0.547795,0.097 0.263156,0 0.49946,-0.086 0.241674,-0.091 0.408161,-0.3008 z m -5.724995,1.5467 -2.062287,0 0,-3.52305 -3.045095,0 0,3.52305 -2.062287,0 0,-7.99671 2.062287,0 0,2.92694 3.045095,0 0,-2.92694 2.062287,0 0,7.99671 z" />
  </g>
</svg>
