<?xml version="1.0" encoding="UTF-8" standalone="no"?>
<!-- Created with Inkscape (http://www.inkscape.org/) -->

<svg
   xmlns:dc="http://purl.org/dc/elements/1.1/"
   xmlns:cc="http://creativecommons.org/ns#"
   xmlns:rdf="http://www.w3.org/1999/02/22-rdf-syntax-ns#"
   xmlns:svg="http://www.w3.org/2000/svg"
   xmlns="http://www.w3.org/2000/svg"
   xmlns:sodipodi="http://sodipodi.sourceforge.net/DTD/sodipodi-0.dtd"
   xmlns:inkscape="http://www.inkscape.org/namespaces/inkscape"
   width="70"
   height="65"
   viewBox="0 0 70.000001 65"
   id="indicatorVtolMotors"
   version="1.1"
   inkscape:version="0.91 r13725"
   sodipodi:docname="indicatorVtolMotors.svg">
  <metadata
     id="metadata65">
    <rdf:RDF>
      <cc:Work
         rdf:about="">
        <dc:format>image/svg+xml</dc:format>
        <dc:type
           rdf:resource="http://purl.org/dc/dcmitype/StillImage" />
        <dc:title></dc:title>
      </cc:Work>
    </rdf:RDF>
  </metadata>
  <defs
     id="defs5239">
    <clipPath
       clipPathUnits="userSpaceOnUse"
       id="clipPath4162">
      <path
         inkscape:connector-curvature="0"
         d="m 13.612786,994.93988 c -2.6947,0 -4.8769607,2.1822 -4.8769607,4.8769 l 0,18.59562 c -2.20909,1.5404 -3.6582,4.1043 -3.6582,7.002 0,4.7127 3.82242,8.5332 8.5351607,8.5332 4.71274,0 8.5332,-3.8205 8.5332,-8.5332 0,-2.8977 -1.44911,-5.4616 -3.6582,-7.002 l 0,-18.59562 c 0,-2.6947 -2.1803,-4.8769 -4.875,-4.8769 z m 0,1.2187 c 2.01804,0 3.65625,1.6402 3.65625,3.6582 l 0,19.23232 0.52148,0.3672 c 1.96232,1.3693 3.13672,3.6138 3.13672,6.002 -0.004,4.0281 -3.28235,7.3105 -7.31445,7.3105 -4.0321007,0 -7.3164107,-3.2783 -7.3164107,-7.3144 0,-2.3882 1.17042,-4.6347 3.13672,-6.0039 l 0.5214803,-0.3653 0,-19.22842 c 0,-2.018 1.6401704,-3.6582 3.6582104,-3.6582 z m 0,1.7481 c -0.96723,0 -1.76452,0.7517 -1.82422,1.707 l -0.004,0 0,21.27532 c -1.7871804,0.7244 -3.0488307,2.4756 -3.0488307,4.5215 0,2.6947 2.1822607,4.875 4.8769607,4.875 2.6947,0 4.875,-2.1803 4.875,-4.875 0,-2.0459 -1.26165,-3.7971 -3.04883,-4.5215 l 0,-21.27532 -0.004,0 c -0.0637,-0.9513 -0.85504,-1.707 -1.82226,-1.707 z"
         id="path4164" />
    </clipPath>
    <clipPath
       clipPathUnits="userSpaceOnUse"
       id="clipPath4166">
      <path
         inkscape:connector-curvature="0"
         d="m 13.612786,994.93988 c -2.6947,0 -4.8769607,2.1822 -4.8769607,4.8769 l 0,18.59562 c -2.20909,1.5404 -3.6582,4.1043 -3.6582,7.002 0,4.7127 3.82242,8.5332 8.5351607,8.5332 4.71274,0 8.5332,-3.8205 8.5332,-8.5332 0,-2.8977 -1.44911,-5.4616 -3.6582,-7.002 l 0,-18.59562 c 0,-2.6947 -2.1803,-4.8769 -4.875,-4.8769 z m 0,1.2187 c 2.01804,0 3.65625,1.6402 3.65625,3.6582 l 0,19.23232 0.52148,0.3672 c 1.96232,1.3693 3.13672,3.6138 3.13672,6.002 -0.004,4.0281 -3.28235,7.3105 -7.31445,7.3105 -4.0321007,0 -7.3164107,-3.2783 -7.3164107,-7.3144 0,-2.3882 1.17042,-4.6347 3.13672,-6.0039 l 0.5214803,-0.3653 0,-19.22842 c 0,-2.018 1.6401704,-3.6582 3.6582104,-3.6582 z m 0,1.7481 c -0.96723,0 -1.76452,0.7517 -1.82422,1.707 l -0.004,0 0,21.27532 c -1.7871804,0.7244 -3.0488307,2.4756 -3.0488307,4.5215 0,2.6947 2.1822607,4.875 4.8769607,4.875 2.6947,0 4.875,-2.1803 4.875,-4.875 0,-2.0459 -1.26165,-3.7971 -3.04883,-4.5215 l 0,-21.27532 -0.004,0 c -0.0637,-0.9513 -0.85504,-1.707 -1.82226,-1.707 z"
         id="path4168" />
    </clipPath>
    <filter
       inkscape:collect="always"
       style="color-interpolation-filters:sRGB"
       id="filter4947"
       x="-0.3696"
       width="1.7392"
       y="-0.3696"
       height="1.7392">
      <feGaussianBlur
         inkscape:collect="always"
         stdDeviation="1.9093848"
         id="feGaussianBlur4949" />
    </filter>
  </defs>
  <sodipodi:namedview
     id="base"
     pagecolor="#2e2824"
     bordercolor="#666666"
     borderopacity="1.0"
     inkscape:pageopacity="1"
     inkscape:pageshadow="2"
     inkscape:zoom="5.6568543"
     inkscape:cx="19.968625"
     inkscape:cy="9.7700577"
     inkscape:document-units="px"
     inkscape:current-layer="layer1"
     showgrid="false"
     units="px"
     inkscape:window-width="1920"
     inkscape:window-height="1017"
     inkscape:window-x="-8"
     inkscape:window-y="-8"
     inkscape:window-maximized="1" />
  <g
     inkscape:label="Layer 1"
     inkscape:groupmode="layer"
     id="layer1"
     transform="translate(0,-987.36216)">
    <rect
       ry="7.2063847"
       y="989.14124"
       x="1.7790799"
       height="61.441841"
       width="66.441841"
       id="frame"
       style="opacity:1;fill:#110e0c;fill-opacity:1;stroke:#ff0000;stroke-width:3.55815983;stroke-linecap:round;stroke-miterlimit:4;stroke-dasharray:none;stroke-dashoffset:0;stroke-opacity:1"
       inkscape:label="#rect4655" />
    <path
       style="opacity:1;fill:#554400;fill-opacity:1;fill-rule:evenodd;stroke:none;stroke-width:10;stroke-linecap:butt;stroke-linejoin:miter;stroke-miterlimit:4;stroke-dasharray:none;stroke-opacity:1"
       d="m 63.940684,1019.8626 a 1.0635704,0.9893677 0 0 0 -0.55329,-0.8702 0.59362067,2.3744827 0 0 0 0.0833,-1.2087 0.59362067,2.3744827 0 0 0 -0.59361,-2.3743 0.59362067,2.3744827 0 0 0 -0.59359,2.3743 0.59362067,2.3744827 0 0 0 0.0832,1.2114 1.0635704,0.9893677 0 0 0 -0.55329,0.8675 1.0635704,0.9893677 0 0 0 0.55329,0.8676 0.59362067,2.3744827 0 0 0 -0.0832,1.2086 0.59362067,2.3744827 0 0 0 0.59359,2.3744 0.59362067,2.3744827 0 0 0 0.59361,-2.3744 0.59362067,2.3744827 0 0 0 -0.0833,-1.2113 1.0635704,0.9893677 0 0 0 0.55329,-0.8649 z m -2.34748,-0.1746 c -0.0258,-1.2886 -1.77665,-2.6142 -6.80878,-3.36 -1.11978,-0.166 -7.89336,-0.9526 -10.61204,-1.0368 -0.42124,-0.6489 -2.17204,-3.222 -4.23299,-6.1749 l 3.03507,0 c 0.40512,3.0641 3.00754,5.447 6.18029,5.447 3.45239,0 6.26355,-2.8111 6.26355,-6.2635 0,-3.4524 -2.81116,-6.2609 -6.26355,-6.2609 -3.17332,0 -5.7759,2.3797 -6.18029,5.4443 l -4.19002,0 c -3.95629,-5.5897 -8.82488,-12.09976 -10.71409,-12.88427 -3.08444,-1.28084 -6.01913,-0.2874 -6.01913,-0.2874 l 6.43008,13.17167 -2.97063,0 c -0.40474,-3.0645 -3.00701,-5.4443 -6.18028,-5.4443 -3.45241,0 -6.26086,2.8085 -6.26085,6.2609 0,3.4524 2.80842,6.2635 6.26085,6.2635 3.17269,0 5.7748,-2.3829 6.18028,-5.447 l 3.76565,0 3.01628,6.1776 c -6.62564,0.94 -11.95656,1.7854 -17.61152,2.5059 0,0 -4.16154,-6.1469 -5.1918598,-6.7631 -1.0303299,-0.6162 -3.4299099,-0.3868 -3.4299099,-0.3868 l 2.40926,9.1993 -2.40926,9.1965 c 0,0 2.39958,0.2294 3.4299099,-0.3867 1.0303198,-0.6162 5.1918798,-6.7632 5.1918598,-6.7632 5.65497,0.7206 10.98588,1.5659 17.61152,2.506 l -2.91959,6.2018 -3.86234,0 c -0.40473,-3.0646 -3.00701,-5.4444 -6.18028,-5.4444 -3.45241,0 -6.26086,2.8085 -6.26085,6.2609 0,3.4524 2.80842,6.2635 6.26085,6.2635 3.17269,0 5.7748,-2.3829 6.18028,-5.447 l 3.09149,0 -6.22862,13.2281 c 0,0 2.61237,0.9129 5.69681,-0.3679 1.89061,-0.7851 6.698,-7.2744 10.64158,-12.8602 l 4.26253,0 c 0.40512,3.0642 3.00754,5.447 6.18029,5.447 3.45239,0 6.26355,-2.8111 6.26355,-6.2635 0,-3.4524 -2.81116,-6.2609 -6.26355,-6.2609 -3.17332,0 -5.7759,2.3798 -6.18029,5.4444 l -3.11028,0 c 2.05666,-2.9473 3.81894,-5.5194 4.3082,-6.1991 2.88412,-0.084 9.49226,-0.8708 10.61204,-1.0368 5.03213,-0.7459 6.78275,-2.0714 6.80878,-3.36 0,-0.053 -0.004,-0.1054 -0.008,-0.1585 0.005,-0.053 0.01,-0.108 0.008,-0.1612 z m -7.27345,-11.3882 c 0,2.8578 -2.30717,5.1623 -5.165,5.1623 -2.85788,0 -5.16233,-2.3045 -5.16233,-5.1623 0,-2.8579 2.30445,-5.1624 5.16233,-5.1624 2.85783,0 5.165,2.3045 5.165,5.1624 z m 0,23.1203 c 0,2.8579 -2.30717,5.1623 -5.165,5.1623 -2.85788,0 -5.16233,-2.3044 -5.16233,-5.1623 0,-2.8579 2.30445,-5.1623 5.16233,-5.1623 2.85783,0 5.165,2.3044 5.165,5.1623 z m -4.10138,-23.1176 a 1.0635704,0.9893677 0 0 0 -0.55329,-0.8703 0.59362067,2.3744827 0 0 0 0.0833,-1.2086 0.59362067,2.3744827 0 0 0 -0.59359,-2.3744 0.59362067,2.3744827 0 0 0 -0.59359,2.3744 0.59362067,2.3744827 0 0 0 0.0833,1.2113 1.0635704,0.9893677 0 0 0 -0.55331,0.8676 1.0635704,0.9893677 0 0 0 0.55331,0.8675 0.59362067,2.3744827 0 0 0 -0.0833,1.2087 0.59362067,2.3744827 0 0 0 0.59359,2.3743 0.59362067,2.3744827 0 0 0 0.59359,-2.3743 0.59362067,2.3744827 0 0 0 -0.0833,-1.2114 1.0635704,0.9893677 0 0 0 0.55329,-0.8648 z m 0,23.1203 a 1.0635704,0.9893677 0 0 0 -0.55329,-0.8702 0.59362067,2.3744827 0 0 0 0.0833,-1.2087 0.59362067,2.3744827 0 0 0 -0.59359,-2.3744 0.59362067,2.3744827 0 0 0 -0.59359,2.3744 0.59362067,2.3744827 0 0 0 0.0833,1.2113 1.0635704,0.9893677 0 0 0 -0.55331,0.8676 1.0635704,0.9893677 0 0 0 0.55331,0.8675 0.59362067,2.3744827 0 0 0 -0.0833,1.2087 0.59362067,2.3744827 0 0 0 0.59359,2.3743 0.59362067,2.3744827 0 0 0 0.59359,-2.3743 0.59362067,2.3744827 0 0 0 -0.0833,-1.2114 1.0635704,0.9893677 0 0 0 0.55329,-0.8648 z m -25.72297,-23.123 c 0,2.8578 -2.30718,5.1623 -5.16501,5.1623 -2.85787,0 -5.16232,-2.3045 -5.16232,-5.1623 0,-2.8579 2.30445,-5.1624 5.16232,-5.1624 2.85783,0 5.16501,2.3045 5.16501,5.1624 z m 0,23.1203 c 0,2.8579 -2.30718,5.1623 -5.16501,5.1623 -2.85787,0 -5.16232,-2.3044 -5.16232,-5.1623 0,-2.8579 2.30445,-5.1623 5.16232,-5.1623 2.85783,0 5.16501,2.3044 5.16501,5.1623 z m -4.10138,-23.1176 a 1.0635704,0.9893677 0 0 0 -0.55331,-0.8703 0.59362067,2.3744827 0 0 0 0.0833,-1.2086 0.59362067,2.3744827 0 0 0 -0.59358,-2.3744 0.59362067,2.3744827 0 0 0 -0.59358,2.3744 0.59362067,2.3744827 0 0 0 0.0833,1.2113 1.0635704,0.9893677 0 0 0 -0.5533,0.8676 1.0635704,0.9893677 0 0 0 0.5533,0.8675 0.59362067,2.3744827 0 0 0 -0.0833,1.2087 0.59362067,2.3744827 0 0 0 0.59358,2.3743 0.59362067,2.3744827 0 0 0 0.59358,-2.3743 0.59362067,2.3744827 0 0 0 -0.0833,-1.2114 1.0635704,0.9893677 0 0 0 0.55331,-0.8648 z m 0,23.1203 a 1.0635704,0.9893677 0 0 0 -0.55331,-0.8702 0.59362067,2.3744827 0 0 0 0.0833,-1.2087 0.59362067,2.3744827 0 0 0 -0.59358,-2.3744 0.59362067,2.3744827 0 0 0 -0.59358,2.3744 0.59362067,2.3744827 0 0 0 0.0833,1.2113 1.0635704,0.9893677 0 0 0 -0.5533,0.8676 1.0635704,0.9893677 0 0 0 0.5533,0.8675 0.59362067,2.3744827 0 0 0 -0.0833,1.2087 0.59362067,2.3744827 0 0 0 0.59358,2.3743 0.59362067,2.3744827 0 0 0 0.59358,-2.3743 0.59362067,2.3744827 0 0 0 -0.0833,-1.2114 1.0635704,0.9893677 0 0 0 0.55331,-0.8648 z"
       id="airplane-5-2"
       inkscape:connector-curvature="0" />
    <circle
       r="6.1993012"
       cy="1031.2786"
       cx="48.946659"
       id="frontRight"
       style="opacity:0.744;fill:#0024ff;fill-opacity:1;stroke:none;stroke-width:0.80000001;stroke-linecap:round;stroke-miterlimit:4;stroke-dasharray:none;stroke-dashoffset:0;stroke-opacity:1;filter:url(#filter4947)"
       inkscape:label="#circle4165" />
    <circle
       r="6.1993012"
       cy="1008.4744"
       cx="19.071398"
       id="backLeft"
       style="opacity:0.744;fill:#0024ff;fill-opacity:1;stroke:none;stroke-width:0.80000001;stroke-linecap:round;stroke-miterlimit:4;stroke-dasharray:none;stroke-dashoffset:0;stroke-opacity:1;filter:url(#filter4947)"
       inkscape:label="#circle4167" />
    <circle
       style="opacity:0.744;fill:#0024ff;fill-opacity:1;stroke:none;stroke-width:0.80000001;stroke-linecap:round;stroke-miterlimit:4;stroke-dasharray:none;stroke-dashoffset:0;stroke-opacity:1;filter:url(#filter4947)"
       id="backRight"
       cx="19.071398"
       cy="1031.2786"
       r="6.1993012"
       inkscape:label="#circle4169" />
    <circle
       style="opacity:0.744;fill:#0024ff;fill-opacity:1;stroke:none;stroke-width:0.80000001;stroke-linecap:round;stroke-miterlimit:4;stroke-dasharray:none;stroke-dashoffset:0;stroke-opacity:1;filter:url(#filter4947)"
       id="frontLeft"
       cx="48.946659"
       cy="1008.4744"
       r="6.1993012"
       inkscape:label="#path4882" />
  </g>
</svg>
