<?xml version="1.0" encoding="UTF-8" standalone="no"?>
<!-- Created with Inkscape (http://www.inkscape.org/) -->

<svg
   xmlns:dc="http://purl.org/dc/elements/1.1/"
   xmlns:cc="http://creativecommons.org/ns#"
   xmlns:rdf="http://www.w3.org/1999/02/22-rdf-syntax-ns#"
   xmlns:svg="http://www.w3.org/2000/svg"
   xmlns="http://www.w3.org/2000/svg"
   xmlns:sodipodi="http://sodipodi.sourceforge.net/DTD/sodipodi-0.dtd"
   xmlns:inkscape="http://www.inkscape.org/namespaces/inkscape"
   width="640"
   height="480"
   viewBox="0 0 640.00002 480.00002"
   id="svg2"
   version="1.1"
   inkscape:version="0.91 r13725"
   inkscape:export-filename="D:\Workspace\GCSMulti\Interface\html\Gauges\noFPV.png"
   inkscape:export-xdpi="180"
   inkscape:export-ydpi="180"
   sodipodi:docname="noFPV.svg">
  <defs
     id="defs4" />
  <sodipodi:namedview
     id="base"
     pagecolor="#ffffff"
     bordercolor="#666666"
     borderopacity="1.0"
     inkscape:pageopacity="0.0"
     inkscape:pageshadow="2"
     inkscape:zoom="0.98994949"
     inkscape:cx="-84.408229"
     inkscape:cy="244.81662"
     inkscape:document-units="px"
     inkscape:current-layer="layer1"
     showgrid="false"
     units="px"
     inkscape:window-width="1920"
     inkscape:window-height="1017"
     inkscape:window-x="-8"
     inkscape:window-y="-8"
     inkscape:window-maximized="1" />
  <metadata
     id="metadata7">
    <rdf:RDF>
      <cc:Work
         rdf:about="">
        <dc:format>image/svg+xml</dc:format>
        <dc:type
           rdf:resource="http://purl.org/dc/dcmitype/StillImage" />
        <dc:title></dc:title>
      </cc:Work>
    </rdf:RDF>
  </metadata>
  <g
     inkscape:label="Layer 1"
     inkscape:groupmode="layer"
     id="layer1"
     transform="translate(0,-572.36215)">
    <path
       style="opacity:0.98;fill:#613b3b;fill-opacity:1;stroke:none;stroke-width:1.07500005;stroke-linecap:round;stroke-miterlimit:4;stroke-dasharray:none;stroke-dashoffset:0;stroke-opacity:1"
       d="m 217.43318,704.70898 a 6.1271193,6.1271193 0 0 0 -4.27227,10.51844 l 202.78066,202.95105 a 6.1271193,6.1271193 0 1 0 8.66804,-8.6613 l -32.48197,-32.50882 c 5.1898,-5.19429 8.39236,-12.37296 8.39236,-20.33042 l 0,-12.87906 39.20964,33.26885 0,-0.077 0,-121.82942 -39.20964,33.26884 0,-12.87907 c 0,-15.92957 -12.82384,-28.75438 -28.75341,-28.75438 l -109.74105,0 -40.19658,-40.23009 a 6.1271193,6.1271193 0 0 0 -4.39578,-1.85804 z m 11.59155,42.08813 c -15.92957,0 -28.75437,12.82481 -28.75437,28.75438 l 0,81.12644 c 0,15.92959 12.8248,28.75344 28.75437,28.75344 l 141.93967,0 -140.6014,-138.63426 -1.33827,0 z"
       id="rect4136"
       inkscape:connector-curvature="0" />
  </g>
</svg>
