<?xml version="1.0" encoding="UTF-8" standalone="no"?>
<!-- Created with Inkscape (http://www.inkscape.org/) -->

<svg
   xmlns:dc="http://purl.org/dc/elements/1.1/"
   xmlns:cc="http://creativecommons.org/ns#"
   xmlns:rdf="http://www.w3.org/1999/02/22-rdf-syntax-ns#"
   xmlns:svg="http://www.w3.org/2000/svg"
   xmlns="http://www.w3.org/2000/svg"
   xmlns:xlink="http://www.w3.org/1999/xlink"
   xmlns:sodipodi="http://sodipodi.sourceforge.net/DTD/sodipodi-0.dtd"
   xmlns:inkscape="http://www.inkscape.org/namespaces/inkscape"
   width="250"
   height="250"
   viewBox="0 0 250 250"
   id="gaugeSpeed"
   version="1.1"
   inkscape:version="0.91 r13725"
   sodipodi:docname="gaugeSpeed.svg">
  <defs
     id="defs4">
    <linearGradient
       inkscape:collect="always"
       id="linearGradient4225">
      <stop
         style="stop-color:#550000;stop-opacity:0"
         offset="0"
         id="stop4227" />
      <stop
         style="stop-color:#550000;stop-opacity:1"
         offset="1"
         id="stop4229" />
    </linearGradient>
    <inkscape:path-effect
       vertical="false"
       scale_y_rel="false"
       prop_scale="1"
       bendpath="m -165.3535,218.1263 a 72.411179,72.411179 0 0 1 0,-102.40486 72.411179,72.411179 0 0 1 102.404877,0 72.411179,72.411179 0 0 1 0,102.40487"
       is_visible="true"
       id="path-effect4225"
       effect="bend_path" />
    <inkscape:path-effect
       border_marks="both"
       mark_dir="right"
       offset="0"
       shift="0"
       major_mark_steps="1"
       minor_mark_length="8"
       mark_length="17"
       mark_distance="16.67"
       unit="px"
       is_visible="true"
       id="path-effect4223"
       effect="ruler" />
    <inkscape:path-effect
       effect="bend_path"
       id="path-effect4812"
       is_visible="true"
       bendpath="m -165.3535,218.1263 a 72.411179,72.411179 0 0 1 0,-102.40486 72.411179,72.411179 0 0 1 102.404877,0 72.411179,72.411179 0 0 1 0,102.40487"
       prop_scale="1"
       scale_y_rel="false"
       vertical="false" />
    <inkscape:path-effect
       effect="ruler"
       id="path-effect4810"
       is_visible="true"
       unit="px"
       mark_distance="1.6666667"
       mark_length="17"
       minor_mark_length="8"
       major_mark_steps="5"
       shift="0"
       offset="0"
       mark_dir="right"
       border_marks="both" />
    <inkscape:path-effect
       effect="bend_path"
       id="path-effect4180"
       is_visible="true"
       bendpath="M -86.495276,96.981088 A 26.544966,26.544966 0 0 1 -105.9428,67.875807 26.544966,26.544966 0 0 1 -79.624934,44.795655 26.544966,26.544966 0 0 1 -53.307064,67.875806 26.544966,26.544966 0 0 1 -72.75459,96.981088"
       prop_scale="1"
       scale_y_rel="false"
       vertical="false" />
    <inkscape:path-effect
       effect="ruler"
       id="path-effect4178"
       is_visible="true"
       unit="px"
       mark_distance="20"
       mark_length="14"
       minor_mark_length="7"
       major_mark_steps="5"
       shift="0"
       offset="0"
       mark_dir="right"
       border_marks="both" />
    <inkscape:path-effect
       effect="bend_path"
       id="path-effect4176"
       is_visible="true"
       bendpath="m -128.33988,243.67926 157,0"
       prop_scale="1"
       scale_y_rel="false"
       vertical="false" />
    <linearGradient
       inkscape:collect="always"
       id="linearGradient4386">
      <stop
         style="stop-color:#4b413a;stop-opacity:1"
         offset="0"
         id="stop4388" />
      <stop
         style="stop-color:#0d0b09;stop-opacity:1"
         offset="1"
         id="stop4390" />
    </linearGradient>
    <inkscape:path-effect
       effect="bend_path"
       id="path-effect4375"
       is_visible="true"
       bendpath="M 90.275137,271.70687 C 68.572574,249.25108 55.228309,218.72518 55.228307,185.09514 55.228301,116.11085 111.377,60.188038 180.63992,60.188038 c 69.26292,1e-5 125.4116,55.922812 125.4116,124.907102 l 0,0 c 0,33.59507 -13.31652,64.09241 -34.97912,86.54161"
       prop_scale="1"
       scale_y_rel="false"
       vertical="false" />
    <inkscape:path-effect
       effect="ruler"
       id="path-effect3338"
       is_visible="true"
       unit="px"
       mark_distance="11"
       mark_length="26"
       minor_mark_length="13"
       major_mark_steps="5"
       shift="0"
       offset="0"
       mark_dir="right"
       border_marks="none" />
    <inkscape:path-effect
       effect="ruler"
       id="path-effect3338-7"
       is_visible="true"
       unit="px"
       mark_distance="11"
       mark_length="26"
       minor_mark_length="0"
       major_mark_steps="5"
       shift="0"
       offset="0"
       mark_dir="right"
       border_marks="none" />
    <radialGradient
       inkscape:collect="always"
       xlink:href="#linearGradient4386"
       id="radialGradient4392"
       cx="135.16547"
       cy="132.26157"
       fx="135.16547"
       fy="132.26157"
       r="24.163879"
       gradientUnits="userSpaceOnUse"
       gradientTransform="matrix(1.376557,-0.02948344,0.03036212,1.4175814,-71.056631,-67.981311)" />
    <filter
       style="color-interpolation-filters:sRGB"
       inkscape:label="Drop Shadow"
       id="filter4519">
      <feFlood
         flood-opacity="0.419608"
         flood-color="rgb(0,0,0)"
         result="flood"
         id="feFlood4521" />
      <feComposite
         in="flood"
         in2="SourceGraphic"
         operator="in"
         result="composite1"
         id="feComposite4523" />
      <feGaussianBlur
         in="composite1"
         stdDeviation="2"
         result="blur"
         id="feGaussianBlur4525" />
      <feOffset
         dx="2"
         dy="2"
         result="offset"
         id="feOffset4527" />
      <feComposite
         in="SourceGraphic"
         in2="offset"
         operator="over"
         result="composite2"
         id="feComposite4529" />
    </filter>
    <filter
       inkscape:collect="always"
       style="color-interpolation-filters:sRGB"
       id="filter4905"
       x="-0.05780144"
       width="1.1156029"
       y="-0.062372424"
       height="1.1247449">
      <feGaussianBlur
         inkscape:collect="always"
         stdDeviation="3.0546144"
         id="feGaussianBlur4907" />
    </filter>
    <linearGradient
       inkscape:collect="always"
       xlink:href="#linearGradient4225"
       id="linearGradient4231"
       x1="61.164738"
       y1="70.748428"
       x2="47.72971"
       y2="94.436508"
       gradientUnits="userSpaceOnUse" />
  </defs>
  <sodipodi:namedview
     id="base"
     pagecolor="#63564d"
     bordercolor="#666666"
     borderopacity="1.0"
     inkscape:pageopacity="1"
     inkscape:pageshadow="2"
     inkscape:zoom="2.8284271"
     inkscape:cx="99.84762"
     inkscape:cy="164.21181"
     inkscape:document-units="px"
     inkscape:current-layer="layer1"
     showgrid="false"
     inkscape:window-width="1920"
     inkscape:window-height="1017"
     inkscape:window-x="1912"
     inkscape:window-y="-8"
     inkscape:window-maximized="1"
     units="px" />
  <metadata
     id="metadata7">
    <rdf:RDF>
      <cc:Work
         rdf:about="">
        <dc:format>image/svg+xml</dc:format>
        <dc:type
           rdf:resource="http://purl.org/dc/dcmitype/StillImage" />
        <dc:title />
      </cc:Work>
    </rdf:RDF>
  </metadata>
  <g
     inkscape:label="Layer 1"
     inkscape:groupmode="layer"
     id="layer1">
    <circle
       style="fill:#110e0c;fill-opacity:1;stroke:#000000;stroke-width:7.98756123;stroke-miterlimit:4;stroke-dasharray:none;stroke-opacity:0.24852074"
       id="path4382"
       cy="125"
       cx="125"
       r="111.00622" />
    <path
       style="opacity:1;fill:url(#linearGradient4231);fill-opacity:1;stroke:none;stroke-width:1.07500005;stroke-linecap:round;stroke-miterlimit:4;stroke-dasharray:none;stroke-dashoffset:0;stroke-opacity:1"
       d="m 57.323758,70.138635 a 83.448426,87.32769 0 0 0 -0.210896,0.251953 83.448426,87.32769 0 0 0 -0.507651,0.703125 83.448426,87.32769 0 0 0 -3.413582,4.998046 83.448426,87.32769 0 0 0 -2.254563,3.72461 83.448426,87.32769 0 0 0 -2.041802,3.722656 83.448426,87.32769 0 0 0 -1.892494,3.951172 83.448426,87.32769 0 0 0 -1.692788,3.958984 83.448426,87.32769 0 0 0 -1.49309,4.097657 83.448426,87.32769 0 0 0 -1.298994,4.08789 83.448426,87.32769 0 0 0 -1.104887,4.269532 83.448426,87.32769 0 0 0 -0.905181,4.21875 83.448426,87.32769 0 0 0 -0.684959,4.32617 83.448426,87.32769 0 0 0 -0.500187,4.29688 83.448426,87.32769 0 0 0 -0.347143,5.61523 83.448426,87.32769 0 0 0 -0.05786,1.70508 83.448426,87.32769 0 0 0 0.153045,4.53711 83.448426,87.32769 0 0 0 0.205297,4.30859 83.448426,87.32769 0 0 0 0.580447,4.44141 83.448426,87.32769 0 0 0 0.602826,4.18359 83.448426,87.32769 0 0 0 0.998512,4.35547 83.448426,87.32769 0 0 0 1.007829,4.13086 83.448426,87.32769 0 0 0 1.394179,4.18555 83.448426,87.32769 0 0 0 1.403505,4.02734 83.448426,87.32769 0 0 0 1.802909,4.05274 83.448426,87.32769 0 0 0 1.76931,3.83398 83.448426,87.32769 0 0 0 2.163113,3.81446 83.448426,87.32769 0 0 0 2.144451,3.66406 83.448426,87.32769 0 0 0 2.512129,3.5625 83.448426,87.32769 0 0 0 2.48413,3.41992 83.448426,87.32769 0 0 0 2.816337,3.25781 83.448426,87.32769 0 0 0 2.415081,2.71094 l 5.968626,-6.24609 A 75.002235,78.488861 0 0 1 47.338713,124.84176 75.002235,78.488861 0 0 1 63.938155,75.705041 l -6.614397,-5.566406 z"
       id="path4181"
       inkscape:connector-curvature="0" />
    <path
       style="font-style:normal;font-weight:normal;font-size:10px;line-height:125%;font-family:sans-serif;text-align:center;letter-spacing:0px;word-spacing:0px;text-anchor:middle;fill:#b1937e;fill-opacity:1;stroke:none;stroke-width:1px;stroke-linecap:butt;stroke-linejoin:miter;stroke-opacity:1"
       d="M 120.10742 24.617188 C 119.56543 24.617188 119.00293 24.689453 118.42188 24.835938 C 117.8457 24.977539 117.38574 25.133789 117.03906 25.304688 L 117.03906 26.835938 L 117.11133 26.835938 C 117.5752 26.533203 118.06738 26.298828 118.58984 26.132812 C 119.1123 25.966797 119.60645 25.884766 120.07031 25.884766 C 120.37305 25.884766 120.64355 25.908203 120.88281 25.957031 C 121.12207 26.005859 121.34668 26.09375 121.55664 26.220703 C 121.75684 26.347656 121.91309 26.510742 122.02539 26.710938 C 122.1377 26.90625 122.19531 27.136719 122.19531 27.400391 C 122.19531 27.996094 121.97168 28.449219 121.52734 28.761719 C 121.08789 29.069336 120.49805 29.224609 119.75586 29.224609 L 119.24219 29.224609 L 119.24219 30.439453 L 119.90234 30.439453 C 120.26367 30.439453 120.59961 30.46875 120.91211 30.527344 C 121.22461 30.581055 121.49121 30.68457 121.71094 30.835938 C 121.93066 30.982422 122.10059 31.18457 122.22266 31.443359 C 122.34961 31.697266 122.41406 32.019531 122.41406 32.410156 C 122.41406 32.805664 122.3584 33.131836 122.24609 33.390625 C 122.13867 33.649414 121.97266 33.886719 121.74805 34.101562 C 121.5332 34.301758 121.25293 34.454102 120.90625 34.556641 C 120.55957 34.65918 120.23145 34.710938 119.92383 34.710938 C 119.40137 34.710938 118.8584 34.620117 118.29688 34.439453 C 117.73535 34.258789 117.24707 34.03125 116.83203 33.757812 L 116.72266 33.757812 L 116.72266 35.289062 C 117.09863 35.459961 117.58008 35.616211 118.16602 35.757812 C 118.75195 35.904297 119.34766 35.976562 119.95312 35.976562 C 120.54395 35.976562 121.08496 35.895508 121.57812 35.734375 C 122.07617 35.568359 122.50879 35.314453 122.875 34.972656 C 123.20215 34.665039 123.45605 34.305664 123.63672 33.890625 C 123.81738 33.475586 123.9082 33.017578 123.9082 32.519531 C 123.9082 32.016602 123.83301 31.606445 123.68164 31.289062 C 123.53027 30.97168 123.33594 30.708008 123.10156 30.498047 C 122.8916 30.3125 122.63672 30.15918 122.33398 30.037109 C 122.03125 29.910156 121.76172 29.828125 121.52734 29.789062 L 121.52734 29.685547 C 122.1084 29.568359 122.6123 29.285156 123.03711 28.835938 C 123.4668 28.381836 123.68164 27.851562 123.68164 27.246094 C 123.68164 26.801758 123.59082 26.414062 123.41016 26.082031 C 123.22949 25.75 122.96289 25.466797 122.61133 25.232422 C 122.28418 25.017578 121.91895 24.861328 121.51367 24.763672 C 121.1084 24.666016 120.63965 24.617188 120.10742 24.617188 z M 129.82617 24.625 C 128.53223 24.625 127.5791 25.087891 126.96875 26.015625 C 126.3584 26.938477 126.05469 28.370117 126.05469 30.308594 C 126.05469 32.232422 126.35449 33.658203 126.95508 34.585938 C 127.56055 35.513672 128.51758 35.976562 129.82617 35.976562 C 131.11523 35.976562 132.06543 35.520508 132.67578 34.607422 C 133.29102 33.689453 133.59766 32.250977 133.59766 30.292969 C 133.59766 28.393555 133.29492 26.976562 132.68945 26.039062 C 132.08887 25.09668 131.13477 24.625 129.82617 24.625 z M 129.82617 25.832031 C 130.29004 25.832031 130.66797 25.928711 130.96094 26.119141 C 131.25879 26.30957 131.49316 26.592773 131.66406 26.96875 C 131.83984 27.349609 131.95703 27.8125 132.01562 28.359375 C 132.0791 28.90625 132.11133 29.550781 132.11133 30.292969 C 132.11133 31.044922 132.0791 31.689453 132.01562 32.226562 C 131.95703 32.758789 131.84277 33.223633 131.67188 33.619141 C 131.50586 34.004883 131.27148 34.291992 130.96875 34.482422 C 130.66602 34.672852 130.28516 34.769531 129.82617 34.769531 C 129.33789 34.769531 128.94434 34.668945 128.64648 34.46875 C 128.35352 34.268555 128.12598 33.978516 127.96484 33.597656 C 127.78906 33.192383 127.6748 32.731445 127.62109 32.21875 C 127.56738 31.706055 127.54102 31.070312 127.54102 30.308594 C 127.54102 29.615234 127.57031 28.977539 127.62891 28.396484 C 127.69238 27.81543 127.80664 27.34375 127.97266 26.982422 C 128.14844 26.59668 128.38574 26.30957 128.68359 26.119141 C 128.98633 25.928711 129.36719 25.832031 129.82617 25.832031 z M 51.019531 49.617188 C 50.477539 49.617188 49.915039 49.688477 49.333984 49.830078 C 48.757812 49.97168 48.295898 50.12793 47.949219 50.298828 L 47.949219 51.835938 L 48.023438 51.835938 C 48.516602 51.513672 49.021484 51.275391 49.539062 51.119141 C 50.056641 50.962891 50.538086 50.884766 50.982422 50.884766 C 51.651367 50.884766 52.171875 51.044922 52.542969 51.367188 C 52.918945 51.68457 53.105469 52.126953 53.105469 52.693359 C 53.105469 53.313477 52.932617 53.892578 52.585938 54.429688 C 52.239258 54.961914 51.597656 55.681641 50.660156 56.589844 C 50.21582 57.024414 49.734375 57.460938 49.216797 57.900391 L 47.679688 59.21875 L 47.679688 60.75 L 55.0625 60.75 L 55.0625 59.498047 L 49.195312 59.498047 C 49.678711 59.087891 50.199219 58.642578 50.755859 58.164062 C 51.3125 57.680664 51.852539 57.182617 52.375 56.669922 C 52.741211 56.313477 53.050781 55.988281 53.304688 55.695312 C 53.563477 55.402344 53.788086 55.105469 53.978516 54.802734 C 54.183594 54.480469 54.336914 54.141602 54.439453 53.785156 C 54.546875 53.423828 54.601562 53.036133 54.601562 52.621094 C 54.601562 51.698242 54.283203 50.966797 53.648438 50.429688 C 53.013672 49.887695 52.137695 49.617188 51.019531 49.617188 z M 60.826172 49.625 C 59.532227 49.625 58.579102 50.087891 57.96875 51.015625 C 57.358398 51.938477 57.054688 53.370117 57.054688 55.308594 C 57.054688 57.232422 57.354492 58.658203 57.955078 59.585938 C 58.560547 60.513672 59.517578 60.976562 60.826172 60.976562 C 62.115234 60.976562 63.06543 60.520508 63.675781 59.607422 C 64.291016 58.689453 64.597656 57.250977 64.597656 55.292969 C 64.597656 53.393555 64.294922 51.976562 63.689453 51.039062 C 63.088867 50.09668 62.134766 49.625 60.826172 49.625 z M 60.826172 50.832031 C 61.290039 50.832031 61.667969 50.928711 61.960938 51.119141 C 62.258789 51.30957 62.493164 51.592773 62.664062 51.96875 C 62.839844 52.349609 62.957031 52.8125 63.015625 53.359375 C 63.079102 53.90625 63.111328 54.550781 63.111328 55.292969 C 63.111328 56.044922 63.079102 56.689453 63.015625 57.226562 C 62.957031 57.758789 62.842773 58.223633 62.671875 58.619141 C 62.505859 59.004883 62.271484 59.291992 61.96875 59.482422 C 61.666016 59.672852 61.285156 59.769531 60.826172 59.769531 C 60.337891 59.769531 59.944336 59.668945 59.646484 59.46875 C 59.353516 59.268555 59.125977 58.978516 58.964844 58.597656 C 58.789062 58.192383 58.674805 57.731445 58.621094 57.21875 C 58.567383 56.706055 58.541016 56.070312 58.541016 55.308594 C 58.541016 54.615234 58.570312 53.977539 58.628906 53.396484 C 58.692383 52.81543 58.806641 52.34375 58.972656 51.982422 C 59.148438 51.59668 59.385742 51.30957 59.683594 51.119141 C 59.986328 50.928711 60.367188 50.832031 60.826172 50.832031 z M 199.95117 51 C 198.65723 51 197.7041 51.462891 197.09375 52.390625 C 196.4834 53.313477 196.17969 54.745117 196.17969 56.683594 C 196.17969 58.607422 196.47949 60.033203 197.08008 60.960938 C 197.68555 61.888672 198.64258 62.351562 199.95117 62.351562 C 201.24023 62.351562 202.19043 61.895508 202.80078 60.982422 C 203.41602 60.064453 203.72266 58.625977 203.72266 56.667969 C 203.72266 54.768555 203.41992 53.351562 202.81445 52.414062 C 202.21387 51.47168 201.25977 51 199.95117 51 z M 191.46875 51.21875 L 186.18945 57.371094 L 186.18945 59.056641 L 191.41016 59.056641 L 191.41016 62.125 L 192.81641 62.125 L 192.81641 59.056641 L 194.43555 59.056641 L 194.43555 57.884766 L 192.81641 57.884766 L 192.81641 51.21875 L 191.46875 51.21875 z M 199.95117 52.207031 C 200.41504 52.207031 200.79297 52.303711 201.08594 52.494141 C 201.38379 52.68457 201.61816 52.967773 201.78906 53.34375 C 201.96484 53.724609 202.08203 54.1875 202.14062 54.734375 C 202.2041 55.28125 202.23633 55.925781 202.23633 56.667969 C 202.23633 57.419922 202.2041 58.064453 202.14062 58.601562 C 202.08203 59.133789 201.96777 59.598633 201.79688 59.994141 C 201.63086 60.379883 201.39648 60.666992 201.09375 60.857422 C 200.79102 61.047852 200.41016 61.144531 199.95117 61.144531 C 199.46289 61.144531 199.06934 61.043945 198.77148 60.84375 C 198.47852 60.643555 198.25098 60.353516 198.08984 59.972656 C 197.91406 59.567383 197.7998 59.106445 197.74609 58.59375 C 197.69238 58.081055 197.66602 57.445312 197.66602 56.683594 C 197.66602 55.990234 197.69531 55.352539 197.75391 54.771484 C 197.81738 54.19043 197.93164 53.71875 198.09766 53.357422 C 198.27344 52.97168 198.51074 52.68457 198.80859 52.494141 C 199.11133 52.303711 199.49219 52.207031 199.95117 52.207031 z M 191.41016 52.962891 L 191.41016 57.884766 L 187.18555 57.884766 L 191.41016 52.962891 z M 32.076172 118.875 C 30.782227 118.875 29.829102 119.33789 29.21875 120.26562 C 28.608398 121.18848 28.304688 122.62012 28.304688 124.55859 C 28.304688 126.48242 28.604492 127.9082 29.205078 128.83594 C 29.810547 129.76367 30.767578 130.22656 32.076172 130.22656 C 33.365234 130.22656 34.31543 129.77051 34.925781 128.85742 C 35.541016 127.93945 35.847656 126.50098 35.847656 124.54297 C 35.847656 122.64355 35.544922 121.22656 34.939453 120.28906 C 34.338867 119.34668 33.384766 118.875 32.076172 118.875 z M 22.328125 119.05859 C 22.308594 119.37598 22.233398 119.62988 22.101562 119.82031 C 21.974609 120.00586 21.798828 120.15918 21.574219 120.28125 C 21.393555 120.37891 21.126953 120.4541 20.775391 120.50781 C 20.423828 120.55664 20.092773 120.58203 19.785156 120.58203 L 19.785156 121.57812 L 22.056641 121.57812 L 22.056641 128.88672 L 19.785156 128.88672 L 19.785156 130 L 25.689453 130 L 25.689453 128.88672 L 23.462891 128.88672 L 23.462891 119.05859 L 22.328125 119.05859 z M 227.45117 119.25 C 226.15723 119.25 225.2041 119.71289 224.59375 120.64062 C 223.9834 121.56348 223.67969 122.99512 223.67969 124.93359 C 223.67969 126.85742 223.97949 128.2832 224.58008 129.21094 C 225.18555 130.13867 226.14258 130.60156 227.45117 130.60156 C 228.74023 130.60156 229.69043 130.14551 230.30078 129.23242 C 230.91602 128.31445 231.22266 126.87598 231.22266 124.91797 C 231.22266 123.01855 230.91992 121.60156 230.31445 120.66406 C 229.71387 119.72168 228.75977 119.25 227.45117 119.25 z M 214.96289 119.46875 L 214.96289 125.08594 C 215.25098 125.02734 215.59277 124.96875 215.98828 124.91016 C 216.38867 124.85156 216.80469 124.82422 217.23438 124.82422 C 217.68359 124.82422 218.08789 124.86328 218.44922 124.94141 C 218.81543 125.01465 219.125 125.14258 219.37891 125.32812 C 219.6084 125.48438 219.78711 125.69238 219.91406 125.95117 C 220.0459 126.20996 220.11328 126.52637 220.11328 126.90234 C 220.11328 127.28809 220.05566 127.62891 219.94336 127.92188 C 219.83594 128.21484 219.67578 128.46582 219.46094 128.67578 C 219.20703 128.91992 218.91699 129.08984 218.58984 129.1875 C 218.26758 129.28516 217.93262 129.33594 217.58594 129.33594 C 217.06836 129.33594 216.54102 129.24609 216.00391 129.07031 C 215.4668 128.88965 214.99805 128.67383 214.59766 128.41992 L 214.49414 128.41992 L 214.49414 129.96484 C 214.875 130.14062 215.34277 130.29004 215.89453 130.41211 C 216.44629 130.53906 217.01953 130.60156 217.61523 130.60156 C 218.25488 130.60156 218.81543 130.5127 219.29883 130.33203 C 219.78711 130.14648 220.20703 129.88086 220.55859 129.53906 C 220.88086 129.22168 221.13477 128.83105 221.32031 128.36719 C 221.50586 127.90332 221.59961 127.41797 221.59961 126.91016 C 221.59961 126.27051 221.49219 125.73926 221.27734 125.31445 C 221.0625 124.88965 220.75977 124.54199 220.36914 124.27344 C 219.99805 124.01953 219.58887 123.84375 219.14453 123.74609 C 218.7002 123.64355 218.18457 123.59375 217.59375 123.59375 C 217.43262 123.59375 217.24121 123.59766 217.02148 123.60742 C 216.80176 123.61719 216.58691 123.63281 216.37695 123.65234 L 216.37695 120.75 L 221.52539 120.75 L 221.52539 119.46875 L 214.96289 119.46875 z M 32.076172 120.08203 C 32.540039 120.08203 32.917969 120.17871 33.210938 120.36914 C 33.508789 120.55957 33.743164 120.84277 33.914062 121.21875 C 34.089844 121.59961 34.207031 122.0625 34.265625 122.60938 C 34.329102 123.15625 34.361328 123.80078 34.361328 124.54297 C 34.361328 125.29492 34.329102 125.93945 34.265625 126.47656 C 34.207031 127.00879 34.092773 127.47363 33.921875 127.86914 C 33.755859 128.25488 33.521484 128.54199 33.21875 128.73242 C 32.916016 128.92285 32.535156 129.01953 32.076172 129.01953 C 31.587891 129.01953 31.194336 128.91895 30.896484 128.71875 C 30.603516 128.51855 30.375977 128.22852 30.214844 127.84766 C 30.039062 127.44238 29.924805 126.98145 29.871094 126.46875 C 29.817383 125.95605 29.791016 125.32031 29.791016 124.55859 C 29.791016 123.86523 29.820312 123.22754 29.878906 122.64648 C 29.942383 122.06543 30.056641 121.59375 30.222656 121.23242 C 30.398438 120.84668 30.635742 120.55957 30.933594 120.36914 C 31.236328 120.17871 31.617188 120.08203 32.076172 120.08203 z M 227.45117 120.45703 C 227.91504 120.45703 228.29297 120.55371 228.58594 120.74414 C 228.88379 120.93457 229.11816 121.21777 229.28906 121.59375 C 229.46484 121.97461 229.58203 122.4375 229.64062 122.98438 C 229.7041 123.53125 229.73633 124.17578 229.73633 124.91797 C 229.73633 125.66992 229.7041 126.31445 229.64062 126.85156 C 229.58203 127.38379 229.46777 127.84863 229.29688 128.24414 C 229.13086 128.62988 228.89648 128.91699 228.59375 129.10742 C 228.29102 129.29785 227.91016 129.39453 227.45117 129.39453 C 226.96289 129.39453 226.56934 129.29395 226.27148 129.09375 C 225.97852 128.89355 225.75098 128.60352 225.58984 128.22266 C 225.41406 127.81738 225.2998 127.35645 225.24609 126.84375 C 225.19238 126.33105 225.16602 125.69531 225.16602 124.93359 C 225.16602 124.24023 225.19531 123.60254 225.25391 123.02148 C 225.31738 122.44043 225.43164 121.96875 225.59766 121.60742 C 225.77344 121.22168 226.01074 120.93457 226.30859 120.74414 C 226.61133 120.55371 226.99219 120.45703 227.45117 120.45703 z M 200.20117 187.75 C 198.90723 187.75 197.9541 188.21289 197.34375 189.14062 C 196.7334 190.06348 196.42969 191.49512 196.42969 193.43359 C 196.42969 195.35742 196.72949 196.7832 197.33008 197.71094 C 197.93555 198.63867 198.89258 199.10156 200.20117 199.10156 C 201.49023 199.10156 202.44043 198.64551 203.05078 197.73242 C 203.66602 196.81445 203.97266 195.37598 203.97266 193.41797 C 203.97266 191.51855 203.66992 190.10156 203.06445 189.16406 C 202.46387 188.22168 201.50977 187.75 200.20117 187.75 z M 192.21875 187.76367 C 191.31543 187.76367 190.52246 187.91992 189.84375 188.23242 C 189.16504 188.54004 188.61133 188.96973 188.18164 189.52148 C 187.72754 190.10254 187.39551 190.7666 187.18555 191.51367 C 186.98047 192.26074 186.87891 193.11914 186.87891 194.08594 C 186.87891 195.02832 186.99023 195.83301 187.21484 196.50195 C 187.44434 197.1709 187.76953 197.70801 188.18945 198.11328 C 188.52637 198.44043 188.91406 198.6875 189.35352 198.85352 C 189.79297 199.01953 190.28125 199.10156 190.81836 199.10156 C 191.87793 199.10156 192.77246 198.75293 193.5 198.05469 C 194.23242 197.35156 194.59766 196.44629 194.59766 195.33789 C 194.59766 194.68848 194.48926 194.13574 194.26953 193.68164 C 194.05469 193.22754 193.73047 192.85254 193.30078 192.55469 C 192.92969 192.2959 192.56738 192.12402 192.21094 192.04102 C 191.85938 191.95312 191.45215 191.91016 190.98828 191.91016 C 190.46582 191.91016 190.00391 191.97559 189.60352 192.10742 C 189.20801 192.23438 188.80469 192.42285 188.39453 192.67188 C 188.49707 191.55371 188.86133 190.66602 189.48633 190.01172 C 190.11133 189.35254 190.94824 189.02344 191.99805 189.02344 C 192.28613 189.02344 192.56641 189.05859 192.83984 189.12695 C 193.11816 189.19043 193.32617 189.25879 193.46289 189.33203 L 193.53516 189.33203 L 193.53516 187.93359 C 193.33496 187.87012 193.13867 187.8252 192.94336 187.80078 C 192.74805 187.77637 192.50684 187.76367 192.21875 187.76367 z M 58.525391 188.375 C 57.231445 188.375 56.27832 188.83789 55.667969 189.76562 C 55.057617 190.68848 54.753906 192.12012 54.753906 194.05859 C 54.753906 195.98242 55.053711 197.4082 55.654297 198.33594 C 56.259766 199.26367 57.216797 199.72656 58.525391 199.72656 C 59.814453 199.72656 60.764648 199.27051 61.375 198.35742 C 61.990234 197.43945 62.296875 196.00098 62.296875 194.04297 C 62.296875 192.14355 61.994141 190.72656 61.388672 189.78906 C 60.788086 188.84668 59.833984 188.375 58.525391 188.375 z M 200.20117 188.95703 C 200.66504 188.95703 201.04297 189.05371 201.33594 189.24414 C 201.63379 189.43457 201.86816 189.71777 202.03906 190.09375 C 202.21484 190.47461 202.33203 190.9375 202.39062 191.48438 C 202.4541 192.03125 202.48633 192.67578 202.48633 193.41797 C 202.48633 194.16992 202.4541 194.81445 202.39062 195.35156 C 202.33203 195.88379 202.21777 196.34863 202.04688 196.74414 C 201.88086 197.12988 201.64648 197.41699 201.34375 197.60742 C 201.04102 197.79785 200.66016 197.89453 200.20117 197.89453 C 199.71289 197.89453 199.31934 197.79395 199.02148 197.59375 C 198.72852 197.39355 198.50098 197.10352 198.33984 196.72266 C 198.16406 196.31738 198.0498 195.85645 197.99609 195.34375 C 197.94238 194.83105 197.91602 194.19531 197.91602 193.43359 C 197.91602 192.74023 197.94531 192.10254 198.00391 191.52148 C 198.06738 190.94043 198.18164 190.46875 198.34766 190.10742 C 198.52344 189.72168 198.76074 189.43457 199.05859 189.24414 C 199.36133 189.05371 199.74219 188.95703 200.20117 188.95703 z M 58.525391 189.58203 C 58.989258 189.58203 59.367188 189.67871 59.660156 189.86914 C 59.958008 190.05957 60.192383 190.34277 60.363281 190.71875 C 60.539062 191.09961 60.65625 191.5625 60.714844 192.10938 C 60.77832 192.65625 60.810547 193.30078 60.810547 194.04297 C 60.810547 194.79492 60.77832 195.43945 60.714844 195.97656 C 60.65625 196.50879 60.541992 196.97363 60.371094 197.36914 C 60.205078 197.75488 59.970703 198.04199 59.667969 198.23242 C 59.365234 198.42285 58.984375 198.51953 58.525391 198.51953 C 58.037109 198.51953 57.643555 198.41895 57.345703 198.21875 C 57.052734 198.01855 56.825195 197.72852 56.664062 197.34766 C 56.488281 196.94238 56.374023 196.48145 56.320312 195.96875 C 56.266602 195.45605 56.240234 194.82031 56.240234 194.05859 C 56.240234 193.36523 56.269531 192.72754 56.328125 192.14648 C 56.391602 191.56543 56.505859 191.09375 56.671875 190.73242 C 56.847656 190.34668 57.084961 190.05957 57.382812 189.86914 C 57.685547 189.67871 58.066406 189.58203 58.525391 189.58203 z M 190.64258 193.11133 C 190.94043 193.11133 191.22656 193.13477 191.5 193.18359 C 191.77344 193.23242 192.02148 193.33594 192.24609 193.49219 C 192.55371 193.71191 192.77441 193.96973 192.90625 194.26758 C 193.04297 194.56543 193.11133 194.94238 193.11133 195.39648 C 193.11133 196.20703 192.90918 196.8291 192.50391 197.26367 C 192.09863 197.69336 191.54199 197.9082 190.83398 197.9082 C 190.52637 197.9082 190.24023 197.85938 189.97656 197.76172 C 189.71777 197.65918 189.47656 197.5 189.25195 197.28516 C 188.97363 197.02637 188.75293 196.6748 188.5918 196.23047 C 188.43555 195.78125 188.35742 195.17188 188.35742 194.40039 C 188.35742 194.24902 188.36035 194.125 188.36523 194.02734 C 188.37012 193.9248 188.37695 193.81836 188.38672 193.71094 C 188.7627 193.50586 189.12988 193.35547 189.48633 193.25781 C 189.84277 193.16016 190.22754 193.11133 190.64258 193.11133 z M 103.8125 203.60352 L 103.8125 205.16992 L 103.19336 205.16992 L 103.19336 205.94141 L 103.8125 205.94141 L 103.8125 208.8418 C 103.8125 209.5026 103.95833 209.98372 104.24805 210.2832 C 104.53776 210.58268 104.96094 210.73242 105.51758 210.73242 C 105.67708 210.73242 105.85677 210.7168 106.05859 210.6875 C 106.26367 210.6582 106.45247 210.62174 106.625 210.57617 L 106.625 209.75 L 106.57812 209.75 C 106.50651 209.7793 106.38932 209.81771 106.22656 209.86328 C 106.0638 209.9056 105.90755 209.92578 105.75781 209.92578 C 105.50065 209.92578 105.30664 209.89648 105.17969 209.83789 C 105.05599 209.77604 104.95833 209.68099 104.88672 209.55078 C 104.80859 209.41081 104.76302 209.26107 104.75 209.10156 C 104.73698 208.9388 104.73047 208.71419 104.73047 208.42773 L 104.73047 205.94141 L 106.625 205.94141 L 106.625 205.16992 L 104.73047 205.16992 L 104.73047 203.60352 L 103.8125 203.60352 z M 90.796875 205.01953 C 90.474609 205.01953 90.169271 205.08529 89.882812 205.21875 C 89.599609 205.35221 89.313802 205.53776 89.027344 205.77539 L 89.027344 205.16992 L 88.109375 205.16992 L 88.109375 210.625 L 89.027344 210.625 L 89.027344 206.55273 C 89.277995 206.36068 89.530599 206.20182 89.78125 206.07812 C 90.035156 205.95443 90.286458 205.89258 90.537109 205.89258 C 90.800781 205.89258 91.002604 205.92839 91.142578 206 C 91.282552 206.06836 91.389974 206.17253 91.464844 206.3125 C 91.533203 206.44271 91.578125 206.61784 91.597656 206.83594 C 91.620443 207.05078 91.630859 207.27865 91.630859 207.51953 L 91.630859 210.625 L 92.548828 210.625 L 92.548828 207.13281 C 92.548828 207.03516 92.545573 206.9375 92.539062 206.83984 C 92.532552 206.73893 92.525391 206.65104 92.515625 206.57617 C 92.772786 206.3776 93.027995 206.21484 93.285156 206.08789 C 93.542318 205.95768 93.801432 205.89258 94.058594 205.89258 C 94.322266 205.89258 94.524089 205.92839 94.664062 206 C 94.804036 206.07161 94.909505 206.17839 94.984375 206.31836 C 95.052734 206.44857 95.097656 206.62174 95.117188 206.83984 C 95.139974 207.05794 95.152344 207.28516 95.152344 207.51953 L 95.152344 210.625 L 96.070312 210.625 L 96.070312 207.08398 C 96.070313 206.43294 95.927083 205.92773 95.640625 205.56641 C 95.357422 205.20182 94.915365 205.01953 94.316406 205.01953 C 93.968099 205.01953 93.641927 205.08854 93.335938 205.22852 C 93.029948 205.36523 92.691406 205.58984 92.320312 205.90234 C 92.193359 205.62565 91.998698 205.41016 91.738281 205.25391 C 91.48112 205.09766 91.167969 205.01953 90.796875 205.01953 z M 100.10156 205.01953 C 99.307292 205.01953 98.667969 205.2806 98.179688 205.80469 C 97.694661 206.32878 97.451172 207.03776 97.451172 207.92969 C 97.451172 208.83138 97.705078 209.52799 98.212891 210.01953 C 98.720703 210.50781 99.427083 210.75195 100.33203 210.75195 C 100.68685 210.75195 101.02539 210.70703 101.34766 210.61914 C 101.66992 210.53125 101.98568 210.42318 102.29492 210.29297 L 102.29492 209.29102 L 102.24609 209.29102 C 102.08659 209.43424 101.81901 209.58073 101.44141 209.73047 C 101.06706 209.87695 100.69336 209.95117 100.32227 209.95117 C 100.04232 209.95117 99.785156 209.91211 99.550781 209.83398 C 99.319661 209.75586 99.11849 209.63867 98.949219 209.48242 C 98.773438 209.32292 98.636068 209.11849 98.535156 208.87109 C 98.434245 208.62044 98.382812 208.32747 98.382812 207.99219 L 102.40234 207.99219 L 102.40234 207.49414 C 102.40234 206.70312 102.20117 206.09375 101.80078 205.66406 C 101.40365 205.23438 100.83724 205.01953 100.10156 205.01953 z M 110.00391 205.01953 C 109.20964 205.01953 108.57031 205.2806 108.08203 205.80469 C 107.59701 206.32878 107.35352 207.03776 107.35352 207.92969 C 107.35352 208.83138 107.60742 209.52799 108.11523 210.01953 C 108.62305 210.50781 109.32943 210.75195 110.23438 210.75195 C 110.58919 210.75195 110.92773 210.70703 111.25 210.61914 C 111.57227 210.53125 111.88802 210.42318 112.19727 210.29297 L 112.19727 209.29102 L 112.14844 209.29102 C 111.98893 209.43424 111.72135 209.58073 111.34375 209.73047 C 110.9694 209.87695 110.5957 209.95117 110.22461 209.95117 C 109.94466 209.95117 109.6875 209.91211 109.45312 209.83398 C 109.22201 209.75586 109.02083 209.63867 108.85156 209.48242 C 108.67578 209.32292 108.53841 209.11849 108.4375 208.87109 C 108.33659 208.62044 108.28516 208.32747 108.28516 207.99219 L 112.30469 207.99219 L 112.30469 207.49414 C 112.30469 206.70312 112.10352 206.09375 111.70312 205.66406 C 111.30599 205.23438 110.73958 205.01953 110.00391 205.01953 z M 129.41797 205.01953 C 129.07292 205.01953 128.7474 205.08854 128.44141 205.22852 C 128.13867 205.36523 127.86523 205.53711 127.62109 205.74219 L 127.62109 205.16992 L 126.70312 205.16992 L 126.70312 212.63672 L 127.62109 212.63672 L 127.62109 210.35156 C 127.85872 210.48177 128.09245 210.57682 128.32031 210.63867 C 128.55143 210.70052 128.80859 210.73242 129.0918 210.73242 C 129.41732 210.73242 129.72591 210.66732 130.01562 210.53711 C 130.30859 210.40365 130.5625 210.21549 130.77734 209.97461 C 131.00846 209.7207 131.18555 209.41146 131.3125 209.04688 C 131.43945 208.67904 131.50391 208.27474 131.50391 207.83203 C 131.50391 206.94987 131.32096 206.26042 130.95312 205.76562 C 130.58854 205.26758 130.07552 205.01953 129.41797 205.01953 z M 135.19922 205.01953 C 134.40495 205.01953 133.76562 205.2806 133.27734 205.80469 C 132.79232 206.32878 132.54883 207.03776 132.54883 207.92969 C 132.54883 208.83138 132.80273 209.52799 133.31055 210.01953 C 133.81836 210.50781 134.52474 210.75195 135.42969 210.75195 C 135.78451 210.75195 136.12305 210.70703 136.44531 210.61914 C 136.76758 210.53125 137.08333 210.42318 137.39258 210.29297 L 137.39258 209.29102 L 137.34375 209.29102 C 137.18424 209.43424 136.91667 209.58073 136.53906 209.73047 C 136.16471 209.87695 135.79102 209.95117 135.41992 209.95117 C 135.13997 209.95117 134.88281 209.91211 134.64844 209.83398 C 134.41732 209.75586 134.21615 209.63867 134.04688 209.48242 C 133.87109 209.32292 133.73372 209.11849 133.63281 208.87109 C 133.5319 208.62044 133.48047 208.32747 133.48047 207.99219 L 137.5 207.99219 L 137.5 207.49414 C 137.5 206.70312 137.29883 206.09375 136.89844 205.66406 C 136.5013 205.23438 135.9349 205.01953 135.19922 205.01953 z M 154.16406 205.01953 C 153.36979 205.01953 152.73047 205.2806 152.24219 205.80469 C 151.75716 206.32878 151.51367 207.03776 151.51367 207.92969 C 151.51367 208.83138 151.76758 209.52799 152.27539 210.01953 C 152.7832 210.50781 153.48958 210.75195 154.39453 210.75195 C 154.74935 210.75195 155.08789 210.70703 155.41016 210.61914 C 155.73242 210.53125 156.04818 210.42318 156.35742 210.29297 L 156.35742 209.29102 L 156.30859 209.29102 C 156.14909 209.43424 155.88151 209.58073 155.50391 209.73047 C 155.12956 209.87695 154.75586 209.95117 154.38477 209.95117 C 154.10482 209.95117 153.84766 209.91211 153.61328 209.83398 C 153.38216 209.75586 153.18099 209.63867 153.01172 209.48242 C 152.83594 209.32292 152.69857 209.11849 152.59766 208.87109 C 152.49674 208.62044 152.44531 208.32747 152.44531 207.99219 L 156.46484 207.99219 L 156.46484 207.49414 C 156.46484 206.70312 156.26367 206.09375 155.86328 205.66406 C 155.46615 205.23438 154.89974 205.01953 154.16406 205.01953 z M 119.83398 205.03906 C 119.48568 205.03906 119.16992 205.08464 118.88672 205.17578 C 118.60677 205.26367 118.37565 205.38411 118.19336 205.53711 C 118.00456 205.69336 117.86393 205.86979 117.76953 206.06836 C 117.67839 206.26693 117.63281 206.47852 117.63281 206.70312 C 117.63281 207.0612 117.73112 207.36393 117.92969 207.61133 C 118.13151 207.85547 118.4707 208.04102 118.94922 208.16797 C 119.12174 208.21354 119.31315 208.25586 119.52148 208.29492 C 119.73307 208.33398 119.90495 208.36914 120.03516 208.39844 C 120.38672 208.47656 120.6224 208.57096 120.74609 208.68164 C 120.86979 208.79232 120.93359 208.95508 120.93359 209.16992 C 120.93359 209.44987 120.81771 209.65495 120.58984 209.78516 C 120.36198 209.91536 120.04818 209.98047 119.64453 209.98047 C 119.31901 209.98047 118.97786 209.91602 118.62305 209.78906 C 118.26823 209.65885 117.94596 209.48568 117.65625 209.26758 L 117.60742 209.26758 L 117.60742 210.29688 C 117.83529 210.41081 118.11784 210.51758 118.45312 210.61523 C 118.79167 210.70964 119.16276 210.75586 119.56641 210.75586 C 120.2793 210.75586 120.83984 210.59635 121.25 210.27734 C 121.66341 209.95833 121.87109 209.55078 121.87109 209.05273 C 121.87109 208.6556 121.75456 208.33659 121.52344 208.0957 C 121.29232 207.85807 120.96354 207.68945 120.53711 207.5918 C 120.39714 207.55924 120.22135 207.52344 120.00977 207.48438 C 119.80143 207.44531 119.61263 207.40625 119.44336 207.36719 C 119.13737 207.29557 118.91602 207.20378 118.7793 207.08984 C 118.63932 206.97591 118.57031 206.80664 118.57031 206.58203 C 118.57031 206.32812 118.6849 206.13672 118.91602 206.00977 C 119.14714 205.87956 119.43034 205.81445 119.76562 205.81445 C 120.08789 205.81445 120.41667 205.87565 120.75195 205.99609 C 121.08724 206.11328 121.37109 206.25716 121.60547 206.42969 L 121.65625 206.42969 L 121.65625 205.44922 C 121.4349 205.33529 121.1556 205.23828 120.82031 205.16016 C 120.48828 205.07878 120.15951 205.03906 119.83398 205.03906 z M 148.54492 205.03906 C 148.19661 205.03906 147.88086 205.08464 147.59766 205.17578 C 147.31771 205.26367 147.08659 205.38411 146.9043 205.53711 C 146.71549 205.69336 146.57487 205.86979 146.48047 206.06836 C 146.38932 206.26693 146.34375 206.47852 146.34375 206.70312 C 146.34375 207.0612 146.44206 207.36393 146.64062 207.61133 C 146.84245 207.85547 147.18164 208.04102 147.66016 208.16797 C 147.83268 208.21354 148.02409 208.25586 148.23242 208.29492 C 148.44401 208.33398 148.61589 208.36914 148.74609 208.39844 C 149.09766 208.47656 149.33333 208.57096 149.45703 208.68164 C 149.58073 208.79232 149.64453 208.95508 149.64453 209.16992 C 149.64453 209.44987 149.52865 209.65495 149.30078 209.78516 C 149.07292 209.91536 148.75911 209.98047 148.35547 209.98047 C 148.02995 209.98047 147.6888 209.91602 147.33398 209.78906 C 146.97917 209.65885 146.6569 209.48568 146.36719 209.26758 L 146.31836 209.26758 L 146.31836 210.29688 C 146.54622 210.41081 146.82878 210.51758 147.16406 210.61523 C 147.5026 210.70964 147.8737 210.75586 148.27734 210.75586 C 148.99023 210.75586 149.55078 210.59635 149.96094 210.27734 C 150.37435 209.95833 150.58203 209.55078 150.58203 209.05273 C 150.58203 208.6556 150.46549 208.33659 150.23438 208.0957 C 150.00326 207.85807 149.67448 207.68945 149.24805 207.5918 C 149.10807 207.55924 148.93229 207.52344 148.7207 207.48438 C 148.51237 207.44531 148.32357 207.40625 148.1543 207.36719 C 147.84831 207.29557 147.62695 207.20378 147.49023 207.08984 C 147.35026 206.97591 147.28125 206.80664 147.28125 206.58203 C 147.28125 206.32812 147.39583 206.13672 147.62695 206.00977 C 147.85807 205.87956 148.14128 205.81445 148.47656 205.81445 C 148.79883 205.81445 149.1276 205.87565 149.46289 205.99609 C 149.79818 206.11328 150.08203 206.25716 150.31641 206.42969 L 150.36719 206.42969 L 150.36719 205.44922 C 150.14583 205.33529 149.86654 205.23828 149.53125 205.16016 C 149.19922 205.07878 148.87044 205.03906 148.54492 205.03906 z M 160.14062 205.04297 C 159.33659 205.04297 158.69076 205.29688 158.19922 205.80469 C 157.71094 206.3125 157.46484 207.01237 157.46484 207.9043 C 157.46484 208.38281 157.52995 208.80208 157.66016 209.16016 C 157.79036 209.51823 157.97526 209.81445 158.21289 210.04883 C 158.44727 210.2832 158.72982 210.45898 159.05859 210.57617 C 159.38737 210.6901 159.74674 210.74609 160.14062 210.74609 C 160.44987 210.74609 160.74219 210.70638 161.01562 210.625 C 161.29232 210.54362 161.58464 210.42969 161.89062 210.2832 L 161.89062 209.27148 L 161.83984 209.27148 C 161.77148 209.32682 161.67969 209.39453 161.5625 209.47266 C 161.44531 209.54753 161.32096 209.61914 161.1875 209.6875 C 161.03451 209.76562 160.86003 209.82812 160.66797 209.87695 C 160.47591 209.92578 160.28711 209.95117 160.10156 209.95117 C 159.56771 209.95117 159.15365 209.77539 158.85742 209.42383 C 158.56445 209.06901 158.41797 208.56185 158.41797 207.9043 C 158.41797 207.22721 158.56771 206.71549 158.86719 206.36719 C 159.16992 206.01562 159.58073 205.83984 160.10156 205.83984 C 160.38477 205.83984 160.67643 205.89844 160.97266 206.01562 C 161.27214 206.13281 161.5599 206.29948 161.83984 206.51758 L 161.89062 206.51758 L 161.89062 205.49805 C 161.63997 205.37109 161.36133 205.26367 161.05859 205.17578 C 160.75911 205.08789 160.45312 205.04297 160.14062 205.04297 z M 113.69531 205.16992 L 113.69531 210.625 L 114.61328 210.625 L 114.61328 206.75195 C 114.85742 206.55339 115.11133 206.39323 115.375 206.26953 C 115.63867 206.14258 115.91211 206.07812 116.19531 206.07812 C 116.37109 206.07812 116.52344 206.08724 116.65039 206.10352 C 116.7806 206.11654 116.91406 206.13932 117.05078 206.17188 L 117.09961 206.17188 L 117.09961 205.22852 C 116.95638 205.20573 116.84896 205.19206 116.77734 205.18555 C 116.70573 205.17578 116.58919 205.16992 116.42969 205.16992 C 116.13997 205.16992 115.85612 205.23177 115.57617 205.35547 C 115.29948 205.47591 114.97786 205.68359 114.61328 205.97656 L 114.61328 205.16992 L 113.69531 205.16992 z M 138.89062 205.16992 L 138.89062 210.625 L 139.80859 210.625 L 139.80859 206.75195 C 140.05273 206.55339 140.30664 206.39323 140.57031 206.26953 C 140.83398 206.14258 141.10742 206.07812 141.39062 206.07812 C 141.56641 206.07812 141.71875 206.08724 141.8457 206.10352 C 141.97591 206.11654 142.10938 206.13932 142.24609 206.17188 L 142.29492 206.17188 L 142.29492 205.22852 C 142.15169 205.20573 142.04427 205.19206 141.97266 205.18555 C 141.90104 205.17578 141.78451 205.16992 141.625 205.16992 C 141.33529 205.16992 141.05143 205.23177 140.77148 205.35547 C 140.49479 205.47591 140.17318 205.68359 139.80859 205.97656 L 139.80859 205.16992 L 138.89062 205.16992 z M 100.05469 205.77539 C 100.54297 205.77539 100.90495 205.9082 101.14258 206.17188 C 101.38346 206.43555 101.50456 206.80729 101.50781 207.28906 L 98.382812 207.28906 C 98.421875 206.85938 98.58724 206.50065 98.876953 206.21094 C 99.169922 205.92122 99.563151 205.77539 100.05469 205.77539 z M 109.95703 205.77539 C 110.44531 205.77539 110.80729 205.9082 111.04492 206.17188 C 111.28581 206.43555 111.4069 206.80729 111.41016 207.28906 L 108.28516 207.28906 C 108.32422 206.85938 108.48958 206.50065 108.7793 206.21094 C 109.07227 205.92122 109.46549 205.77539 109.95703 205.77539 z M 135.15234 205.77539 C 135.64062 205.77539 136.0026 205.9082 136.24023 206.17188 C 136.48112 206.43555 136.60221 206.80729 136.60547 207.28906 L 133.48047 207.28906 C 133.51953 206.85938 133.6849 206.50065 133.97461 206.21094 C 134.26758 205.92122 134.66081 205.77539 135.15234 205.77539 z M 154.11719 205.77539 C 154.60547 205.77539 154.96745 205.9082 155.20508 206.17188 C 155.44596 206.43555 155.56706 206.80729 155.57031 207.28906 L 152.44531 207.28906 C 152.48438 206.85938 152.64974 206.50065 152.93945 206.21094 C 153.23242 205.92122 153.62565 205.77539 154.11719 205.77539 z M 129.18359 205.89258 C 129.64909 205.89258 129.99414 206.05534 130.21875 206.38086 C 130.44336 206.70638 130.55664 207.19792 130.55664 207.85547 C 130.55664 208.53255 130.41341 209.04362 130.12695 209.38867 C 129.84049 209.73372 129.44076 209.90625 128.92969 209.90625 C 128.69206 209.90625 128.47982 209.88607 128.29102 209.84375 C 128.10547 209.80143 127.88151 209.7207 127.62109 209.60352 L 127.62109 206.51367 C 127.86523 206.32813 128.12174 206.17839 128.38867 206.06445 C 128.6556 205.95052 128.91992 205.89258 129.18359 205.89258 z "
       id="speedMetric" />
    <text
       xml:space="preserve"
       style="font-style:normal;font-weight:normal;font-size:12.5px;line-height:125%;font-family:sans-serif;text-align:center;letter-spacing:0px;word-spacing:0px;text-anchor:middle;fill:#594436;fill-opacity:1;stroke:none;stroke-width:1px;stroke-linecap:butt;stroke-linejoin:miter;stroke-opacity:1;"
       x="124.0073"
       y="189.62492"
       id="text4173"
       sodipodi:linespacing="125%"><tspan
         sodipodi:role="line"
         x="124.0073"
         y="189.62492"
         style="font-size:12.5px;fill:#594436;fill-opacity:1;"
         id="tspan4462">ground speed</tspan></text>
    <path
       style="color:#000000;font-style:normal;font-variant:normal;font-weight:normal;font-stretch:normal;font-size:medium;line-height:normal;font-family:sans-serif;text-indent:0;text-align:start;text-decoration:none;text-decoration-line:none;text-decoration-style:solid;text-decoration-color:#000000;letter-spacing:normal;word-spacing:normal;text-transform:none;direction:ltr;block-progression:tb;writing-mode:lr-tb;baseline-shift:baseline;text-anchor:start;white-space:normal;clip-rule:nonzero;display:inline;overflow:visible;visibility:visible;opacity:1;isolation:auto;mix-blend-mode:normal;color-interpolation:sRGB;color-interpolation-filters:linearRGB;solid-color:#000000;solid-opacity:1;fill:#b1937e;fill-opacity:1;fill-rule:evenodd;stroke:none;stroke-width:0.99446493px;stroke-linecap:butt;stroke-linejoin:miter;stroke-miterlimit:4;stroke-dasharray:none;stroke-dashoffset:0;stroke-opacity:1;color-rendering:auto;image-rendering:auto;shape-rendering:auto;text-rendering:auto;enable-background:accumulate"
       d="m 123.96281,38.982095 -0.009,18.269634 0.50948,0 1.07159,0 0.57474,0 0.009,-18.267529 -0.58316,0 -1.57265,-0.0022 z m -5.18109,0.206317 -1.06949,0.0779 0.61054,8.570603 1.06737,-0.07579 -0.60842,-8.572707 z m 12.43801,0 -0.61054,8.572708 1.06949,0.07579 0.60843,-8.570602 -1.06738,-0.0779 z m -19.16018,0.692638 -1.06106,0.151581 1.21895,8.496917 1.06107,-0.151581 -1.21896,-8.496917 z m 25.88024,0 -1.21896,8.496917 1.06106,0.151581 1.21895,-8.496917 -1.06105,-0.151581 z m -32.53293,1.178957 -1.04843,0.227372 1.82949,8.372705 1.04632,-0.229476 -1.82738,-8.370601 z m 39.18773,0 -1.8295,8.370601 1.04633,0.229476 1.82949,-8.372705 -1.04632,-0.227372 z m -45.73936,1.663173 -1.027377,0.307371 2.440007,8.195863 1.02737,-0.305266 -2.44,-8.197968 z m 52.28889,0 -2.44003,8.197968 1.02949,0.305266 2.43791,-8.195863 -1.02737,-0.307371 z m -58.69948,2.151598 -0.999997,0.383162 6.47795,16.9391 1.000007,-0.381049 -6.47796,-16.941213 z m 65.11006,0 -6.47795,16.941213 1,0.381049 6.48006,-16.9391 -1.00211,-0.383162 z m -71.34589,2.637918 -0.968437,0.458953 3.658978,7.696908 0.966327,-0.458949 -3.656868,-7.696912 z m 77.58384,0 -3.65898,7.696912 0.96842,0.458949 3.65898,-7.696908 -0.96842,-0.458953 z m -83.611271,3.124239 -0.928427,0.536847 4.267406,7.372694 0.928437,-0.536839 -4.267416,-7.372702 z m 89.638691,0 -4.26951,7.372702 0.92843,0.536839 4.26741,-7.372694 -0.92633,-0.536847 z m -95.421893,3.610557 -0.880007,0.612638 4.877935,6.997961 0.880007,-0.612638 -4.877935,-6.997961 z m 101.202993,0 -4.87794,6.997961 0.88002,0.612638 4.87794,-6.997961 -0.88002,-0.612638 z m -106.706205,4.09899 -0.821058,0.688425 5.486363,6.570582 0.823157,-0.686328 -5.488462,-6.572679 z m 112.209415,0 -5.48847,6.572679 0.82318,0.686328 5.48846,-6.570582 -0.82317,-0.688425 z m -116.99261,4.185297 -0.402109,0.402108 -0.757898,0.757898 -0.364219,0.362119 12.95169,12.962219 0.368428,-0.366329 0.757898,-0.757898 0.400009,-0.399998 L 64.11177,62.531779 Z m 121.83477,0.0568 -12.96434,12.94749 0.3537,0.353688 -0.002,0.002 0.75789,0.757898 0.41263,0.412639 12.96643,-12.947479 -0.42105,-0.423169 -0.75791,-0.757898 -0.34525,-0.345269 z m -126.895864,5.467423 -0.686328,0.823168 6.572689,5.486352 0.686318,-0.821057 -6.572679,-5.488463 z m 131.898004,0 -6.57269,5.488463 0.68843,0.821057 6.57058,-5.486352 -0.68632,-0.823168 z m -136.070681,5.446363 -0.612638,0.877907 6.997958,4.877935 0.612638,-0.877907 -6.997958,-4.877935 z m 140.243351,0 -6.99586,4.877935 0.61264,0.877907 6.99585,-4.877935 -0.61263,-0.877907 z m -143.9297,5.732682 -0.538948,0.928427 7.372687,4.267406 0.536858,-0.926317 -7.370597,-4.269516 z m 147.61815,0 -7.37269,4.269516 0.53685,0.926317 7.37269,-4.267406 -0.53685,-0.928427 z m -150.820279,5.987421 -0.461059,0.968437 7.699016,3.658978 0.458948,-0.968437 -7.696905,-3.658978 z m 154.020299,0 -7.6969,3.658978 0.46106,0.968437 7.69691,-3.658978 -0.46107,-0.968437 z M 45.275809,91.426737 44.89265,92.426734 61.831747,98.9068 62.214906,97.904683 45.275809,91.426737 Z m 159.449831,0 -16.9412,6.477946 0.38317,1.002117 16.9412,-6.480066 -0.38317,-0.999997 z m -161.679324,6.385316 -0.305259,1.027377 8.195854,2.43793 0.307379,-1.02737 -8.197974,-2.437937 z m 163.906714,0 -8.19586,2.437937 0.30526,1.02737 8.19587,-2.43793 -0.30527,-1.027377 z m -165.647788,6.528497 -0.22947,1.04843 8.372704,1.82949 0.227369,-1.04843 -8.370603,-1.82949 z m 167.388848,0 -8.37059,1.82949 0.22948,1.04843 8.37059,-1.82949 -0.22948,-1.04843 z m -168.643594,6.64005 -0.15157,1.06107 8.496913,1.22106 0.15159,-1.06105 -8.496933,-1.22108 z m 169.898354,0 -8.49692,1.22108 0.15369,1.06105 8.49691,-1.22106 -0.15368,-1.06107 z m -170.666782,6.71375 -0.0758,1.06949 8.572703,0.61052 0.0758,-1.06947 -8.572713,-0.61054 z m 171.435212,0 -8.57061,0.61054 0.0758,1.06947 8.57061,-0.61052 -0.0758,-1.06949 z m -171.715201,6.19795 0,0.55369 -0.002,1.60212 18.269632,0.002 0,-0.53051 0,-1.07371 0,-0.55158 -18.267522,-0.002 z m 153.729771,0.0674 0,0.48632 -0.002,1.66949 18.26753,0.0126 0,-0.60842 0.002,0 0,-1.0737 0,-0.47369 -18.26754,-0.0126 z m -144.952869,6.63164 -8.572693,0.61053 0.0758,1.06948 8.572713,-0.61052 -0.0758,-1.06949 z m 154.443479,0 -0.0758,1.06949 8.57061,0.61052 0.0758,-1.06948 -8.57061,-0.61053 z m -153.826621,6.11164 -8.496913,1.22106 0.15157,1.06105 8.496933,-1.22105 -0.15159,-1.06106 z m 153.209781,0 -0.15369,1.06106 8.49692,1.22105 0.15368,-1.06105 -8.49691,-1.22106 z m -152.157144,6.04426 -8.372704,1.82949 0.22947,1.04843 8.370603,-1.82949 -0.227369,-1.04843 z m 151.104504,0 -0.22948,1.04843 8.37059,1.82949 0.22948,-1.04843 -8.37059,-1.82949 z m -149.616069,5.9411 -8.195854,2.43791 0.305259,1.02738 8.197974,-2.43791 -0.307379,-1.02738 z m 148.125519,0 -0.30526,1.02738 8.19586,2.43791 0.30527,-1.02738 -8.19587,-2.43791 z m -137.230683,2.37054 -16.939097,6.48006 0.383159,1.00002 16.939097,-6.47796 -0.383159,-1.00212 z m 126.335863,0 -0.38317,1.00212 16.9412,6.47796 0.38317,-1.00002 -16.9412,-6.48006 z m -132.940132,9.05694 -7.699016,3.65897 0.461059,0.96843 7.696905,-3.65898 -0.458948,-0.96842 z m 139.546502,0 -0.46106,0.96842 7.6969,3.65898 0.46107,-0.96843 -7.69691,-3.65897 z m -136.748591,5.41899 -7.372687,4.26741 0.538948,0.92841 7.370597,-4.26949 -0.536858,-0.92633 z m 133.948571,0 -0.53685,0.92633 7.37269,4.26949 0.53685,-0.92841 -7.37269,-4.26741 z m -130.710641,5.17267 -6.997958,4.87794 0.612638,0.8779 6.997958,-4.87794 -0.612638,-0.8779 z m 127.474811,0 -0.61264,0.8779 6.99586,4.87794 0.61263,-0.8779 -6.99585,-4.87794 z m -113.213626,2.22529 -12.955909,12.958 0.383168,0.38317 0.757898,0.7579 0.383159,0.38316 12.955899,-12.95801 -0.383159,-0.38316 -0.757898,-0.75791 -0.383158,-0.38315 z m 98.950346,0 -0.38317,0.38315 -0.75789,0.75791 -0.38316,0.38316 12.95801,12.95801 0.38315,-0.38316 0.75791,-0.7579 0.38315,-0.38317 -12.958,-12.958 z m -109.537813,2.66739 -6.572689,5.48637 0.686328,0.82316 6.572679,-5.48848 -0.686318,-0.82105 z m 120.127383,0 -0.68843,0.82105 6.57269,5.48848 0.68632,-0.82316 -6.57058,-5.48637 z"
       id="path4808"
       inkscape:connector-curvature="0" />
    <circle
       style="fill:url(#radialGradient4392);fill-opacity:1;stroke:none;stroke-width:3.38796711;stroke-miterlimit:4;stroke-dasharray:none;stroke-opacity:0.35503001;filter:url(#filter4519)"
       id="center"
       cx="125"
       cy="125"
       r="24.163879"
       inkscape:label="#path4384" />
    <g
       id="handleGroundSpeed"
       inkscape:label="#g4177">
      <path
         sodipodi:nodetypes="cccccc"
         style="color:#000000;font-style:normal;font-variant:normal;font-weight:normal;font-stretch:normal;font-size:medium;line-height:normal;font-family:sans-serif;text-indent:0;text-align:start;text-decoration:none;text-decoration-line:none;text-decoration-style:solid;text-decoration-color:#000000;letter-spacing:normal;word-spacing:normal;text-transform:none;direction:ltr;block-progression:tb;writing-mode:lr-tb;baseline-shift:baseline;text-anchor:start;white-space:normal;clip-rule:nonzero;display:inline;overflow:visible;visibility:visible;opacity:0.553;isolation:auto;mix-blend-mode:normal;color-interpolation:sRGB;color-interpolation-filters:linearRGB;solid-color:#000000;solid-opacity:1;fill:#000000;fill-opacity:1;fill-rule:nonzero;stroke:none;stroke-width:5;stroke-linecap:butt;stroke-linejoin:miter;stroke-miterlimit:4;stroke-dasharray:none;stroke-dashoffset:0;stroke-opacity:1;filter:url(#filter4905);color-rendering:auto;image-rendering:auto;shape-rendering:auto;text-rendering:auto;enable-background:accumulate"
         d="m 205.69169,153.14732 -101.98206,99.59003 3.59961,4.31836 1.92579,-1.6543 107.13244,-90.65253 z"
         id="path4458"
         inkscape:connector-curvature="0"
         transform="matrix(0.7826915,-0.01940564,0.01981539,0.79921822,-21.904231,-17.429064)" />
      <path
         style="fill:#594436;fill-opacity:1;stroke:none;stroke-width:5;stroke-miterlimit:4;stroke-dasharray:none;stroke-opacity:0.35503001"
         d="m 69.736635,181.0121 -0.398187,-0.46395 74.379782,-78.35605 5.77607,6.09846 z"
         id="path4460"
         inkscape:connector-curvature="0"
         sodipodi:nodetypes="ccccc" />
    </g>
    <g
       id="handleAirspeed"
       inkscape:label="#g4183">
      <path
         transform="matrix(0.7826915,-0.01940564,0.01981539,0.79921822,-21.904231,-17.429064)"
         inkscape:connector-curvature="0"
         id="path4559"
         d="m 205.69169,153.14732 -101.98206,99.59003 3.59961,4.31836 1.92579,-1.6543 107.13244,-90.65253 z"
         style="color:#000000;font-style:normal;font-variant:normal;font-weight:normal;font-stretch:normal;font-size:medium;line-height:normal;font-family:sans-serif;text-indent:0;text-align:start;text-decoration:none;text-decoration-line:none;text-decoration-style:solid;text-decoration-color:#000000;letter-spacing:normal;word-spacing:normal;text-transform:none;direction:ltr;block-progression:tb;writing-mode:lr-tb;baseline-shift:baseline;text-anchor:start;white-space:normal;clip-rule:nonzero;display:inline;overflow:visible;visibility:visible;opacity:0.553;isolation:auto;mix-blend-mode:normal;color-interpolation:sRGB;color-interpolation-filters:linearRGB;solid-color:#000000;solid-opacity:1;fill:#000000;fill-opacity:1;fill-rule:nonzero;stroke:none;stroke-width:5;stroke-linecap:butt;stroke-linejoin:miter;stroke-miterlimit:4;stroke-dasharray:none;stroke-dashoffset:0;stroke-opacity:1;filter:url(#filter4905);color-rendering:auto;image-rendering:auto;shape-rendering:auto;text-rendering:auto;enable-background:accumulate"
         sodipodi:nodetypes="cccccc" />
      <path
         sodipodi:nodetypes="ccccc"
         inkscape:connector-curvature="0"
         id="rect4452"
         d="m 69.736635,181.0121 -0.398187,-0.46395 74.379782,-78.35605 5.77607,6.09846 z"
         style="fill:#b1937e;fill-opacity:1;stroke:none;stroke-width:5;stroke-miterlimit:4;stroke-dasharray:none;stroke-opacity:0.35503001" />
    </g>
    <text
       xml:space="preserve"
       style="font-style:normal;font-weight:normal;font-size:15px;line-height:125%;font-family:sans-serif;letter-spacing:0px;word-spacing:0px;fill:#000000;fill-opacity:1;stroke:none;stroke-width:1px;stroke-linecap:butt;stroke-linejoin:miter;stroke-opacity:1"
       x="-132.22897"
       y="29.736237"
       id="text4774"
       sodipodi:linespacing="125%"><tspan
         sodipodi:role="line"
         id="tspan4776"
         x="-132.22897"
         y="29.736237" /></text>
    <path
       style="font-style:normal;font-weight:normal;font-size:15px;line-height:125%;font-family:sans-serif;letter-spacing:0px;word-spacing:0px;fill:#b1937e;fill-opacity:1;stroke:none;stroke-width:1px;stroke-linecap:butt;stroke-linejoin:miter;stroke-opacity:1"
       d="M 129.82617 24.625 C 128.53223 24.625 127.5791 25.087891 126.96875 26.015625 C 126.3584 26.938477 126.05469 28.370117 126.05469 30.308594 C 126.05469 32.232422 126.35449 33.658203 126.95508 34.585938 C 127.56055 35.513672 128.51758 35.976562 129.82617 35.976562 C 131.11523 35.976562 132.06543 35.520508 132.67578 34.607422 C 133.29102 33.689453 133.59766 32.250977 133.59766 30.292969 C 133.59766 28.393555 133.29492 26.976562 132.68945 26.039062 C 132.08887 25.09668 131.13477 24.625 129.82617 24.625 z M 121.84375 24.638672 C 120.94043 24.638672 120.14746 24.794922 119.46875 25.107422 C 118.79004 25.415039 118.23633 25.844727 117.80664 26.396484 C 117.35254 26.977539 117.02051 27.641602 116.81055 28.388672 C 116.60547 29.135742 116.50391 29.994141 116.50391 30.960938 C 116.50391 31.903319 116.61523 32.708008 116.83984 33.376953 C 117.06934 34.045898 117.39453 34.583008 117.81445 34.988281 C 118.15137 35.31543 118.53906 35.5625 118.97852 35.728516 C 119.41797 35.894531 119.90625 35.976563 120.44336 35.976562 C 121.50293 35.976562 122.39746 35.627929 123.125 34.929688 C 123.85742 34.226562 124.22266 33.321289 124.22266 32.212891 C 124.22266 31.563477 124.11426 31.010742 123.89453 30.556641 C 123.67969 30.102539 123.35547 29.727539 122.92578 29.429688 C 122.55469 29.170897 122.19238 28.999023 121.83594 28.916016 C 121.48438 28.828126 121.07715 28.785156 120.61328 28.785156 C 120.09082 28.785156 119.62891 28.850586 119.22852 28.982422 C 118.83301 29.109375 118.42969 29.297852 118.01953 29.546875 C 118.12207 28.428711 118.48633 27.541016 119.11133 26.886719 C 119.73633 26.227539 120.57324 25.898438 121.62305 25.898438 C 121.91113 25.898438 122.19141 25.933598 122.46484 26.001953 C 122.74316 26.065433 122.95117 26.133789 123.08789 26.207031 L 123.16016 26.207031 L 123.16016 24.808594 C 122.95996 24.745114 122.76367 24.700195 122.56836 24.675781 C 122.37305 24.651371 122.13184 24.638672 121.84375 24.638672 z M 129.82617 25.832031 C 130.29004 25.832031 130.66797 25.928711 130.96094 26.119141 C 131.25879 26.30957 131.49316 26.592773 131.66406 26.96875 C 131.83984 27.349609 131.95703 27.8125 132.01562 28.359375 C 132.07913 28.90625 132.11133 29.550781 132.11133 30.292969 C 132.11133 31.044922 132.07913 31.689454 132.01562 32.226562 C 131.95702 32.758789 131.84276 33.223633 131.67188 33.619141 C 131.50585 34.004883 131.27148 34.291992 130.96875 34.482422 C 130.66602 34.672852 130.28516 34.769531 129.82617 34.769531 C 129.33789 34.769531 128.94434 34.668945 128.64648 34.46875 C 128.35352 34.268555 128.12598 33.978516 127.96484 33.597656 C 127.78906 33.192383 127.6748 32.731445 127.62109 32.21875 C 127.56739 31.706055 127.54102 31.070312 127.54102 30.308594 C 127.54102 29.615234 127.57031 28.977539 127.62891 28.396484 C 127.69241 27.81543 127.80664 27.34375 127.97266 26.982422 C 128.14844 26.59668 128.38574 26.30957 128.68359 26.119141 C 128.98633 25.928711 129.36719 25.832031 129.82617 25.832031 z M 120.26758 29.986328 C 120.56543 29.986328 120.85156 30.009764 121.125 30.058594 C 121.39844 30.107424 121.64648 30.210938 121.87109 30.367188 C 122.17871 30.586914 122.39941 30.844727 122.53125 31.142578 C 122.66797 31.44043 122.73633 31.817383 122.73633 32.271484 C 122.73633 33.082031 122.53418 33.704102 122.12891 34.138672 C 121.72363 34.568359 121.16699 34.783203 120.45898 34.783203 C 120.15137 34.783203 119.86523 34.734373 119.60156 34.636719 C 119.34277 34.53418 119.10156 34.375 118.87695 34.160156 C 118.59863 33.901367 118.37793 33.549805 118.2168 33.105469 C 118.06055 32.65625 117.98242 32.046875 117.98242 31.275391 C 117.98242 31.124023 117.98523 31 117.99023 30.902344 C 117.99523 30.799805 118.00192 30.693359 118.01172 30.585938 C 118.3877 30.380858 118.75488 30.230469 119.11133 30.132812 C 119.46777 30.035152 119.85254 29.986328 120.26758 29.986328 z M 60.826172 49.625 C 59.532227 49.625 58.579102 50.087891 57.96875 51.015625 C 57.358398 51.938477 57.054688 53.370117 57.054688 55.308594 C 57.054688 57.232422 57.354492 58.658203 57.955078 59.585938 C 58.560547 60.513672 59.517578 60.976562 60.826172 60.976562 C 62.115234 60.976562 63.06543 60.520508 63.675781 59.607422 C 64.291016 58.689453 64.597656 57.250977 64.597656 55.292969 C 64.597656 53.393555 64.294922 51.976563 63.689453 51.039062 C 63.088867 50.09668 62.134766 49.625 60.826172 49.625 z M 52.34375 49.84375 L 47.064453 55.996094 L 47.064453 57.681641 L 52.285156 57.681641 L 52.285156 60.75 L 53.691406 60.75 L 53.691406 57.681641 L 55.310547 57.681641 L 55.310547 56.509766 L 53.691406 56.509766 L 53.691406 49.84375 L 52.34375 49.84375 z M 60.826172 50.832031 C 61.290039 50.832031 61.667969 50.928711 61.960938 51.119141 C 62.258789 51.30957 62.493164 51.592773 62.664062 51.96875 C 62.839844 52.349609 62.957031 52.8125 63.015625 53.359375 C 63.079105 53.90625 63.111328 54.550781 63.111328 55.292969 C 63.111328 56.044922 63.079095 56.689454 63.015625 57.226562 C 62.957035 57.758789 62.842773 58.223633 62.671875 58.619141 C 62.505859 59.004883 62.271484 59.291992 61.96875 59.482422 C 61.666016 59.672852 61.285156 59.769531 60.826172 59.769531 C 60.337891 59.769531 59.944336 59.668945 59.646484 59.46875 C 59.353516 59.268555 59.125977 58.978516 58.964844 58.597656 C 58.789062 58.192383 58.674805 57.731445 58.621094 57.21875 C 58.567384 56.706055 58.541016 56.070312 58.541016 55.308594 C 58.541016 54.615234 58.570316 53.977539 58.628906 53.396484 C 58.692386 52.81543 58.806641 52.34375 58.972656 51.982422 C 59.148438 51.59668 59.385742 51.30957 59.683594 51.119141 C 59.986328 50.928711 60.367188 50.832031 60.826172 50.832031 z M 190.39258 50.970703 C 189.35254 50.970703 188.49609 51.244141 187.82227 51.791016 C 187.14844 52.337891 186.8125 53.021484 186.8125 53.841797 C 186.8125 54.398438 186.9502 54.861328 187.22852 55.232422 C 187.51172 55.603516 187.94727 55.945313 188.5332 56.257812 L 188.5332 56.302734 C 187.89355 56.59082 187.39843 56.981445 187.04688 57.474609 C 186.6953 57.962891 186.51953 58.509766 186.51953 59.115234 C 186.51953 60.067383 186.86816 60.848633 187.56641 61.458984 C 188.26953 62.069336 189.21094 62.375 190.39258 62.375 C 191.50586 62.375 192.42969 62.0625 193.16211 61.4375 C 193.89941 60.8125 194.26758 60.02832 194.26758 59.085938 C 194.26758 58.421875 194.08789 57.875 193.72656 57.445312 C 193.36523 57.015625 192.8418 56.654297 192.1582 56.361328 L 192.1582 56.316406 C 192.75391 56.047852 193.20605 55.676758 193.51367 55.203125 C 193.82129 54.724609 193.97461 54.239258 193.97461 53.746094 C 193.97461 52.94043 193.64941 52.276367 193 51.753906 C 192.35059 51.231445 191.48145 50.970703 190.39258 50.970703 z M 199.95117 51 C 198.65723 51 197.7041 51.462891 197.09375 52.390625 C 196.4834 53.313477 196.17969 54.745117 196.17969 56.683594 C 196.17969 58.607422 196.47949 60.033203 197.08008 60.960938 C 197.68555 61.888672 198.64258 62.351562 199.95117 62.351562 C 201.24023 62.351562 202.19043 61.895508 202.80078 60.982422 C 203.41602 60.064453 203.72266 58.625977 203.72266 56.667969 C 203.72266 54.768555 203.41992 53.351563 202.81445 52.414062 C 202.21387 51.47168 201.25977 51 199.95117 51 z M 52.285156 51.587891 L 52.285156 56.509766 L 48.060547 56.509766 L 52.285156 51.587891 z M 190.38672 52.046875 C 191.01172 52.046875 191.52344 52.203125 191.92383 52.515625 C 192.3291 52.823242 192.53125 53.239258 192.53125 53.761719 C 192.53125 54.21582 192.43945 54.614258 192.25391 54.960938 C 192.06836 55.307617 191.7334 55.642578 191.25 55.964844 C 190.92773 55.872074 190.5957 55.754883 190.25391 55.613281 C 189.91699 55.47168 189.65723 55.357422 189.47656 55.269531 C 189.07617 55.069336 188.77637 54.841797 188.57617 54.587891 C 188.38086 54.329102 188.2832 54.023438 188.2832 53.671875 C 188.2832 53.173828 188.47852 52.779297 188.86914 52.486328 C 189.26465 52.193359 189.77148 52.046875 190.38672 52.046875 z M 199.95117 52.207031 C 200.41504 52.207031 200.79297 52.303711 201.08594 52.494141 C 201.38379 52.68457 201.61816 52.967773 201.78906 53.34375 C 201.96484 53.724609 202.08203 54.1875 202.14062 54.734375 C 202.20413 55.28125 202.23633 55.925781 202.23633 56.667969 C 202.23633 57.419922 202.20413 58.064454 202.14062 58.601562 C 202.08202 59.133789 201.96776 59.598633 201.79688 59.994141 C 201.63085 60.379883 201.39648 60.666992 201.09375 60.857422 C 200.79102 61.047852 200.41016 61.144531 199.95117 61.144531 C 199.46289 61.144531 199.06934 61.043945 198.77148 60.84375 C 198.47852 60.643555 198.25098 60.353516 198.08984 59.972656 C 197.91406 59.567383 197.7998 59.106445 197.74609 58.59375 C 197.69239 58.081055 197.66602 57.445312 197.66602 56.683594 C 197.66602 55.990234 197.69531 55.352539 197.75391 54.771484 C 197.81741 54.19043 197.93164 53.71875 198.09766 53.357422 C 198.27344 52.97168 198.51074 52.68457 198.80859 52.494141 C 199.11133 52.303711 199.49219 52.207031 199.95117 52.207031 z M 189.45508 56.638672 C 189.90918 56.804688 190.27343 56.93457 190.54688 57.027344 C 190.8203 57.120114 191.07129 57.220703 191.30078 57.328125 C 191.87695 57.601562 192.26367 57.875 192.45898 58.148438 C 192.65918 58.416992 192.75781 58.775391 192.75781 59.224609 C 192.75781 59.864258 192.54297 60.368164 192.11328 60.734375 C 191.68848 61.100586 191.12109 61.283203 190.4082 61.283203 C 189.70996 61.283203 189.13379 61.068359 188.67969 60.638672 C 188.22559 60.208984 187.99805 59.663086 187.99805 59.003906 C 187.99805 58.486328 188.13086 58.023438 188.39453 57.613281 C 188.66309 57.203125 189.01562 56.87793 189.45508 56.638672 z M 22.269531 118.86719 C 21.727539 118.86719 21.165039 118.93849 20.583984 119.08008 C 20.007812 119.22168 19.545898 119.37793 19.199219 119.54883 L 19.199219 121.08594 L 19.273438 121.08594 C 19.766602 120.76367 20.271485 120.52539 20.789062 120.36914 C 21.306642 120.21289 21.788086 120.13477 22.232422 120.13477 C 22.901367 120.13477 23.421875 120.29492 23.792969 120.61719 C 24.168945 120.93457 24.355469 121.37695 24.355469 121.94336 C 24.355469 122.56348 24.182616 123.14258 23.835938 123.67969 C 23.489258 124.21191 22.847656 124.93164 21.910156 125.83984 C 21.46582 126.27441 20.984375 126.71094 20.466797 127.15039 L 18.929688 128.46875 L 18.929688 130 L 26.3125 130 L 26.3125 128.74805 L 20.445312 128.74805 C 20.928711 128.33789 21.449219 127.89258 22.005859 127.41406 C 22.5625 126.93066 23.102539 126.43262 23.625 125.91992 C 23.991211 125.56348 24.300781 125.23828 24.554688 124.94531 C 24.813477 124.65234 25.038086 124.35547 25.228516 124.05273 C 25.433594 123.73047 25.586914 123.3916 25.689453 123.03516 C 25.796875 122.67383 25.851562 122.28613 25.851562 121.87109 C 25.851562 120.94824 25.533202 120.2168 24.898438 119.67969 C 24.263672 119.1377 23.387695 118.86719 22.269531 118.86719 z M 32.076172 118.875 C 30.782227 118.875 29.829102 119.3379 29.21875 120.26562 C 28.608398 121.18849 28.304688 122.62012 28.304688 124.55859 C 28.304688 126.48242 28.604492 127.9082 29.205078 128.83594 C 29.810547 129.76367 30.767578 130.22656 32.076172 130.22656 C 33.365234 130.22656 34.31543 129.77051 34.925781 128.85742 C 35.541016 127.93945 35.847656 126.50098 35.847656 124.54297 C 35.847656 122.64355 35.544922 121.22656 34.939453 120.28906 C 34.338867 119.34668 33.384766 118.875 32.076172 118.875 z M 32.076172 120.08203 C 32.540039 120.08203 32.917969 120.17873 33.210938 120.36914 C 33.508789 120.55957 33.743164 120.84277 33.914062 121.21875 C 34.089844 121.59961 34.207031 122.06249 34.265625 122.60938 C 34.329105 123.15624 34.361328 123.80078 34.361328 124.54297 C 34.361328 125.29492 34.329095 125.93945 34.265625 126.47656 C 34.207035 127.00879 34.092773 127.47363 33.921875 127.86914 C 33.755859 128.25488 33.521484 128.54199 33.21875 128.73242 C 32.916016 128.92285 32.535156 129.01953 32.076172 129.01953 C 31.587891 129.01953 31.194336 128.91895 30.896484 128.71875 C 30.603516 128.51855 30.375977 128.22852 30.214844 127.84766 C 30.039062 127.44238 29.924805 126.98145 29.871094 126.46875 C 29.817384 125.95605 29.791016 125.32031 29.791016 124.55859 C 29.791016 123.86523 29.820316 123.22754 29.878906 122.64648 C 29.942386 122.06543 30.056641 121.59375 30.222656 121.23242 C 30.398438 120.84668 30.635742 120.55957 30.933594 120.36914 C 31.236328 120.17871 31.617188 120.08203 32.076172 120.08203 z M 223.37109 120.53125 C 222.77051 120.53125 222.25439 120.62135 221.82227 120.80078 C 221.39014 120.98022 221.03857 121.24854 220.76758 121.60742 C 220.49658 121.96997 220.30029 122.41382 220.17578 122.9375 C 220.05127 123.46118 219.98828 124.07861 219.98828 124.78906 C 219.98828 125.47754 220.04908 126.08838 220.16992 126.62305 C 220.29077 127.15405 220.48682 127.59814 220.75781 127.95703 C 221.02515 128.31592 221.37451 128.58838 221.80664 128.77148 C 222.23877 128.95459 222.75952 129.04492 223.37109 129.04492 C 223.99365 129.04492 224.51855 128.95482 224.94336 128.77539 C 225.36816 128.59229 225.71533 128.32397 225.98633 127.96875 C 226.25 127.62085 226.44385 127.1748 226.56836 126.63281 C 226.69287 126.08716 226.75586 125.47168 226.75586 124.7832 C 226.75586 124.09473 226.69506 123.48853 226.57422 122.96484 C 226.45337 122.4375 226.25952 121.99365 225.99219 121.63477 C 225.72119 121.26855 225.37402 120.99365 224.94922 120.81055 C 224.52441 120.62378 223.99731 120.53125 223.37109 120.53125 z M 231.37109 120.53125 C 230.77051 120.53125 230.25244 120.62135 229.82031 120.80078 C 229.38818 120.98022 229.03662 121.24854 228.76562 121.60742 C 228.49463 121.96997 228.29834 122.41382 228.17383 122.9375 C 228.04932 123.46118 227.98633 124.07861 227.98633 124.78906 C 227.98633 125.47754 228.04713 126.08838 228.16797 126.62305 C 228.28882 127.15405 228.48486 127.59814 228.75586 127.95703 C 229.02319 128.31592 229.37256 128.58838 229.80469 128.77148 C 230.23682 128.95459 230.75952 129.04492 231.37109 129.04492 C 231.99365 129.04492 232.5166 128.95482 232.94141 128.77539 C 233.36621 128.59229 233.71338 128.32397 233.98438 127.96875 C 234.24804 127.62085 234.44189 127.1748 234.56641 126.63281 C 234.69092 126.08716 234.75391 125.47168 234.75391 124.7832 C 234.75391 124.09473 234.69311 123.48853 234.57227 122.96484 C 234.45142 122.4375 234.25757 121.99365 233.99023 121.63477 C 233.71924 121.26855 233.37207 120.99365 232.94727 120.81055 C 232.52246 120.62378 231.99731 120.53125 231.37109 120.53125 z M 214.79102 120.67383 C 214.77632 120.89355 214.72222 121.07617 214.62695 121.22266 C 214.53175 121.36914 214.38965 121.48853 214.19922 121.58008 C 214.03809 121.65698 213.83545 121.71118 213.59375 121.74414 C 213.35205 121.77344 213.09961 121.78906 212.83594 121.78906 L 212.83594 123.12305 L 214.56055 123.12305 L 214.56055 127.44727 L 212.83594 127.44727 L 212.83594 128.875 L 218.29688 128.875 L 218.29688 127.44727 L 216.60938 127.44727 L 216.60938 120.67383 L 214.79102 120.67383 z M 223.37109 122.04102 C 223.82153 122.04102 224.14575 122.25269 224.33984 122.67383 C 224.53394 123.09131 224.63086 123.79443 224.63086 124.7832 C 224.63086 125.76099 224.53176 126.46411 224.33398 126.89258 C 224.13623 127.32104 223.81421 127.53516 223.37109 127.53516 C 222.92798 127.53516 222.60791 127.32104 222.41016 126.89258 C 222.2124 126.46411 222.11328 125.76343 222.11328 124.79297 C 222.11328 123.79688 222.21218 123.09131 222.40625 122.67383 C 222.60034 122.25269 222.92065 122.04102 223.37109 122.04102 z M 231.37109 122.04102 C 231.82153 122.04102 232.14185 122.25269 232.33594 122.67383 C 232.53003 123.09131 232.62891 123.79443 232.62891 124.7832 C 232.62891 125.76099 232.52981 126.46411 232.33203 126.89258 C 232.13428 127.32104 231.81421 127.53516 231.37109 127.53516 C 230.92798 127.53516 230.60596 127.32104 230.4082 126.89258 C 230.21045 126.46411 230.11133 125.76343 230.11133 124.79297 C 230.11133 123.79688 230.20823 123.09131 230.40234 122.67383 C 230.59644 122.25269 230.92065 122.04102 231.37109 122.04102 z M 205.12109 187.78125 C 204.52051 187.78125 204.00244 187.87135 203.57031 188.05078 C 203.13818 188.23022 202.78662 188.49854 202.51562 188.85742 C 202.24463 189.21997 202.04834 189.66382 201.92383 190.1875 C 201.79932 190.71118 201.73633 191.32861 201.73633 192.03906 C 201.73633 192.72754 201.79713 193.33838 201.91797 193.87305 C 202.03882 194.40405 202.23486 194.84814 202.50586 195.20703 C 202.77319 195.56592 203.12256 195.83838 203.55469 196.02148 C 203.98682 196.20459 204.50952 196.29492 205.12109 196.29492 C 205.74365 196.29492 206.2666 196.20482 206.69141 196.02539 C 207.11621 195.84229 207.46338 195.57397 207.73438 195.21875 C 207.99804 194.87085 208.19189 194.4248 208.31641 193.88281 C 208.44092 193.33716 208.50391 192.72168 208.50391 192.0332 C 208.50391 191.34473 208.44311 190.73853 208.32227 190.21484 C 208.20142 189.6875 208.00757 189.24365 207.74023 188.88477 C 207.46924 188.51855 207.12207 188.24365 206.69727 188.06055 C 206.27246 187.87378 205.74731 187.78125 205.12109 187.78125 z M 197.0293 187.78711 C 196.52026 187.78711 196.01099 187.84351 195.50195 187.95703 C 194.99658 188.07056 194.61353 188.18335 194.35352 188.29688 L 194.35352 190.11523 L 194.5293 190.11523 C 194.8479 189.89917 195.19263 189.72119 195.5625 189.58203 C 195.93604 189.44287 196.29004 189.37305 196.62695 189.37305 C 197.07739 189.37305 197.42212 189.47656 197.66016 189.68164 C 197.90186 189.88306 198.02344 190.16943 198.02344 190.54297 C 198.02344 190.85425 197.92894 191.16968 197.74219 191.48828 C 197.55542 191.80688 197.24194 192.1809 196.79883 192.60938 C 196.5022 192.89867 196.10571 193.24341 195.61133 193.64258 C 195.12061 194.04175 194.62939 194.41821 194.13867 194.77344 L 194.13867 196.125 L 200.56055 196.125 L 200.56055 194.55859 L 196.88672 194.55859 C 197.02954 194.45605 197.26855 194.27783 197.60547 194.02148 C 197.94238 193.76147 198.27808 193.47754 198.61133 193.16992 C 199.14233 192.67554 199.53467 192.19556 199.79102 191.73047 C 200.05103 191.26538 200.18164 190.77417 200.18164 190.25781 C 200.18164 189.47046 199.91333 188.86206 199.375 188.43359 C 198.83667 188.00146 198.05469 187.78711 197.0293 187.78711 z M 188.54102 187.92383 C 188.52632 188.14355 188.47222 188.32617 188.37695 188.47266 C 188.28175 188.61914 188.13965 188.73853 187.94922 188.83008 C 187.78809 188.90698 187.58545 188.96118 187.34375 188.99414 C 187.10205 189.02344 186.84961 189.03906 186.58594 189.03906 L 186.58594 190.37305 L 188.31055 190.37305 L 188.31055 194.69727 L 186.58594 194.69727 L 186.58594 196.125 L 192.04688 196.125 L 192.04688 194.69727 L 190.35938 194.69727 L 190.35938 187.92383 L 188.54102 187.92383 z M 58.525391 188.375 C 57.231445 188.375 56.27832 188.83789 55.667969 189.76562 C 55.057617 190.68849 54.753906 192.12012 54.753906 194.05859 C 54.753906 195.98242 55.053711 197.4082 55.654297 198.33594 C 56.259766 199.26367 57.216797 199.72656 58.525391 199.72656 C 59.814453 199.72656 60.764648 199.27051 61.375 198.35742 C 61.990234 197.43945 62.296875 196.00098 62.296875 194.04297 C 62.296875 192.14355 61.994141 190.72656 61.388672 189.78906 C 60.788086 188.84668 59.833984 188.375 58.525391 188.375 z M 205.12109 189.29102 C 205.57153 189.29102 205.89185 189.50269 206.08594 189.92383 C 206.28003 190.34131 206.37891 191.04443 206.37891 192.0332 C 206.37891 193.01099 206.27981 193.71411 206.08203 194.14258 C 205.88428 194.57104 205.56421 194.78516 205.12109 194.78516 C 204.67798 194.78516 204.35596 194.57104 204.1582 194.14258 C 203.96045 193.71411 203.86133 193.01343 203.86133 192.04297 C 203.86133 191.04688 203.95823 190.34131 204.15234 189.92383 C 204.34644 189.50269 204.67065 189.29102 205.12109 189.29102 z M 58.525391 189.58203 C 58.989258 189.58203 59.367188 189.67873 59.660156 189.86914 C 59.958008 190.05957 60.192383 190.34277 60.363281 190.71875 C 60.539062 191.09961 60.65625 191.56249 60.714844 192.10938 C 60.778324 192.65625 60.810547 193.30078 60.810547 194.04297 C 60.810547 194.79492 60.778314 195.43945 60.714844 195.97656 C 60.656254 196.50879 60.541992 196.97363 60.371094 197.36914 C 60.205078 197.75488 59.970703 198.04199 59.667969 198.23242 C 59.365234 198.42285 58.984375 198.51953 58.525391 198.51953 C 58.037109 198.51953 57.643555 198.41895 57.345703 198.21875 C 57.052734 198.01855 56.825196 197.72852 56.664062 197.34766 C 56.488281 196.94238 56.374023 196.48145 56.320312 195.96875 C 56.266602 195.45605 56.240234 194.82031 56.240234 194.05859 C 56.240234 193.36523 56.269535 192.72754 56.328125 192.14648 C 56.391605 191.56543 56.505859 191.09375 56.671875 190.73242 C 56.847656 190.34668 57.084961 190.05957 57.382812 189.86914 C 57.685547 189.67871 58.066406 189.58203 58.525391 189.58203 z M 111.93945 203.02734 L 111.93945 210.625 L 112.85742 210.625 L 112.85742 208.80273 L 113.45312 208.23633 L 115.64062 210.625 L 116.85156 210.625 L 114.13086 207.68945 L 116.66602 205.16992 L 115.50781 205.16992 L 112.85742 207.90039 L 112.85742 203.02734 L 111.93945 203.02734 z M 130.24023 203.60352 L 130.24023 205.16992 L 129.61914 205.16992 L 129.61914 205.94141 L 130.24023 205.94141 L 130.24023 208.8418 C 130.24023 209.5026 130.38411 209.98372 130.67383 210.2832 C 130.96354 210.58268 131.38672 210.73242 131.94336 210.73242 C 132.10287 210.73242 132.28256 210.71677 132.48438 210.6875 C 132.68878 210.65833 132.87872 210.62157 133.05078 210.57617 L 133.05078 209.75 L 133.00195 209.75 C 132.93034 209.77927 132.81315 209.81768 132.65039 209.86328 C 132.48763 209.90561 132.33138 209.92578 132.18164 209.92578 C 131.92447 209.92578 131.73242 209.89649 131.60547 209.83789 C 131.48177 209.77604 131.38411 209.68099 131.3125 209.55078 C 131.23435 209.41081 131.18878 209.26106 131.17578 209.10156 C 131.16278 208.9388 131.1582 208.71419 131.1582 208.42773 L 131.1582 205.94141 L 133.05273 205.94141 L 133.05273 205.16992 L 131.1582 205.16992 L 131.1582 203.60352 L 130.24023 203.60352 z M 120.56641 205.01953 C 120.24414 205.01953 119.93099 205.08528 119.625 205.21875 C 119.31901 205.35222 119.02279 205.53776 118.73633 205.77539 L 118.73633 205.16992 L 117.81836 205.16992 L 117.81836 210.625 L 118.73633 210.625 L 118.73633 206.55273 C 118.98698 206.36067 119.24805 206.20182 119.52148 206.07812 C 119.79492 205.95443 120.05794 205.89258 120.30859 205.89258 C 120.55273 205.89258 120.7513 205.92773 120.9043 205.99609 C 121.05729 206.06119 121.17448 206.16211 121.25586 206.29883 C 121.33395 206.42253 121.38668 206.59505 121.41602 206.81641 C 121.44528 207.03451 121.45898 207.26888 121.45898 207.51953 L 121.45898 210.625 L 122.37891 210.625 L 122.37891 207.08398 C 122.37891 206.41667 122.22331 205.9056 121.91406 205.55078 C 121.60482 205.19596 121.1556 205.01953 120.56641 205.01953 z M 126.2793 205.01953 C 125.50781 205.01953 124.89518 205.27734 124.43945 205.79492 C 123.98698 206.30925 123.75977 207.01172 123.75977 207.90039 C 123.75977 208.78906 123.98698 209.48958 124.43945 210.00391 C 124.89518 210.51823 125.50781 210.77539 126.2793 210.77539 C 127.04427 210.77539 127.65365 210.51823 128.10938 210.00391 C 128.56511 209.48958 128.79492 208.78906 128.79492 207.90039 C 128.79492 207.01172 128.56511 206.30925 128.10938 205.79492 C 127.65365 205.27734 127.04427 205.01953 126.2793 205.01953 z M 136.02539 205.03906 C 135.67708 205.03906 135.36133 205.08464 135.07812 205.17578 C 134.79818 205.26367 134.56705 205.38412 134.38477 205.53711 C 134.19596 205.69336 134.05338 205.86979 133.95898 206.06836 C 133.86784 206.26693 133.82227 206.47851 133.82227 206.70312 C 133.82227 207.06119 133.92253 207.36393 134.12109 207.61133 C 134.32292 207.85547 134.66211 208.04102 135.14062 208.16797 C 135.31315 208.21354 135.50456 208.25586 135.71289 208.29492 C 135.92448 208.33402 136.0944 208.36917 136.22461 208.39844 C 136.57617 208.47656 136.8138 208.57097 136.9375 208.68164 C 137.06119 208.79232 137.12305 208.95508 137.12305 209.16992 C 137.12305 209.44987 137.00911 209.65495 136.78125 209.78516 C 136.55338 209.91536 136.23763 209.98047 135.83398 209.98047 C 135.50846 209.98047 135.16927 209.91602 134.81445 209.78906 C 134.45964 209.65886 134.13737 209.48568 133.84766 209.26758 L 133.79883 209.26758 L 133.79883 210.29688 C 134.02669 210.4108 134.30729 210.51757 134.64258 210.61523 C 134.98112 210.70963 135.35417 210.75586 135.75781 210.75586 C 136.4707 210.75586 137.03125 210.59636 137.44141 210.27734 C 137.85481 209.95834 138.06055 209.55078 138.06055 209.05273 C 138.06055 208.65559 137.94596 208.33658 137.71484 208.0957 C 137.48372 207.85807 137.15494 207.68945 136.72852 207.5918 C 136.58854 207.55925 136.41276 207.52344 136.20117 207.48438 C 135.99284 207.44532 135.80403 207.40625 135.63477 207.36719 C 135.32877 207.29557 135.10742 207.20378 134.9707 207.08984 C 134.83073 206.97591 134.75977 206.80664 134.75977 206.58203 C 134.75977 206.32813 134.8763 206.13672 135.10742 206.00977 C 135.33854 205.87955 135.62174 205.81445 135.95703 205.81445 C 136.2793 205.81445 136.60807 205.87565 136.94336 205.99609 C 137.27865 206.11328 137.5625 206.25716 137.79688 206.42969 L 137.8457 206.42969 L 137.8457 205.44922 C 137.62435 205.33529 137.34701 205.23828 137.01172 205.16016 C 136.67969 205.07878 136.35091 205.03906 136.02539 205.03906 z M 126.2793 205.81055 C 126.77083 205.81055 127.15495 205.98307 127.43164 206.32812 C 127.70833 206.66992 127.84766 207.19401 127.84766 207.90039 C 127.84766 208.5905 127.70768 209.11133 127.42773 209.46289 C 127.15104 209.8112 126.76758 209.98438 126.2793 209.98438 C 125.7845 209.98437 125.39779 209.8086 125.12109 209.45703 C 124.8444 209.10221 124.70703 208.58398 124.70703 207.90039 C 124.70703 207.19401 124.84375 206.66992 125.11719 206.32812 C 125.39388 205.98307 125.78125 205.81055 126.2793 205.81055 z "
       id="speedUS"
       inkscape:label="#text4238" />
    <g
       id="indicatorAirspeedSP"
       inkscape:label="#g4189">
      <path
         style="opacity:1;fill:#1f1915;fill-opacity:1;stroke:none;stroke-width:2.11635494;stroke-miterlimit:4;stroke-dasharray:none;stroke-opacity:1"
         d="m 33.412088,202.58063 c -0.522819,0.51263 -0.498758,1.37911 0.05393,1.94279 l 10.168533,10.37067 c 0.552691,0.56368 1.744916,0.8114 1.941335,0.0922 l 4.537514,-16.6152 z"
         id="rect5124"
         inkscape:connector-curvature="0"
         sodipodi:nodetypes="sssscs" />
      <path
         inkscape:connector-curvature="0"
         id="path5006"
         d="m 42.406629,216.09816 c 0.484661,0.49429 1.072403,0.75986 1.73225,0.83143 0.329919,0.0358 0.695417,0.0204 1.073882,-0.15628 0.378465,-0.1767 0.736854,-0.57586 0.859217,-1.02395 l 5.004984,-18.32284 -18.686784,4.70964 -0.197284,0.19344 c -0.943536,0.92514 -0.869574,2.46492 0.04539,3.39807 l 10.168344,10.37049 z m 1.464768,-1.43622 -10.168344,-10.37049 c -0.135731,-0.13843 -0.07922,-0.24292 -0.04611,-0.34707 l 14.501293,-3.65603 -3.966869,14.52422 c -0.126969,-0.0503 -0.274111,-0.10386 -0.319969,-0.15063 z"
         style="color:#000000;font-style:normal;font-variant:normal;font-weight:normal;font-stretch:normal;font-size:medium;line-height:normal;font-family:sans-serif;text-indent:0;text-align:start;text-decoration:none;text-decoration-line:none;text-decoration-style:solid;text-decoration-color:#000000;letter-spacing:normal;word-spacing:normal;text-transform:none;direction:ltr;block-progression:tb;writing-mode:lr-tb;baseline-shift:baseline;text-anchor:start;white-space:normal;clip-rule:nonzero;display:inline;overflow:visible;visibility:visible;opacity:1;isolation:auto;mix-blend-mode:normal;color-interpolation:sRGB;color-interpolation-filters:linearRGB;solid-color:#000000;solid-opacity:1;fill:#c45614;fill-opacity:1;fill-rule:nonzero;stroke:#64280a;stroke-width:0.48613572;stroke-linecap:butt;stroke-linejoin:miter;stroke-miterlimit:4;stroke-dasharray:none;stroke-dashoffset:0;stroke-opacity:1;color-rendering:auto;image-rendering:auto;shape-rendering:auto;text-rendering:auto;enable-background:accumulate" />
    </g>
    <text
       sodipodi:linespacing="125%"
       id="text4464"
       y="175.62492"
       x="125.36011"
       style="font-style:normal;font-weight:normal;font-size:12.5px;line-height:125%;font-family:sans-serif;text-align:center;letter-spacing:0px;word-spacing:0px;text-anchor:middle;fill:#b1937e;fill-opacity:1;stroke:none;stroke-width:1px;stroke-linecap:butt;stroke-linejoin:miter;stroke-opacity:1"
       xml:space="preserve"><tspan
         id="tspan4468"
         style="font-size:12.5px;fill:#b1937e;fill-opacity:1"
         y="175.62492"
         x="125.36011"
         sodipodi:role="line">IAS</tspan></text>
  </g>
</svg>
