<?xml version="1.0" encoding="UTF-8" standalone="no"?>
<!-- Created with Inkscape (http://www.inkscape.org/) -->

<svg
   xmlns:dc="http://purl.org/dc/elements/1.1/"
   xmlns:cc="http://creativecommons.org/ns#"
   xmlns:rdf="http://www.w3.org/1999/02/22-rdf-syntax-ns#"
   xmlns:svg="http://www.w3.org/2000/svg"
   xmlns="http://www.w3.org/2000/svg"
   xmlns:sodipodi="http://sodipodi.sourceforge.net/DTD/sodipodi-0.dtd"
   xmlns:inkscape="http://www.inkscape.org/namespaces/inkscape"
   width="250"
   height="250"
   viewBox="0 0 250 250"
   id="gaugeWind"
   version="1.1"
   inkscape:version="0.91 r13725"
   sodipodi:docname="gaugeWind.svg">
  <defs
     id="defs4">
    <inkscape:path-effect
       effect="bend_path"
       id="path-effect4681"
       is_visible="true"
       bendpath="M -34.742478,125.34465 A 101.69512,101.69512 0 0 1 -135.27736,228.18691 101.69512,101.69512 0 0 1 -238.11961,127.65202 101.69512,101.69512 0 0 1 -137.58474,24.809773 101.69512,101.69512 0 0 1 -34.742478,125.34465 Z"
       prop_scale="1"
       scale_y_rel="false"
       vertical="false" />
    <inkscape:path-effect
       effect="bend_path"
       id="path-effect4426"
       is_visible="true"
       bendpath="m -152.05469,273.82241 224.494413,0"
       prop_scale="1"
       scale_y_rel="false"
       vertical="false" />
    <inkscape:path-effect
       effect="ruler"
       id="path-effect4172"
       is_visible="true"
       unit="px"
       mark_distance="10"
       mark_length="20"
       minor_mark_length="10"
       major_mark_steps="3"
       shift="0"
       offset="0"
       mark_dir="left"
       border_marks="both" />
    <inkscape:path-effect
       effect="bend_path"
       id="path-effect4375"
       is_visible="true"
       bendpath="M 90.275137,271.70687 C 68.572574,249.25108 55.228309,218.72518 55.228307,185.09514 55.228301,116.11085 111.377,60.188038 180.63992,60.188038 c 69.26292,1e-5 125.4116,55.922812 125.4116,124.907102 l 0,0 c 0,33.59507 -13.31652,64.09241 -34.97912,86.54161"
       prop_scale="1"
       scale_y_rel="false"
       vertical="false" />
    <inkscape:path-effect
       effect="ruler"
       id="path-effect3338"
       is_visible="true"
       unit="px"
       mark_distance="11"
       mark_length="26"
       minor_mark_length="13"
       major_mark_steps="5"
       shift="0"
       offset="0"
       mark_dir="right"
       border_marks="none" />
    <inkscape:path-effect
       effect="ruler"
       id="path-effect3338-7"
       is_visible="true"
       unit="px"
       mark_distance="11"
       mark_length="26"
       minor_mark_length="0"
       major_mark_steps="5"
       shift="0"
       offset="0"
       mark_dir="right"
       border_marks="none" />
    <filter
       style="color-interpolation-filters:sRGB"
       inkscape:label="Drop Shadow"
       id="filter4519">
      <feFlood
         flood-opacity="0.419608"
         flood-color="rgb(0,0,0)"
         result="flood"
         id="feFlood4521" />
      <feComposite
         in="flood"
         in2="SourceGraphic"
         operator="in"
         result="composite1"
         id="feComposite4523" />
      <feGaussianBlur
         in="composite1"
         stdDeviation="2"
         result="blur"
         id="feGaussianBlur4525" />
      <feOffset
         dx="2"
         dy="2"
         result="offset"
         id="feOffset4527" />
      <feComposite
         in="SourceGraphic"
         in2="offset"
         operator="over"
         result="composite2"
         id="feComposite4529" />
    </filter>
    <inkscape:path-effect
       vertical="false"
       scale_y_rel="false"
       prop_scale="1"
       bendpath="M 90.275137,271.70687 C 68.572574,249.25108 55.228309,218.72518 55.228307,185.09514 55.228301,116.11085 111.377,60.188038 180.63992,60.188038 c 69.26292,1e-5 125.4116,55.922812 125.4116,124.907102 l 0,0 c 0,33.59507 -13.31652,64.09241 -34.97912,86.54161"
       is_visible="true"
       id="path-effect4375-6"
       effect="bend_path" />
    <inkscape:path-effect
       border_marks="none"
       mark_dir="right"
       offset="0"
       shift="0"
       major_mark_steps="5"
       minor_mark_length="13"
       mark_length="26"
       mark_distance="11"
       unit="px"
       is_visible="true"
       id="path-effect3338-9"
       effect="ruler" />
    <inkscape:path-effect
       border_marks="none"
       mark_dir="right"
       offset="0"
       shift="0"
       major_mark_steps="5"
       minor_mark_length="0"
       mark_length="26"
       mark_distance="11"
       unit="px"
       is_visible="true"
       id="path-effect3338-7-7"
       effect="ruler" />
    <filter
       id="filter4519-2"
       inkscape:label="Drop Shadow"
       style="color-interpolation-filters:sRGB">
      <feFlood
         id="feFlood4521-4"
         result="flood"
         flood-color="rgb(0,0,0)"
         flood-opacity="0.419608" />
      <feComposite
         id="feComposite4523-5"
         result="composite1"
         operator="in"
         in2="SourceGraphic"
         in="flood" />
      <feGaussianBlur
         id="feGaussianBlur4525-1"
         result="blur"
         stdDeviation="2"
         in="composite1" />
      <feOffset
         id="feOffset4527-8"
         result="offset"
         dy="2"
         dx="2" />
      <feComposite
         id="feComposite4529-6"
         result="composite2"
         operator="over"
         in2="offset"
         in="SourceGraphic" />
    </filter>
    <filter
       inkscape:collect="always"
       style="color-interpolation-filters:sRGB"
       id="filter4332"
       x="-0.41139282"
       width="1.8227856"
       y="-0.070244945"
       height="1.1404899">
      <feGaussianBlur
         inkscape:collect="always"
         stdDeviation="2.5623053"
         id="feGaussianBlur4334" />
    </filter>
    <filter
       inkscape:collect="always"
       style="color-interpolation-filters:sRGB"
       id="filter4846"
       x="-0.012174084"
       width="1.0243483"
       y="-0.011830825"
       height="1.0236616">
      <feGaussianBlur
         inkscape:collect="always"
         stdDeviation="0.60806253"
         id="feGaussianBlur4848" />
    </filter>
  </defs>
  <sodipodi:namedview
     id="base"
     pagecolor="#63564d"
     bordercolor="#666666"
     borderopacity="1.0"
     inkscape:pageopacity="1"
     inkscape:pageshadow="2"
     inkscape:zoom="2.8284272"
     inkscape:cx="191.73165"
     inkscape:cy="106.81144"
     inkscape:document-units="px"
     inkscape:current-layer="layer1"
     showgrid="false"
     inkscape:window-width="1920"
     inkscape:window-height="1017"
     inkscape:window-x="-8"
     inkscape:window-y="-8"
     inkscape:window-maximized="1"
     units="px" />
  <metadata
     id="metadata7">
    <rdf:RDF>
      <cc:Work
         rdf:about="">
        <dc:format>image/svg+xml</dc:format>
        <dc:type
           rdf:resource="http://purl.org/dc/dcmitype/StillImage" />
        <dc:title />
      </cc:Work>
    </rdf:RDF>
  </metadata>
  <g
     inkscape:label="Layer 1"
     inkscape:groupmode="layer"
     id="layer1">
    <circle
       style="fill:#110e0c;fill-opacity:1;stroke:#000000;stroke-width:7.98756123;stroke-miterlimit:4;stroke-dasharray:none;stroke-opacity:0.24852074"
       id="center"
       cy="125"
       cx="125"
       r="111.00622"
       inkscape:label="#path4382" />
    <text
       xml:space="preserve"
       style="font-style:normal;font-weight:normal;font-size:20px;line-height:125%;font-family:sans-serif;letter-spacing:0px;word-spacing:0px;fill:#000000;fill-opacity:1;stroke:none;stroke-width:1px;stroke-linecap:butt;stroke-linejoin:miter;stroke-opacity:1"
       x="200.35715"
       y="-17.499998"
       id="text4692"
       sodipodi:linespacing="125%"><tspan
         sodipodi:role="line"
         id="tspan4694"
         x="200.35715"
         y="-17.499998" /></text>
    <path
       id="compass"
       style="font-style:normal;font-weight:normal;font-size:medium;line-height:125%;font-family:sans-serif;letter-spacing:0px;word-spacing:0px;fill:#b1937e;fill-opacity:1;stroke:none;stroke-width:1px;stroke-linecap:butt;stroke-linejoin:miter;stroke-opacity:1"
       d="m 199.41765,64.31099 -5.28398,-5.84946 q -0.73207,0.6613 -1.08032,1.376002 -0.34114,0.708282 -0.3427,1.406685 -0.007,0.677763 0.27797,1.336488 0.29169,0.665828 0.84384,1.277073 0.73193,0.810252 1.79011,1.338696 1.0717,0.529131 1.69903,0.5949 l 0.0642,0.07107 -1.45704,1.316179 q -0.89424,-0.418395 -1.72175,-0.948685 -0.82753,-0.53029 -1.52735,-1.305007 -1.78486,-1.975881 -1.72033,-4.047707 0.0717,-2.078247 2.04043,-3.856694 1.94745,-1.759186 4.0484,-1.733853 2.10736,0.03244 3.67393,1.766667 1.45101,1.606292 1.29611,3.320896 -0.14848,1.721711 -1.8756,3.281866 l -0.72496,0.65488 z m -0.15146,-2.225205 q 1.04549,-0.957325 1.14609,-2.00333 0.10702,-1.038898 -0.85604,-2.105021 -0.96947,-1.073231 -2.17988,-1.14149 -1.20399,-0.06115 -2.21921,0.70105 l 4.10904,4.548791 z m -12.15896,-3.400957 -1.37271,-1.165351 3.94237,-4.643853 q 0.47729,-0.562227 0.82688,-1.107225 0.3558,-0.552301 0.41611,-0.978532 0.0778,-0.461636 -0.14141,-0.899007 -0.213,-0.444672 -0.76063,-0.909573 -0.56223,-0.477298 -1.41112,-0.720523 -0.84888,-0.243227 -1.77684,-0.289727 l -5.16969,6.08958 -1.37271,-1.165351 6.92392,-8.155948 1.37271,1.165351 -0.76863,0.905405 q 1.09505,0.01246 2.03554,0.295771 0.94051,0.283307 1.66337,0.896976 1.3216,1.12196 1.3396,2.506715 0.018,1.384754 -1.25273,2.881594 l -4.49404,5.293699 z m -57.12916,-24.501027 -2.34655,0.01507 -6.84385,-12.714185 0.0819,12.757608 -1.77189,0.01138 -0.0916,-14.261321 2.94038,-0.01888 6.24288,11.606976 -0.0748,-11.646587 1.77188,-0.01138 0.0916,14.261322 z m -64.92158,8.649505 4.789769,9.964273 -1.271502,1.077374 -7.428392,-4.514694 3.248513,8.056406 -1.264195,1.071182 -9.064645,-6.342066 1.432266,-1.213593 6.853945,5.051651 -3.317124,-8.048486 1.132659,-0.959729 7.445851,4.550115 -3.938259,-7.522182 1.381114,-1.170251 z m -5.677995,19.356713 -1.176383,1.363268 -4.611908,-3.979678 q -0.558361,-0.481816 -1.100523,-0.835796 -0.549414,-0.360238 -0.975144,-0.423983 -0.460995,-0.08152 -0.900119,0.134147 -0.446375,0.209413 -0.915677,0.75327 -0.481816,0.55836 -0.73188,1.40526 -0.250064,0.8469 -0.304045,1.774444 l 6.047692,5.218634 -1.176383,1.363269 -8.099847,-6.989466 1.176383,-1.363269 0.899177,0.775912 q 0.02129,-1.094913 0.312176,-2.033099 0.290883,-0.938186 0.910361,-1.656077 1.132581,-1.312509 2.517436,-1.319343 1.384854,-0.0068 2.871397,1.275924 l 5.257287,4.536583 z m -39.120012,52.211511 14.205746,3.91534 -0.03131,2.13566 -11.88106,2.82405 11.794151,3.10408 -0.03061,2.08777 L 20,132.0327 l 0.0285,-1.94412 11.900213,-2.82377 -11.813024,-3.12352 0.02822,-1.92497 12.014857,-2.80293 -11.927526,-3.15393 0.02724,-1.85793 z m 24.024485,72.12159 9.861086,-4.99876 1.103939,1.24851 -4.357096,7.52191 7.986136,-3.41762 1.097594,1.24133 -6.149569,9.19633 -1.243517,-1.40637 4.906043,-6.95892 -7.97677,3.48606 -0.983393,-1.11218 4.392142,-7.54011 -7.43749,4.09596 -1.199105,-1.35614 z m 16.89491,7.06738 q 0.946839,-1.11848 2.481717,-1.04895 1.527569,0.0633 3.128523,1.41863 0.906477,0.76737 1.48728,1.62297 0.567306,0.85672 0.862429,1.54577 l -1.30577,1.54248 -0.0731,-0.0619 q -0.235987,-1.04056 -0.785269,-2.00751 -0.555471,-0.95965 -1.286501,-1.5785 -0.906476,-0.76737 -1.665736,-0.90815 -0.759259,-0.14078 -1.291469,0.4879 -0.408441,0.48248 -0.341057,0.96619 0.06738,0.48371 0.70837,1.32752 0.236715,0.31333 0.637622,0.80331 0.393597,0.48378 0.694403,0.91411 0.833262,1.19481 0.822364,2.12677 -0.0244,0.93308 -0.70513,1.73722 -0.427006,0.50441 -1.009192,0.77705 -0.589497,0.26646 -1.310541,0.25843 -0.700238,-0.003 -1.496009,-0.33781 -0.809273,-0.33371 -1.591474,-0.99588 -0.73103,-0.61884 -1.321967,-1.43282 -0.604437,-0.81287 -0.884939,-1.48954 l 1.243885,-1.46938 0.0731,0.0619 q 0.198351,0.83302 0.728526,1.7336 0.523986,0.90789 1.247705,1.52055 0.75296,0.63742 1.519531,0.78439 0.760381,0.15428 1.243082,-0.41592 0.427007,-0.5044 0.329261,-1.02638 -0.09044,-0.51577 -0.641456,-1.25831 -0.305872,-0.40953 -0.69947,-0.89332 -0.400907,-0.48997 -0.653365,-0.82918 -0.771993,-1.03 -0.839265,-2.00304 -0.06108,-0.98034 0.693913,-1.87219 z m 57.623442,25.92832 q 0.005,-0.83327 0.40207,-1.64514 0.38775,-0.81194 1.09015,-1.37306 0.76972,-0.60861 1.7965,-0.94758 1.01722,-0.33902 2.45389,-0.33085 1.54203,0.009 2.77593,0.30314 1.22433,0.29432 2.49496,0.86666 l -0.0135,2.3753 -0.1341,-7.6e-4 q -1.07716,-0.90648 -2.4919,-1.40301 -1.41475,-0.49654 -2.65986,-0.50363 -1.76232,-0.01 -2.74302,0.64528 -0.99028,0.65526 -0.99654,1.7567 -0.005,0.94821 0.46135,1.40104 0.45717,0.45278 1.40396,0.7072 0.71725,0.19564 1.55939,0.32495 0.83256,0.12925 1.77009,0.32615 1.89412,0.41306 2.80809,1.38565 0.90433,0.98213 0.89545,2.54331 -0.0102,1.79105 -1.52998,2.9222 -1.51984,1.14073 -3.84725,1.12748 -1.50372,-0.009 -2.75678,-0.30303 -1.25306,-0.29448 -2.21802,-0.72141 l 0.0127,-2.24121 0.13409,7.6e-4 q 0.81019,0.69424 2.13895,1.15197 1.31912,0.46727 2.70791,0.47516 1.52287,0.009 2.45552,-0.61817 0.92307,-0.6269 0.92874,-1.62301 0.005,-0.89072 -0.45177,-1.40097 -0.45686,-0.51024 -1.61424,-0.78502 -0.61223,-0.13757 -1.74131,-0.33556 -1.1291,-0.19799 -1.91334,-0.4036 -1.58752,-0.43047 -2.3872,-1.28747 -0.79968,-0.85702 -0.79097,-2.38947 z m 67.22609,-20.65565 5.81545,-5.32138 q -0.66597,-0.72781 -1.3829,-1.07146 -0.71045,-0.3366 -1.40885,-0.33368 -0.67779,-0.003 -1.33468,0.28653 -0.66394,0.29595 -1.27163,0.85201 -0.80555,0.73711 -1.32719,1.79865 -0.52225,1.07509 -0.584,1.70283 l -0.0706,0.0647 -1.3255,-1.44856 q 0.41265,-0.8969 0.93763,-1.7278 0.52497,-0.83091 1.29518,-1.53569 1.9644,-1.7975 4.03659,-1.74624 2.07867,0.0583 3.8697,2.01565 1.77164,1.93613 1.75978,4.03719 -0.0189,2.10752 -1.74307,3.68519 -1.59695,1.46128 -3.31252,1.31738 -1.72262,-0.13744 -3.29382,-1.85452 l -0.65952,-0.72075 z m 2.22419,-0.16574 q 0.96401,1.03933 2.01064,1.13322 1.03956,0.10035 2.09949,-0.86952 1.06699,-0.97634 1.12748,-2.18716 0.0534,-1.20435 -0.71526,-2.21467 l -4.52235,4.13813 z m 5.05266,-9.53351 q -1.11185,-0.95461 -1.03162,-2.48897 0.074,-1.52709 1.4404,-3.11856 0.77368,-0.9011 1.6333,-1.47592 0.86065,-0.56133 1.55176,-0.85164 l 1.53332,1.31649 -0.0624,0.0727 q -1.04219,0.22873 -2.01295,0.77126 -0.96349,0.54877 -1.58742,1.27547 -0.77367,0.9011 -0.91974,1.65936 -0.14608,0.75826 0.47889,1.29484 0.47961,0.41179 0.96378,0.34778 0.48417,-0.064 1.33242,-0.69909 0.31498,-0.23453 0.80774,-0.63202 0.48652,-0.39021 0.91894,-0.68801 1.20058,-0.82491 2.13245,-0.80751 0.93289,0.0309 1.73225,0.71722 0.50142,0.43051 0.77001,1.01458 0.26234,0.59135 0.24928,1.31231 -0.008,0.7002 -0.34822,1.49362 -0.33935,0.80693 -1.00695,1.58449 -0.62393,0.7267 -1.44202,1.31195 -0.81705,0.59876 -1.49567,0.87454 l -1.46066,-1.25411 0.0624,-0.0727 q 0.83438,-0.19253 1.73864,-0.71641 0.91152,-0.51765 1.52922,-1.23708 0.64265,-0.7485 0.79495,-1.51403 0.15958,-0.75928 -0.40724,-1.24595 -0.50142,-0.43051 -1.02406,-0.3364 -0.5164,0.0868 -1.26276,0.63266 -0.41164,0.30301 -0.89816,0.69323 -0.49276,0.39748 -0.83372,0.64756 -1.03536,0.7648 -2.00884,0.82529 -0.98075,0.0542 -1.86732,-0.70695 z m 22.43854,-61.3872 -0.23387,-9.39309 14.2572,-0.35498 0.23387,9.3931 -1.68521,0.042 -0.18666,-7.49724 -3.9066,0.0973 0.18666,7.49723 -1.6852,0.042 -0.18667,-7.49724 -5.29498,0.13184 0.18666,7.49723 -1.6852,0.042 z"
       inkscape:label="#path4218" />
    <text
       xml:space="preserve"
       style="font-style:normal;font-weight:normal;font-size:20px;line-height:125%;font-family:sans-serif;letter-spacing:0px;word-spacing:0px;fill:#000000;fill-opacity:1;stroke:none;stroke-width:1px;stroke-linecap:butt;stroke-linejoin:miter;stroke-opacity:1"
       id="text4186"
       sodipodi:linespacing="125%"
       y="146"
       x="-245.99998"><tspan
         sodipodi:role="line"
         id="tspan4188"
         x="-245.99998"
         y="146" /></text>
    <g
       id="g4385">
      <path
         id="path4455"
         d="M 121.35501,48.400617 C 108.08243,48.333006 94.788612,51.8924 83.36723,58.785259 l 3.681723,4.715533 c 1.270941,-0.587542 2.616527,-1.479248 4.00164,-2.363375 9.400967,-4.90692 19.862157,-7.157322 30.304417,-6.99477 l 0,-5.74203 z M 68.542328,70.697495 C 55.115122,84.247717 48.014276,103.27043 47.955368,122.27107 l 5.551248,0 c -0.04242,-5.81706 0.673976,-11.64745 2.243059,-17.32145 2.815133,-11.108964 8.557319,-21.384927 16.337538,-29.712349 l -3.544885,-4.539776 z"
         style="color:#000000;font-style:normal;font-variant:normal;font-weight:normal;font-stretch:normal;font-size:medium;line-height:normal;font-family:sans-serif;text-indent:0;text-align:start;text-decoration:none;text-decoration-line:none;text-decoration-style:solid;text-decoration-color:#000000;letter-spacing:normal;word-spacing:normal;text-transform:none;direction:ltr;block-progression:tb;writing-mode:lr-tb;baseline-shift:baseline;text-anchor:start;white-space:normal;clip-rule:nonzero;display:inline;overflow:visible;visibility:visible;opacity:1;isolation:auto;mix-blend-mode:normal;color-interpolation:sRGB;color-interpolation-filters:linearRGB;solid-color:#000000;solid-opacity:1;fill:#69120f;fill-opacity:1;fill-rule:nonzero;stroke:none;stroke-width:2;stroke-linecap:butt;stroke-linejoin:miter;stroke-miterlimit:4;stroke-dasharray:none;stroke-dashoffset:0;stroke-opacity:1;color-rendering:auto;image-rendering:auto;shape-rendering:auto;text-rendering:auto;enable-background:accumulate"
         inkscape:connector-curvature="0" />
      <path
         id="path4453"
         d="m 120.22557,73.124944 c -3.4913,0.04888 -6.98617,0.511987 -10.41345,1.425274 -3.81578,0.910319 -7.47627,2.388827 -10.968729,4.206888 l 3.625599,4.747187 c 0.5664,-0.267548 1.15657,-0.616841 1.77223,-1.052653 5.48944,-2.575488 11.41687,-3.697324 17.32029,-3.554801 l 0,-5.76258 c -0.44521,-0.0072 -0.89045,-0.01555 -1.33594,-0.0094 z M 84.36444,90.593402 C 76.68481,99.537164 72.810181,111.36456 72.804365,123.18467 l 5.513208,0 c 0.02308,-10.08591 3.246172,-20.18131 9.51562,-28.049022 L 84.36444,90.593402 Z"
         style="color:#000000;font-style:normal;font-variant:normal;font-weight:normal;font-stretch:normal;font-size:medium;line-height:normal;font-family:sans-serif;text-indent:0;text-align:start;text-decoration:none;text-decoration-line:none;text-decoration-style:solid;text-decoration-color:#000000;letter-spacing:normal;word-spacing:normal;text-transform:none;direction:ltr;block-progression:tb;writing-mode:lr-tb;baseline-shift:baseline;text-anchor:start;white-space:normal;clip-rule:nonzero;display:inline;overflow:visible;visibility:visible;opacity:1;isolation:auto;mix-blend-mode:normal;color-interpolation:sRGB;color-interpolation-filters:linearRGB;solid-color:#000000;solid-opacity:1;fill:#69570f;fill-opacity:1;fill-rule:nonzero;stroke:none;stroke-width:2;stroke-linecap:butt;stroke-linejoin:miter;stroke-miterlimit:4;stroke-dasharray:none;stroke-dashoffset:0;stroke-opacity:1;color-rendering:auto;image-rendering:auto;shape-rendering:auto;text-rendering:auto;enable-background:accumulate"
         inkscape:connector-curvature="0" />
      <path
         inkscape:connector-curvature="0"
         d="m 149.02533,124.99981 a 24.024815,24.024584 0 0 1 -24.02482,24.02458 24.024815,24.024584 0 0 1 -24.02481,-24.02458 24.024815,24.024584 0 0 1 24.02481,-24.02459 24.024815,24.024584 0 0 1 24.02482,24.02459 z M 125.00015,75.985346 a 49.014558,49.014089 0 0 1 45.28354,30.257214 49.014558,49.014089 0 0 1 -10.62501,53.41508 49.014558,49.014089 0 0 1 -53.4156,10.62492 49.014558,49.014089 0 0 1 -30.2575,-45.28312 m 49.0142,-74.012125 a 74.012465,74.011756 0 0 1 68.3786,45.688687 74.012465,74.011756 0 0 1 -16.04389,80.657298 74.012465,74.011756 0 0 1 -80.658058,16.04373 74.012465,74.011756 0 0 1 -45.689121,-68.37795"
         style="opacity:1;fill:none;fill-opacity:1;stroke:#b1937e;stroke-width:1.97442591;stroke-linecap:round;stroke-miterlimit:4;stroke-dasharray:3.94885181, 7.89770362;stroke-dashoffset:0;stroke-opacity:1"
         id="path4340" />
      <g
         id="windKnots"
         inkscape:label="#g4260">
        <path
           d="m 83.199968,62.462511 q 0.714816,0.855444 1.126639,1.662705 0.408021,0.80271 0.441612,1.508744 0.0321,0.722735 -0.30562,1.391307 -0.341518,0.664018 -1.115061,1.310396 -0.759885,0.634967 -1.486927,0.856119 -0.727037,0.221148 -1.431822,0.05279 -0.709336,-0.164558 -1.410813,-0.698871 -0.705283,-0.53886 -1.4201,-1.394305 -0.73763,-0.882747 -1.12664,-1.662705 -0.389009,-0.77996 -0.428709,-1.511799 -0.0359,-0.727285 0.31472,-1.398911 0.350618,-0.671621 1.096856,-1.295184 0.778094,-0.650182 1.499834,-0.859176 0.717937,-0.213544 1.434878,-0.03989 0.704785,0.168362 1.402459,0.698126 0.693877,0.525209 1.408694,1.380654 z m -1.760944,1.471459 q -1.026599,-1.228565 -1.701215,-1.545774 -0.678414,-0.321763 -1.238097,0.145913 -0.559678,0.467672 -0.363587,1.192468 0.192294,0.720241 1.226497,1.957906 1.007587,1.205813 1.698158,1.532873 0.69057,0.32706 1.241149,-0.133008 0.550583,-0.460072 0.351435,-1.197768 -0.199149,-0.737697 -1.21434,-1.95261 z m -5.304335,4.795533 q 0.382657,0.0048 0.727537,0.149349 0.344884,0.144547 0.69849,0.567719 0.399233,0.477775 0.554123,1.051542 0.159442,0.569962 0.01527,1.192716 -0.142683,0.606055 -0.532135,1.194215 -0.388701,0.579806 -1.125839,1.195765 -0.841798,0.703414 -1.557241,1.077148 -0.710899,0.369939 -1.225445,0.521712 L 72.446121,74.19174 72.62358,74.043454 q 0.589034,-0.09038 1.274997,-0.369932 0.690511,-0.283355 1.140986,-0.659776 0.263915,-0.22053 0.539111,-0.520031 0.271391,-0.304054 0.363586,-0.628366 0.0733,-0.254439 0.04033,-0.497345 -0.03678,-0.247456 -0.291525,-0.552322 -0.247144,-0.295765 -0.51673,-0.340957 -0.273382,-0.04975 -0.55338,0.06831 -0.283799,0.113507 -0.601563,0.371307 -0.321572,0.253253 -0.590035,0.477583 l -0.373124,0.311786 -1.011389,-1.210364 0.386771,-0.323189 q 0.354919,-0.296573 0.608923,-0.547459 0.254004,-0.250886 0.376672,-0.49248 0.127969,-0.253753 0.110204,-0.478458 -0.02156,-0.229259 -0.253498,-0.506824 -0.1711,-0.20476 -0.378416,-0.240166 -0.211117,-0.03995 -0.431212,0.02032 -0.2459,0.06638 -0.509877,0.240599 -0.26397,0.174215 -0.436882,0.318702 -0.427723,0.357408 -0.802772,0.925807 -0.378856,0.563852 -0.615596,1.233045 l -0.16836,0.140683 -1.228116,-1.469728 q 0.247646,-0.461939 0.775162,-1.134557 0.523718,-0.677173 1.1835,-1.228492 0.641587,-0.536115 1.218965,-0.825392 0.57358,-0.29383 1.043438,-0.369625 0.559428,-0.08882 1.00759,0.07761 0.448167,0.166426 0.805575,0.594148 0.471475,0.56423 0.493721,1.302927 0.01845,0.734143 -0.452223,1.336079 l 0.05323,0.0637 q 0.25868,-0.162062 0.597889,-0.283234 0.33921,-0.121171 0.705158,-0.117864 z"
           style="font-style:normal;font-variant:normal;font-weight:bold;font-stretch:normal;font-size:medium;line-height:125%;font-family:sans-serif;-inkscape-font-specification:'sans-serif Bold';text-align:center;letter-spacing:0px;word-spacing:0px;text-anchor:middle;fill:#b1937e;fill-opacity:1;stroke:none;stroke-width:1px;stroke-linecap:butt;stroke-linejoin:miter;stroke-opacity:1"
           id="path4209"
           inkscape:connector-curvature="0" />
        <path
           d="m 94.675277,70.556646 q 0.413491,0.494839 0.224115,1.169853 -0.191752,0.67217 -0.962447,1.316169 -0.426586,0.356459 -0.840081,0.566749 -0.413495,0.210291 -0.704741,0.28945 l -0.70341,-0.841794 0.09385,-0.07842 q 0.121939,-0.01013 0.276131,-0.02789 0.154663,-0.02299 0.401298,-0.103506 0.213917,-0.06767 0.456233,-0.188046 0.23994,-0.123219 0.470294,-0.315705 0.301457,-0.251899 0.391839,-0.438505 0.08801,-0.189449 -0.02131,-0.320269 -0.09743,-0.1166 -0.225526,-0.0965 -0.13047,0.01726 -0.409754,0.168528 -0.135142,0.06946 -0.355134,0.20499 -0.219527,0.130311 -0.414432,0.220733 -0.530173,0.249831 -0.940238,0.186796 -0.412441,-0.06588 -0.711865,-0.42421 -0.384975,-0.460712 -0.204131,-1.128597 0.181311,-0.673104 0.93779,-1.305224 0.35833,-0.299423 0.747162,-0.498765 0.389303,-0.204564 0.643073,-0.276556 l 0.674893,0.807667 -0.08816,0.07367 q -0.358213,0.0337 -0.731931,0.18177 -0.373251,0.142856 -0.671861,0.392377 -0.247421,0.206747 -0.361021,0.417583 -0.110754,0.208458 -0.0062,0.333589 0.09506,0.113756 0.221742,0.109317 0.126692,-0.0044 0.460986,-0.182358 0.182553,-0.09942 0.387858,-0.217846 0.205774,-0.123654 0.425805,-0.230236 0.49176,-0.232222 0.875257,-0.166305 0.38112,0.06307 0.66391,0.401497 z m -2.562009,3.811887 q -0.129304,0.180489 -0.295146,0.357708 -0.163463,0.180056 -0.430794,0.40344 -0.597215,0.499037 -1.092133,0.502077 -0.492067,6.56e-4 -0.981602,-0.585187 l -1.247602,-1.493047 -0.420897,0.351705 -0.579838,-0.693912 0.420897,-0.351705 -0.76282,-0.912891 1.023801,-0.855497 0.76282,0.912892 0.958396,-0.800844 0.579838,0.693911 -0.958396,0.800844 0.945801,1.131872 q 0.140207,0.16779 0.247564,0.290586 0.107356,0.122795 0.233257,0.186628 0.122965,0.06629 0.272427,0.04282 0.14991,-0.02867 0.343296,-0.190268 0.07963,-0.06654 0.17909,-0.207603 0.102303,-0.143439 0.129727,-0.214652 l 0.08532,-0.07129 0.586967,0.702443 z m -4.090723,0.757117 q 0.658259,0.78776 0.577769,1.627759 -0.08002,0.834779 -0.91044,1.528681 -0.83042,0.693906 -1.668977,0.626701 -0.838091,-0.07242 -1.49635,-0.860185 -0.663012,-0.793448 -0.580145,-1.630603 0.08571,-0.839533 0.910444,-1.528685 0.836105,-0.698656 1.671349,-0.623853 0.838092,0.07242 1.49635,0.860185 z m -0.611095,1.829124 q -0.0026,-0.20546 -0.09689,-0.416493 -0.09377,-0.216255 -0.34804,-0.520552 -0.235262,-0.281546 -0.445673,-0.42931 -0.210406,-0.147768 -0.396465,-0.18548 -0.188441,-0.04055 -0.35681,0.01803 -0.168375,0.05859 -0.316257,0.182163 -0.147886,0.123575 -0.231214,0.26082 -0.08049,0.13487 -0.0859,0.34224 -0.0012,0.189334 0.103544,0.430247 0.107559,0.238537 0.352327,0.531459 0.218627,0.261639 0.428568,0.414625 0.207564,0.150143 0.398846,0.18832 0.183683,0.03487 0.351592,-0.0185 0.170751,-0.05575 0.332853,-0.191201 0.13935,-0.116442 0.226456,-0.266506 0.08758,-0.155284 0.08306,-0.339864 z m -2.264726,3.283356 -1.02949,0.860251 -1.323647,-1.584052 q -0.161595,-0.193385 -0.340708,-0.367301 -0.18149,-0.17676 -0.305895,-0.227355 -0.144804,-0.0577 -0.296111,-0.01337 -0.14847,0.04196 -0.344698,0.205929 -0.13935,0.116442 -0.246365,0.283142 -0.104173,0.164325 -0.188793,0.404068 l 1.891603,2.263744 -1.023801,0.855496 -2.668681,-3.193699 1.023801,-0.855497 0.294672,0.352644 q 0.09479,-0.441426 0.249995,-0.764305 0.15805,-0.325252 0.465191,-0.581902 0.51759,-0.432502 1.059565,-0.373441 0.544818,0.05669 1.046235,0.656749 l 1.737138,2.078891 z m -3.731195,3.117817 -1.191592,0.995704 -2.057882,-0.642104 0.0041,0.571308 0.879263,1.052243 -1.023806,0.8555 -3.697656,-4.425107 1.023806,-0.855501 2.207662,2.641983 -0.07526,-2.33261 1.180219,-0.986201 0.0012,2.336507 2.749917,0.788278 z"
           style="font-style:normal;font-variant:normal;font-weight:bold;font-stretch:normal;font-size:12.5px;line-height:125%;font-family:sans-serif;-inkscape-font-specification:'sans-serif Bold';text-align:center;letter-spacing:0px;word-spacing:0px;text-anchor:middle;fill:#b1937e;fill-opacity:1;stroke:none;stroke-width:1px;stroke-linecap:butt;stroke-linejoin:miter;stroke-opacity:1"
           id="path4219"
           inkscape:connector-curvature="0" />
        <path
           d="m 99.017189,81.391504 q 0.714816,0.855444 1.126641,1.662705 0.40802,0.80271 0.44161,1.508744 0.0321,0.722735 -0.30562,1.391307 -0.341518,0.664018 -1.115061,1.310396 -0.759885,0.634967 -1.486927,0.856118 -0.727037,0.221149 -1.431822,0.05279 -0.709336,-0.164558 -1.410813,-0.698872 -0.705283,-0.538859 -1.4201,-1.394305 -0.73763,-0.882746 -1.12664,-1.662705 -0.389009,-0.779959 -0.428709,-1.511798 -0.0359,-0.727285 0.31472,-1.398911 0.350618,-0.671621 1.096856,-1.295184 0.778094,-0.650182 1.499834,-0.859176 0.717937,-0.213544 1.434878,-0.03989 0.704785,0.168362 1.402459,0.698125 0.693877,0.52521 1.408694,1.380655 z m -1.760944,1.471459 q -1.026599,-1.228565 -1.701215,-1.545774 -0.678414,-0.321763 -1.238097,0.145913 -0.559678,0.467672 -0.363587,1.192467 0.192294,0.720242 1.226497,1.957907 1.007587,1.205813 1.698158,1.532873 0.69057,0.327059 1.241149,-0.133008 0.550583,-0.460072 0.351435,-1.197768 -0.199149,-0.737697 -1.21434,-1.95261 z m -1.986048,7.416472 -5.319232,4.444793 -0.935345,-1.119359 q 0.240916,-0.950868 0.436209,-1.956344 0.199841,-1.009275 0.268032,-1.676722 0.105719,-0.992446 0.007,-1.582231 -0.09873,-0.589785 -0.421917,-0.976555 -0.387827,-0.464125 -0.897264,-0.463442 -0.508691,-0.0077 -1.06837,0.460005 -0.418623,0.349805 -0.738261,0.910538 -0.315091,0.556934 -0.486631,1.156191 L 85.9688,89.59798 84.710267,88.091851 q 0.205198,-0.411015 0.715264,-1.07678 0.514613,-0.669565 1.147096,-1.198072 1.274064,-1.064619 2.391612,-1.086618 1.113746,-0.02655 1.931223,0.951753 0.536113,0.641583 0.695927,1.489421 0.164362,0.844038 0.01788,2.00964 -0.09468,0.72822 -0.24335,1.401093 -0.152468,0.668321 -0.223466,0.944014 l 3.044113,-2.543685 1.083632,1.296818 z"
           style="font-style:normal;font-variant:normal;font-weight:bold;font-stretch:normal;font-size:medium;line-height:125%;font-family:sans-serif;-inkscape-font-specification:'sans-serif Bold';text-align:center;letter-spacing:0px;word-spacing:0px;text-anchor:middle;fill:#b1937e;fill-opacity:1;stroke:none;stroke-width:1px;stroke-linecap:butt;stroke-linejoin:miter;stroke-opacity:1"
           id="path4223"
           inkscape:connector-curvature="0" />
      </g>
      <g
         id="windKmh"
         inkscape:label="#g4268">
        <path
           d="m 83.960886,62.194243 q 0.678364,0.870856 1.058509,1.683738 0.376537,0.808251 0.385811,1.508108 0.0072,0.716342 -0.349698,1.366517 -0.360533,0.645547 -1.148006,1.258959 -0.77358,0.60259 -1.5006,0.796763 -0.727016,0.19417 -1.418782,0.0036 -0.696401,-0.186939 -1.372468,-0.739538 -0.67968,-0.557227 -1.358045,-1.428083 -0.700014,-0.898649 -1.058509,-1.683738 -0.358491,-0.785093 -0.372934,-1.510696 -0.01083,-0.720974 0.358962,-1.373733 0.369796,-0.652762 1.129478,-1.244526 0.792108,-0.617022 1.513468,-0.799343 0.717751,-0.186954 1.421369,0.0093 0.691767,0.19055 1.36423,0.738512 0.66885,0.543334 1.347215,1.41419 z m -1.792663,1.396418 q -0.974247,-1.250698 -1.631104,-1.587528 -0.660465,-0.341463 -1.230226,0.10236 -0.569762,0.443823 -0.400313,1.167769 0.16584,0.719314 1.147304,1.979276 0.956205,1.227536 1.628516,1.574658 0.672316,0.347117 1.232814,-0.08949 0.560497,-0.436607 0.388461,-1.173423 -0.172031,-0.736821 -1.135452,-1.973622 z m -4.055999,4.930896 q 0.414957,0.532705 0.584842,1.152109 0.169891,0.619401 0.06682,1.213257 -0.108196,0.635059 -0.463117,1.201805 -0.350292,0.56314 -1.012696,1.079128 -0.620715,0.483514 -1.264793,0.71728 -0.643052,0.225524 -1.279619,0.163164 -0.731846,-0.07001 -1.444924,-0.526796 -0.713078,-0.456781 -1.395051,-1.33227 -0.707231,-0.907913 -1.047247,-1.774383 -0.340017,-0.86647 -0.289702,-1.77649 0.04982,-0.872422 0.548735,-1.722519 0.50354,-0.853702 1.504096,-1.633098 0.338151,-0.263407 0.777238,-0.531007 0.439088,-0.267601 0.577568,-0.338259 l 1.057238,1.357239 -0.176023,0.137114 q -0.171981,0.03721 -0.530806,0.197633 -0.357803,0.152184 -0.737644,0.448066 -0.889385,0.692798 -1.045853,1.51432 -0.156464,0.821517 0.347827,1.679111 0.190696,-0.490922 0.483402,-0.927332 0.293727,-0.444648 0.752318,-0.801873 0.403003,-0.313924 0.817955,-0.488297 0.419581,-0.177979 0.874809,-0.205094 0.593758,-0.03082 1.178983,0.242717 0.585226,0.273541 1.115649,0.954477 z m -1.295785,2.684035 q 0.02091,-0.269352 -0.06169,-0.547383 -0.08158,-0.286273 -0.370243,-0.65685 -0.263408,-0.338152 -0.526668,-0.475459 -0.266868,-0.141938 -0.53929,-0.138135 -0.267796,2e-4 -0.530855,0.130684 -0.266672,0.125855 -0.507546,0.313487 -0.203818,0.158767 -0.39008,0.37829 -0.186261,0.219523 -0.317424,0.433336 0.03608,0.04632 0.114331,0.156558 0.07825,0.110236 0.204539,0.272363 0.443824,0.569762 0.84366,0.853741 0.400863,0.275738 0.742333,0.32235 0.241561,0.04256 0.471708,-0.02507 0.226543,-0.07227 0.430362,-0.231035 0.15286,-0.119073 0.284026,-0.33289 0.131162,-0.213815 0.152615,-0.453815 z"
           style="font-style:normal;font-variant:normal;font-weight:bold;font-stretch:normal;font-size:medium;line-height:125%;font-family:sans-serif;-inkscape-font-specification:'sans-serif Bold';text-align:center;letter-spacing:0px;word-spacing:0px;text-anchor:middle;fill:#b1937e;fill-opacity:1;stroke:none;stroke-width:1px;stroke-linecap:butt;stroke-linejoin:miter;stroke-opacity:1"
           id="path4194"
           inkscape:connector-curvature="0" />
        <path
           d="m 93.569757,73.397447 -1.048037,0.816382 -1.256147,-1.61259 q -0.153354,-0.196869 -0.324706,-0.375065 -0.173608,-0.181092 -0.295002,-0.23539 -0.141344,-0.06202 -0.292595,-0.02328 -0.148351,0.03648 -0.348119,0.192091 -0.14186,0.110504 -0.253428,0.271844 -0.108669,0.159081 -0.200553,0.393467 l 1.79514,2.304526 -1.04225,0.811874 -3.509092,-4.504827 1.04225,-0.811874 1.256147,1.612589 q 0.108794,-0.433635 0.273358,-0.747899 0.167457,-0.316516 0.480132,-0.560078 0.526914,-0.410447 1.061269,-0.333594 0.53725,0.0746 1.013097,0.685473 l 1.648552,2.116342 z m -8.158644,2.652406 1.79514,2.304527 -1.048037,0.816381 -1.265168,-1.62417 q -0.184926,-0.237401 -0.325046,-0.393407 -0.142376,-0.158903 -0.275684,-0.222528 -0.133302,-0.06363 -0.276506,-0.02651 -0.14256,0.03197 -0.333637,0.18081 -0.153444,0.119527 -0.248589,0.295981 -0.09739,0.173556 -0.159075,0.333247 l 1.79514,2.304526 -1.04225,0.811874 -2.53259,-3.251235 1.04225,-0.811874 0.279645,0.358997 q 0.104614,-0.421076 0.258238,-0.731469 0.153624,-0.310393 0.451821,-0.542677 0.32136,-0.250328 0.680207,-0.297264 0.356592,-0.04983 0.712058,0.119852 0.107451,-0.507019 0.285485,-0.887597 0.178034,-0.380578 0.461755,-0.601586 0.526914,-0.410446 1.044873,-0.306865 0.520858,0.101323 0.983174,0.694825 l 1.648552,2.116343 -1.048042,0.816385 -1.265168,-1.62417 q -0.187182,-0.240296 -0.327302,-0.396303 -0.137227,-0.158261 -0.27053,-0.22189 -0.130404,-0.06589 -0.273607,-0.02877 -0.145458,0.03423 -0.339434,0.185326 -0.130282,0.101485 -0.218688,0.244782 -0.09066,0.140399 -0.188974,0.384448 z m -1.916422,5.195695 -1.21306,0.944928 -2.014761,-0.705331 -0.01535,0.565529 0.834424,1.071199 -1.04225,0.811874 -3.509092,-4.504828 1.04225,-0.811874 2.095081,2.689579 0.0047,-2.311002 1.201481,-0.935909 -0.07812,2.312346 2.694665,0.873489 z"
           style="font-style:normal;font-variant:normal;font-weight:bold;font-stretch:normal;font-size:12.5px;line-height:125%;font-family:sans-serif;-inkscape-font-specification:'sans-serif Bold';text-align:center;letter-spacing:0px;word-spacing:0px;text-anchor:middle;fill:#b1937e;fill-opacity:1;stroke:none;stroke-width:1px;stroke-linecap:butt;stroke-linejoin:miter;stroke-opacity:1"
           id="path4200"
           inkscape:connector-curvature="0" />
        <path
           d="m 98.971502,81.46425 q 0.678364,0.870856 1.058508,1.683738 0.37654,0.80825 0.38581,1.508108 0.007,0.716342 -0.3497,1.366517 -0.360528,0.645546 -1.148002,1.258959 -0.77358,0.60259 -1.5006,0.796763 -0.727015,0.19417 -1.418782,0.0036 -0.696401,-0.186939 -1.372468,-0.739538 -0.67968,-0.557227 -1.358045,-1.428083 -0.700014,-0.898649 -1.058509,-1.683738 -0.358491,-0.785093 -0.372934,-1.510696 -0.01083,-0.720974 0.358962,-1.373733 0.369797,-0.652762 1.129478,-1.244526 0.792108,-0.617022 1.513468,-0.799344 0.717751,-0.186953 1.421369,0.0093 0.691767,0.19055 1.36423,0.738512 0.66885,0.543334 1.347215,1.41419 z m -1.792663,1.396418 Q 96.204592,81.60997 95.547735,81.27314 94.88727,80.931677 94.317509,81.3755 q -0.569762,0.443823 -0.400313,1.167769 0.16584,0.719314 1.147304,1.979276 0.956205,1.227536 1.628516,1.574657 0.672316,0.347118 1.232814,-0.08949 0.560497,-0.436607 0.388462,-1.173424 -0.172032,-0.736821 -1.135453,-1.973621 z m -3.357693,5.607587 -0.940339,0.732489 1.252088,1.607378 -1.700025,1.324256 -1.252087,-1.607378 -3.339823,2.601597 -1.017547,-1.306284 0.111063,-6.517231 1.811195,-1.410854 3.153673,4.048554 0.940338,-0.732489 0.981464,1.259962 z m -3.621827,0.796783 -1.941277,-2.492131 -0.06447,4.054532 2.005745,-1.562401 z"
           style="font-style:normal;font-variant:normal;font-weight:bold;font-stretch:normal;font-size:medium;line-height:125%;font-family:sans-serif;-inkscape-font-specification:'sans-serif Bold';text-align:center;letter-spacing:0px;word-spacing:0px;text-anchor:middle;fill:#b1937e;fill-opacity:1;stroke:none;stroke-width:1px;stroke-linecap:butt;stroke-linejoin:miter;stroke-opacity:1"
           id="path4204"
           inkscape:connector-curvature="0" />
      </g>
    </g>
    <g
       id="airplane"
       inkscape:label="#g4850"
       transform="translate(-0.62799985,-0.70798051)">
      <path
         inkscape:connector-curvature="0"
         style="fill:none;fill-opacity:1;fill-rule:evenodd;stroke:#000000;stroke-width:2;stroke-linecap:butt;stroke-linejoin:miter;stroke-miterlimit:4;stroke-dasharray:none;stroke-opacity:1;filter:url(#filter4846)"
         d="m 125.98893,64.803186 c -2.86226,0.0578 -5.8044,3.94686 -7.46112,15.12408 -0.36866,2.48722 -2.11541,17.52919 -2.30258,23.567814 -4.29045,2.78497 -43.075803,28.81242 -45.964433,35.76865 -2.84497,6.85108 -1.35375,14.08237 -1.35375,14.08237 l 47.321973,-23.4623 c 2.08804,14.71671 3.96265,26.55766 5.56315,39.11829 0,0 -13.65121,9.24521 -15.01983,11.53375 -1.36863,2.28854 -0.8585,7.61842 -0.8585,7.61842 l 20.43043,-5.3528 20.42948,5.3528 c 0,0 0.51014,-5.32988 -0.85849,-7.61842 -1.36862,-2.28854 -15.01984,-11.53375 -15.01984,-11.53375 1.6005,-12.56063 3.47511,-24.40158 5.56315,-39.11829 l 44.82198,21.85515 c 0,0 3.99122,-5.62414 1.14625,-12.47522 -2.88864,-6.95623 -41.46484,-32.52949 -45.96444,-35.76865 -0.18717,-6.406174 -1.93392,-21.080594 -2.30258,-23.567814 -1.65672,-11.17722 -4.59886,-15.06626 -7.46112,-15.12408 -0.11813,-0.002 -0.23654,0.005 -0.35439,0.0161 -0.11816,-0.0107 -0.23689,-0.0185 -0.35534,-0.0161 z"
         id="path4844"
         sodipodi:nodetypes="cscscccscccscccscsccc" />
      <path
         sodipodi:nodetypes="cscscccscccscccscscc"
         id="airplane-5-7"
         d="m 124.78924,62.803186 c -2.86226,0.0578 -5.8044,3.94686 -7.46112,15.12408 -0.36866,2.48722 -2.11541,17.52919 -2.30258,23.567814 -4.29045,2.78497 -43.075805,28.81242 -45.964435,35.76865 -2.84497,6.85108 -0.639464,13.36808 -0.639464,13.36808 L 115.02933,127.8838 c 2.08804,14.71671 3.96265,26.55766 5.56315,39.11829 0,0 -13.65121,9.24521 -15.01983,11.53375 -1.36863,2.28854 -0.8585,7.61842 -0.8585,7.61842 l 20.43043,-5.3528 20.42948,5.3528 c 0,0 0.51014,-5.32988 -0.85849,-7.61842 -1.36862,-2.28854 -15.01984,-11.53375 -15.01984,-11.53375 1.6005,-12.56063 3.47511,-24.40158 5.56315,-39.11829 l 46.78627,22.03372 c 0,0 2.02693,-5.80271 -0.81804,-12.65379 -2.88864,-6.95623 -41.46484,-32.52949 -45.96444,-35.76865 -0.18717,-6.406174 -1.93392,-21.080594 -2.30258,-23.567814 -1.65672,-11.17722 -4.59886,-15.06626 -7.46112,-15.12408 -0.24434,0.02012 -0.48282,0 -0.70973,0 z"
         style="fill:none;fill-opacity:1;fill-rule:evenodd;stroke:#594436;stroke-width:2;stroke-linecap:butt;stroke-linejoin:miter;stroke-miterlimit:4;stroke-dasharray:none;stroke-opacity:1"
         inkscape:connector-curvature="0" />
    </g>
    <g
       id="handle"
       inkscape:label="#g4402">
      <circle
         r="1"
         cy="125"
         cx="125"
         id="path4790"
         style="opacity:0.60500004;fill:#7b1512;fill-opacity:1;stroke:none;stroke-width:2;stroke-linecap:round;stroke-miterlimit:4;stroke-dasharray:none;stroke-opacity:0.60392157" />
      <path
         sodipodi:nodetypes="ccccc"
         style="color:#000000;font-style:normal;font-variant:normal;font-weight:normal;font-stretch:normal;font-size:medium;line-height:normal;font-family:sans-serif;text-indent:0;text-align:start;text-decoration:none;text-decoration-line:none;text-decoration-style:solid;text-decoration-color:#000000;letter-spacing:normal;word-spacing:normal;text-transform:none;direction:ltr;block-progression:tb;writing-mode:lr-tb;baseline-shift:baseline;text-anchor:start;white-space:normal;clip-rule:nonzero;display:inline;overflow:visible;visibility:visible;opacity:0.553;isolation:auto;mix-blend-mode:normal;color-interpolation:sRGB;color-interpolation-filters:linearRGB;solid-color:#000000;solid-opacity:1;fill:#000000;fill-opacity:1;fill-rule:nonzero;stroke:none;stroke-width:5;stroke-linecap:butt;stroke-linejoin:miter;stroke-miterlimit:4;stroke-dasharray:none;stroke-dashoffset:0;stroke-opacity:1;filter:url(#filter4332);color-rendering:auto;image-rendering:auto;shape-rendering:auto;text-rendering:auto;enable-background:accumulate"
         d="m 132.12467,133.68094 -2.56543,-85.096669 c -0.26495,-3.299351 -9.66916,-3.227482 -9.76437,0.0014 l -2.61828,84.908419 z"
         id="path4559"
         inkscape:connector-curvature="0"
         transform="matrix(2.3081879,0,0,1.8581054,-163.44145,-42.963793)" />
      <path
         sodipodi:nodetypes="ccccc"
         inkscape:connector-curvature="0"
         id="rect4452"
         d="M 121.43743,50.177398 127.82887,50 l 6.82203,150 -20.46678,-0.22813 z"
         style="fill:#b1937e;fill-opacity:1;stroke:none;stroke-width:5;stroke-miterlimit:4;stroke-dasharray:none;stroke-opacity:0.35503001" />
    </g>
  </g>
</svg>
