<?xml version="1.0" encoding="UTF-8" standalone="no"?>
<!-- Created with Inkscape (http://www.inkscape.org/) -->

<svg
   xmlns:dc="http://purl.org/dc/elements/1.1/"
   xmlns:cc="http://creativecommons.org/ns#"
   xmlns:rdf="http://www.w3.org/1999/02/22-rdf-syntax-ns#"
   xmlns:svg="http://www.w3.org/2000/svg"
   xmlns="http://www.w3.org/2000/svg"
   xmlns:sodipodi="http://sodipodi.sourceforge.net/DTD/sodipodi-0.dtd"
   xmlns:inkscape="http://www.inkscape.org/namespaces/inkscape"
   width="250"
   height="250"
   viewBox="0 0 250 250"
   id="gaugeYawHeading"
   version="1.1"
   inkscape:version="0.91 r13725"
   sodipodi:docname="gaugeYawHeading.svg">
  <defs
     id="defs4">
    <inkscape:path-effect
       effect="bend_path"
       id="path-effect4681"
       is_visible="true"
       bendpath="M -34.742478,125.34465 A 101.69512,101.69512 0 0 1 -135.27736,228.18691 101.69512,101.69512 0 0 1 -238.11961,127.65202 101.69512,101.69512 0 0 1 -137.58474,24.809773 101.69512,101.69512 0 0 1 -34.742478,125.34465 Z"
       prop_scale="1"
       scale_y_rel="false"
       vertical="false" />
    <inkscape:path-effect
       effect="bend_path"
       id="path-effect4426"
       is_visible="true"
       bendpath="m -152.05469,273.82241 224.494413,0"
       prop_scale="1"
       scale_y_rel="false"
       vertical="false" />
    <inkscape:path-effect
       effect="ruler"
       id="path-effect4172"
       is_visible="true"
       unit="px"
       mark_distance="10"
       mark_length="20"
       minor_mark_length="10"
       major_mark_steps="3"
       shift="0"
       offset="0"
       mark_dir="left"
       border_marks="both" />
    <inkscape:path-effect
       effect="bend_path"
       id="path-effect4375"
       is_visible="true"
       bendpath="M 90.275137,271.70687 C 68.572574,249.25108 55.228309,218.72518 55.228307,185.09514 55.228301,116.11085 111.377,60.188038 180.63992,60.188038 c 69.26292,1e-5 125.4116,55.922812 125.4116,124.907102 l 0,0 c 0,33.59507 -13.31652,64.09241 -34.97912,86.54161"
       prop_scale="1"
       scale_y_rel="false"
       vertical="false" />
    <inkscape:path-effect
       effect="ruler"
       id="path-effect3338"
       is_visible="true"
       unit="px"
       mark_distance="11"
       mark_length="26"
       minor_mark_length="13"
       major_mark_steps="5"
       shift="0"
       offset="0"
       mark_dir="right"
       border_marks="none" />
    <inkscape:path-effect
       effect="ruler"
       id="path-effect3338-7"
       is_visible="true"
       unit="px"
       mark_distance="11"
       mark_length="26"
       minor_mark_length="0"
       major_mark_steps="5"
       shift="0"
       offset="0"
       mark_dir="right"
       border_marks="none" />
    <filter
       style="color-interpolation-filters:sRGB"
       inkscape:label="Drop Shadow"
       id="filter4519">
      <feFlood
         flood-opacity="0.419608"
         flood-color="rgb(0,0,0)"
         result="flood"
         id="feFlood4521" />
      <feComposite
         in="flood"
         in2="SourceGraphic"
         operator="in"
         result="composite1"
         id="feComposite4523" />
      <feGaussianBlur
         in="composite1"
         stdDeviation="2"
         result="blur"
         id="feGaussianBlur4525" />
      <feOffset
         dx="2"
         dy="2"
         result="offset"
         id="feOffset4527" />
      <feComposite
         in="SourceGraphic"
         in2="offset"
         operator="over"
         result="composite2"
         id="feComposite4529" />
    </filter>
    <filter
       inkscape:collect="always"
       style="color-interpolation-filters:sRGB"
       id="filter4846"
       x="-0.012174084"
       width="1.0243482"
       y="-0.011830825"
       height="1.0236616">
      <feGaussianBlur
         inkscape:collect="always"
         stdDeviation="0.60806253"
         id="feGaussianBlur4848" />
    </filter>
    <filter
       inkscape:collect="always"
       style="color-interpolation-filters:sRGB"
       id="filter4312"
       x="-0.38268318"
       width="1.7653664"
       y="-0.050996745"
       height="1.1019935">
      <feGaussianBlur
         inkscape:collect="always"
         stdDeviation="1.9818652"
         id="feGaussianBlur4314" />
    </filter>
  </defs>
  <sodipodi:namedview
     id="base"
     pagecolor="#63564d"
     bordercolor="#666666"
     borderopacity="1.0"
     inkscape:pageopacity="1"
     inkscape:pageshadow="2"
     inkscape:zoom="5.6568543"
     inkscape:cx="156.99048"
     inkscape:cy="161.60846"
     inkscape:document-units="px"
     inkscape:current-layer="layer1"
     showgrid="false"
     inkscape:window-width="1920"
     inkscape:window-height="1017"
     inkscape:window-x="-8"
     inkscape:window-y="-8"
     inkscape:window-maximized="1"
     units="px" />
  <metadata
     id="metadata7">
    <rdf:RDF>
      <cc:Work
         rdf:about="">
        <dc:format>image/svg+xml</dc:format>
        <dc:type
           rdf:resource="http://purl.org/dc/dcmitype/StillImage" />
        <dc:title />
      </cc:Work>
    </rdf:RDF>
  </metadata>
  <g
     inkscape:label="Layer 1"
     inkscape:groupmode="layer"
     id="layer1">
    <circle
       style="fill:#110e0c;fill-opacity:1;stroke:#000000;stroke-width:7.98756123;stroke-miterlimit:4;stroke-dasharray:none;stroke-opacity:0.24852074"
       id="center"
       cy="125"
       cx="125"
       r="111.00622"
       inkscape:label="#path4382" />
    <path
       inkscape:connector-curvature="0"
       d="m 83.805647,35.848083 c 0.33947,0.0865 0.66565,0.24737 0.97853,0.48264 0.31288,0.23527 0.59886,0.60109 0.85793,1.09745 0.25656,0.49155 0.40258,0.98867 0.43807,1.49136 0.0355,0.50268 -0.029,0.99008 -0.19339,1.46221 -0.18537,0.52598 -0.48106,0.99917 -0.88709,1.41958 -0.40373,0.41307 -0.89715,0.77178 -1.48026,1.07612 -0.59756,0.31189 -1.22322,0.54646 -1.87697,0.70372 -0.65123,0.16208 -1.2064,0.25562 -1.6655,0.28063 l -0.78853,-1.51079 0.10843,-0.0566 c 0.55048,0.0561 1.14934,0.0286 1.7966,-0.0823 0.64726,-0.11098 1.22871,-0.301 1.74436,-0.57012 0.3036,-0.15846 0.60007,-0.37759 0.8894,-0.65737 0.28934,-0.27978 0.48846,-0.5738 0.59738,-0.88205 0.11101,-0.32774 0.15287,-0.64699 0.12558,-0.95773 -0.0225,-0.31327 -0.13557,-0.66507 -0.33931,-1.05541 -0.20122,-0.38554 -0.42987,-0.6709 -0.68596,-0.85609 -0.25379,-0.19253 -0.52684,-0.30449 -0.81915,-0.33588 -0.29483,-0.0362 -0.61031,-4.2e-4 -0.94643,0.10727 -0.3386,0.10317 -0.68621,0.24777 -1.04282,0.43391 l -0.65058,0.33956 -0.6263,-1.19996 0.50601,-0.2641 c 0.7325,-0.38232 1.23638,-0.83846 1.51164,-1.36844 0.27756,-0.53731 0.26291,-1.09992 -0.0439,-1.68785 -0.13582,-0.26023 -0.30946,-0.45781 -0.52091,-0.59272 -0.21396,-0.13973 -0.45244,-0.22068 -0.71541,-0.24285 -0.27262,-0.0172 -0.53957,0.0118 -0.80086,0.0869 -0.2613,0.075 -0.54133,0.19053 -0.84011,0.3465 -0.45781,0.23895 -0.90178,0.57492 -1.33191,1.0079 -0.43012,0.43297 -0.79612,0.91833 -1.09799,1.45606 l -0.0723,0.0377 -0.78853,-1.51079 c 0.25412,-0.34725 0.62904,-0.73915 1.12475,-1.1757 0.49802,-0.44388 1.01448,-0.80543 1.5494,-1.08462 0.52528,-0.27416 1.01307,-0.46744 1.46336,-0.57982 0.45029,-0.11238 0.8922,-0.14684 1.32575,-0.10331 0.46771,0.0502 0.87624,0.19265 1.22558,0.42728 0.34934,0.23463 0.63846,0.57122 0.86734,1.00976 0.3119,0.59757 0.37276,1.23111 0.18259,1.90063 -0.18786,0.66218 -0.53834,1.20076 -1.05144,1.61573 l 0.0528,0.1012 c 0.25144,-0.0822 0.55925,-0.13859 0.92342,-0.16928 0.36164,-0.0357 0.69387,-0.016 0.9967,0.0592 z m -9.88598,5.48654 c 0.34717,0.0469 0.68969,0.16916 1.02756,0.36687 0.33786,0.19772 0.66402,0.52821 0.97847,0.99149 0.31139,0.45877 0.51363,0.93579 0.6067,1.43106 0.0931,0.49527 0.0851,0.98686 -0.0239,1.47475 -0.12363,0.54382 -0.36294,1.04788 -0.71791,1.5122 -0.35353,0.45677 -0.80242,0.86985 -1.34665,1.23924 -0.55772,0.37856 -1.15225,0.68354 -1.78357,0.91496 -0.62826,0.23591 -1.16899,0.39269 -1.62217,0.47034 l -0.95707,-1.41006 0.10119,-0.0687 c 0.55328,-0.008 1.14501,-0.10377 1.77522,-0.28842 0.6302,-0.18466 1.18593,-0.44032 1.66719,-0.76698 0.28336,-0.19233 0.55266,-0.4441 0.80789,-0.7553 0.25523,-0.31122 0.41922,-0.62619 0.49195,-0.94492 0.0726,-0.33834 0.0774,-0.66027 0.0146,-0.96582 -0.0584,-0.3086 -0.21117,-0.64506 -0.45845,-1.00938 -0.24424,-0.35983 -0.5042,-0.61699 -0.77989,-0.7715 -0.27425,-0.16206 -0.55836,-0.24186 -0.85235,-0.23942 -0.29704,-0.002 -0.6063,0.0697 -0.92772,0.21579 -0.32449,0.14141 -0.65315,0.32507 -0.98599,0.55098 l -0.6072,0.41214 -0.76017,-1.11995 0.47227,-0.32055 c 0.68366,-0.46404 1.13173,-0.97512 1.3442,-1.53323 0.21391,-0.56568 0.13464,-1.12287 -0.23781,-1.67161 -0.16486,-0.24288 -0.36007,-0.41916 -0.58563,-0.52886 -0.22862,-0.11419 -0.47482,-0.16717 -0.7386,-0.15895 -0.27278,0.0144 -0.53463,0.0738 -0.78555,0.17842 -0.25092,0.10462 -0.51581,0.25156 -0.79468,0.44083 -0.42729,0.29003 -0.82966,0.67483 -1.20713,1.15442 -0.37746,0.47958 -0.6852,1.00382 -0.92321,1.5727 l -0.0675,0.0457 -0.95708,-1.41005 c 0.2125,-0.37418 0.53984,-0.80661 0.98205,-1.29728 0.44365,-0.49823 0.9151,-0.91677 1.41435,-1.25564 0.49026,-0.33277 0.95258,-0.58088 1.38695,-0.7443 0.43438,-0.16343 0.8694,-0.24847 1.30508,-0.25511 0.47038,-0.004 0.89258,0.0906 1.26659,0.28347 0.37401,0.19289 0.69992,0.49398 0.97774,0.90328 0.37855,0.55773 0.51189,1.18007 0.4,1.86701 -0.11044,0.6794 -0.39665,1.25471 -0.85861,1.72596 l 0.0641,0.0944 c 0.24031,-0.11056 0.53959,-0.20201 0.89783,-0.27434 0.35518,-0.0768 0.68748,-0.0954 0.9969,-0.0558 z m -29.36841,26.88836 c 1.78961,1.24459 2.90838,2.43978 3.35633,3.5856 0.4466,1.13825 0.2602,2.29647 -0.55917,3.47467 -0.8318,1.19604 -1.8641,1.77591 -3.0969,1.7396 -1.2297,-0.0408 -2.72373,-0.67258 -4.4821,-1.89544 -1.77175,-1.23217 -2.88539,-2.42049 -3.34091,-3.56495 -0.45998,-1.14756 -0.27872,-2.31266 0.54376,-3.49532 0.83179,-1.19605 1.86923,-1.76903 3.11232,-1.71895 1.24172,0.0425 2.73062,0.66745 4.46667,1.87479 z m 1.81479,3.87422 c -0.25286,-0.4076 -0.60389,-0.80733 -1.0531,-1.19919 -0.45057,-0.39942 -1.01949,-0.83812 -1.70677,-1.31609 -0.67836,-0.47177 -1.28763,-0.85245 -1.82781,-1.14204 -0.53709,-0.29406 -1.03555,-0.48181 -1.49539,-0.56323 -0.45227,-0.0828 -0.86009,-0.0486 -1.22347,0.10259 -0.36027,0.14672 -0.68784,0.43207 -0.98269,0.85604 -0.29175,0.41952 -0.44681,0.82815 -0.46519,1.22588 -0.0153,0.39328 0.0975,0.79285 0.33834,1.19871 0.22472,0.3814 0.58245,0.78579 1.07319,1.21315 0.49383,0.42289 1.05761,0.8547 1.69134,1.29543 0.69621,0.48418 1.29568,0.86466 1.79842,1.14146 0.50274,0.2768 0.99519,0.46367 1.47734,0.56062 0.45052,0.0948 0.86039,0.072 1.22958,-0.0686 0.37231,-0.14498 0.71364,-0.44061 1.02401,-0.8869 0.29175,-0.41951 0.44682,-0.82814 0.46519,-1.22588 0.0184,-0.39774 -0.0959,-0.79507 -0.34299,-1.19201 z m -8.44343,6.5572 c 0.32945,-0.11907 0.68968,-0.16917 1.08069,-0.15025 0.391,0.0189 0.83307,0.16101 1.32619,0.4262 0.48834,0.26261 0.88835,0.59192 1.20003,0.98791 0.31169,0.39599 0.53209,0.83547 0.6612,1.31845 0.14203,0.5393 0.16313,1.09688 0.0633,1.67276 -0.10205,0.56851 -0.30884,1.14242 -0.62038,1.72171 -0.31926,0.59367 -0.70519,1.13913 -1.15778,1.6364 -0.4478,0.49985 -0.85461,0.88904 -1.22042,1.16757 l -1.50092,-0.80716 0.0579,-0.10772 c 0.48695,-0.26277 0.96705,-0.6218 1.44028,-1.07712 0.47322,-0.4553 0.84759,-0.93909 1.12307,-1.45137 0.16221,-0.30162 0.28444,-0.64943 0.36671,-1.04341 0.0823,-0.39399 0.0819,-0.74909 -10e-4,-1.06531 -0.0922,-0.33351 -0.23688,-0.62117 -0.43398,-0.86295 -0.19452,-0.24657 -0.48568,-0.47413 -0.87348,-0.68268 -0.38301,-0.20597 -0.73246,-0.31367 -1.04836,-0.32307 -0.31811,-0.0168 -0.60691,0.044 -0.8664,0.18215 -0.26427,0.13563 -0.50513,0.34249 -0.72257,0.62057 -0.22224,0.27551 -0.42861,0.5904 -0.61914,0.94469 l -0.34758,0.64632 -1.19211,-0.64109 0.27034,-0.5027 c 0.39135,-0.72771 0.55207,-1.38812 0.48218,-1.9812 -0.0721,-0.60046 -0.40021,-1.05774 -0.9843,-1.37185 -0.25853,-0.13903 -0.51316,-0.20499 -0.76388,-0.19786 -0.25551,0.005 -0.49829,0.0715 -0.72832,0.20086 -0.23519,0.13892 -0.4398,0.31281 -0.61384,0.52166 -0.17403,0.20884 -0.34087,0.46168 -0.5005,0.75851 -0.24459,0.45483 -0.42324,0.98214 -0.53596,1.58195 -0.11271,0.59981 -0.14295,1.20695 -0.0907,1.8214 l -0.0386,0.0719 -1.50092,-0.80716 c 0.0152,-0.43004 0.10534,-0.96486 0.27031,-1.60446 0.16276,-0.64697 0.38704,-1.23616 0.67283,-1.76758 0.28064,-0.52185 0.57568,-0.95571 0.88513,-1.30159 0.30945,-0.34588 0.65576,-0.62256 1.03892,-0.83004 0.41518,-0.22113 0.83318,-0.33272 1.254,-0.33479 0.42082,-0.002 0.84906,0.11406 1.28474,0.34836 0.59366,0.31926 0.99983,0.80927 1.2185,1.47001 0.21646,0.6534 0.22895,1.29586 0.0375,1.92737 l 0.10054,0.0541 c 0.16188,-0.20921 0.38488,-0.42876 0.66899,-0.65864 0.27932,-0.23246 0.5653,-0.40272 0.85794,-0.51075 z m -15.5718,35.502957 9.97451,6.10547 -0.10473,1.74181 -10.34415,-6.47895 -0.415,6.90213 -1.42438,-0.0856 0.49869,-8.29395 z m 9.79212,11.27777 0.44586,8.20713 -1.70167,0.0924 -1.55845,-1.6302 c -0.51978,-0.54883 -1.03463,-1.0571 -1.54455,-1.5248 -1.06623,-0.98733 -1.90564,-1.65761 -2.51822,-2.01086 -0.61802,-0.35295 -1.27171,-0.5107 -1.96106,-0.47326 -0.62965,0.0342 -1.10953,0.26987 -1.43964,0.707 -0.33584,0.43199 -0.48356,1.0198 -0.44316,1.76344 0.0268,0.49395 0.14273,1.02389 0.34768,1.58982 0.20495,0.56593 0.50144,1.11328 0.88948,1.64204 l 0.004,0.0814 -1.70982,0.0929 c -0.21091,-0.37506 -0.41247,-0.87857 -0.60468,-1.51052 -0.1925,-0.63739 -0.30512,-1.25733 -0.33785,-1.85984 -0.0675,-1.243 0.18079,-2.23369 0.74497,-2.97206 0.55874,-0.73808 1.35106,-1.13499 2.37695,-1.19072 0.46138,-0.0251 0.89615,0.0112 1.30431,0.10879 0.40243,0.0925 0.78897,0.24295 1.1596,0.45147 0.34804,0.19341 0.69271,0.42511 1.03402,0.6951 0.34101,0.26456 0.7207,0.58962 1.13906,0.9752 0.60149,0.54983 1.18773,1.11955 1.75872,1.70915 0.56556,0.58989 1.09091,1.14114 1.57606,1.65374 l -0.3543,-6.52173 z m 3.97255,40.0838 0.84035,1.5941 3.02229,-1.59325 0.73008,1.38492 -3.02229,1.59324 2.71117,5.14294 -1.65901,0.87458 -8.8006,-2.00656 -0.69965,-1.32721 6.56392,-3.46027 -0.84035,-1.59409 1.15409,-0.6084 z m 0.41633,3.58741 -4.8472,2.55527 7.04124,1.60669 -2.19404,-4.16196 z m 7.80896,4.41478 4.64369,6.78174 -1.40613,0.96283 q -1.08923,-0.29182 -2.17846,-0.58364 -1.09384,-0.29854 -2.11184,-0.50077 -2.13591,-0.43489 -3.19634,-0.41043 -1.06715,0.0291 -1.9216,0.61414 -0.78043,0.53439 -0.86302,1.35189 -0.0939,0.81537 0.53721,1.73709 0.41922,0.61224 1.12284,1.17798 0.70362,0.56574 1.61295,0.94121 l 0.0461,0.0673 -1.41286,0.96744 q -0.56257,-0.31645 -1.30128,-0.97674 -0.74332,-0.66702 -1.25468,-1.41382 -1.05497,-1.5407 -0.90706,-2.92668 0.14118,-1.38138 1.41276,-2.25207 0.57187,-0.39158 1.17109,-0.58448 0.58788,-0.19501 1.22541,-0.21649 0.5968,-0.0232 1.24463,0.0569 0.64323,0.0734 1.47988,0.24174 1.19937,0.23617 2.39061,0.54707 1.18451,0.31552 2.20573,0.59461 l -3.69007,-5.38906 1.15047,-0.78777 z m 24.91393,27.19467 5.63504,3.38219 -0.63784,1.06268 -2.16732,-1.30084 -4.18787,6.97738 2.16732,1.30084 -0.57069,0.95082 c -0.29364,-0.17624 -0.62224,-0.34177 -0.9858,-0.49658 -0.36636,-0.15015 -0.66374,-0.23037 -0.89214,-0.24066 -0.28434,-0.0122 -0.54025,0.034 -0.76774,0.13833 -0.23495,0.10624 -0.45267,0.30524 -0.65315,0.59701 l -1.08366,-0.65042 5.63139,-9.3824 -2.12537,-1.27567 z m 8.59107,5.00974 7.48448,3.39683 -0.70431,1.55184 -2.16584,0.62884 c -0.7269,0.20737 -1.41555,0.42911 -2.06595,0.66522 -1.36827,0.48937 -2.35057,0.92407 -2.9469,1.30412 -0.59858,0.385 -1.04053,0.89183 -1.32584,1.52048 -0.26061,0.57421 -0.27335,1.10868 -0.0382,1.60342 0.22793,0.49744 0.68097,0.90006 1.35913,1.20784 0.45045,0.20444 0.97398,0.34653 1.57057,0.42626 0.5966,0.0797 1.21901,0.0697 1.86724,-0.0301 l 0.0742,0.0337 -0.70767,1.55927 c -0.43009,0.0138 -0.96976,-0.0402 -1.61901,-0.16171 -0.65421,-0.12379 -1.25604,-0.31037 -1.8055,-0.55974 -1.13356,-0.51447 -1.8974,-1.19246 -2.29154,-2.03397 -0.39638,-0.83656 -0.38227,-1.72262 0.0423,-2.65818 0.19096,-0.42075 0.42402,-0.78957 0.69917,-1.10645 0.26795,-0.31417 0.58001,-0.58743 0.93619,-0.81978 0.33234,-0.21929 0.69708,-0.4179 1.09423,-0.59583 0.3922,-0.18018 0.85592,-0.3667 1.39118,-0.55956 0.76554,-0.27937 1.54168,-0.53603 2.32839,-0.76997 0.78447,-0.229 1.51609,-0.44019 2.19486,-0.63358 l -5.94748,-2.69927 z m 37.301133,15.38828 c 0.0587,-1.04751 0.51727,-1.89566 1.37575,-2.54446 0.85305,-0.6491 1.8983,-0.93899 3.13577,-0.86965 1.31345,0.0736 2.34195,0.4715 3.0855,1.19372 0.73812,0.72193 1.07752,1.61207 1.01823,2.67043 -0.0377,0.67301 -0.26716,1.26994 -0.68835,1.79079 -0.42149,0.52628 -0.99671,0.92962 -1.72566,1.21 l -0.003,0.0488 c 0.63184,0.38385 1.0936,0.79084 1.38528,1.22097 0.28626,0.42982 0.41205,0.9541 0.37738,1.57283 -0.0511,0.91182 -0.46816,1.65069 -1.25121,2.2166 -0.78305,0.56591 -1.75261,0.81648 -2.90866,0.75171 -1.21033,-0.0678 -2.16015,-0.41232 -2.84947,-1.0335 -0.68932,-0.62119 -1.00889,-1.37955 -0.95871,-2.27509 0.0307,-0.54817 0.23194,-1.07863 0.60367,-1.59136 0.37143,-0.50731 0.89658,-0.89167 1.57546,-1.15308 l 0.003,-0.0488 c -0.7416,-0.36823 -1.29984,-0.8024 -1.67471,-1.30252 -0.37487,-0.50013 -0.54163,-1.11926 -0.50027,-1.85739 z m 1.59785,6.02678 c -0.0325,0.58074 0.16685,1.0547 0.59817,1.42187 0.4256,0.37229 0.98575,0.5779 1.68047,0.61683 0.68386,0.0383 1.25473,-0.093 1.7126,-0.39405 0.45245,-0.30132 0.69418,-0.72878 0.7252,-1.28239 0.0219,-0.39078 -0.0676,-0.73608 -0.26863,-1.0359 -0.20672,-0.2947 -0.52637,-0.56578 -0.95895,-0.81324 -0.19534,-0.10895 -0.47586,-0.25261 -0.84153,-0.43099 -0.37111,-0.17868 -0.73288,-0.32962 -1.08532,-0.45282 -0.55739,0.32811 -0.95,0.67907 -1.17784,1.05286 -0.22783,0.3738 -0.35589,0.81307 -0.38417,1.31783 z m 0.0879,-6.0875 c -0.028,0.49933 0.0609,0.90448 0.26673,1.21546 0.20007,0.31611 0.61182,0.64407 1.23523,0.98389 0.2484,0.1337 0.52168,0.26062 0.81984,0.38078 0.29817,0.12015 0.69446,0.28663 1.18887,0.49945 0.50338,-0.23858 0.91709,-0.57746 1.24115,-1.01664 0.31863,-0.43949 0.49406,-0.94689 0.52629,-1.52221 0.0411,-0.73271 -0.17741,-1.35201 -0.65541,-1.85791 -0.47799,-0.5059 -1.10506,-0.7806 -1.88119,-0.82408 -0.79241,-0.0444 -1.43612,0.1237 -1.93112,0.50431 -0.50042,0.3803 -0.77055,0.92595 -0.81039,1.63695 z m 9.91256,-2.88639 6.56096,-0.38293 0.0722,1.2373 -2.52345,0.14728 0.47415,8.12387 2.52345,-0.14728 0.0646,1.10706 c -0.34188,0.02 -0.70661,0.0684 -1.09417,0.14554 -0.38724,0.0825 -0.67809,0.18388 -0.87254,0.30413 -0.24172,0.15024 -0.4271,0.33259 -0.55616,0.54704 -0.13417,0.22019 -0.20182,0.5073 -0.20294,0.8613 l -1.26172,0.0736 -0.63758,-10.92408 -2.47461,0.14443 z m 38.23664,-6.29048 q -0.39853,-0.74853 -0.48907,-1.57791 -0.0904,-0.82939 0.13541,-1.55012 0.24997,-0.77973 0.8241,-1.43644 0.57076,-0.64567 1.51362,-1.14767 0.87809,-0.46751 1.79104,-0.7134 0.90911,-0.25308 1.60846,-0.29287 l 0.80857,1.51866 -0.10077,0.0537 q -0.78945,-0.06 -1.72296,0.0952 -0.92967,0.16242 -1.6926,0.56861 -0.51102,0.27208 -0.90941,0.66894 -0.40559,0.4007 -0.58825,0.95984 -0.15192,0.47809 -0.0803,0.99425 0.0646,0.51996 0.36711,1.08858 0.29506,0.5542 0.69249,0.8322 0.39023,0.28183 0.85114,0.33205 0.51988,0.0742 1.11718,-0.10521 0.59391,-0.16841 1.25608,-0.52096 0.63338,-0.33722 1.17758,-0.73781 0.53701,-0.39677 0.91568,-0.70922 l 2.93917,5.52044 -6.44891,3.4335 -0.67061,-1.25955 5.05981,-2.69392 -1.5175,-2.85019 q -0.29416,0.19357 -0.61038,0.3804 -0.31622,0.18684 -0.55373,0.31329 -0.8709,0.46368 -1.60633,0.66125 -0.73161,0.20477 -1.47788,0.12173 -0.78656,-0.0893 -1.43664,-0.54686 -0.65007,-0.45757 -1.15206,-1.40044 z m 8.00053,-8.86426 5.40749,-3.73521 0.70441,1.01977 -2.07981,1.43662 4.625,6.69563 2.0798,-1.43662 0.63026,0.91243 q -0.42267,0.29196 -0.85937,0.69271 -0.43208,0.40747 -0.58763,0.71312 -0.19276,0.3809 -0.19109,0.75634 -3.8e-4,0.38677 0.27399,0.8414 l -1.0399,0.71831 -6.21919,-9.00354 -2.03956,1.40882 -0.7044,-1.01978 z m 26.15527,-24.04138 4.2012,-7.0644 1.46475,0.87109 c 0.12879,0.74065 0.25751,1.4813 0.38624,2.22196 0.12595,0.74533 0.27045,1.45422 0.43343,2.12669 0.33555,1.41388 0.65931,2.43811 0.97131,3.07271 0.31667,0.63737 0.77169,1.13249 1.36506,1.48537 0.54197,0.32231 1.07178,0.39389 1.58943,0.21474 0.51954,-0.1717 0.96964,-0.5776 1.3503,-1.21769 0.25285,-0.42518 0.45179,-0.92985 0.59681,-1.51402 0.14501,-0.58417 0.20365,-1.20389 0.17592,-1.85917 l 0.0416,-0.0701 1.47175,0.87525 c -0.0338,0.42898 -0.14681,0.95942 -0.33919,1.59132 -0.19515,0.63657 -0.44694,1.21416 -0.75536,1.73278 -0.63629,1.06994 -1.39435,1.75439 -2.27419,2.05336 -0.87515,0.30174 -1.75426,0.19004 -2.63731,-0.33511 -0.39714,-0.23618 -0.73801,-0.50847 -1.02264,-0.81687 -0.28271,-0.30095 -0.5199,-0.64124 -0.71157,-1.02086 -0.18132,-0.35449 -0.33851,-0.7389 -0.47158,-1.15324 -0.13584,-0.40967 -0.27011,-0.89113 -0.40279,-1.44438 -0.19327,-0.79168 -0.3628,-1.59138 -0.5086,-2.39909 -0.14112,-0.80493 -0.2704,-1.55537 -0.38776,-2.25132 l -3.33846,5.61367 -1.19842,-0.7127 z m 5.61292,-9.83926 2.6917,-5.99563 1.13069,0.50762 -1.03527,2.30601 7.42387,3.33289 1.03527,-2.30601 1.01167,0.45419 c -0.14026,0.31242 -0.26574,0.6583 -0.37646,1.03762 -0.10575,0.38155 -0.15022,0.68634 -0.13341,0.91435 0.0216,0.28378 0.0977,0.53244 0.22819,0.74599 0.1333,0.22072 0.35666,0.41336 0.67011,0.57791 l -0.51764,1.15301 -9.9828,-4.48171 -1.01523,2.26138 z m 19.71403,-39.60371 c -1.05995,0.0121 -2.02345,-0.0993 -2.89051,-0.33404 -0.86699,-0.22933 -1.60767,-0.58513 -2.22204,-1.06741 -0.62529,-0.48759 -1.11068,-1.1018 -1.45617,-1.84265 -0.34549,-0.74085 -0.52396,-1.61407 -0.53541,-2.61966 -0.003,-0.28265 0.0101,-0.54919 0.0398,-0.7996 0.0244,-0.25035 0.068,-0.47374 0.131,-0.67016 l 1.55731,-0.0177 0.001,0.0815 c -0.0797,0.15856 -0.15602,0.38232 -0.22884,0.67128 -0.0674,0.28889 -0.0991,0.60999 -0.095,0.96331 0.0137,1.20128 0.38314,2.13756 1.10839,2.80885 0.73074,0.67666 1.72998,1.06213 2.99772,1.15643 -0.31015,-0.50205 -0.53299,-0.9752 -0.66852,-1.41943 -0.13554,-0.44424 -0.20631,-0.92999 -0.21233,-1.45724 -0.006,-0.50008 0.038,-0.95452 0.13126,-1.36331 0.0933,-0.40335 0.27889,-0.81047 0.55691,-1.22136 0.32612,-0.48211 0.74327,-0.84838 1.25144,-1.0988 0.50823,-0.24499 1.11837,-0.37154 1.83044,-0.37965 1.23933,-0.0141 2.25228,0.38208 3.03887,1.18858 0.78658,0.8065 1.18655,1.7968 1.19992,2.9709 0.007,0.58704 -0.0795,1.13166 -0.25865,1.63385 -0.17368,0.50212 -0.44048,0.94278 -0.8004,1.32199 -0.4459,0.46717 -1.02345,0.82982 -1.73267,1.08797 -0.70379,0.25809 -1.61828,0.39354 -2.74345,0.40635 z m 0.33184,-1.651 c 0.84253,-0.01 1.51827,-0.10427 2.02724,-0.28402 0.50898,-0.17976 0.90306,-0.42345 1.18225,-0.73106 0.24169,-0.25827 0.41251,-0.53475 0.51244,-0.82945 0.10537,-0.29476 0.1561,-0.61336 0.15221,-0.95581 -0.009,-0.78274 -0.26058,-1.39961 -0.75498,-1.85064 -0.49435,-0.44558 -1.18452,-0.66333 -2.07054,-0.65325 -0.51638,0.006 -0.93681,0.0841 -1.26128,0.23454 -0.32447,0.15047 -0.60702,0.40105 -0.84766,0.75171 -0.16572,0.24653 -0.27681,0.51689 -0.33326,0.8111 -0.051,0.29414 -0.0745,0.62059 -0.0704,0.97934 0.005,0.42398 0.0667,0.85275 0.18588,1.2863 0.11914,0.43355 0.28954,0.83934 0.51129,1.21736 0.11421,0.004 0.2257,0.008 0.33448,0.0125 0.11426,0.01 0.25838,0.0134 0.43232,0.0114 z m -14.8249,-46.101797 q -1.61956,0.89614 -3.23911,0.39439 -1.60847,-0.49854 -2.46512,-2.04676 -0.43425,-0.78482 -0.54696,-1.56116 -0.11275,-0.77634 0.0929,-1.53312 0.25267,-0.94125 1.04458,-1.81741 0.79586,-0.86903 2.17284,-1.63093 1.41266,-0.78165 2.67007,-1.086 1.26136,-0.29721 2.47752,-0.10346 1.15361,0.18176 2.15183,0.92477 1.00534,0.73907 1.73567,2.05898 0.23292,0.42094 0.35515,0.72607 0.12224,0.30513 0.19134,0.64896 l -1.36272,0.75401 -0.0394,-0.0713 q -0.004,-0.25898 -0.13581,-0.71698 -0.12119,-0.45481 -0.3541,-0.87575 -0.84876,-1.53395 -2.31724,-1.91424 -1.46135,-0.38425 -3.1781,0.3699 0.69548,0.39798 1.20075,0.87325 0.51634,0.47845 0.93875,1.24186 0.37503,0.67779 0.53084,1.26255 0.16689,0.58794 0.0887,1.3394 -0.0878,0.86866 -0.57764,1.54973 -0.48587,0.6882 -1.43478,1.21324 z m -0.85846,-1.41675 q 0.66352,-0.36714 0.9882,-0.80772 0.32863,-0.43344 0.40098,-1.06057 0.0467,-0.45452 -0.10323,-0.89351 -0.14973,-0.43903 -0.39054,-0.87424 -0.33555,-0.60644 -0.76643,-1.04832 -0.43087,-0.44187 -1.0345,-0.82544 -0.16486,0.0726 -0.31864,0.14835 -0.14663,0.0719 -0.36781,0.1942 -1.12728,0.62373 -1.65734,1.21523 -0.51898,0.59469 -0.67209,1.21059 -0.13233,0.50189 -0.0729,0.96293 0.0705,0.46423 0.31918,0.91371 0.57242,1.03452 1.52793,1.27931 0.96265,0.24082 2.147,-0.41449 z m -33.28,-38.53432 c 0.093,0.33776 0.11475,0.7008 0.0652,1.08913 -0.0495,0.38834 -0.22566,0.81794 -0.52861,1.28881 -0.3,0.4663 -0.65958,0.83933 -1.07874,1.11909 -0.41915,0.27975 -0.87452,0.46511 -1.36611,0.55605 -0.54876,0.0994 -1.10628,0.0768 -1.67259,-0.0677 -0.55879,-0.1462 -1.11476,-0.39724 -1.66792,-0.75314 -0.56687,-0.36471 -1.08049,-0.7921 -1.54084,-1.2822 -0.46329,-0.48553 -0.81947,-0.92153 -1.06855,-1.30801 l 0.92208,-1.43319 0.10285,0.0662 c 0.22388,0.50601 0.54427,1.01272 0.96118,1.5201 0.4169,0.50739 0.86994,0.91845 1.35909,1.23315 0.28801,0.1853 0.6252,0.33436 1.01154,0.44718 0.38635,0.11283 0.74039,0.14023 1.06212,0.0822 0.33972,-0.0658 0.6378,-0.18758 0.89426,-0.36516 0.26103,-0.17465 0.51066,-0.44712 0.7489,-0.81741 0.2353,-0.36573 0.36999,-0.70568 0.40407,-1.01988 0.0416,-0.31583 0.004,-0.60849 -0.11382,-0.87799 -0.11454,-0.27408 -0.30193,-0.53037 -0.56215,-0.7689 -0.25729,-0.2431 -0.55508,-0.47348 -0.89338,-0.69113 l -0.61716,-0.39706 0.73236,-1.13832 0.48002,0.30882 c 0.69489,0.44707 1.3407,0.65896 1.93743,0.63565 0.60426,-0.0249 1.08579,-0.31623 1.44462,-0.87398 0.15883,-0.24687 0.24449,-0.49556 0.25699,-0.74607 0.0154,-0.25508 -0.0323,-0.50235 -0.14328,-0.7418 -0.12011,-0.24533 -0.27745,-0.46291 -0.47206,-0.65276 -0.19459,-0.18983 -0.43361,-0.37592 -0.71704,-0.55829 -0.4343,-0.27941 -0.94603,-0.49875 -1.53519,-0.65803 -0.58916,-0.15928 -1.19207,-0.23691 -1.80872,-0.23288 l -0.0686,-0.0442 0.92207,-1.43319 c 0.42752,0.0488 0.95366,0.18049 1.5784,0.39497 0.63226,0.21286 1.20211,0.48253 1.70955,0.80901 0.49831,0.32059 0.90777,0.64867 1.22838,0.98421 0.32062,0.33556 0.56936,0.70244 0.74624,1.10065 0.18797,0.4312 0.26654,0.85665 0.23568,1.27635 -0.0308,0.41969 -0.1801,0.83754 -0.44776,1.25355 -0.36471,0.56688 -0.88498,0.93348 -1.56081,1.09981 -0.66832,0.1647 -1.30978,0.12694 -1.92439,-0.11339 l -0.0618,0.096 c 0.1959,0.17776 0.39734,0.41724 0.60431,0.71846 0.20991,0.29664 0.35726,0.59506 0.44207,0.89525 z m -47.08905,-15.84808 q -0.0389,3.26953 -1.08453,4.79013 -1.03734,1.51255 -3.18984,1.48691 -2.18512,-0.026 -3.17769,-1.58721 -0.98442,-1.5611 -0.94616,-4.77354 0.0385,-3.23691 1.07608,-4.76577 1.03763,-1.53701 3.19829,-1.51128 2.18512,0.026 3.16924,1.61158 0.99238,1.5775 0.95461,4.74918 z m -2.18844,3.67611 q 0.29324,-0.65702 0.40166,-1.54458 0.11668,-0.89561 0.13163,-2.15124 0.0148,-1.23932 -0.0804,-2.15377 -0.087,-0.91435 -0.37292,-1.55381 -0.27789,-0.63121 -0.77146,-0.95512 -0.48542,-0.32381 -1.25999,-0.33304 -0.76643,-0.009 -1.27573,0.30284 -0.50114,0.31206 -0.80234,0.95268 -0.2844,0.60006 -0.40195,1.56905 -0.1094,0.96909 -0.12319,2.12688 -0.0151,1.27193 0.0643,2.12911 0.0795,0.85718 0.36495,1.53741 0.26149,0.63917 0.74671,0.97929 0.49338,0.34021 1.30872,0.34992 0.76643,0.009 1.27573,-0.30283 0.50929,-0.31197 0.79418,-0.95279 z M 37.373747,124.97943 c 4.35804,-0.15802 8.6643,-0.0453 13.01941,-0.16552 -0.0143,-0.54679 -0.0209,-1.0934 -0.0199,-1.63971 -4.34647,0.007 -8.69471,0.0315 -13.04465,0.0755 m 2.10799,-13.59837 c 2.58705,0.43328 5.17286,0.87275 7.75741,1.31838 0.0543,-0.28933 0.11047,-0.57833 0.1684,-0.86699 -2.57852,-0.47627 -5.15837,-0.94632 -7.73953,-1.41011 -0.064,0.31923 -0.12613,0.63893 -0.18633,0.95906 z m 4.48198,-14.882307 c 2.46995,0.89141 4.93791,1.78843 7.40388,2.69107 0.10564,-0.27428 0.21287,-0.54801 0.32168,-0.82118 -2.45581,-0.93161 -4.91362,-1.85774 -7.37343,-2.77841 -0.11905,0.30207 -0.23639,0.6048 -0.35201,0.90818 z m 6.6332,-12.2584 c 3.80685,2.12369 7.60623,4.26122 11.39809,6.41255 0.28297,-0.47875 0.57122,-0.95483 0.86467,-1.42811 -3.74683,-2.23358 -7.50138,-4.45377 -11.26359,-6.66047 -0.33909,0.55518 -0.67218,1.11388 -0.99918,1.67602 z m 8.83209,-12.61804 c 2.0675,1.6572 4.13165,3.31863 6.19241,4.98422 0.1908,-0.2284 0.38279,-0.45586 0.57596,-0.68233 -2.0437,-1.68693 -4.09082,-3.36972 -6.14136,-5.04835 -0.21031,0.24774 -0.41932,0.49655 -0.62701,0.74646 z m 11.16522,-11.32353 c -0.24641,0.2122 -0.49172,0.42568 -0.7359,0.64044 1.78212,1.96189 3.56016,3.9273 5.33412,5.89622 0.22432,-0.1959 0.44964,-0.39063 0.67594,-0.58418 -1.75389,-1.98757 -3.51191,-3.97169 -5.27405,-5.95234 z m 10.8378,-7.98738 c 2.3865,3.61904 4.75981,7.24606 7.11987,10.88098 0.47194,-0.29819 0.9468,-0.59118 1.42449,-0.87888 -2.27924,-3.6831 -4.57187,-7.35862 -6.87783,-11.02648 -0.55915,0.33544 -1.11469,0.67692 -1.66652,1.02436 z m 14.61491,-7.4256 c -0.30214,0.12059 -0.60356,0.24289 -0.90424,0.36687 1.04478,2.41792 2.08407,4.83801 3.11785,7.26026 0.27326,-0.11173 0.54714,-0.22184 0.82159,-0.33038 -1.00616,-2.43432 -2.01786,-4.86651 -3.03511,-7.29659 z m 13.397983,-4.05009 c 0.59187,2.56845 1.17753,5.13842 1.75697,7.70987 0.28957,-0.0602 0.57954,-0.11861 0.8699,-0.17526 -0.54771,-2.57929 -1.10168,-5.15713 -1.66192,-7.73353 -0.32217,0.0644 -0.64383,0.13068 -0.96496,0.1989 z m 16.53092,-1.7227 c -0.622,-0.008 -1.24492,-0.01 -1.86866,-0.003 -0.0433,4.8e-4 -0.0865,0.003 -0.12972,0.003 0.0657,1.71907 0.12846,3.43851 0.1883,5.1583 0.0929,2.67088 0.17869,5.34122 0.25738,8.01101 0.5525,-0.0147 1.10478,-0.0219 1.65675,-0.0212 -0.0145,-4.38084 -0.0483,-8.76345 -0.10109,-13.14776 l -0.003,-5e-5 3.7e-4,-1.9e-4 z m 13.59112,1.36598 c -0.43122,2.60373 -0.86871,5.2062 -1.31245,7.80739 0.29134,0.0543 0.58232,0.1104 0.87295,0.1683 0.47548,-2.59499 0.94474,-5.19129 1.40777,-7.78891 -0.3223,-0.0642 -0.64505,-0.12644 -0.96827,-0.18678 z m 14.44744,4.06976 c -0.89365,2.48603 -1.79291,4.9701 -2.69774,7.4522 0.27768,0.10644 0.55483,0.21449 0.83141,0.32415 0.93317,-2.47223 1.86081,-4.94648 2.78289,-7.42276 -0.30484,-0.11959 -0.61037,-0.23745 -0.91656,-0.35359 z m 14.77989,7.24183 c -0.56045,-0.34051 -1.12447,-0.67496 -1.69192,-1.00327 -2.1085,3.79185 -4.23061,7.57639 -6.36628,11.35353 0.48484,0.28548 0.96693,0.57632 1.44619,0.8724 2.21731,-3.73322 4.42129,-7.47409 6.61191,-11.22252 z m 11.03836,7.87707 c -1.66405,2.08265 -3.33233,4.1619 -5.00486,6.23773 0.23119,0.19259 0.46142,0.38639 0.69066,0.58137 1.69407,-2.05863 3.38397,-4.12075 5.06965,-6.1863 -0.25072,-0.21226 -0.50254,-0.42319 -0.75545,-0.6328 z m 10.78513,10.49675 c -1.97254,1.79581 -3.9486,3.58759 -5.92815,5.37529 0.19833,0.22657 0.39549,0.45415 0.59146,0.68274 1.99704,-1.7676 3.99057,-3.53939 5.98058,-5.31533 -0.21342,-0.24877 -0.42813,-0.49643 -0.64411,-0.74295 z m 8.70633,11.6555 c -3.64257,2.41043 -7.29324,4.80751 -10.95195,7.19114 0.30208,0.47695 0.59891,0.95689 0.89035,1.43971 3.70707,-2.30282 7.40635,-4.61932 11.09776,-6.94945 -0.33932,-0.56416 -0.68473,-1.12465 -1.03617,-1.68138 m 7.50674,14.73075 c -0.12202,-0.30459 -0.24576,-0.60844 -0.37118,-0.91155 -2.43178,1.05563 -4.86576,2.10571 -7.30196,3.15022 0.11308,0.27554 0.22451,0.5517 0.33438,0.82846 2.44835,-1.01672 4.89455,-2.03908 7.33859,-3.06705 z m 4.30764,14.481717 c -0.0664,-0.32382 -0.13457,-0.6471 -0.20475,-0.96982 -2.58376,0.60034 -5.16907,1.1944 -7.75589,1.78216 0.0611,0.29133 0.12042,0.58307 0.17793,0.87522 2.59563,-0.55616 5.18981,-1.11867 7.78249,-1.68751 z m 1.56912,13.69516 c -3.4061,0.13766 -6.81365,0.26371 -10.22262,0.37811 -0.96161,0.0323 -1.92313,0.0636 -2.88459,0.094 0.0151,0.55801 0.0225,1.11576 0.0221,1.67316 4.36071,-0.0234 8.72317,-0.0656 13.08728,-0.12698 0.008,-0.58461 0.01,-1.17007 0.005,-1.75626 l -0.007,-0.26206 z m -1.36191,15.74186 c -2.62134,-0.42925 -5.24139,-0.86485 -7.86017,-1.30678 -0.0542,0.29329 -0.11032,0.58623 -0.16817,0.8788 2.6124,0.4748 5.2261,0.94339 7.84109,1.4058 0.0644,-0.32536 0.12674,-0.65119 0.18721,-0.97748 z m -4.08438,14.58233 c -2.50342,-0.89516 -5.00486,-1.79598 -7.50428,-2.70246 -0.10693,0.28028 -0.21548,0.56 -0.32563,0.83915 2.48953,0.93503 4.98112,1.86446 7.47473,2.78826 0.12013,-0.30764 0.23852,-0.61596 0.35518,-0.92495 z m -6.26807,13.20736 c -3.82397,-2.11843 -7.64053,-4.25069 -11.44961,-6.39673 -0.28702,0.48919 -0.57945,0.97562 -0.87719,1.45918 3.76453,2.22817 7.53677,4.44282 11.31669,6.64388 0.34282,-0.5652 0.67957,-1.13402 1.01011,-1.70633 z m -8.93287,12.84348 c -2.09813,-1.67118 -4.19284,-3.34666 -6.28409,-5.02643 -0.1938,0.23329 -0.38881,0.4656 -0.58504,0.69693 2.07399,1.7015 4.15148,3.39875 6.23245,5.09174 0.21356,-0.25298 0.42579,-0.50706 0.63668,-0.76224 z m -10.56202,10.88091 c -1.81092,-1.98132 -3.61771,-3.96626 -5.42032,-5.9548 -0.22814,0.20018 -0.4573,0.39917 -0.68748,0.59696 1.78165,2.00685 3.56753,4.01013 5.35762,6.00984 0.25121,-0.21602 0.50127,-0.43336 0.75018,-0.652 z m -11.73962,8.79088 c -2.40513,-3.62196 -4.79702,-7.25196 -7.17563,-10.88995 -0.4808,0.30522 -0.96462,0.60516 -1.45138,0.8997 2.29841,3.68616 4.61036,7.36459 6.93579,11.03521 0.56749,-0.34224 1.13127,-0.69059 1.69122,-1.04496 z m -14.84381,7.58655 c 0.30703,-0.12346 0.61333,-0.24863 0.91886,-0.37551 -1.06503,-2.4452 -2.12454,-4.89261 -3.17853,-7.34221 -0.27867,0.11475 -0.55797,0.22789 -0.83789,0.33941 1.02679,2.46158 2.05925,4.92097 3.09735,7.37817 z m -14.60308,4.36727 c 0.32763,-0.0677 0.65471,-0.13732 0.98122,-0.20887 -0.60849,-2.5982 -1.21065,-5.19794 -1.80649,-7.79922 -0.29485,0.0624 -0.59014,0.12303 -0.88584,0.1818 0.56396,2.6102 1.13432,5.2189 1.71106,7.82611 z m -13.81663,1.61216 c -0.18757,-4.39917 -0.3556,-8.8008 -0.50403,-13.20484 l -0.0458,4.1e-4 c -0.54846,0.0148 -1.09666,0.0222 -1.6445,0.0222 0.0317,4.3946 0.0827,8.79094 0.15306,13.18896 0.54642,0.007 1.09357,0.009 1.64139,0.005 0.13231,-0.003 0.26458,-0.007 0.3968,-0.0113 l 0.003,-1e-4 -3.5e-4,1e-5 z m -15.89441,-1.35466 c 0.42697,-2.63803 0.86037,-5.27478 1.30018,-7.91025 -0.2979,-0.0547 -0.59545,-0.11123 -0.89263,-0.1696 -0.47111,2.62943 -0.93575,5.26021 -1.39391,7.89233 0.32843,0.0645 0.65734,0.12699 0.98671,0.18756 z m -14.717643,-4.09825 c 0.89515,-2.52034 1.79614,-5.03865 2.70296,-7.55491 -0.28289,-0.10741 -0.56521,-0.21646 -0.84694,-0.32712 -0.93559,2.50635 -1.86539,5.01481 -2.7894,7.52534 0.31043,0.12064 0.62156,0.23954 0.93336,0.35669 z m -15.04796,-7.3137 c 0.56966,0.34368 1.14295,0.68124 1.71974,1.01257 2.10196,-3.80859 4.21764,-7.60987 6.34698,-11.40376 -0.49384,-0.28867 -0.98489,-0.58278 -1.47304,-0.88222 -2.2113,3.75013 -4.40919,7.50791 -6.59359,11.27326 z m -11.23872,-7.96978 c 1.67856,-2.11401 3.36149,-4.22456 5.04877,-6.33162 -0.2354,-0.19499 -0.4698,-0.39123 -0.70321,-0.58868 -1.70918,2.08972 -3.41405,4.18298 -5.1146,6.27976 0.25524,0.21485 0.51158,0.42837 0.76903,0.64053 z m -10.97881,-10.62916 c 1.99118,-1.82553 3.98603,-3.64686 5.98453,-5.46397 -0.20203,-0.2297 -0.40286,-0.46044 -0.60249,-0.6922 -2.01696,1.79606 -4.0303,3.59639 -6.04002,5.40097 0.21801,0.25288 0.43734,0.50462 0.65798,0.7552 z m -9.92903,-13.52484 c 0.34609,0.57137 0.69833,1.13897 1.05662,1.70269 3.64586,-2.42928 7.29991,-4.84515 10.96208,-7.24756 -0.30822,-0.48435 -0.61112,-0.97178 -0.9086,-1.46219 -3.71001,2.3212 -7.41216,4.65612 -11.10637,7.0047 l -0.004,0.003 2.8e-4,-1.8e-4 z m -6.61133,-13.25303 c 0.12526,0.31042 0.25225,0.62007 0.38097,0.92896 2.45852,-1.07719 4.91931,-2.1487 7.38237,-3.21451 -0.1161,-0.28096 -0.23059,-0.56255 -0.34344,-0.84478 -2.47547,1.03768 -4.94871,2.08111 -7.41972,3.13027 z m -3.57281,-15.15131 0.21241,0.98968 7.98736,-1.26322 -0.18508,-0.89381 -8.0145,1.1673 z"
       style="font-style:normal;font-weight:normal;font-size:20px;line-height:125%;font-family:sans-serif;letter-spacing:0px;word-spacing:0px;fill:#b1937e;fill-opacity:1;stroke:none;stroke-width:1px;stroke-linecap:butt;stroke-linejoin:miter;stroke-opacity:1"
       id="compass"
       inkscape:label="#path4808" />
    <text
       xml:space="preserve"
       style="font-style:normal;font-weight:normal;font-size:20px;line-height:125%;font-family:sans-serif;letter-spacing:0px;word-spacing:0px;fill:#000000;fill-opacity:1;stroke:none;stroke-width:1px;stroke-linecap:butt;stroke-linejoin:miter;stroke-opacity:1"
       x="200.35715"
       y="-17.499998"
       id="text4692"
       sodipodi:linespacing="125%"><tspan
         sodipodi:role="line"
         id="tspan4694"
         x="200.35715"
         y="-17.499998" /></text>
    <flowRoot
       xml:space="preserve"
       id="flowRoot4708"
       style="fill:black;stroke:none;stroke-opacity:1;stroke-width:1px;stroke-linejoin:miter;stroke-linecap:butt;fill-opacity:1;font-family:sans-serif;font-style:normal;font-weight:normal;font-size:20px;line-height:125%;letter-spacing:0px;word-spacing:0px"><flowRegion
         id="flowRegion4710"><rect
           id="rect4712"
           width="162.85715"
           height="39.285713"
           x="-11.785714"
           y="122.5" /></flowRegion><flowPara
         id="flowPara4714" /></flowRoot>    <g
       id="airplane"
       inkscape:label="#g4850"
       transform="translate(-0.09999985,0)">
      <path
         inkscape:connector-curvature="0"
         style="fill:none;fill-opacity:1;fill-rule:evenodd;stroke:#000000;stroke-width:2;stroke-linecap:butt;stroke-linejoin:miter;stroke-miterlimit:4;stroke-dasharray:none;stroke-opacity:1;filter:url(#filter4846)"
         d="m 125.98893,64.803186 c -2.86226,0.0578 -5.8044,3.94686 -7.46112,15.12408 -0.36866,2.48722 -2.11541,17.52919 -2.30258,23.567814 -4.29045,2.78497 -43.075803,28.81242 -45.964433,35.76865 -2.84497,6.85108 -1.35375,14.08237 -1.35375,14.08237 l 47.321973,-23.4623 c 2.08804,14.71671 3.96265,26.55766 5.56315,39.11829 0,0 -13.65121,9.24521 -15.01983,11.53375 -1.36863,2.28854 -0.8585,7.61842 -0.8585,7.61842 l 20.43043,-5.3528 20.42948,5.3528 c 0,0 0.51014,-5.32988 -0.85849,-7.61842 -1.36862,-2.28854 -15.01984,-11.53375 -15.01984,-11.53375 1.6005,-12.56063 3.47511,-24.40158 5.56315,-39.11829 l 44.82198,21.85515 c 0,0 3.99122,-5.62414 1.14625,-12.47522 -2.88864,-6.95623 -41.46484,-32.52949 -45.96444,-35.76865 -0.18717,-6.406174 -1.93392,-21.080594 -2.30258,-23.567814 -1.65672,-11.17722 -4.59886,-15.06626 -7.46112,-15.12408 -0.11813,-0.002 -0.23654,0.005 -0.35439,0.0161 -0.11816,-0.0107 -0.23689,-0.0185 -0.35534,-0.0161 z"
         id="path4844"
         sodipodi:nodetypes="cscscccscccscccscsccc" />
      <path
         sodipodi:nodetypes="cscscccscccscccscscc"
         id="airplane-5"
         d="m 124.78924,62.803186 c -2.86226,0.0578 -5.8044,3.94686 -7.46112,15.12408 -0.36866,2.48722 -2.11541,17.52919 -2.30258,23.567814 -4.29045,2.78497 -43.075805,28.81242 -45.964435,35.76865 -2.84497,6.85108 -0.639464,13.36808 -0.639464,13.36808 L 115.02933,127.8838 c 2.08804,14.71671 3.96265,26.55766 5.56315,39.11829 0,0 -13.65121,9.24521 -15.01983,11.53375 -1.36863,2.28854 -0.8585,7.61842 -0.8585,7.61842 l 20.43043,-5.3528 20.42948,5.3528 c 0,0 0.51014,-5.32988 -0.85849,-7.61842 -1.36862,-2.28854 -15.01984,-11.53375 -15.01984,-11.53375 1.6005,-12.56063 3.47511,-24.40158 5.56315,-39.11829 l 46.78627,22.03372 c 0,0 2.02693,-5.80271 -0.81804,-12.65379 -2.88864,-6.95623 -41.46484,-32.52949 -45.96444,-35.76865 -0.18717,-6.406174 -1.93392,-21.080594 -2.30258,-23.567814 -1.65672,-11.17722 -4.59886,-15.06626 -7.46112,-15.12408 -0.24434,0.02012 -0.48282,0 -0.70973,0 z"
         style="fill:none;fill-opacity:1;fill-rule:evenodd;stroke:#594436;stroke-width:2;stroke-linecap:butt;stroke-linejoin:miter;stroke-miterlimit:4;stroke-dasharray:none;stroke-opacity:1"
         inkscape:connector-curvature="0" />
    </g>
    <g
       id="headingSP"
       inkscape:label="#g5022">
      <path
         style="opacity:1;fill:#1f1915;fill-opacity:1;stroke:none;stroke-width:2.11635494;stroke-miterlimit:4;stroke-dasharray:none;stroke-opacity:1"
         d="m 133.72406,5.7921747 c 0,-0.7322066 -0.63554,-1.3216609 -1.42497,-1.3216609 l -14.52412,0 c -0.78943,0 -1.801,0.6778565 -1.42495,1.3216609 l 8.687,14.8724533 z"
         id="rect5124"
         inkscape:connector-curvature="0"
         sodipodi:nodetypes="sssscs" />
      <path
         inkscape:connector-curvature="0"
         id="path5006"
         d="m 117.77492,2.7507575 c -0.69226,0 -1.29337,0.2337388 -1.80644,0.6547844 -0.25653,0.2105222 -0.50145,0.4822547 -0.64025,0.8762003 -0.1388,0.3939446 -0.1047,0.9293035 0.12958,1.3303862 l 9.57903,16.4017856 9.72004,-16.6402335 0,-0.2762961 c 0,-1.3214207 -1.15123,-2.3466269 -2.45811,-2.3466269 l -14.52385,0 z m 0,2.0514056 14.52385,0 c 0.19387,0 0.22892,0.1135063 0.2801,0.2100611 L 125.03684,17.926242 117.44335,4.9251717 c 0.12483,-0.055423 0.26607,-0.1230086 0.33157,-0.1230086 z"
         style="color:#000000;font-style:normal;font-variant:normal;font-weight:normal;font-stretch:normal;font-size:medium;line-height:normal;font-family:sans-serif;text-indent:0;text-align:start;text-decoration:none;text-decoration-line:none;text-decoration-style:solid;text-decoration-color:#000000;letter-spacing:normal;word-spacing:normal;text-transform:none;direction:ltr;block-progression:tb;writing-mode:lr-tb;baseline-shift:baseline;text-anchor:start;white-space:normal;clip-rule:nonzero;display:inline;overflow:visible;visibility:visible;opacity:1;isolation:auto;mix-blend-mode:normal;color-interpolation:sRGB;color-interpolation-filters:linearRGB;solid-color:#000000;solid-opacity:1;fill:#c45614;fill-opacity:1;fill-rule:nonzero;stroke:#64280a;stroke-width:0.48613572;stroke-linecap:butt;stroke-linejoin:miter;stroke-miterlimit:4;stroke-dasharray:none;stroke-dashoffset:0;stroke-opacity:1;color-rendering:auto;image-rendering:auto;shape-rendering:auto;text-rendering:auto;enable-background:accumulate" />
    </g>
    <path
       style="color:#000000;font-style:normal;font-variant:normal;font-weight:normal;font-stretch:normal;font-size:medium;line-height:normal;font-family:sans-serif;text-indent:0;text-align:start;text-decoration:none;text-decoration-line:none;text-decoration-style:solid;text-decoration-color:#000000;letter-spacing:normal;word-spacing:normal;text-transform:none;direction:ltr;block-progression:tb;writing-mode:lr-tb;baseline-shift:baseline;text-anchor:start;white-space:normal;clip-rule:nonzero;display:inline;overflow:visible;visibility:visible;opacity:1;isolation:auto;mix-blend-mode:normal;color-interpolation:sRGB;color-interpolation-filters:linearRGB;solid-color:#000000;solid-opacity:1;fill:#c45614;fill-opacity:1;fill-rule:nonzero;stroke:#64280a;stroke-width:0.48613572;stroke-linecap:butt;stroke-linejoin:miter;stroke-miterlimit:4;stroke-dasharray:none;stroke-dashoffset:0;stroke-opacity:1;color-rendering:auto;image-rendering:auto;shape-rendering:auto;text-rendering:auto;enable-background:accumulate"
       d="m 117.784,42.45642 c -0.69226,0 -1.29337,-0.233738 -1.80644,-0.654784 -0.25653,-0.210522 -0.50145,-0.482255 -0.64025,-0.8762 -0.1388,-0.393945 -0.1047,-0.929304 0.12958,-1.330387 l 9.57903,-16.401785 9.72004,16.640233 0,0.276296 c 0,1.321421 -1.15123,2.346627 -2.45811,2.346627 l -14.52385,0 z m 0,-2.051405 14.52385,0 c 0.19387,0 0.22892,-0.113507 0.2801,-0.210061 l -7.54203,-12.914018 -7.59349,13.00107 c 0.12483,0.05542 0.26607,0.123009 0.33157,0.123009 z"
       id="heading"
       inkscape:connector-curvature="0"
       inkscape:label="#path4163" />
    <g
       id="homeDirection"
       inkscape:label="#g4318">
      <path
         transform="matrix(1.0225262,0,0,0.92125013,-2.8174864,12.886435)"
         sodipodi:nodetypes="ccccccccc"
         inkscape:connector-curvature="0"
         id="path4245"
         d="m 123.72464,43.192805 -4.86328,12.190007 c 0.003,2.618295 1.9465,1.528797 4.54297,1.866164 l -1.4375,25.472688 6.21834,0.01 c -0.47885,-25.00529 -0.95826,-0.479358 -1.4375,-25.484641 2.59574,-0.33727 4.53927,0.75334 4.54297,-1.864211 l -4.86329,-12.190007 z"
         style="fill:#000000;fill-opacity:0.55294118;stroke:none;stroke-width:5;stroke-miterlimit:4;stroke-dasharray:none;stroke-opacity:0.35503001;filter:url(#filter4312)" />
      <path
         style="fill:#b1937e;fill-opacity:1;stroke:none;stroke-width:5;stroke-miterlimit:4;stroke-dasharray:none;stroke-opacity:0.35503001"
         d="m 124.7167,53.230713 -4.97284,10.677145 c 0.003,2.412104 1.99035,-0.663465 4.64531,-0.352666 l -1.46988,24.709218 0,0.009 4.31378,0 0,-0.009 -1.46988,-24.709218 c 2.6542,-0.31071 4.64152,2.764085 4.64531,0.352666 l -4.97285,-10.677145 z"
         id="path4241"
         inkscape:connector-curvature="0"
         sodipodi:nodetypes="ccccccccccc" />
    </g>
  </g>
</svg>
