<?xml version="1.0" encoding="UTF-8" standalone="no"?>
<!-- Created with Inkscape (http://www.inkscape.org/) -->

<svg
   xmlns:dc="http://purl.org/dc/elements/1.1/"
   xmlns:cc="http://creativecommons.org/ns#"
   xmlns:rdf="http://www.w3.org/1999/02/22-rdf-syntax-ns#"
   xmlns:svg="http://www.w3.org/2000/svg"
   xmlns="http://www.w3.org/2000/svg"
   xmlns:sodipodi="http://sodipodi.sourceforge.net/DTD/sodipodi-0.dtd"
   xmlns:inkscape="http://www.inkscape.org/namespaces/inkscape"
   width="50"
   height="65"
   viewBox="0 0 50.000001 65"
   id="indicatorVtolBattery"
   version="1.1"
   inkscape:version="0.91 r13725"
   sodipodi:docname="indicatorVtolBattery.svg">
  <metadata
     id="metadata65">
    <rdf:RDF>
      <cc:Work
         rdf:about="">
        <dc:format>image/svg+xml</dc:format>
        <dc:type
           rdf:resource="http://purl.org/dc/dcmitype/StillImage" />
      </cc:Work>
    </rdf:RDF>
  </metadata>
  <defs
     id="defs5239">
    <clipPath
       clipPathUnits="userSpaceOnUse"
       id="clipPath4179">
      <path
         sodipodi:nodetypes="cssssccccccccssssccssccsssssccccccs"
         id="path4181"
         d="m 7.922346,1028.6271 0,2.0084 c 0,0.6514 0.5447214,1.1796 1.2166203,1.1796 l 9.2318477,0 c 0.671899,0 1.21662,-0.5282 1.21662,-1.1796 l 0,-9.1818 z m 0,-3.4934 11.665088,-7.1732 0,-8.2193 -11.665088,7.1733 z m 11.665088,-18.8856 0,-1.1694 c 0,-0.6514 -0.544721,-1.1795 -1.21662,-1.1795 l -9.2318477,0 c -0.6718989,0 -1.2112039,0.5281 -1.2166203,1.1795 l 0,8.3426 z m 0.455731,-4.4402 c 1.391647,0 2.519776,1.0938 2.519776,2.4431 l 0,27.3621 8.1e-5,0 c 0,1.3493 -1.128128,2.443 -2.519776,2.443 l -12.7672174,0 c -1.3916482,0 -2.5198599,-1.0937 -2.5198599,-2.443 l 0,-27.3621 c 0,-1.3493 1.1282361,-2.451 2.5198599,-2.4431 l 2.3307858,0.013 0.00598,-2.72601 c 0.073178,-0.22258 0.2059657,-0.38737 0.4695056,-0.42538 l 7.179936,0 c 0.194022,0.10043 0.38666,0.2031 0.440737,0.52967 l -0.01308,2.61422 z"
         inkscape:connector-curvature="0" />
    </clipPath>
    <clipPath
       clipPathUnits="userSpaceOnUse"
       id="clipPath4183">
      <path
         sodipodi:nodetypes="cssssccccccccssssccssccsssssccccccs"
         id="path4185"
         d="m 7.922346,1028.6271 0,2.0084 c 0,0.6514 0.5447214,1.1796 1.2166203,1.1796 l 9.2318477,0 c 0.671899,0 1.21662,-0.5282 1.21662,-1.1796 l 0,-9.1818 z m 0,-3.4934 11.665088,-7.1732 0,-8.2193 -11.665088,7.1733 z m 11.665088,-18.8856 0,-1.1694 c 0,-0.6514 -0.544721,-1.1795 -1.21662,-1.1795 l -9.2318477,0 c -0.6718989,0 -1.2112039,0.5281 -1.2166203,1.1795 l 0,8.3426 z m 0.455731,-4.4402 c 1.391647,0 2.519776,1.0938 2.519776,2.4431 l 0,27.3621 8.1e-5,0 c 0,1.3493 -1.128128,2.443 -2.519776,2.443 l -12.7672174,0 c -1.3916482,0 -2.5198599,-1.0937 -2.5198599,-2.443 l 0,-27.3621 c 0,-1.3493 1.1282361,-2.451 2.5198599,-2.4431 l 2.3307858,0.013 0.00598,-2.72601 c 0.073178,-0.22258 0.2059657,-0.38737 0.4695056,-0.42538 l 7.179936,0 c 0.194022,0.10043 0.38666,0.2031 0.440737,0.52967 l -0.01308,2.61422 z"
         inkscape:connector-curvature="0" />
    </clipPath>
  </defs>
  <sodipodi:namedview
     id="base"
     pagecolor="#2e2824"
     bordercolor="#666666"
     borderopacity="1.0"
     inkscape:pageopacity="1"
     inkscape:pageshadow="2"
     inkscape:zoom="5.6568543"
     inkscape:cx="-41.157005"
     inkscape:cy="9.7700577"
     inkscape:document-units="px"
     inkscape:current-layer="layer1"
     showgrid="false"
     units="px"
     inkscape:window-width="1920"
     inkscape:window-height="1017"
     inkscape:window-x="1912"
     inkscape:window-y="-8"
     inkscape:window-maximized="1" />
  <g
     inkscape:label="Layer 1"
     inkscape:groupmode="layer"
     id="layer1"
     transform="translate(0,-987.36216)">
    <rect
       ry="7.271162"
       y="988.86511"
       x="1.5029331"
       height="61.994133"
       width="46.994137"
       id="frame"
       style="opacity:1;fill:#110e0c;fill-opacity:1;stroke:#ff0000;stroke-width:3.00586629;stroke-linecap:round;stroke-miterlimit:4;stroke-dasharray:none;stroke-dashoffset:0;stroke-opacity:1"
       inkscape:label="#rect4655" />
    <rect
       inkscape:label="#rect6064-0-3"
       style="opacity:1;fill:#554400;fill-opacity:1;stroke:none;stroke-width:1;stroke-linecap:round;stroke-miterlimit:4;stroke-dasharray:none;stroke-dashoffset:0;stroke-opacity:1"
       id="fullBarL"
       width="17.607269"
       height="35.256603"
       x="4.8879919"
       y="998.36273"
       ry="0"
       clip-path="url(#clipPath4183)"
       transform="matrix(0.7499281,0,0,0.85524185,3.9722996,152.14809)" />
    <rect
       inkscape:label="#rect6052-6-9"
       ry="0"
       y="1020.2964"
       x="5.27879"
       height="13.280622"
       width="17.16856"
       id="ratioBarL"
       style="opacity:1;fill:#126612;fill-opacity:1;stroke:#072707;stroke-width:0.74121916;stroke-linecap:round;stroke-miterlimit:4;stroke-dasharray:none;stroke-dashoffset:0;stroke-opacity:1"
       clip-path="url(#clipPath4179)"
       transform="matrix(0.7499281,0,0,0.85524185,3.9393217,152.14809)" />
    <text
       xml:space="preserve"
       style="font-style:normal;font-weight:normal;font-size:8.75px;line-height:125%;font-family:sans-serif;text-align:center;letter-spacing:0px;word-spacing:0px;text-anchor:middle;fill:#126612;fill-opacity:1;stroke:none;stroke-width:1px;stroke-linecap:butt;stroke-linejoin:miter;stroke-opacity:1"
       x="14.111352"
       y="1046.5161"
       id="valueTextL"
       sodipodi:linespacing="125%"
       inkscape:label="#text4207"><tspan
         sodipodi:role="line"
         id="tspan4209"
         x="14.111352"
         y="1046.5161"
         style="font-style:normal;font-variant:normal;font-weight:bold;font-stretch:normal;font-size:8.75px;font-family:sans-serif;-inkscape-font-specification:'sans-serif Bold';text-align:center;text-anchor:middle;fill:#126612;fill-opacity:1">48V</tspan></text>
    <text
       inkscape:label="#text4207"
       sodipodi:linespacing="125%"
       id="valueTextR"
       y="1046.5161"
       x="36.208439"
       style="font-style:normal;font-weight:normal;font-size:8.75px;line-height:125%;font-family:sans-serif;text-align:center;letter-spacing:0px;word-spacing:0px;text-anchor:middle;fill:#126612;fill-opacity:1;stroke:none;stroke-width:1px;stroke-linecap:butt;stroke-linejoin:miter;stroke-opacity:1"
       xml:space="preserve"><tspan
         style="font-style:normal;font-variant:normal;font-weight:bold;font-stretch:normal;font-size:8.75px;font-family:sans-serif;-inkscape-font-specification:'sans-serif Bold';text-align:center;text-anchor:middle;fill:#126612;fill-opacity:1"
         y="1046.5161"
         x="36.208439"
         id="tspan4152"
         sodipodi:role="line">48V</tspan></text>
    <rect
       transform="matrix(0.7499281,0,0,0.85524185,26.068368,152.14809)"
       clip-path="url(#clipPath4183)"
       ry="0"
       y="998.36273"
       x="4.8879919"
       height="35.256603"
       width="17.607269"
       id="fullBarR"
       style="opacity:1;fill:#554400;fill-opacity:1;stroke:none;stroke-width:1;stroke-linecap:round;stroke-miterlimit:4;stroke-dasharray:none;stroke-dashoffset:0;stroke-opacity:1"
       inkscape:label="#rect6064-0-3" />
    <rect
       transform="matrix(0.7499281,0,0,0.85524185,26.035391,152.14809)"
       clip-path="url(#clipPath4179)"
       style="opacity:1;fill:#126612;fill-opacity:1;stroke:#072707;stroke-width:0.74121916;stroke-linecap:round;stroke-miterlimit:4;stroke-dasharray:none;stroke-dashoffset:0;stroke-opacity:1"
       id="ratioBarR"
       width="17.16856"
       height="13.280622"
       x="5.27879"
       y="1020.2964"
       ry="0"
       inkscape:label="#rect6052-6-9" />
    <g
       id="g4165"
       transform="matrix(0.86609131,0,0,0.86609131,66.07358,134.15795)">
      <path
         d="m -62.803488,996.06327 -2.231139,6.57633 -2.102321,0 -2.215681,-6.57633 1.963197,0 1.339714,4.52093 1.324256,-4.52093 1.921974,0 z"
         style="font-style:normal;font-variant:normal;font-weight:bold;font-stretch:normal;font-size:11.25px;line-height:125%;font-family:sans-serif;-inkscape-font-specification:'sans-serif Bold';letter-spacing:0px;word-spacing:0px;fill:#554400;fill-opacity:1;stroke:none;stroke-width:1px;stroke-linecap:butt;stroke-linejoin:miter;stroke-opacity:1"
         id="path4146-8"
         inkscape:connector-curvature="0" />
      <path
         d="m -58.068113,1002.4519 q -0.29886,0.088 -0.633789,0.1347 -0.334928,0.053 -0.819286,0.053 -1.082077,0 -1.61281,-0.4977 -0.52558,-0.4978 -0.52558,-1.7041 l 0,-3.07449 -0.762607,0 0,-1.42888 0.762607,0 0,-1.8798 1.854989,0 0,1.8798 1.736476,0 0,1.42888 -1.736476,0 0,2.33071 q 0,0.34548 0.0052,0.60318 0.0052,0.2577 0.08244,0.4626 0.07214,0.205 0.252485,0.328 0.185499,0.1171 0.535885,0.1171 0.144278,0 0.376151,-0.07 0.237027,-0.07 0.329776,-0.1288 l 0.154583,0 0,1.4465 z"
         style="font-style:normal;font-variant:normal;font-weight:bold;font-stretch:normal;font-size:11.25px;line-height:125%;font-family:sans-serif;-inkscape-font-specification:'sans-serif Bold';letter-spacing:0px;word-spacing:0px;fill:#554400;fill-opacity:1;stroke:none;stroke-width:1px;stroke-linecap:butt;stroke-linejoin:miter;stroke-opacity:1"
         id="path4148-9"
         inkscape:connector-curvature="0" />
      <path
         d="m -51.050072,999.14938 q 0,1.62212 -0.834745,2.55912 -0.829593,0.9311 -2.334195,0.9311 -1.504602,0 -2.339346,-0.9311 -0.829593,-0.937 -0.829593,-2.55912 0,-1.63384 0.834745,-2.56496 0.839898,-0.93111 2.334194,-0.93111 1.514908,0 2.339348,0.93697 0.829592,0.93697 0.829592,2.5591 z m -2.282667,1.59872 q 0.180346,-0.2518 0.267943,-0.6032 0.09275,-0.3572 0.09275,-0.9838 0,-0.57976 -0.09275,-0.97211 -0.09275,-0.39236 -0.257637,-0.6266 -0.164888,-0.2401 -0.396762,-0.33965 -0.231873,-0.0996 -0.499817,-0.0996 -0.267942,0 -0.479205,0.082 -0.20611,0.082 -0.396762,0.32794 -0.17004,0.22838 -0.273095,0.6266 -0.0979,0.39821 -0.0979,1.00139 0,0.53876 0.08759,0.93693 0.08759,0.3924 0.257638,0.6325 0.164888,0.2284 0.391609,0.3338 0.231873,0.1054 0.52558,0.1054 0.252485,0 0.479205,-0.094 0.231874,-0.1 0.391609,-0.3279 z"
         style="font-style:normal;font-variant:normal;font-weight:bold;font-stretch:normal;font-size:11.25px;line-height:125%;font-family:sans-serif;-inkscape-font-specification:'sans-serif Bold';letter-spacing:0px;word-spacing:0px;fill:#554400;fill-opacity:1;stroke:none;stroke-width:1px;stroke-linecap:butt;stroke-linejoin:miter;stroke-opacity:1"
         id="path4150-6"
         inkscape:connector-curvature="0" />
      <path
         d="m -47.855369,1002.6396 -1.854989,0 0,-9.11201 1.854989,0 0,9.11201 z"
         style="font-style:normal;font-variant:normal;font-weight:bold;font-stretch:normal;font-size:11.25px;line-height:125%;font-family:sans-serif;-inkscape-font-specification:'sans-serif Bold';letter-spacing:0px;word-spacing:0px;fill:#554400;fill-opacity:1;stroke:none;stroke-width:1px;stroke-linecap:butt;stroke-linejoin:miter;stroke-opacity:1"
         id="path4152-7"
         inkscape:connector-curvature="0" />
      <path
         d="m -36.888216,999.1318 q 0,1.5519 -0.757453,2.5299 -0.752302,0.9779 -1.880753,0.9779 -0.484358,0 -0.850203,-0.1171 -0.365845,-0.1171 -0.695621,-0.3397 l -0.07729,0.328 -1.777698,0 0,-9.1121 1.854989,0 0,3.2209 q 0.427679,-0.3865 0.870815,-0.6266 0.448288,-0.2401 1.030549,-0.2401 1.097535,0 1.690101,0.9018 0.592565,0.896 0.592565,2.4771 z m -1.911668,0.041 q 0,-0.8784 -0.262791,-1.3528 -0.262789,-0.4743 -0.9378,-0.4743 -0.26279,0 -0.541038,0.094 -0.278248,0.088 -0.530733,0.2576 l 0,3.3029 q 0.200958,0.082 0.381303,0.1112 0.180346,0.029 0.432831,0.029 0.736843,0 1.097535,-0.492 0.360693,-0.4919 0.360693,-1.4757 z"
         style="font-style:normal;font-variant:normal;font-weight:bold;font-stretch:normal;font-size:11.25px;line-height:125%;font-family:sans-serif;-inkscape-font-specification:'sans-serif Bold';letter-spacing:0px;word-spacing:0px;fill:#554400;fill-opacity:1;stroke:none;stroke-width:1px;stroke-linecap:butt;stroke-linejoin:miter;stroke-opacity:1"
         id="path4154-1"
         inkscape:connector-curvature="0" />
      <path
         d="m -32.044633,1000.7484 0,-1.3704 q -0.376151,0.035 -0.814134,0.1 -0.437984,0.058 -0.664704,0.1406 -0.278249,0.1 -0.427679,0.2928 -0.144277,0.1874 -0.144277,0.4977 0,0.205 0.03092,0.3338 0.03092,0.1288 0.154582,0.246 0.118513,0.1171 0.283401,0.1757 0.164889,0.053 0.515275,0.053 0.278249,0 0.56165,-0.1288 0.288553,-0.1289 0.504969,-0.3397 z m 0,1.0189 q -0.14943,0.1288 -0.370998,0.3104 -0.221568,0.1815 -0.417372,0.2869 -0.273096,0.1406 -0.566802,0.205 -0.293707,0.07 -0.644094,0.07 -0.824439,0 -1.380936,-0.5797 -0.556497,-0.5798 -0.556497,-1.4816 0,-0.7203 0.283401,-1.1771 0.283401,-0.4567 0.803829,-0.7203 0.515274,-0.2635 1.277881,-0.3747 0.762607,-0.1113 1.581893,-0.164 l 0,-0.035 q 0,-0.5446 -0.391608,-0.7496 -0.391609,-0.2108 -1.154216,-0.2108 -0.458595,0 -0.979021,0.1874 -0.520428,0.1815 -0.747149,0.2811 l -0.170041,0 0,-1.587 q 0.293707,-0.088 0.953259,-0.205 0.664704,-0.1229 1.329408,-0.1229 1.581893,0 2.282667,0.5563 0.705926,0.5505 0.705926,1.7334 l 0,4.474 -1.83953,0 0,-0.6969 z"
         style="font-style:normal;font-variant:normal;font-weight:bold;font-stretch:normal;font-size:11.25px;line-height:125%;font-family:sans-serif;-inkscape-font-specification:'sans-serif Bold';letter-spacing:0px;word-spacing:0px;fill:#554400;fill-opacity:1;stroke:none;stroke-width:1px;stroke-linecap:butt;stroke-linejoin:miter;stroke-opacity:1"
         id="path4156-7"
         inkscape:connector-curvature="0" />
      <path
         d="m -24.799872,1002.4519 q -0.298858,0.088 -0.633787,0.1347 -0.334929,0.053 -0.819287,0.053 -1.082076,0 -1.612809,-0.4978 -0.525581,-0.4978 -0.525581,-1.7041 l 0,-3.0745 -0.762606,0 0,-1.4288 0.762606,0 0,-1.8798 1.854989,0 0,1.8798 1.736475,0 0,1.4288 -1.736475,0 0,2.3308 q 0,0.3455 0.0052,0.6031 0.0052,0.2577 0.08244,0.4627 0.07213,0.2049 0.252484,0.3279 0.185499,0.1171 0.535886,0.1171 0.144277,0 0.37615,-0.07 0.237026,-0.07 0.329776,-0.1289 l 0.154582,0 0,1.4465 z"
         style="font-style:normal;font-variant:normal;font-weight:bold;font-stretch:normal;font-size:11.25px;line-height:125%;font-family:sans-serif;-inkscape-font-specification:'sans-serif Bold';letter-spacing:0px;word-spacing:0px;fill:#554400;fill-opacity:1;stroke:none;stroke-width:1px;stroke-linecap:butt;stroke-linejoin:miter;stroke-opacity:1"
         id="path4158-6"
         inkscape:connector-curvature="0" />
    </g>
  </g>
</svg>
